<?xml version="1.0" encoding="UTF-8" standalone="no"?>
<!DOCTYPE svg PUBLIC "-//W3C//DTD SVG 1.1//EN"
 "http://www.w3.org/Graphics/SVG/1.1/DTD/svg11.dtd">
<!-- Generated by graphviz version 2.43.0 (0)
 -->
<!-- Title: Kineis/Lpm/Inc/lpm.h Pages: 1 -->
<svg width="387pt" height="106pt"
 viewBox="0.00 0.00 387.00 106.00" xmlns="http://www.w3.org/2000/svg" xmlns:xlink="http://www.w3.org/1999/xlink">
<g id="graph0" class="graph" transform="scale(1 1) rotate(0) translate(4 102)">
<title>Kineis/Lpm/Inc/lpm.h</title>
<polygon fill="white" stroke="transparent" points="-4,4 -4,-102 383,-102 383,4 -4,4"/>
<!-- Node1 -->
<g id="node1" class="node">
<title>Node1</title>
<g id="a_node1"><a xlink:title="This file contains some utilities and functions needed for a correct handling of LPM on the STM32WL55...">
<polygon fill="#bfbfbf" stroke="black" points="117,-78.5 117,-97.5 236,-97.5 236,-78.5 117,-78.5"/>
<text text-anchor="middle" x="176.5" y="-85.5" font-family="Helvetica,sans-Serif" font-size="10.00">Kineis/Lpm/Inc/lpm.h</text>
</a>
</g>
</g>
<!-- Node2 -->
<g id="node2" class="node">
<title>Node2</title>
<g id="a_node2"><a xlink:href="../../d0/d29/main_8c.html" target="_top" xlink:title=": Main program body">
<polygon fill="white" stroke="black" points="0,-11.5 0,-30.5 93,-30.5 93,-11.5 0,-11.5"/>
<text text-anchor="middle" x="46.5" y="-18.5" font-family="Helvetica,sans-Serif" font-size="10.00">Core/Src/main.c</text>
</a>
</g>
</g>
<!-- Node1&#45;&gt;Node2 -->
<g id="edge1" class="edge">
<title>Node1&#45;&gt;Node2</title>
<path fill="none" stroke="midnightblue" d="M150.05,-73.77C124.3,-60.9 85.92,-41.71 63.83,-30.67"/>
<polygon fill="midnightblue" stroke="midnightblue" points="148.73,-77.03 159.24,-78.37 151.86,-70.77 148.73,-77.03"/>
</g>
<!-- Node3 -->
<g id="node3" class="node">
<title>Node3</title>
<g id="a_node3"><a xlink:href="../../d1/dfd/mgr__at__cmd__list__general_8c.html" target="_top" xlink:title="subset of AT commands concerning general purpose (get ID, FW version, ...)">
<polygon fill="white" stroke="black" points="111.5,-0.5 111.5,-41.5 241.5,-41.5 241.5,-0.5 111.5,-0.5"/>
<text text-anchor="start" x="119.5" y="-29.5" font-family="Helvetica,sans-Serif" font-size="10.00">Kineis/App/Managers</text>
<text text-anchor="start" x="119.5" y="-18.5" font-family="Helvetica,sans-Serif" font-size="10.00">/MGR_AT_CMD/Src/mgr</text>
<text text-anchor="middle" x="176.5" y="-7.5" font-family="Helvetica,sans-Serif" font-size="10.00">_at_cmd_list_general.c</text>
</a>
</g>
</g>
<!-- Node1&#45;&gt;Node3 -->
<g id="edge2" class="edge">
<title>Node1&#45;&gt;Node3</title>
<path fill="none" stroke="midnightblue" d="M176.5,-68.04C176.5,-59.71 176.5,-49.94 176.5,-41.54"/>
<polygon fill="midnightblue" stroke="midnightblue" points="173,-68.23 176.5,-78.23 180,-68.23 173,-68.23"/>
</g>
<!-- Node4 -->
<g id="node4" class="node">
<title>Node4</title>
<g id="a_node4"><a xlink:href="../../d5/db5/lpm_8c.html" target="_top" xlink:title="This file contains some utilities and functions needed for a correct handling of LPM on the STM32WL55...">
<polygon fill="white" stroke="black" points="260,-11.5 260,-30.5 379,-30.5 379,-11.5 260,-11.5"/>
<text text-anchor="middle" x="319.5" y="-18.5" font-family="Helvetica,sans-Serif" font-size="10.00">Kineis/Lpm/Src/lpm.c</text>
</a>
</g>
</g>
<!-- Node1&#45;&gt;Node4 -->
<g id="edge3" class="edge">
<title>Node1&#45;&gt;Node4</title>
<path fill="none" stroke="midnightblue" d="M204.85,-74.11C233.17,-61.24 275.93,-41.81 300.43,-30.67"/>
<polygon fill="midnightblue" stroke="midnightblue" points="203.14,-71.04 195.49,-78.37 206.04,-77.42 203.14,-71.04"/>
</g>
</g>
</svg>
