<?xml version="1.0" encoding="UTF-8" standalone="no"?>
<!DOCTYPE svg PUBLIC "-//W3C//DTD SVG 1.1//EN"
 "http://www.w3.org/Graphics/SVG/1.1/DTD/svg11.dtd">
<!-- Generated by graphviz version 2.43.0 (0)
 -->
<!-- Title: Kineis/Extdep/Mcu/Src/aes.c Pages: 1 -->
<svg width="248pt" height="151pt"
 viewBox="0.00 0.00 248.00 151.00" xmlns="http://www.w3.org/2000/svg" xmlns:xlink="http://www.w3.org/1999/xlink">
<g id="graph0" class="graph" transform="scale(1 1) rotate(0) translate(4 147)">
<title>Kineis/Extdep/Mcu/Src/aes.c</title>
<polygon fill="white" stroke="transparent" points="-4,4 -4,-147 244,-147 244,4 -4,4"/>
<!-- Node1 -->
<g id="node1" class="node">
<title>Node1</title>
<g id="a_node1"><a xlink:title=" ">
<polygon fill="#bfbfbf" stroke="black" points="44,-112.5 44,-142.5 169,-142.5 169,-112.5 44,-112.5"/>
<text text-anchor="start" x="52" y="-130.5" font-family="Helvetica,sans-Serif" font-size="10.00">Kineis/Extdep/Mcu/Src</text>
<text text-anchor="middle" x="106.5" y="-119.5" font-family="Helvetica,sans-Serif" font-size="10.00">/aes.c</text>
</a>
</g>
</g>
<!-- Node2 -->
<g id="node2" class="node">
<title>Node2</title>
<g id="a_node2"><a xlink:title=" ">
<polygon fill="white" stroke="#bfbfbf" points="0,-56.5 0,-75.5 53,-75.5 53,-56.5 0,-56.5"/>
<text text-anchor="middle" x="26.5" y="-63.5" font-family="Helvetica,sans-Serif" font-size="10.00">stdlib.h</text>
</a>
</g>
</g>
<!-- Node1&#45;&gt;Node2 -->
<g id="edge1" class="edge">
<title>Node1&#45;&gt;Node2</title>
<path fill="none" stroke="midnightblue" d="M87.54,-112.4C75.08,-103.13 58.8,-91.03 46.19,-81.65"/>
<polygon fill="midnightblue" stroke="midnightblue" points="48.25,-78.82 38.14,-75.66 44.08,-84.43 48.25,-78.82"/>
</g>
<!-- Node3 -->
<g id="node3" class="node">
<title>Node3</title>
<g id="a_node3"><a xlink:title=" ">
<polygon fill="white" stroke="#bfbfbf" points="105,-0.5 105,-19.5 158,-19.5 158,-0.5 105,-0.5"/>
<text text-anchor="middle" x="131.5" y="-7.5" font-family="Helvetica,sans-Serif" font-size="10.00">stdint.h</text>
</a>
</g>
</g>
<!-- Node1&#45;&gt;Node3 -->
<g id="edge2" class="edge">
<title>Node1&#45;&gt;Node3</title>
<path fill="none" stroke="midnightblue" d="M102.58,-112.39C99.23,-97.92 95.78,-74.91 101.5,-56 104.62,-45.7 110.95,-35.61 117,-27.6"/>
<polygon fill="midnightblue" stroke="midnightblue" points="119.73,-29.8 123.29,-19.82 114.28,-25.4 119.73,-29.8"/>
</g>
<!-- Node4 -->
<g id="node4" class="node">
<title>Node4</title>
<g id="a_node4"><a xlink:href="../../db/dcb/aes_8h.html" target="_top" xlink:title=" ">
<polygon fill="white" stroke="black" points="110,-56.5 110,-75.5 153,-75.5 153,-56.5 110,-56.5"/>
<text text-anchor="middle" x="131.5" y="-63.5" font-family="Helvetica,sans-Serif" font-size="10.00">aes.h</text>
</a>
</g>
</g>
<!-- Node1&#45;&gt;Node4 -->
<g id="edge3" class="edge">
<title>Node1&#45;&gt;Node4</title>
<path fill="none" stroke="midnightblue" d="M112.42,-112.4C115.87,-104.2 120.25,-93.78 123.94,-84.99"/>
<polygon fill="midnightblue" stroke="midnightblue" points="127.22,-86.23 127.86,-75.66 120.76,-83.52 127.22,-86.23"/>
</g>
<!-- Node5 -->
<g id="node5" class="node">
<title>Node5</title>
<g id="a_node5"><a xlink:href="../../df/dbf/mcu__aes_8h.html" target="_top" xlink:title="MCU wrapper for encryption/decryption wrappers utilities.">
<polygon fill="white" stroke="black" points="171,-56.5 171,-75.5 240,-75.5 240,-56.5 171,-56.5"/>
<text text-anchor="middle" x="205.5" y="-63.5" font-family="Helvetica,sans-Serif" font-size="10.00">mcu_aes.h</text>
</a>
</g>
</g>
<!-- Node1&#45;&gt;Node5 -->
<g id="edge5" class="edge">
<title>Node1&#45;&gt;Node5</title>
<path fill="none" stroke="midnightblue" d="M129.96,-112.4C145.83,-102.86 166.69,-90.32 182.47,-80.84"/>
<polygon fill="midnightblue" stroke="midnightblue" points="184.33,-83.81 191.09,-75.66 180.72,-77.81 184.33,-83.81"/>
</g>
<!-- Node4&#45;&gt;Node3 -->
<g id="edge4" class="edge">
<title>Node4&#45;&gt;Node3</title>
<path fill="none" stroke="midnightblue" d="M131.5,-56.08C131.5,-49.01 131.5,-38.86 131.5,-29.99"/>
<polygon fill="midnightblue" stroke="midnightblue" points="135,-29.75 131.5,-19.75 128,-29.75 135,-29.75"/>
</g>
<!-- Node5&#45;&gt;Node3 -->
<g id="edge6" class="edge">
<title>Node5&#45;&gt;Node3</title>
<path fill="none" stroke="midnightblue" d="M193.61,-56.32C182.35,-48.11 165.21,-35.6 151.79,-25.81"/>
<polygon fill="midnightblue" stroke="midnightblue" points="153.75,-22.9 143.61,-19.83 149.62,-28.56 153.75,-22.9"/>
</g>
</g>
</svg>
