<?xml version="1.0" encoding="UTF-8" standalone="no"?>
<!DOCTYPE svg PUBLIC "-//W3C//DTD SVG 1.1//EN"
 "http://www.w3.org/Graphics/SVG/1.1/DTD/svg11.dtd">
<!-- Generated by graphviz version 2.43.0 (0)
 -->
<!-- Title: Kineis/App/Kineis_os/KNS_Q/Src/kns_q_cmsis_os2.c Pages: 1 -->
<svg width="423pt" height="319pt"
 viewBox="0.00 0.00 422.68 319.00" xmlns="http://www.w3.org/2000/svg" xmlns:xlink="http://www.w3.org/1999/xlink">
<g id="graph0" class="graph" transform="scale(1 1) rotate(0) translate(4 315)">
<title>Kineis/App/Kineis_os/KNS_Q/Src/kns_q_cmsis_os2.c</title>
<polygon fill="white" stroke="transparent" points="-4,4 -4,-315 418.68,-315 418.68,4 -4,4"/>
<!-- Node1 -->
<g id="node1" class="node">
<title>Node1</title>
<g id="a_node1"><a xlink:title=" ">
<polygon fill="#bfbfbf" stroke="black" points="178.68,-280.5 178.68,-310.5 345.68,-310.5 345.68,-280.5 178.68,-280.5"/>
<text text-anchor="start" x="186.68" y="-298.5" font-family="Helvetica,sans-Serif" font-size="10.00">Kineis/App/Kineis_os</text>
<text text-anchor="middle" x="262.18" y="-287.5" font-family="Helvetica,sans-Serif" font-size="10.00">/KNS_Q/Src/kns_q_cmsis_os2.c</text>
</a>
</g>
</g>
<!-- Node2 -->
<g id="node2" class="node">
<title>Node2</title>
<g id="a_node2"><a xlink:href="../../d8/dd1/kns__q__conf_8h.html" target="_top" xlink:title="Configuration of queues used in kineis_sw.">
<polygon fill="white" stroke="black" points="192.18,-168.5 192.18,-187.5 272.18,-187.5 272.18,-168.5 192.18,-168.5"/>
<text text-anchor="middle" x="232.18" y="-175.5" font-family="Helvetica,sans-Serif" font-size="10.00">kns_q_conf.h</text>
</a>
</g>
</g>
<!-- Node1&#45;&gt;Node2 -->
<g id="edge1" class="edge">
<title>Node1&#45;&gt;Node2</title>
<path fill="none" stroke="midnightblue" d="M258.5,-280.34C253.1,-259.53 243,-220.66 237.01,-197.58"/>
<polygon fill="midnightblue" stroke="midnightblue" points="240.34,-196.47 234.43,-187.67 233.56,-198.23 240.34,-196.47"/>
</g>
<!-- Node8 -->
<g id="node8" class="node">
<title>Node8</title>
<g id="a_node8"><a xlink:href="../../d0/d84/kns__q_8h.html" target="_top" xlink:title="Configuration of queues used in kineis_swr.">
<polygon fill="white" stroke="black" points="135.18,-224.5 135.18,-243.5 189.18,-243.5 189.18,-224.5 135.18,-224.5"/>
<text text-anchor="middle" x="162.18" y="-231.5" font-family="Helvetica,sans-Serif" font-size="10.00">kns_q.h</text>
</a>
</g>
</g>
<!-- Node1&#45;&gt;Node8 -->
<g id="edge13" class="edge">
<title>Node1&#45;&gt;Node8</title>
<path fill="none" stroke="midnightblue" d="M238.48,-280.4C222.45,-270.86 201.38,-258.32 185.45,-248.84"/>
<polygon fill="midnightblue" stroke="midnightblue" points="187.12,-245.76 176.73,-243.66 183.54,-251.78 187.12,-245.76"/>
</g>
<!-- Node9 -->
<g id="node9" class="node">
<title>Node9</title>
<g id="a_node9"><a xlink:href="../../d2/d2e/mgr__log_8h.html" target="_top" xlink:title="logger main header file">
<polygon fill="white" stroke="black" points="260.68,-224.5 260.68,-243.5 325.68,-243.5 325.68,-224.5 260.68,-224.5"/>
<text text-anchor="middle" x="293.18" y="-231.5" font-family="Helvetica,sans-Serif" font-size="10.00">mgr_log.h</text>
</a>
</g>
</g>
<!-- Node1&#45;&gt;Node9 -->
<g id="edge18" class="edge">
<title>Node1&#45;&gt;Node9</title>
<path fill="none" stroke="midnightblue" d="M269.53,-280.4C273.85,-272.11 279.35,-261.55 283.96,-252.71"/>
<polygon fill="midnightblue" stroke="midnightblue" points="287.15,-254.14 288.67,-243.66 280.95,-250.91 287.15,-254.14"/>
</g>
<!-- Node11 -->
<g id="node11" class="node">
<title>Node11</title>
<g id="a_node11"><a xlink:title=" ">
<polygon fill="white" stroke="#bfbfbf" points="343.68,-224.5 343.68,-243.5 414.68,-243.5 414.68,-224.5 343.68,-224.5"/>
<text text-anchor="middle" x="379.18" y="-231.5" font-family="Helvetica,sans-Serif" font-size="10.00">cmsis_os.h</text>
</a>
</g>
</g>
<!-- Node1&#45;&gt;Node11 -->
<g id="edge20" class="edge">
<title>Node1&#45;&gt;Node11</title>
<path fill="none" stroke="midnightblue" d="M289.91,-280.4C309.01,-270.68 334.24,-257.86 353,-248.31"/>
<polygon fill="midnightblue" stroke="midnightblue" points="354.83,-251.31 362.16,-243.66 351.66,-245.07 354.83,-251.31"/>
</g>
<!-- Node3 -->
<g id="node3" class="node">
<title>Node3</title>
<g id="a_node3"><a xlink:title=" ">
<polygon fill="white" stroke="#bfbfbf" points="145.18,-56.5 145.18,-75.5 207.18,-75.5 207.18,-56.5 145.18,-56.5"/>
<text text-anchor="middle" x="176.18" y="-63.5" font-family="Helvetica,sans-Serif" font-size="10.00">stdbool.h</text>
</a>
</g>
</g>
<!-- Node2&#45;&gt;Node3 -->
<g id="edge2" class="edge">
<title>Node2&#45;&gt;Node3</title>
<path fill="none" stroke="midnightblue" d="M249.75,-168.33C271.51,-156.39 304.01,-133.86 289.18,-112 273.19,-88.42 242.67,-77.2 217.38,-71.85"/>
<polygon fill="midnightblue" stroke="midnightblue" points="217.75,-68.36 207.27,-69.96 216.46,-75.24 217.75,-68.36"/>
</g>
<!-- Node4 -->
<g id="node4" class="node">
<title>Node4</title>
<g id="a_node4"><a xlink:title=" ">
<polygon fill="white" stroke="#bfbfbf" points="63.68,-0.5 63.68,-19.5 116.68,-19.5 116.68,-0.5 63.68,-0.5"/>
<text text-anchor="middle" x="90.18" y="-7.5" font-family="Helvetica,sans-Serif" font-size="10.00">stdint.h</text>
</a>
</g>
</g>
<!-- Node2&#45;&gt;Node4 -->
<g id="edge3" class="edge">
<title>Node2&#45;&gt;Node4</title>
<path fill="none" stroke="midnightblue" d="M255.72,-168.48C281.12,-157.79 316.42,-137.69 304.18,-112 272.37,-45.2 179.41,-22.4 127.08,-14.76"/>
<polygon fill="midnightblue" stroke="midnightblue" points="127.25,-11.25 116.87,-13.38 126.32,-18.18 127.25,-11.25"/>
</g>
<!-- Node5 -->
<g id="node5" class="node">
<title>Node5</title>
<g id="a_node5"><a xlink:href="../../df/d64/kns__mac__evt_8h.html" target="_top" xlink:title=" ">
<polygon fill="white" stroke="black" points="190.18,-112.5 190.18,-131.5 280.18,-131.5 280.18,-112.5 190.18,-112.5"/>
<text text-anchor="middle" x="235.18" y="-119.5" font-family="Helvetica,sans-Serif" font-size="10.00">kns_mac_evt.h</text>
</a>
</g>
</g>
<!-- Node2&#45;&gt;Node5 -->
<g id="edge4" class="edge">
<title>Node2&#45;&gt;Node5</title>
<path fill="none" stroke="midnightblue" d="M232.68,-168.08C233.07,-161.01 233.63,-150.86 234.13,-141.99"/>
<polygon fill="midnightblue" stroke="midnightblue" points="237.64,-141.93 234.7,-131.75 230.65,-141.54 237.64,-141.93"/>
</g>
<!-- Node7 -->
<g id="node7" class="node">
<title>Node7</title>
<g id="a_node7"><a xlink:href="../../d7/d8a/kns__srvc__common_8h.html" target="_top" xlink:title="Common part of Kinéis service layer.">
<polygon fill="white" stroke="black" points="18.18,-112.5 18.18,-131.5 134.18,-131.5 134.18,-112.5 18.18,-112.5"/>
<text text-anchor="middle" x="76.18" y="-119.5" font-family="Helvetica,sans-Serif" font-size="10.00">kns_srvc_common.h</text>
</a>
</g>
</g>
<!-- Node2&#45;&gt;Node7 -->
<g id="edge9" class="edge">
<title>Node2&#45;&gt;Node7</title>
<path fill="none" stroke="midnightblue" d="M207.46,-168.44C181.33,-159.4 139.92,-145.06 110.61,-134.92"/>
<polygon fill="midnightblue" stroke="midnightblue" points="111.38,-131.48 100.78,-131.52 109.09,-138.1 111.38,-131.48"/>
</g>
<!-- Node5&#45;&gt;Node3 -->
<g id="edge5" class="edge">
<title>Node5&#45;&gt;Node3</title>
<path fill="none" stroke="midnightblue" d="M225.7,-112.32C216.98,-104.34 203.84,-92.31 193.28,-82.65"/>
<polygon fill="midnightblue" stroke="midnightblue" points="195.57,-80 185.83,-75.83 190.85,-85.17 195.57,-80"/>
</g>
<!-- Node5&#45;&gt;Node4 -->
<g id="edge6" class="edge">
<title>Node5&#45;&gt;Node4</title>
<path fill="none" stroke="midnightblue" d="M235.04,-112.2C234.35,-98.43 231.02,-71.74 216.18,-56 192.83,-31.24 154.94,-20.08 126.8,-15.07"/>
<polygon fill="midnightblue" stroke="midnightblue" points="127.35,-11.61 116.92,-13.48 126.24,-18.52 127.35,-11.61"/>
</g>
<!-- Node6 -->
<g id="node6" class="node">
<title>Node6</title>
<g id="a_node6"><a xlink:href="../../d8/d85/kns__types_8h.html" target="_top" xlink:title="Kineis types definition.">
<polygon fill="white" stroke="black" points="52.68,-56.5 52.68,-75.5 127.68,-75.5 127.68,-56.5 52.68,-56.5"/>
<text text-anchor="middle" x="90.18" y="-63.5" font-family="Helvetica,sans-Serif" font-size="10.00">kns_types.h</text>
</a>
</g>
</g>
<!-- Node5&#45;&gt;Node6 -->
<g id="edge7" class="edge">
<title>Node5&#45;&gt;Node6</title>
<path fill="none" stroke="midnightblue" d="M212.21,-112.44C188.02,-103.44 149.76,-89.19 122.54,-79.05"/>
<polygon fill="midnightblue" stroke="midnightblue" points="123.64,-75.73 113.05,-75.52 121.2,-82.29 123.64,-75.73"/>
</g>
<!-- Node6&#45;&gt;Node4 -->
<g id="edge8" class="edge">
<title>Node6&#45;&gt;Node4</title>
<path fill="none" stroke="midnightblue" d="M90.18,-56.08C90.18,-49.01 90.18,-38.86 90.18,-29.99"/>
<polygon fill="midnightblue" stroke="midnightblue" points="93.68,-29.75 90.18,-19.75 86.68,-29.75 93.68,-29.75"/>
</g>
<!-- Node7&#45;&gt;Node3 -->
<g id="edge10" class="edge">
<title>Node7&#45;&gt;Node3</title>
<path fill="none" stroke="midnightblue" d="M92.25,-112.32C108.14,-103.74 132.69,-90.49 151.14,-80.52"/>
<polygon fill="midnightblue" stroke="midnightblue" points="153.02,-83.49 160.16,-75.65 149.69,-77.33 153.02,-83.49"/>
</g>
<!-- Node7&#45;&gt;Node4 -->
<g id="edge11" class="edge">
<title>Node7&#45;&gt;Node4</title>
<path fill="none" stroke="midnightblue" d="M66.39,-112.34C53.75,-100.05 34.34,-76.72 43.18,-56 48.33,-43.95 58.46,-33.58 68.01,-25.84"/>
<polygon fill="midnightblue" stroke="midnightblue" points="70.22,-28.55 76.1,-19.74 66.01,-22.96 70.22,-28.55"/>
</g>
<!-- Node7&#45;&gt;Node6 -->
<g id="edge12" class="edge">
<title>Node7&#45;&gt;Node6</title>
<path fill="none" stroke="midnightblue" d="M78.49,-112.08C80.35,-104.93 83.02,-94.64 85.34,-85.69"/>
<polygon fill="midnightblue" stroke="midnightblue" points="88.79,-86.31 87.91,-75.75 82.02,-84.55 88.79,-86.31"/>
</g>
<!-- Node8&#45;&gt;Node2 -->
<g id="edge17" class="edge">
<title>Node8&#45;&gt;Node2</title>
<path fill="none" stroke="midnightblue" d="M173.43,-224.32C183.98,-216.18 199.98,-203.84 212.62,-194.09"/>
<polygon fill="midnightblue" stroke="midnightblue" points="214.95,-196.71 220.73,-187.83 210.67,-191.17 214.95,-196.71"/>
</g>
<!-- Node8&#45;&gt;Node3 -->
<g id="edge14" class="edge">
<title>Node8&#45;&gt;Node3</title>
<path fill="none" stroke="midnightblue" d="M162.93,-224.08C165.14,-197.95 171.61,-121.21 174.62,-85.58"/>
<polygon fill="midnightblue" stroke="midnightblue" points="178.11,-85.83 175.46,-75.57 171.13,-85.24 178.11,-85.83"/>
</g>
<!-- Node8&#45;&gt;Node4 -->
<g id="edge15" class="edge">
<title>Node8&#45;&gt;Node4</title>
<path fill="none" stroke="midnightblue" d="M134.98,-228.77C107.53,-223.34 65.16,-211.63 36.18,-188 13.62,-169.6 10.03,-160.04 2.18,-132 -10.3,-87.38 37.34,-46.19 67.38,-25.32"/>
<polygon fill="midnightblue" stroke="midnightblue" points="69.33,-28.22 75.69,-19.74 65.43,-22.41 69.33,-28.22"/>
</g>
<!-- Node8&#45;&gt;Node6 -->
<g id="edge16" class="edge">
<title>Node8&#45;&gt;Node6</title>
<path fill="none" stroke="midnightblue" d="M135.7,-224.48C99.51,-211.23 36.03,-181.89 9.18,-132 -3.54,-108.35 25.96,-90.22 52.85,-79.19"/>
<polygon fill="midnightblue" stroke="midnightblue" points="54.12,-82.45 62.19,-75.59 51.6,-75.92 54.12,-82.45"/>
</g>
<!-- Node10 -->
<g id="node10" class="node">
<title>Node10</title>
<g id="a_node10"><a xlink:href="../../d9/d70/mgr__log__rtc_8h.html" target="_top" xlink:title=": Header for mgr_log_rtc.c file. This file contains log routine concerning RTC. Thus there is a depen...">
<polygon fill="white" stroke="black" points="290.68,-168.5 290.68,-187.5 373.68,-187.5 373.68,-168.5 290.68,-168.5"/>
<text text-anchor="middle" x="332.18" y="-175.5" font-family="Helvetica,sans-Serif" font-size="10.00">mgr_log_rtc.h</text>
</a>
</g>
</g>
<!-- Node9&#45;&gt;Node10 -->
<g id="edge19" class="edge">
<title>Node9&#45;&gt;Node10</title>
<path fill="none" stroke="midnightblue" d="M299.62,-224.08C305.13,-216.46 313.21,-205.26 319.95,-195.94"/>
<polygon fill="midnightblue" stroke="midnightblue" points="322.84,-197.91 325.86,-187.75 317.17,-193.81 322.84,-197.91"/>
</g>
</g>
</svg>
