<?xml version="1.0" encoding="UTF-8" standalone="no"?>
<!DOCTYPE svg PUBLIC "-//W3C//DTD SVG 1.1//EN"
 "http://www.w3.org/Graphics/SVG/1.1/DTD/svg11.dtd">
<!-- Generated by graphviz version 2.43.0 (0)
 -->
<!-- Title: Kineis/App/Kineis_os/KNS_Q/Src/kns_q_cmsis_os2.c Pages: 1 -->
<svg width="469pt" height="375pt"
 viewBox="0.00 0.00 468.50 375.00" xmlns="http://www.w3.org/2000/svg" xmlns:xlink="http://www.w3.org/1999/xlink">
<g id="graph0" class="graph" transform="scale(1 1) rotate(0) translate(4 371)">
<title>Kineis/App/Kineis_os/KNS_Q/Src/kns_q_cmsis_os2.c</title>
<polygon fill="white" stroke="transparent" points="-4,4 -4,-371 464.5,-371 464.5,4 -4,4"/>
<!-- Node1 -->
<g id="node1" class="node">
<title>Node1</title>
<g id="a_node1"><a xlink:title=" ">
<polygon fill="#bfbfbf" stroke="black" points="224.5,-336.5 224.5,-366.5 391.5,-366.5 391.5,-336.5 224.5,-336.5"/>
<text text-anchor="start" x="232.5" y="-354.5" font-family="Helvetica,sans-Serif" font-size="10.00">Kineis/App/Kineis_os</text>
<text text-anchor="middle" x="308" y="-343.5" font-family="Helvetica,sans-Serif" font-size="10.00">/KNS_Q/Src/kns_q_cmsis_os2.c</text>
</a>
</g>
</g>
<!-- Node2 -->
<g id="node2" class="node">
<title>Node2</title>
<g id="a_node2"><a xlink:href="../../d8/dd1/kns__q__conf_8h.html" target="_top" xlink:title="Configuration of queues used in kineis_sw.">
<polygon fill="white" stroke="black" points="238,-224.5 238,-243.5 318,-243.5 318,-224.5 238,-224.5"/>
<text text-anchor="middle" x="278" y="-231.5" font-family="Helvetica,sans-Serif" font-size="10.00">kns_q_conf.h</text>
</a>
</g>
</g>
<!-- Node1&#45;&gt;Node2 -->
<g id="edge1" class="edge">
<title>Node1&#45;&gt;Node2</title>
<path fill="none" stroke="midnightblue" d="M304.32,-336.34C298.92,-315.53 288.82,-276.66 282.83,-253.58"/>
<polygon fill="midnightblue" stroke="midnightblue" points="286.15,-252.47 280.25,-243.67 279.38,-254.23 286.15,-252.47"/>
</g>
<!-- Node9 -->
<g id="node9" class="node">
<title>Node9</title>
<g id="a_node9"><a xlink:href="../../d0/d84/kns__q_8h.html" target="_top" xlink:title="Configuration of queues used in kineis_swr.">
<polygon fill="white" stroke="black" points="183,-280.5 183,-299.5 237,-299.5 237,-280.5 183,-280.5"/>
<text text-anchor="middle" x="210" y="-287.5" font-family="Helvetica,sans-Serif" font-size="10.00">kns_q.h</text>
</a>
</g>
</g>
<!-- Node1&#45;&gt;Node9 -->
<g id="edge16" class="edge">
<title>Node1&#45;&gt;Node9</title>
<path fill="none" stroke="midnightblue" d="M284.78,-336.4C269.21,-326.95 248.8,-314.56 233.24,-305.11"/>
<polygon fill="midnightblue" stroke="midnightblue" points="234.62,-301.86 224.26,-299.66 230.99,-307.84 234.62,-301.86"/>
</g>
<!-- Node10 -->
<g id="node10" class="node">
<title>Node10</title>
<g id="a_node10"><a xlink:href="../../d2/d2e/mgr__log_8h.html" target="_top" xlink:title="logger main header file">
<polygon fill="white" stroke="black" points="306.5,-280.5 306.5,-299.5 371.5,-299.5 371.5,-280.5 306.5,-280.5"/>
<text text-anchor="middle" x="339" y="-287.5" font-family="Helvetica,sans-Serif" font-size="10.00">mgr_log.h</text>
</a>
</g>
</g>
<!-- Node1&#45;&gt;Node10 -->
<g id="edge21" class="edge">
<title>Node1&#45;&gt;Node10</title>
<path fill="none" stroke="midnightblue" d="M315.35,-336.4C319.67,-328.11 325.17,-317.55 329.77,-308.71"/>
<polygon fill="midnightblue" stroke="midnightblue" points="332.97,-310.14 334.49,-299.66 326.76,-306.91 332.97,-310.14"/>
</g>
<!-- Node12 -->
<g id="node12" class="node">
<title>Node12</title>
<g id="a_node12"><a xlink:title=" ">
<polygon fill="white" stroke="#bfbfbf" points="389.5,-280.5 389.5,-299.5 460.5,-299.5 460.5,-280.5 389.5,-280.5"/>
<text text-anchor="middle" x="425" y="-287.5" font-family="Helvetica,sans-Serif" font-size="10.00">cmsis_os.h</text>
</a>
</g>
</g>
<!-- Node1&#45;&gt;Node12 -->
<g id="edge23" class="edge">
<title>Node1&#45;&gt;Node12</title>
<path fill="none" stroke="midnightblue" d="M335.73,-336.4C354.83,-326.68 380.06,-313.86 398.82,-304.31"/>
<polygon fill="midnightblue" stroke="midnightblue" points="400.65,-307.31 407.98,-299.66 397.48,-301.07 400.65,-307.31"/>
</g>
<!-- Node3 -->
<g id="node3" class="node">
<title>Node3</title>
<g id="a_node3"><a xlink:title=" ">
<polygon fill="white" stroke="#bfbfbf" points="149,-112.5 149,-131.5 211,-131.5 211,-112.5 149,-112.5"/>
<text text-anchor="middle" x="180" y="-119.5" font-family="Helvetica,sans-Serif" font-size="10.00">stdbool.h</text>
</a>
</g>
</g>
<!-- Node2&#45;&gt;Node3 -->
<g id="edge2" class="edge">
<title>Node2&#45;&gt;Node3</title>
<path fill="none" stroke="midnightblue" d="M271.22,-224.4C261.2,-211.78 241.68,-187.61 224,-168 215.04,-158.06 204.58,-147.33 196.1,-138.84"/>
<polygon fill="midnightblue" stroke="midnightblue" points="198.54,-136.33 188.98,-131.76 193.61,-141.29 198.54,-136.33"/>
</g>
<!-- Node4 -->
<g id="node4" class="node">
<title>Node4</title>
<g id="a_node4"><a xlink:title=" ">
<polygon fill="white" stroke="#bfbfbf" points="249.5,-0.5 249.5,-19.5 302.5,-19.5 302.5,-0.5 249.5,-0.5"/>
<text text-anchor="middle" x="276" y="-7.5" font-family="Helvetica,sans-Serif" font-size="10.00">stdint.h</text>
</a>
</g>
</g>
<!-- Node2&#45;&gt;Node4 -->
<g id="edge3" class="edge">
<title>Node2&#45;&gt;Node4</title>
<path fill="none" stroke="midnightblue" d="M309.57,-224.36C330.26,-217.36 356.75,-205.72 375,-188 400.82,-162.92 412.92,-146.6 403,-112 394.91,-83.79 389.8,-75.65 368,-56 351.99,-41.57 330.52,-30.72 312.34,-23.29"/>
<polygon fill="midnightblue" stroke="midnightblue" points="313.5,-19.98 302.91,-19.61 310.96,-26.5 313.5,-19.98"/>
</g>
<!-- Node5 -->
<g id="node5" class="node">
<title>Node5</title>
<g id="a_node5"><a xlink:href="../../df/d64/kns__mac__evt_8h.html" target="_top" xlink:title=" ">
<polygon fill="white" stroke="black" points="276,-168.5 276,-187.5 366,-187.5 366,-168.5 276,-168.5"/>
<text text-anchor="middle" x="321" y="-175.5" font-family="Helvetica,sans-Serif" font-size="10.00">kns_mac_evt.h</text>
</a>
</g>
</g>
<!-- Node2&#45;&gt;Node5 -->
<g id="edge4" class="edge">
<title>Node2&#45;&gt;Node5</title>
<path fill="none" stroke="midnightblue" d="M285.1,-224.08C291.24,-216.38 300.27,-205.03 307.74,-195.65"/>
<polygon fill="midnightblue" stroke="midnightblue" points="310.54,-197.75 314.03,-187.75 305.06,-193.39 310.54,-197.75"/>
</g>
<!-- Node8 -->
<g id="node8" class="node">
<title>Node8</title>
<g id="a_node8"><a xlink:href="../../d7/d8a/kns__srvc__common_8h.html" target="_top" xlink:title="Common part of Kinéis service layer.">
<polygon fill="white" stroke="black" points="66,-168.5 66,-187.5 182,-187.5 182,-168.5 66,-168.5"/>
<text text-anchor="middle" x="124" y="-175.5" font-family="Helvetica,sans-Serif" font-size="10.00">kns_srvc_common.h</text>
</a>
</g>
</g>
<!-- Node2&#45;&gt;Node8 -->
<g id="edge12" class="edge">
<title>Node2&#45;&gt;Node8</title>
<path fill="none" stroke="midnightblue" d="M253.6,-224.44C227.8,-215.4 186.92,-201.06 157.98,-190.92"/>
<polygon fill="midnightblue" stroke="midnightblue" points="158.88,-187.52 148.29,-187.52 156.57,-194.13 158.88,-187.52"/>
</g>
<!-- Node5&#45;&gt;Node3 -->
<g id="edge5" class="edge">
<title>Node5&#45;&gt;Node3</title>
<path fill="none" stroke="midnightblue" d="M298.66,-168.44C275.25,-159.48 238.26,-145.31 211.81,-135.18"/>
<polygon fill="midnightblue" stroke="midnightblue" points="212.83,-131.82 202.24,-131.52 210.32,-138.36 212.83,-131.82"/>
</g>
<!-- Node5&#45;&gt;Node4 -->
<g id="edge6" class="edge">
<title>Node5&#45;&gt;Node4</title>
<path fill="none" stroke="midnightblue" d="M342.39,-168.44C365.98,-157.58 399.2,-137.17 388,-112 370.3,-72.2 328.29,-41.47 301.06,-24.83"/>
<polygon fill="midnightblue" stroke="midnightblue" points="302.49,-21.62 292.1,-19.54 298.93,-27.64 302.49,-21.62"/>
</g>
<!-- Node6 -->
<g id="node6" class="node">
<title>Node6</title>
<g id="a_node6"><a xlink:href="../../d8/d85/kns__types_8h.html" target="_top" xlink:title="Kineis types definition.">
<polygon fill="white" stroke="black" points="201.5,-56.5 201.5,-75.5 276.5,-75.5 276.5,-56.5 201.5,-56.5"/>
<text text-anchor="middle" x="239" y="-63.5" font-family="Helvetica,sans-Serif" font-size="10.00">kns_types.h</text>
</a>
</g>
</g>
<!-- Node5&#45;&gt;Node6 -->
<g id="edge7" class="edge">
<title>Node5&#45;&gt;Node6</title>
<path fill="none" stroke="midnightblue" d="M303.6,-168.44C289.64,-160.72 270.53,-148.12 259,-132 249.24,-118.34 244.15,-99.81 241.55,-86.02"/>
<polygon fill="midnightblue" stroke="midnightblue" points="244.95,-85.09 239.91,-75.77 238.04,-86.2 244.95,-85.09"/>
</g>
<!-- Node7 -->
<g id="node7" class="node">
<title>Node7</title>
<g id="a_node7"><a xlink:href="../../d8/d4a/kns__mac__prfl__cfg_8h.html" target="_top" xlink:title="Header file describing the ser settings required to configure a MAC protocol.">
<polygon fill="white" stroke="black" points="267.5,-112.5 267.5,-131.5 378.5,-131.5 378.5,-112.5 267.5,-112.5"/>
<text text-anchor="middle" x="323" y="-119.5" font-family="Helvetica,sans-Serif" font-size="10.00">kns_mac_prfl_cfg.h</text>
</a>
</g>
</g>
<!-- Node5&#45;&gt;Node7 -->
<g id="edge9" class="edge">
<title>Node5&#45;&gt;Node7</title>
<path fill="none" stroke="midnightblue" d="M321.33,-168.08C321.59,-161.01 321.97,-150.86 322.3,-141.99"/>
<polygon fill="midnightblue" stroke="midnightblue" points="325.8,-141.87 322.68,-131.75 318.81,-141.61 325.8,-141.87"/>
</g>
<!-- Node6&#45;&gt;Node4 -->
<g id="edge8" class="edge">
<title>Node6&#45;&gt;Node4</title>
<path fill="none" stroke="midnightblue" d="M245.11,-56.08C250.28,-48.53 257.85,-37.49 264.19,-28.23"/>
<polygon fill="midnightblue" stroke="midnightblue" points="267.24,-29.98 270,-19.75 261.46,-26.02 267.24,-29.98"/>
</g>
<!-- Node7&#45;&gt;Node4 -->
<g id="edge10" class="edge">
<title>Node7&#45;&gt;Node4</title>
<path fill="none" stroke="midnightblue" d="M319.31,-112.37C311.66,-94.46 293.91,-52.92 283.67,-28.95"/>
<polygon fill="midnightblue" stroke="midnightblue" points="286.82,-27.41 279.67,-19.59 280.38,-30.16 286.82,-27.41"/>
</g>
<!-- Node7&#45;&gt;Node6 -->
<g id="edge11" class="edge">
<title>Node7&#45;&gt;Node6</title>
<path fill="none" stroke="midnightblue" d="M309.5,-112.32C296.4,-103.9 276.29,-90.97 260.89,-81.07"/>
<polygon fill="midnightblue" stroke="midnightblue" points="262.77,-78.12 252.46,-75.65 258.98,-84.01 262.77,-78.12"/>
</g>
<!-- Node8&#45;&gt;Node3 -->
<g id="edge13" class="edge">
<title>Node8&#45;&gt;Node3</title>
<path fill="none" stroke="midnightblue" d="M133,-168.32C141.19,-160.42 153.51,-148.55 163.47,-138.94"/>
<polygon fill="midnightblue" stroke="midnightblue" points="166.07,-141.29 170.84,-131.83 161.21,-136.26 166.07,-141.29"/>
</g>
<!-- Node8&#45;&gt;Node4 -->
<g id="edge14" class="edge">
<title>Node8&#45;&gt;Node4</title>
<path fill="none" stroke="midnightblue" d="M122.15,-168.48C119.79,-155.54 117.01,-130.48 126,-112 148.37,-66 203.03,-37.64 239.82,-23.1"/>
<polygon fill="midnightblue" stroke="midnightblue" points="241.11,-26.35 249.21,-19.53 238.62,-19.81 241.11,-26.35"/>
</g>
<!-- Node8&#45;&gt;Node6 -->
<g id="edge15" class="edge">
<title>Node8&#45;&gt;Node6</title>
<path fill="none" stroke="midnightblue" d="M123.84,-168.37C124.05,-154.83 126.34,-128.45 140,-112 153.14,-96.16 173.04,-85.66 191.56,-78.81"/>
<polygon fill="midnightblue" stroke="midnightblue" points="192.75,-82.1 201.08,-75.55 190.48,-75.48 192.75,-82.1"/>
</g>
<!-- Node9&#45;&gt;Node2 -->
<g id="edge20" class="edge">
<title>Node9&#45;&gt;Node2</title>
<path fill="none" stroke="midnightblue" d="M220.93,-280.32C231.17,-272.18 246.72,-259.84 259,-250.09"/>
<polygon fill="midnightblue" stroke="midnightblue" points="261.22,-252.79 266.88,-243.83 256.87,-247.31 261.22,-252.79"/>
</g>
<!-- Node9&#45;&gt;Node3 -->
<g id="edge17" class="edge">
<title>Node9&#45;&gt;Node3</title>
<path fill="none" stroke="midnightblue" d="M208.91,-280.45C206.32,-260.6 199.4,-209.91 191,-168 189.24,-159.22 186.93,-149.56 184.88,-141.45"/>
<polygon fill="midnightblue" stroke="midnightblue" points="188.22,-140.38 182.32,-131.58 181.44,-142.14 188.22,-140.38"/>
</g>
<!-- Node9&#45;&gt;Node4 -->
<g id="edge18" class="edge">
<title>Node9&#45;&gt;Node4</title>
<path fill="none" stroke="midnightblue" d="M182.98,-287.21C126.26,-281.84 0,-260.7 0,-179 0,-179 0,-179 0,-121 0,-70.07 164.21,-32.26 239.31,-17.64"/>
<polygon fill="midnightblue" stroke="midnightblue" points="240.12,-21.04 249.29,-15.73 238.81,-14.17 240.12,-21.04"/>
</g>
<!-- Node9&#45;&gt;Node6 -->
<g id="edge19" class="edge">
<title>Node9&#45;&gt;Node6</title>
<path fill="none" stroke="midnightblue" d="M182.85,-281.7C131.71,-266.42 28.68,-227.47 57,-168 81.78,-115.98 146.29,-89.58 191.43,-77.07"/>
<polygon fill="midnightblue" stroke="midnightblue" points="192.54,-80.39 201.31,-74.46 190.75,-73.63 192.54,-80.39"/>
</g>
<!-- Node11 -->
<g id="node11" class="node">
<title>Node11</title>
<g id="a_node11"><a xlink:href="../../d9/d70/mgr__log__rtc_8h.html" target="_top" xlink:title=": Header for mgr_log_rtc.c file. This file contains log routine concerning RTC. Thus there is a depen...">
<polygon fill="white" stroke="black" points="336.5,-224.5 336.5,-243.5 419.5,-243.5 419.5,-224.5 336.5,-224.5"/>
<text text-anchor="middle" x="378" y="-231.5" font-family="Helvetica,sans-Serif" font-size="10.00">mgr_log_rtc.h</text>
</a>
</g>
</g>
<!-- Node10&#45;&gt;Node11 -->
<g id="edge22" class="edge">
<title>Node10&#45;&gt;Node11</title>
<path fill="none" stroke="midnightblue" d="M345.44,-280.08C350.95,-272.46 359.03,-261.26 365.76,-251.94"/>
<polygon fill="midnightblue" stroke="midnightblue" points="368.66,-253.91 371.68,-243.75 362.99,-249.81 368.66,-253.91"/>
</g>
</g>
</svg>
