<?xml version="1.0" encoding="UTF-8" standalone="no"?>
<!DOCTYPE svg PUBLIC "-//W3C//DTD SVG 1.1//EN"
 "http://www.w3.org/Graphics/SVG/1.1/DTD/svg11.dtd">
<!-- Generated by graphviz version 2.43.0 (0)
 -->
<!-- Title: Kineis/App/kns_app.c Pages: 1 -->
<!--zoomable 364 -->
<svg id="main" version="1.1" xmlns="http://www.w3.org/2000/svg" xmlns:xlink="http://www.w3.org/1999/xlink" xml:space="preserve" onload="init(evt)">
<style type="text/css"><![CDATA[
.edge:hover path { stroke: red; }
.edge:hover polygon { stroke: red; fill: red; }
]]></style>
<script type="text/javascript"><![CDATA[
var edges = document.getElementsByTagName('g');
if (edges && edges.length) {
  for (var i=0;i<edges.length;i++) {
    if (edges[i].id.substr(0,4)=='edge') {
      edges[i].setAttribute('class','edge');
    }
  }
}
]]></script>
        <defs>
                <circle id="rim" cx="0" cy="0" r="7"/>
                <circle id="rim2" cx="0" cy="0" r="3.5"/>
                <g id="zoomPlus">
                        <use xlink:href="#rim" fill="#404040">
                                <set attributeName="fill" to="#808080" begin="zoomplus.mouseover" end="zoomplus.mouseout"/>
                        </use>
                        <path d="M-4,0h8M0,-4v8" fill="none" stroke="white" stroke-width="1.5" pointer-events="none"/>
                </g>
                <g id="zoomMin">
                        <use xlink:href="#rim" fill="#404040">
                                <set attributeName="fill" to="#808080" begin="zoomminus.mouseover" end="zoomminus.mouseout"/>
                        </use>
                        <path d="M-4,0h8" fill="none" stroke="white" stroke-width="1.5" pointer-events="none"/>
                </g>
                <g id="dirArrow">
                        <path fill="none" stroke="white" stroke-width="1.5" d="M0,-3.0v7 M-2.5,-0.5L0,-3.0L2.5,-0.5"/>
                </g>
               <g id="resetDef">
                       <use xlink:href="#rim2" fill="#404040">
                               <set attributeName="fill" to="#808080" begin="reset.mouseover" end="reset.mouseout"/>
                       </use>
               </g>
        </defs>

<script type="text/javascript">
var viewWidth = 760;
var viewHeight = 364;
var sectionId = 'dynsection-0';
</script>
<script xlink:href="../../svgpan.js"/>
<svg id="graph" class="graph">
<g id="viewport">
<title>Kineis/App/kns_app.c</title>
<polygon fill="white" stroke="transparent" points="-4,4 -4,-360 755.5,-360 755.5,4 -4,4"/>
<!-- Node1 -->
<g id="node1" class="node">
<title>Node1</title>
<g id="a_node1"><a xlink:title=" ">
<polygon fill="#bfbfbf" stroke="black" points="377,-336.5 377,-355.5 497,-355.5 497,-336.5 377,-336.5"/>
<text text-anchor="middle" x="437" y="-343.5" font-family="Helvetica,sans-Serif" font-size="10.00">Kineis/App/kns_app.c</text>
</a>
</g>
</g>
<!-- Node2 -->
<g id="node2" class="node">
<title>Node2</title>
<g id="a_node2"><a xlink:title=" ">
<polygon fill="white" stroke="#bfbfbf" points="299,-112.5 299,-131.5 361,-131.5 361,-112.5 299,-112.5"/>
<text text-anchor="middle" x="330" y="-119.5" font-family="Helvetica,sans-Serif" font-size="10.00">stdbool.h</text>
</a>
</g>
</g>
<!-- Node1&#45;&gt;Node2 -->
<g id="edge1" class="edge">
<title>Node1&#45;&gt;Node2</title>
<path fill="none" stroke="midnightblue" d="M432.81,-336.3C416.96,-303.42 360.55,-186.39 338.72,-141.09"/>
<polygon fill="midnightblue" stroke="midnightblue" points="341.78,-139.37 334.28,-131.88 335.47,-142.41 341.78,-139.37"/>
</g>
<!-- Node3 -->
<g id="node3" class="node">
<title>Node3</title>
<g id="a_node3"><a xlink:title=" ">
<polygon fill="white" stroke="#bfbfbf" points="241.5,-280.5 241.5,-299.5 294.5,-299.5 294.5,-280.5 241.5,-280.5"/>
<text text-anchor="middle" x="268" y="-287.5" font-family="Helvetica,sans-Serif" font-size="10.00">stdlib.h</text>
</a>
</g>
</g>
<!-- Node1&#45;&gt;Node3 -->
<g id="edge2" class="edge">
<title>Node1&#45;&gt;Node3</title>
<path fill="none" stroke="midnightblue" d="M410.22,-336.44C381.67,-327.32 336.27,-312.81 304.46,-302.65"/>
<polygon fill="midnightblue" stroke="midnightblue" points="305.24,-299.23 294.65,-299.52 303.11,-305.89 305.24,-299.23"/>
</g>
<!-- Node4 -->
<g id="node4" class="node">
<title>Node4</title>
<g id="a_node4"><a xlink:href="../../d0/d84/kns__q_8h.html" target="_top" xlink:title="Configuration of queues used in kineis_swr.">
<polygon fill="white" stroke="black" points="313,-280.5 313,-299.5 367,-299.5 367,-280.5 313,-280.5"/>
<text text-anchor="middle" x="340" y="-287.5" font-family="Helvetica,sans-Serif" font-size="10.00">kns_q.h</text>
</a>
</g>
</g>
<!-- Node1&#45;&gt;Node4 -->
<g id="edge3" class="edge">
<title>Node1&#45;&gt;Node4</title>
<path fill="none" stroke="midnightblue" d="M421.42,-336.32C406,-327.74 382.19,-314.49 364.29,-304.52"/>
<polygon fill="midnightblue" stroke="midnightblue" points="365.99,-301.46 355.55,-299.65 362.58,-307.58 365.99,-301.46"/>
</g>
<!-- Node11 -->
<g id="node11" class="node">
<title>Node11</title>
<g id="a_node11"><a xlink:href="../../d7/d1a/kns__mac_8h.html" target="_top" xlink:title="Main header file for MAC layer of Kineis stack.">
<polygon fill="white" stroke="black" points="434.5,-224.5 434.5,-243.5 503.5,-243.5 503.5,-224.5 434.5,-224.5"/>
<text text-anchor="middle" x="469" y="-231.5" font-family="Helvetica,sans-Serif" font-size="10.00">kns_mac.h</text>
</a>
</g>
</g>
<!-- Node1&#45;&gt;Node11 -->
<g id="edge22" class="edge">
<title>Node1&#45;&gt;Node11</title>
<path fill="none" stroke="midnightblue" d="M439.51,-336.37C444.7,-318.54 456.7,-277.3 463.68,-253.27"/>
<polygon fill="midnightblue" stroke="midnightblue" points="467.07,-254.17 466.5,-243.59 460.35,-252.22 467.07,-254.17"/>
</g>
<!-- Node12 -->
<g id="node12" class="node">
<title>Node12</title>
<g id="a_node12"><a xlink:href="../../d9/d57/kns__cfg_8h.html" target="_top" xlink:title="Device communication driver for Kineis radio frequence.">
<polygon fill="white" stroke="black" points="66.5,-168.5 66.5,-187.5 129.5,-187.5 129.5,-168.5 66.5,-168.5"/>
<text text-anchor="middle" x="98" y="-175.5" font-family="Helvetica,sans-Serif" font-size="10.00">kns_cfg.h</text>
</a>
</g>
</g>
<!-- Node1&#45;&gt;Node12 -->
<g id="edge25" class="edge">
<title>Node1&#45;&gt;Node12</title>
<path fill="none" stroke="midnightblue" d="M376.81,-340.03C334.42,-334.61 277.36,-323.34 232,-300 180.42,-273.45 133.38,-222.05 111.28,-195.6"/>
<polygon fill="midnightblue" stroke="midnightblue" points="113.82,-193.18 104.77,-187.66 108.4,-197.62 113.82,-193.18"/>
</g>
<!-- Node13 -->
<g id="node13" class="node">
<title>Node13</title>
<g id="a_node13"><a xlink:href="../../d2/db5/mgr__at__cmd_8h.html" target="_top" xlink:title="AT commands manager main header file.">
<polygon fill="white" stroke="black" points="586,-168.5 586,-187.5 672,-187.5 672,-168.5 586,-168.5"/>
<text text-anchor="middle" x="629" y="-175.5" font-family="Helvetica,sans-Serif" font-size="10.00">mgr_at_cmd.h</text>
</a>
</g>
</g>
<!-- Node1&#45;&gt;Node13 -->
<g id="edge29" class="edge">
<title>Node1&#45;&gt;Node13</title>
<path fill="none" stroke="midnightblue" d="M447.05,-336.31C477.9,-309.64 571.5,-228.72 611.05,-194.52"/>
<polygon fill="midnightblue" stroke="midnightblue" points="613.77,-196.79 619.05,-187.61 609.19,-191.5 613.77,-196.79"/>
</g>
<!-- Node15 -->
<g id="node15" class="node">
<title>Node15</title>
<g id="a_node15"><a xlink:href="../../d9/dc4/kineis__sw__conf_8h.html" target="_top" xlink:title="Kineis stack SW configurations depending on platform used.">
<polygon fill="white" stroke="black" points="560.5,-280.5 560.5,-299.5 659.5,-299.5 659.5,-280.5 560.5,-280.5"/>
<text text-anchor="middle" x="610" y="-287.5" font-family="Helvetica,sans-Serif" font-size="10.00">kineis_sw_conf.h</text>
</a>
</g>
</g>
<!-- Node1&#45;&gt;Node15 -->
<g id="edge33" class="edge">
<title>Node1&#45;&gt;Node15</title>
<path fill="none" stroke="midnightblue" d="M464.41,-336.44C493.77,-327.28 540.52,-312.69 573.1,-302.52"/>
<polygon fill="midnightblue" stroke="midnightblue" points="574.21,-305.84 582.72,-299.52 572.13,-299.16 574.21,-305.84"/>
</g>
<!-- Node16 -->
<g id="node16" class="node">
<title>Node16</title>
<g id="a_node16"><a xlink:href="../../d2/d2e/mgr__log_8h.html" target="_top" xlink:title="logger main header file">
<polygon fill="white" stroke="black" points="677.5,-280.5 677.5,-299.5 742.5,-299.5 742.5,-280.5 677.5,-280.5"/>
<text text-anchor="middle" x="710" y="-287.5" font-family="Helvetica,sans-Serif" font-size="10.00">mgr_log.h</text>
</a>
</g>
</g>
<!-- Node1&#45;&gt;Node16 -->
<g id="edge34" class="edge">
<title>Node1&#45;&gt;Node16</title>
<path fill="none" stroke="midnightblue" d="M482.85,-336.45C527.59,-328.03 597.85,-314.6 667.52,-300.27"/>
<polygon fill="midnightblue" stroke="midnightblue" points="668.26,-303.69 677.34,-298.24 666.84,-296.84 668.26,-303.69"/>
</g>
<!-- Node4&#45;&gt;Node2 -->
<g id="edge4" class="edge">
<title>Node4&#45;&gt;Node2</title>
<path fill="none" stroke="midnightblue" d="M339.46,-280.08C337.89,-253.95 333.27,-177.21 331.12,-141.58"/>
<polygon fill="midnightblue" stroke="midnightblue" points="334.61,-141.34 330.52,-131.57 327.62,-141.76 334.61,-141.34"/>
</g>
<!-- Node5 -->
<g id="node5" class="node">
<title>Node5</title>
<g id="a_node5"><a xlink:title=" ">
<polygon fill="white" stroke="#bfbfbf" points="168.5,-0.5 168.5,-19.5 221.5,-19.5 221.5,-0.5 168.5,-0.5"/>
<text text-anchor="middle" x="195" y="-7.5" font-family="Helvetica,sans-Serif" font-size="10.00">stdint.h</text>
</a>
</g>
</g>
<!-- Node4&#45;&gt;Node5 -->
<g id="edge5" class="edge">
<title>Node4&#45;&gt;Node5</title>
<path fill="none" stroke="midnightblue" d="M312.75,-281.67C232.07,-259.78 0,-195.4 0,-179 0,-179 0,-179 0,-121 0,-49.1 101.82,-23.67 158.31,-15.1"/>
<polygon fill="midnightblue" stroke="midnightblue" points="158.88,-18.55 168.29,-13.69 157.9,-11.62 158.88,-18.55"/>
</g>
<!-- Node6 -->
<g id="node6" class="node">
<title>Node6</title>
<g id="a_node6"><a xlink:href="../../d8/d85/kns__types_8h.html" target="_top" xlink:title="Kineis types definition.">
<polygon fill="white" stroke="black" points="417.5,-56.5 417.5,-75.5 492.5,-75.5 492.5,-56.5 417.5,-56.5"/>
<text text-anchor="middle" x="455" y="-63.5" font-family="Helvetica,sans-Serif" font-size="10.00">kns_types.h</text>
</a>
</g>
</g>
<!-- Node4&#45;&gt;Node6 -->
<g id="edge6" class="edge">
<title>Node4&#45;&gt;Node6</title>
<path fill="none" stroke="midnightblue" d="M350.04,-280.38C365.52,-267.3 396.42,-242.07 425,-224 454.57,-205.3 476.78,-217.86 495,-188 505.77,-170.35 479.48,-113.94 464.51,-84.8"/>
<polygon fill="midnightblue" stroke="midnightblue" points="467.51,-82.98 459.77,-75.74 461.3,-86.23 467.51,-82.98"/>
</g>
<!-- Node7 -->
<g id="node7" class="node">
<title>Node7</title>
<g id="a_node7"><a xlink:href="../../d8/dd1/kns__q__conf_8h.html" target="_top" xlink:title="Configuration of queues used in kineis_sw.">
<polygon fill="white" stroke="black" points="222,-224.5 222,-243.5 302,-243.5 302,-224.5 222,-224.5"/>
<text text-anchor="middle" x="262" y="-231.5" font-family="Helvetica,sans-Serif" font-size="10.00">kns_q_conf.h</text>
</a>
</g>
</g>
<!-- Node4&#45;&gt;Node7 -->
<g id="edge8" class="edge">
<title>Node4&#45;&gt;Node7</title>
<path fill="none" stroke="midnightblue" d="M327.47,-280.32C315.41,-271.98 296.97,-259.21 282.73,-249.35"/>
<polygon fill="midnightblue" stroke="midnightblue" points="284.72,-246.47 274.5,-243.65 280.73,-252.22 284.72,-246.47"/>
</g>
<!-- Node6&#45;&gt;Node5 -->
<g id="edge7" class="edge">
<title>Node6&#45;&gt;Node5</title>
<path fill="none" stroke="midnightblue" d="M417.47,-57.21C367.84,-46.9 280.94,-28.85 231.72,-18.63"/>
<polygon fill="midnightblue" stroke="midnightblue" points="232.32,-15.18 221.82,-16.57 230.9,-22.03 232.32,-15.18"/>
</g>
<!-- Node7&#45;&gt;Node2 -->
<g id="edge9" class="edge">
<title>Node7&#45;&gt;Node2</title>
<path fill="none" stroke="midnightblue" d="M267.34,-224.37C278.51,-206.3 304.55,-164.18 319.3,-140.31"/>
<polygon fill="midnightblue" stroke="midnightblue" points="322.41,-141.94 324.69,-131.59 316.45,-138.26 322.41,-141.94"/>
</g>
<!-- Node7&#45;&gt;Node5 -->
<g id="edge10" class="edge">
<title>Node7&#45;&gt;Node5</title>
<path fill="none" stroke="midnightblue" d="M221.71,-230.01C167.98,-225.09 77.27,-213.2 57,-188 8.49,-127.69 118.34,-54.41 170.01,-24.59"/>
<polygon fill="midnightblue" stroke="midnightblue" points="171.95,-27.52 178.93,-19.55 168.5,-21.43 171.95,-27.52"/>
</g>
<!-- Node8 -->
<g id="node8" class="node">
<title>Node8</title>
<g id="a_node8"><a xlink:href="../../df/d64/kns__mac__evt_8h.html" target="_top" xlink:title=" ">
<polygon fill="white" stroke="black" points="396,-168.5 396,-187.5 486,-187.5 486,-168.5 396,-168.5"/>
<text text-anchor="middle" x="441" y="-175.5" font-family="Helvetica,sans-Serif" font-size="10.00">kns_mac_evt.h</text>
</a>
</g>
</g>
<!-- Node7&#45;&gt;Node8 -->
<g id="edge11" class="edge">
<title>Node7&#45;&gt;Node8</title>
<path fill="none" stroke="midnightblue" d="M290.36,-224.44C320.74,-215.28 369.11,-200.69 402.82,-190.52"/>
<polygon fill="midnightblue" stroke="midnightblue" points="404.21,-193.76 412.77,-187.52 402.18,-187.05 404.21,-193.76"/>
</g>
<!-- Node10 -->
<g id="node10" class="node">
<title>Node10</title>
<g id="a_node10"><a xlink:href="../../d7/d8a/kns__srvc__common_8h.html" target="_top" xlink:title="Common part of Kinéis service layer.">
<polygon fill="white" stroke="black" points="148,-168.5 148,-187.5 264,-187.5 264,-168.5 148,-168.5"/>
<text text-anchor="middle" x="206" y="-175.5" font-family="Helvetica,sans-Serif" font-size="10.00">kns_srvc_common.h</text>
</a>
</g>
</g>
<!-- Node7&#45;&gt;Node10 -->
<g id="edge18" class="edge">
<title>Node7&#45;&gt;Node10</title>
<path fill="none" stroke="midnightblue" d="M253,-224.32C244.81,-216.42 232.49,-204.55 222.53,-194.94"/>
<polygon fill="midnightblue" stroke="midnightblue" points="224.79,-192.26 215.16,-187.83 219.93,-197.29 224.79,-192.26"/>
</g>
<!-- Node8&#45;&gt;Node2 -->
<g id="edge12" class="edge">
<title>Node8&#45;&gt;Node2</title>
<path fill="none" stroke="midnightblue" d="M423.17,-168.32C405.28,-159.62 377.52,-146.12 356.95,-136.11"/>
<polygon fill="midnightblue" stroke="midnightblue" points="358.31,-132.88 347.79,-131.65 355.25,-139.18 358.31,-132.88"/>
</g>
<!-- Node8&#45;&gt;Node5 -->
<g id="edge13" class="edge">
<title>Node8&#45;&gt;Node5</title>
<path fill="none" stroke="midnightblue" d="M432.78,-168.35C420.07,-155.25 394.53,-129.98 370,-112 320.6,-75.8 257.19,-42 221.85,-24.16"/>
<polygon fill="midnightblue" stroke="midnightblue" points="223.17,-20.91 212.66,-19.57 220.04,-27.17 223.17,-20.91"/>
</g>
<!-- Node8&#45;&gt;Node6 -->
<g id="edge14" class="edge">
<title>Node8&#45;&gt;Node6</title>
<path fill="none" stroke="midnightblue" d="M442.1,-168.37C444.36,-150.62 449.57,-109.67 452.63,-85.6"/>
<polygon fill="midnightblue" stroke="midnightblue" points="456.12,-85.95 453.91,-75.59 449.17,-85.07 456.12,-85.95"/>
</g>
<!-- Node9 -->
<g id="node9" class="node">
<title>Node9</title>
<g id="a_node9"><a xlink:href="../../d8/d4a/kns__mac__prfl__cfg_8h.html" target="_top" xlink:title="Header file describing the ser settings required to configure a MAC protocol.">
<polygon fill="white" stroke="black" points="495.5,-112.5 495.5,-131.5 606.5,-131.5 606.5,-112.5 495.5,-112.5"/>
<text text-anchor="middle" x="551" y="-119.5" font-family="Helvetica,sans-Serif" font-size="10.00">kns_mac_prfl_cfg.h</text>
</a>
</g>
</g>
<!-- Node8&#45;&gt;Node9 -->
<g id="edge15" class="edge">
<title>Node8&#45;&gt;Node9</title>
<path fill="none" stroke="midnightblue" d="M458.67,-168.32C476.39,-159.62 503.9,-146.12 524.29,-136.11"/>
<polygon fill="midnightblue" stroke="midnightblue" points="525.94,-139.2 533.37,-131.65 522.85,-132.92 525.94,-139.2"/>
</g>
<!-- Node9&#45;&gt;Node5 -->
<g id="edge16" class="edge">
<title>Node9&#45;&gt;Node5</title>
<path fill="none" stroke="midnightblue" d="M546.95,-112.08C539.89,-97.64 523.84,-69.4 501,-56 456.07,-29.64 303.45,-17.39 232.2,-13"/>
<polygon fill="midnightblue" stroke="midnightblue" points="232.09,-9.49 221.9,-12.39 231.67,-16.47 232.09,-9.49"/>
</g>
<!-- Node9&#45;&gt;Node6 -->
<g id="edge17" class="edge">
<title>Node9&#45;&gt;Node6</title>
<path fill="none" stroke="midnightblue" d="M535.58,-112.32C520.46,-103.82 497.18,-90.73 479.53,-80.8"/>
<polygon fill="midnightblue" stroke="midnightblue" points="480.82,-77.51 470.39,-75.65 477.39,-83.61 480.82,-77.51"/>
</g>
<!-- Node10&#45;&gt;Node2 -->
<g id="edge19" class="edge">
<title>Node10&#45;&gt;Node2</title>
<path fill="none" stroke="midnightblue" d="M225.65,-168.44C245.96,-159.6 277.9,-145.69 301.1,-135.59"/>
<polygon fill="midnightblue" stroke="midnightblue" points="302.67,-138.72 310.44,-131.52 299.88,-132.3 302.67,-138.72"/>
</g>
<!-- Node10&#45;&gt;Node5 -->
<g id="edge20" class="edge">
<title>Node10&#45;&gt;Node5</title>
<path fill="none" stroke="midnightblue" d="M205.41,-168.08C203.68,-141.95 198.59,-65.21 196.23,-29.58"/>
<polygon fill="midnightblue" stroke="midnightblue" points="199.72,-29.31 195.57,-19.57 192.74,-29.78 199.72,-29.31"/>
</g>
<!-- Node10&#45;&gt;Node6 -->
<g id="edge21" class="edge">
<title>Node10&#45;&gt;Node6</title>
<path fill="none" stroke="midnightblue" d="M214.99,-168.06C229.52,-154.09 259.63,-127.14 290,-112 327.33,-93.39 373.37,-81.66 407.32,-74.85"/>
<polygon fill="midnightblue" stroke="midnightblue" points="408.3,-78.23 417.45,-72.9 406.97,-71.36 408.3,-78.23"/>
</g>
<!-- Node11&#45;&gt;Node8 -->
<g id="edge23" class="edge">
<title>Node11&#45;&gt;Node8</title>
<path fill="none" stroke="midnightblue" d="M464.38,-224.08C460.54,-216.69 454.98,-205.95 450.24,-196.81"/>
<polygon fill="midnightblue" stroke="midnightblue" points="453.25,-195.02 445.54,-187.75 447.03,-198.24 453.25,-195.02"/>
</g>
<!-- Node11&#45;&gt;Node9 -->
<g id="edge24" class="edge">
<title>Node11&#45;&gt;Node9</title>
<path fill="none" stroke="midnightblue" d="M484.85,-224.43C498.08,-216.55 516.55,-203.72 528,-188 538.12,-174.11 544.13,-155.35 547.45,-141.55"/>
<polygon fill="midnightblue" stroke="midnightblue" points="550.88,-142.25 549.56,-131.74 544.03,-140.78 550.88,-142.25"/>
</g>
<!-- Node12&#45;&gt;Node2 -->
<g id="edge26" class="edge">
<title>Node12&#45;&gt;Node2</title>
<path fill="none" stroke="midnightblue" d="M129.77,-169.6C171.19,-159.96 243.69,-143.09 289.16,-132.51"/>
<polygon fill="midnightblue" stroke="midnightblue" points="290.04,-135.9 298.98,-130.22 288.45,-129.08 290.04,-135.9"/>
</g>
<!-- Node12&#45;&gt;Node5 -->
<g id="edge27" class="edge">
<title>Node12&#45;&gt;Node5</title>
<path fill="none" stroke="midnightblue" d="M103.22,-168.08C118.68,-141.61 164.49,-63.21 184.94,-28.21"/>
<polygon fill="midnightblue" stroke="midnightblue" points="187.97,-29.97 189.99,-19.57 181.93,-26.44 187.97,-29.97"/>
</g>
<!-- Node12&#45;&gt;Node6 -->
<g id="edge28" class="edge">
<title>Node12&#45;&gt;Node6</title>
<path fill="none" stroke="midnightblue" d="M115.87,-168.35C144.47,-154.77 202.55,-128.34 254,-112 305.53,-95.64 366.3,-82.9 407.42,-75.22"/>
<polygon fill="midnightblue" stroke="midnightblue" points="408.24,-78.63 417.44,-73.38 406.97,-71.75 408.24,-78.63"/>
</g>
<!-- Node13&#45;&gt;Node2 -->
<g id="edge30" class="edge">
<title>Node13&#45;&gt;Node2</title>
<path fill="none" stroke="midnightblue" d="M585.84,-169.21C528.44,-158.84 427.69,-140.64 371.26,-130.45"/>
<polygon fill="midnightblue" stroke="midnightblue" points="371.73,-126.98 361.26,-128.65 370.48,-133.87 371.73,-126.98"/>
</g>
<!-- Node13&#45;&gt;Node6 -->
<g id="edge32" class="edge">
<title>Node13&#45;&gt;Node6</title>
<path fill="none" stroke="midnightblue" d="M629.91,-168.15C630.82,-154.31 630.4,-127.52 616,-112 587.26,-81.01 539.12,-70.72 502.95,-67.6"/>
<polygon fill="midnightblue" stroke="midnightblue" points="502.84,-64.09 492.62,-66.88 502.35,-71.07 502.84,-64.09"/>
</g>
<!-- Node14 -->
<g id="node14" class="node">
<title>Node14</title>
<g id="a_node14"><a xlink:title=" ">
<polygon fill="white" stroke="#bfbfbf" points="663,-112.5 663,-131.5 713,-131.5 713,-112.5 663,-112.5"/>
<text text-anchor="middle" x="688" y="-119.5" font-family="Helvetica,sans-Serif" font-size="10.00">stdio.h</text>
</a>
</g>
</g>
<!-- Node13&#45;&gt;Node14 -->
<g id="edge31" class="edge">
<title>Node13&#45;&gt;Node14</title>
<path fill="none" stroke="midnightblue" d="M638.48,-168.32C647.2,-160.34 660.34,-148.31 670.9,-138.65"/>
<polygon fill="midnightblue" stroke="midnightblue" points="673.33,-141.17 678.35,-131.83 668.61,-136 673.33,-141.17"/>
</g>
<!-- Node17 -->
<g id="node17" class="node">
<title>Node17</title>
<g id="a_node17"><a xlink:href="../../d9/d70/mgr__log__rtc_8h.html" target="_top" xlink:title=": Header for mgr_log_rtc.c file. This file contains log routine concerning RTC. Thus there is a depen...">
<polygon fill="white" stroke="black" points="668.5,-224.5 668.5,-243.5 751.5,-243.5 751.5,-224.5 668.5,-224.5"/>
<text text-anchor="middle" x="710" y="-231.5" font-family="Helvetica,sans-Serif" font-size="10.00">mgr_log_rtc.h</text>
</a>
</g>
</g>
<!-- Node16&#45;&gt;Node17 -->
<g id="edge35" class="edge">
<title>Node16&#45;&gt;Node17</title>
<path fill="none" stroke="midnightblue" d="M710,-280.08C710,-273.01 710,-262.86 710,-253.99"/>
<polygon fill="midnightblue" stroke="midnightblue" points="713.5,-253.75 710,-243.75 706.5,-253.75 713.5,-253.75"/>
</g>
</g>
</svg>
        <g id="navigator" transform="translate(0 0)" fill="#404254">
                <rect fill="#f2f5e9" fill-opacity="0.5" stroke="#606060" stroke-width=".5" x="0" y="0" width="60" height="60"/>
                <use id="zoomplus" xlink:href="#zoomPlus" x="17" y="9" onmousedown="handleZoom(evt,'in')"/>
                <use id="zoomminus" xlink:href="#zoomMin" x="42" y="9" onmousedown="handleZoom(evt,'out')"/>
                <use id="reset" xlink:href="#resetDef" x="30" y="36" onmousedown="handleReset()"/>
                <g id="arrowUp" xlink:href="#dirArrow" transform="translate(30 24)" onmousedown="handlePan(0,-1)">
                  <use xlink:href="#rim" fill="#404040">
                        <set attributeName="fill" to="#808080" begin="arrowUp.mouseover" end="arrowUp.mouseout"/>
                  </use>
                  <path fill="none" stroke="white" stroke-width="1.5" d="M0,-3.0v7 M-2.5,-0.5L0,-3.0L2.5,-0.5"/>
                </g>
                <g id="arrowRight" xlink:href="#dirArrow" transform="rotate(90) translate(36 -43)" onmousedown="handlePan(1,0)">
                  <use xlink:href="#rim" fill="#404040">
                        <set attributeName="fill" to="#808080" begin="arrowRight.mouseover" end="arrowRight.mouseout"/>
                  </use>
                  <path fill="none" stroke="white" stroke-width="1.5" d="M0,-3.0v7 M-2.5,-0.5L0,-3.0L2.5,-0.5"/>
                </g>
                <g id="arrowDown" xlink:href="#dirArrow" transform="rotate(180) translate(-30 -48)" onmousedown="handlePan(0,1)">
                  <use xlink:href="#rim" fill="#404040">
                        <set attributeName="fill" to="#808080" begin="arrowDown.mouseover" end="arrowDown.mouseout"/>
                  </use>
                  <path fill="none" stroke="white" stroke-width="1.5" d="M0,-3.0v7 M-2.5,-0.5L0,-3.0L2.5,-0.5"/>
                </g>
                <g id="arrowLeft" xlink:href="#dirArrow" transform="rotate(270) translate(-36 17)" onmousedown="handlePan(-1,0)">
                  <use xlink:href="#rim" fill="#404040">
                        <set attributeName="fill" to="#808080" begin="arrowLeft.mouseover" end="arrowLeft.mouseout"/>
                  </use>
                  <path fill="none" stroke="white" stroke-width="1.5" d="M0,-3.0v7 M-2.5,-0.5L0,-3.0L2.5,-0.5"/>
                </g>
        </g>
        <svg viewBox="0 0 15 15" width="100%" height="30px" preserveAspectRatio="xMaxYMin meet">
         <g id="arrow_out" transform="scale(0.3 0.3)">
          <a xlink:href="kns__app_8c__incl_org.svg" target="_base">
           <rect id="button" ry="5" rx="5" y="6" x="6" height="38" width="38"
                fill="#f2f5e9" fill-opacity="0.5" stroke="#606060" stroke-width="1.0"/>
           <path id="arrow"
             d="M 11.500037,31.436501 C 11.940474,20.09759 22.043105,11.32322 32.158766,21.979434 L 37.068811,17.246167 C 37.068811,17.246167 37.088388,32 37.088388,32 L 22.160133,31.978069 C 22.160133,31.978069 26.997745,27.140456 26.997745,27.140456 C 18.528582,18.264221 13.291696,25.230495 11.500037,31.436501 z"
             style="fill:#404040;"/>
          </a>
         </g>
        </svg>
</svg>
