<?xml version="1.0" encoding="UTF-8" standalone="no"?>
<!DOCTYPE svg PUBLIC "-//W3C//DTD SVG 1.1//EN"
 "http://www.w3.org/Graphics/SVG/1.1/DTD/svg11.dtd">
<!-- Generated by graphviz version 2.43.0 (0)
 -->
<!-- Title: Kineis/App/kns_app.c Pages: 1 -->
<!--zoomable 308 -->
<svg id="main" version="1.1" xmlns="http://www.w3.org/2000/svg" xmlns:xlink="http://www.w3.org/1999/xlink" xml:space="preserve" onload="init(evt)">
<style type="text/css"><![CDATA[
.edge:hover path { stroke: red; }
.edge:hover polygon { stroke: red; fill: red; }
]]></style>
<script type="text/javascript"><![CDATA[
var edges = document.getElementsByTagName('g');
if (edges && edges.length) {
  for (var i=0;i<edges.length;i++) {
    if (edges[i].id.substr(0,4)=='edge') {
      edges[i].setAttribute('class','edge');
    }
  }
}
]]></script>
        <defs>
                <circle id="rim" cx="0" cy="0" r="7"/>
                <circle id="rim2" cx="0" cy="0" r="3.5"/>
                <g id="zoomPlus">
                        <use xlink:href="#rim" fill="#404040">
                                <set attributeName="fill" to="#808080" begin="zoomplus.mouseover" end="zoomplus.mouseout"/>
                        </use>
                        <path d="M-4,0h8M0,-4v8" fill="none" stroke="white" stroke-width="1.5" pointer-events="none"/>
                </g>
                <g id="zoomMin">
                        <use xlink:href="#rim" fill="#404040">
                                <set attributeName="fill" to="#808080" begin="zoomminus.mouseover" end="zoomminus.mouseout"/>
                        </use>
                        <path d="M-4,0h8" fill="none" stroke="white" stroke-width="1.5" pointer-events="none"/>
                </g>
                <g id="dirArrow">
                        <path fill="none" stroke="white" stroke-width="1.5" d="M0,-3.0v7 M-2.5,-0.5L0,-3.0L2.5,-0.5"/>
                </g>
               <g id="resetDef">
                       <use xlink:href="#rim2" fill="#404040">
                               <set attributeName="fill" to="#808080" begin="reset.mouseover" end="reset.mouseout"/>
                       </use>
               </g>
        </defs>

<script type="text/javascript">
var viewWidth = 1037;
var viewHeight = 308;
var sectionId = 'dynsection-0';
</script>
<script xlink:href="../../svgpan.js"/>
<svg id="graph" class="graph">
<g id="viewport">
<title>Kineis/App/kns_app.c</title>
<polygon fill="white" stroke="transparent" points="-4,4 -4,-304 1033,-304 1033,4 -4,4"/>
<!-- Node1 -->
<g id="node1" class="node">
<title>Node1</title>
<g id="a_node1"><a xlink:title=" ">
<polygon fill="#bfbfbf" stroke="black" points="629.5,-280.5 629.5,-299.5 749.5,-299.5 749.5,-280.5 629.5,-280.5"/>
<text text-anchor="middle" x="689.5" y="-287.5" font-family="Helvetica,sans-Serif" font-size="10.00">Kineis/App/kns_app.c</text>
</a>
</g>
</g>
<!-- Node2 -->
<g id="node2" class="node">
<title>Node2</title>
<g id="a_node2"><a xlink:title=" ">
<polygon fill="white" stroke="#bfbfbf" points="551.5,-56.5 551.5,-75.5 613.5,-75.5 613.5,-56.5 551.5,-56.5"/>
<text text-anchor="middle" x="582.5" y="-63.5" font-family="Helvetica,sans-Serif" font-size="10.00">stdbool.h</text>
</a>
</g>
</g>
<!-- Node1&#45;&gt;Node2 -->
<g id="edge1" class="edge">
<title>Node1&#45;&gt;Node2</title>
<path fill="none" stroke="midnightblue" d="M693.48,-280.27C705.38,-252.68 737.7,-166.01 700.5,-112 683.29,-87.02 650.23,-75.9 623.47,-70.95"/>
<polygon fill="midnightblue" stroke="midnightblue" points="624,-67.49 613.57,-69.34 622.88,-74.4 624,-67.49"/>
</g>
<!-- Node3 -->
<g id="node3" class="node">
<title>Node3</title>
<g id="a_node3"><a xlink:title=" ">
<polygon fill="white" stroke="#bfbfbf" points="767,-224.5 767,-243.5 820,-243.5 820,-224.5 767,-224.5"/>
<text text-anchor="middle" x="793.5" y="-231.5" font-family="Helvetica,sans-Serif" font-size="10.00">stdlib.h</text>
</a>
</g>
</g>
<!-- Node1&#45;&gt;Node3 -->
<g id="edge2" class="edge">
<title>Node1&#45;&gt;Node3</title>
<path fill="none" stroke="midnightblue" d="M706.21,-280.32C722.81,-271.7 748.5,-258.36 767.72,-248.39"/>
<polygon fill="midnightblue" stroke="midnightblue" points="769.57,-251.37 776.83,-243.65 766.34,-245.16 769.57,-251.37"/>
</g>
<!-- Node4 -->
<g id="node4" class="node">
<title>Node4</title>
<g id="a_node4"><a xlink:href="../../d0/d84/kns__q_8h.html" target="_top" xlink:title="Configuration of queues used in kineis_swr.">
<polygon fill="white" stroke="black" points="572.5,-224.5 572.5,-243.5 626.5,-243.5 626.5,-224.5 572.5,-224.5"/>
<text text-anchor="middle" x="599.5" y="-231.5" font-family="Helvetica,sans-Serif" font-size="10.00">kns_q.h</text>
</a>
</g>
</g>
<!-- Node1&#45;&gt;Node4 -->
<g id="edge3" class="edge">
<title>Node1&#45;&gt;Node4</title>
<path fill="none" stroke="midnightblue" d="M675.04,-280.32C661,-271.9 639.45,-258.97 622.96,-249.07"/>
<polygon fill="midnightblue" stroke="midnightblue" points="624.3,-245.8 613.92,-243.65 620.7,-251.8 624.3,-245.8"/>
</g>
<!-- Node10 -->
<g id="node10" class="node">
<title>Node10</title>
<g id="a_node10"><a xlink:href="../../d7/d1a/kns__mac_8h.html" target="_top" xlink:title="Main header file for MAC layer of Kineis stack.">
<polygon fill="white" stroke="black" points="174,-168.5 174,-187.5 243,-187.5 243,-168.5 174,-168.5"/>
<text text-anchor="middle" x="208.5" y="-175.5" font-family="Helvetica,sans-Serif" font-size="10.00">kns_mac.h</text>
</a>
</g>
</g>
<!-- Node1&#45;&gt;Node10 -->
<g id="edge19" class="edge">
<title>Node1&#45;&gt;Node10</title>
<path fill="none" stroke="midnightblue" d="M652.16,-280.46C564.73,-260.47 347.08,-210.69 252.99,-189.17"/>
<polygon fill="midnightblue" stroke="midnightblue" points="253.74,-185.76 243.21,-186.94 252.18,-192.58 253.74,-185.76"/>
</g>
<!-- Node12 -->
<g id="node12" class="node">
<title>Node12</title>
<g id="a_node12"><a xlink:href="../../d9/d57/kns__cfg_8h.html" target="_top" xlink:title="Device communication driver for Kineis radio frequence.">
<polygon fill="white" stroke="black" points="628,-112.5 628,-131.5 691,-131.5 691,-112.5 628,-112.5"/>
<text text-anchor="middle" x="659.5" y="-119.5" font-family="Helvetica,sans-Serif" font-size="10.00">kns_cfg.h</text>
</a>
</g>
</g>
<!-- Node1&#45;&gt;Node12 -->
<g id="edge24" class="edge">
<title>Node1&#45;&gt;Node12</title>
<path fill="none" stroke="midnightblue" d="M687.89,-280.08C683.16,-253.95 669.3,-177.21 662.86,-141.58"/>
<polygon fill="midnightblue" stroke="midnightblue" points="666.27,-140.79 661.05,-131.57 659.38,-142.03 666.27,-140.79"/>
</g>
<!-- Node13 -->
<g id="node13" class="node">
<title>Node13</title>
<g id="a_node13"><a xlink:href="../../d2/db5/mgr__at__cmd_8h.html" target="_top" xlink:title="AT commands manager main header file.">
<polygon fill="white" stroke="black" points="129.5,-112.5 129.5,-131.5 215.5,-131.5 215.5,-112.5 129.5,-112.5"/>
<text text-anchor="middle" x="172.5" y="-119.5" font-family="Helvetica,sans-Serif" font-size="10.00">mgr_at_cmd.h</text>
</a>
</g>
</g>
<!-- Node1&#45;&gt;Node13 -->
<g id="edge28" class="edge">
<title>Node1&#45;&gt;Node13</title>
<path fill="none" stroke="midnightblue" d="M629.18,-286.87C503.7,-281.01 221.48,-259.94 164.5,-188 154.05,-174.8 158.36,-155.13 163.86,-140.88"/>
<polygon fill="midnightblue" stroke="midnightblue" points="167.1,-142.21 167.88,-131.64 160.68,-139.42 167.1,-142.21"/>
</g>
<!-- Node15 -->
<g id="node15" class="node">
<title>Node15</title>
<g id="a_node15"><a xlink:href="../../d9/dc4/kineis__sw__conf_8h.html" target="_top" xlink:title="Kineis stack SW configurations depending on platform used.">
<polygon fill="white" stroke="black" points="838,-224.5 838,-243.5 937,-243.5 937,-224.5 838,-224.5"/>
<text text-anchor="middle" x="887.5" y="-231.5" font-family="Helvetica,sans-Serif" font-size="10.00">kineis_sw_conf.h</text>
</a>
</g>
</g>
<!-- Node1&#45;&gt;Node15 -->
<g id="edge32" class="edge">
<title>Node1&#45;&gt;Node15</title>
<path fill="none" stroke="midnightblue" d="M720.87,-280.44C754.76,-271.2 808.9,-256.44 846.22,-246.26"/>
<polygon fill="midnightblue" stroke="midnightblue" points="847.55,-249.52 856.27,-243.52 845.7,-242.77 847.55,-249.52"/>
</g>
<!-- Node16 -->
<g id="node16" class="node">
<title>Node16</title>
<g id="a_node16"><a xlink:href="../../d2/d2e/mgr__log_8h.html" target="_top" xlink:title="logger main header file">
<polygon fill="white" stroke="black" points="955,-224.5 955,-243.5 1020,-243.5 1020,-224.5 955,-224.5"/>
<text text-anchor="middle" x="987.5" y="-231.5" font-family="Helvetica,sans-Serif" font-size="10.00">mgr_log.h</text>
</a>
</g>
</g>
<!-- Node1&#45;&gt;Node16 -->
<g id="edge33" class="edge">
<title>Node1&#45;&gt;Node16</title>
<path fill="none" stroke="midnightblue" d="M742.29,-280.43C792.09,-272.2 869.09,-259.08 944.68,-244.3"/>
<polygon fill="midnightblue" stroke="midnightblue" points="945.72,-247.66 954.85,-242.3 944.37,-240.79 945.72,-247.66"/>
</g>
<!-- Node4&#45;&gt;Node2 -->
<g id="edge4" class="edge">
<title>Node4&#45;&gt;Node2</title>
<path fill="none" stroke="midnightblue" d="M598.59,-224.08C595.91,-197.95 588.05,-121.21 584.4,-85.58"/>
<polygon fill="midnightblue" stroke="midnightblue" points="587.88,-85.16 583.38,-75.57 580.91,-85.87 587.88,-85.16"/>
</g>
<!-- Node5 -->
<g id="node5" class="node">
<title>Node5</title>
<g id="a_node5"><a xlink:title=" ">
<polygon fill="white" stroke="#bfbfbf" points="411,-0.5 411,-19.5 464,-19.5 464,-0.5 411,-0.5"/>
<text text-anchor="middle" x="437.5" y="-7.5" font-family="Helvetica,sans-Serif" font-size="10.00">stdint.h</text>
</a>
</g>
</g>
<!-- Node4&#45;&gt;Node5 -->
<g id="edge5" class="edge">
<title>Node4&#45;&gt;Node5</title>
<path fill="none" stroke="midnightblue" d="M616.67,-224.48C650.56,-206.38 721.08,-161.68 700.5,-112 665.04,-26.39 538.03,-12.18 474.39,-10.57"/>
<polygon fill="midnightblue" stroke="midnightblue" points="474.43,-7.07 464.38,-10.41 474.32,-14.07 474.43,-7.07"/>
</g>
<!-- Node6 -->
<g id="node6" class="node">
<title>Node6</title>
<g id="a_node6"><a xlink:href="../../d8/d85/kns__types_8h.html" target="_top" xlink:title="Kineis types definition.">
<polygon fill="white" stroke="black" points="279,-56.5 279,-75.5 354,-75.5 354,-56.5 279,-56.5"/>
<text text-anchor="middle" x="316.5" y="-63.5" font-family="Helvetica,sans-Serif" font-size="10.00">kns_types.h</text>
</a>
</g>
</g>
<!-- Node4&#45;&gt;Node6 -->
<g id="edge6" class="edge">
<title>Node4&#45;&gt;Node6</title>
<path fill="none" stroke="midnightblue" d="M572.4,-229.05C499.19,-217.78 300.42,-182.96 262.5,-132 248.92,-113.75 271.6,-93.76 291.6,-80.84"/>
<polygon fill="midnightblue" stroke="midnightblue" points="293.47,-83.8 300.17,-75.59 289.82,-77.82 293.47,-83.8"/>
</g>
<!-- Node7 -->
<g id="node7" class="node">
<title>Node7</title>
<g id="a_node7"><a xlink:href="../../d8/dd1/kns__q__conf_8h.html" target="_top" xlink:title="Configuration of queues used in kineis_sw.">
<polygon fill="white" stroke="black" points="483.5,-168.5 483.5,-187.5 563.5,-187.5 563.5,-168.5 483.5,-168.5"/>
<text text-anchor="middle" x="523.5" y="-175.5" font-family="Helvetica,sans-Serif" font-size="10.00">kns_q_conf.h</text>
</a>
</g>
</g>
<!-- Node4&#45;&gt;Node7 -->
<g id="edge8" class="edge">
<title>Node4&#45;&gt;Node7</title>
<path fill="none" stroke="midnightblue" d="M587.29,-224.32C575.72,-216.11 558.12,-203.6 544.34,-193.81"/>
<polygon fill="midnightblue" stroke="midnightblue" points="546.11,-190.77 535.93,-187.83 542.06,-196.48 546.11,-190.77"/>
</g>
<!-- Node6&#45;&gt;Node5 -->
<g id="edge7" class="edge">
<title>Node6&#45;&gt;Node5</title>
<path fill="none" stroke="midnightblue" d="M335.67,-56.44C355.41,-47.64 386.39,-33.81 408.99,-23.72"/>
<polygon fill="midnightblue" stroke="midnightblue" points="410.71,-26.79 418.42,-19.52 407.86,-20.4 410.71,-26.79"/>
</g>
<!-- Node7&#45;&gt;Node2 -->
<g id="edge9" class="edge">
<title>Node7&#45;&gt;Node2</title>
<path fill="none" stroke="midnightblue" d="M528.13,-168.37C537.78,-150.38 560.21,-108.55 573.05,-84.63"/>
<polygon fill="midnightblue" stroke="midnightblue" points="576.25,-86.06 577.89,-75.59 570.08,-82.75 576.25,-86.06"/>
</g>
<!-- Node7&#45;&gt;Node5 -->
<g id="edge10" class="edge">
<title>Node7&#45;&gt;Node5</title>
<path fill="none" stroke="midnightblue" d="M521.83,-168.29C519.19,-155.53 513.42,-131.19 504.5,-112 489.72,-80.21 465.8,-47.02 450.9,-27.71"/>
<polygon fill="midnightblue" stroke="midnightblue" points="453.49,-25.35 444.57,-19.65 447.99,-29.68 453.49,-25.35"/>
</g>
<!-- Node8 -->
<g id="node8" class="node">
<title>Node8</title>
<g id="a_node8"><a xlink:href="../../df/d64/kns__mac__evt_8h.html" target="_top" xlink:title=" ">
<polygon fill="white" stroke="black" points="271.5,-112.5 271.5,-131.5 361.5,-131.5 361.5,-112.5 271.5,-112.5"/>
<text text-anchor="middle" x="316.5" y="-119.5" font-family="Helvetica,sans-Serif" font-size="10.00">kns_mac_evt.h</text>
</a>
</g>
</g>
<!-- Node7&#45;&gt;Node8 -->
<g id="edge11" class="edge">
<title>Node7&#45;&gt;Node8</title>
<path fill="none" stroke="midnightblue" d="M490.7,-168.44C455.12,-159.16 398.19,-144.31 359.15,-134.13"/>
<polygon fill="midnightblue" stroke="midnightblue" points="359.71,-130.65 349.15,-131.52 357.94,-137.43 359.71,-130.65"/>
</g>
<!-- Node9 -->
<g id="node9" class="node">
<title>Node9</title>
<g id="a_node9"><a xlink:href="../../d7/d8a/kns__srvc__common_8h.html" target="_top" xlink:title="Common part of Kinéis service layer.">
<polygon fill="white" stroke="black" points="379.5,-112.5 379.5,-131.5 495.5,-131.5 495.5,-112.5 379.5,-112.5"/>
<text text-anchor="middle" x="437.5" y="-119.5" font-family="Helvetica,sans-Serif" font-size="10.00">kns_srvc_common.h</text>
</a>
</g>
</g>
<!-- Node7&#45;&gt;Node9 -->
<g id="edge15" class="edge">
<title>Node7&#45;&gt;Node9</title>
<path fill="none" stroke="midnightblue" d="M509.68,-168.32C496.27,-159.9 475.68,-146.97 459.91,-137.07"/>
<polygon fill="midnightblue" stroke="midnightblue" points="461.61,-134.01 451.28,-131.65 457.89,-139.94 461.61,-134.01"/>
</g>
<!-- Node8&#45;&gt;Node2 -->
<g id="edge12" class="edge">
<title>Node8&#45;&gt;Node2</title>
<path fill="none" stroke="midnightblue" d="M358.65,-112.44C408.7,-102.28 491.65,-85.44 541.29,-75.37"/>
<polygon fill="midnightblue" stroke="midnightblue" points="542.25,-78.74 551.35,-73.32 540.86,-71.88 542.25,-78.74"/>
</g>
<!-- Node8&#45;&gt;Node5 -->
<g id="edge13" class="edge">
<title>Node8&#45;&gt;Node5</title>
<path fill="none" stroke="midnightblue" d="M325.99,-112.37C346.4,-93.81 394.7,-49.91 420.52,-26.44"/>
<polygon fill="midnightblue" stroke="midnightblue" points="423,-28.91 428.05,-19.59 418.3,-23.73 423,-28.91"/>
</g>
<!-- Node8&#45;&gt;Node6 -->
<g id="edge14" class="edge">
<title>Node8&#45;&gt;Node6</title>
<path fill="none" stroke="midnightblue" d="M316.5,-112.08C316.5,-105.01 316.5,-94.86 316.5,-85.99"/>
<polygon fill="midnightblue" stroke="midnightblue" points="320,-85.75 316.5,-75.75 313,-85.75 320,-85.75"/>
</g>
<!-- Node9&#45;&gt;Node2 -->
<g id="edge16" class="edge">
<title>Node9&#45;&gt;Node2</title>
<path fill="none" stroke="midnightblue" d="M460.48,-112.44C484.66,-103.44 522.92,-89.19 550.15,-79.05"/>
<polygon fill="midnightblue" stroke="midnightblue" points="551.48,-82.29 559.63,-75.52 549.04,-75.73 551.48,-82.29"/>
</g>
<!-- Node9&#45;&gt;Node5 -->
<g id="edge17" class="edge">
<title>Node9&#45;&gt;Node5</title>
<path fill="none" stroke="midnightblue" d="M437.5,-112.37C437.5,-94.62 437.5,-53.67 437.5,-29.6"/>
<polygon fill="midnightblue" stroke="midnightblue" points="441,-29.59 437.5,-19.59 434,-29.59 441,-29.59"/>
</g>
<!-- Node9&#45;&gt;Node6 -->
<g id="edge18" class="edge">
<title>Node9&#45;&gt;Node6</title>
<path fill="none" stroke="midnightblue" d="M418.33,-112.44C398.59,-103.64 367.61,-89.81 345.01,-79.72"/>
<polygon fill="midnightblue" stroke="midnightblue" points="346.14,-76.4 335.58,-75.52 343.29,-82.79 346.14,-76.4"/>
</g>
<!-- Node10&#45;&gt;Node8 -->
<g id="edge20" class="edge">
<title>Node10&#45;&gt;Node8</title>
<path fill="none" stroke="midnightblue" d="M225.85,-168.32C243.17,-159.66 270.02,-146.24 290,-136.25"/>
<polygon fill="midnightblue" stroke="midnightblue" points="291.81,-139.26 299.19,-131.65 288.68,-133 291.81,-139.26"/>
</g>
<!-- Node11 -->
<g id="node11" class="node">
<title>Node11</title>
<g id="a_node11"><a xlink:href="../../d8/d4a/kns__mac__prfl__cfg_8h.html" target="_top" xlink:title="Header file describing the ser settings required to configure a MAC protocol.">
<polygon fill="white" stroke="black" points="0,-112.5 0,-131.5 111,-131.5 111,-112.5 0,-112.5"/>
<text text-anchor="middle" x="55.5" y="-119.5" font-family="Helvetica,sans-Serif" font-size="10.00">kns_mac_prfl_cfg.h</text>
</a>
</g>
</g>
<!-- Node10&#45;&gt;Node11 -->
<g id="edge21" class="edge">
<title>Node10&#45;&gt;Node11</title>
<path fill="none" stroke="midnightblue" d="M184.26,-168.44C158.63,-159.4 118.01,-145.06 89.26,-134.92"/>
<polygon fill="midnightblue" stroke="midnightblue" points="90.22,-131.54 79.63,-131.52 87.89,-138.15 90.22,-131.54"/>
</g>
<!-- Node11&#45;&gt;Node5 -->
<g id="edge22" class="edge">
<title>Node11&#45;&gt;Node5</title>
<path fill="none" stroke="midnightblue" d="M63.71,-112.1C77.59,-97.68 107.24,-69.47 138.5,-56 227,-17.86 342.32,-11.28 400.5,-10.61"/>
<polygon fill="midnightblue" stroke="midnightblue" points="400.7,-14.11 410.67,-10.55 400.65,-7.11 400.7,-14.11"/>
</g>
<!-- Node11&#45;&gt;Node6 -->
<g id="edge23" class="edge">
<title>Node11&#45;&gt;Node6</title>
<path fill="none" stroke="midnightblue" d="M96.86,-112.44C143.56,-102.78 219.43,-87.08 268.65,-76.9"/>
<polygon fill="midnightblue" stroke="midnightblue" points="269.64,-80.27 278.73,-74.82 268.23,-73.41 269.64,-80.27"/>
</g>
<!-- Node12&#45;&gt;Node2 -->
<g id="edge25" class="edge">
<title>Node12&#45;&gt;Node2</title>
<path fill="none" stroke="midnightblue" d="M647.13,-112.32C635.34,-104.06 617.37,-91.45 603.36,-81.63"/>
<polygon fill="midnightblue" stroke="midnightblue" points="605.04,-78.53 594.84,-75.65 601.02,-84.26 605.04,-78.53"/>
</g>
<!-- Node12&#45;&gt;Node5 -->
<g id="edge26" class="edge">
<title>Node12&#45;&gt;Node5</title>
<path fill="none" stroke="midnightblue" d="M657.04,-112.34C652.58,-98.26 641.79,-70.54 622.5,-56 578.89,-23.12 514.5,-13.94 474.33,-11.56"/>
<polygon fill="midnightblue" stroke="midnightblue" points="474.33,-8.06 464.17,-11.07 473.99,-15.05 474.33,-8.06"/>
</g>
<!-- Node12&#45;&gt;Node6 -->
<g id="edge27" class="edge">
<title>Node12&#45;&gt;Node6</title>
<path fill="none" stroke="midnightblue" d="M627.85,-116.02C567.38,-106.5 435.17,-85.68 364.04,-74.48"/>
<polygon fill="midnightblue" stroke="midnightblue" points="364.43,-71 354,-72.9 363.34,-77.92 364.43,-71"/>
</g>
<!-- Node13&#45;&gt;Node2 -->
<g id="edge29" class="edge">
<title>Node13&#45;&gt;Node2</title>
<path fill="none" stroke="midnightblue" d="M215.6,-115.32C295.09,-104.85 463.76,-82.64 541.58,-72.39"/>
<polygon fill="midnightblue" stroke="midnightblue" points="542.04,-75.86 551.5,-71.08 541.13,-68.92 542.04,-75.86"/>
</g>
<!-- Node13&#45;&gt;Node6 -->
<g id="edge31" class="edge">
<title>Node13&#45;&gt;Node6</title>
<path fill="none" stroke="midnightblue" d="M195.32,-112.44C219.33,-103.44 257.33,-89.19 284.37,-79.05"/>
<polygon fill="midnightblue" stroke="midnightblue" points="285.66,-82.3 293.79,-75.52 283.2,-75.75 285.66,-82.3"/>
</g>
<!-- Node14 -->
<g id="node14" class="node">
<title>Node14</title>
<g id="a_node14"><a xlink:title=" ">
<polygon fill="white" stroke="#bfbfbf" points="147.5,-56.5 147.5,-75.5 197.5,-75.5 197.5,-56.5 147.5,-56.5"/>
<text text-anchor="middle" x="172.5" y="-63.5" font-family="Helvetica,sans-Serif" font-size="10.00">stdio.h</text>
</a>
</g>
</g>
<!-- Node13&#45;&gt;Node14 -->
<g id="edge30" class="edge">
<title>Node13&#45;&gt;Node14</title>
<path fill="none" stroke="midnightblue" d="M172.5,-112.08C172.5,-105.01 172.5,-94.86 172.5,-85.99"/>
<polygon fill="midnightblue" stroke="midnightblue" points="176,-85.75 172.5,-75.75 169,-85.75 176,-85.75"/>
</g>
<!-- Node17 -->
<g id="node17" class="node">
<title>Node17</title>
<g id="a_node17"><a xlink:href="../../d9/d70/mgr__log__rtc_8h.html" target="_top" xlink:title=": Header for mgr_log_rtc.c file. This file contains log routine concerning RTC. Thus there is a depen...">
<polygon fill="white" stroke="black" points="946,-168.5 946,-187.5 1029,-187.5 1029,-168.5 946,-168.5"/>
<text text-anchor="middle" x="987.5" y="-175.5" font-family="Helvetica,sans-Serif" font-size="10.00">mgr_log_rtc.h</text>
</a>
</g>
</g>
<!-- Node16&#45;&gt;Node17 -->
<g id="edge34" class="edge">
<title>Node16&#45;&gt;Node17</title>
<path fill="none" stroke="midnightblue" d="M987.5,-224.08C987.5,-217.01 987.5,-206.86 987.5,-197.99"/>
<polygon fill="midnightblue" stroke="midnightblue" points="991,-197.75 987.5,-187.75 984,-197.75 991,-197.75"/>
</g>
</g>
</svg>
        <g id="navigator" transform="translate(0 0)" fill="#404254">
                <rect fill="#f2f5e9" fill-opacity="0.5" stroke="#606060" stroke-width=".5" x="0" y="0" width="60" height="60"/>
                <use id="zoomplus" xlink:href="#zoomPlus" x="17" y="9" onmousedown="handleZoom(evt,'in')"/>
                <use id="zoomminus" xlink:href="#zoomMin" x="42" y="9" onmousedown="handleZoom(evt,'out')"/>
                <use id="reset" xlink:href="#resetDef" x="30" y="36" onmousedown="handleReset()"/>
                <g id="arrowUp" xlink:href="#dirArrow" transform="translate(30 24)" onmousedown="handlePan(0,-1)">
                  <use xlink:href="#rim" fill="#404040">
                        <set attributeName="fill" to="#808080" begin="arrowUp.mouseover" end="arrowUp.mouseout"/>
                  </use>
                  <path fill="none" stroke="white" stroke-width="1.5" d="M0,-3.0v7 M-2.5,-0.5L0,-3.0L2.5,-0.5"/>
                </g>
                <g id="arrowRight" xlink:href="#dirArrow" transform="rotate(90) translate(36 -43)" onmousedown="handlePan(1,0)">
                  <use xlink:href="#rim" fill="#404040">
                        <set attributeName="fill" to="#808080" begin="arrowRight.mouseover" end="arrowRight.mouseout"/>
                  </use>
                  <path fill="none" stroke="white" stroke-width="1.5" d="M0,-3.0v7 M-2.5,-0.5L0,-3.0L2.5,-0.5"/>
                </g>
                <g id="arrowDown" xlink:href="#dirArrow" transform="rotate(180) translate(-30 -48)" onmousedown="handlePan(0,1)">
                  <use xlink:href="#rim" fill="#404040">
                        <set attributeName="fill" to="#808080" begin="arrowDown.mouseover" end="arrowDown.mouseout"/>
                  </use>
                  <path fill="none" stroke="white" stroke-width="1.5" d="M0,-3.0v7 M-2.5,-0.5L0,-3.0L2.5,-0.5"/>
                </g>
                <g id="arrowLeft" xlink:href="#dirArrow" transform="rotate(270) translate(-36 17)" onmousedown="handlePan(-1,0)">
                  <use xlink:href="#rim" fill="#404040">
                        <set attributeName="fill" to="#808080" begin="arrowLeft.mouseover" end="arrowLeft.mouseout"/>
                  </use>
                  <path fill="none" stroke="white" stroke-width="1.5" d="M0,-3.0v7 M-2.5,-0.5L0,-3.0L2.5,-0.5"/>
                </g>
        </g>
        <svg viewBox="0 0 15 15" width="100%" height="30px" preserveAspectRatio="xMaxYMin meet">
         <g id="arrow_out" transform="scale(0.3 0.3)">
          <a xlink:href="kns__app_8c__incl_org.svg" target="_base">
           <rect id="button" ry="5" rx="5" y="6" x="6" height="38" width="38"
                fill="#f2f5e9" fill-opacity="0.5" stroke="#606060" stroke-width="1.0"/>
           <path id="arrow"
             d="M 11.500037,31.436501 C 11.940474,20.09759 22.043105,11.32322 32.158766,21.979434 L 37.068811,17.246167 C 37.068811,17.246167 37.088388,32 37.088388,32 L 22.160133,31.978069 C 22.160133,31.978069 26.997745,27.140456 26.997745,27.140456 C 18.528582,18.264221 13.291696,25.230495 11.500037,31.436501 z"
             style="fill:#404040;"/>
          </a>
         </g>
        </svg>
</svg>
