<?xml version="1.0" encoding="UTF-8" standalone="no"?>
<!DOCTYPE svg PUBLIC "-//W3C//DTD SVG 1.1//EN"
 "http://www.w3.org/Graphics/SVG/1.1/DTD/svg11.dtd">
<!-- Generated by graphviz version 2.43.0 (0)
 -->
<!-- Title: Kineis/App/Managers/MGR_AT_CMD/Inc/mgr_at_cmd_list_user_data.h Pages: 1 -->
<svg width="353pt" height="218pt"
 viewBox="0.00 0.00 352.50 218.00" xmlns="http://www.w3.org/2000/svg" xmlns:xlink="http://www.w3.org/1999/xlink">
<g id="graph0" class="graph" transform="scale(1 1) rotate(0) translate(4 214)">
<title>Kineis/App/Managers/MGR_AT_CMD/Inc/mgr_at_cmd_list_user_data.h</title>
<polygon fill="white" stroke="transparent" points="-4,4 -4,-214 348.5,-214 348.5,4 -4,4"/>
<!-- Node1 -->
<g id="node1" class="node">
<title>Node1</title>
<g id="a_node1"><a xlink:title="subset of AT commands concerning user data manipulation such as TX">
<polygon fill="#bfbfbf" stroke="black" points="159,-168.5 159,-209.5 299,-209.5 299,-168.5 159,-168.5"/>
<text text-anchor="start" x="167" y="-197.5" font-family="Helvetica,sans-Serif" font-size="10.00">Kineis/App/Managers</text>
<text text-anchor="start" x="167" y="-186.5" font-family="Helvetica,sans-Serif" font-size="10.00">/MGR_AT_CMD/Inc/mgr</text>
<text text-anchor="middle" x="229" y="-175.5" font-family="Helvetica,sans-Serif" font-size="10.00">_at_cmd_list_user_data.h</text>
</a>
</g>
</g>
<!-- Node2 -->
<g id="node2" class="node">
<title>Node2</title>
<g id="a_node2"><a xlink:href="../../d8/d85/kns__types_8h.html" target="_top" xlink:title="Kineis types definition.">
<polygon fill="white" stroke="black" points="269.5,-112.5 269.5,-131.5 344.5,-131.5 344.5,-112.5 269.5,-112.5"/>
<text text-anchor="middle" x="307" y="-119.5" font-family="Helvetica,sans-Serif" font-size="10.00">kns_types.h</text>
</a>
</g>
</g>
<!-- Node1&#45;&gt;Node2 -->
<g id="edge1" class="edge">
<title>Node1&#45;&gt;Node2</title>
<path fill="none" stroke="midnightblue" d="M252.4,-168.5C264.02,-158.82 277.84,-147.3 288.67,-138.27"/>
<polygon fill="midnightblue" stroke="midnightblue" points="291.18,-140.74 296.62,-131.65 286.69,-135.37 291.18,-140.74"/>
</g>
<!-- Node4 -->
<g id="node4" class="node">
<title>Node4</title>
<g id="a_node4"><a xlink:href="../../d5/d58/mgr__at__cmd__common_8h.html" target="_top" xlink:title="header file for common part of the AT cmd manager">
<polygon fill="white" stroke="black" points="101,-112.5 101,-131.5 235,-131.5 235,-112.5 101,-112.5"/>
<text text-anchor="middle" x="168" y="-119.5" font-family="Helvetica,sans-Serif" font-size="10.00">mgr_at_cmd_common.h</text>
</a>
</g>
</g>
<!-- Node1&#45;&gt;Node4 -->
<g id="edge3" class="edge">
<title>Node1&#45;&gt;Node4</title>
<path fill="none" stroke="midnightblue" d="M210.7,-168.5C201.89,-159.11 191.45,-147.98 183.09,-139.08"/>
<polygon fill="midnightblue" stroke="midnightblue" points="185.52,-136.55 176.12,-131.65 180.41,-141.34 185.52,-136.55"/>
</g>
<!-- Node3 -->
<g id="node3" class="node">
<title>Node3</title>
<g id="a_node3"><a xlink:title=" ">
<polygon fill="white" stroke="#bfbfbf" points="151.5,-0.5 151.5,-19.5 204.5,-19.5 204.5,-0.5 151.5,-0.5"/>
<text text-anchor="middle" x="178" y="-7.5" font-family="Helvetica,sans-Serif" font-size="10.00">stdint.h</text>
</a>
</g>
</g>
<!-- Node2&#45;&gt;Node3 -->
<g id="edge2" class="edge">
<title>Node2&#45;&gt;Node3</title>
<path fill="none" stroke="midnightblue" d="M309.52,-112.45C312.92,-99.02 317.25,-72.78 305,-56 284.34,-27.69 244.36,-17.1 214.75,-13.19"/>
<polygon fill="midnightblue" stroke="midnightblue" points="215.09,-9.71 204.76,-12.07 214.3,-16.66 215.09,-9.71"/>
</g>
<!-- Node4&#45;&gt;Node3 -->
<g id="edge4" class="edge">
<title>Node4&#45;&gt;Node3</title>
<path fill="none" stroke="midnightblue" d="M168.78,-112.37C170.4,-94.62 174.12,-53.67 176.31,-29.6"/>
<polygon fill="midnightblue" stroke="midnightblue" points="179.8,-29.87 177.22,-19.59 172.83,-29.23 179.8,-29.87"/>
</g>
<!-- Node5 -->
<g id="node5" class="node">
<title>Node5</title>
<g id="a_node5"><a xlink:title=" ">
<polygon fill="white" stroke="#bfbfbf" points="0,-0.5 0,-19.5 62,-19.5 62,-0.5 0,-0.5"/>
<text text-anchor="middle" x="31" y="-7.5" font-family="Helvetica,sans-Serif" font-size="10.00">stdbool.h</text>
</a>
</g>
</g>
<!-- Node4&#45;&gt;Node5 -->
<g id="edge5" class="edge">
<title>Node4&#45;&gt;Node5</title>
<path fill="none" stroke="midnightblue" d="M129,-112.43C106.46,-105.75 78.9,-94.44 60,-76 47.03,-63.35 39.4,-43.87 35.26,-29.53"/>
<polygon fill="midnightblue" stroke="midnightblue" points="38.62,-28.57 32.73,-19.77 31.85,-30.32 38.62,-28.57"/>
</g>
<!-- Node6 -->
<g id="node6" class="node">
<title>Node6</title>
<g id="a_node6"><a xlink:href="../../df/d36/strutil__lib_8h.html" target="_top" xlink:title="small utilities to manipulate strings">
<polygon fill="white" stroke="black" points="68.5,-56.5 68.5,-75.5 139.5,-75.5 139.5,-56.5 68.5,-56.5"/>
<text text-anchor="middle" x="104" y="-63.5" font-family="Helvetica,sans-Serif" font-size="10.00">strutil_lib.h</text>
</a>
</g>
</g>
<!-- Node4&#45;&gt;Node6 -->
<g id="edge6" class="edge">
<title>Node4&#45;&gt;Node6</title>
<path fill="none" stroke="midnightblue" d="M157.72,-112.32C148.16,-104.26 133.72,-92.08 122.22,-82.37"/>
<polygon fill="midnightblue" stroke="midnightblue" points="124.37,-79.61 114.47,-75.83 119.86,-84.96 124.37,-79.61"/>
</g>
<!-- Node8 -->
<g id="node8" class="node">
<title>Node8</title>
<g id="a_node8"><a xlink:href="../../d9/dc4/kineis__sw__conf_8h.html" target="_top" xlink:title="Kineis stack SW configurations depending on platform used.">
<polygon fill="white" stroke="black" points="196.5,-56.5 196.5,-75.5 295.5,-75.5 295.5,-56.5 196.5,-56.5"/>
<text text-anchor="middle" x="246" y="-63.5" font-family="Helvetica,sans-Serif" font-size="10.00">kineis_sw_conf.h</text>
</a>
</g>
</g>
<!-- Node4&#45;&gt;Node8 -->
<g id="edge10" class="edge">
<title>Node4&#45;&gt;Node8</title>
<path fill="none" stroke="midnightblue" d="M180.53,-112.32C192.59,-103.98 211.03,-91.21 225.27,-81.35"/>
<polygon fill="midnightblue" stroke="midnightblue" points="227.27,-84.22 233.5,-75.65 223.28,-78.47 227.27,-84.22"/>
</g>
<!-- Node6&#45;&gt;Node3 -->
<g id="edge7" class="edge">
<title>Node6&#45;&gt;Node3</title>
<path fill="none" stroke="midnightblue" d="M115.89,-56.32C127.15,-48.11 144.29,-35.6 157.71,-25.81"/>
<polygon fill="midnightblue" stroke="midnightblue" points="159.88,-28.56 165.89,-19.83 155.75,-22.9 159.88,-28.56"/>
</g>
<!-- Node6&#45;&gt;Node5 -->
<g id="edge8" class="edge">
<title>Node6&#45;&gt;Node5</title>
<path fill="none" stroke="midnightblue" d="M92.27,-56.32C81.16,-48.11 64.26,-35.6 51.02,-25.81"/>
<polygon fill="midnightblue" stroke="midnightblue" points="53.06,-22.97 42.94,-19.83 48.9,-28.59 53.06,-22.97"/>
</g>
<!-- Node7 -->
<g id="node7" class="node">
<title>Node7</title>
<g id="a_node7"><a xlink:title=" ">
<polygon fill="white" stroke="#bfbfbf" points="80.5,-0.5 80.5,-19.5 133.5,-19.5 133.5,-0.5 80.5,-0.5"/>
<text text-anchor="middle" x="107" y="-7.5" font-family="Helvetica,sans-Serif" font-size="10.00">stdlib.h</text>
</a>
</g>
</g>
<!-- Node6&#45;&gt;Node7 -->
<g id="edge9" class="edge">
<title>Node6&#45;&gt;Node7</title>
<path fill="none" stroke="midnightblue" d="M104.5,-56.08C104.89,-49.01 105.45,-38.86 105.95,-29.99"/>
<polygon fill="midnightblue" stroke="midnightblue" points="109.45,-29.93 106.51,-19.75 102.46,-29.54 109.45,-29.93"/>
</g>
</g>
</svg>
