<?xml version="1.0" encoding="UTF-8" standalone="no"?>
<!DOCTYPE svg PUBLIC "-//W3C//DTD SVG 1.1//EN"
 "http://www.w3.org/Graphics/SVG/1.1/DTD/svg11.dtd">
<!-- Generated by graphviz version 2.43.0 (0)
 -->
<!-- Title: KNS_MAC_init Pages: 1 -->
<svg width="318pt" height="66pt"
 viewBox="0.00 0.00 318.00 66.00" xmlns="http://www.w3.org/2000/svg" xmlns:xlink="http://www.w3.org/1999/xlink">
<g id="graph0" class="graph" transform="scale(1 1) rotate(0) translate(4 62)">
<title>KNS_MAC_init</title>
<polygon fill="white" stroke="transparent" points="-4,4 -4,-62 314,-62 314,4 -4,4"/>
<!-- Node1 -->
<g id="node1" class="node">
<title>Node1</title>
<g id="a_node1"><a xlink:title="Initialize and start MAC profile.">
<polygon fill="#bfbfbf" stroke="black" points="224,-19.5 224,-38.5 310,-38.5 310,-19.5 224,-19.5"/>
<text text-anchor="middle" x="267" y="-26.5" font-family="Helvetica,sans-Serif" font-size="10.00">KNS_MAC_init</text>
</a>
</g>
</g>
<!-- Node2 -->
<g id="node2" class="node">
<title>Node2</title>
<g id="a_node2"><a xlink:href="../../dd/d41/group___k_n_s___a_p_p.html#ga255c1dfa836e65189f22594678e9f616" target="_top" xlink:title="Init function needed for the application SW running in front of the GUI.">
<polygon fill="white" stroke="black" points="81.5,-38.5 81.5,-57.5 183.5,-57.5 183.5,-38.5 81.5,-38.5"/>
<text text-anchor="middle" x="132.5" y="-45.5" font-family="Helvetica,sans-Serif" font-size="10.00">KNS_APP_gui_init</text>
</a>
</g>
</g>
<!-- Node1&#45;&gt;Node2 -->
<g id="edge1" class="edge">
<title>Node1&#45;&gt;Node2</title>
<path fill="none" stroke="midnightblue" d="M213.64,-36.51C203.78,-37.92 193.5,-39.4 183.72,-40.8"/>
<polygon fill="midnightblue" stroke="midnightblue" points="214.31,-39.95 223.71,-35.06 213.32,-33.02 214.31,-39.95"/>
</g>
<!-- Node4 -->
<g id="node4" class="node">
<title>Node4</title>
<g id="a_node4"><a xlink:href="../../dd/d41/group___k_n_s___a_p_p.html#ga7f6fc13a3df7e1c584e0afc7f85c2a1b" target="_top" xlink:title="At end of standalone APP test, generate TEST status.">
<polygon fill="white" stroke="black" points="77,-0.5 77,-19.5 188,-19.5 188,-0.5 77,-0.5"/>
<text text-anchor="middle" x="132.5" y="-7.5" font-family="Helvetica,sans-Serif" font-size="10.00">KNS_APP_stdln_init</text>
</a>
</g>
</g>
<!-- Node1&#45;&gt;Node4 -->
<g id="edge3" class="edge">
<title>Node1&#45;&gt;Node4</title>
<path fill="none" stroke="midnightblue" d="M213.76,-21.51C205.45,-20.32 196.83,-19.08 188.46,-17.88"/>
<polygon fill="midnightblue" stroke="midnightblue" points="213.32,-24.98 223.71,-22.94 214.31,-18.05 213.32,-24.98"/>
</g>
<!-- Node3 -->
<g id="node3" class="node">
<title>Node3</title>
<g id="a_node3"><a xlink:href="../../d0/d29/main_8c.html#a840291bc02cba5474a4cb46a9b9566fe" target="_top" xlink:title="The application entry point.">
<polygon fill="white" stroke="black" points="0,-19.5 0,-38.5 41,-38.5 41,-19.5 0,-19.5"/>
<text text-anchor="middle" x="20.5" y="-26.5" font-family="Helvetica,sans-Serif" font-size="10.00">main</text>
</a>
</g>
</g>
<!-- Node2&#45;&gt;Node3 -->
<g id="edge2" class="edge">
<title>Node2&#45;&gt;Node3</title>
<path fill="none" stroke="midnightblue" d="M71.27,-37.6C60.34,-35.71 49.69,-33.87 41.07,-32.38"/>
<polygon fill="midnightblue" stroke="midnightblue" points="70.88,-41.08 81.33,-39.33 72.07,-34.18 70.88,-41.08"/>
</g>
<!-- Node4&#45;&gt;Node3 -->
<g id="edge4" class="edge">
<title>Node4&#45;&gt;Node3</title>
<path fill="none" stroke="midnightblue" d="M66.94,-21.15C57.54,-22.77 48.53,-24.33 41.05,-25.62"/>
<polygon fill="midnightblue" stroke="midnightblue" points="67.56,-24.6 76.82,-19.44 66.37,-17.7 67.56,-24.6"/>
</g>
</g>
</svg>
