<?xml version="1.0" encoding="UTF-8" standalone="no"?>
<!DOCTYPE svg PUBLIC "-//W3C//DTD SVG 1.1//EN"
 "http://www.w3.org/Graphics/SVG/1.1/DTD/svg11.dtd">
<!-- Generated by graphviz version 2.43.0 (0)
 -->
<!-- Title: Kineis/App/Managers/MGR_AT_CMD/Src/mgr_at_cmd_list_previpass.c Pages: 1 -->
<svg width="395pt" height="274pt"
 viewBox="0.00 0.00 394.50 274.00" xmlns="http://www.w3.org/2000/svg" xmlns:xlink="http://www.w3.org/1999/xlink">
<g id="graph0" class="graph" transform="scale(1 1) rotate(0) translate(4 270)">
<title>Kineis/App/Managers/MGR_AT_CMD/Src/mgr_at_cmd_list_previpass.c</title>
<polygon fill="white" stroke="transparent" points="-4,4 -4,-270 390.5,-270 390.5,4 -4,4"/>
<!-- Node1 -->
<g id="node1" class="node">
<title>Node1</title>
<g id="a_node1"><a xlink:title="subset of AT commands concerning satellite PASS predictions, usefull for Medium Acces">
<polygon fill="#bfbfbf" stroke="black" points="150,-224.5 150,-265.5 289,-265.5 289,-224.5 150,-224.5"/>
<text text-anchor="start" x="158" y="-253.5" font-family="Helvetica,sans-Serif" font-size="10.00">Kineis/App/Managers</text>
<text text-anchor="start" x="158" y="-242.5" font-family="Helvetica,sans-Serif" font-size="10.00">/MGR_AT_CMD/Src/mgr</text>
<text text-anchor="middle" x="219.5" y="-231.5" font-family="Helvetica,sans-Serif" font-size="10.00">_at_cmd_list_previpass.c</text>
</a>
</g>
</g>
<!-- Node2 -->
<g id="node2" class="node">
<title>Node2</title>
<g id="a_node2"><a xlink:title=" ">
<polygon fill="white" stroke="#bfbfbf" points="72.5,-168.5 72.5,-187.5 122.5,-187.5 122.5,-168.5 72.5,-168.5"/>
<text text-anchor="middle" x="97.5" y="-175.5" font-family="Helvetica,sans-Serif" font-size="10.00">stdio.h</text>
</a>
</g>
</g>
<!-- Node1&#45;&gt;Node2 -->
<g id="edge1" class="edge">
<title>Node1&#45;&gt;Node2</title>
<path fill="none" stroke="midnightblue" d="M182.9,-224.5C163.47,-214.15 140.1,-201.69 122.72,-192.43"/>
<polygon fill="midnightblue" stroke="midnightblue" points="124.21,-189.27 113.74,-187.65 120.92,-195.44 124.21,-189.27"/>
</g>
<!-- Node3 -->
<g id="node3" class="node">
<title>Node3</title>
<g id="a_node3"><a xlink:href="../../d4/d30/mcu__at__console_8h.html" target="_top" xlink:title="MCU wrapper for AT CMD console.">
<polygon fill="white" stroke="black" points="282.5,-56.5 282.5,-75.5 386.5,-75.5 386.5,-56.5 282.5,-56.5"/>
<text text-anchor="middle" x="334.5" y="-63.5" font-family="Helvetica,sans-Serif" font-size="10.00">mcu_at_console.h</text>
</a>
</g>
</g>
<!-- Node1&#45;&gt;Node3 -->
<g id="edge2" class="edge">
<title>Node1&#45;&gt;Node3</title>
<path fill="none" stroke="midnightblue" d="M264.75,-224.26C280.45,-215.32 296.79,-203.27 307.5,-188 329.37,-156.83 333.91,-110.96 334.62,-85.59"/>
<polygon fill="midnightblue" stroke="midnightblue" points="338.12,-85.54 334.73,-75.5 331.12,-85.46 338.12,-85.54"/>
</g>
<!-- Node6 -->
<g id="node6" class="node">
<title>Node6</title>
<g id="a_node6"><a xlink:href="../../da/da4/mgr__at__cmd__list__previpass_8h.html" target="_top" xlink:title="subset of AT commands concerning satellite PASS predictions, usefull for Medium Acces">
<polygon fill="white" stroke="black" points="140,-168.5 140,-187.5 299,-187.5 299,-168.5 140,-168.5"/>
<text text-anchor="middle" x="219.5" y="-175.5" font-family="Helvetica,sans-Serif" font-size="10.00">mgr_at_cmd_list_previpass.h</text>
</a>
</g>
</g>
<!-- Node1&#45;&gt;Node6 -->
<g id="edge5" class="edge">
<title>Node1&#45;&gt;Node6</title>
<path fill="none" stroke="midnightblue" d="M219.5,-224.5C219.5,-216.07 219.5,-206.24 219.5,-197.87"/>
<polygon fill="midnightblue" stroke="midnightblue" points="223,-197.65 219.5,-187.65 216,-197.65 223,-197.65"/>
</g>
<!-- Node4 -->
<g id="node4" class="node">
<title>Node4</title>
<g id="a_node4"><a xlink:title=" ">
<polygon fill="white" stroke="#bfbfbf" points="166.5,-0.5 166.5,-19.5 228.5,-19.5 228.5,-0.5 166.5,-0.5"/>
<text text-anchor="middle" x="197.5" y="-7.5" font-family="Helvetica,sans-Serif" font-size="10.00">stdbool.h</text>
</a>
</g>
</g>
<!-- Node3&#45;&gt;Node4 -->
<g id="edge3" class="edge">
<title>Node3&#45;&gt;Node4</title>
<path fill="none" stroke="midnightblue" d="M312.79,-56.44C290.15,-47.52 254.43,-33.44 228.75,-23.32"/>
<polygon fill="midnightblue" stroke="midnightblue" points="229.69,-19.93 219.11,-19.52 227.13,-26.44 229.69,-19.93"/>
</g>
<!-- Node5 -->
<g id="node5" class="node">
<title>Node5</title>
<g id="a_node5"><a xlink:title=" ">
<polygon fill="white" stroke="#bfbfbf" points="247,-0.5 247,-19.5 300,-19.5 300,-0.5 247,-0.5"/>
<text text-anchor="middle" x="273.5" y="-7.5" font-family="Helvetica,sans-Serif" font-size="10.00">stdint.h</text>
</a>
</g>
</g>
<!-- Node3&#45;&gt;Node5 -->
<g id="edge4" class="edge">
<title>Node3&#45;&gt;Node5</title>
<path fill="none" stroke="midnightblue" d="M324.7,-56.32C315.68,-48.34 302.09,-36.31 291.18,-26.65"/>
<polygon fill="midnightblue" stroke="midnightblue" points="293.29,-23.84 283.48,-19.83 288.65,-29.08 293.29,-23.84"/>
</g>
<!-- Node7 -->
<g id="node7" class="node">
<title>Node7</title>
<g id="a_node7"><a xlink:href="../../d5/d58/mgr__at__cmd__common_8h.html" target="_top" xlink:title="header file for common part of the AT cmd manager">
<polygon fill="white" stroke="black" points="149.5,-112.5 149.5,-131.5 283.5,-131.5 283.5,-112.5 149.5,-112.5"/>
<text text-anchor="middle" x="216.5" y="-119.5" font-family="Helvetica,sans-Serif" font-size="10.00">mgr_at_cmd_common.h</text>
</a>
</g>
</g>
<!-- Node6&#45;&gt;Node7 -->
<g id="edge6" class="edge">
<title>Node6&#45;&gt;Node7</title>
<path fill="none" stroke="midnightblue" d="M219,-168.08C218.61,-161.01 218.05,-150.86 217.55,-141.99"/>
<polygon fill="midnightblue" stroke="midnightblue" points="221.04,-141.54 216.99,-131.75 214.05,-141.93 221.04,-141.54"/>
</g>
<!-- Node7&#45;&gt;Node4 -->
<g id="edge8" class="edge">
<title>Node7&#45;&gt;Node4</title>
<path fill="none" stroke="midnightblue" d="M215.01,-112.37C211.94,-94.62 204.87,-53.67 200.71,-29.6"/>
<polygon fill="midnightblue" stroke="midnightblue" points="204.14,-28.85 198.98,-19.59 197.24,-30.04 204.14,-28.85"/>
</g>
<!-- Node7&#45;&gt;Node5 -->
<g id="edge7" class="edge">
<title>Node7&#45;&gt;Node5</title>
<path fill="none" stroke="midnightblue" d="M220.97,-112.37C230.3,-94.38 251.97,-52.55 264.37,-28.63"/>
<polygon fill="midnightblue" stroke="midnightblue" points="267.55,-30.08 269.05,-19.59 261.34,-26.86 267.55,-30.08"/>
</g>
<!-- Node8 -->
<g id="node8" class="node">
<title>Node8</title>
<g id="a_node8"><a xlink:href="../../df/d36/strutil__lib_8h.html" target="_top" xlink:title="small utilities to manipulate strings">
<polygon fill="white" stroke="black" points="0,-56.5 0,-75.5 71,-75.5 71,-56.5 0,-56.5"/>
<text text-anchor="middle" x="35.5" y="-63.5" font-family="Helvetica,sans-Serif" font-size="10.00">strutil_lib.h</text>
</a>
</g>
</g>
<!-- Node7&#45;&gt;Node8 -->
<g id="edge9" class="edge">
<title>Node7&#45;&gt;Node8</title>
<path fill="none" stroke="midnightblue" d="M187.82,-112.44C156.97,-103.24 107.77,-88.56 73.67,-78.39"/>
<polygon fill="midnightblue" stroke="midnightblue" points="74.63,-75.02 64.05,-75.52 72.63,-81.73 74.63,-75.02"/>
</g>
<!-- Node10 -->
<g id="node10" class="node">
<title>Node10</title>
<g id="a_node10"><a xlink:href="../../d9/dc4/kineis__sw__conf_8h.html" target="_top" xlink:title="Kineis stack SW configurations depending on platform used.">
<polygon fill="white" stroke="black" points="89,-56.5 89,-75.5 188,-75.5 188,-56.5 89,-56.5"/>
<text text-anchor="middle" x="138.5" y="-63.5" font-family="Helvetica,sans-Serif" font-size="10.00">kineis_sw_conf.h</text>
</a>
</g>
</g>
<!-- Node7&#45;&gt;Node10 -->
<g id="edge13" class="edge">
<title>Node7&#45;&gt;Node10</title>
<path fill="none" stroke="midnightblue" d="M203.97,-112.32C191.91,-103.98 173.47,-91.21 159.23,-81.35"/>
<polygon fill="midnightblue" stroke="midnightblue" points="161.22,-78.47 151,-75.65 157.23,-84.22 161.22,-78.47"/>
</g>
<!-- Node8&#45;&gt;Node4 -->
<g id="edge11" class="edge">
<title>Node8&#45;&gt;Node4</title>
<path fill="none" stroke="midnightblue" d="M61.17,-56.44C88.42,-47.36 131.68,-32.94 162.15,-22.78"/>
<polygon fill="midnightblue" stroke="midnightblue" points="163.57,-26 171.95,-19.52 161.36,-19.36 163.57,-26"/>
</g>
<!-- Node8&#45;&gt;Node5 -->
<g id="edge10" class="edge">
<title>Node8&#45;&gt;Node5</title>
<path fill="none" stroke="midnightblue" d="M71.32,-57.31C109.78,-48.99 172.91,-35.15 236.92,-20.09"/>
<polygon fill="midnightblue" stroke="midnightblue" points="237.85,-23.47 246.78,-17.76 236.25,-16.65 237.85,-23.47"/>
</g>
<!-- Node9 -->
<g id="node9" class="node">
<title>Node9</title>
<g id="a_node9"><a xlink:title=" ">
<polygon fill="white" stroke="#bfbfbf" points="9,-0.5 9,-19.5 62,-19.5 62,-0.5 9,-0.5"/>
<text text-anchor="middle" x="35.5" y="-7.5" font-family="Helvetica,sans-Serif" font-size="10.00">stdlib.h</text>
</a>
</g>
</g>
<!-- Node8&#45;&gt;Node9 -->
<g id="edge12" class="edge">
<title>Node8&#45;&gt;Node9</title>
<path fill="none" stroke="midnightblue" d="M35.5,-56.08C35.5,-49.01 35.5,-38.86 35.5,-29.99"/>
<polygon fill="midnightblue" stroke="midnightblue" points="39,-29.75 35.5,-19.75 32,-29.75 39,-29.75"/>
</g>
</g>
</svg>
