<?xml version="1.0" encoding="UTF-8" standalone="no"?>
<!DOCTYPE svg PUBLIC "-//W3C//DTD SVG 1.1//EN"
 "http://www.w3.org/Graphics/SVG/1.1/DTD/svg11.dtd">
<!-- Generated by graphviz version 2.43.0 (0)
 -->
<!-- Title: Kineis/Lib/kns_mac_prfl_cfg.h Pages: 1 -->
<svg width="259pt" height="240pt"
 viewBox="0.00 0.00 258.50 240.00" xmlns="http://www.w3.org/2000/svg" xmlns:xlink="http://www.w3.org/1999/xlink">
<g id="graph0" class="graph" transform="scale(1 1) rotate(0) translate(4 236)">
<title>Kineis/Lib/kns_mac_prfl_cfg.h</title>
<polygon fill="white" stroke="transparent" points="-4,4 -4,-236 254.5,-236 254.5,4 -4,4"/>
<!-- Node1 -->
<g id="node1" class="node">
<title>Node1</title>
<g id="a_node1"><a xlink:title="Header file describing the ser settings required to configure a MAC protocol.">
<polygon fill="#bfbfbf" stroke="black" points="94,-201.5 94,-231.5 204,-231.5 204,-201.5 94,-201.5"/>
<text text-anchor="start" x="102" y="-219.5" font-family="Helvetica,sans-Serif" font-size="10.00">Kineis/Lib/kns_mac</text>
<text text-anchor="middle" x="149" y="-208.5" font-family="Helvetica,sans-Serif" font-size="10.00">_prfl_cfg.h</text>
</a>
</g>
</g>
<!-- Node2 -->
<g id="node2" class="node">
<title>Node2</title>
<g id="a_node2"><a xlink:href="../../df/d64/kns__mac__evt_8h.html" target="_top" xlink:title=" ">
<polygon fill="white" stroke="black" points="53,-134.5 53,-164.5 163,-164.5 163,-134.5 53,-134.5"/>
<text text-anchor="start" x="61" y="-152.5" font-family="Helvetica,sans-Serif" font-size="10.00">Kineis/Lib/kns_mac</text>
<text text-anchor="middle" x="108" y="-141.5" font-family="Helvetica,sans-Serif" font-size="10.00">_evt.h</text>
</a>
</g>
</g>
<!-- Node1&#45;&gt;Node2 -->
<g id="edge1" class="edge">
<title>Node1&#45;&gt;Node2</title>
<path fill="none" stroke="midnightblue" d="M134.72,-192.87C128.79,-183.46 122.09,-172.83 116.88,-164.58"/>
<polygon fill="midnightblue" stroke="midnightblue" points="131.81,-194.81 140.1,-201.4 137.73,-191.07 131.81,-194.81"/>
</g>
<!-- Node5 -->
<g id="node5" class="node">
<title>Node5</title>
<g id="a_node5"><a xlink:href="../../d7/d1a/kns__mac_8h.html" target="_top" xlink:title="Main header file for MAC layer of Kineis stack.">
<polygon fill="white" stroke="black" points="131.5,-73 131.5,-92 250.5,-92 250.5,-73 131.5,-73"/>
<text text-anchor="middle" x="191" y="-80" font-family="Helvetica,sans-Serif" font-size="10.00">Kineis/Lib/kns_mac.h</text>
</a>
</g>
</g>
<!-- Node1&#45;&gt;Node5 -->
<g id="edge5" class="edge">
<title>Node1&#45;&gt;Node5</title>
<path fill="none" stroke="midnightblue" d="M160.85,-192.05C164.77,-183.66 168.92,-174.05 172,-165 180.8,-139.14 186.92,-107.31 189.55,-92.22"/>
<polygon fill="midnightblue" stroke="midnightblue" points="157.62,-190.7 156.42,-201.22 163.92,-193.74 157.62,-190.7"/>
</g>
<!-- Node3 -->
<g id="node3" class="node">
<title>Node3</title>
<g id="a_node3"><a xlink:href="../../d8/dd1/kns__q__conf_8h.html" target="_top" xlink:title="Configuration of queues used in kineis_sw.">
<polygon fill="white" stroke="black" points="4.5,-67.5 4.5,-97.5 113.5,-97.5 113.5,-67.5 4.5,-67.5"/>
<text text-anchor="start" x="12.5" y="-85.5" font-family="Helvetica,sans-Serif" font-size="10.00">Kineis/Extdep/Conf</text>
<text text-anchor="middle" x="59" y="-74.5" font-family="Helvetica,sans-Serif" font-size="10.00">/kns_q_conf.h</text>
</a>
</g>
</g>
<!-- Node2&#45;&gt;Node3 -->
<g id="edge2" class="edge">
<title>Node2&#45;&gt;Node3</title>
<path fill="none" stroke="midnightblue" d="M91.16,-126.16C84.01,-116.68 75.9,-105.92 69.61,-97.58"/>
<polygon fill="midnightblue" stroke="midnightblue" points="88.55,-128.52 97.37,-134.4 94.14,-124.3 88.55,-128.52"/>
</g>
<!-- Node2&#45;&gt;Node5 -->
<g id="edge4" class="edge">
<title>Node2&#45;&gt;Node5</title>
<path fill="none" stroke="midnightblue" d="M134.17,-128.01C149.58,-115.94 168.26,-101.3 179.9,-92.19"/>
<polygon fill="midnightblue" stroke="midnightblue" points="131.72,-125.47 126.01,-134.4 136.04,-130.99 131.72,-125.47"/>
</g>
<!-- Node4 -->
<g id="node4" class="node">
<title>Node4</title>
<g id="a_node4"><a xlink:href="../../d0/d84/kns__q_8h.html" target="_top" xlink:title="Configuration of queues used in kineis_swr.">
<polygon fill="white" stroke="black" points="0,-0.5 0,-30.5 118,-30.5 118,-0.5 0,-0.5"/>
<text text-anchor="start" x="8" y="-18.5" font-family="Helvetica,sans-Serif" font-size="10.00">Kineis/App/Kineis_os</text>
<text text-anchor="middle" x="59" y="-7.5" font-family="Helvetica,sans-Serif" font-size="10.00">/KNS_Q/Inc/kns_q.h</text>
</a>
</g>
</g>
<!-- Node3&#45;&gt;Node4 -->
<g id="edge3" class="edge">
<title>Node3&#45;&gt;Node4</title>
<path fill="none" stroke="midnightblue" d="M59,-57.11C59,-48.15 59,-38.32 59,-30.58"/>
<polygon fill="midnightblue" stroke="midnightblue" points="55.5,-57.4 59,-67.4 62.5,-57.4 55.5,-57.4"/>
</g>
</g>
</svg>
