<?xml version="1.0" encoding="UTF-8" standalone="no"?>
<!DOCTYPE svg PUBLIC "-//W3C//DTD SVG 1.1//EN"
 "http://www.w3.org/Graphics/SVG/1.1/DTD/svg11.dtd">
<!-- Generated by graphviz version 2.43.0 (0)
 -->
<!-- Title: Kineis/Lib/kns_srvc_common.h Pages: 1 -->
<svg width="126pt" height="173pt"
 viewBox="0.00 0.00 126.00 173.00" xmlns="http://www.w3.org/2000/svg" xmlns:xlink="http://www.w3.org/1999/xlink">
<g id="graph0" class="graph" transform="scale(1 1) rotate(0) translate(4 169)">
<title>Kineis/Lib/kns_srvc_common.h</title>
<polygon fill="white" stroke="transparent" points="-4,4 -4,-169 122,-169 122,4 -4,4"/>
<!-- Node1 -->
<g id="node1" class="node">
<title>Node1</title>
<g id="a_node1"><a xlink:title="Common part of Kinéis service layer.">
<polygon fill="#bfbfbf" stroke="black" points="4,-134.5 4,-164.5 114,-164.5 114,-134.5 4,-134.5"/>
<text text-anchor="start" x="12" y="-152.5" font-family="Helvetica,sans-Serif" font-size="10.00">Kineis/Lib/kns_srvc</text>
<text text-anchor="middle" x="59" y="-141.5" font-family="Helvetica,sans-Serif" font-size="10.00">_common.h</text>
</a>
</g>
</g>
<!-- Node2 -->
<g id="node2" class="node">
<title>Node2</title>
<g id="a_node2"><a xlink:href="../../d8/dd1/kns__q__conf_8h.html" target="_top" xlink:title="Configuration of queues used in kineis_sw.">
<polygon fill="white" stroke="black" points="4.5,-67.5 4.5,-97.5 113.5,-97.5 113.5,-67.5 4.5,-67.5"/>
<text text-anchor="start" x="12.5" y="-85.5" font-family="Helvetica,sans-Serif" font-size="10.00">Kineis/Extdep/Conf</text>
<text text-anchor="middle" x="59" y="-74.5" font-family="Helvetica,sans-Serif" font-size="10.00">/kns_q_conf.h</text>
</a>
</g>
</g>
<!-- Node1&#45;&gt;Node2 -->
<g id="edge1" class="edge">
<title>Node1&#45;&gt;Node2</title>
<path fill="none" stroke="midnightblue" d="M59,-124.11C59,-115.15 59,-105.32 59,-97.58"/>
<polygon fill="midnightblue" stroke="midnightblue" points="55.5,-124.4 59,-134.4 62.5,-124.4 55.5,-124.4"/>
</g>
<!-- Node3 -->
<g id="node3" class="node">
<title>Node3</title>
<g id="a_node3"><a xlink:href="../../d0/d84/kns__q_8h.html" target="_top" xlink:title="Configuration of queues used in kineis_swr.">
<polygon fill="white" stroke="black" points="0,-0.5 0,-30.5 118,-30.5 118,-0.5 0,-0.5"/>
<text text-anchor="start" x="8" y="-18.5" font-family="Helvetica,sans-Serif" font-size="10.00">Kineis/App/Kineis_os</text>
<text text-anchor="middle" x="59" y="-7.5" font-family="Helvetica,sans-Serif" font-size="10.00">/KNS_Q/Inc/kns_q.h</text>
</a>
</g>
</g>
<!-- Node2&#45;&gt;Node3 -->
<g id="edge2" class="edge">
<title>Node2&#45;&gt;Node3</title>
<path fill="none" stroke="midnightblue" d="M59,-57.11C59,-48.15 59,-38.32 59,-30.58"/>
<polygon fill="midnightblue" stroke="midnightblue" points="55.5,-57.4 59,-67.4 62.5,-57.4 55.5,-57.4"/>
</g>
</g>
</svg>
