<?xml version="1.0" encoding="UTF-8" standalone="no"?>
<!DOCTYPE svg PUBLIC "-//W3C//DTD SVG 1.1//EN"
 "http://www.w3.org/Graphics/SVG/1.1/DTD/svg11.dtd">
<!-- Generated by graphviz version 2.43.0 (0)
 -->
<!-- Title: Kineis/Lib/kns_mac.h Pages: 1 -->
<svg width="273pt" height="196pt"
 viewBox="0.00 0.00 272.50 196.00" xmlns="http://www.w3.org/2000/svg" xmlns:xlink="http://www.w3.org/1999/xlink">
<g id="graph0" class="graph" transform="scale(1 1) rotate(0) translate(4 192)">
<title>Kineis/Lib/kns_mac.h</title>
<polygon fill="white" stroke="transparent" points="-4,4 -4,-192 268.5,-192 268.5,4 -4,4"/>
<!-- Node1 -->
<g id="node1" class="node">
<title>Node1</title>
<g id="a_node1"><a xlink:title="Main header file for MAC layer of Kineis stack.">
<polygon fill="#bfbfbf" stroke="black" points="89.5,-168.5 89.5,-187.5 208.5,-187.5 208.5,-168.5 89.5,-168.5"/>
<text text-anchor="middle" x="149" y="-175.5" font-family="Helvetica,sans-Serif" font-size="10.00">Kineis/Lib/kns_mac.h</text>
</a>
</g>
</g>
<!-- Node2 -->
<g id="node2" class="node">
<title>Node2</title>
<g id="a_node2"><a xlink:href="../../df/d64/kns__mac__evt_8h.html" target="_top" xlink:title=" ">
<polygon fill="white" stroke="black" points="45,-112.5 45,-131.5 135,-131.5 135,-112.5 45,-112.5"/>
<text text-anchor="middle" x="90" y="-119.5" font-family="Helvetica,sans-Serif" font-size="10.00">kns_mac_evt.h</text>
</a>
</g>
</g>
<!-- Node1&#45;&gt;Node2 -->
<g id="edge1" class="edge">
<title>Node1&#45;&gt;Node2</title>
<path fill="none" stroke="midnightblue" d="M139.52,-168.32C130.8,-160.34 117.66,-148.31 107.1,-138.65"/>
<polygon fill="midnightblue" stroke="midnightblue" points="109.39,-136 99.65,-131.83 104.67,-141.17 109.39,-136"/>
</g>
<!-- Node6 -->
<g id="node6" class="node">
<title>Node6</title>
<g id="a_node6"><a xlink:href="../../d8/d4a/kns__mac__prfl__cfg_8h.html" target="_top" xlink:title="Header file describing the ser settings required to configure a MAC protocol.">
<polygon fill="white" stroke="black" points="153.5,-112.5 153.5,-131.5 264.5,-131.5 264.5,-112.5 153.5,-112.5"/>
<text text-anchor="middle" x="209" y="-119.5" font-family="Helvetica,sans-Serif" font-size="10.00">kns_mac_prfl_cfg.h</text>
</a>
</g>
</g>
<!-- Node1&#45;&gt;Node6 -->
<g id="edge6" class="edge">
<title>Node1&#45;&gt;Node6</title>
<path fill="none" stroke="midnightblue" d="M158.64,-168.32C167.51,-160.34 180.87,-148.31 191.61,-138.65"/>
<polygon fill="midnightblue" stroke="midnightblue" points="194.09,-141.13 199.18,-131.83 189.41,-135.92 194.09,-141.13"/>
</g>
<!-- Node3 -->
<g id="node3" class="node">
<title>Node3</title>
<g id="a_node3"><a xlink:title=" ">
<polygon fill="white" stroke="#bfbfbf" points="0,-56.5 0,-75.5 62,-75.5 62,-56.5 0,-56.5"/>
<text text-anchor="middle" x="31" y="-63.5" font-family="Helvetica,sans-Serif" font-size="10.00">stdbool.h</text>
</a>
</g>
</g>
<!-- Node2&#45;&gt;Node3 -->
<g id="edge2" class="edge">
<title>Node2&#45;&gt;Node3</title>
<path fill="none" stroke="midnightblue" d="M80.52,-112.32C71.8,-104.34 58.66,-92.31 48.1,-82.65"/>
<polygon fill="midnightblue" stroke="midnightblue" points="50.39,-80 40.65,-75.83 45.67,-85.17 50.39,-80"/>
</g>
<!-- Node4 -->
<g id="node4" class="node">
<title>Node4</title>
<g id="a_node4"><a xlink:title=" ">
<polygon fill="white" stroke="#bfbfbf" points="129.5,-0.5 129.5,-19.5 182.5,-19.5 182.5,-0.5 129.5,-0.5"/>
<text text-anchor="middle" x="156" y="-7.5" font-family="Helvetica,sans-Serif" font-size="10.00">stdint.h</text>
</a>
</g>
</g>
<!-- Node2&#45;&gt;Node4 -->
<g id="edge3" class="edge">
<title>Node2&#45;&gt;Node4</title>
<path fill="none" stroke="midnightblue" d="M91.06,-112.43C92.98,-99.43 97.89,-74.29 109,-56 115.98,-44.5 126.64,-33.96 136.05,-25.97"/>
<polygon fill="midnightblue" stroke="midnightblue" points="138.29,-28.67 143.86,-19.66 133.89,-23.22 138.29,-28.67"/>
</g>
<!-- Node5 -->
<g id="node5" class="node">
<title>Node5</title>
<g id="a_node5"><a xlink:href="../../d8/d85/kns__types_8h.html" target="_top" xlink:title="Kineis types definition.">
<polygon fill="white" stroke="black" points="118.5,-56.5 118.5,-75.5 193.5,-75.5 193.5,-56.5 118.5,-56.5"/>
<text text-anchor="middle" x="156" y="-63.5" font-family="Helvetica,sans-Serif" font-size="10.00">kns_types.h</text>
</a>
</g>
</g>
<!-- Node2&#45;&gt;Node5 -->
<g id="edge4" class="edge">
<title>Node2&#45;&gt;Node5</title>
<path fill="none" stroke="midnightblue" d="M100.6,-112.32C110.46,-104.26 125.35,-92.08 137.22,-82.37"/>
<polygon fill="midnightblue" stroke="midnightblue" points="139.68,-84.88 145.2,-75.83 135.25,-79.46 139.68,-84.88"/>
</g>
<!-- Node5&#45;&gt;Node4 -->
<g id="edge5" class="edge">
<title>Node5&#45;&gt;Node4</title>
<path fill="none" stroke="midnightblue" d="M156,-56.08C156,-49.01 156,-38.86 156,-29.99"/>
<polygon fill="midnightblue" stroke="midnightblue" points="159.5,-29.75 156,-19.75 152.5,-29.75 159.5,-29.75"/>
</g>
<!-- Node6&#45;&gt;Node4 -->
<g id="edge7" class="edge">
<title>Node6&#45;&gt;Node4</title>
<path fill="none" stroke="midnightblue" d="M209.87,-112.07C210.76,-99.05 210.92,-74.38 202,-56 196.32,-44.3 186.3,-33.94 177.06,-26.12"/>
<polygon fill="midnightblue" stroke="midnightblue" points="178.95,-23.15 168.94,-19.68 174.6,-28.64 178.95,-23.15"/>
</g>
<!-- Node6&#45;&gt;Node5 -->
<g id="edge8" class="edge">
<title>Node6&#45;&gt;Node5</title>
<path fill="none" stroke="midnightblue" d="M200.25,-112.08C192.53,-104.22 181.1,-92.57 171.78,-83.08"/>
<polygon fill="midnightblue" stroke="midnightblue" points="174.09,-80.44 164.59,-75.75 169.1,-85.34 174.09,-80.44"/>
</g>
</g>
</svg>
