<?xml version="1.0" encoding="UTF-8" standalone="no"?>
<!DOCTYPE svg PUBLIC "-//W3C//DTD SVG 1.1//EN"
 "http://www.w3.org/Graphics/SVG/1.1/DTD/svg11.dtd">
<!-- Generated by graphviz version 2.43.0 (0)
 -->
<!-- Title: KNS_CFG_getRadioInfo Pages: 1 -->
<svg width="409pt" height="66pt"
 viewBox="0.00 0.00 409.00 66.00" xmlns="http://www.w3.org/2000/svg" xmlns:xlink="http://www.w3.org/1999/xlink">
<g id="graph0" class="graph" transform="scale(1 1) rotate(0) translate(4 62)">
<title>KNS_CFG_getRadioInfo</title>
<polygon fill="white" stroke="transparent" points="-4,4 -4,-62 405,-62 405,4 -4,4"/>
<!-- Node1 -->
<g id="node1" class="node">
<title>Node1</title>
<g id="a_node1"><a xlink:title="Get the Kineis radio configuration.">
<polygon fill="#bfbfbf" stroke="black" points="271,-19.5 271,-38.5 401,-38.5 401,-19.5 271,-19.5"/>
<text text-anchor="middle" x="336" y="-26.5" font-family="Helvetica,sans-Serif" font-size="10.00">KNS_CFG_getRadioInfo</text>
</a>
</g>
</g>
<!-- Node2 -->
<g id="node2" class="node">
<title>Node2</title>
<g id="a_node2"><a xlink:href="../../d0/d0f/group___m_g_r___a_t___c_m_d.html#gaf2dc4b8c03924fc01641182032c31ba5" target="_top" xlink:title=" ">
<polygon fill="white" stroke="black" points="77,-38.5 77,-57.5 235,-57.5 235,-38.5 77,-38.5"/>
<text text-anchor="middle" x="156" y="-45.5" font-family="Helvetica,sans-Serif" font-size="10.00">bMGR_AT_CMD_RCONF_cmd</text>
</a>
</g>
</g>
<!-- Node1&#45;&gt;Node2 -->
<g id="edge1" class="edge">
<title>Node1&#45;&gt;Node2</title>
<path fill="none" stroke="midnightblue" d="M261.02,-36.9C252.44,-37.81 243.67,-38.75 235.03,-39.67"/>
<polygon fill="midnightblue" stroke="midnightblue" points="261.42,-40.37 270.99,-35.83 260.67,-33.41 261.42,-40.37"/>
</g>
<!-- Node3 -->
<g id="node3" class="node">
<title>Node3</title>
<g id="a_node3"><a xlink:href="../../dd/d41/group___k_n_s___a_p_p.html#ga7dcd894e8e120e17325f7801d136d938" target="_top" xlink:title="This fct is a very basic standalone application.">
<polygon fill="white" stroke="black" points="98,-0.5 98,-19.5 214,-19.5 214,-0.5 98,-0.5"/>
<text text-anchor="middle" x="156" y="-7.5" font-family="Helvetica,sans-Serif" font-size="10.00">KNS_APP_stdln_loop</text>
</a>
</g>
</g>
<!-- Node1&#45;&gt;Node3 -->
<g id="edge2" class="edge">
<title>Node1&#45;&gt;Node3</title>
<path fill="none" stroke="midnightblue" d="M260.86,-21.09C245.29,-19.42 229.09,-17.69 214.24,-16.11"/>
<polygon fill="midnightblue" stroke="midnightblue" points="260.67,-24.59 270.99,-22.17 261.42,-17.63 260.67,-24.59"/>
</g>
<!-- Node4 -->
<g id="node4" class="node">
<title>Node4</title>
<g id="a_node4"><a xlink:href="../../d0/d29/main_8c.html#a840291bc02cba5474a4cb46a9b9566fe" target="_top" xlink:title="The application entry point.">
<polygon fill="white" stroke="black" points="0,-0.5 0,-19.5 41,-19.5 41,-0.5 0,-0.5"/>
<text text-anchor="middle" x="20.5" y="-7.5" font-family="Helvetica,sans-Serif" font-size="10.00">main</text>
</a>
</g>
</g>
<!-- Node3&#45;&gt;Node4 -->
<g id="edge3" class="edge">
<title>Node3&#45;&gt;Node4</title>
<path fill="none" stroke="midnightblue" d="M87.96,-10C70.85,-10 53.77,-10 41.21,-10"/>
<polygon fill="midnightblue" stroke="midnightblue" points="88,-13.5 98,-10 88,-6.5 88,-13.5"/>
</g>
</g>
</svg>
