<?xml version="1.0" encoding="UTF-8" standalone="no"?>
<!DOCTYPE svg PUBLIC "-//W3C//DTD SVG 1.1//EN"
 "http://www.w3.org/Graphics/SVG/1.1/DTD/svg11.dtd">
<!-- Generated by graphviz version 2.43.0 (0)
 -->
<!-- Title: Kineis/Lib/kns_mac_prfl_cfg.h Pages: 1 -->
<svg width="674pt" height="173pt"
 viewBox="0.00 0.00 673.50 173.00" xmlns="http://www.w3.org/2000/svg" xmlns:xlink="http://www.w3.org/1999/xlink">
<g id="graph0" class="graph" transform="scale(1 1) rotate(0) translate(4 169)">
<title>Kineis/Lib/kns_mac_prfl_cfg.h</title>
<polygon fill="white" stroke="transparent" points="-4,4 -4,-169 669.5,-169 669.5,4 -4,4"/>
<!-- Node1 -->
<g id="node1" class="node">
<title>Node1</title>
<g id="a_node1"><a xlink:title="Header file describing the ser settings required to configure a MAC protocol.">
<polygon fill="#bfbfbf" stroke="black" points="259.5,-134.5 259.5,-164.5 369.5,-164.5 369.5,-134.5 259.5,-134.5"/>
<text text-anchor="start" x="267.5" y="-152.5" font-family="Helvetica,sans-Serif" font-size="10.00">Kineis/Lib/kns_mac</text>
<text text-anchor="middle" x="314.5" y="-141.5" font-family="Helvetica,sans-Serif" font-size="10.00">_prfl_cfg.h</text>
</a>
</g>
</g>
<!-- Node2 -->
<g id="node2" class="node">
<title>Node2</title>
<g id="a_node2"><a xlink:href="../../d7/d1a/kns__mac_8h.html" target="_top" xlink:title="Main header file for MAC layer of Kineis stack.">
<polygon fill="white" stroke="black" points="255,-78.5 255,-97.5 374,-97.5 374,-78.5 255,-78.5"/>
<text text-anchor="middle" x="314.5" y="-85.5" font-family="Helvetica,sans-Serif" font-size="10.00">Kineis/Lib/kns_mac.h</text>
</a>
</g>
</g>
<!-- Node1&#45;&gt;Node2 -->
<g id="edge1" class="edge">
<title>Node1&#45;&gt;Node2</title>
<path fill="none" stroke="midnightblue" d="M314.5,-124.29C314.5,-114.86 314.5,-104.65 314.5,-97.66"/>
<polygon fill="midnightblue" stroke="midnightblue" points="311,-124.4 314.5,-134.4 318,-124.4 311,-124.4"/>
</g>
<!-- Node3 -->
<g id="node3" class="node">
<title>Node3</title>
<g id="a_node3"><a xlink:href="../../d0/d29/main_8c.html" target="_top" xlink:title=": Main program body">
<polygon fill="white" stroke="black" points="0,-11.5 0,-30.5 93,-30.5 93,-11.5 0,-11.5"/>
<text text-anchor="middle" x="46.5" y="-18.5" font-family="Helvetica,sans-Serif" font-size="10.00">Core/Src/main.c</text>
</a>
</g>
</g>
<!-- Node2&#45;&gt;Node3 -->
<g id="edge2" class="edge">
<title>Node2&#45;&gt;Node3</title>
<path fill="none" stroke="midnightblue" d="M255.24,-76.62C212.44,-68.6 153.44,-56.43 102.5,-42 91.08,-38.76 78.62,-34.4 68.36,-30.57"/>
<polygon fill="midnightblue" stroke="midnightblue" points="254.74,-80.09 265.21,-78.47 256.01,-73.21 254.74,-80.09"/>
</g>
<!-- Node4 -->
<g id="node4" class="node">
<title>Node4</title>
<g id="a_node4"><a xlink:href="../../d4/d0d/kns__app_8c.html" target="_top" xlink:title=" ">
<polygon fill="white" stroke="black" points="111.5,-11.5 111.5,-30.5 231.5,-30.5 231.5,-11.5 111.5,-11.5"/>
<text text-anchor="middle" x="171.5" y="-18.5" font-family="Helvetica,sans-Serif" font-size="10.00">Kineis/App/kns_app.c</text>
</a>
</g>
</g>
<!-- Node2&#45;&gt;Node4 -->
<g id="edge3" class="edge">
<title>Node2&#45;&gt;Node4</title>
<path fill="none" stroke="midnightblue" d="M286.15,-74.11C257.83,-61.24 215.07,-41.81 190.57,-30.67"/>
<polygon fill="midnightblue" stroke="midnightblue" points="284.96,-77.42 295.51,-78.37 287.86,-71.04 284.96,-77.42"/>
</g>
<!-- Node5 -->
<g id="node5" class="node">
<title>Node5</title>
<g id="a_node5"><a xlink:href="../../d5/dd7/mgr__at__cmd__common_8c.html" target="_top" xlink:title="common part of the AT cmd manager (logging, AT cmd response api)">
<polygon fill="white" stroke="black" points="249.5,-0.5 249.5,-41.5 379.5,-41.5 379.5,-0.5 249.5,-0.5"/>
<text text-anchor="start" x="257.5" y="-29.5" font-family="Helvetica,sans-Serif" font-size="10.00">Kineis/App/Managers</text>
<text text-anchor="start" x="257.5" y="-18.5" font-family="Helvetica,sans-Serif" font-size="10.00">/MGR_AT_CMD/Src/mgr</text>
<text text-anchor="middle" x="314.5" y="-7.5" font-family="Helvetica,sans-Serif" font-size="10.00">_at_cmd_common.c</text>
</a>
</g>
</g>
<!-- Node2&#45;&gt;Node5 -->
<g id="edge4" class="edge">
<title>Node2&#45;&gt;Node5</title>
<path fill="none" stroke="midnightblue" d="M314.5,-68.04C314.5,-59.71 314.5,-49.94 314.5,-41.54"/>
<polygon fill="midnightblue" stroke="midnightblue" points="311,-68.23 314.5,-78.23 318,-68.23 311,-68.23"/>
</g>
<!-- Node6 -->
<g id="node6" class="node">
<title>Node6</title>
<g id="a_node6"><a xlink:href="../../d8/d11/mgr__at__cmd__list__user__data_8c.html" target="_top" xlink:title="subset of AT commands concerning user data manipulation such as TX">
<polygon fill="white" stroke="black" points="397.5,-0.5 397.5,-41.5 537.5,-41.5 537.5,-0.5 397.5,-0.5"/>
<text text-anchor="start" x="405.5" y="-29.5" font-family="Helvetica,sans-Serif" font-size="10.00">Kineis/App/Managers</text>
<text text-anchor="start" x="405.5" y="-18.5" font-family="Helvetica,sans-Serif" font-size="10.00">/MGR_AT_CMD/Src/mgr</text>
<text text-anchor="middle" x="467.5" y="-7.5" font-family="Helvetica,sans-Serif" font-size="10.00">_at_cmd_list_user_data.c</text>
</a>
</g>
</g>
<!-- Node2&#45;&gt;Node6 -->
<g id="edge5" class="edge">
<title>Node2&#45;&gt;Node6</title>
<path fill="none" stroke="midnightblue" d="M344.24,-74.36C366.13,-65.07 396.29,-52.25 421.3,-41.63"/>
<polygon fill="midnightblue" stroke="midnightblue" points="342.65,-71.24 334.82,-78.37 345.39,-77.68 342.65,-71.24"/>
</g>
<!-- Node7 -->
<g id="node7" class="node">
<title>Node7</title>
<g id="a_node7"><a xlink:href="../../df/d53/lpm__cli__kstk_8c.html" target="_top" xlink:title="Kineis stack&#39;s LPM client. It is implementing APIs needed to interface with the low power manager (MG...">
<polygon fill="white" stroke="black" points="555.5,-6 555.5,-36 665.5,-36 665.5,-6 555.5,-6"/>
<text text-anchor="start" x="563.5" y="-24" font-family="Helvetica,sans-Serif" font-size="10.00">Kineis/Lpm/Src/lpm</text>
<text text-anchor="middle" x="610.5" y="-13" font-family="Helvetica,sans-Serif" font-size="10.00">_cli_kstk.c</text>
</a>
</g>
</g>
<!-- Node2&#45;&gt;Node7 -->
<g id="edge6" class="edge">
<title>Node2&#45;&gt;Node7</title>
<path fill="none" stroke="midnightblue" d="M377.4,-76.75C424.31,-68.64 489.8,-56.31 546.5,-42 553.5,-40.23 560.86,-38.15 568,-36.01"/>
<polygon fill="midnightblue" stroke="midnightblue" points="376.65,-73.33 367.39,-78.47 377.84,-80.23 376.65,-73.33"/>
</g>
</g>
</svg>
