<?xml version="1.0" encoding="UTF-8" standalone="no"?>
<!DOCTYPE svg PUBLIC "-//W3C//DTD SVG 1.1//EN"
 "http://www.w3.org/Graphics/SVG/1.1/DTD/svg11.dtd">
<!-- Generated by graphviz version 2.43.0 (0)
 -->
<!-- Title: Kineis/Lib/kns_mac_prfl_cfg.h Pages: 1 -->
<svg width="1622pt" height="385pt"
 viewBox="0.00 0.00 1621.50 385.00" xmlns="http://www.w3.org/2000/svg" xmlns:xlink="http://www.w3.org/1999/xlink">
<g id="graph0" class="graph" transform="scale(1 1) rotate(0) translate(4 381)">
<title>Kineis/Lib/kns_mac_prfl_cfg.h</title>
<polygon fill="white" stroke="transparent" points="-4,4 -4,-381 1617.5,-381 1617.5,4 -4,4"/>
<!-- Node1 -->
<g id="node1" class="node">
<title>Node1</title>
<g id="a_node1"><a xlink:title="Header file describing the ser settings required to configure a MAC protocol.">
<polygon fill="#bfbfbf" stroke="black" points="467,-346.5 467,-376.5 577,-376.5 577,-346.5 467,-346.5"/>
<text text-anchor="start" x="475" y="-364.5" font-family="Helvetica,sans-Serif" font-size="10.00">Kineis/Lib/kns_mac</text>
<text text-anchor="middle" x="522" y="-353.5" font-family="Helvetica,sans-Serif" font-size="10.00">_prfl_cfg.h</text>
</a>
</g>
</g>
<!-- Node2 -->
<g id="node2" class="node">
<title>Node2</title>
<g id="a_node2"><a xlink:href="../../df/d64/kns__mac__evt_8h.html" target="_top" xlink:title=" ">
<polygon fill="white" stroke="black" points="509,-279.5 509,-309.5 619,-309.5 619,-279.5 509,-279.5"/>
<text text-anchor="start" x="517" y="-297.5" font-family="Helvetica,sans-Serif" font-size="10.00">Kineis/Lib/kns_mac</text>
<text text-anchor="middle" x="564" y="-286.5" font-family="Helvetica,sans-Serif" font-size="10.00">_evt.h</text>
</a>
</g>
</g>
<!-- Node1&#45;&gt;Node2 -->
<g id="edge1" class="edge">
<title>Node1&#45;&gt;Node2</title>
<path fill="none" stroke="midnightblue" d="M536.62,-337.87C542.7,-328.46 549.57,-317.83 554.9,-309.58"/>
<polygon fill="midnightblue" stroke="midnightblue" points="533.6,-336.1 531.11,-346.4 539.48,-339.9 533.6,-336.1"/>
</g>
<!-- Node15 -->
<g id="node15" class="node">
<title>Node15</title>
<g id="a_node15"><a xlink:href="../../d7/d1a/kns__mac_8h.html" target="_top" xlink:title="Main header file for MAC layer of Kineis stack.">
<polygon fill="white" stroke="black" points="421.5,-151 421.5,-170 540.5,-170 540.5,-151 421.5,-151"/>
<text text-anchor="middle" x="481" y="-158" font-family="Helvetica,sans-Serif" font-size="10.00">Kineis/Lib/kns_mac.h</text>
</a>
</g>
</g>
<!-- Node1&#45;&gt;Node15 -->
<g id="edge25" class="edge">
<title>Node1&#45;&gt;Node15</title>
<path fill="none" stroke="midnightblue" d="M510.19,-337.16C506.39,-328.78 502.52,-319.14 500,-310 485.7,-258.13 482.1,-193.05 481.25,-170.04"/>
<polygon fill="midnightblue" stroke="midnightblue" points="507.08,-338.77 514.52,-346.31 513.4,-335.78 507.08,-338.77"/>
</g>
<!-- Node3 -->
<g id="node3" class="node">
<title>Node3</title>
<g id="a_node3"><a xlink:href="../../d8/dd1/kns__q__conf_8h.html" target="_top" xlink:title="Configuration of queues used in kineis_sw.">
<polygon fill="white" stroke="black" points="1082.5,-212.5 1082.5,-242.5 1191.5,-242.5 1191.5,-212.5 1082.5,-212.5"/>
<text text-anchor="start" x="1090.5" y="-230.5" font-family="Helvetica,sans-Serif" font-size="10.00">Kineis/Extdep/Conf</text>
<text text-anchor="middle" x="1137" y="-219.5" font-family="Helvetica,sans-Serif" font-size="10.00">/kns_q_conf.h</text>
</a>
</g>
</g>
<!-- Node2&#45;&gt;Node3 -->
<g id="edge2" class="edge">
<title>Node2&#45;&gt;Node3</title>
<path fill="none" stroke="midnightblue" d="M629.18,-286.11C743.06,-273.19 976.22,-246.74 1082.29,-234.71"/>
<polygon fill="midnightblue" stroke="midnightblue" points="628.74,-282.63 619.2,-287.24 629.53,-289.59 628.74,-282.63"/>
</g>
<!-- Node2&#45;&gt;Node15 -->
<g id="edge18" class="edge">
<title>Node2&#45;&gt;Node15</title>
<path fill="none" stroke="midnightblue" d="M549.77,-270.87C531.06,-241.12 499.08,-190.26 486.41,-170.1"/>
<polygon fill="midnightblue" stroke="midnightblue" points="546.83,-272.77 555.12,-279.37 552.76,-269.05 546.83,-272.77"/>
</g>
<!-- Node4 -->
<g id="node4" class="node">
<title>Node4</title>
<g id="a_node4"><a xlink:href="../../d0/d84/kns__q_8h.html" target="_top" xlink:title="Configuration of queues used in kineis_swr.">
<polygon fill="white" stroke="black" points="864,-145.5 864,-175.5 982,-175.5 982,-145.5 864,-145.5"/>
<text text-anchor="start" x="872" y="-163.5" font-family="Helvetica,sans-Serif" font-size="10.00">Kineis/App/Kineis_os</text>
<text text-anchor="middle" x="923" y="-152.5" font-family="Helvetica,sans-Serif" font-size="10.00">/KNS_Q/Inc/kns_q.h</text>
</a>
</g>
</g>
<!-- Node3&#45;&gt;Node4 -->
<g id="edge3" class="edge">
<title>Node3&#45;&gt;Node4</title>
<path fill="none" stroke="midnightblue" d="M1080.85,-209.44C1046.16,-198.91 1002.18,-185.55 969.46,-175.61"/>
<polygon fill="midnightblue" stroke="midnightblue" points="1080.24,-212.92 1090.83,-212.48 1082.28,-206.22 1080.24,-212.92"/>
</g>
<!-- Node6 -->
<g id="node6" class="node">
<title>Node6</title>
<g id="a_node6"><a xlink:href="../../d0/d08/kns__q__baremetal_8c.html" target="_top" xlink:title="Configuration of queues used in kineis_swr.">
<polygon fill="white" stroke="black" points="962,-73 962,-103 1128,-103 1128,-73 962,-73"/>
<text text-anchor="start" x="970" y="-91" font-family="Helvetica,sans-Serif" font-size="10.00">Kineis/App/Kineis_os</text>
<text text-anchor="middle" x="1045" y="-80" font-family="Helvetica,sans-Serif" font-size="10.00">/KNS_Q/Src/kns_q_baremetal.c</text>
</a>
</g>
</g>
<!-- Node3&#45;&gt;Node6 -->
<g id="edge14" class="edge">
<title>Node3&#45;&gt;Node6</title>
<path fill="none" stroke="midnightblue" d="M1121.8,-203.79C1102.72,-175.26 1070.55,-127.19 1054.59,-103.33"/>
<polygon fill="midnightblue" stroke="midnightblue" points="1119.03,-205.94 1127.5,-212.3 1124.85,-202.05 1119.03,-205.94"/>
</g>
<!-- Node8 -->
<g id="node8" class="node">
<title>Node8</title>
<g id="a_node8"><a xlink:href="../../d5/d11/kns__q__cmsis__os2_8c.html" target="_top" xlink:title=" ">
<polygon fill="white" stroke="black" points="1146.5,-73 1146.5,-103 1313.5,-103 1313.5,-73 1146.5,-73"/>
<text text-anchor="start" x="1154.5" y="-91" font-family="Helvetica,sans-Serif" font-size="10.00">Kineis/App/Kineis_os</text>
<text text-anchor="middle" x="1230" y="-80" font-family="Helvetica,sans-Serif" font-size="10.00">/KNS_Q/Src/kns_q_cmsis_os2.c</text>
</a>
</g>
</g>
<!-- Node3&#45;&gt;Node8 -->
<g id="edge15" class="edge">
<title>Node3&#45;&gt;Node8</title>
<path fill="none" stroke="midnightblue" d="M1152.36,-203.79C1171.65,-175.26 1204.17,-127.19 1220.31,-103.33"/>
<polygon fill="midnightblue" stroke="midnightblue" points="1149.31,-202.06 1146.6,-212.3 1155.1,-205.98 1149.31,-202.06"/>
</g>
<!-- Node9 -->
<g id="node9" class="node">
<title>Node9</title>
<g id="a_node9"><a xlink:href="../../d2/d9c/kns__q__freertos_8c.html" target="_top" xlink:title="Configuration of queues used in kineis_swr.">
<polygon fill="white" stroke="black" points="1332,-73 1332,-103 1486,-103 1486,-73 1332,-73"/>
<text text-anchor="start" x="1340" y="-91" font-family="Helvetica,sans-Serif" font-size="10.00">Kineis/App/Kineis_os</text>
<text text-anchor="middle" x="1409" y="-80" font-family="Helvetica,sans-Serif" font-size="10.00">/KNS_Q/Src/kns_q_freertos.c</text>
</a>
</g>
</g>
<!-- Node3&#45;&gt;Node9 -->
<g id="edge16" class="edge">
<title>Node3&#45;&gt;Node9</title>
<path fill="none" stroke="midnightblue" d="M1173.9,-207.85C1229.01,-179.99 1331.61,-128.12 1381.01,-103.15"/>
<polygon fill="midnightblue" stroke="midnightblue" points="1172.18,-204.8 1164.83,-212.43 1175.33,-211.04 1172.18,-204.8"/>
</g>
<!-- Node13 -->
<g id="node13" class="node">
<title>Node13</title>
<g id="a_node13"><a xlink:href="../../d2/dae/kns__q__conf_8c.html" target="_top" xlink:title="Configuration of queues used in kineis_swr.">
<polygon fill="white" stroke="black" points="1504.5,-73 1504.5,-103 1613.5,-103 1613.5,-73 1504.5,-73"/>
<text text-anchor="start" x="1512.5" y="-91" font-family="Helvetica,sans-Serif" font-size="10.00">Kineis/Extdep/Conf</text>
<text text-anchor="middle" x="1559" y="-80" font-family="Helvetica,sans-Serif" font-size="10.00">/kns_q_conf.c</text>
</a>
</g>
</g>
<!-- Node3&#45;&gt;Node13 -->
<g id="edge17" class="edge">
<title>Node3&#45;&gt;Node13</title>
<path fill="none" stroke="midnightblue" d="M1189.82,-209.29C1274.26,-181.78 1438.03,-128.42 1515.88,-103.05"/>
<polygon fill="midnightblue" stroke="midnightblue" points="1188.6,-206.01 1180.18,-212.43 1190.77,-212.66 1188.6,-206.01"/>
</g>
<!-- Node5 -->
<g id="node5" class="node">
<title>Node5</title>
<g id="a_node5"><a xlink:href="../../d0/d29/main_8c.html" target="_top" xlink:title=": Main program body">
<polygon fill="white" stroke="black" points="434.5,-78.5 434.5,-97.5 527.5,-97.5 527.5,-78.5 434.5,-78.5"/>
<text text-anchor="middle" x="481" y="-85.5" font-family="Helvetica,sans-Serif" font-size="10.00">Core/Src/main.c</text>
</a>
</g>
</g>
<!-- Node4&#45;&gt;Node5 -->
<g id="edge4" class="edge">
<title>Node4&#45;&gt;Node5</title>
<path fill="none" stroke="midnightblue" d="M853.59,-154.89C775.69,-148.69 645.94,-135.26 537,-109 525.06,-106.12 512.12,-101.6 501.69,-97.58"/>
<polygon fill="midnightblue" stroke="midnightblue" points="853.52,-158.4 863.76,-155.68 854.06,-151.42 853.52,-158.4"/>
</g>
<!-- Node4&#45;&gt;Node6 -->
<g id="edge5" class="edge">
<title>Node4&#45;&gt;Node6</title>
<path fill="none" stroke="midnightblue" d="M956.05,-140.4C976.43,-128.62 1002.12,-113.78 1020.65,-103.07"/>
<polygon fill="midnightblue" stroke="midnightblue" points="954.3,-137.37 947.4,-145.4 957.8,-143.43 954.3,-137.37"/>
</g>
<!-- Node4&#45;&gt;Node8 -->
<g id="edge7" class="edge">
<title>Node4&#45;&gt;Node8</title>
<path fill="none" stroke="midnightblue" d="M992.21,-143.61C1045.31,-131.41 1117.92,-114.74 1168.89,-103.03"/>
<polygon fill="midnightblue" stroke="midnightblue" points="991.16,-140.26 982.19,-145.91 992.72,-147.08 991.16,-140.26"/>
</g>
<!-- Node4&#45;&gt;Node9 -->
<g id="edge8" class="edge">
<title>Node4&#45;&gt;Node9</title>
<path fill="none" stroke="midnightblue" d="M992.51,-152.83C1072.38,-144.68 1207.19,-129.41 1322,-109 1331.61,-107.29 1341.76,-105.21 1351.6,-103.05"/>
<polygon fill="midnightblue" stroke="midnightblue" points="991.69,-149.4 982.1,-153.89 992.4,-156.36 991.69,-149.4"/>
</g>
<!-- Node10 -->
<g id="node10" class="node">
<title>Node10</title>
<g id="a_node10"><a xlink:href="../../d4/d0d/kns__app_8c.html" target="_top" xlink:title=" ">
<polygon fill="white" stroke="black" points="546,-78.5 546,-97.5 666,-97.5 666,-78.5 546,-78.5"/>
<text text-anchor="middle" x="606" y="-85.5" font-family="Helvetica,sans-Serif" font-size="10.00">Kineis/App/kns_app.c</text>
</a>
</g>
</g>
<!-- Node4&#45;&gt;Node10 -->
<g id="edge9" class="edge">
<title>Node4&#45;&gt;Node10</title>
<path fill="none" stroke="midnightblue" d="M853.78,-146.97C803.85,-137.55 734.97,-123.77 675,-109 661.32,-105.63 646.27,-101.34 633.73,-97.59"/>
<polygon fill="midnightblue" stroke="midnightblue" points="853.35,-150.45 863.82,-148.85 854.64,-143.57 853.35,-150.45"/>
</g>
<!-- Node11 -->
<g id="node11" class="node">
<title>Node11</title>
<g id="a_node11"><a xlink:href="../../d1/de0/mgr__at__cmd__list__mac_8c.html" target="_top" xlink:title="subset of AT commands concerning Kinéis Medium Acces Channel (MAC).">
<polygon fill="white" stroke="black" points="684,-67.5 684,-108.5 814,-108.5 814,-67.5 684,-67.5"/>
<text text-anchor="start" x="692" y="-96.5" font-family="Helvetica,sans-Serif" font-size="10.00">Kineis/App/Managers</text>
<text text-anchor="start" x="692" y="-85.5" font-family="Helvetica,sans-Serif" font-size="10.00">/MGR_AT_CMD/Src/mgr</text>
<text text-anchor="middle" x="749" y="-74.5" font-family="Helvetica,sans-Serif" font-size="10.00">_at_cmd_list_mac.c</text>
</a>
</g>
</g>
<!-- Node4&#45;&gt;Node11 -->
<g id="edge10" class="edge">
<title>Node4&#45;&gt;Node11</title>
<path fill="none" stroke="midnightblue" d="M878.66,-141.53C853.78,-131.45 822.72,-118.87 797.24,-108.55"/>
<polygon fill="midnightblue" stroke="midnightblue" points="877.62,-144.89 888.21,-145.4 880.25,-138.4 877.62,-144.89"/>
</g>
<!-- Node12 -->
<g id="node12" class="node">
<title>Node12</title>
<g id="a_node12"><a xlink:href="../../d8/d11/mgr__at__cmd__list__user__data_8c.html" target="_top" xlink:title="subset of AT commands concerning user data manipulation such as TX">
<polygon fill="white" stroke="black" points="276,-67.5 276,-108.5 416,-108.5 416,-67.5 276,-67.5"/>
<text text-anchor="start" x="284" y="-96.5" font-family="Helvetica,sans-Serif" font-size="10.00">Kineis/App/Managers</text>
<text text-anchor="start" x="284" y="-85.5" font-family="Helvetica,sans-Serif" font-size="10.00">/MGR_AT_CMD/Src/mgr</text>
<text text-anchor="middle" x="346" y="-74.5" font-family="Helvetica,sans-Serif" font-size="10.00">_at_cmd_list_user_data.c</text>
</a>
</g>
</g>
<!-- Node4&#45;&gt;Node12 -->
<g id="edge11" class="edge">
<title>Node4&#45;&gt;Node12</title>
<path fill="none" stroke="midnightblue" d="M853.75,-155.7C757.15,-149.67 576.73,-135.75 425,-109 422.07,-108.48 419.1,-107.92 416.1,-107.31"/>
<polygon fill="midnightblue" stroke="midnightblue" points="853.77,-159.21 863.97,-156.33 854.2,-152.22 853.77,-159.21"/>
</g>
<!-- Node4&#45;&gt;Node13 -->
<g id="edge12" class="edge">
<title>Node4&#45;&gt;Node13</title>
<path fill="none" stroke="midnightblue" d="M992.19,-158.17C1100.42,-155.03 1315.95,-144.45 1495,-109 1502.77,-107.46 1510.92,-105.33 1518.71,-103.03"/>
<polygon fill="midnightblue" stroke="midnightblue" points="991.95,-154.68 982.05,-158.45 992.14,-161.67 991.95,-154.68"/>
</g>
<!-- Node14 -->
<g id="node14" class="node">
<title>Node14</title>
<g id="a_node14"><a xlink:href="../../dd/d8d/mgr__lpm_8c.html" target="_top" xlink:title="low power mode manager is in charge to collect all low power needs from &#39;clients&#39; and setup the corre...">
<polygon fill="white" stroke="black" points="832.5,-73 832.5,-103 943.5,-103 943.5,-73 832.5,-73"/>
<text text-anchor="start" x="840.5" y="-91" font-family="Helvetica,sans-Serif" font-size="10.00">Kineis/Lpm/Src/mgr</text>
<text text-anchor="middle" x="888" y="-80" font-family="Helvetica,sans-Serif" font-size="10.00">_lpm.c</text>
</a>
</g>
</g>
<!-- Node4&#45;&gt;Node14 -->
<g id="edge13" class="edge">
<title>Node4&#45;&gt;Node14</title>
<path fill="none" stroke="midnightblue" d="M911.45,-136.23C906.04,-125.33 899.77,-112.7 895.07,-103.25"/>
<polygon fill="midnightblue" stroke="midnightblue" points="908.34,-137.83 915.92,-145.23 914.61,-134.72 908.34,-137.83"/>
</g>
<!-- Node7 -->
<g id="node7" class="node">
<title>Node7</title>
<g id="a_node7"><a xlink:href="../../d7/d30/kns__q_8c.html" target="_top" xlink:title="Configuration of queues used in kineis_swr.">
<polygon fill="white" stroke="black" points="986,-0.5 986,-30.5 1104,-30.5 1104,-0.5 986,-0.5"/>
<text text-anchor="start" x="994" y="-18.5" font-family="Helvetica,sans-Serif" font-size="10.00">Kineis/App/Kineis_os</text>
<text text-anchor="middle" x="1045" y="-7.5" font-family="Helvetica,sans-Serif" font-size="10.00">/KNS_Q/Src/kns_q.c</text>
</a>
</g>
</g>
<!-- Node6&#45;&gt;Node7 -->
<g id="edge6" class="edge">
<title>Node6&#45;&gt;Node7</title>
<path fill="none" stroke="midnightblue" d="M1045,-62.73C1045,-52.07 1045,-39.91 1045,-30.75"/>
<polygon fill="midnightblue" stroke="midnightblue" points="1041.5,-62.73 1045,-72.73 1048.5,-62.73 1041.5,-62.73"/>
</g>
<!-- Node15&#45;&gt;Node5 -->
<g id="edge19" class="edge">
<title>Node15&#45;&gt;Node5</title>
<path fill="none" stroke="midnightblue" d="M481,-140.44C481,-126.53 481,-108.32 481,-97.72"/>
<polygon fill="midnightblue" stroke="midnightblue" points="477.5,-140.86 481,-150.86 484.5,-140.86 477.5,-140.86"/>
</g>
<!-- Node15&#45;&gt;Node10 -->
<g id="edge20" class="edge">
<title>Node15&#45;&gt;Node10</title>
<path fill="none" stroke="midnightblue" d="M505.27,-145.81C530.49,-131.59 569.21,-109.75 590.55,-97.72"/>
<polygon fill="midnightblue" stroke="midnightblue" points="503.32,-142.89 496.33,-150.86 506.76,-148.99 503.32,-142.89"/>
</g>
<!-- Node15&#45;&gt;Node11 -->
<g id="edge22" class="edge">
<title>Node15&#45;&gt;Node11</title>
<path fill="none" stroke="midnightblue" d="M524.11,-148.4C563.45,-138.24 623.17,-122.75 675,-109 677.83,-108.25 680.72,-107.48 683.64,-106.7"/>
<polygon fill="midnightblue" stroke="midnightblue" points="523.13,-145.04 514.32,-150.93 524.88,-151.82 523.13,-145.04"/>
</g>
<!-- Node15&#45;&gt;Node12 -->
<g id="edge23" class="edge">
<title>Node15&#45;&gt;Node12</title>
<path fill="none" stroke="midnightblue" d="M455.76,-146.32C435.44,-135.71 406.56,-120.63 383.53,-108.6"/>
<polygon fill="midnightblue" stroke="midnightblue" points="454.23,-149.47 464.72,-151 457.47,-143.26 454.23,-149.47"/>
</g>
<!-- Node16 -->
<g id="node16" class="node">
<title>Node16</title>
<g id="a_node16"><a xlink:href="../../d5/dd7/mgr__at__cmd__common_8c.html" target="_top" xlink:title="common part of the AT cmd manager (logging, AT cmd response api)">
<polygon fill="white" stroke="black" points="128,-67.5 128,-108.5 258,-108.5 258,-67.5 128,-67.5"/>
<text text-anchor="start" x="136" y="-96.5" font-family="Helvetica,sans-Serif" font-size="10.00">Kineis/App/Managers</text>
<text text-anchor="start" x="136" y="-85.5" font-family="Helvetica,sans-Serif" font-size="10.00">/MGR_AT_CMD/Src/mgr</text>
<text text-anchor="middle" x="193" y="-74.5" font-family="Helvetica,sans-Serif" font-size="10.00">_at_cmd_common.c</text>
</a>
</g>
</g>
<!-- Node15&#45;&gt;Node16 -->
<g id="edge21" class="edge">
<title>Node15&#45;&gt;Node16</title>
<path fill="none" stroke="midnightblue" d="M433.02,-148.64C389.58,-138.7 323.87,-123.39 267,-109 264.16,-108.28 261.26,-107.54 258.34,-106.78"/>
<polygon fill="midnightblue" stroke="midnightblue" points="432.5,-152.11 443.03,-150.93 434.06,-145.29 432.5,-152.11"/>
</g>
<!-- Node17 -->
<g id="node17" class="node">
<title>Node17</title>
<g id="a_node17"><a xlink:href="../../df/d53/lpm__cli__kstk_8c.html" target="_top" xlink:title="Kineis stack&#39;s LPM client. It is implementing APIs needed to interface with the low power manager (MG...">
<polygon fill="white" stroke="black" points="0,-73 0,-103 110,-103 110,-73 0,-73"/>
<text text-anchor="start" x="8" y="-91" font-family="Helvetica,sans-Serif" font-size="10.00">Kineis/Lpm/Src/lpm</text>
<text text-anchor="middle" x="55" y="-80" font-family="Helvetica,sans-Serif" font-size="10.00">_cli_kstk.c</text>
</a>
</g>
</g>
<!-- Node15&#45;&gt;Node17 -->
<g id="edge24" class="edge">
<title>Node15&#45;&gt;Node17</title>
<path fill="none" stroke="midnightblue" d="M411.16,-153.2C337.81,-145.77 219.38,-131.53 119,-109 111.62,-107.34 103.86,-105.24 96.39,-103.02"/>
<polygon fill="midnightblue" stroke="midnightblue" points="410.91,-156.69 421.21,-154.2 411.6,-149.72 410.91,-156.69"/>
</g>
</g>
</svg>
