<?xml version="1.0" encoding="UTF-8" standalone="no"?>
<!DOCTYPE svg PUBLIC "-//W3C//DTD SVG 1.1//EN"
 "http://www.w3.org/Graphics/SVG/1.1/DTD/svg11.dtd">
<!-- Generated by graphviz version 2.43.0 (0)
 -->
<!-- Title: Kineis/Extdep/Conf/kns_q_conf.h Pages: 1 -->
<svg width="346pt" height="263pt"
 viewBox="0.00 0.00 346.17 263.00" xmlns="http://www.w3.org/2000/svg" xmlns:xlink="http://www.w3.org/1999/xlink">
<g id="graph0" class="graph" transform="scale(1 1) rotate(0) translate(4 259)">
<title>Kineis/Extdep/Conf/kns_q_conf.h</title>
<polygon fill="white" stroke="transparent" points="-4,4 -4,-259 342.17,-259 342.17,4 -4,4"/>
<!-- Node1 -->
<g id="node1" class="node">
<title>Node1</title>
<g id="a_node1"><a xlink:title="Configuration of queues used in kineis_sw.">
<polygon fill="#bfbfbf" stroke="black" points="102.67,-224.5 102.67,-254.5 211.67,-254.5 211.67,-224.5 102.67,-224.5"/>
<text text-anchor="start" x="110.67" y="-242.5" font-family="Helvetica,sans-Serif" font-size="10.00">Kineis/Extdep/Conf</text>
<text text-anchor="middle" x="157.17" y="-231.5" font-family="Helvetica,sans-Serif" font-size="10.00">/kns_q_conf.h</text>
</a>
</g>
</g>
<!-- Node2 -->
<g id="node2" class="node">
<title>Node2</title>
<g id="a_node2"><a xlink:title=" ">
<polygon fill="white" stroke="#bfbfbf" points="190.17,-112.5 190.17,-131.5 252.17,-131.5 252.17,-112.5 190.17,-112.5"/>
<text text-anchor="middle" x="221.17" y="-119.5" font-family="Helvetica,sans-Serif" font-size="10.00">stdbool.h</text>
</a>
</g>
</g>
<!-- Node1&#45;&gt;Node2 -->
<g id="edge1" class="edge">
<title>Node1&#45;&gt;Node2</title>
<path fill="none" stroke="midnightblue" d="M165.02,-224.34C176.71,-203.24 198.67,-163.6 211.39,-140.65"/>
<polygon fill="midnightblue" stroke="midnightblue" points="214.58,-142.11 216.37,-131.67 208.46,-138.72 214.58,-142.11"/>
</g>
<!-- Node3 -->
<g id="node3" class="node">
<title>Node3</title>
<g id="a_node3"><a xlink:title=" ">
<polygon fill="white" stroke="#bfbfbf" points="51.67,-0.5 51.67,-19.5 104.67,-19.5 104.67,-0.5 51.67,-0.5"/>
<text text-anchor="middle" x="78.17" y="-7.5" font-family="Helvetica,sans-Serif" font-size="10.00">stdint.h</text>
</a>
</g>
</g>
<!-- Node1&#45;&gt;Node3 -->
<g id="edge2" class="edge">
<title>Node1&#45;&gt;Node3</title>
<path fill="none" stroke="midnightblue" d="M116.79,-224.49C78.76,-208.75 24.53,-179.07 3.17,-132 -5.01,-113.97 4.79,-69.05 13.17,-56 21.82,-42.53 36.09,-31.99 49.06,-24.5"/>
<polygon fill="midnightblue" stroke="midnightblue" points="51.03,-27.42 58.17,-19.6 47.71,-21.26 51.03,-27.42"/>
</g>
<!-- Node4 -->
<g id="node4" class="node">
<title>Node4</title>
<g id="a_node4"><a xlink:href="../../df/d64/kns__mac__evt_8h.html" target="_top" xlink:title=" ">
<polygon fill="white" stroke="black" points="76.17,-168.5 76.17,-187.5 166.17,-187.5 166.17,-168.5 76.17,-168.5"/>
<text text-anchor="middle" x="121.17" y="-175.5" font-family="Helvetica,sans-Serif" font-size="10.00">kns_mac_evt.h</text>
</a>
</g>
</g>
<!-- Node1&#45;&gt;Node4 -->
<g id="edge3" class="edge">
<title>Node1&#45;&gt;Node4</title>
<path fill="none" stroke="midnightblue" d="M148.64,-224.4C143.57,-216.02 137.1,-205.33 131.71,-196.42"/>
<polygon fill="midnightblue" stroke="midnightblue" points="134.58,-194.4 126.41,-187.66 128.59,-198.03 134.58,-194.4"/>
</g>
<!-- Node7 -->
<g id="node7" class="node">
<title>Node7</title>
<g id="a_node7"><a xlink:href="../../d7/d8a/kns__srvc__common_8h.html" target="_top" xlink:title="Common part of Kinéis service layer.">
<polygon fill="white" stroke="black" points="222.17,-168.5 222.17,-187.5 338.17,-187.5 338.17,-168.5 222.17,-168.5"/>
<text text-anchor="middle" x="280.17" y="-175.5" font-family="Helvetica,sans-Serif" font-size="10.00">kns_srvc_common.h</text>
</a>
</g>
</g>
<!-- Node1&#45;&gt;Node7 -->
<g id="edge11" class="edge">
<title>Node1&#45;&gt;Node7</title>
<path fill="none" stroke="midnightblue" d="M186.32,-224.4C206.59,-214.59 233.41,-201.62 253.19,-192.05"/>
<polygon fill="midnightblue" stroke="midnightblue" points="254.79,-195.16 262.27,-187.66 251.75,-188.86 254.79,-195.16"/>
</g>
<!-- Node4&#45;&gt;Node2 -->
<g id="edge4" class="edge">
<title>Node4&#45;&gt;Node2</title>
<path fill="none" stroke="midnightblue" d="M137.24,-168.32C153.13,-159.74 177.68,-146.49 196.13,-136.52"/>
<polygon fill="midnightblue" stroke="midnightblue" points="198.01,-139.49 205.14,-131.65 194.68,-133.33 198.01,-139.49"/>
</g>
<!-- Node4&#45;&gt;Node3 -->
<g id="edge5" class="edge">
<title>Node4&#45;&gt;Node3</title>
<path fill="none" stroke="midnightblue" d="M76.06,-170.23C53.12,-164.26 27.2,-153.04 13.17,-132 -11.05,-95.68 32.61,-49.43 59.45,-26.02"/>
<polygon fill="midnightblue" stroke="midnightblue" points="61.76,-28.65 67.15,-19.53 57.25,-23.3 61.76,-28.65"/>
</g>
<!-- Node5 -->
<g id="node5" class="node">
<title>Node5</title>
<g id="a_node5"><a xlink:href="../../d8/d85/kns__types_8h.html" target="_top" xlink:title="Kineis types definition.">
<polygon fill="white" stroke="black" points="115.67,-56.5 115.67,-75.5 190.67,-75.5 190.67,-56.5 115.67,-56.5"/>
<text text-anchor="middle" x="153.17" y="-63.5" font-family="Helvetica,sans-Serif" font-size="10.00">kns_types.h</text>
</a>
</g>
</g>
<!-- Node4&#45;&gt;Node5 -->
<g id="edge6" class="edge">
<title>Node4&#45;&gt;Node5</title>
<path fill="none" stroke="midnightblue" d="M126.08,-168.32C130.89,-159.46 138.06,-145.17 142.17,-132 146.91,-116.79 149.75,-98.9 151.35,-85.74"/>
<polygon fill="midnightblue" stroke="midnightblue" points="154.85,-85.9 152.46,-75.58 147.89,-85.15 154.85,-85.9"/>
</g>
<!-- Node6 -->
<g id="node6" class="node">
<title>Node6</title>
<g id="a_node6"><a xlink:href="../../d8/d4a/kns__mac__prfl__cfg_8h.html" target="_top" xlink:title="Header file describing the ser settings required to configure a MAC protocol.">
<polygon fill="white" stroke="black" points="22.67,-112.5 22.67,-131.5 133.67,-131.5 133.67,-112.5 22.67,-112.5"/>
<text text-anchor="middle" x="78.17" y="-119.5" font-family="Helvetica,sans-Serif" font-size="10.00">kns_mac_prfl_cfg.h</text>
</a>
</g>
</g>
<!-- Node4&#45;&gt;Node6 -->
<g id="edge8" class="edge">
<title>Node4&#45;&gt;Node6</title>
<path fill="none" stroke="midnightblue" d="M114.07,-168.08C107.93,-160.38 98.9,-149.03 91.43,-139.65"/>
<polygon fill="midnightblue" stroke="midnightblue" points="94.1,-137.39 85.14,-131.75 88.63,-141.75 94.1,-137.39"/>
</g>
<!-- Node5&#45;&gt;Node3 -->
<g id="edge7" class="edge">
<title>Node5&#45;&gt;Node3</title>
<path fill="none" stroke="midnightblue" d="M141.12,-56.32C129.71,-48.11 112.34,-35.6 98.73,-25.81"/>
<polygon fill="midnightblue" stroke="midnightblue" points="100.6,-22.84 90.44,-19.83 96.51,-28.52 100.6,-22.84"/>
</g>
<!-- Node6&#45;&gt;Node3 -->
<g id="edge9" class="edge">
<title>Node6&#45;&gt;Node3</title>
<path fill="none" stroke="midnightblue" d="M78.17,-112.37C78.17,-94.62 78.17,-53.67 78.17,-29.6"/>
<polygon fill="midnightblue" stroke="midnightblue" points="81.67,-29.59 78.17,-19.59 74.67,-29.59 81.67,-29.59"/>
</g>
<!-- Node6&#45;&gt;Node5 -->
<g id="edge10" class="edge">
<title>Node6&#45;&gt;Node5</title>
<path fill="none" stroke="midnightblue" d="M90.22,-112.32C101.63,-104.11 119,-91.6 132.6,-81.81"/>
<polygon fill="midnightblue" stroke="midnightblue" points="134.83,-84.52 140.9,-75.83 130.74,-78.84 134.83,-84.52"/>
</g>
<!-- Node7&#45;&gt;Node2 -->
<g id="edge12" class="edge">
<title>Node7&#45;&gt;Node2</title>
<path fill="none" stroke="midnightblue" d="M270.69,-168.32C261.97,-160.34 248.83,-148.31 238.27,-138.65"/>
<polygon fill="midnightblue" stroke="midnightblue" points="240.56,-136 230.82,-131.83 235.83,-141.17 240.56,-136"/>
</g>
<!-- Node7&#45;&gt;Node3 -->
<g id="edge13" class="edge">
<title>Node7&#45;&gt;Node3</title>
<path fill="none" stroke="midnightblue" d="M282.78,-168.4C286.21,-155.35 290.76,-130.16 281.17,-112 248.57,-50.25 163.68,-25.58 114.62,-16.26"/>
<polygon fill="midnightblue" stroke="midnightblue" points="115.19,-12.8 104.73,-14.49 113.96,-19.69 115.19,-12.8"/>
</g>
<!-- Node7&#45;&gt;Node5 -->
<g id="edge14" class="edge">
<title>Node7&#45;&gt;Node5</title>
<path fill="none" stroke="midnightblue" d="M279.93,-168.29C279.1,-154.65 275.6,-128.12 261.17,-112 245.44,-94.43 221.76,-83.54 200.58,-76.88"/>
<polygon fill="midnightblue" stroke="midnightblue" points="201.32,-73.46 190.75,-74.03 199.37,-80.18 201.32,-73.46"/>
</g>
</g>
</svg>
