<?xml version="1.0" encoding="UTF-8" standalone="no"?>
<!DOCTYPE svg PUBLIC "-//W3C//DTD SVG 1.1//EN"
 "http://www.w3.org/Graphics/SVG/1.1/DTD/svg11.dtd">
<!-- Generated by graphviz version 2.43.0 (0)
 -->
<!-- Title: Kineis/Extdep/Conf/kns_q_conf.h Pages: 1 -->
<svg width="268pt" height="207pt"
 viewBox="0.00 0.00 268.17 207.00" xmlns="http://www.w3.org/2000/svg" xmlns:xlink="http://www.w3.org/1999/xlink">
<g id="graph0" class="graph" transform="scale(1 1) rotate(0) translate(4 203)">
<title>Kineis/Extdep/Conf/kns_q_conf.h</title>
<polygon fill="white" stroke="transparent" points="-4,4 -4,-203 264.17,-203 264.17,4 -4,4"/>
<!-- Node1 -->
<g id="node1" class="node">
<title>Node1</title>
<g id="a_node1"><a xlink:title="Configuration of queues used in kineis_sw.">
<polygon fill="#bfbfbf" stroke="black" points="83.5,-168.5 83.5,-198.5 192.5,-198.5 192.5,-168.5 83.5,-168.5"/>
<text text-anchor="start" x="91.5" y="-186.5" font-family="Helvetica,sans-Serif" font-size="10.00">Kineis/Extdep/Conf</text>
<text text-anchor="middle" x="138" y="-175.5" font-family="Helvetica,sans-Serif" font-size="10.00">/kns_q_conf.h</text>
</a>
</g>
</g>
<!-- Node2 -->
<g id="node2" class="node">
<title>Node2</title>
<g id="a_node2"><a xlink:title=" ">
<polygon fill="white" stroke="#bfbfbf" points="0,-56.5 0,-75.5 62,-75.5 62,-56.5 0,-56.5"/>
<text text-anchor="middle" x="31" y="-63.5" font-family="Helvetica,sans-Serif" font-size="10.00">stdbool.h</text>
</a>
</g>
</g>
<!-- Node1&#45;&gt;Node2 -->
<g id="edge1" class="edge">
<title>Node1&#45;&gt;Node2</title>
<path fill="none" stroke="midnightblue" d="M83.4,-175.17C56.86,-168.55 27.25,-155.95 11,-132 1.2,-117.55 9.39,-98.11 18.06,-84.26"/>
<polygon fill="midnightblue" stroke="midnightblue" points="21.17,-85.92 23.93,-75.7 15.39,-81.97 21.17,-85.92"/>
</g>
<!-- Node3 -->
<g id="node3" class="node">
<title>Node3</title>
<g id="a_node3"><a xlink:title=" ">
<polygon fill="white" stroke="#bfbfbf" points="162.5,-0.5 162.5,-19.5 215.5,-19.5 215.5,-0.5 162.5,-0.5"/>
<text text-anchor="middle" x="189" y="-7.5" font-family="Helvetica,sans-Serif" font-size="10.00">stdint.h</text>
</a>
</g>
</g>
<!-- Node1&#45;&gt;Node3 -->
<g id="edge2" class="edge">
<title>Node1&#45;&gt;Node3</title>
<path fill="none" stroke="midnightblue" d="M192.65,-172.24C215.33,-165 239.47,-152.72 253,-132 276.68,-95.73 234.2,-49.77 207.76,-26.3"/>
<polygon fill="midnightblue" stroke="midnightblue" points="209.71,-23.37 199.85,-19.52 205.16,-28.68 209.71,-23.37"/>
</g>
<!-- Node4 -->
<g id="node4" class="node">
<title>Node4</title>
<g id="a_node4"><a xlink:href="../../df/d64/kns__mac__evt_8h.html" target="_top" xlink:title=" ">
<polygon fill="white" stroke="black" points="154,-112.5 154,-131.5 244,-131.5 244,-112.5 154,-112.5"/>
<text text-anchor="middle" x="199" y="-119.5" font-family="Helvetica,sans-Serif" font-size="10.00">kns_mac_evt.h</text>
</a>
</g>
</g>
<!-- Node1&#45;&gt;Node4 -->
<g id="edge3" class="edge">
<title>Node1&#45;&gt;Node4</title>
<path fill="none" stroke="midnightblue" d="M152.46,-168.4C161.59,-159.49 173.42,-147.95 182.86,-138.74"/>
<polygon fill="midnightblue" stroke="midnightblue" points="185.41,-141.15 190.12,-131.66 180.52,-136.13 185.41,-141.15"/>
</g>
<!-- Node6 -->
<g id="node6" class="node">
<title>Node6</title>
<g id="a_node6"><a xlink:href="../../d7/d8a/kns__srvc__common_8h.html" target="_top" xlink:title="Common part of Kinéis service layer.">
<polygon fill="white" stroke="black" points="20,-112.5 20,-131.5 136,-131.5 136,-112.5 20,-112.5"/>
<text text-anchor="middle" x="78" y="-119.5" font-family="Helvetica,sans-Serif" font-size="10.00">kns_srvc_common.h</text>
</a>
</g>
</g>
<!-- Node1&#45;&gt;Node6 -->
<g id="edge8" class="edge">
<title>Node1&#45;&gt;Node6</title>
<path fill="none" stroke="midnightblue" d="M123.78,-168.4C114.79,-159.49 103.16,-147.95 93.87,-138.74"/>
<polygon fill="midnightblue" stroke="midnightblue" points="96.3,-136.21 86.73,-131.66 91.37,-141.18 96.3,-136.21"/>
</g>
<!-- Node4&#45;&gt;Node2 -->
<g id="edge4" class="edge">
<title>Node4&#45;&gt;Node2</title>
<path fill="none" stroke="midnightblue" d="M172.38,-112.44C143.99,-103.32 98.86,-88.81 67.25,-78.65"/>
<polygon fill="midnightblue" stroke="midnightblue" points="68.09,-75.24 57.5,-75.52 65.94,-81.91 68.09,-75.24"/>
</g>
<!-- Node4&#45;&gt;Node3 -->
<g id="edge5" class="edge">
<title>Node4&#45;&gt;Node3</title>
<path fill="none" stroke="midnightblue" d="M200.73,-112.12C202.91,-99.55 206.02,-75.9 203,-56 201.63,-47 198.81,-37.33 196.05,-29.26"/>
<polygon fill="midnightblue" stroke="midnightblue" points="199.31,-27.98 192.6,-19.78 192.73,-30.37 199.31,-27.98"/>
</g>
<!-- Node5 -->
<g id="node5" class="node">
<title>Node5</title>
<g id="a_node5"><a xlink:href="../../d8/d85/kns__types_8h.html" target="_top" xlink:title="Kineis types definition.">
<polygon fill="white" stroke="black" points="118.5,-56.5 118.5,-75.5 193.5,-75.5 193.5,-56.5 118.5,-56.5"/>
<text text-anchor="middle" x="156" y="-63.5" font-family="Helvetica,sans-Serif" font-size="10.00">kns_types.h</text>
</a>
</g>
</g>
<!-- Node4&#45;&gt;Node5 -->
<g id="edge6" class="edge">
<title>Node4&#45;&gt;Node5</title>
<path fill="none" stroke="midnightblue" d="M191.9,-112.08C185.76,-104.38 176.73,-93.03 169.26,-83.65"/>
<polygon fill="midnightblue" stroke="midnightblue" points="171.94,-81.39 162.97,-75.75 166.46,-85.75 171.94,-81.39"/>
</g>
<!-- Node5&#45;&gt;Node3 -->
<g id="edge7" class="edge">
<title>Node5&#45;&gt;Node3</title>
<path fill="none" stroke="midnightblue" d="M161.45,-56.08C166.01,-48.61 172.67,-37.72 178.29,-28.52"/>
<polygon fill="midnightblue" stroke="midnightblue" points="181.42,-30.11 183.65,-19.75 175.45,-26.46 181.42,-30.11"/>
</g>
<!-- Node6&#45;&gt;Node2 -->
<g id="edge9" class="edge">
<title>Node6&#45;&gt;Node2</title>
<path fill="none" stroke="midnightblue" d="M70.24,-112.08C63.46,-104.3 53.46,-92.8 45.24,-83.37"/>
<polygon fill="midnightblue" stroke="midnightblue" points="47.82,-81 38.62,-75.75 42.54,-85.59 47.82,-81"/>
</g>
<!-- Node6&#45;&gt;Node3 -->
<g id="edge10" class="edge">
<title>Node6&#45;&gt;Node3</title>
<path fill="none" stroke="midnightblue" d="M80.41,-112.47C84.55,-99.06 94.14,-72.85 110,-56 122.99,-42.2 141.18,-31.45 156.83,-23.92"/>
<polygon fill="midnightblue" stroke="midnightblue" points="158.53,-26.98 166.17,-19.65 155.62,-20.62 158.53,-26.98"/>
</g>
<!-- Node6&#45;&gt;Node5 -->
<g id="edge11" class="edge">
<title>Node6&#45;&gt;Node5</title>
<path fill="none" stroke="midnightblue" d="M90.53,-112.32C102.59,-103.98 121.03,-91.21 135.27,-81.35"/>
<polygon fill="midnightblue" stroke="midnightblue" points="137.27,-84.22 143.5,-75.65 133.28,-78.47 137.27,-84.22"/>
</g>
</g>
</svg>
