<?xml version="1.0" encoding="UTF-8" standalone="no"?>
<!DOCTYPE svg PUBLIC "-//W3C//DTD SVG 1.1//EN"
 "http://www.w3.org/Graphics/SVG/1.1/DTD/svg11.dtd">
<!-- Generated by graphviz version 2.43.0 (0)
 -->
<!-- Title: Kineis/Lib/kns_types.h Pages: 1 -->
<svg width="2395pt" height="407pt"
 viewBox="0.00 0.00 2395.00 407.00" xmlns="http://www.w3.org/2000/svg" xmlns:xlink="http://www.w3.org/1999/xlink">
<g id="graph0" class="graph" transform="scale(1 1) rotate(0) translate(4 403)">
<title>Kineis/Lib/kns_types.h</title>
<polygon fill="white" stroke="transparent" points="-4,4 -4,-403 2391,-403 2391,4 -4,4"/>
<!-- Node1 -->
<g id="node1" class="node">
<title>Node1</title>
<g id="a_node1"><a xlink:title="Kineis types definition.">
<polygon fill="#bfbfbf" stroke="black" points="1176,-379.5 1176,-398.5 1301,-398.5 1301,-379.5 1176,-379.5"/>
<text text-anchor="middle" x="1238.5" y="-386.5" font-family="Helvetica,sans-Serif" font-size="10.00">Kineis/Lib/kns_types.h</text>
</a>
</g>
</g>
<!-- Node2 -->
<g id="node2" class="node">
<title>Node2</title>
<g id="a_node2"><a xlink:href="../../d2/de2/kns__os_8h.html" target="_top" xlink:title="Minimalist baremetal OS to be used with Kineissoftware stack.">
<polygon fill="white" stroke="black" points="431.5,-307 431.5,-337 553.5,-337 553.5,-307 431.5,-307"/>
<text text-anchor="start" x="439.5" y="-325" font-family="Helvetica,sans-Serif" font-size="10.00">Kineis/App/Kineis_os</text>
<text text-anchor="middle" x="492.5" y="-314" font-family="Helvetica,sans-Serif" font-size="10.00">/KNS_OS/Inc/kns_os.h</text>
</a>
</g>
</g>
<!-- Node1&#45;&gt;Node2 -->
<g id="edge1" class="edge">
<title>Node1&#45;&gt;Node2</title>
<path fill="none" stroke="midnightblue" d="M1165.48,-384.48C1050.27,-378.51 819.37,-364.87 624.5,-343 601.35,-340.4 576.03,-336.76 553.82,-333.3"/>
<polygon fill="midnightblue" stroke="midnightblue" points="1165.43,-387.98 1175.6,-385 1165.79,-380.99 1165.43,-387.98"/>
</g>
<!-- Node5 -->
<g id="node5" class="node">
<title>Node5</title>
<g id="a_node5"><a xlink:href="../../d0/d84/kns__q_8h.html" target="_top" xlink:title="Configuration of queues used in kineis_swr.">
<polygon fill="white" stroke="black" points="343.5,-151 343.5,-181 461.5,-181 461.5,-151 343.5,-151"/>
<text text-anchor="start" x="351.5" y="-169" font-family="Helvetica,sans-Serif" font-size="10.00">Kineis/App/Kineis_os</text>
<text text-anchor="middle" x="402.5" y="-158" font-family="Helvetica,sans-Serif" font-size="10.00">/KNS_Q/Inc/kns_q.h</text>
</a>
</g>
</g>
<!-- Node1&#45;&gt;Node5 -->
<g id="edge4" class="edge">
<title>Node1&#45;&gt;Node5</title>
<path fill="none" stroke="midnightblue" d="M1165.91,-386.7C978.86,-382.96 490.26,-370.65 422.5,-343 373.8,-323.13 355.21,-312.9 333.5,-265 325.79,-248 325.47,-239.85 333.5,-223 342.12,-204.89 359.78,-190.73 375.08,-181.18"/>
<polygon fill="midnightblue" stroke="midnightblue" points="1165.86,-390.2 1175.93,-386.9 1166,-383.2 1165.86,-390.2"/>
</g>
<!-- Node11 -->
<g id="node11" class="node">
<title>Node11</title>
<g id="a_node11"><a xlink:href="../../d8/d11/mgr__at__cmd__list__user__data_8c.html" target="_top" xlink:title="subset of AT commands concerning user data manipulation such as TX">
<polygon fill="white" stroke="black" points="1049.5,-67.5 1049.5,-108.5 1189.5,-108.5 1189.5,-67.5 1049.5,-67.5"/>
<text text-anchor="start" x="1057.5" y="-96.5" font-family="Helvetica,sans-Serif" font-size="10.00">Kineis/App/Managers</text>
<text text-anchor="start" x="1057.5" y="-85.5" font-family="Helvetica,sans-Serif" font-size="10.00">/MGR_AT_CMD/Src/mgr</text>
<text text-anchor="middle" x="1119.5" y="-74.5" font-family="Helvetica,sans-Serif" font-size="10.00">_at_cmd_list_user_data.c</text>
</a>
</g>
</g>
<!-- Node1&#45;&gt;Node11 -->
<g id="edge24" class="edge">
<title>Node1&#45;&gt;Node11</title>
<path fill="none" stroke="midnightblue" d="M1311.45,-387.75C1440.8,-386.38 1704.63,-379.08 1788.5,-343 1879.25,-303.96 1956.77,-217.34 1889.5,-145 1842.41,-94.36 1370.83,-88.97 1189.78,-88.79"/>
<polygon fill="midnightblue" stroke="midnightblue" points="1311.21,-384.26 1301.24,-387.85 1311.27,-391.26 1311.21,-384.26"/>
</g>
<!-- Node14 -->
<g id="node14" class="node">
<title>Node14</title>
<g id="a_node14"><a xlink:href="../../d2/db5/mgr__at__cmd_8h.html" target="_top" xlink:title="AT commands manager main header file.">
<polygon fill="white" stroke="black" points="904,-301.5 904,-342.5 1033,-342.5 1033,-301.5 904,-301.5"/>
<text text-anchor="start" x="912" y="-330.5" font-family="Helvetica,sans-Serif" font-size="10.00">Kineis/App/Managers</text>
<text text-anchor="start" x="912" y="-319.5" font-family="Helvetica,sans-Serif" font-size="10.00">/MGR_AT_CMD/Inc/mgr</text>
<text text-anchor="middle" x="968.5" y="-308.5" font-family="Helvetica,sans-Serif" font-size="10.00">_at_cmd.h</text>
</a>
</g>
</g>
<!-- Node1&#45;&gt;Node14 -->
<g id="edge14" class="edge">
<title>Node1&#45;&gt;Node14</title>
<path fill="none" stroke="midnightblue" d="M1193.12,-377.08C1149.31,-366.53 1082.53,-350.45 1033.16,-338.57"/>
<polygon fill="midnightblue" stroke="midnightblue" points="1192.38,-380.5 1202.92,-379.44 1194.02,-373.69 1192.38,-380.5"/>
</g>
<!-- Node15 -->
<g id="node15" class="node">
<title>Node15</title>
<g id="a_node15"><a xlink:href="../../da/d77/mgr__at__cmd_8c.html" target="_top" xlink:title="APIs Implementation used to parse the UART ASCII data stream and extract AT commands.">
<polygon fill="white" stroke="black" points="877.5,-223.5 877.5,-264.5 1007.5,-264.5 1007.5,-223.5 877.5,-223.5"/>
<text text-anchor="start" x="885.5" y="-252.5" font-family="Helvetica,sans-Serif" font-size="10.00">Kineis/App/Managers</text>
<text text-anchor="start" x="885.5" y="-241.5" font-family="Helvetica,sans-Serif" font-size="10.00">/MGR_AT_CMD/Src/mgr</text>
<text text-anchor="middle" x="942.5" y="-230.5" font-family="Helvetica,sans-Serif" font-size="10.00">_at_cmd.c</text>
</a>
</g>
</g>
<!-- Node1&#45;&gt;Node15 -->
<g id="edge21" class="edge">
<title>Node1&#45;&gt;Node15</title>
<path fill="none" stroke="midnightblue" d="M1204.96,-375.95C1182.01,-367.42 1151.06,-355.34 1124.5,-343 1096.19,-329.84 1022.28,-289.3 977.84,-264.67"/>
<polygon fill="midnightblue" stroke="midnightblue" points="1203.98,-379.32 1214.58,-379.49 1206.4,-372.75 1203.98,-379.32"/>
</g>
<!-- Node16 -->
<g id="node16" class="node">
<title>Node16</title>
<g id="a_node16"><a xlink:href="../../de/de6/mgr__at__cmd__list__user__data_8h.html" target="_top" xlink:title="subset of AT commands concerning user data manipulation such as TX">
<polygon fill="white" stroke="black" points="1376.5,-223.5 1376.5,-264.5 1516.5,-264.5 1516.5,-223.5 1376.5,-223.5"/>
<text text-anchor="start" x="1384.5" y="-252.5" font-family="Helvetica,sans-Serif" font-size="10.00">Kineis/App/Managers</text>
<text text-anchor="start" x="1384.5" y="-241.5" font-family="Helvetica,sans-Serif" font-size="10.00">/MGR_AT_CMD/Inc/mgr</text>
<text text-anchor="middle" x="1446.5" y="-230.5" font-family="Helvetica,sans-Serif" font-size="10.00">_at_cmd_list_user_data.h</text>
</a>
</g>
</g>
<!-- Node1&#45;&gt;Node16 -->
<g id="edge17" class="edge">
<title>Node1&#45;&gt;Node16</title>
<path fill="none" stroke="midnightblue" d="M1286.92,-376.7C1311.04,-369.57 1339.82,-358.69 1362.5,-343 1393.28,-321.71 1419.65,-286.49 1434.26,-264.58"/>
<polygon fill="midnightblue" stroke="midnightblue" points="1285.92,-373.35 1277.24,-379.44 1287.82,-380.09 1285.92,-373.35"/>
</g>
<!-- Node18 -->
<g id="node18" class="node">
<title>Node18</title>
<g id="a_node18"><a xlink:href="../../d1/dfd/mgr__at__cmd__list__general_8c.html" target="_top" xlink:title="subset of AT commands concerning general purpose (get ID, FW version, ...)">
<polygon fill="white" stroke="black" points="1234.5,-145.5 1234.5,-186.5 1364.5,-186.5 1364.5,-145.5 1234.5,-145.5"/>
<text text-anchor="start" x="1242.5" y="-174.5" font-family="Helvetica,sans-Serif" font-size="10.00">Kineis/App/Managers</text>
<text text-anchor="start" x="1242.5" y="-163.5" font-family="Helvetica,sans-Serif" font-size="10.00">/MGR_AT_CMD/Src/mgr</text>
<text text-anchor="middle" x="1299.5" y="-152.5" font-family="Helvetica,sans-Serif" font-size="10.00">_at_cmd_list_general.c</text>
</a>
</g>
</g>
<!-- Node1&#45;&gt;Node18 -->
<g id="edge23" class="edge">
<title>Node1&#45;&gt;Node18</title>
<path fill="none" stroke="midnightblue" d="M1272.3,-375.23C1286.41,-368.04 1301.39,-357.53 1309.5,-343 1337.63,-292.63 1318.91,-221.02 1307.09,-186.75"/>
<polygon fill="midnightblue" stroke="midnightblue" points="1270.8,-372.07 1263.24,-379.49 1273.78,-378.41 1270.8,-372.07"/>
</g>
<!-- Node19 -->
<g id="node19" class="node">
<title>Node19</title>
<g id="a_node19"><a xlink:href="../../d2/d04/mgr__at__cmd__list__certif_8c.html" target="_top" xlink:title="subset of AT commands concerning specifics for certification">
<polygon fill="white" stroke="black" points="1952.5,-223.5 1952.5,-264.5 2082.5,-264.5 2082.5,-223.5 1952.5,-223.5"/>
<text text-anchor="start" x="1960.5" y="-252.5" font-family="Helvetica,sans-Serif" font-size="10.00">Kineis/App/Managers</text>
<text text-anchor="start" x="1960.5" y="-241.5" font-family="Helvetica,sans-Serif" font-size="10.00">/MGR_AT_CMD/Src/mgr</text>
<text text-anchor="middle" x="2017.5" y="-230.5" font-family="Helvetica,sans-Serif" font-size="10.00">_at_cmd_list_certif.c</text>
</a>
</g>
</g>
<!-- Node1&#45;&gt;Node19 -->
<g id="edge22" class="edge">
<title>Node1&#45;&gt;Node19</title>
<path fill="none" stroke="midnightblue" d="M1311.53,-385.92C1473.43,-380.9 1852.4,-366.75 1905.5,-343 1929.89,-332.09 1928.55,-318.77 1948.5,-301 1962.55,-288.48 1978.88,-275.18 1992.13,-264.68"/>
<polygon fill="midnightblue" stroke="midnightblue" points="1311.08,-382.43 1301.19,-386.24 1311.29,-389.43 1311.08,-382.43"/>
</g>
<!-- Node20 -->
<g id="node20" class="node">
<title>Node20</title>
<g id="a_node20"><a xlink:href="../../dc/d0e/mcu__misc_8h.html" target="_top" xlink:title="MCU wrappers for miscellaneous features.">
<polygon fill="white" stroke="black" points="1176.5,-307 1176.5,-337 1300.5,-337 1300.5,-307 1176.5,-307"/>
<text text-anchor="start" x="1184.5" y="-325" font-family="Helvetica,sans-Serif" font-size="10.00">Kineis/Extdep/Mcu/Inc</text>
<text text-anchor="middle" x="1238.5" y="-314" font-family="Helvetica,sans-Serif" font-size="10.00">/mcu_misc.h</text>
</a>
</g>
</g>
<!-- Node1&#45;&gt;Node20 -->
<g id="edge25" class="edge">
<title>Node1&#45;&gt;Node20</title>
<path fill="none" stroke="midnightblue" d="M1238.5,-368.91C1238.5,-358.72 1238.5,-346.4 1238.5,-337.09"/>
<polygon fill="midnightblue" stroke="midnightblue" points="1235,-369.23 1238.5,-379.23 1242,-369.23 1235,-369.23"/>
</g>
<!-- Node22 -->
<g id="node22" class="node">
<title>Node22</title>
<g id="a_node22"><a xlink:href="../../d8/dd2/mcu__nvm_8h.html" target="_top" xlink:title="MCU wrappers for Non volatile memory management.">
<polygon fill="white" stroke="black" points="2119.5,-307 2119.5,-337 2243.5,-337 2243.5,-307 2119.5,-307"/>
<text text-anchor="start" x="2127.5" y="-325" font-family="Helvetica,sans-Serif" font-size="10.00">Kineis/Extdep/Mcu/Inc</text>
<text text-anchor="middle" x="2181.5" y="-314" font-family="Helvetica,sans-Serif" font-size="10.00">/mcu_nvm.h</text>
</a>
</g>
</g>
<!-- Node1&#45;&gt;Node22 -->
<g id="edge28" class="edge">
<title>Node1&#45;&gt;Node22</title>
<path fill="none" stroke="midnightblue" d="M1311.4,-386.14C1491.4,-381.25 1953.29,-366.72 2105.5,-343 2114.94,-341.53 2124.9,-339.37 2134.38,-337"/>
<polygon fill="midnightblue" stroke="midnightblue" points="1311.15,-382.65 1301.24,-386.42 1311.33,-389.65 1311.15,-382.65"/>
</g>
<!-- Node23 -->
<g id="node23" class="node">
<title>Node23</title>
<g id="a_node23"><a xlink:href="../../d6/d2f/mcu__nvm_8c.html" target="_top" xlink:title="MCU wrapper for any access to the non volatile memory accesses.">
<polygon fill="white" stroke="black" points="2113,-229 2113,-259 2238,-259 2238,-229 2113,-229"/>
<text text-anchor="start" x="2121" y="-247" font-family="Helvetica,sans-Serif" font-size="10.00">Kineis/Extdep/Mcu/Src</text>
<text text-anchor="middle" x="2175.5" y="-236" font-family="Helvetica,sans-Serif" font-size="10.00">/mcu_nvm.c</text>
</a>
</g>
</g>
<!-- Node1&#45;&gt;Node23 -->
<g id="edge34" class="edge">
<title>Node1&#45;&gt;Node23</title>
<path fill="none" stroke="midnightblue" d="M1311.41,-387.17C1501.76,-384.58 2003.69,-374.77 2071.5,-343 2094.57,-332.19 2092.16,-318.67 2110.5,-301 2126.05,-286.01 2144.84,-270.04 2158.21,-259"/>
<polygon fill="midnightblue" stroke="midnightblue" points="1311.18,-383.68 1301.22,-387.31 1311.27,-390.68 1311.18,-383.68"/>
</g>
<!-- Node24 -->
<g id="node24" class="node">
<title>Node24</title>
<g id="a_node24"><a xlink:href="../../d4/dbe/mcu__tim_8h.html" target="_top" xlink:title="MCU wrappers for timer or non&#45;blocking delays used by Kineis stack.">
<polygon fill="white" stroke="black" points="633.5,-307 633.5,-337 757.5,-337 757.5,-307 633.5,-307"/>
<text text-anchor="start" x="641.5" y="-325" font-family="Helvetica,sans-Serif" font-size="10.00">Kineis/Extdep/Mcu/Inc</text>
<text text-anchor="middle" x="695.5" y="-314" font-family="Helvetica,sans-Serif" font-size="10.00">/mcu_tim.h</text>
</a>
</g>
</g>
<!-- Node1&#45;&gt;Node24 -->
<g id="edge30" class="edge">
<title>Node1&#45;&gt;Node24</title>
<path fill="none" stroke="midnightblue" d="M1165.6,-385.11C1072.39,-380.49 906.3,-369.13 766.5,-343 758.07,-341.42 749.18,-339.3 740.66,-337.03"/>
<polygon fill="midnightblue" stroke="midnightblue" points="1165.62,-388.62 1175.77,-385.6 1165.95,-381.62 1165.62,-388.62"/>
</g>
<!-- Node26 -->
<g id="node26" class="node">
<title>Node26</title>
<g id="a_node26"><a xlink:href="../../d7/de1/mcu__aes_8c.html" target="_top" xlink:title="MCU wrapper for encryption/decryption wrappers utilities.">
<polygon fill="white" stroke="black" points="2262,-307 2262,-337 2387,-337 2387,-307 2262,-307"/>
<text text-anchor="start" x="2270" y="-325" font-family="Helvetica,sans-Serif" font-size="10.00">Kineis/Extdep/Mcu/Src</text>
<text text-anchor="middle" x="2324.5" y="-314" font-family="Helvetica,sans-Serif" font-size="10.00">/mcu_aes.c</text>
</a>
</g>
</g>
<!-- Node1&#45;&gt;Node26 -->
<g id="edge33" class="edge">
<title>Node1&#45;&gt;Node26</title>
<path fill="none" stroke="midnightblue" d="M1311.18,-386.91C1511.9,-383.57 2070.97,-371.86 2252.5,-343 2261.47,-341.57 2270.92,-339.43 2279.91,-337.07"/>
<polygon fill="midnightblue" stroke="midnightblue" points="1310.98,-383.41 1301.04,-387.08 1311.1,-390.41 1310.98,-383.41"/>
</g>
<!-- Node27 -->
<g id="node27" class="node">
<title>Node27</title>
<g id="a_node27"><a xlink:href="../../d9/d57/kns__cfg_8h.html" target="_top" xlink:title="Device communication driver for Kineis radio frequence.">
<polygon fill="white" stroke="black" points="1026,-234.5 1026,-253.5 1139,-253.5 1139,-234.5 1026,-234.5"/>
<text text-anchor="middle" x="1082.5" y="-241.5" font-family="Helvetica,sans-Serif" font-size="10.00">Kineis/Lib/kns_cfg.h</text>
</a>
</g>
</g>
<!-- Node1&#45;&gt;Node27 -->
<g id="edge35" class="edge">
<title>Node1&#45;&gt;Node27</title>
<path fill="none" stroke="midnightblue" d="M1213.33,-374.47C1199.17,-366.29 1181.56,-355.1 1167.5,-343 1133.87,-314.06 1101.66,-271.63 1088.6,-253.6"/>
<polygon fill="midnightblue" stroke="midnightblue" points="1211.64,-377.54 1222.07,-379.4 1215.08,-371.44 1211.64,-377.54"/>
</g>
<!-- Node28 -->
<g id="node28" class="node">
<title>Node28</title>
<g id="a_node28"><a xlink:href="../../df/d64/kns__mac__evt_8h.html" target="_top" xlink:title=" ">
<polygon fill="white" stroke="black" points="221.5,-307 221.5,-337 331.5,-337 331.5,-307 221.5,-307"/>
<text text-anchor="start" x="229.5" y="-325" font-family="Helvetica,sans-Serif" font-size="10.00">Kineis/Lib/kns_mac</text>
<text text-anchor="middle" x="276.5" y="-314" font-family="Helvetica,sans-Serif" font-size="10.00">_evt.h</text>
</a>
</g>
</g>
<!-- Node1&#45;&gt;Node28 -->
<g id="edge38" class="edge">
<title>Node1&#45;&gt;Node28</title>
<path fill="none" stroke="midnightblue" d="M1165.64,-386.5C981.8,-382.38 502.61,-369.36 345.5,-343 336.89,-341.56 327.83,-339.41 319.21,-337.04"/>
<polygon fill="midnightblue" stroke="midnightblue" points="1165.67,-390 1175.74,-386.73 1165.83,-383.01 1165.67,-390"/>
</g>
<!-- Node33 -->
<g id="node33" class="node">
<title>Node33</title>
<g id="a_node33"><a xlink:href="../../d8/d4a/kns__mac__prfl__cfg_8h.html" target="_top" xlink:title="Header file describing the ser settings required to configure a MAC protocol.">
<polygon fill="white" stroke="black" points="775.5,-307 775.5,-337 885.5,-337 885.5,-307 775.5,-307"/>
<text text-anchor="start" x="783.5" y="-325" font-family="Helvetica,sans-Serif" font-size="10.00">Kineis/Lib/kns_mac</text>
<text text-anchor="middle" x="830.5" y="-314" font-family="Helvetica,sans-Serif" font-size="10.00">_prfl_cfg.h</text>
</a>
</g>
</g>
<!-- Node1&#45;&gt;Node33 -->
<g id="edge51" class="edge">
<title>Node1&#45;&gt;Node33</title>
<path fill="none" stroke="midnightblue" d="M1165.74,-382.16C1095.68,-375.68 987.01,-363.35 894.5,-343 887.11,-341.37 879.35,-339.29 871.88,-337.07"/>
<polygon fill="midnightblue" stroke="midnightblue" points="1165.52,-385.66 1175.79,-383.08 1166.15,-378.68 1165.52,-385.66"/>
</g>
<!-- Node34 -->
<g id="node34" class="node">
<title>Node34</title>
<g id="a_node34"><a xlink:href="../../df/d53/kns__rf_8h.html" target="_top" xlink:title="Device communication driver for Kinéis radio frequence.">
<polygon fill="white" stroke="black" points="1958,-312.5 1958,-331.5 2063,-331.5 2063,-312.5 1958,-312.5"/>
<text text-anchor="middle" x="2010.5" y="-319.5" font-family="Helvetica,sans-Serif" font-size="10.00">Kineis/Lib/kns_rf.h</text>
</a>
</g>
</g>
<!-- Node1&#45;&gt;Node34 -->
<g id="edge53" class="edge">
<title>Node1&#45;&gt;Node34</title>
<path fill="none" stroke="midnightblue" d="M1311.44,-388.75C1440.13,-388.88 1715.46,-383.77 1943.5,-343 1958.08,-340.39 1973.98,-335.73 1986.63,-331.56"/>
<polygon fill="midnightblue" stroke="midnightblue" points="1311.32,-385.25 1301.31,-388.73 1311.3,-392.25 1311.32,-385.25"/>
</g>
<!-- Node35 -->
<g id="node35" class="node">
<title>Node35</title>
<g id="a_node35"><a xlink:href="../../d7/d8a/kns__srvc__common_8h.html" target="_top" xlink:title="Common part of Kinéis service layer.">
<polygon fill="white" stroke="black" points="93.5,-307 93.5,-337 203.5,-337 203.5,-307 93.5,-307"/>
<text text-anchor="start" x="101.5" y="-325" font-family="Helvetica,sans-Serif" font-size="10.00">Kineis/Lib/kns_srvc</text>
<text text-anchor="middle" x="148.5" y="-314" font-family="Helvetica,sans-Serif" font-size="10.00">_common.h</text>
</a>
</g>
</g>
<!-- Node1&#45;&gt;Node35 -->
<g id="edge55" class="edge">
<title>Node1&#45;&gt;Node35</title>
<path fill="none" stroke="midnightblue" d="M1165.63,-387.25C963.02,-384.78 395.91,-375.12 212.5,-343 204.36,-341.57 195.81,-339.4 187.71,-337"/>
<polygon fill="midnightblue" stroke="midnightblue" points="1165.82,-390.75 1175.86,-387.37 1165.9,-383.75 1165.82,-390.75"/>
</g>
<!-- Node36 -->
<g id="node36" class="node">
<title>Node36</title>
<g id="a_node36"><a xlink:href="../../df/d63/mgr__lpm_8h.html" target="_top" xlink:title="low power mode manager is in charge to collect all low power needs from &#39;clients&#39; and setup the corre...">
<polygon fill="white" stroke="black" points="1669.5,-307 1669.5,-337 1779.5,-337 1779.5,-307 1669.5,-307"/>
<text text-anchor="start" x="1677.5" y="-325" font-family="Helvetica,sans-Serif" font-size="10.00">Kineis/Lpm/Inc/mgr</text>
<text text-anchor="middle" x="1724.5" y="-314" font-family="Helvetica,sans-Serif" font-size="10.00">_lpm.h</text>
</a>
</g>
</g>
<!-- Node1&#45;&gt;Node36 -->
<g id="edge57" class="edge">
<title>Node1&#45;&gt;Node36</title>
<path fill="none" stroke="midnightblue" d="M1311.15,-378.28C1409.09,-365.18 1581.31,-342.15 1669.33,-330.38"/>
<polygon fill="midnightblue" stroke="midnightblue" points="1310.49,-374.84 1301.04,-379.64 1311.42,-381.78 1310.49,-374.84"/>
</g>
<!-- Node3 -->
<g id="node3" class="node">
<title>Node3</title>
<g id="a_node3"><a xlink:href="../../d0/d29/main_8c.html" target="_top" xlink:title=": Main program body">
<polygon fill="white" stroke="black" points="670,-78.5 670,-97.5 763,-97.5 763,-78.5 670,-78.5"/>
<text text-anchor="middle" x="716.5" y="-85.5" font-family="Helvetica,sans-Serif" font-size="10.00">Core/Src/main.c</text>
</a>
</g>
</g>
<!-- Node2&#45;&gt;Node3 -->
<g id="edge2" class="edge">
<title>Node2&#45;&gt;Node3</title>
<path fill="none" stroke="midnightblue" d="M489.62,-296.93C486.57,-259.4 486.63,-186.91 525.5,-145 567.73,-99.47 601.21,-127.46 660.5,-109 671.64,-105.53 683.85,-101.23 694.03,-97.5"/>
<polygon fill="midnightblue" stroke="midnightblue" points="486.15,-297.34 490.59,-306.96 493.12,-296.67 486.15,-297.34"/>
</g>
<!-- Node4 -->
<g id="node4" class="node">
<title>Node4</title>
<g id="a_node4"><a xlink:href="../../d4/d95/kns__os_8c.html" target="_top" xlink:title="Minimalist baremetal OS to be used with Kineis software stack.">
<polygon fill="white" stroke="black" points="342.5,-229 342.5,-259 464.5,-259 464.5,-229 342.5,-229"/>
<text text-anchor="start" x="350.5" y="-247" font-family="Helvetica,sans-Serif" font-size="10.00">Kineis/App/Kineis_os</text>
<text text-anchor="middle" x="403.5" y="-236" font-family="Helvetica,sans-Serif" font-size="10.00">/KNS_OS/Src/kns_os.c</text>
</a>
</g>
</g>
<!-- Node2&#45;&gt;Node4 -->
<g id="edge3" class="edge">
<title>Node2&#45;&gt;Node4</title>
<path fill="none" stroke="midnightblue" d="M467.78,-299.89C452.6,-286.93 433.57,-270.68 420.17,-259.23"/>
<polygon fill="midnightblue" stroke="midnightblue" points="465.88,-302.87 475.76,-306.7 470.43,-297.55 465.88,-302.87"/>
</g>
<!-- Node5&#45;&gt;Node3 -->
<g id="edge5" class="edge">
<title>Node5&#45;&gt;Node3</title>
<path fill="none" stroke="midnightblue" d="M464.21,-148.42C469.04,-147.23 473.84,-146.07 478.5,-145 558.85,-126.5 581.01,-130.93 660.5,-109 672.04,-105.82 684.62,-101.41 694.93,-97.54"/>
<polygon fill="midnightblue" stroke="midnightblue" points="463.16,-145.07 454.31,-150.91 464.87,-151.86 463.16,-145.07"/>
</g>
<!-- Node6 -->
<g id="node6" class="node">
<title>Node6</title>
<g id="a_node6"><a xlink:href="../../d0/d08/kns__q__baremetal_8c.html" target="_top" xlink:title="Configuration of queues used in kineis_swr.">
<polygon fill="white" stroke="black" points="127.5,-73 127.5,-103 293.5,-103 293.5,-73 127.5,-73"/>
<text text-anchor="start" x="135.5" y="-91" font-family="Helvetica,sans-Serif" font-size="10.00">Kineis/App/Kineis_os</text>
<text text-anchor="middle" x="210.5" y="-80" font-family="Helvetica,sans-Serif" font-size="10.00">/KNS_Q/Src/kns_q_baremetal.c</text>
</a>
</g>
</g>
<!-- Node5&#45;&gt;Node6 -->
<g id="edge6" class="edge">
<title>Node5&#45;&gt;Node6</title>
<path fill="none" stroke="midnightblue" d="M357.14,-147.05C323.16,-133.59 277.3,-115.44 245.97,-103.04"/>
<polygon fill="midnightblue" stroke="midnightblue" points="356.25,-150.46 366.84,-150.88 358.83,-143.95 356.25,-150.46"/>
</g>
<!-- Node8 -->
<g id="node8" class="node">
<title>Node8</title>
<g id="a_node8"><a xlink:href="../../d5/d11/kns__q__cmsis__os2_8c.html" target="_top" xlink:title=" ">
<polygon fill="white" stroke="black" points="312,-73 312,-103 479,-103 479,-73 312,-73"/>
<text text-anchor="start" x="320" y="-91" font-family="Helvetica,sans-Serif" font-size="10.00">Kineis/App/Kineis_os</text>
<text text-anchor="middle" x="395.5" y="-80" font-family="Helvetica,sans-Serif" font-size="10.00">/KNS_Q/Src/kns_q_cmsis_os2.c</text>
</a>
</g>
</g>
<!-- Node5&#45;&gt;Node8 -->
<g id="edge8" class="edge">
<title>Node5&#45;&gt;Node8</title>
<path fill="none" stroke="midnightblue" d="M400.25,-140.59C399.12,-128.26 397.78,-113.72 396.81,-103.23"/>
<polygon fill="midnightblue" stroke="midnightblue" points="396.78,-141.07 401.18,-150.7 403.75,-140.43 396.78,-141.07"/>
</g>
<!-- Node9 -->
<g id="node9" class="node">
<title>Node9</title>
<g id="a_node9"><a xlink:href="../../d2/d9c/kns__q__freertos_8c.html" target="_top" xlink:title="Configuration of queues used in kineis_swr.">
<polygon fill="white" stroke="black" points="497.5,-73 497.5,-103 651.5,-103 651.5,-73 497.5,-73"/>
<text text-anchor="start" x="505.5" y="-91" font-family="Helvetica,sans-Serif" font-size="10.00">Kineis/App/Kineis_os</text>
<text text-anchor="middle" x="574.5" y="-80" font-family="Helvetica,sans-Serif" font-size="10.00">/KNS_Q/Src/kns_q_freertos.c</text>
</a>
</g>
</g>
<!-- Node5&#45;&gt;Node9 -->
<g id="edge9" class="edge">
<title>Node5&#45;&gt;Node9</title>
<path fill="none" stroke="midnightblue" d="M443.92,-146.7C474.28,-133.28 514.9,-115.34 542.72,-103.04"/>
<polygon fill="midnightblue" stroke="midnightblue" points="442.18,-143.64 434.45,-150.88 445.01,-150.04 442.18,-143.64"/>
</g>
<!-- Node10 -->
<g id="node10" class="node">
<title>Node10</title>
<g id="a_node10"><a xlink:href="../../d4/d0d/kns__app_8c.html" target="_top" xlink:title=" ">
<polygon fill="white" stroke="black" points="781.5,-78.5 781.5,-97.5 901.5,-97.5 901.5,-78.5 781.5,-78.5"/>
<text text-anchor="middle" x="841.5" y="-85.5" font-family="Helvetica,sans-Serif" font-size="10.00">Kineis/App/kns_app.c</text>
</a>
</g>
</g>
<!-- Node5&#45;&gt;Node10 -->
<g id="edge10" class="edge">
<title>Node5&#45;&gt;Node10</title>
<path fill="none" stroke="midnightblue" d="M471.81,-155.56C562.32,-143.05 715.8,-121.13 771.5,-109 785.95,-105.85 801.81,-101.4 814.78,-97.5"/>
<polygon fill="midnightblue" stroke="midnightblue" points="471.06,-152.13 461.63,-156.96 472.02,-159.06 471.06,-152.13"/>
</g>
<!-- Node5&#45;&gt;Node11 -->
<g id="edge11" class="edge">
<title>Node5&#45;&gt;Node11</title>
<path fill="none" stroke="midnightblue" d="M471.7,-154.69C496.23,-151.27 524.06,-147.66 549.5,-145 766.68,-122.27 823.9,-143.61 1039.5,-109 1042.75,-108.48 1046.06,-107.89 1049.4,-107.25"/>
<polygon fill="midnightblue" stroke="midnightblue" points="471.18,-151.23 461.76,-156.09 472.16,-158.16 471.18,-151.23"/>
</g>
<!-- Node12 -->
<g id="node12" class="node">
<title>Node12</title>
<g id="a_node12"><a xlink:href="../../d2/dae/kns__q__conf_8c.html" target="_top" xlink:title="Configuration of queues used in kineis_swr.">
<polygon fill="white" stroke="black" points="0,-73 0,-103 109,-103 109,-73 0,-73"/>
<text text-anchor="start" x="8" y="-91" font-family="Helvetica,sans-Serif" font-size="10.00">Kineis/Extdep/Conf</text>
<text text-anchor="middle" x="54.5" y="-80" font-family="Helvetica,sans-Serif" font-size="10.00">/kns_q_conf.c</text>
</a>
</g>
</g>
<!-- Node5&#45;&gt;Node12 -->
<g id="edge12" class="edge">
<title>Node5&#45;&gt;Node12</title>
<path fill="none" stroke="midnightblue" d="M333.23,-153.5C275.43,-143.39 191.1,-127.44 118.5,-109 111.62,-107.25 104.38,-105.2 97.35,-103.09"/>
<polygon fill="midnightblue" stroke="midnightblue" points="332.89,-157 343.34,-155.26 334.09,-150.1 332.89,-157"/>
</g>
<!-- Node13 -->
<g id="node13" class="node">
<title>Node13</title>
<g id="a_node13"><a xlink:href="../../dd/d8d/mgr__lpm_8c.html" target="_top" xlink:title="low power mode manager is in charge to collect all low power needs from &#39;clients&#39; and setup the corre...">
<polygon fill="white" stroke="black" points="920,-73 920,-103 1031,-103 1031,-73 920,-73"/>
<text text-anchor="start" x="928" y="-91" font-family="Helvetica,sans-Serif" font-size="10.00">Kineis/Lpm/Src/mgr</text>
<text text-anchor="middle" x="975.5" y="-80" font-family="Helvetica,sans-Serif" font-size="10.00">_lpm.c</text>
</a>
</g>
</g>
<!-- Node5&#45;&gt;Node13 -->
<g id="edge13" class="edge">
<title>Node5&#45;&gt;Node13</title>
<path fill="none" stroke="midnightblue" d="M471.74,-155.06C496.28,-151.67 524.1,-147.99 549.5,-145 709.63,-126.13 752.44,-140.87 910.5,-109 918.25,-107.44 926.4,-105.32 934.21,-103.05"/>
<polygon fill="midnightblue" stroke="midnightblue" points="471.23,-151.6 461.8,-156.44 472.19,-158.53 471.23,-151.6"/>
</g>
<!-- Node7 -->
<g id="node7" class="node">
<title>Node7</title>
<g id="a_node7"><a xlink:href="../../d7/d30/kns__q_8c.html" target="_top" xlink:title="Configuration of queues used in kineis_swr.">
<polygon fill="white" stroke="black" points="151.5,-0.5 151.5,-30.5 269.5,-30.5 269.5,-0.5 151.5,-0.5"/>
<text text-anchor="start" x="159.5" y="-18.5" font-family="Helvetica,sans-Serif" font-size="10.00">Kineis/App/Kineis_os</text>
<text text-anchor="middle" x="210.5" y="-7.5" font-family="Helvetica,sans-Serif" font-size="10.00">/KNS_Q/Src/kns_q.c</text>
</a>
</g>
</g>
<!-- Node6&#45;&gt;Node7 -->
<g id="edge7" class="edge">
<title>Node6&#45;&gt;Node7</title>
<path fill="none" stroke="midnightblue" d="M210.5,-62.73C210.5,-52.07 210.5,-39.91 210.5,-30.75"/>
<polygon fill="midnightblue" stroke="midnightblue" points="207,-62.73 210.5,-72.73 214,-62.73 207,-62.73"/>
</g>
<!-- Node14&#45;&gt;Node10 -->
<g id="edge15" class="edge">
<title>Node14&#45;&gt;Node10</title>
<path fill="none" stroke="midnightblue" d="M904.33,-296.41C890.6,-288.34 877.52,-278.01 868.5,-265 830.98,-210.89 837.2,-124.98 840.35,-97.65"/>
<polygon fill="midnightblue" stroke="midnightblue" points="902.97,-299.65 913.42,-301.38 906.33,-293.51 902.97,-299.65"/>
</g>
<!-- Node14&#45;&gt;Node15 -->
<g id="edge16" class="edge">
<title>Node14&#45;&gt;Node15</title>
<path fill="none" stroke="midnightblue" d="M958.54,-291.88C955.4,-282.72 952.02,-272.83 949.17,-264.51"/>
<polygon fill="midnightblue" stroke="midnightblue" points="955.26,-293.1 961.8,-301.43 961.88,-290.83 955.26,-293.1"/>
</g>
<!-- Node16&#45;&gt;Node11 -->
<g id="edge20" class="edge">
<title>Node16&#45;&gt;Node11</title>
<path fill="none" stroke="midnightblue" d="M1494.42,-217.56C1505.28,-209.35 1515.41,-199.15 1521.5,-187 1529.87,-170.31 1533.75,-159.08 1521.5,-145 1479.34,-96.56 1293.47,-88.71 1189.87,-88.21"/>
<polygon fill="midnightblue" stroke="midnightblue" points="1492.19,-214.85 1486.02,-223.45 1496.21,-220.58 1492.19,-214.85"/>
</g>
<!-- Node17 -->
<g id="node17" class="node">
<title>Node17</title>
<g id="a_node17"><a xlink:href="../../da/df9/mgr__at__cmd__list_8c.html" target="_top" xlink:title="AT commands list main file.">
<polygon fill="white" stroke="black" points="1382.5,-145.5 1382.5,-186.5 1512.5,-186.5 1512.5,-145.5 1382.5,-145.5"/>
<text text-anchor="start" x="1390.5" y="-174.5" font-family="Helvetica,sans-Serif" font-size="10.00">Kineis/App/Managers</text>
<text text-anchor="start" x="1390.5" y="-163.5" font-family="Helvetica,sans-Serif" font-size="10.00">/MGR_AT_CMD/Src/mgr</text>
<text text-anchor="middle" x="1447.5" y="-152.5" font-family="Helvetica,sans-Serif" font-size="10.00">_at_cmd_list.c</text>
</a>
</g>
</g>
<!-- Node16&#45;&gt;Node17 -->
<g id="edge18" class="edge">
<title>Node16&#45;&gt;Node17</title>
<path fill="none" stroke="midnightblue" d="M1446.89,-213.3C1447.01,-204.3 1447.14,-194.65 1447.24,-186.51"/>
<polygon fill="midnightblue" stroke="midnightblue" points="1443.39,-213.38 1446.76,-223.43 1450.39,-213.48 1443.39,-213.38"/>
</g>
<!-- Node16&#45;&gt;Node18 -->
<g id="edge19" class="edge">
<title>Node16&#45;&gt;Node18</title>
<path fill="none" stroke="midnightblue" d="M1399.63,-218.77C1379.48,-208.35 1356.24,-196.34 1337.23,-186.51"/>
<polygon fill="midnightblue" stroke="midnightblue" points="1398.15,-221.94 1408.64,-223.43 1401.37,-215.73 1398.15,-221.94"/>
</g>
<!-- Node20&#45;&gt;Node18 -->
<g id="edge26" class="edge">
<title>Node20&#45;&gt;Node18</title>
<path fill="none" stroke="midnightblue" d="M1264.15,-300.13C1274.12,-290.53 1284.55,-278.32 1290.5,-265 1301.79,-239.73 1302.39,-207.2 1301.32,-186.71"/>
<polygon fill="midnightblue" stroke="midnightblue" points="1261.72,-297.6 1256.7,-306.93 1266.45,-302.77 1261.72,-297.6"/>
</g>
<!-- Node21 -->
<g id="node21" class="node">
<title>Node21</title>
<g id="a_node21"><a xlink:href="../../df/ddf/mcu__misc_8c.html" target="_top" xlink:title="File to implement miscellaneous features for a specific design.">
<polygon fill="white" stroke="black" points="1157,-229 1157,-259 1282,-259 1282,-229 1157,-229"/>
<text text-anchor="start" x="1165" y="-247" font-family="Helvetica,sans-Serif" font-size="10.00">Kineis/Extdep/Mcu/Src</text>
<text text-anchor="middle" x="1219.5" y="-236" font-family="Helvetica,sans-Serif" font-size="10.00">/mcu_misc.c</text>
</a>
</g>
</g>
<!-- Node20&#45;&gt;Node21 -->
<g id="edge27" class="edge">
<title>Node20&#45;&gt;Node21</title>
<path fill="none" stroke="midnightblue" d="M1232.49,-296.96C1229.39,-284.55 1225.71,-269.83 1223.06,-259.23"/>
<polygon fill="midnightblue" stroke="midnightblue" points="1229.11,-297.85 1234.93,-306.7 1235.9,-296.15 1229.11,-297.85"/>
</g>
<!-- Node22&#45;&gt;Node23 -->
<g id="edge29" class="edge">
<title>Node22&#45;&gt;Node23</title>
<path fill="none" stroke="midnightblue" d="M2179.57,-296.59C2178.6,-284.26 2177.45,-269.72 2176.62,-259.23"/>
<polygon fill="midnightblue" stroke="midnightblue" points="2176.1,-297.01 2180.37,-306.7 2183.07,-296.46 2176.1,-297.01"/>
</g>
<!-- Node24&#45;&gt;Node3 -->
<g id="edge31" class="edge">
<title>Node24&#45;&gt;Node3</title>
<path fill="none" stroke="midnightblue" d="M623.39,-311.06C595.53,-303.3 566.35,-289.51 549.5,-265 519.29,-221.05 518.14,-188.14 549.5,-145 580,-103.05 611.41,-125.72 660.5,-109 671.25,-105.34 683.1,-101.13 693.12,-97.52"/>
<polygon fill="midnightblue" stroke="midnightblue" points="622.61,-314.47 633.17,-313.55 624.35,-307.69 622.61,-314.47"/>
</g>
<!-- Node25 -->
<g id="node25" class="node">
<title>Node25</title>
<g id="a_node25"><a xlink:href="../../dd/d3f/mcu__tim_8c.html" target="_top" xlink:title="MCU wrappers for timer or non&#45;blocking delays used by Kineis stack.">
<polygon fill="white" stroke="black" points="696,-229 696,-259 821,-259 821,-229 696,-229"/>
<text text-anchor="start" x="704" y="-247" font-family="Helvetica,sans-Serif" font-size="10.00">Kineis/Extdep/Mcu/Src</text>
<text text-anchor="middle" x="758.5" y="-236" font-family="Helvetica,sans-Serif" font-size="10.00">/mcu_tim.c</text>
</a>
</g>
</g>
<!-- Node24&#45;&gt;Node25 -->
<g id="edge32" class="edge">
<title>Node24&#45;&gt;Node25</title>
<path fill="none" stroke="midnightblue" d="M713.9,-298.81C724.49,-286.03 737.48,-270.36 746.7,-259.23"/>
<polygon fill="midnightblue" stroke="midnightblue" points="711.04,-296.77 707.35,-306.7 716.43,-301.24 711.04,-296.77"/>
</g>
<!-- Node27&#45;&gt;Node10 -->
<g id="edge36" class="edge">
<title>Node27&#45;&gt;Node10</title>
<path fill="none" stroke="midnightblue" d="M1060.23,-228.77C1011.1,-197.38 894.66,-122.97 855,-97.63"/>
<polygon fill="midnightblue" stroke="midnightblue" points="1058.54,-231.84 1068.85,-234.28 1062.31,-225.95 1058.54,-231.84"/>
</g>
<!-- Node27&#45;&gt;Node18 -->
<g id="edge37" class="edge">
<title>Node27&#45;&gt;Node18</title>
<path fill="none" stroke="midnightblue" d="M1116.46,-231.11C1150.46,-219.2 1203.37,-200.67 1243.58,-186.59"/>
<polygon fill="midnightblue" stroke="midnightblue" points="1115.25,-227.82 1106.97,-234.43 1117.57,-234.43 1115.25,-227.82"/>
</g>
<!-- Node29 -->
<g id="node29" class="node">
<title>Node29</title>
<g id="a_node29"><a xlink:href="../../d8/dd1/kns__q__conf_8h.html" target="_top" xlink:title="Configuration of queues used in kineis_sw.">
<polygon fill="white" stroke="black" points="177,-229 177,-259 286,-259 286,-229 177,-229"/>
<text text-anchor="start" x="185" y="-247" font-family="Helvetica,sans-Serif" font-size="10.00">Kineis/Extdep/Conf</text>
<text text-anchor="middle" x="231.5" y="-236" font-family="Helvetica,sans-Serif" font-size="10.00">/kns_q_conf.h</text>
</a>
</g>
</g>
<!-- Node28&#45;&gt;Node29 -->
<g id="edge39" class="edge">
<title>Node28&#45;&gt;Node29</title>
<path fill="none" stroke="midnightblue" d="M262.93,-298.07C255.44,-285.44 246.39,-270.15 239.93,-259.23"/>
<polygon fill="midnightblue" stroke="midnightblue" points="259.93,-299.88 268.04,-306.7 265.95,-296.32 259.93,-299.88"/>
</g>
<!-- Node30 -->
<g id="node30" class="node">
<title>Node30</title>
<g id="a_node30"><a xlink:href="../../d7/d1a/kns__mac_8h.html" target="_top" xlink:title="Main header file for MAC layer of Kineis stack.">
<polygon fill="white" stroke="black" points="559,-234.5 559,-253.5 678,-253.5 678,-234.5 559,-234.5"/>
<text text-anchor="middle" x="618.5" y="-241.5" font-family="Helvetica,sans-Serif" font-size="10.00">Kineis/Lib/kns_mac.h</text>
</a>
</g>
</g>
<!-- Node28&#45;&gt;Node30 -->
<g id="edge45" class="edge">
<title>Node28&#45;&gt;Node30</title>
<path fill="none" stroke="midnightblue" d="M341.95,-306.46C412.53,-290.77 522.53,-266.33 580.23,-253.5"/>
<polygon fill="midnightblue" stroke="midnightblue" points="340.83,-303.12 331.83,-308.7 342.35,-309.95 340.83,-303.12"/>
</g>
<!-- Node29&#45;&gt;Node5 -->
<g id="edge40" class="edge">
<title>Node29&#45;&gt;Node5</title>
<path fill="none" stroke="midnightblue" d="M272.68,-224.7C302.87,-211.28 343.24,-193.34 370.91,-181.04"/>
<polygon fill="midnightblue" stroke="midnightblue" points="270.98,-221.62 263.26,-228.88 273.82,-228.02 270.98,-221.62"/>
</g>
<!-- Node29&#45;&gt;Node6 -->
<g id="edge41" class="edge">
<title>Node29&#45;&gt;Node6</title>
<path fill="none" stroke="midnightblue" d="M228.2,-218.76C223.76,-186.24 216.02,-129.51 212.43,-103.18"/>
<polygon fill="midnightblue" stroke="midnightblue" points="224.74,-219.35 229.56,-228.79 231.68,-218.41 224.74,-219.35"/>
</g>
<!-- Node29&#45;&gt;Node8 -->
<g id="edge42" class="edge">
<title>Node29&#45;&gt;Node8</title>
<path fill="none" stroke="midnightblue" d="M242.82,-219.8C254.13,-198.39 273.18,-166.72 296.5,-145 315.57,-127.23 341.3,-112.9 361.74,-103.18"/>
<polygon fill="midnightblue" stroke="midnightblue" points="239.63,-218.35 238.18,-228.84 245.86,-221.54 239.63,-218.35"/>
</g>
<!-- Node29&#45;&gt;Node9 -->
<g id="edge43" class="edge">
<title>Node29&#45;&gt;Node9</title>
<path fill="none" stroke="midnightblue" d="M255.91,-222.14C267.77,-211.79 282.1,-198.98 294.5,-187 313.04,-169.09 312.12,-157.8 334.5,-145 336.48,-143.86 442.9,-119.26 513.35,-103.05"/>
<polygon fill="midnightblue" stroke="midnightblue" points="253.42,-219.67 248.15,-228.86 258,-224.96 253.42,-219.67"/>
</g>
<!-- Node29&#45;&gt;Node12 -->
<g id="edge44" class="edge">
<title>Node29&#45;&gt;Node12</title>
<path fill="none" stroke="midnightblue" d="M207.44,-222.07C170.84,-190.22 102.11,-130.43 70.79,-103.18"/>
<polygon fill="midnightblue" stroke="midnightblue" points="205.32,-224.86 215.17,-228.79 209.92,-219.58 205.32,-224.86"/>
</g>
<!-- Node30&#45;&gt;Node3 -->
<g id="edge46" class="edge">
<title>Node30&#45;&gt;Node3</title>
<path fill="none" stroke="midnightblue" d="M647.17,-229.72C664.43,-220.24 685.35,-205.83 697.5,-187 716,-158.31 717.28,-115.74 716.89,-97.64"/>
<polygon fill="midnightblue" stroke="midnightblue" points="645.29,-226.75 638.04,-234.48 648.52,-232.96 645.29,-226.75"/>
</g>
<!-- Node30&#45;&gt;Node10 -->
<g id="edge47" class="edge">
<title>Node30&#45;&gt;Node10</title>
<path fill="none" stroke="midnightblue" d="M645.37,-229.7C666.16,-219.03 695.36,-203.21 719.5,-187 763.7,-157.31 811.73,-115.64 831.82,-97.73"/>
<polygon fill="midnightblue" stroke="midnightblue" points="643.52,-226.71 636.19,-234.36 646.69,-232.95 643.52,-226.71"/>
</g>
<!-- Node30&#45;&gt;Node11 -->
<g id="edge49" class="edge">
<title>Node30&#45;&gt;Node11</title>
<path fill="none" stroke="midnightblue" d="M656.29,-231.38C741.62,-205.16 949.97,-141.11 1055.71,-108.61"/>
<polygon fill="midnightblue" stroke="midnightblue" points="655.04,-228.11 646.51,-234.39 657.1,-234.8 655.04,-228.11"/>
</g>
<!-- Node31 -->
<g id="node31" class="node">
<title>Node31</title>
<g id="a_node31"><a xlink:href="../../d5/dd7/mgr__at__cmd__common_8c.html" target="_top" xlink:title="common part of the AT cmd manager (logging, AT cmd response api)">
<polygon fill="white" stroke="black" points="558.5,-145.5 558.5,-186.5 688.5,-186.5 688.5,-145.5 558.5,-145.5"/>
<text text-anchor="start" x="566.5" y="-174.5" font-family="Helvetica,sans-Serif" font-size="10.00">Kineis/App/Managers</text>
<text text-anchor="start" x="566.5" y="-163.5" font-family="Helvetica,sans-Serif" font-size="10.00">/MGR_AT_CMD/Src/mgr</text>
<text text-anchor="middle" x="623.5" y="-152.5" font-family="Helvetica,sans-Serif" font-size="10.00">_at_cmd_common.c</text>
</a>
</g>
</g>
<!-- Node30&#45;&gt;Node31 -->
<g id="edge48" class="edge">
<title>Node30&#45;&gt;Node31</title>
<path fill="none" stroke="midnightblue" d="M619.74,-224.14C620.49,-212.73 621.45,-198.21 622.21,-186.66"/>
<polygon fill="midnightblue" stroke="midnightblue" points="616.24,-224.07 619.07,-234.28 623.22,-224.53 616.24,-224.07"/>
</g>
<!-- Node32 -->
<g id="node32" class="node">
<title>Node32</title>
<g id="a_node32"><a xlink:href="../../df/d53/lpm__cli__kstk_8c.html" target="_top" xlink:title="Kineis stack&#39;s LPM client. It is implementing APIs needed to interface with the low power manager (MG...">
<polygon fill="white" stroke="black" points="1609.5,-151 1609.5,-181 1719.5,-181 1719.5,-151 1609.5,-151"/>
<text text-anchor="start" x="1617.5" y="-169" font-family="Helvetica,sans-Serif" font-size="10.00">Kineis/Lpm/Src/lpm</text>
<text text-anchor="middle" x="1664.5" y="-158" font-family="Helvetica,sans-Serif" font-size="10.00">_cli_kstk.c</text>
</a>
</g>
</g>
<!-- Node30&#45;&gt;Node32 -->
<g id="edge50" class="edge">
<title>Node30&#45;&gt;Node32</title>
<path fill="none" stroke="midnightblue" d="M651.96,-231.4C662.85,-228.11 675.07,-224.9 686.5,-223 1052.94,-162.15 1151.58,-220.76 1521.5,-187 1550.58,-184.35 1582.81,-179.96 1609.3,-175.98"/>
<polygon fill="midnightblue" stroke="midnightblue" points="650.88,-228.07 642.4,-234.42 652.99,-234.75 650.88,-228.07"/>
</g>
<!-- Node33&#45;&gt;Node30 -->
<g id="edge52" class="edge">
<title>Node33&#45;&gt;Node30</title>
<path fill="none" stroke="midnightblue" d="M781.57,-303.46C738.01,-287.84 676.13,-265.66 642.51,-253.61"/>
<polygon fill="midnightblue" stroke="midnightblue" points="780.53,-306.8 791.12,-306.88 782.89,-300.21 780.53,-306.8"/>
</g>
<!-- Node34&#45;&gt;Node19 -->
<g id="edge54" class="edge">
<title>Node34&#45;&gt;Node19</title>
<path fill="none" stroke="midnightblue" d="M2012.24,-302.14C2013.29,-290.73 2014.63,-276.21 2015.69,-264.66"/>
<polygon fill="midnightblue" stroke="midnightblue" points="2008.74,-302 2011.3,-312.28 2015.71,-302.65 2008.74,-302"/>
</g>
<!-- Node35&#45;&gt;Node29 -->
<g id="edge56" class="edge">
<title>Node35&#45;&gt;Node29</title>
<path fill="none" stroke="midnightblue" d="M171.55,-299.89C185.71,-286.93 203.46,-270.68 215.96,-259.23"/>
<polygon fill="midnightblue" stroke="midnightblue" points="169.12,-297.37 164.11,-306.7 173.85,-302.53 169.12,-297.37"/>
</g>
<!-- Node36&#45;&gt;Node13 -->
<g id="edge67" class="edge">
<title>Node36&#45;&gt;Node13</title>
<path fill="none" stroke="midnightblue" d="M1789.12,-303.81C1810.12,-295.28 1831.78,-282.85 1846.5,-265 1880.86,-223.34 1902.84,-184.01 1865.5,-145 1833.78,-111.86 1085.71,-116.81 1040.5,-109 1032.24,-107.57 1023.56,-105.4 1015.33,-103"/>
<polygon fill="midnightblue" stroke="midnightblue" points="1787.65,-300.62 1779.55,-307.45 1790.14,-307.16 1787.65,-300.62"/>
</g>
<!-- Node36&#45;&gt;Node32 -->
<g id="edge66" class="edge">
<title>Node36&#45;&gt;Node32</title>
<path fill="none" stroke="midnightblue" d="M1714.67,-297.49C1710.54,-287.5 1705.72,-275.71 1701.5,-265 1689.77,-235.22 1676.68,-200.07 1669.64,-181.01"/>
<polygon fill="midnightblue" stroke="midnightblue" points="1711.46,-298.88 1718.53,-306.78 1717.92,-296.2 1711.46,-298.88"/>
</g>
<!-- Node37 -->
<g id="node37" class="node">
<title>Node37</title>
<g id="a_node37"><a xlink:href="../../df/db7/lpm_8h.html" target="_top" xlink:title="This file contains some utilities and functions needed for a correct handling of LPM on the STM32WL55...">
<polygon fill="white" stroke="black" points="1535,-234.5 1535,-253.5 1654,-253.5 1654,-234.5 1535,-234.5"/>
<text text-anchor="middle" x="1594.5" y="-241.5" font-family="Helvetica,sans-Serif" font-size="10.00">Kineis/Lpm/Inc/lpm.h</text>
</a>
</g>
</g>
<!-- Node36&#45;&gt;Node37 -->
<g id="edge58" class="edge">
<title>Node36&#45;&gt;Node37</title>
<path fill="none" stroke="midnightblue" d="M1691.42,-301.66C1664.94,-286.18 1629.06,-265.2 1609.22,-253.61"/>
<polygon fill="midnightblue" stroke="midnightblue" points="1689.95,-304.86 1700.35,-306.88 1693.49,-298.81 1689.95,-304.86"/>
</g>
<!-- Node38 -->
<g id="node38" class="node">
<title>Node38</title>
<g id="a_node38"><a xlink:href="../../d5/db5/lpm_8c.html" target="_top" xlink:title="This file contains some utilities and functions needed for a correct handling of LPM on the STM32WL55...">
<polygon fill="white" stroke="black" points="1738,-156.5 1738,-175.5 1857,-175.5 1857,-156.5 1738,-156.5"/>
<text text-anchor="middle" x="1797.5" y="-163.5" font-family="Helvetica,sans-Serif" font-size="10.00">Kineis/Lpm/Src/lpm.c</text>
</a>
</g>
</g>
<!-- Node36&#45;&gt;Node38 -->
<g id="edge65" class="edge">
<title>Node36&#45;&gt;Node38</title>
<path fill="none" stroke="midnightblue" d="M1783.96,-302.82C1801.74,-294.3 1819.23,-282.12 1829.5,-265 1847.55,-234.92 1819.2,-193.45 1804.92,-175.67"/>
<polygon fill="midnightblue" stroke="midnightblue" points="1782.38,-299.69 1774.67,-306.95 1785.23,-306.09 1782.38,-299.69"/>
</g>
<!-- Node39 -->
<g id="node39" class="node">
<title>Node39</title>
<g id="a_node39"><a xlink:href="../../df/da4/lpm__cli__kstk_8h.html" target="_top" xlink:title="Kineis stack&#39;s LPM client. It is implementing APIs needed to interface with the low power manager (MG...">
<polygon fill="white" stroke="black" points="1710.5,-229 1710.5,-259 1820.5,-259 1820.5,-229 1710.5,-229"/>
<text text-anchor="start" x="1718.5" y="-247" font-family="Helvetica,sans-Serif" font-size="10.00">Kineis/Lpm/Inc/lpm</text>
<text text-anchor="middle" x="1765.5" y="-236" font-family="Helvetica,sans-Serif" font-size="10.00">_cli_kstk.h</text>
</a>
</g>
</g>
<!-- Node36&#45;&gt;Node39 -->
<g id="edge62" class="edge">
<title>Node36&#45;&gt;Node39</title>
<path fill="none" stroke="midnightblue" d="M1737.07,-297.7C1743.84,-285.14 1751.99,-270.04 1757.82,-259.23"/>
<polygon fill="midnightblue" stroke="midnightblue" points="1733.88,-296.24 1732.21,-306.7 1740.04,-299.57 1733.88,-296.24"/>
</g>
<!-- Node37&#45;&gt;Node3 -->
<g id="edge59" class="edge">
<title>Node37&#45;&gt;Node3</title>
<path fill="none" stroke="midnightblue" d="M1587.07,-225.08C1576.39,-201.92 1554.3,-162.47 1521.5,-145 1447.96,-105.84 854.23,-125.19 772.5,-109 760.04,-106.53 746.63,-101.82 736.05,-97.59"/>
<polygon fill="midnightblue" stroke="midnightblue" points="1583.96,-226.69 1591.18,-234.45 1590.37,-223.88 1583.96,-226.69"/>
</g>
<!-- Node37&#45;&gt;Node18 -->
<g id="edge60" class="edge">
<title>Node37&#45;&gt;Node18</title>
<path fill="none" stroke="midnightblue" d="M1556.36,-231.58C1546.35,-228.68 1535.54,-225.64 1525.5,-223 1458.36,-205.33 1440.8,-204.06 1373.5,-187 1370.66,-186.28 1367.77,-185.54 1364.84,-184.78"/>
<polygon fill="midnightblue" stroke="midnightblue" points="1555.47,-234.97 1566.05,-234.41 1557.44,-228.25 1555.47,-234.97"/>
</g>
<!-- Node37&#45;&gt;Node38 -->
<g id="edge61" class="edge">
<title>Node37&#45;&gt;Node38</title>
<path fill="none" stroke="midnightblue" d="M1626.99,-230.84C1668.31,-215.37 1738.63,-189.04 1774.69,-175.54"/>
<polygon fill="midnightblue" stroke="midnightblue" points="1625.53,-227.65 1617.39,-234.43 1627.98,-234.2 1625.53,-227.65"/>
</g>
<!-- Node39&#45;&gt;Node32 -->
<g id="edge64" class="edge">
<title>Node39&#45;&gt;Node32</title>
<path fill="none" stroke="midnightblue" d="M1738.4,-222.61C1721.03,-209.54 1698.91,-192.89 1683.41,-181.23"/>
<polygon fill="midnightblue" stroke="midnightblue" points="1736.41,-225.49 1746.5,-228.7 1740.62,-219.9 1736.41,-225.49"/>
</g>
<!-- Node39&#45;&gt;Node38 -->
<g id="edge63" class="edge">
<title>Node39&#45;&gt;Node38</title>
<path fill="none" stroke="midnightblue" d="M1775.57,-219.09C1781.82,-204.24 1789.48,-186.05 1793.89,-175.56"/>
<polygon fill="midnightblue" stroke="midnightblue" points="1772.17,-218.13 1771.52,-228.7 1778.63,-220.85 1772.17,-218.13"/>
</g>
</g>
</svg>
