<?xml version="1.0" encoding="UTF-8" standalone="no"?>
<!DOCTYPE svg PUBLIC "-//W3C//DTD SVG 1.1//EN"
 "http://www.w3.org/Graphics/SVG/1.1/DTD/svg11.dtd">
<!-- Generated by graphviz version 2.43.0 (0)
 -->
<!-- Title: KNS_RF_evt_t Pages: 1 -->
<svg width="482pt" height="95pt"
 viewBox="0.00 0.00 482.00 95.00" xmlns="http://www.w3.org/2000/svg" xmlns:xlink="http://www.w3.org/1999/xlink">
<g id="graph0" class="graph" transform="scale(1 1) rotate(0) translate(4 91)">
<title>KNS_RF_evt_t</title>
<polygon fill="white" stroke="transparent" points="-4,4 -4,-91 478,-91 478,4 -4,4"/>
<!-- Node1 -->
<g id="node1" class="node">
<title>Node1</title>
<g id="a_node1"><a xlink:title="Generic event structure.">
<polygon fill="#bfbfbf" stroke="black" points="206.5,-0.5 206.5,-19.5 291.5,-19.5 291.5,-0.5 206.5,-0.5"/>
<text text-anchor="middle" x="249" y="-7.5" font-family="Helvetica,sans-Serif" font-size="10.00">KNS_RF_evt_t</text>
</a>
</g>
</g>
<!-- Node2 -->
<g id="node2" class="node">
<title>Node2</title>
<g id="a_node2"><a xlink:href="../../d7/d5a/struct_k_n_s___r_f__ctxt__sat__detected__t.html" target="_top" xlink:title="satellite&#45;detected event context structure">
<polygon fill="white" stroke="black" points="0,-67.5 0,-86.5 156,-86.5 156,-67.5 0,-67.5"/>
<text text-anchor="middle" x="78" y="-74.5" font-family="Helvetica,sans-Serif" font-size="10.00">KNS_RF_ctxt_sat_detected_t</text>
</a>
</g>
</g>
<!-- Node2&#45;&gt;Node1 -->
<g id="edge1" class="edge">
<title>Node2&#45;&gt;Node1</title>
<path fill="none" stroke="#9a32cd" stroke-dasharray="5,2" d="M110.17,-63.77C144.11,-50.87 196.71,-30.88 226.47,-19.56"/>
<polygon fill="#9a32cd" stroke="#9a32cd" points="108.81,-60.54 100.71,-67.37 111.3,-67.09 108.81,-60.54"/>
<text text-anchor="middle" x="198.5" y="-41" font-family="Helvetica,sans-Serif" font-size="10.00"> sdet_ctxt</text>
</g>
<!-- Node3 -->
<g id="node3" class="node">
<title>Node3</title>
<g id="a_node3"><a xlink:href="../../d3/dd6/struct_k_n_s___r_f__ctxt__rx__received__t.html" target="_top" xlink:title="RX&#45;received event context structure.">
<polygon fill="white" stroke="black" points="174,-67.5 174,-86.5 324,-86.5 324,-67.5 174,-67.5"/>
<text text-anchor="middle" x="249" y="-74.5" font-family="Helvetica,sans-Serif" font-size="10.00">KNS_RF_ctxt_rx_received_t</text>
</a>
</g>
</g>
<!-- Node3&#45;&gt;Node1 -->
<g id="edge2" class="edge">
<title>Node3&#45;&gt;Node1</title>
<path fill="none" stroke="#9a32cd" stroke-dasharray="5,2" d="M249,-57.04C249,-44.67 249,-29.12 249,-19.63"/>
<polygon fill="#9a32cd" stroke="#9a32cd" points="245.5,-57.23 249,-67.23 252.5,-57.23 245.5,-57.23"/>
<text text-anchor="middle" x="267.5" y="-41" font-family="Helvetica,sans-Serif" font-size="10.00"> rx_ctxt</text>
</g>
<!-- Node4 -->
<g id="node4" class="node">
<title>Node4</title>
<g id="a_node4"><a xlink:href="../../d1/dc8/struct_k_n_s___r_f__ctxt__tx__done__t.html" target="_top" xlink:title="TX&#45;done event context structure.">
<polygon fill="white" stroke="black" points="342,-67.5 342,-86.5 474,-86.5 474,-67.5 342,-67.5"/>
<text text-anchor="middle" x="408" y="-74.5" font-family="Helvetica,sans-Serif" font-size="10.00">KNS_RF_ctxt_tx_done_t</text>
</a>
</g>
</g>
<!-- Node4&#45;&gt;Node1 -->
<g id="edge3" class="edge">
<title>Node4&#45;&gt;Node1</title>
<path fill="none" stroke="#9a32cd" stroke-dasharray="5,2" d="M377.27,-63.44C345.69,-50.53 297.38,-30.78 269.95,-19.56"/>
<polygon fill="#9a32cd" stroke="#9a32cd" points="376.31,-66.82 386.89,-67.37 378.95,-60.34 376.31,-66.82"/>
<text text-anchor="middle" x="356.5" y="-41" font-family="Helvetica,sans-Serif" font-size="10.00"> tx_ctxt</text>
</g>
</g>
</svg>
