<?xml version="1.0" encoding="UTF-8" standalone="no"?>
<!DOCTYPE svg PUBLIC "-//W3C//DTD SVG 1.1//EN"
 "http://www.w3.org/Graphics/SVG/1.1/DTD/svg11.dtd">
<!-- Generated by graphviz version 2.43.0 (0)
 -->
<!-- Title: Kineis/App/Libs/USERDATA/Src Pages: 1 -->
<svg width="134pt" height="151pt"
 viewBox="0.00 0.00 134.00 151.00" xmlns="http://www.w3.org/2000/svg" xmlns:xlink="http://www.w3.org/1999/xlink">
<g id="graph0" class="graph" transform="scale(1 1) rotate(0) translate(4 147)">
<title>Kineis/App/Libs/USERDATA/Src</title>
<polygon fill="white" stroke="transparent" points="-4,4 -4,-147 130,-147 130,4 -4,4"/>
<g id="clust1" class="cluster">
<title>clusterdir_46c6aded582cb38bf172fc7c5a980c8d</title>
<g id="a_clust1"><a xlink:href="dir_46c6aded582cb38bf172fc7c5a980c8d.html" target="_top" xlink:title="USERDATA">
<polygon fill="#ddddee" stroke="black" points="28,-64 28,-135 98,-135 98,-64 28,-64"/>
<text text-anchor="middle" x="63" y="-123" font-family="Helvetica,sans-Serif" font-size="10.00">USERDATA</text>
</a>
</g>
</g>
<!-- dir_c0716e009405b97b39000f6d314e8d71 -->
<g id="node1" class="node">
<title>dir_c0716e009405b97b39000f6d314e8d71</title>
<g id="a_node1"><a xlink:href="dir_c0716e009405b97b39000f6d314e8d71.html" target="_top" xlink:title="Src">
<polygon fill="#eeeeff" stroke="black" points="90,-108 36,-108 36,-72 90,-72 90,-108"/>
<text text-anchor="middle" x="63" y="-87.5" font-family="Helvetica,sans-Serif" font-size="10.00">Src</text>
</a>
</g>
</g>
<!-- dir_8b68f5e904f8fcd97bc9390d4f8b2d28 -->
<g id="node2" class="node">
<title>dir_8b68f5e904f8fcd97bc9390d4f8b2d28</title>
<g id="a_node2"><a xlink:href="dir_8b68f5e904f8fcd97bc9390d4f8b2d28.html" target="_top" xlink:title="Inc">
<polygon fill="none" stroke="black" points="54,-36 0,-36 0,0 54,0 54,-36"/>
<text text-anchor="middle" x="27" y="-15.5" font-family="Helvetica,sans-Serif" font-size="10.00">Inc</text>
</a>
</g>
</g>
<!-- dir_c0716e009405b97b39000f6d314e8d71&#45;&gt;dir_8b68f5e904f8fcd97bc9390d4f8b2d28 -->
<g id="edge1" class="edge">
<title>dir_c0716e009405b97b39000f6d314e8d71&#45;&gt;dir_8b68f5e904f8fcd97bc9390d4f8b2d28</title>
<path fill="none" stroke="black" d="M54.1,-71.7C50,-63.73 45.05,-54.1 40.51,-45.26"/>
<polygon fill="black" stroke="black" points="43.48,-43.4 35.8,-36.1 37.26,-46.6 43.48,-43.4"/>
<g id="a_edge1&#45;headlabel"><a xlink:href="dir_000018_000017.html" target="_top" xlink:title="1">
<text text-anchor="middle" x="47.65" y="-42.79" font-family="Helvetica,sans-Serif" font-size="10.00">1</text>
</a>
</g>
</g>
<!-- dir_e4bcde167f88f305238965282a0ab06e -->
<g id="node3" class="node">
<title>dir_e4bcde167f88f305238965282a0ab06e</title>
<g id="a_node3"><a xlink:href="dir_e4bcde167f88f305238965282a0ab06e.html" target="_top" xlink:title="Extdep">
<polygon fill="white" stroke="red" points="126,-36 72,-36 72,0 126,0 126,-36"/>
<text text-anchor="middle" x="99" y="-15.5" font-family="Helvetica,sans-Serif" font-size="10.00">Extdep</text>
</a>
</g>
</g>
<!-- dir_c0716e009405b97b39000f6d314e8d71&#45;&gt;dir_e4bcde167f88f305238965282a0ab06e -->
<g id="edge2" class="edge">
<title>dir_c0716e009405b97b39000f6d314e8d71&#45;&gt;dir_e4bcde167f88f305238965282a0ab06e</title>
<path fill="none" stroke="black" d="M71.9,-71.7C76,-63.73 80.95,-54.1 85.49,-45.26"/>
<polygon fill="black" stroke="black" points="88.74,-46.6 90.2,-36.1 82.52,-43.4 88.74,-46.6"/>
<g id="a_edge2&#45;headlabel"><a xlink:href="dir_000018_000027.html" target="_top" xlink:title="3">
<text text-anchor="middle" x="89.62" y="-48.59" font-family="Helvetica,sans-Serif" font-size="10.00">3</text>
</a>
</g>
</g>
</g>
</svg>
