<?xml version="1.0" encoding="UTF-8" standalone="no"?>
<!DOCTYPE svg PUBLIC "-//W3C//DTD SVG 1.1//EN"
 "http://www.w3.org/Graphics/SVG/1.1/DTD/svg11.dtd">
<!-- Generated by graphviz version 2.43.0 (0)
 -->
<!-- Title: Kineis/App/Kineis_os/KNS_Q Pages: 1 -->
<svg width="236pt" height="231pt"
 viewBox="0.00 0.00 236.00 231.00" xmlns="http://www.w3.org/2000/svg" xmlns:xlink="http://www.w3.org/1999/xlink">
<g id="graph0" class="graph" transform="scale(1 1) rotate(0) translate(4 227)">
<title>Kineis/App/Kineis_os/KNS_Q</title>
<polygon fill="white" stroke="transparent" points="-4,4 -4,-227 232,-227 232,4 -4,4"/>
<g id="clust1" class="cluster">
<title>clusterdir_2597320cd5a766e2ddfc672ddb4c534b</title>
<g id="a_clust1"><a xlink:href="dir_2597320cd5a766e2ddfc672ddb4c534b.html" target="_top" xlink:title="Kineis_os">
<polygon fill="#ddddee" stroke="black" points="8,-56 8,-215 166,-215 166,-56 8,-56"/>
<text text-anchor="middle" x="87" y="-203" font-family="Helvetica,sans-Serif" font-size="10.00">Kineis_os</text>
</a>
</g>
</g>
<g id="clust2" class="cluster">
<title>clusterdir_565abc7797190263a19144fc71b59106</title>
<g id="a_clust2"><a xlink:href="dir_565abc7797190263a19144fc71b59106.html" target="_top">
<polygon fill="#eeeeff" stroke="black" points="16,-64 16,-188 158,-188 158,-64 16,-64"/>
</a>
</g>
</g>
<!-- dir_565abc7797190263a19144fc71b59106 -->
<g id="node1" class="node">
<title>dir_565abc7797190263a19144fc71b59106</title>
<text text-anchor="middle" x="123" y="-159.5" font-family="Helvetica,sans-Serif" font-size="10.00">KNS_Q</text>
</g>
<!-- dir_1c062482ac091c7c78d0a1651ce2de7a -->
<g id="node2" class="node">
<title>dir_1c062482ac091c7c78d0a1651ce2de7a</title>
<g id="a_node2"><a xlink:href="dir_1c062482ac091c7c78d0a1651ce2de7a.html" target="_top" xlink:title="Inc">
<polygon fill="white" stroke="black" points="150,-108 96,-108 96,-72 150,-72 150,-108"/>
<text text-anchor="middle" x="123" y="-87.5" font-family="Helvetica,sans-Serif" font-size="10.00">Inc</text>
</a>
</g>
</g>
<!-- dir_8bac7462668d86a984d2ee5977e3cf6a -->
<g id="node4" class="node">
<title>dir_8bac7462668d86a984d2ee5977e3cf6a</title>
<g id="a_node4"><a xlink:href="dir_8bac7462668d86a984d2ee5977e3cf6a.html" target="_top" xlink:title="Lib">
<polygon fill="none" stroke="black" points="189,-36 135,-36 135,0 189,0 189,-36"/>
<text text-anchor="middle" x="162" y="-15.5" font-family="Helvetica,sans-Serif" font-size="10.00">Lib</text>
</a>
</g>
</g>
<!-- dir_1c062482ac091c7c78d0a1651ce2de7a&#45;&gt;dir_8bac7462668d86a984d2ee5977e3cf6a -->
<g id="edge3" class="edge">
<title>dir_1c062482ac091c7c78d0a1651ce2de7a&#45;&gt;dir_8bac7462668d86a984d2ee5977e3cf6a</title>
<path fill="none" stroke="black" d="M132.64,-71.7C137.13,-63.64 142.56,-53.89 147.52,-44.98"/>
<polygon fill="black" stroke="black" points="150.66,-46.54 152.47,-36.1 144.55,-43.14 150.66,-46.54"/>
<g id="a_edge3&#45;headlabel"><a xlink:href="dir_000010_000035.html" target="_top" xlink:title="1">
<text text-anchor="middle" x="151.39" y="-48.57" font-family="Helvetica,sans-Serif" font-size="10.00">1</text>
</a>
</g>
</g>
<!-- dir_e4bcde167f88f305238965282a0ab06e -->
<g id="node5" class="node">
<title>dir_e4bcde167f88f305238965282a0ab06e</title>
<g id="a_node5"><a xlink:href="dir_e4bcde167f88f305238965282a0ab06e.html" target="_top" xlink:title="Extdep">
<polygon fill="white" stroke="red" points="228,-108 174,-108 174,-72 228,-72 228,-108"/>
<text text-anchor="middle" x="201" y="-87.5" font-family="Helvetica,sans-Serif" font-size="10.00">Extdep</text>
</a>
</g>
</g>
<!-- dir_1c062482ac091c7c78d0a1651ce2de7a&#45;&gt;dir_e4bcde167f88f305238965282a0ab06e -->
<g id="edge4" class="edge">
<title>dir_1c062482ac091c7c78d0a1651ce2de7a&#45;&gt;dir_e4bcde167f88f305238965282a0ab06e</title>
<path fill="none" stroke="black" d="M150.12,-90C154.71,-90 159.31,-90 163.91,-90"/>
<polygon fill="black" stroke="black" points="163.97,-93.5 173.97,-90 163.97,-86.5 163.97,-93.5"/>
<g id="a_edge4&#45;headlabel"><a xlink:href="dir_000010_000027.html" target="_top" xlink:title="1">
<text text-anchor="middle" x="160.37" y="-93.84" font-family="Helvetica,sans-Serif" font-size="10.00">1</text>
</a>
</g>
</g>
<!-- dir_a746c9cb71575e3c8990071dd78a4c19 -->
<g id="node3" class="node">
<title>dir_a746c9cb71575e3c8990071dd78a4c19</title>
<g id="a_node3"><a xlink:href="dir_a746c9cb71575e3c8990071dd78a4c19.html" target="_top" xlink:title="Src">
<polygon fill="white" stroke="black" points="78,-180 24,-180 24,-144 78,-144 78,-180"/>
<text text-anchor="middle" x="51" y="-159.5" font-family="Helvetica,sans-Serif" font-size="10.00">Src</text>
</a>
</g>
</g>
<!-- dir_a746c9cb71575e3c8990071dd78a4c19&#45;&gt;dir_1c062482ac091c7c78d0a1651ce2de7a -->
<g id="edge1" class="edge">
<title>dir_a746c9cb71575e3c8990071dd78a4c19&#45;&gt;dir_1c062482ac091c7c78d0a1651ce2de7a</title>
<path fill="none" stroke="black" d="M68.8,-143.7C77.6,-135.14 88.38,-124.66 98,-115.3"/>
<polygon fill="black" stroke="black" points="100.68,-117.58 105.41,-108.1 95.8,-112.57 100.68,-117.58"/>
<g id="a_edge1&#45;headlabel"><a xlink:href="dir_000011_000010.html" target="_top" xlink:title="3">
<text text-anchor="middle" x="100.08" y="-119.63" font-family="Helvetica,sans-Serif" font-size="10.00">3</text>
</a>
</g>
</g>
<!-- dir_a746c9cb71575e3c8990071dd78a4c19&#45;&gt;dir_e4bcde167f88f305238965282a0ab06e -->
<g id="edge2" class="edge">
<title>dir_a746c9cb71575e3c8990071dd78a4c19&#45;&gt;dir_e4bcde167f88f305238965282a0ab06e</title>
<path fill="none" stroke="black" d="M78.12,-148.17C81.11,-146.76 84.12,-145.35 87,-144 112.94,-131.85 142.25,-118.22 164.65,-107.83"/>
<polygon fill="black" stroke="black" points="166.2,-110.97 173.8,-103.59 163.25,-104.62 166.2,-110.97"/>
<g id="a_edge2&#45;headlabel"><a xlink:href="dir_000011_000027.html" target="_top" xlink:title="7">
<text text-anchor="middle" x="164.13" y="-112.56" font-family="Helvetica,sans-Serif" font-size="10.00">7</text>
</a>
</g>
</g>
<!-- dir_e4bcde167f88f305238965282a0ab06e&#45;&gt;dir_1c062482ac091c7c78d0a1651ce2de7a -->
<g id="edge6" class="edge">
<title>dir_e4bcde167f88f305238965282a0ab06e&#45;&gt;dir_1c062482ac091c7c78d0a1651ce2de7a</title>
<path fill="none" stroke="black" d="M173.97,-90C169.37,-90 164.78,-90 160.18,-90"/>
<polygon fill="black" stroke="black" points="160.12,-86.5 150.12,-90 160.12,-93.5 160.12,-86.5"/>
<g id="a_edge6&#45;headlabel"><a xlink:href="dir_000027_000010.html" target="_top" xlink:title="1">
<text text-anchor="middle" x="163.71" y="-81.16" font-family="Helvetica,sans-Serif" font-size="10.00">1</text>
</a>
</g>
</g>
<!-- dir_e4bcde167f88f305238965282a0ab06e&#45;&gt;dir_8bac7462668d86a984d2ee5977e3cf6a -->
<g id="edge5" class="edge">
<title>dir_e4bcde167f88f305238965282a0ab06e&#45;&gt;dir_8bac7462668d86a984d2ee5977e3cf6a</title>
<path fill="none" stroke="black" d="M191.36,-71.7C186.87,-63.64 181.44,-53.89 176.48,-44.98"/>
<polygon fill="black" stroke="black" points="179.45,-43.14 171.53,-36.1 173.34,-46.54 179.45,-43.14"/>
<g id="a_edge5&#45;headlabel"><a xlink:href="dir_000027_000035.html" target="_top" xlink:title="7">
<text text-anchor="middle" x="183.68" y="-42.39" font-family="Helvetica,sans-Serif" font-size="10.00">7</text>
</a>
</g>
</g>
</g>
</svg>
