<?xml version="1.0" encoding="UTF-8" standalone="no"?>
<!DOCTYPE svg PUBLIC "-//W3C//DTD SVG 1.1//EN"
 "http://www.w3.org/Graphics/SVG/1.1/DTD/svg11.dtd">
<!-- Generated by graphviz version 2.43.0 (0)
 -->
<!-- Title: Kineis/Extdep/Conf Pages: 1 -->
<svg width="153pt" height="151pt"
 viewBox="0.00 0.00 153.00 151.00" xmlns="http://www.w3.org/2000/svg" xmlns:xlink="http://www.w3.org/1999/xlink">
<g id="graph0" class="graph" transform="scale(1 1) rotate(0) translate(4 147)">
<title>Kineis/Extdep/Conf</title>
<polygon fill="white" stroke="transparent" points="-4,4 -4,-147 149,-147 149,4 -4,4"/>
<g id="clust1" class="cluster">
<title>clusterdir_e4bcde167f88f305238965282a0ab06e</title>
<g id="a_clust1"><a xlink:href="dir_e4bcde167f88f305238965282a0ab06e.html" target="_top" xlink:title="Extdep">
<polygon fill="#ddddee" stroke="black" points="8,-64 8,-135 78,-135 78,-64 8,-64"/>
<text text-anchor="middle" x="43" y="-123" font-family="Helvetica,sans-Serif" font-size="10.00">Extdep</text>
</a>
</g>
</g>
<!-- dir_b8b18822a774fad16818b672d6e0daf5 -->
<g id="node1" class="node">
<title>dir_b8b18822a774fad16818b672d6e0daf5</title>
<g id="a_node1"><a xlink:href="dir_b8b18822a774fad16818b672d6e0daf5.html" target="_top" xlink:title="Conf">
<polygon fill="#eeeeff" stroke="black" points="70,-108 16,-108 16,-72 70,-72 70,-108"/>
<text text-anchor="middle" x="43" y="-87.5" font-family="Helvetica,sans-Serif" font-size="10.00">Conf</text>
</a>
</g>
</g>
<!-- dir_283ee20ab5eb9693b75f98890f2aae44 -->
<g id="node2" class="node">
<title>dir_283ee20ab5eb9693b75f98890f2aae44</title>
<g id="a_node2"><a xlink:href="dir_283ee20ab5eb9693b75f98890f2aae44.html" target="_top" xlink:title="App">
<polygon fill="white" stroke="red" points="142,-108 88,-108 88,-72 142,-72 142,-108"/>
<text text-anchor="middle" x="115" y="-87.5" font-family="Helvetica,sans-Serif" font-size="10.00">App</text>
</a>
</g>
</g>
<!-- dir_b8b18822a774fad16818b672d6e0daf5&#45;&gt;dir_283ee20ab5eb9693b75f98890f2aae44 -->
<g id="edge4" class="edge">
<title>dir_b8b18822a774fad16818b672d6e0daf5&#45;&gt;dir_283ee20ab5eb9693b75f98890f2aae44</title>
<path fill="none" stroke="black" d="M70.28,-90C72.74,-90 75.19,-90 77.65,-90"/>
<polygon fill="black" stroke="black" points="77.75,-93.5 87.75,-90 77.75,-86.5 77.75,-93.5"/>
<g id="a_edge4&#45;headlabel"><a xlink:href="dir_000028_000004.html" target="_top" xlink:title="1">
<text text-anchor="middle" x="74.15" y="-93.84" font-family="Helvetica,sans-Serif" font-size="10.00">1</text>
</a>
</g>
</g>
<!-- dir_603c3abc85dcd5ce81fff229f71c4fb7 -->
<g id="node3" class="node">
<title>dir_603c3abc85dcd5ce81fff229f71c4fb7</title>
<g id="a_node3"><a xlink:href="dir_603c3abc85dcd5ce81fff229f71c4fb7.html" target="_top" xlink:title="MGR_LOG">
<polygon fill="white" stroke="red" points="72.5,-36 7.5,-36 7.5,0 72.5,0 72.5,-36"/>
<text text-anchor="middle" x="40" y="-15.5" font-family="Helvetica,sans-Serif" font-size="10.00">MGR_LOG</text>
</a>
</g>
</g>
<!-- dir_b8b18822a774fad16818b672d6e0daf5&#45;&gt;dir_603c3abc85dcd5ce81fff229f71c4fb7 -->
<g id="edge5" class="edge">
<title>dir_b8b18822a774fad16818b672d6e0daf5&#45;&gt;dir_603c3abc85dcd5ce81fff229f71c4fb7</title>
<path fill="none" stroke="black" d="M42.26,-71.7C41.93,-63.98 41.53,-54.71 41.16,-46.11"/>
<polygon fill="black" stroke="black" points="44.66,-45.95 40.73,-36.1 37.66,-46.25 44.66,-45.95"/>
<g id="a_edge5&#45;headlabel"><a xlink:href="dir_000028_000032.html" target="_top" xlink:title="1">
<text text-anchor="middle" x="47.65" y="-46.92" font-family="Helvetica,sans-Serif" font-size="10.00">1</text>
</a>
</g>
</g>
<!-- dir_8bac7462668d86a984d2ee5977e3cf6a -->
<g id="node4" class="node">
<title>dir_8bac7462668d86a984d2ee5977e3cf6a</title>
<g id="a_node4"><a xlink:href="dir_8bac7462668d86a984d2ee5977e3cf6a.html" target="_top" xlink:title="Lib">
<polygon fill="none" stroke="black" points="145,-36 91,-36 91,0 145,0 145,-36"/>
<text text-anchor="middle" x="118" y="-15.5" font-family="Helvetica,sans-Serif" font-size="10.00">Lib</text>
</a>
</g>
</g>
<!-- dir_b8b18822a774fad16818b672d6e0daf5&#45;&gt;dir_8bac7462668d86a984d2ee5977e3cf6a -->
<g id="edge6" class="edge">
<title>dir_b8b18822a774fad16818b672d6e0daf5&#45;&gt;dir_8bac7462668d86a984d2ee5977e3cf6a</title>
<path fill="none" stroke="black" d="M61.54,-71.7C70.8,-63.05 82.16,-52.45 92.26,-43.03"/>
<polygon fill="black" stroke="black" points="94.75,-45.49 99.67,-36.1 89.98,-40.37 94.75,-45.49"/>
<g id="a_edge6&#45;headlabel"><a xlink:href="dir_000028_000035.html" target="_top" xlink:title="2">
<text text-anchor="middle" x="94.06" y="-47.51" font-family="Helvetica,sans-Serif" font-size="10.00">2</text>
</a>
</g>
</g>
<!-- dir_283ee20ab5eb9693b75f98890f2aae44&#45;&gt;dir_b8b18822a774fad16818b672d6e0daf5 -->
<g id="edge2" class="edge">
<title>dir_283ee20ab5eb9693b75f98890f2aae44&#45;&gt;dir_b8b18822a774fad16818b672d6e0daf5</title>
<path fill="none" stroke="black" d="M87.75,-90C85.29,-90 82.84,-90 80.38,-90"/>
<polygon fill="black" stroke="black" points="80.28,-86.5 70.28,-90 80.28,-93.5 80.28,-86.5"/>
<g id="a_edge2&#45;headlabel"><a xlink:href="dir_000004_000028.html" target="_top" xlink:title="14">
<text text-anchor="middle" x="83.88" y="-81.16" font-family="Helvetica,sans-Serif" font-size="10.00">14</text>
</a>
</g>
</g>
<!-- dir_283ee20ab5eb9693b75f98890f2aae44&#45;&gt;dir_603c3abc85dcd5ce81fff229f71c4fb7 -->
<g id="edge1" class="edge">
<title>dir_283ee20ab5eb9693b75f98890f2aae44&#45;&gt;dir_603c3abc85dcd5ce81fff229f71c4fb7</title>
<path fill="none" stroke="black" d="M96.46,-71.7C87.2,-63.05 75.84,-52.45 65.74,-43.03"/>
<polygon fill="black" stroke="black" points="68.02,-40.37 58.33,-36.1 63.25,-45.49 68.02,-40.37"/>
<g id="a_edge1&#45;headlabel"><a xlink:href="dir_000004_000032.html" target="_top" xlink:title="10">
<text text-anchor="middle" x="72.59" y="-38.25" font-family="Helvetica,sans-Serif" font-size="10.00">10</text>
</a>
</g>
</g>
<!-- dir_283ee20ab5eb9693b75f98890f2aae44&#45;&gt;dir_8bac7462668d86a984d2ee5977e3cf6a -->
<g id="edge3" class="edge">
<title>dir_283ee20ab5eb9693b75f98890f2aae44&#45;&gt;dir_8bac7462668d86a984d2ee5977e3cf6a</title>
<path fill="none" stroke="black" d="M115.74,-71.7C116.07,-63.98 116.47,-54.71 116.84,-46.11"/>
<polygon fill="black" stroke="black" points="120.34,-46.25 117.27,-36.1 113.34,-45.95 120.34,-46.25"/>
<g id="a_edge3&#45;headlabel"><a xlink:href="dir_000004_000035.html" target="_top" xlink:title="15">
<text text-anchor="middle" x="123.02" y="-47.46" font-family="Helvetica,sans-Serif" font-size="10.00">15</text>
</a>
</g>
</g>
</g>
</svg>
