<?xml version="1.0" encoding="UTF-8" standalone="no"?>
<!DOCTYPE svg PUBLIC "-//W3C//DTD SVG 1.1//EN"
 "http://www.w3.org/Graphics/SVG/1.1/DTD/svg11.dtd">
<!-- Generated by graphviz version 2.43.0 (0)
 -->
<!-- Title: Kineis/App/Managers/MGR_AT_CMD/Src Pages: 1 -->
<svg width="463pt" height="367pt"
 viewBox="0.00 0.00 462.73 367.00" xmlns="http://www.w3.org/2000/svg" xmlns:xlink="http://www.w3.org/1999/xlink">
<g id="graph0" class="graph" transform="scale(1 1) rotate(0) translate(4 363)">
<title>Kineis/App/Managers/MGR_AT_CMD/Src</title>
<polygon fill="white" stroke="transparent" points="-4,4 -4,-363 458.73,-363 458.73,4 -4,4"/>
<g id="clust1" class="cluster">
<title>clusterdir_60ee360fddee19ef14c06d7eba7d5fba</title>
<g id="a_clust1"><a xlink:href="dir_60ee360fddee19ef14c06d7eba7d5fba.html" target="_top" xlink:title="MGR_AT_CMD">
<polygon fill="#ddddee" stroke="black" points="213.41,-280 213.41,-351 299.41,-351 299.41,-280 213.41,-280"/>
<text text-anchor="middle" x="256.41" y="-339" font-family="Helvetica,sans-Serif" font-size="10.00">MGR_AT_CMD</text>
</a>
</g>
</g>
<!-- dir_4eabde2f0c23e2995d24249ec72e579f -->
<g id="node1" class="node">
<title>dir_4eabde2f0c23e2995d24249ec72e579f</title>
<g id="a_node1"><a xlink:href="dir_4eabde2f0c23e2995d24249ec72e579f.html" target="_top" xlink:title="Src">
<polygon fill="#eeeeff" stroke="black" points="283.41,-324 229.41,-324 229.41,-288 283.41,-288 283.41,-324"/>
<text text-anchor="middle" x="256.41" y="-303.5" font-family="Helvetica,sans-Serif" font-size="10.00">Src</text>
</a>
</g>
</g>
<!-- dir_68ffa5ca8ccfa6448bd0595e797999e4 -->
<g id="node2" class="node">
<title>dir_68ffa5ca8ccfa6448bd0595e797999e4</title>
<g id="a_node2"><a xlink:href="dir_68ffa5ca8ccfa6448bd0595e797999e4.html" target="_top" xlink:title="Appconf">
<polygon fill="none" stroke="black" points="115.41,-36 59.41,-36 59.41,0 115.41,0 115.41,-36"/>
<text text-anchor="middle" x="87.41" y="-15.5" font-family="Helvetica,sans-Serif" font-size="10.00">Appconf</text>
</a>
</g>
</g>
<!-- dir_4eabde2f0c23e2995d24249ec72e579f&#45;&gt;dir_68ffa5ca8ccfa6448bd0595e797999e4 -->
<g id="edge5" class="edge">
<title>dir_4eabde2f0c23e2995d24249ec72e579f&#45;&gt;dir_68ffa5ca8ccfa6448bd0595e797999e4</title>
<path fill="none" stroke="black" d="M229.4,-301.56C174.45,-292.88 51.14,-264.39 7.41,-180 -17.58,-131.77 28.39,-74.7 60.38,-43.11"/>
<polygon fill="black" stroke="black" points="62.98,-45.47 67.76,-36.02 58.13,-40.42 62.98,-45.47"/>
<g id="a_edge5&#45;headlabel"><a xlink:href="dir_000022_000026.html" target="_top" xlink:title="1">
<text text-anchor="middle" x="62.35" y="-47.51" font-family="Helvetica,sans-Serif" font-size="10.00">1</text>
</a>
</g>
</g>
<!-- dir_2597320cd5a766e2ddfc672ddb4c534b -->
<g id="node3" class="node">
<title>dir_2597320cd5a766e2ddfc672ddb4c534b</title>
<g id="a_node3"><a xlink:href="dir_2597320cd5a766e2ddfc672ddb4c534b.html" target="_top" xlink:title="Kineis_os">
<polygon fill="white" stroke="red" points="189.91,-180 126.91,-180 126.91,-144 189.91,-144 189.91,-180"/>
<text text-anchor="middle" x="158.41" y="-159.5" font-family="Helvetica,sans-Serif" font-size="10.00">Kineis_os</text>
</a>
</g>
</g>
<!-- dir_4eabde2f0c23e2995d24249ec72e579f&#45;&gt;dir_2597320cd5a766e2ddfc672ddb4c534b -->
<g id="edge6" class="edge">
<title>dir_4eabde2f0c23e2995d24249ec72e579f&#45;&gt;dir_2597320cd5a766e2ddfc672ddb4c534b</title>
<path fill="none" stroke="black" d="M229.15,-291.6C213.31,-282.49 194.21,-269.01 182.41,-252 169.7,-233.67 163.72,-208.91 160.9,-190.16"/>
<polygon fill="black" stroke="black" points="164.36,-189.64 159.61,-180.17 157.42,-190.54 164.36,-189.64"/>
<g id="a_edge6&#45;headlabel"><a xlink:href="dir_000022_000005.html" target="_top" xlink:title="1">
<text text-anchor="middle" x="167.64" y="-190.34" font-family="Helvetica,sans-Serif" font-size="10.00">1</text>
</a>
</g>
</g>
<!-- dir_70beccd1d8997d0174d02d630d77a447 -->
<g id="node4" class="node">
<title>dir_70beccd1d8997d0174d02d630d77a447</title>
<g id="a_node4"><a xlink:href="dir_70beccd1d8997d0174d02d630d77a447.html" target="_top" xlink:title="Libs">
<polygon fill="white" stroke="red" points="376.41,-180 322.41,-180 322.41,-144 376.41,-144 376.41,-180"/>
<text text-anchor="middle" x="349.41" y="-159.5" font-family="Helvetica,sans-Serif" font-size="10.00">Libs</text>
</a>
</g>
</g>
<!-- dir_4eabde2f0c23e2995d24249ec72e579f&#45;&gt;dir_70beccd1d8997d0174d02d630d77a447 -->
<g id="edge7" class="edge">
<title>dir_4eabde2f0c23e2995d24249ec72e579f&#45;&gt;dir_70beccd1d8997d0174d02d630d77a447</title>
<path fill="none" stroke="black" d="M276.14,-287.99C286.65,-278.21 299.27,-265.26 308.41,-252 321.78,-232.62 332.67,-208.19 339.87,-189.83"/>
<polygon fill="black" stroke="black" points="343.2,-190.91 343.47,-180.32 336.65,-188.43 343.2,-190.91"/>
<g id="a_edge7&#45;headlabel"><a xlink:href="dir_000022_000012.html" target="_top" xlink:title="2">
<text text-anchor="middle" x="344.58" y="-192.78" font-family="Helvetica,sans-Serif" font-size="10.00">2</text>
</a>
</g>
</g>
<!-- dir_c25cf638d32e4911582a285b040105d2 -->
<g id="node5" class="node">
<title>dir_c25cf638d32e4911582a285b040105d2</title>
<g id="a_node5"><a xlink:href="dir_c25cf638d32e4911582a285b040105d2.html" target="_top" xlink:title="Lpm">
<polygon fill="white" stroke="red" points="245.41,-252 191.41,-252 191.41,-216 245.41,-216 245.41,-252"/>
<text text-anchor="middle" x="218.41" y="-231.5" font-family="Helvetica,sans-Serif" font-size="10.00">Lpm</text>
</a>
</g>
</g>
<!-- dir_4eabde2f0c23e2995d24249ec72e579f&#45;&gt;dir_c25cf638d32e4911582a285b040105d2 -->
<g id="edge8" class="edge">
<title>dir_4eabde2f0c23e2995d24249ec72e579f&#45;&gt;dir_c25cf638d32e4911582a285b040105d2</title>
<path fill="none" stroke="black" d="M247.02,-287.7C242.65,-279.64 237.36,-269.89 232.52,-260.98"/>
<polygon fill="black" stroke="black" points="235.55,-259.22 227.7,-252.1 229.39,-262.56 235.55,-259.22"/>
<g id="a_edge8&#45;headlabel"><a xlink:href="dir_000022_000036.html" target="_top" xlink:title="1">
<text text-anchor="middle" x="239.76" y="-258.53" font-family="Helvetica,sans-Serif" font-size="10.00">1</text>
</a>
</g>
</g>
<!-- dir_8bac7462668d86a984d2ee5977e3cf6a -->
<g id="node6" class="node">
<title>dir_8bac7462668d86a984d2ee5977e3cf6a</title>
<g id="a_node6"><a xlink:href="dir_8bac7462668d86a984d2ee5977e3cf6a.html" target="_top" xlink:title="Lib">
<polygon fill="none" stroke="black" points="300.41,-36 246.41,-36 246.41,0 300.41,0 300.41,-36"/>
<text text-anchor="middle" x="273.41" y="-15.5" font-family="Helvetica,sans-Serif" font-size="10.00">Lib</text>
</a>
</g>
</g>
<!-- dir_4eabde2f0c23e2995d24249ec72e579f&#45;&gt;dir_8bac7462668d86a984d2ee5977e3cf6a -->
<g id="edge9" class="edge">
<title>dir_4eabde2f0c23e2995d24249ec72e579f&#45;&gt;dir_8bac7462668d86a984d2ee5977e3cf6a</title>
<path fill="none" stroke="black" d="M283.68,-305.96C323.84,-305.7 397.86,-298.49 432.41,-252 482.16,-185.07 440.25,-129.04 379.41,-72 359.67,-53.49 332.23,-40.01 310.22,-31.28"/>
<polygon fill="black" stroke="black" points="311.43,-27.99 300.84,-27.71 308.95,-34.54 311.43,-27.99"/>
<g id="a_edge9&#45;headlabel"><a xlink:href="dir_000022_000035.html" target="_top" xlink:title="8">
<text text-anchor="middle" x="315.8" y="-24.12" font-family="Helvetica,sans-Serif" font-size="10.00">8</text>
</a>
</g>
</g>
<!-- dir_6bb50a2f0076c8f8a35f09a1613f8275 -->
<g id="node7" class="node">
<title>dir_6bb50a2f0076c8f8a35f09a1613f8275</title>
<g id="a_node7"><a xlink:href="dir_6bb50a2f0076c8f8a35f09a1613f8275.html" target="_top" xlink:title="Mcu">
<polygon fill="white" stroke="red" points="70.41,-180 16.41,-180 16.41,-144 70.41,-144 70.41,-180"/>
<text text-anchor="middle" x="43.41" y="-159.5" font-family="Helvetica,sans-Serif" font-size="10.00">Mcu</text>
</a>
</g>
</g>
<!-- dir_4eabde2f0c23e2995d24249ec72e579f&#45;&gt;dir_6bb50a2f0076c8f8a35f09a1613f8275 -->
<g id="edge10" class="edge">
<title>dir_4eabde2f0c23e2995d24249ec72e579f&#45;&gt;dir_6bb50a2f0076c8f8a35f09a1613f8275</title>
<path fill="none" stroke="black" d="M229.04,-290.53C210.24,-280.32 184.89,-266.01 163.41,-252 131.54,-231.21 96.79,-205.02 72.93,-186.45"/>
<polygon fill="black" stroke="black" points="75,-183.62 64.96,-180.22 70.68,-189.13 75,-183.62"/>
<g id="a_edge10&#45;headlabel"><a xlink:href="dir_000022_000023.html" target="_top" xlink:title="5">
<text text-anchor="middle" x="79.58" y="-181.1" font-family="Helvetica,sans-Serif" font-size="10.00">5</text>
</a>
</g>
</g>
<!-- dir_7429a52da4efb9f4e51ba2fcc7c0b4e8 -->
<g id="node8" class="node">
<title>dir_7429a52da4efb9f4e51ba2fcc7c0b4e8</title>
<g id="a_node8"><a xlink:href="dir_7429a52da4efb9f4e51ba2fcc7c0b4e8.html" target="_top" xlink:title="Inc">
<polygon fill="none" stroke="black" points="423.41,-252 369.41,-252 369.41,-216 423.41,-216 423.41,-252"/>
<text text-anchor="middle" x="396.41" y="-231.5" font-family="Helvetica,sans-Serif" font-size="10.00">Inc</text>
</a>
</g>
</g>
<!-- dir_4eabde2f0c23e2995d24249ec72e579f&#45;&gt;dir_7429a52da4efb9f4e51ba2fcc7c0b4e8 -->
<g id="edge11" class="edge">
<title>dir_4eabde2f0c23e2995d24249ec72e579f&#45;&gt;dir_7429a52da4efb9f4e51ba2fcc7c0b4e8</title>
<path fill="none" stroke="black" d="M283.74,-291.34C305.52,-280.45 336.21,-265.1 360.06,-253.18"/>
<polygon fill="black" stroke="black" points="361.78,-256.23 369.16,-248.63 358.65,-249.97 361.78,-256.23"/>
<g id="a_edge11&#45;headlabel"><a xlink:href="dir_000022_000021.html" target="_top" xlink:title="19">
<text text-anchor="middle" x="359.83" y="-257.88" font-family="Helvetica,sans-Serif" font-size="10.00">19</text>
</a>
</g>
</g>
<!-- dir_e4bcde167f88f305238965282a0ab06e -->
<g id="node9" class="node">
<title>dir_e4bcde167f88f305238965282a0ab06e</title>
<g id="a_node9"><a xlink:href="dir_e4bcde167f88f305238965282a0ab06e.html" target="_top" xlink:title="Extdep">
<polygon fill="white" stroke="red" points="245.41,-108 191.41,-108 191.41,-72 245.41,-72 245.41,-108"/>
<text text-anchor="middle" x="218.41" y="-87.5" font-family="Helvetica,sans-Serif" font-size="10.00">Extdep</text>
</a>
</g>
</g>
<!-- dir_4eabde2f0c23e2995d24249ec72e579f&#45;&gt;dir_e4bcde167f88f305238965282a0ab06e -->
<g id="edge12" class="edge">
<title>dir_4eabde2f0c23e2995d24249ec72e579f&#45;&gt;dir_e4bcde167f88f305238965282a0ab06e</title>
<path fill="none" stroke="black" d="M257.33,-287.82C257.99,-269.82 258.19,-240.75 254.41,-216 249.11,-181.27 236.96,-142.59 228.24,-117.59"/>
<polygon fill="black" stroke="black" points="231.51,-116.32 224.86,-108.08 224.91,-118.67 231.51,-116.32"/>
<g id="a_edge12&#45;headlabel"><a xlink:href="dir_000022_000027.html" target="_top" xlink:title="8">
<text text-anchor="middle" x="235.39" y="-116.26" font-family="Helvetica,sans-Serif" font-size="10.00">8</text>
</a>
</g>
</g>
<!-- dir_2597320cd5a766e2ddfc672ddb4c534b&#45;&gt;dir_68ffa5ca8ccfa6448bd0595e797999e4 -->
<g id="edge1" class="edge">
<title>dir_2597320cd5a766e2ddfc672ddb4c534b&#45;&gt;dir_68ffa5ca8ccfa6448bd0595e797999e4</title>
<path fill="none" stroke="black" d="M149.85,-143.87C137.59,-119.35 114.93,-74.03 100.54,-45.26"/>
<polygon fill="black" stroke="black" points="103.61,-43.57 96.01,-36.19 97.35,-46.7 103.61,-43.57"/>
<g id="a_edge1&#45;headlabel"><a xlink:href="dir_000005_000026.html" target="_top" xlink:title="1">
<text text-anchor="middle" x="107.76" y="-43.01" font-family="Helvetica,sans-Serif" font-size="10.00">1</text>
</a>
</g>
</g>
<!-- dir_2597320cd5a766e2ddfc672ddb4c534b&#45;&gt;dir_8bac7462668d86a984d2ee5977e3cf6a -->
<g id="edge2" class="edge">
<title>dir_2597320cd5a766e2ddfc672ddb4c534b&#45;&gt;dir_8bac7462668d86a984d2ee5977e3cf6a</title>
<path fill="none" stroke="black" d="M159.21,-143.9C160.9,-124.63 166.17,-93.22 182.41,-72 196.2,-53.99 217.99,-40.99 236.79,-32.38"/>
<polygon fill="black" stroke="black" points="238.23,-35.57 246.01,-28.38 235.45,-29.14 238.23,-35.57"/>
<g id="a_edge2&#45;headlabel"><a xlink:href="dir_000005_000035.html" target="_top" xlink:title="2">
<text text-anchor="middle" x="236.06" y="-37.1" font-family="Helvetica,sans-Serif" font-size="10.00">2</text>
</a>
</g>
</g>
<!-- dir_2597320cd5a766e2ddfc672ddb4c534b&#45;&gt;dir_e4bcde167f88f305238965282a0ab06e -->
<g id="edge3" class="edge">
<title>dir_2597320cd5a766e2ddfc672ddb4c534b&#45;&gt;dir_e4bcde167f88f305238965282a0ab06e</title>
<path fill="none" stroke="black" d="M167.33,-143.7C173.72,-135.22 182.41,-124.86 190.87,-115.58"/>
<polygon fill="black" stroke="black" points="193.58,-117.8 197.86,-108.1 188.47,-113.02 193.58,-117.8"/>
<g id="a_edge3&#45;headlabel"><a xlink:href="dir_000005_000027.html" target="_top" xlink:title="8">
<text text-anchor="middle" x="193.2" y="-119.86" font-family="Helvetica,sans-Serif" font-size="10.00">8</text>
</a>
</g>
</g>
<!-- dir_70beccd1d8997d0174d02d630d77a447&#45;&gt;dir_e4bcde167f88f305238965282a0ab06e -->
<g id="edge4" class="edge">
<title>dir_70beccd1d8997d0174d02d630d77a447&#45;&gt;dir_e4bcde167f88f305238965282a0ab06e</title>
<path fill="none" stroke="black" d="M322.27,-146.5C302.6,-135.98 275.8,-121.66 254.35,-110.2"/>
<polygon fill="black" stroke="black" points="255.99,-107.11 245.52,-105.49 252.69,-113.29 255.99,-107.11"/>
<g id="a_edge4&#45;headlabel"><a xlink:href="dir_000012_000027.html" target="_top" xlink:title="3">
<text text-anchor="middle" x="260.5" y="-103.8" font-family="Helvetica,sans-Serif" font-size="10.00">3</text>
</a>
</g>
</g>
<!-- dir_c25cf638d32e4911582a285b040105d2&#45;&gt;dir_68ffa5ca8ccfa6448bd0595e797999e4 -->
<g id="edge13" class="edge">
<title>dir_c25cf638d32e4911582a285b040105d2&#45;&gt;dir_68ffa5ca8ccfa6448bd0595e797999e4</title>
<path fill="none" stroke="black" d="M191.26,-226C167.97,-218.55 135.41,-204.38 117.41,-180 88.24,-140.47 84.78,-80.95 85.61,-46.44"/>
<polygon fill="black" stroke="black" points="89.12,-46.3 86.01,-36.17 82.13,-46.03 89.12,-46.3"/>
<g id="a_edge13&#45;headlabel"><a xlink:href="dir_000036_000026.html" target="_top" xlink:title="1">
<text text-anchor="middle" x="91.82" y="-47.5" font-family="Helvetica,sans-Serif" font-size="10.00">1</text>
</a>
</g>
</g>
<!-- dir_c25cf638d32e4911582a285b040105d2&#45;&gt;dir_2597320cd5a766e2ddfc672ddb4c534b -->
<g id="edge14" class="edge">
<title>dir_c25cf638d32e4911582a285b040105d2&#45;&gt;dir_2597320cd5a766e2ddfc672ddb4c534b</title>
<path fill="none" stroke="black" d="M203.58,-215.7C196.39,-207.3 187.62,-197.07 179.72,-187.86"/>
<polygon fill="black" stroke="black" points="182.24,-185.42 173.07,-180.1 176.92,-189.97 182.24,-185.42"/>
<g id="a_edge14&#45;headlabel"><a xlink:href="dir_000036_000005.html" target="_top" xlink:title="1">
<text text-anchor="middle" x="186.73" y="-183.8" font-family="Helvetica,sans-Serif" font-size="10.00">1</text>
</a>
</g>
</g>
<!-- dir_c25cf638d32e4911582a285b040105d2&#45;&gt;dir_8bac7462668d86a984d2ee5977e3cf6a -->
<g id="edge15" class="edge">
<title>dir_c25cf638d32e4911582a285b040105d2&#45;&gt;dir_8bac7462668d86a984d2ee5977e3cf6a</title>
<path fill="none" stroke="black" d="M223.81,-215.71C231.21,-191.69 244.7,-146.78 254.41,-108 259.56,-87.44 264.53,-63.99 268.1,-46.32"/>
<polygon fill="black" stroke="black" points="271.6,-46.63 270.12,-36.14 264.74,-45.27 271.6,-46.63"/>
<g id="a_edge15&#45;headlabel"><a xlink:href="dir_000036_000035.html" target="_top" xlink:title="2">
<text text-anchor="middle" x="273.69" y="-48.22" font-family="Helvetica,sans-Serif" font-size="10.00">2</text>
</a>
</g>
</g>
<!-- dir_c25cf638d32e4911582a285b040105d2&#45;&gt;dir_e4bcde167f88f305238965282a0ab06e -->
<g id="edge16" class="edge">
<title>dir_c25cf638d32e4911582a285b040105d2&#45;&gt;dir_e4bcde167f88f305238965282a0ab06e</title>
<path fill="none" stroke="black" d="M218.41,-215.87C218.41,-191.67 218.41,-147.21 218.41,-118.39"/>
<polygon fill="black" stroke="black" points="221.91,-118.19 218.41,-108.19 214.91,-118.19 221.91,-118.19"/>
<g id="a_edge16&#45;headlabel"><a xlink:href="dir_000036_000027.html" target="_top" xlink:title="2">
<text text-anchor="middle" x="224.75" y="-119.28" font-family="Helvetica,sans-Serif" font-size="10.00">2</text>
</a>
</g>
</g>
<!-- dir_6bb50a2f0076c8f8a35f09a1613f8275&#45;&gt;dir_68ffa5ca8ccfa6448bd0595e797999e4 -->
<g id="edge17" class="edge">
<title>dir_6bb50a2f0076c8f8a35f09a1613f8275&#45;&gt;dir_68ffa5ca8ccfa6448bd0595e797999e4</title>
<path fill="none" stroke="black" d="M48.72,-143.87C56.25,-119.56 70.12,-74.82 79.04,-46.01"/>
<polygon fill="black" stroke="black" points="82.47,-46.78 82.09,-36.19 75.78,-44.71 82.47,-46.78"/>
<g id="a_edge17&#45;headlabel"><a xlink:href="dir_000023_000026.html" target="_top" xlink:title="1">
<text text-anchor="middle" x="84.12" y="-48.55" font-family="Helvetica,sans-Serif" font-size="10.00">1</text>
</a>
</g>
</g>
<!-- dir_6bb50a2f0076c8f8a35f09a1613f8275&#45;&gt;dir_e4bcde167f88f305238965282a0ab06e -->
<g id="edge18" class="edge">
<title>dir_6bb50a2f0076c8f8a35f09a1613f8275&#45;&gt;dir_e4bcde167f88f305238965282a0ab06e</title>
<path fill="none" stroke="black" d="M70.76,-150.06C100.68,-138.09 148.79,-118.85 181.92,-105.6"/>
<polygon fill="black" stroke="black" points="183.28,-108.82 191.26,-101.86 180.68,-102.32 183.28,-108.82"/>
<g id="a_edge18&#45;headlabel"><a xlink:href="dir_000023_000027.html" target="_top" xlink:title="1">
<text text-anchor="middle" x="180.99" y="-110.3" font-family="Helvetica,sans-Serif" font-size="10.00">1</text>
</a>
</g>
</g>
<!-- dir_7429a52da4efb9f4e51ba2fcc7c0b4e8&#45;&gt;dir_70beccd1d8997d0174d02d630d77a447 -->
<g id="edge19" class="edge">
<title>dir_7429a52da4efb9f4e51ba2fcc7c0b4e8&#45;&gt;dir_70beccd1d8997d0174d02d630d77a447</title>
<path fill="none" stroke="black" d="M384.8,-215.7C379.27,-207.47 372.57,-197.48 366.48,-188.42"/>
<polygon fill="black" stroke="black" points="369.38,-186.46 360.9,-180.1 363.57,-190.36 369.38,-186.46"/>
<g id="a_edge19&#45;headlabel"><a xlink:href="dir_000021_000012.html" target="_top" xlink:title="1">
<text text-anchor="middle" x="373.74" y="-185.36" font-family="Helvetica,sans-Serif" font-size="10.00">1</text>
</a>
</g>
</g>
<!-- dir_7429a52da4efb9f4e51ba2fcc7c0b4e8&#45;&gt;dir_8bac7462668d86a984d2ee5977e3cf6a -->
<g id="edge20" class="edge">
<title>dir_7429a52da4efb9f4e51ba2fcc7c0b4e8&#45;&gt;dir_8bac7462668d86a984d2ee5977e3cf6a</title>
<path fill="none" stroke="black" d="M402.97,-215.84C408.96,-197.34 415.48,-167.4 405.41,-144 385.97,-98.82 341.28,-62.32 309.29,-40.68"/>
<polygon fill="black" stroke="black" points="310.91,-37.56 300.63,-34.97 307.06,-43.4 310.91,-37.56"/>
<g id="a_edge20&#45;headlabel"><a xlink:href="dir_000021_000035.html" target="_top" xlink:title="2">
<text text-anchor="middle" x="315.47" y="-34.66" font-family="Helvetica,sans-Serif" font-size="10.00">2</text>
</a>
</g>
</g>
<!-- dir_7429a52da4efb9f4e51ba2fcc7c0b4e8&#45;&gt;dir_e4bcde167f88f305238965282a0ab06e -->
<g id="edge21" class="edge">
<title>dir_7429a52da4efb9f4e51ba2fcc7c0b4e8&#45;&gt;dir_e4bcde167f88f305238965282a0ab06e</title>
<path fill="none" stroke="black" d="M399.33,-215.81C401.64,-196.16 402.13,-164.12 385.41,-144 353.7,-105.83 294.57,-94.78 255.86,-91.79"/>
<polygon fill="black" stroke="black" points="255.72,-88.28 245.52,-91.15 255.29,-95.26 255.72,-88.28"/>
<g id="a_edge21&#45;headlabel"><a xlink:href="dir_000021_000027.html" target="_top" xlink:title="1">
<text text-anchor="middle" x="259.49" y="-83.17" font-family="Helvetica,sans-Serif" font-size="10.00">1</text>
</a>
</g>
</g>
<!-- dir_e4bcde167f88f305238965282a0ab06e&#45;&gt;dir_68ffa5ca8ccfa6448bd0595e797999e4 -->
<g id="edge22" class="edge">
<title>dir_e4bcde167f88f305238965282a0ab06e&#45;&gt;dir_68ffa5ca8ccfa6448bd0595e797999e4</title>
<path fill="none" stroke="black" d="M191.27,-74.5C171.95,-64.17 145.75,-50.17 124.5,-38.82"/>
<polygon fill="black" stroke="black" points="125.9,-35.59 115.43,-33.97 122.6,-41.77 125.9,-35.59"/>
<g id="a_edge22&#45;headlabel"><a xlink:href="dir_000027_000026.html" target="_top" xlink:title="3">
<text text-anchor="middle" x="130.4" y="-32.28" font-family="Helvetica,sans-Serif" font-size="10.00">3</text>
</a>
</g>
</g>
<!-- dir_e4bcde167f88f305238965282a0ab06e&#45;&gt;dir_2597320cd5a766e2ddfc672ddb4c534b -->
<g id="edge23" class="edge">
<title>dir_e4bcde167f88f305238965282a0ab06e&#45;&gt;dir_2597320cd5a766e2ddfc672ddb4c534b</title>
<path fill="none" stroke="black" d="M209.65,-108.1C203.29,-116.55 194.62,-126.9 186.16,-136.2"/>
<polygon fill="black" stroke="black" points="183.43,-134 179.16,-143.7 188.54,-138.78 183.43,-134"/>
<g id="a_edge23&#45;headlabel"><a xlink:href="dir_000027_000005.html" target="_top" xlink:title="1">
<text text-anchor="middle" x="183.8" y="-126.93" font-family="Helvetica,sans-Serif" font-size="10.00">1</text>
</a>
</g>
</g>
<!-- dir_e4bcde167f88f305238965282a0ab06e&#45;&gt;dir_8bac7462668d86a984d2ee5977e3cf6a -->
<g id="edge24" class="edge">
<title>dir_e4bcde167f88f305238965282a0ab06e&#45;&gt;dir_8bac7462668d86a984d2ee5977e3cf6a</title>
<path fill="none" stroke="black" d="M232.01,-71.7C238.54,-63.39 246.48,-53.28 253.66,-44.14"/>
<polygon fill="black" stroke="black" points="256.55,-46.13 259.97,-36.1 251.04,-41.81 256.55,-46.13"/>
<g id="a_edge24&#45;headlabel"><a xlink:href="dir_000027_000035.html" target="_top" xlink:title="7">
<text text-anchor="middle" x="256.56" y="-48.21" font-family="Helvetica,sans-Serif" font-size="10.00">7</text>
</a>
</g>
</g>
</g>
</svg>
