<?xml version="1.0" encoding="UTF-8" standalone="no"?>
<!DOCTYPE svg PUBLIC "-//W3C//DTD SVG 1.1//EN"
 "http://www.w3.org/Graphics/SVG/1.1/DTD/svg11.dtd">
<!-- Generated by graphviz version 2.43.0 (0)
 -->
<!-- Title: Kineis/Extdep/Mcu/Src Pages: 1 -->
<svg width="198pt" height="223pt"
 viewBox="0.00 0.00 197.94 223.00" xmlns="http://www.w3.org/2000/svg" xmlns:xlink="http://www.w3.org/1999/xlink">
<g id="graph0" class="graph" transform="scale(1 1) rotate(0) translate(4 219)">
<title>Kineis/Extdep/Mcu/Src</title>
<polygon fill="white" stroke="transparent" points="-4,4 -4,-219 193.94,-219 193.94,4 -4,4"/>
<g id="clust1" class="cluster">
<title>clusterdir_aca22906c4dbdf8e38c05a61c7a67a25</title>
<g id="a_clust1"><a xlink:href="dir_aca22906c4dbdf8e38c05a61c7a67a25.html" target="_top" xlink:title="Mcu">
<polygon fill="#ddddee" stroke="black" points="41.94,-136 41.94,-207 111.94,-207 111.94,-136 41.94,-136"/>
<text text-anchor="middle" x="76.94" y="-195" font-family="Helvetica,sans-Serif" font-size="10.00">Mcu</text>
</a>
</g>
</g>
<!-- dir_089d8fe640958b1df7ad1ed896db5d73 -->
<g id="node1" class="node">
<title>dir_089d8fe640958b1df7ad1ed896db5d73</title>
<g id="a_node1"><a xlink:href="dir_089d8fe640958b1df7ad1ed896db5d73.html" target="_top" xlink:title="Src">
<polygon fill="#eeeeff" stroke="black" points="103.94,-180 49.94,-180 49.94,-144 103.94,-144 103.94,-180"/>
<text text-anchor="middle" x="76.94" y="-159.5" font-family="Helvetica,sans-Serif" font-size="10.00">Src</text>
</a>
</g>
</g>
<!-- dir_68ffa5ca8ccfa6448bd0595e797999e4 -->
<g id="node2" class="node">
<title>dir_68ffa5ca8ccfa6448bd0595e797999e4</title>
<g id="a_node2"><a xlink:href="dir_68ffa5ca8ccfa6448bd0595e797999e4.html" target="_top" xlink:title="Appconf">
<polygon fill="none" stroke="black" points="56.94,-36 0.94,-36 0.94,0 56.94,0 56.94,-36"/>
<text text-anchor="middle" x="28.94" y="-15.5" font-family="Helvetica,sans-Serif" font-size="10.00">Appconf</text>
</a>
</g>
</g>
<!-- dir_089d8fe640958b1df7ad1ed896db5d73&#45;&gt;dir_68ffa5ca8ccfa6448bd0595e797999e4 -->
<g id="edge3" class="edge">
<title>dir_089d8fe640958b1df7ad1ed896db5d73&#45;&gt;dir_68ffa5ca8ccfa6448bd0595e797999e4</title>
<path fill="none" stroke="black" d="M49.86,-149.01C33.61,-140.21 14.32,-126.56 4.94,-108 -5.15,-88.05 2.92,-63.38 12.33,-45.08"/>
<polygon fill="black" stroke="black" points="15.49,-46.59 17.28,-36.15 9.37,-43.19 15.49,-46.59"/>
<g id="a_edge3&#45;headlabel"><a xlink:href="dir_000031_000026.html" target="_top" xlink:title="1">
<text text-anchor="middle" x="16.23" y="-48.61" font-family="Helvetica,sans-Serif" font-size="10.00">1</text>
</a>
</g>
</g>
<!-- dir_603c3abc85dcd5ce81fff229f71c4fb7 -->
<g id="node3" class="node">
<title>dir_603c3abc85dcd5ce81fff229f71c4fb7</title>
<g id="a_node3"><a xlink:href="dir_603c3abc85dcd5ce81fff229f71c4fb7.html" target="_top" xlink:title="MGR_LOG">
<polygon fill="white" stroke="red" points="79.44,-108 14.44,-108 14.44,-72 79.44,-72 79.44,-108"/>
<text text-anchor="middle" x="46.94" y="-87.5" font-family="Helvetica,sans-Serif" font-size="10.00">MGR_LOG</text>
</a>
</g>
</g>
<!-- dir_089d8fe640958b1df7ad1ed896db5d73&#45;&gt;dir_603c3abc85dcd5ce81fff229f71c4fb7 -->
<g id="edge4" class="edge">
<title>dir_089d8fe640958b1df7ad1ed896db5d73&#45;&gt;dir_603c3abc85dcd5ce81fff229f71c4fb7</title>
<path fill="none" stroke="black" d="M69.52,-143.7C66.14,-135.81 62.07,-126.3 58.32,-117.55"/>
<polygon fill="black" stroke="black" points="61.43,-115.92 54.27,-108.1 54.99,-118.67 61.43,-115.92"/>
<g id="a_edge4&#45;headlabel"><a xlink:href="dir_000031_000032.html" target="_top" xlink:title="2">
<text text-anchor="middle" x="65.45" y="-115.6" font-family="Helvetica,sans-Serif" font-size="10.00">2</text>
</a>
</g>
</g>
<!-- dir_8bac7462668d86a984d2ee5977e3cf6a -->
<g id="node4" class="node">
<title>dir_8bac7462668d86a984d2ee5977e3cf6a</title>
<g id="a_node4"><a xlink:href="dir_8bac7462668d86a984d2ee5977e3cf6a.html" target="_top" xlink:title="Lib">
<polygon fill="none" stroke="black" points="152.94,-36 98.94,-36 98.94,0 152.94,0 152.94,-36"/>
<text text-anchor="middle" x="125.94" y="-15.5" font-family="Helvetica,sans-Serif" font-size="10.00">Lib</text>
</a>
</g>
</g>
<!-- dir_089d8fe640958b1df7ad1ed896db5d73&#45;&gt;dir_8bac7462668d86a984d2ee5977e3cf6a -->
<g id="edge5" class="edge">
<title>dir_089d8fe640958b1df7ad1ed896db5d73&#45;&gt;dir_8bac7462668d86a984d2ee5977e3cf6a</title>
<path fill="none" stroke="black" d="M82.85,-143.87C91.24,-119.56 106.68,-74.82 116.62,-46.01"/>
<polygon fill="black" stroke="black" points="120.05,-46.78 120.01,-36.19 113.44,-44.5 120.05,-46.78"/>
<g id="a_edge5&#45;headlabel"><a xlink:href="dir_000031_000035.html" target="_top" xlink:title="2">
<text text-anchor="middle" x="121.57" y="-48.61" font-family="Helvetica,sans-Serif" font-size="10.00">2</text>
</a>
</g>
</g>
<!-- dir_496cf9278821991a8caa0ed467f49753 -->
<g id="node5" class="node">
<title>dir_496cf9278821991a8caa0ed467f49753</title>
<g id="a_node5"><a xlink:href="dir_496cf9278821991a8caa0ed467f49753.html" target="_top" xlink:title="Inc">
<polygon fill="none" stroke="black" points="189.94,-108 135.94,-108 135.94,-72 189.94,-72 189.94,-108"/>
<text text-anchor="middle" x="162.94" y="-87.5" font-family="Helvetica,sans-Serif" font-size="10.00">Inc</text>
</a>
</g>
</g>
<!-- dir_089d8fe640958b1df7ad1ed896db5d73&#45;&gt;dir_496cf9278821991a8caa0ed467f49753 -->
<g id="edge6" class="edge">
<title>dir_089d8fe640958b1df7ad1ed896db5d73&#45;&gt;dir_496cf9278821991a8caa0ed467f49753</title>
<path fill="none" stroke="black" d="M98.2,-143.7C109.03,-134.88 122.36,-124.03 134.1,-114.47"/>
<polygon fill="black" stroke="black" points="136.38,-117.13 141.93,-108.1 131.96,-111.7 136.38,-117.13"/>
<g id="a_edge6&#45;headlabel"><a xlink:href="dir_000031_000030.html" target="_top" xlink:title="9">
<text text-anchor="middle" x="135.38" y="-119.1" font-family="Helvetica,sans-Serif" font-size="10.00">9</text>
</a>
</g>
</g>
<!-- dir_603c3abc85dcd5ce81fff229f71c4fb7&#45;&gt;dir_68ffa5ca8ccfa6448bd0595e797999e4 -->
<g id="edge1" class="edge">
<title>dir_603c3abc85dcd5ce81fff229f71c4fb7&#45;&gt;dir_68ffa5ca8ccfa6448bd0595e797999e4</title>
<path fill="none" stroke="black" d="M42.49,-71.7C40.48,-63.9 38.07,-54.51 35.84,-45.83"/>
<polygon fill="black" stroke="black" points="39.22,-44.92 33.34,-36.1 32.44,-46.66 39.22,-44.92"/>
<g id="a_edge1&#45;headlabel"><a xlink:href="dir_000032_000026.html" target="_top" xlink:title="2">
<text text-anchor="middle" x="42.86" y="-45.19" font-family="Helvetica,sans-Serif" font-size="10.00">2</text>
</a>
</g>
</g>
<!-- dir_496cf9278821991a8caa0ed467f49753&#45;&gt;dir_8bac7462668d86a984d2ee5977e3cf6a -->
<g id="edge2" class="edge">
<title>dir_496cf9278821991a8caa0ed467f49753&#45;&gt;dir_8bac7462668d86a984d2ee5977e3cf6a</title>
<path fill="none" stroke="black" d="M153.79,-71.7C149.54,-63.64 144.38,-53.89 139.67,-44.98"/>
<polygon fill="black" stroke="black" points="142.75,-43.31 134.98,-36.1 136.56,-46.58 142.75,-43.31"/>
<g id="a_edge2&#45;headlabel"><a xlink:href="dir_000030_000035.html" target="_top" xlink:title="3">
<text text-anchor="middle" x="146.94" y="-42.66" font-family="Helvetica,sans-Serif" font-size="10.00">3</text>
</a>
</g>
</g>
</g>
</svg>
