<?xml version="1.0" encoding="UTF-8" standalone="no"?>
<!DOCTYPE svg PUBLIC "-//W3C//DTD SVG 1.1//EN"
 "http://www.w3.org/Graphics/SVG/1.1/DTD/svg11.dtd">
<!-- Generated by graphviz version 2.43.0 (0)
 -->
<!-- Title: Kineis/App/Kineis_os Pages: 1 -->
<svg width="320pt" height="178pt"
 viewBox="0.00 0.00 320.00 178.37" xmlns="http://www.w3.org/2000/svg" xmlns:xlink="http://www.w3.org/1999/xlink">
<g id="graph0" class="graph" transform="scale(1 1) rotate(0) translate(4 174.37)">
<title>Kineis/App/Kineis_os</title>
<polygon fill="white" stroke="transparent" points="-4,4 -4,-174.37 316,-174.37 316,4 -4,4"/>
<g id="clust1" class="cluster">
<title>clusterdir_283ee20ab5eb9693b75f98890f2aae44</title>
<g id="a_clust1"><a xlink:href="dir_283ee20ab5eb9693b75f98890f2aae44.html" target="_top" xlink:title="App">
<polygon fill="#ddddee" stroke="black" points="62,-56 62,-143 304,-143 304,-56 62,-56"/>
<text text-anchor="middle" x="183" y="-131" font-family="Helvetica,sans-Serif" font-size="10.00">App</text>
</a>
</g>
</g>
<g id="clust2" class="cluster">
<title>clusterdir_2597320cd5a766e2ddfc672ddb4c534b</title>
<g id="a_clust2"><a xlink:href="dir_2597320cd5a766e2ddfc672ddb4c534b.html" target="_top">
<polygon fill="#eeeeff" stroke="black" points="70,-64 70,-116 296,-116 296,-64 70,-64"/>
</a>
</g>
</g>
<!-- dir_2597320cd5a766e2ddfc672ddb4c534b -->
<g id="node1" class="node">
<title>dir_2597320cd5a766e2ddfc672ddb4c534b</title>
<text text-anchor="middle" x="256" y="-87.5" font-family="Helvetica,sans-Serif" font-size="10.00">Kineis_os</text>
</g>
<!-- dir_3992098c38770792185064af681390b8 -->
<g id="node2" class="node">
<title>dir_3992098c38770792185064af681390b8</title>
<g id="a_node2"><a xlink:href="dir_3992098c38770792185064af681390b8.html" target="_top" xlink:title="KNS_OS">
<polygon fill="white" stroke="red" points="134,-108 78,-108 78,-72 134,-72 134,-108"/>
<text text-anchor="middle" x="106" y="-87.5" font-family="Helvetica,sans-Serif" font-size="10.00">KNS_OS</text>
</a>
</g>
</g>
<!-- dir_68ffa5ca8ccfa6448bd0595e797999e4 -->
<g id="node4" class="node">
<title>dir_68ffa5ca8ccfa6448bd0595e797999e4</title>
<g id="a_node4"><a xlink:href="dir_68ffa5ca8ccfa6448bd0595e797999e4.html" target="_top" xlink:title="Appconf">
<polygon fill="none" stroke="black" points="58,-36 2,-36 2,0 58,0 58,-36"/>
<text text-anchor="middle" x="30" y="-15.5" font-family="Helvetica,sans-Serif" font-size="10.00">Appconf</text>
</a>
</g>
</g>
<!-- dir_3992098c38770792185064af681390b8&#45;&gt;dir_68ffa5ca8ccfa6448bd0595e797999e4 -->
<g id="edge1" class="edge">
<title>dir_3992098c38770792185064af681390b8&#45;&gt;dir_68ffa5ca8ccfa6448bd0595e797999e4</title>
<path fill="none" stroke="black" d="M87.21,-71.7C77.83,-63.05 66.32,-52.45 56.09,-43.03"/>
<polygon fill="black" stroke="black" points="58.3,-40.3 48.57,-36.1 53.55,-45.45 58.3,-40.3"/>
<g id="a_edge1&#45;headlabel"><a xlink:href="dir_000006_000026.html" target="_top" xlink:title="1">
<text text-anchor="middle" x="62.86" y="-38.15" font-family="Helvetica,sans-Serif" font-size="10.00">1</text>
</a>
</g>
</g>
<!-- dir_8bac7462668d86a984d2ee5977e3cf6a -->
<g id="node5" class="node">
<title>dir_8bac7462668d86a984d2ee5977e3cf6a</title>
<g id="a_node5"><a xlink:href="dir_8bac7462668d86a984d2ee5977e3cf6a.html" target="_top" xlink:title="Lib">
<polygon fill="none" stroke="black" points="133,-36 79,-36 79,0 133,0 133,-36"/>
<text text-anchor="middle" x="106" y="-15.5" font-family="Helvetica,sans-Serif" font-size="10.00">Lib</text>
</a>
</g>
</g>
<!-- dir_3992098c38770792185064af681390b8&#45;&gt;dir_8bac7462668d86a984d2ee5977e3cf6a -->
<g id="edge2" class="edge">
<title>dir_3992098c38770792185064af681390b8&#45;&gt;dir_8bac7462668d86a984d2ee5977e3cf6a</title>
<path fill="none" stroke="black" d="M106,-71.7C106,-63.98 106,-54.71 106,-46.11"/>
<polygon fill="black" stroke="black" points="109.5,-46.1 106,-36.1 102.5,-46.1 109.5,-46.1"/>
<g id="a_edge2&#45;headlabel"><a xlink:href="dir_000006_000035.html" target="_top" xlink:title="1">
<text text-anchor="middle" x="112.34" y="-47.2" font-family="Helvetica,sans-Serif" font-size="10.00">1</text>
</a>
</g>
</g>
<!-- dir_565abc7797190263a19144fc71b59106 -->
<g id="node3" class="node">
<title>dir_565abc7797190263a19144fc71b59106</title>
<g id="a_node3"><a xlink:href="dir_565abc7797190263a19144fc71b59106.html" target="_top" xlink:title="KNS_Q">
<polygon fill="white" stroke="red" points="206,-108 152,-108 152,-72 206,-72 206,-108"/>
<text text-anchor="middle" x="179" y="-87.5" font-family="Helvetica,sans-Serif" font-size="10.00">KNS_Q</text>
</a>
</g>
</g>
<!-- dir_565abc7797190263a19144fc71b59106&#45;&gt;dir_8bac7462668d86a984d2ee5977e3cf6a -->
<g id="edge3" class="edge">
<title>dir_565abc7797190263a19144fc71b59106&#45;&gt;dir_8bac7462668d86a984d2ee5977e3cf6a</title>
<path fill="none" stroke="black" d="M160.96,-71.7C151.94,-63.05 140.88,-52.45 131.06,-43.03"/>
<polygon fill="black" stroke="black" points="133.48,-40.5 123.84,-36.1 128.63,-45.55 133.48,-40.5"/>
<g id="a_edge3&#45;headlabel"><a xlink:href="dir_000009_000035.html" target="_top" xlink:title="1">
<text text-anchor="middle" x="138.04" y="-38.44" font-family="Helvetica,sans-Serif" font-size="10.00">1</text>
</a>
</g>
</g>
<!-- dir_e4bcde167f88f305238965282a0ab06e -->
<g id="node6" class="node">
<title>dir_e4bcde167f88f305238965282a0ab06e</title>
<g id="a_node6"><a xlink:href="dir_e4bcde167f88f305238965282a0ab06e.html" target="_top" xlink:title="Extdep">
<polygon fill="white" stroke="red" points="54,-108 0,-108 0,-72 54,-72 54,-108"/>
<text text-anchor="middle" x="27" y="-87.5" font-family="Helvetica,sans-Serif" font-size="10.00">Extdep</text>
</a>
</g>
</g>
<!-- dir_565abc7797190263a19144fc71b59106&#45;&gt;dir_e4bcde167f88f305238965282a0ab06e -->
<g id="edge4" class="edge">
<title>dir_565abc7797190263a19144fc71b59106&#45;&gt;dir_e4bcde167f88f305238965282a0ab06e</title>
<path fill="none" stroke="black" d="M173.27,-108.04C166.77,-125.14 154.33,-149.82 134,-161 111.02,-173.64 98.16,-173.3 75,-161 57.7,-151.81 45.49,-133.29 37.72,-117.47"/>
<polygon fill="black" stroke="black" points="40.78,-115.73 33.45,-108.08 34.41,-118.63 40.78,-115.73"/>
<g id="a_edge4&#45;headlabel"><a xlink:href="dir_000009_000027.html" target="_top" xlink:title="8">
<text text-anchor="middle" x="44.85" y="-115.33" font-family="Helvetica,sans-Serif" font-size="10.00">8</text>
</a>
</g>
</g>
<!-- dir_e4bcde167f88f305238965282a0ab06e&#45;&gt;dir_565abc7797190263a19144fc71b59106 -->
<g id="edge7" class="edge">
<title>dir_e4bcde167f88f305238965282a0ab06e&#45;&gt;dir_565abc7797190263a19144fc71b59106</title>
<path fill="none" stroke="black" d="M33.45,-108.08C40.65,-125.2 54.11,-149.9 75,-161 98.16,-173.3 111.02,-173.64 134,-161 150.84,-151.74 162.26,-133.22 169.38,-117.42"/>
<polygon fill="black" stroke="black" points="172.67,-118.62 173.27,-108.04 166.21,-115.94 172.67,-118.62"/>
<g id="a_edge7&#45;headlabel"><a xlink:href="dir_000027_000009.html" target="_top" xlink:title="1">
<text text-anchor="middle" x="173.92" y="-120.52" font-family="Helvetica,sans-Serif" font-size="10.00">1</text>
</a>
</g>
</g>
<!-- dir_e4bcde167f88f305238965282a0ab06e&#45;&gt;dir_68ffa5ca8ccfa6448bd0595e797999e4 -->
<g id="edge5" class="edge">
<title>dir_e4bcde167f88f305238965282a0ab06e&#45;&gt;dir_68ffa5ca8ccfa6448bd0595e797999e4</title>
<path fill="none" stroke="black" d="M27.74,-71.7C28.07,-63.98 28.47,-54.71 28.84,-46.11"/>
<polygon fill="black" stroke="black" points="32.34,-46.25 29.27,-36.1 25.34,-45.95 32.34,-46.25"/>
<g id="a_edge5&#45;headlabel"><a xlink:href="dir_000027_000026.html" target="_top" xlink:title="3">
<text text-anchor="middle" x="35.02" y="-47.46" font-family="Helvetica,sans-Serif" font-size="10.00">3</text>
</a>
</g>
</g>
<!-- dir_e4bcde167f88f305238965282a0ab06e&#45;&gt;dir_8bac7462668d86a984d2ee5977e3cf6a -->
<g id="edge6" class="edge">
<title>dir_e4bcde167f88f305238965282a0ab06e&#45;&gt;dir_8bac7462668d86a984d2ee5977e3cf6a</title>
<path fill="none" stroke="black" d="M46.53,-71.7C56.38,-62.97 68.49,-52.24 79.2,-42.75"/>
<polygon fill="black" stroke="black" points="81.53,-45.36 86.7,-36.1 76.89,-40.12 81.53,-45.36"/>
<g id="a_edge6&#45;headlabel"><a xlink:href="dir_000027_000035.html" target="_top" xlink:title="7">
<text text-anchor="middle" x="80.73" y="-47.36" font-family="Helvetica,sans-Serif" font-size="10.00">7</text>
</a>
</g>
</g>
</g>
</svg>
