<?xml version="1.0" encoding="UTF-8" standalone="no"?>
<!DOCTYPE svg PUBLIC "-//W3C//DTD SVG 1.1//EN"
 "http://www.w3.org/Graphics/SVG/1.1/DTD/svg11.dtd">
<!-- Generated by graphviz version 2.43.0 (0)
 -->
<!-- Title: Kineis/App/Mcu Pages: 1 -->
<svg width="254pt" height="231pt"
 viewBox="0.00 0.00 254.00 231.00" xmlns="http://www.w3.org/2000/svg" xmlns:xlink="http://www.w3.org/1999/xlink">
<g id="graph0" class="graph" transform="scale(1 1) rotate(0) translate(4 227)">
<title>Kineis/App/Mcu</title>
<polygon fill="white" stroke="transparent" points="-4,4 -4,-227 250,-227 250,4 -4,4"/>
<g id="clust1" class="cluster">
<title>clusterdir_283ee20ab5eb9693b75f98890f2aae44</title>
<g id="a_clust1"><a xlink:href="dir_283ee20ab5eb9693b75f98890f2aae44.html" target="_top" xlink:title="App">
<polygon fill="#ddddee" stroke="black" points="8,-128 8,-215 238,-215 238,-128 8,-128"/>
<text text-anchor="middle" x="123" y="-203" font-family="Helvetica,sans-Serif" font-size="10.00">App</text>
</a>
</g>
</g>
<g id="clust2" class="cluster">
<title>clusterdir_6bb50a2f0076c8f8a35f09a1613f8275</title>
<g id="a_clust2"><a xlink:href="dir_6bb50a2f0076c8f8a35f09a1613f8275.html" target="_top">
<polygon fill="#eeeeff" stroke="black" points="16,-136 16,-188 230,-188 230,-136 16,-136"/>
</a>
</g>
</g>
<!-- dir_6bb50a2f0076c8f8a35f09a1613f8275 -->
<g id="node1" class="node">
<title>dir_6bb50a2f0076c8f8a35f09a1613f8275</title>
<text text-anchor="middle" x="195" y="-159.5" font-family="Helvetica,sans-Serif" font-size="10.00">Mcu</text>
</g>
<!-- dir_1ba82d7e188c4fc51a73657f008777df -->
<g id="node2" class="node">
<title>dir_1ba82d7e188c4fc51a73657f008777df</title>
<g id="a_node2"><a xlink:href="dir_1ba82d7e188c4fc51a73657f008777df.html" target="_top" xlink:title="Inc">
<polygon fill="white" stroke="black" points="150,-180 96,-180 96,-144 150,-144 150,-180"/>
<text text-anchor="middle" x="123" y="-159.5" font-family="Helvetica,sans-Serif" font-size="10.00">Inc</text>
</a>
</g>
</g>
<!-- dir_2746af6fd9215695ee62a3ce52ea8276 -->
<g id="node3" class="node">
<title>dir_2746af6fd9215695ee62a3ce52ea8276</title>
<g id="a_node3"><a xlink:href="dir_2746af6fd9215695ee62a3ce52ea8276.html" target="_top" xlink:title="Src">
<polygon fill="white" stroke="black" points="78,-180 24,-180 24,-144 78,-144 78,-180"/>
<text text-anchor="middle" x="51" y="-159.5" font-family="Helvetica,sans-Serif" font-size="10.00">Src</text>
</a>
</g>
</g>
<!-- dir_68ffa5ca8ccfa6448bd0595e797999e4 -->
<g id="node4" class="node">
<title>dir_68ffa5ca8ccfa6448bd0595e797999e4</title>
<g id="a_node4"><a xlink:href="dir_68ffa5ca8ccfa6448bd0595e797999e4.html" target="_top" xlink:title="Appconf">
<polygon fill="none" stroke="black" points="78,-36 22,-36 22,0 78,0 78,-36"/>
<text text-anchor="middle" x="50" y="-15.5" font-family="Helvetica,sans-Serif" font-size="10.00">Appconf</text>
</a>
</g>
</g>
<!-- dir_2746af6fd9215695ee62a3ce52ea8276&#45;&gt;dir_68ffa5ca8ccfa6448bd0595e797999e4 -->
<g id="edge1" class="edge">
<title>dir_2746af6fd9215695ee62a3ce52ea8276&#45;&gt;dir_68ffa5ca8ccfa6448bd0595e797999e4</title>
<path fill="none" stroke="black" d="M47.35,-143.91C45.32,-133.57 43.02,-120.09 42,-108 40.66,-92.06 40.8,-87.96 42,-72 42.64,-63.52 43.84,-54.34 45.12,-46.04"/>
<polygon fill="black" stroke="black" points="48.58,-46.55 46.75,-36.11 41.68,-45.41 48.58,-46.55"/>
<g id="a_edge1&#45;headlabel"><a xlink:href="dir_000025_000026.html" target="_top" xlink:title="1">
<text text-anchor="middle" x="50.8" y="-48.05" font-family="Helvetica,sans-Serif" font-size="10.00">1</text>
</a>
</g>
</g>
<!-- dir_e4bcde167f88f305238965282a0ab06e -->
<g id="node5" class="node">
<title>dir_e4bcde167f88f305238965282a0ab06e</title>
<g id="a_node5"><a xlink:href="dir_e4bcde167f88f305238965282a0ab06e.html" target="_top" xlink:title="Extdep">
<polygon fill="white" stroke="red" points="105,-108 51,-108 51,-72 105,-72 105,-108"/>
<text text-anchor="middle" x="78" y="-87.5" font-family="Helvetica,sans-Serif" font-size="10.00">Extdep</text>
</a>
</g>
</g>
<!-- dir_2746af6fd9215695ee62a3ce52ea8276&#45;&gt;dir_e4bcde167f88f305238965282a0ab06e -->
<g id="edge2" class="edge">
<title>dir_2746af6fd9215695ee62a3ce52ea8276&#45;&gt;dir_e4bcde167f88f305238965282a0ab06e</title>
<path fill="none" stroke="black" d="M57.67,-143.7C60.71,-135.81 64.38,-126.3 67.76,-117.55"/>
<polygon fill="black" stroke="black" points="71.07,-118.69 71.4,-108.1 64.54,-116.17 71.07,-118.69"/>
<g id="a_edge2&#45;headlabel"><a xlink:href="dir_000025_000027.html" target="_top" xlink:title="1">
<text text-anchor="middle" x="72.42" y="-120.57" font-family="Helvetica,sans-Serif" font-size="10.00">1</text>
</a>
</g>
</g>
<!-- dir_e4bcde167f88f305238965282a0ab06e&#45;&gt;dir_68ffa5ca8ccfa6448bd0595e797999e4 -->
<g id="edge3" class="edge">
<title>dir_e4bcde167f88f305238965282a0ab06e&#45;&gt;dir_68ffa5ca8ccfa6448bd0595e797999e4</title>
<path fill="none" stroke="black" d="M71.08,-71.7C67.93,-63.81 64.12,-54.3 60.62,-45.55"/>
<polygon fill="black" stroke="black" points="63.81,-44.09 56.84,-36.1 57.31,-46.69 63.81,-44.09"/>
<g id="a_edge3&#45;headlabel"><a xlink:href="dir_000027_000026.html" target="_top" xlink:title="3">
<text text-anchor="middle" x="67.78" y="-43.87" font-family="Helvetica,sans-Serif" font-size="10.00">3</text>
</a>
</g>
</g>
</g>
</svg>
