<?xml version="1.0" encoding="UTF-8" standalone="no"?>
<!DOCTYPE svg PUBLIC "-//W3C//DTD SVG 1.1//EN"
 "http://www.w3.org/Graphics/SVG/1.1/DTD/svg11.dtd">
<!-- Generated by graphviz version 2.43.0 (0)
 -->
<!-- Title: Kineis/App/Libs Pages: 1 -->
<svg width="272pt" height="159pt"
 viewBox="0.00 0.00 272.00 159.00" xmlns="http://www.w3.org/2000/svg" xmlns:xlink="http://www.w3.org/1999/xlink">
<g id="graph0" class="graph" transform="scale(1 1) rotate(0) translate(4 155)">
<title>Kineis/App/Libs</title>
<polygon fill="white" stroke="transparent" points="-4,4 -4,-155 268,-155 268,4 -4,4"/>
<g id="clust1" class="cluster">
<title>clusterdir_283ee20ab5eb9693b75f98890f2aae44</title>
<g id="a_clust1"><a xlink:href="dir_283ee20ab5eb9693b75f98890f2aae44.html" target="_top" xlink:title="App">
<polygon fill="#ddddee" stroke="black" points="8,-56 8,-143 256,-143 256,-56 8,-56"/>
<text text-anchor="middle" x="132" y="-131" font-family="Helvetica,sans-Serif" font-size="10.00">App</text>
</a>
</g>
</g>
<g id="clust2" class="cluster">
<title>clusterdir_70beccd1d8997d0174d02d630d77a447</title>
<g id="a_clust2"><a xlink:href="dir_70beccd1d8997d0174d02d630d77a447.html" target="_top">
<polygon fill="#eeeeff" stroke="black" points="16,-64 16,-116 248,-116 248,-64 16,-64"/>
</a>
</g>
</g>
<!-- dir_70beccd1d8997d0174d02d630d77a447 -->
<g id="node1" class="node">
<title>dir_70beccd1d8997d0174d02d630d77a447</title>
<text text-anchor="middle" x="213" y="-87.5" font-family="Helvetica,sans-Serif" font-size="10.00">Libs</text>
</g>
<!-- dir_30e769e08e4be49e86a463d17d73ec0a -->
<g id="node2" class="node">
<title>dir_30e769e08e4be49e86a463d17d73ec0a</title>
<g id="a_node2"><a xlink:href="dir_30e769e08e4be49e86a463d17d73ec0a.html" target="_top" xlink:title="STRUTIL">
<polygon fill="white" stroke="red" points="167.5,-108 110.5,-108 110.5,-72 167.5,-72 167.5,-108"/>
<text text-anchor="middle" x="139" y="-87.5" font-family="Helvetica,sans-Serif" font-size="10.00">STRUTIL</text>
</a>
</g>
</g>
<!-- dir_46c6aded582cb38bf172fc7c5a980c8d -->
<g id="node3" class="node">
<title>dir_46c6aded582cb38bf172fc7c5a980c8d</title>
<g id="a_node3"><a xlink:href="dir_46c6aded582cb38bf172fc7c5a980c8d.html" target="_top" xlink:title="USERDATA">
<polygon fill="white" stroke="red" points="92,-108 24,-108 24,-72 92,-72 92,-108"/>
<text text-anchor="middle" x="58" y="-87.5" font-family="Helvetica,sans-Serif" font-size="10.00">USERDATA</text>
</a>
</g>
</g>
<!-- dir_e4bcde167f88f305238965282a0ab06e -->
<g id="node4" class="node">
<title>dir_e4bcde167f88f305238965282a0ab06e</title>
<g id="a_node4"><a xlink:href="dir_e4bcde167f88f305238965282a0ab06e.html" target="_top" xlink:title="Extdep">
<polygon fill="white" stroke="red" points="85,-36 31,-36 31,0 85,0 85,-36"/>
<text text-anchor="middle" x="58" y="-15.5" font-family="Helvetica,sans-Serif" font-size="10.00">Extdep</text>
</a>
</g>
</g>
<!-- dir_46c6aded582cb38bf172fc7c5a980c8d&#45;&gt;dir_e4bcde167f88f305238965282a0ab06e -->
<g id="edge1" class="edge">
<title>dir_46c6aded582cb38bf172fc7c5a980c8d&#45;&gt;dir_e4bcde167f88f305238965282a0ab06e</title>
<path fill="none" stroke="black" d="M58,-71.7C58,-63.98 58,-54.71 58,-46.11"/>
<polygon fill="black" stroke="black" points="61.5,-46.1 58,-36.1 54.5,-46.1 61.5,-46.1"/>
<g id="a_edge1&#45;headlabel"><a xlink:href="dir_000016_000027.html" target="_top" xlink:title="3">
<text text-anchor="middle" x="64.34" y="-47.2" font-family="Helvetica,sans-Serif" font-size="10.00">3</text>
</a>
</g>
</g>
</g>
</svg>
