<?xml version="1.0" encoding="UTF-8" standalone="no"?>
<!DOCTYPE svg PUBLIC "-//W3C//DTD SVG 1.1//EN"
 "http://www.w3.org/Graphics/SVG/1.1/DTD/svg11.dtd">
<!-- Generated by graphviz version 2.43.0 (0)
 -->
<!-- Title: Kineis/Lpm/Src Pages: 1 -->
<svg width="236pt" height="295pt"
 viewBox="0.00 0.00 236.24 295.00" xmlns="http://www.w3.org/2000/svg" xmlns:xlink="http://www.w3.org/1999/xlink">
<g id="graph0" class="graph" transform="scale(1 1) rotate(0) translate(4 291)">
<title>Kineis/Lpm/Src</title>
<polygon fill="white" stroke="transparent" points="-4,4 -4,-291 232.24,-291 232.24,4 -4,4"/>
<g id="clust1" class="cluster">
<title>clusterdir_c25cf638d32e4911582a285b040105d2</title>
<g id="a_clust1"><a xlink:href="dir_c25cf638d32e4911582a285b040105d2.html" target="_top" xlink:title="Lpm">
<polygon fill="#ddddee" stroke="black" points="59.35,-208 59.35,-279 129.35,-279 129.35,-208 59.35,-208"/>
<text text-anchor="middle" x="94.35" y="-267" font-family="Helvetica,sans-Serif" font-size="10.00">Lpm</text>
</a>
</g>
</g>
<!-- dir_ca4490193a0a04522896524a4730dc1d -->
<g id="node1" class="node">
<title>dir_ca4490193a0a04522896524a4730dc1d</title>
<g id="a_node1"><a xlink:href="dir_ca4490193a0a04522896524a4730dc1d.html" target="_top" xlink:title="Src">
<polygon fill="#eeeeff" stroke="black" points="121.35,-252 67.35,-252 67.35,-216 121.35,-216 121.35,-252"/>
<text text-anchor="middle" x="94.35" y="-231.5" font-family="Helvetica,sans-Serif" font-size="10.00">Src</text>
</a>
</g>
</g>
<!-- dir_68ffa5ca8ccfa6448bd0595e797999e4 -->
<g id="node2" class="node">
<title>dir_68ffa5ca8ccfa6448bd0595e797999e4</title>
<g id="a_node2"><a xlink:href="dir_68ffa5ca8ccfa6448bd0595e797999e4.html" target="_top" xlink:title="Appconf">
<polygon fill="none" stroke="black" points="67.35,-36 11.35,-36 11.35,0 67.35,0 67.35,-36"/>
<text text-anchor="middle" x="39.35" y="-15.5" font-family="Helvetica,sans-Serif" font-size="10.00">Appconf</text>
</a>
</g>
</g>
<!-- dir_ca4490193a0a04522896524a4730dc1d&#45;&gt;dir_68ffa5ca8ccfa6448bd0595e797999e4 -->
<g id="edge6" class="edge">
<title>dir_ca4490193a0a04522896524a4730dc1d&#45;&gt;dir_68ffa5ca8ccfa6448bd0595e797999e4</title>
<path fill="none" stroke="black" d="M75.13,-215.89C52.03,-193.76 14.94,-152.69 3.35,-108 -0.66,-92.51 -1.35,-87.29 3.35,-72 6.36,-62.22 11.86,-52.62 17.67,-44.33"/>
<polygon fill="black" stroke="black" points="20.55,-46.33 23.74,-36.23 14.95,-42.13 20.55,-46.33"/>
<g id="a_edge6&#45;headlabel"><a xlink:href="dir_000038_000026.html" target="_top" xlink:title="1">
<text text-anchor="middle" x="20.67" y="-48.41" font-family="Helvetica,sans-Serif" font-size="10.00">1</text>
</a>
</g>
</g>
<!-- dir_283ee20ab5eb9693b75f98890f2aae44 -->
<g id="node3" class="node">
<title>dir_283ee20ab5eb9693b75f98890f2aae44</title>
<g id="a_node3"><a xlink:href="dir_283ee20ab5eb9693b75f98890f2aae44.html" target="_top" xlink:title="App">
<polygon fill="white" stroke="red" points="121.35,-180 67.35,-180 67.35,-144 121.35,-144 121.35,-180"/>
<text text-anchor="middle" x="94.35" y="-159.5" font-family="Helvetica,sans-Serif" font-size="10.00">App</text>
</a>
</g>
</g>
<!-- dir_ca4490193a0a04522896524a4730dc1d&#45;&gt;dir_283ee20ab5eb9693b75f98890f2aae44 -->
<g id="edge7" class="edge">
<title>dir_ca4490193a0a04522896524a4730dc1d&#45;&gt;dir_283ee20ab5eb9693b75f98890f2aae44</title>
<path fill="none" stroke="black" d="M94.35,-215.7C94.35,-207.98 94.35,-198.71 94.35,-190.11"/>
<polygon fill="black" stroke="black" points="97.85,-190.1 94.35,-180.1 90.85,-190.1 97.85,-190.1"/>
<g id="a_edge7&#45;headlabel"><a xlink:href="dir_000038_000004.html" target="_top" xlink:title="1">
<text text-anchor="middle" x="100.69" y="-191.2" font-family="Helvetica,sans-Serif" font-size="10.00">1</text>
</a>
</g>
</g>
<!-- dir_8bac7462668d86a984d2ee5977e3cf6a -->
<g id="node4" class="node">
<title>dir_8bac7462668d86a984d2ee5977e3cf6a</title>
<g id="a_node4"><a xlink:href="dir_8bac7462668d86a984d2ee5977e3cf6a.html" target="_top" xlink:title="Lib">
<polygon fill="none" stroke="black" points="186.35,-36 132.35,-36 132.35,0 186.35,0 186.35,-36"/>
<text text-anchor="middle" x="159.35" y="-15.5" font-family="Helvetica,sans-Serif" font-size="10.00">Lib</text>
</a>
</g>
</g>
<!-- dir_ca4490193a0a04522896524a4730dc1d&#45;&gt;dir_8bac7462668d86a984d2ee5977e3cf6a -->
<g id="edge8" class="edge">
<title>dir_ca4490193a0a04522896524a4730dc1d&#45;&gt;dir_8bac7462668d86a984d2ee5977e3cf6a</title>
<path fill="none" stroke="black" d="M121.62,-216.84C153.31,-196.22 203.77,-157.26 223.35,-108 229.27,-93.13 230.16,-86.48 223.35,-72 217.18,-58.87 205.98,-47.87 194.65,-39.36"/>
<polygon fill="black" stroke="black" points="196.65,-36.49 186.45,-33.61 192.63,-42.22 196.65,-36.49"/>
<g id="a_edge8&#45;headlabel"><a xlink:href="dir_000038_000035.html" target="_top" xlink:title="1">
<text text-anchor="middle" x="201.22" y="-33.73" font-family="Helvetica,sans-Serif" font-size="10.00">1</text>
</a>
</g>
</g>
<!-- dir_111df0aac43951f8ac9c8f860048303a -->
<g id="node5" class="node">
<title>dir_111df0aac43951f8ac9c8f860048303a</title>
<g id="a_node5"><a xlink:href="dir_111df0aac43951f8ac9c8f860048303a.html" target="_top" xlink:title="Inc">
<polygon fill="none" stroke="black" points="214.35,-108 160.35,-108 160.35,-72 214.35,-72 214.35,-108"/>
<text text-anchor="middle" x="187.35" y="-87.5" font-family="Helvetica,sans-Serif" font-size="10.00">Inc</text>
</a>
</g>
</g>
<!-- dir_ca4490193a0a04522896524a4730dc1d&#45;&gt;dir_111df0aac43951f8ac9c8f860048303a -->
<g id="edge9" class="edge">
<title>dir_ca4490193a0a04522896524a4730dc1d&#45;&gt;dir_111df0aac43951f8ac9c8f860048303a</title>
<path fill="none" stroke="black" d="M106.15,-215.89C113.23,-205.55 122.39,-192.07 130.35,-180 144.29,-158.87 159.76,-134.67 171.06,-116.84"/>
<polygon fill="black" stroke="black" points="174.17,-118.47 176.56,-108.15 168.26,-114.73 174.17,-118.47"/>
<g id="a_edge9&#45;headlabel"><a xlink:href="dir_000038_000037.html" target="_top" xlink:title="6">
<text text-anchor="middle" x="174.65" y="-120.53" font-family="Helvetica,sans-Serif" font-size="10.00">6</text>
</a>
</g>
</g>
<!-- dir_e4bcde167f88f305238965282a0ab06e -->
<g id="node6" class="node">
<title>dir_e4bcde167f88f305238965282a0ab06e</title>
<g id="a_node6"><a xlink:href="dir_e4bcde167f88f305238965282a0ab06e.html" target="_top" xlink:title="Extdep">
<polygon fill="white" stroke="red" points="66.35,-108 12.35,-108 12.35,-72 66.35,-72 66.35,-108"/>
<text text-anchor="middle" x="39.35" y="-87.5" font-family="Helvetica,sans-Serif" font-size="10.00">Extdep</text>
</a>
</g>
</g>
<!-- dir_ca4490193a0a04522896524a4730dc1d&#45;&gt;dir_e4bcde167f88f305238965282a0ab06e -->
<g id="edge10" class="edge">
<title>dir_ca4490193a0a04522896524a4730dc1d&#45;&gt;dir_e4bcde167f88f305238965282a0ab06e</title>
<path fill="none" stroke="black" d="M80.19,-215.85C72.66,-205.93 63.86,-192.89 58.35,-180 49.94,-160.29 45.11,-136.49 42.43,-118.46"/>
<polygon fill="black" stroke="black" points="45.86,-117.76 41.05,-108.33 38.93,-118.71 45.86,-117.76"/>
<g id="a_edge10&#45;headlabel"><a xlink:href="dir_000038_000027.html" target="_top" xlink:title="2">
<text text-anchor="middle" x="49.16" y="-118.44" font-family="Helvetica,sans-Serif" font-size="10.00">2</text>
</a>
</g>
</g>
<!-- dir_283ee20ab5eb9693b75f98890f2aae44&#45;&gt;dir_68ffa5ca8ccfa6448bd0595e797999e4 -->
<g id="edge1" class="edge">
<title>dir_283ee20ab5eb9693b75f98890f2aae44&#45;&gt;dir_68ffa5ca8ccfa6448bd0595e797999e4</title>
<path fill="none" stroke="black" d="M92.66,-143.67C90.4,-125.29 85.47,-95.69 75.35,-72 71.27,-62.43 65.37,-52.78 59.52,-44.39"/>
<polygon fill="black" stroke="black" points="62.23,-42.17 53.52,-36.15 56.58,-46.29 62.23,-42.17"/>
<g id="a_edge1&#45;headlabel"><a xlink:href="dir_000004_000026.html" target="_top" xlink:title="3">
<text text-anchor="middle" x="66.65" y="-40.91" font-family="Helvetica,sans-Serif" font-size="10.00">3</text>
</a>
</g>
</g>
<!-- dir_283ee20ab5eb9693b75f98890f2aae44&#45;&gt;dir_8bac7462668d86a984d2ee5977e3cf6a -->
<g id="edge2" class="edge">
<title>dir_283ee20ab5eb9693b75f98890f2aae44&#45;&gt;dir_8bac7462668d86a984d2ee5977e3cf6a</title>
<path fill="none" stroke="black" d="M102.2,-143.87C113.37,-119.46 133.98,-74.43 147.16,-45.64"/>
<polygon fill="black" stroke="black" points="150.51,-46.74 151.49,-36.19 144.14,-43.83 150.51,-46.74"/>
<g id="a_edge2&#45;headlabel"><a xlink:href="dir_000004_000035.html" target="_top" xlink:title="14">
<text text-anchor="middle" x="151.59" y="-48.69" font-family="Helvetica,sans-Serif" font-size="10.00">14</text>
</a>
</g>
</g>
<!-- dir_283ee20ab5eb9693b75f98890f2aae44&#45;&gt;dir_111df0aac43951f8ac9c8f860048303a -->
<g id="edge3" class="edge">
<title>dir_283ee20ab5eb9693b75f98890f2aae44&#45;&gt;dir_111df0aac43951f8ac9c8f860048303a</title>
<path fill="none" stroke="black" d="M117.34,-143.7C129.17,-134.8 143.75,-123.82 156.53,-114.2"/>
<polygon fill="black" stroke="black" points="158.75,-116.91 164.63,-108.1 154.54,-111.32 158.75,-116.91"/>
<g id="a_edge3&#45;headlabel"><a xlink:href="dir_000004_000037.html" target="_top" xlink:title="1">
<text text-anchor="middle" x="157.58" y="-118.84" font-family="Helvetica,sans-Serif" font-size="10.00">1</text>
</a>
</g>
</g>
<!-- dir_283ee20ab5eb9693b75f98890f2aae44&#45;&gt;dir_e4bcde167f88f305238965282a0ab06e -->
<g id="edge4" class="edge">
<title>dir_283ee20ab5eb9693b75f98890f2aae44&#45;&gt;dir_e4bcde167f88f305238965282a0ab06e</title>
<path fill="none" stroke="black" d="M74.84,-143.7C67.53,-135.47 59.48,-125.48 52.81,-116.42"/>
<polygon fill="black" stroke="black" points="55.54,-114.23 46.9,-108.1 49.84,-118.28 55.54,-114.23"/>
<g id="a_edge4&#45;headlabel"><a xlink:href="dir_000004_000027.html" target="_top" xlink:title="23">
<text text-anchor="middle" x="59.94" y="-113.01" font-family="Helvetica,sans-Serif" font-size="10.00">23</text>
</a>
</g>
</g>
<!-- dir_111df0aac43951f8ac9c8f860048303a&#45;&gt;dir_8bac7462668d86a984d2ee5977e3cf6a -->
<g id="edge5" class="edge">
<title>dir_111df0aac43951f8ac9c8f860048303a&#45;&gt;dir_8bac7462668d86a984d2ee5977e3cf6a</title>
<path fill="none" stroke="black" d="M180.43,-71.7C177.28,-63.81 173.48,-54.3 169.97,-45.55"/>
<polygon fill="black" stroke="black" points="173.16,-44.09 166.2,-36.1 166.66,-46.69 173.16,-44.09"/>
<g id="a_edge5&#45;headlabel"><a xlink:href="dir_000037_000035.html" target="_top" xlink:title="1">
<text text-anchor="middle" x="177.13" y="-43.87" font-family="Helvetica,sans-Serif" font-size="10.00">1</text>
</a>
</g>
</g>
<!-- dir_e4bcde167f88f305238965282a0ab06e&#45;&gt;dir_68ffa5ca8ccfa6448bd0595e797999e4 -->
<g id="edge11" class="edge">
<title>dir_e4bcde167f88f305238965282a0ab06e&#45;&gt;dir_68ffa5ca8ccfa6448bd0595e797999e4</title>
<path fill="none" stroke="black" d="M39.35,-71.7C39.35,-63.98 39.35,-54.71 39.35,-46.11"/>
<polygon fill="black" stroke="black" points="42.85,-46.1 39.35,-36.1 35.85,-46.1 42.85,-46.1"/>
<g id="a_edge11&#45;headlabel"><a xlink:href="dir_000027_000026.html" target="_top" xlink:title="3">
<text text-anchor="middle" x="45.69" y="-47.2" font-family="Helvetica,sans-Serif" font-size="10.00">3</text>
</a>
</g>
</g>
<!-- dir_e4bcde167f88f305238965282a0ab06e&#45;&gt;dir_283ee20ab5eb9693b75f98890f2aae44 -->
<g id="edge12" class="edge">
<title>dir_e4bcde167f88f305238965282a0ab06e&#45;&gt;dir_283ee20ab5eb9693b75f98890f2aae44</title>
<path fill="none" stroke="black" d="M58.69,-108.1C65.99,-116.3 74.04,-126.28 80.74,-135.36"/>
<polygon fill="black" stroke="black" points="78.02,-137.58 86.67,-143.7 83.73,-133.52 78.02,-137.58"/>
<g id="a_edge12&#45;headlabel"><a xlink:href="dir_000027_000004.html" target="_top" xlink:title="1">
<text text-anchor="middle" x="73.63" y="-133.8" font-family="Helvetica,sans-Serif" font-size="10.00">1</text>
</a>
</g>
</g>
<!-- dir_e4bcde167f88f305238965282a0ab06e&#45;&gt;dir_8bac7462668d86a984d2ee5977e3cf6a -->
<g id="edge13" class="edge">
<title>dir_e4bcde167f88f305238965282a0ab06e&#45;&gt;dir_8bac7462668d86a984d2ee5977e3cf6a</title>
<path fill="none" stroke="black" d="M66.58,-73.12C83.46,-63.27 105.33,-50.52 123.59,-39.86"/>
<polygon fill="black" stroke="black" points="125.36,-42.88 132.23,-34.82 121.83,-36.84 125.36,-42.88"/>
<g id="a_edge13&#45;headlabel"><a xlink:href="dir_000027_000035.html" target="_top" xlink:title="7">
<text text-anchor="middle" x="123.68" y="-44.65" font-family="Helvetica,sans-Serif" font-size="10.00">7</text>
</a>
</g>
</g>
</g>
</svg>
