<?xml version="1.0" encoding="UTF-8" standalone="no"?>
<!DOCTYPE svg PUBLIC "-//W3C//DTD SVG 1.1//EN"
 "http://www.w3.org/Graphics/SVG/1.1/DTD/svg11.dtd">
<!-- Generated by graphviz version 2.43.0 (0)
 -->
<!-- Title: Kineis/App/Kineis_os/KNS_Q/Src Pages: 1 -->
<svg width="106pt" height="223pt"
 viewBox="0.00 0.00 106.00 223.00" xmlns="http://www.w3.org/2000/svg" xmlns:xlink="http://www.w3.org/1999/xlink">
<g id="graph0" class="graph" transform="scale(1 1) rotate(0) translate(4 219)">
<title>Kineis/App/Kineis_os/KNS_Q/Src</title>
<polygon fill="white" stroke="transparent" points="-4,4 -4,-219 102,-219 102,4 -4,4"/>
<g id="clust1" class="cluster">
<title>clusterdir_565abc7797190263a19144fc71b59106</title>
<g id="a_clust1"><a xlink:href="dir_565abc7797190263a19144fc71b59106.html" target="_top" xlink:title="KNS_Q">
<polygon fill="#ddddee" stroke="black" points="20,-136 20,-207 90,-207 90,-136 20,-136"/>
<text text-anchor="middle" x="55" y="-195" font-family="Helvetica,sans-Serif" font-size="10.00">KNS_Q</text>
</a>
</g>
</g>
<!-- dir_a746c9cb71575e3c8990071dd78a4c19 -->
<g id="node1" class="node">
<title>dir_a746c9cb71575e3c8990071dd78a4c19</title>
<g id="a_node1"><a xlink:href="dir_a746c9cb71575e3c8990071dd78a4c19.html" target="_top" xlink:title="Src">
<polygon fill="#eeeeff" stroke="black" points="82,-180 28,-180 28,-144 82,-144 82,-180"/>
<text text-anchor="middle" x="55" y="-159.5" font-family="Helvetica,sans-Serif" font-size="10.00">Src</text>
</a>
</g>
</g>
<!-- dir_1c062482ac091c7c78d0a1651ce2de7a -->
<g id="node2" class="node">
<title>dir_1c062482ac091c7c78d0a1651ce2de7a</title>
<g id="a_node2"><a xlink:href="dir_1c062482ac091c7c78d0a1651ce2de7a.html" target="_top" xlink:title="Inc">
<polygon fill="none" stroke="black" points="54,-108 0,-108 0,-72 54,-72 54,-108"/>
<text text-anchor="middle" x="27" y="-87.5" font-family="Helvetica,sans-Serif" font-size="10.00">Inc</text>
</a>
</g>
</g>
<!-- dir_a746c9cb71575e3c8990071dd78a4c19&#45;&gt;dir_1c062482ac091c7c78d0a1651ce2de7a -->
<g id="edge1" class="edge">
<title>dir_a746c9cb71575e3c8990071dd78a4c19&#45;&gt;dir_1c062482ac091c7c78d0a1651ce2de7a</title>
<path fill="none" stroke="black" d="M48.08,-143.7C44.93,-135.81 41.12,-126.3 37.62,-117.55"/>
<polygon fill="black" stroke="black" points="40.81,-116.09 33.84,-108.1 34.31,-118.69 40.81,-116.09"/>
<g id="a_edge1&#45;headlabel"><a xlink:href="dir_000011_000010.html" target="_top" xlink:title="3">
<text text-anchor="middle" x="44.78" y="-115.87" font-family="Helvetica,sans-Serif" font-size="10.00">3</text>
</a>
</g>
</g>
<!-- dir_e4bcde167f88f305238965282a0ab06e -->
<g id="node3" class="node">
<title>dir_e4bcde167f88f305238965282a0ab06e</title>
<g id="a_node3"><a xlink:href="dir_e4bcde167f88f305238965282a0ab06e.html" target="_top" xlink:title="Extdep">
<polygon fill="white" stroke="red" points="54,-36 0,-36 0,0 54,0 54,-36"/>
<text text-anchor="middle" x="27" y="-15.5" font-family="Helvetica,sans-Serif" font-size="10.00">Extdep</text>
</a>
</g>
</g>
<!-- dir_a746c9cb71575e3c8990071dd78a4c19&#45;&gt;dir_e4bcde167f88f305238965282a0ab06e -->
<g id="edge2" class="edge">
<title>dir_a746c9cb71575e3c8990071dd78a4c19&#45;&gt;dir_e4bcde167f88f305238965282a0ab06e</title>
<path fill="none" stroke="black" d="M60.34,-143.87C65.16,-125.64 70.43,-96.17 63,-72 59.99,-62.22 54.49,-52.62 48.68,-44.33"/>
<polygon fill="black" stroke="black" points="51.41,-42.13 42.61,-36.23 45.81,-46.33 51.41,-42.13"/>
<g id="a_edge2&#45;headlabel"><a xlink:href="dir_000011_000027.html" target="_top" xlink:title="7">
<text text-anchor="middle" x="55.83" y="-40.8" font-family="Helvetica,sans-Serif" font-size="10.00">7</text>
</a>
</g>
</g>
<!-- dir_1c062482ac091c7c78d0a1651ce2de7a&#45;&gt;dir_e4bcde167f88f305238965282a0ab06e -->
<g id="edge3" class="edge">
<title>dir_1c062482ac091c7c78d0a1651ce2de7a&#45;&gt;dir_e4bcde167f88f305238965282a0ab06e</title>
<path fill="none" stroke="black" d="M21.08,-71.7C20.29,-63.98 20.06,-54.71 20.4,-46.11"/>
<polygon fill="black" stroke="black" points="23.9,-46.32 21.1,-36.1 16.92,-45.84 23.9,-46.32"/>
<g id="a_edge3&#45;headlabel"><a xlink:href="dir_000010_000027.html" target="_top" xlink:title="1">
<text text-anchor="middle" x="26.48" y="-47.61" font-family="Helvetica,sans-Serif" font-size="10.00">1</text>
</a>
</g>
</g>
<!-- dir_e4bcde167f88f305238965282a0ab06e&#45;&gt;dir_1c062482ac091c7c78d0a1651ce2de7a -->
<g id="edge4" class="edge">
<title>dir_e4bcde167f88f305238965282a0ab06e&#45;&gt;dir_1c062482ac091c7c78d0a1651ce2de7a</title>
<path fill="none" stroke="black" d="M32.9,-36.1C33.7,-43.79 33.94,-53.05 33.6,-61.67"/>
<polygon fill="black" stroke="black" points="30.11,-61.48 32.92,-71.7 37.09,-61.96 30.11,-61.48"/>
<g id="a_edge4&#45;headlabel"><a xlink:href="dir_000027_000010.html" target="_top" xlink:title="1">
<text text-anchor="middle" x="27.52" y="-55.2" font-family="Helvetica,sans-Serif" font-size="10.00">1</text>
</a>
</g>
</g>
</g>
</svg>
