<?xml version="1.0" encoding="UTF-8" standalone="no"?>
<!DOCTYPE svg PUBLIC "-//W3C//DTD SVG 1.1//EN"
 "http://www.w3.org/Graphics/SVG/1.1/DTD/svg11.dtd">
<!-- Generated by graphviz version 2.43.0 (0)
 -->
<!-- Title: Kineis/App/Managers/MGR_AT_CMD Pages: 1 -->
<svg width="414pt" height="447pt"
 viewBox="0.00 0.00 414.00 447.00" xmlns="http://www.w3.org/2000/svg" xmlns:xlink="http://www.w3.org/1999/xlink">
<g id="graph0" class="graph" transform="scale(1 1) rotate(0) translate(4 443)">
<title>Kineis/App/Managers/MGR_AT_CMD</title>
<polygon fill="white" stroke="transparent" points="-4,4 -4,-443 410,-443 410,4 -4,4"/>
<g id="clust1" class="cluster">
<title>clusterdir_d2f407ca869a9c9ed692376d5e29f120</title>
<g id="a_clust1"><a xlink:href="dir_d2f407ca869a9c9ed692376d5e29f120.html" target="_top" xlink:title="Managers">
<polygon fill="#ddddee" stroke="black" points="143,-272 143,-431 333,-431 333,-272 143,-272"/>
<text text-anchor="middle" x="238" y="-419" font-family="Helvetica,sans-Serif" font-size="10.00">Managers</text>
</a>
</g>
</g>
<g id="clust2" class="cluster">
<title>clusterdir_60ee360fddee19ef14c06d7eba7d5fba</title>
<g id="a_clust2"><a xlink:href="dir_60ee360fddee19ef14c06d7eba7d5fba.html" target="_top">
<polygon fill="#eeeeff" stroke="black" points="151,-280 151,-404 325,-404 325,-280 151,-280"/>
</a>
</g>
</g>
<!-- dir_60ee360fddee19ef14c06d7eba7d5fba -->
<g id="node1" class="node">
<title>dir_60ee360fddee19ef14c06d7eba7d5fba</title>
<text text-anchor="middle" x="274" y="-375.5" font-family="Helvetica,sans-Serif" font-size="10.00">MGR_AT_CMD</text>
</g>
<!-- dir_7429a52da4efb9f4e51ba2fcc7c0b4e8 -->
<g id="node2" class="node">
<title>dir_7429a52da4efb9f4e51ba2fcc7c0b4e8</title>
<g id="a_node2"><a xlink:href="dir_7429a52da4efb9f4e51ba2fcc7c0b4e8.html" target="_top" xlink:title="Inc">
<polygon fill="white" stroke="black" points="213,-324 159,-324 159,-288 213,-288 213,-324"/>
<text text-anchor="middle" x="186" y="-303.5" font-family="Helvetica,sans-Serif" font-size="10.00">Inc</text>
</a>
</g>
</g>
<!-- dir_70beccd1d8997d0174d02d630d77a447 -->
<g id="node6" class="node">
<title>dir_70beccd1d8997d0174d02d630d77a447</title>
<g id="a_node6"><a xlink:href="dir_70beccd1d8997d0174d02d630d77a447.html" target="_top" xlink:title="Libs">
<polygon fill="white" stroke="red" points="268,-252 214,-252 214,-216 268,-216 268,-252"/>
<text text-anchor="middle" x="241" y="-231.5" font-family="Helvetica,sans-Serif" font-size="10.00">Libs</text>
</a>
</g>
</g>
<!-- dir_7429a52da4efb9f4e51ba2fcc7c0b4e8&#45;&gt;dir_70beccd1d8997d0174d02d630d77a447 -->
<g id="edge19" class="edge">
<title>dir_7429a52da4efb9f4e51ba2fcc7c0b4e8&#45;&gt;dir_70beccd1d8997d0174d02d630d77a447</title>
<path fill="none" stroke="black" d="M199.6,-287.7C206.12,-279.39 214.07,-269.28 221.25,-260.14"/>
<polygon fill="black" stroke="black" points="224.13,-262.13 227.56,-252.1 218.63,-257.81 224.13,-262.13"/>
<g id="a_edge19&#45;headlabel"><a xlink:href="dir_000021_000012.html" target="_top" xlink:title="1">
<text text-anchor="middle" x="224.15" y="-264.21" font-family="Helvetica,sans-Serif" font-size="10.00">1</text>
</a>
</g>
</g>
<!-- dir_8bac7462668d86a984d2ee5977e3cf6a -->
<g id="node8" class="node">
<title>dir_8bac7462668d86a984d2ee5977e3cf6a</title>
<g id="a_node8"><a xlink:href="dir_8bac7462668d86a984d2ee5977e3cf6a.html" target="_top" xlink:title="Lib">
<polygon fill="none" stroke="black" points="130,-36 76,-36 76,0 130,0 130,-36"/>
<text text-anchor="middle" x="103" y="-15.5" font-family="Helvetica,sans-Serif" font-size="10.00">Lib</text>
</a>
</g>
</g>
<!-- dir_7429a52da4efb9f4e51ba2fcc7c0b4e8&#45;&gt;dir_8bac7462668d86a984d2ee5977e3cf6a -->
<g id="edge20" class="edge">
<title>dir_7429a52da4efb9f4e51ba2fcc7c0b4e8&#45;&gt;dir_8bac7462668d86a984d2ee5977e3cf6a</title>
<path fill="none" stroke="black" d="M158.71,-297.34C137.18,-289.7 108.58,-275.62 95,-252 57.2,-186.24 79.03,-91.9 93.44,-46.06"/>
<polygon fill="black" stroke="black" points="96.86,-46.86 96.64,-36.27 90.21,-44.68 96.86,-46.86"/>
<g id="a_edge20&#45;headlabel"><a xlink:href="dir_000021_000035.html" target="_top" xlink:title="2">
<text text-anchor="middle" x="98.44" y="-48.66" font-family="Helvetica,sans-Serif" font-size="10.00">2</text>
</a>
</g>
</g>
<!-- dir_e4bcde167f88f305238965282a0ab06e -->
<g id="node10" class="node">
<title>dir_e4bcde167f88f305238965282a0ab06e</title>
<g id="a_node10"><a xlink:href="dir_e4bcde167f88f305238965282a0ab06e.html" target="_top" xlink:title="Extdep">
<polygon fill="white" stroke="red" points="303,-180 249,-180 249,-144 303,-144 303,-180"/>
<text text-anchor="middle" x="276" y="-159.5" font-family="Helvetica,sans-Serif" font-size="10.00">Extdep</text>
</a>
</g>
</g>
<!-- dir_7429a52da4efb9f4e51ba2fcc7c0b4e8&#45;&gt;dir_e4bcde167f88f305238965282a0ab06e -->
<g id="edge21" class="edge">
<title>dir_7429a52da4efb9f4e51ba2fcc7c0b4e8&#45;&gt;dir_e4bcde167f88f305238965282a0ab06e</title>
<path fill="none" stroke="black" d="M186.15,-287.92C187.06,-268.95 190.85,-238.08 205,-216 213.7,-202.43 227.18,-191.08 240.06,-182.42"/>
<polygon fill="black" stroke="black" points="242.26,-185.17 248.82,-176.85 238.5,-179.26 242.26,-185.17"/>
<g id="a_edge21&#45;headlabel"><a xlink:href="dir_000021_000027.html" target="_top" xlink:title="1">
<text text-anchor="middle" x="240.75" y="-187" font-family="Helvetica,sans-Serif" font-size="10.00">1</text>
</a>
</g>
</g>
<!-- dir_4eabde2f0c23e2995d24249ec72e579f -->
<g id="node3" class="node">
<title>dir_4eabde2f0c23e2995d24249ec72e579f</title>
<g id="a_node3"><a xlink:href="dir_4eabde2f0c23e2995d24249ec72e579f.html" target="_top" xlink:title="Src">
<polygon fill="white" stroke="black" points="213,-396 159,-396 159,-360 213,-360 213,-396"/>
<text text-anchor="middle" x="186" y="-375.5" font-family="Helvetica,sans-Serif" font-size="10.00">Src</text>
</a>
</g>
</g>
<!-- dir_4eabde2f0c23e2995d24249ec72e579f&#45;&gt;dir_7429a52da4efb9f4e51ba2fcc7c0b4e8 -->
<g id="edge11" class="edge">
<title>dir_4eabde2f0c23e2995d24249ec72e579f&#45;&gt;dir_7429a52da4efb9f4e51ba2fcc7c0b4e8</title>
<path fill="none" stroke="black" d="M186,-359.7C186,-351.98 186,-342.71 186,-334.11"/>
<polygon fill="black" stroke="black" points="189.5,-334.1 186,-324.1 182.5,-334.1 189.5,-334.1"/>
<g id="a_edge11&#45;headlabel"><a xlink:href="dir_000022_000021.html" target="_top" xlink:title="20">
<text text-anchor="middle" x="192.34" y="-335.2" font-family="Helvetica,sans-Serif" font-size="10.00">20</text>
</a>
</g>
</g>
<!-- dir_68ffa5ca8ccfa6448bd0595e797999e4 -->
<g id="node4" class="node">
<title>dir_68ffa5ca8ccfa6448bd0595e797999e4</title>
<g id="a_node4"><a xlink:href="dir_68ffa5ca8ccfa6448bd0595e797999e4.html" target="_top" xlink:title="Appconf">
<polygon fill="none" stroke="black" points="327,-36 271,-36 271,0 327,0 327,-36"/>
<text text-anchor="middle" x="299" y="-15.5" font-family="Helvetica,sans-Serif" font-size="10.00">Appconf</text>
</a>
</g>
</g>
<!-- dir_4eabde2f0c23e2995d24249ec72e579f&#45;&gt;dir_68ffa5ca8ccfa6448bd0595e797999e4 -->
<g id="edge5" class="edge">
<title>dir_4eabde2f0c23e2995d24249ec72e579f&#45;&gt;dir_68ffa5ca8ccfa6448bd0595e797999e4</title>
<path fill="none" stroke="black" d="M213.34,-363.59C216.24,-362.32 219.16,-361.1 222,-360 273.15,-340.24 295.2,-355.61 340,-324 380.24,-295.61 406,-284.25 406,-235 406,-235 406,-235 406,-161 406,-111.13 363.38,-67.65 331.94,-42.35"/>
<polygon fill="black" stroke="black" points="333.85,-39.41 323.82,-36.02 329.55,-44.93 333.85,-39.41"/>
<g id="a_edge5&#45;headlabel"><a xlink:href="dir_000022_000026.html" target="_top" xlink:title="1">
<text text-anchor="middle" x="338.44" y="-36.88" font-family="Helvetica,sans-Serif" font-size="10.00">1</text>
</a>
</g>
</g>
<!-- dir_2597320cd5a766e2ddfc672ddb4c534b -->
<g id="node5" class="node">
<title>dir_2597320cd5a766e2ddfc672ddb4c534b</title>
<g id="a_node5"><a xlink:href="dir_2597320cd5a766e2ddfc672ddb4c534b.html" target="_top" xlink:title="Kineis_os">
<polygon fill="white" stroke="red" points="194.5,-108 131.5,-108 131.5,-72 194.5,-72 194.5,-108"/>
<text text-anchor="middle" x="163" y="-87.5" font-family="Helvetica,sans-Serif" font-size="10.00">Kineis_os</text>
</a>
</g>
</g>
<!-- dir_4eabde2f0c23e2995d24249ec72e579f&#45;&gt;dir_2597320cd5a766e2ddfc672ddb4c534b -->
<g id="edge6" class="edge">
<title>dir_4eabde2f0c23e2995d24249ec72e579f&#45;&gt;dir_2597320cd5a766e2ddfc672ddb4c534b</title>
<path fill="none" stroke="black" d="M165.7,-359.96C154.84,-350.17 141.74,-337.22 132,-324 110.67,-295.03 103.46,-286.97 95,-252 82.87,-201.86 116.84,-147.31 141.03,-116.32"/>
<polygon fill="black" stroke="black" points="144.01,-118.21 147.55,-108.23 138.55,-113.82 144.01,-118.21"/>
<g id="a_edge6&#45;headlabel"><a xlink:href="dir_000022_000005.html" target="_top" xlink:title="2">
<text text-anchor="middle" x="143.96" y="-120.29" font-family="Helvetica,sans-Serif" font-size="10.00">2</text>
</a>
</g>
</g>
<!-- dir_4eabde2f0c23e2995d24249ec72e579f&#45;&gt;dir_70beccd1d8997d0174d02d630d77a447 -->
<g id="edge7" class="edge">
<title>dir_4eabde2f0c23e2995d24249ec72e579f&#45;&gt;dir_70beccd1d8997d0174d02d630d77a447</title>
<path fill="none" stroke="black" d="M200.16,-359.85C207.69,-349.93 216.5,-336.89 222,-324 230.41,-304.29 235.24,-280.49 237.93,-262.46"/>
<polygon fill="black" stroke="black" points="241.43,-262.71 239.3,-252.33 234.49,-261.76 241.43,-262.71"/>
<g id="a_edge7&#45;headlabel"><a xlink:href="dir_000022_000012.html" target="_top" xlink:title="2">
<text text-anchor="middle" x="243.76" y="-264.15" font-family="Helvetica,sans-Serif" font-size="10.00">2</text>
</a>
</g>
</g>
<!-- dir_c25cf638d32e4911582a285b040105d2 -->
<g id="node7" class="node">
<title>dir_c25cf638d32e4911582a285b040105d2</title>
<g id="a_node7"><a xlink:href="dir_c25cf638d32e4911582a285b040105d2.html" target="_top" xlink:title="Lpm">
<polygon fill="white" stroke="red" points="158,-252 104,-252 104,-216 158,-216 158,-252"/>
<text text-anchor="middle" x="131" y="-231.5" font-family="Helvetica,sans-Serif" font-size="10.00">Lpm</text>
</a>
</g>
</g>
<!-- dir_4eabde2f0c23e2995d24249ec72e579f&#45;&gt;dir_c25cf638d32e4911582a285b040105d2 -->
<g id="edge8" class="edge">
<title>dir_4eabde2f0c23e2995d24249ec72e579f&#45;&gt;dir_c25cf638d32e4911582a285b040105d2</title>
<path fill="none" stroke="black" d="M171.84,-359.85C164.31,-349.93 155.5,-336.89 150,-324 141.59,-304.29 136.76,-280.49 134.07,-262.46"/>
<polygon fill="black" stroke="black" points="137.51,-261.76 132.7,-252.33 130.57,-262.71 137.51,-261.76"/>
<g id="a_edge8&#45;headlabel"><a xlink:href="dir_000022_000036.html" target="_top" xlink:title="1">
<text text-anchor="middle" x="140.81" y="-262.44" font-family="Helvetica,sans-Serif" font-size="10.00">1</text>
</a>
</g>
</g>
<!-- dir_4eabde2f0c23e2995d24249ec72e579f&#45;&gt;dir_8bac7462668d86a984d2ee5977e3cf6a -->
<g id="edge9" class="edge">
<title>dir_4eabde2f0c23e2995d24249ec72e579f&#45;&gt;dir_8bac7462668d86a984d2ee5977e3cf6a</title>
<path fill="none" stroke="black" d="M158.95,-370.03C107.37,-354.93 0,-314.02 0,-235 0,-235 0,-235 0,-161 0,-111.66 41.26,-67.89 71.55,-42.41"/>
<polygon fill="black" stroke="black" points="73.84,-45.06 79.37,-36.03 69.41,-39.64 73.84,-45.06"/>
<g id="a_edge9&#45;headlabel"><a xlink:href="dir_000022_000035.html" target="_top" xlink:title="9">
<text text-anchor="middle" x="72.85" y="-47.03" font-family="Helvetica,sans-Serif" font-size="10.00">9</text>
</a>
</g>
</g>
<!-- dir_6bb50a2f0076c8f8a35f09a1613f8275 -->
<g id="node9" class="node">
<title>dir_6bb50a2f0076c8f8a35f09a1613f8275</title>
<g id="a_node9"><a xlink:href="dir_6bb50a2f0076c8f8a35f09a1613f8275.html" target="_top" xlink:title="Mcu">
<polygon fill="white" stroke="red" points="378,-252 324,-252 324,-216 378,-216 378,-252"/>
<text text-anchor="middle" x="351" y="-231.5" font-family="Helvetica,sans-Serif" font-size="10.00">Mcu</text>
</a>
</g>
</g>
<!-- dir_4eabde2f0c23e2995d24249ec72e579f&#45;&gt;dir_6bb50a2f0076c8f8a35f09a1613f8275 -->
<g id="edge10" class="edge">
<title>dir_4eabde2f0c23e2995d24249ec72e579f&#45;&gt;dir_6bb50a2f0076c8f8a35f09a1613f8275</title>
<path fill="none" stroke="black" d="M213.06,-364.04C216.06,-362.65 219.09,-361.28 222,-360 260.67,-342.97 279.48,-353.23 310,-324 327.5,-307.24 338.22,-281.59 344.28,-262.12"/>
<polygon fill="black" stroke="black" points="347.7,-262.89 347.11,-252.31 340.98,-260.95 347.7,-262.89"/>
<g id="a_edge10&#45;headlabel"><a xlink:href="dir_000022_000023.html" target="_top" xlink:title="5">
<text text-anchor="middle" x="349.43" y="-264.63" font-family="Helvetica,sans-Serif" font-size="10.00">5</text>
</a>
</g>
</g>
<!-- dir_4eabde2f0c23e2995d24249ec72e579f&#45;&gt;dir_e4bcde167f88f305238965282a0ab06e -->
<g id="edge12" class="edge">
<title>dir_4eabde2f0c23e2995d24249ec72e579f&#45;&gt;dir_e4bcde167f88f305238965282a0ab06e</title>
<path fill="none" stroke="black" d="M208.69,-359.92C220.34,-350.32 234.11,-337.56 244,-324 264.74,-295.56 269.49,-286.39 277,-252 281.44,-231.65 280.93,-208.06 279.45,-190.28"/>
<polygon fill="black" stroke="black" points="282.93,-189.9 278.46,-180.29 275.96,-190.59 282.93,-189.9"/>
<g id="a_edge12&#45;headlabel"><a xlink:href="dir_000022_000027.html" target="_top" xlink:title="10">
<text text-anchor="middle" x="286.11" y="-190.7" font-family="Helvetica,sans-Serif" font-size="10.00">10</text>
</a>
</g>
</g>
<!-- dir_2597320cd5a766e2ddfc672ddb4c534b&#45;&gt;dir_68ffa5ca8ccfa6448bd0595e797999e4 -->
<g id="edge1" class="edge">
<title>dir_2597320cd5a766e2ddfc672ddb4c534b&#45;&gt;dir_68ffa5ca8ccfa6448bd0595e797999e4</title>
<path fill="none" stroke="black" d="M194.54,-72.76C214.64,-62.42 240.77,-48.97 261.86,-38.11"/>
<polygon fill="black" stroke="black" points="263.57,-41.17 270.86,-33.48 260.37,-34.95 263.57,-41.17"/>
<g id="a_edge1&#45;headlabel"><a xlink:href="dir_000005_000026.html" target="_top" xlink:title="1">
<text text-anchor="middle" x="261.68" y="-42.84" font-family="Helvetica,sans-Serif" font-size="10.00">1</text>
</a>
</g>
</g>
<!-- dir_2597320cd5a766e2ddfc672ddb4c534b&#45;&gt;dir_8bac7462668d86a984d2ee5977e3cf6a -->
<g id="edge2" class="edge">
<title>dir_2597320cd5a766e2ddfc672ddb4c534b&#45;&gt;dir_8bac7462668d86a984d2ee5977e3cf6a</title>
<path fill="none" stroke="black" d="M148.17,-71.7C140.98,-63.3 132.2,-53.07 124.31,-43.86"/>
<polygon fill="black" stroke="black" points="126.83,-41.42 117.66,-36.1 121.51,-45.97 126.83,-41.42"/>
<g id="a_edge2&#45;headlabel"><a xlink:href="dir_000005_000035.html" target="_top" xlink:title="2">
<text text-anchor="middle" x="131.32" y="-39.8" font-family="Helvetica,sans-Serif" font-size="10.00">2</text>
</a>
</g>
</g>
<!-- dir_2597320cd5a766e2ddfc672ddb4c534b&#45;&gt;dir_e4bcde167f88f305238965282a0ab06e -->
<g id="edge3" class="edge">
<title>dir_2597320cd5a766e2ddfc672ddb4c534b&#45;&gt;dir_e4bcde167f88f305238965282a0ab06e</title>
<path fill="none" stroke="black" d="M194.58,-106.99C210.65,-116.28 229.99,-128.14 245.85,-138.38"/>
<polygon fill="black" stroke="black" points="243.97,-141.34 254.25,-143.88 247.8,-135.48 243.97,-141.34"/>
<g id="a_edge3&#45;headlabel"><a xlink:href="dir_000005_000027.html" target="_top" xlink:title="8">
<text text-anchor="middle" x="239.41" y="-139.25" font-family="Helvetica,sans-Serif" font-size="10.00">8</text>
</a>
</g>
</g>
<!-- dir_70beccd1d8997d0174d02d630d77a447&#45;&gt;dir_e4bcde167f88f305238965282a0ab06e -->
<g id="edge4" class="edge">
<title>dir_70beccd1d8997d0174d02d630d77a447&#45;&gt;dir_e4bcde167f88f305238965282a0ab06e</title>
<path fill="none" stroke="black" d="M249.65,-215.7C253.64,-207.73 258.45,-198.1 262.87,-189.26"/>
<polygon fill="black" stroke="black" points="266.11,-190.61 267.45,-180.1 259.85,-187.48 266.11,-190.61"/>
<g id="a_edge4&#45;headlabel"><a xlink:href="dir_000012_000027.html" target="_top" xlink:title="3">
<text text-anchor="middle" x="267.04" y="-192.6" font-family="Helvetica,sans-Serif" font-size="10.00">3</text>
</a>
</g>
</g>
<!-- dir_c25cf638d32e4911582a285b040105d2&#45;&gt;dir_68ffa5ca8ccfa6448bd0595e797999e4 -->
<g id="edge13" class="edge">
<title>dir_c25cf638d32e4911582a285b040105d2&#45;&gt;dir_68ffa5ca8ccfa6448bd0595e797999e4</title>
<path fill="none" stroke="black" d="M144.46,-215.85C174.02,-178.21 244.67,-88.2 279.26,-44.15"/>
<polygon fill="black" stroke="black" points="282.05,-46.26 285.47,-36.23 276.54,-41.94 282.05,-46.26"/>
<g id="a_edge13&#45;headlabel"><a xlink:href="dir_000036_000026.html" target="_top" xlink:title="1">
<text text-anchor="middle" x="282.06" y="-48.34" font-family="Helvetica,sans-Serif" font-size="10.00">1</text>
</a>
</g>
</g>
<!-- dir_c25cf638d32e4911582a285b040105d2&#45;&gt;dir_2597320cd5a766e2ddfc672ddb4c534b -->
<g id="edge14" class="edge">
<title>dir_c25cf638d32e4911582a285b040105d2&#45;&gt;dir_2597320cd5a766e2ddfc672ddb4c534b</title>
<path fill="none" stroke="black" d="M134.86,-215.87C140.34,-191.56 150.42,-146.82 156.91,-118.01"/>
<polygon fill="black" stroke="black" points="160.34,-118.71 159.13,-108.19 153.51,-117.18 160.34,-118.71"/>
<g id="a_edge14&#45;headlabel"><a xlink:href="dir_000036_000005.html" target="_top" xlink:title="1">
<text text-anchor="middle" x="162.32" y="-120.34" font-family="Helvetica,sans-Serif" font-size="10.00">1</text>
</a>
</g>
</g>
<!-- dir_c25cf638d32e4911582a285b040105d2&#45;&gt;dir_8bac7462668d86a984d2ee5977e3cf6a -->
<g id="edge15" class="edge">
<title>dir_c25cf638d32e4911582a285b040105d2&#45;&gt;dir_8bac7462668d86a984d2ee5977e3cf6a</title>
<path fill="none" stroke="black" d="M128.76,-215.85C123.91,-178.83 112.44,-91.18 106.58,-46.39"/>
<polygon fill="black" stroke="black" points="110.02,-45.69 105.25,-36.23 103.08,-46.6 110.02,-45.69"/>
<g id="a_edge15&#45;headlabel"><a xlink:href="dir_000036_000035.html" target="_top" xlink:title="2">
<text text-anchor="middle" x="113.3" y="-46.39" font-family="Helvetica,sans-Serif" font-size="10.00">2</text>
</a>
</g>
</g>
<!-- dir_c25cf638d32e4911582a285b040105d2&#45;&gt;dir_e4bcde167f88f305238965282a0ab06e -->
<g id="edge16" class="edge">
<title>dir_c25cf638d32e4911582a285b040105d2&#45;&gt;dir_e4bcde167f88f305238965282a0ab06e</title>
<path fill="none" stroke="black" d="M158.27,-219.83C181.26,-208.74 214.35,-192.76 239.59,-180.58"/>
<polygon fill="black" stroke="black" points="241.37,-183.61 248.85,-176.11 238.32,-177.3 241.37,-183.61"/>
<g id="a_edge16&#45;headlabel"><a xlink:href="dir_000036_000027.html" target="_top" xlink:title="2">
<text text-anchor="middle" x="239.36" y="-185.23" font-family="Helvetica,sans-Serif" font-size="10.00">2</text>
</a>
</g>
</g>
<!-- dir_6bb50a2f0076c8f8a35f09a1613f8275&#45;&gt;dir_68ffa5ca8ccfa6448bd0595e797999e4 -->
<g id="edge17" class="edge">
<title>dir_6bb50a2f0076c8f8a35f09a1613f8275&#45;&gt;dir_68ffa5ca8ccfa6448bd0595e797999e4</title>
<path fill="none" stroke="black" d="M346.83,-215.85C337.82,-178.75 316.45,-90.81 305.59,-46.1"/>
<polygon fill="black" stroke="black" points="308.95,-45.12 303.19,-36.23 302.15,-46.78 308.95,-45.12"/>
<g id="a_edge17&#45;headlabel"><a xlink:href="dir_000023_000026.html" target="_top" xlink:title="1">
<text text-anchor="middle" x="312.56" y="-45.45" font-family="Helvetica,sans-Serif" font-size="10.00">1</text>
</a>
</g>
</g>
<!-- dir_6bb50a2f0076c8f8a35f09a1613f8275&#45;&gt;dir_e4bcde167f88f305238965282a0ab06e -->
<g id="edge18" class="edge">
<title>dir_6bb50a2f0076c8f8a35f09a1613f8275&#45;&gt;dir_e4bcde167f88f305238965282a0ab06e</title>
<path fill="none" stroke="black" d="M332.46,-215.7C323.2,-207.05 311.84,-196.45 301.74,-187.03"/>
<polygon fill="black" stroke="black" points="304.02,-184.37 294.33,-180.1 299.25,-189.49 304.02,-184.37"/>
<g id="a_edge18&#45;headlabel"><a xlink:href="dir_000023_000027.html" target="_top" xlink:title="1">
<text text-anchor="middle" x="308.59" y="-182.25" font-family="Helvetica,sans-Serif" font-size="10.00">1</text>
</a>
</g>
</g>
<!-- dir_e4bcde167f88f305238965282a0ab06e&#45;&gt;dir_68ffa5ca8ccfa6448bd0595e797999e4 -->
<g id="edge22" class="edge">
<title>dir_e4bcde167f88f305238965282a0ab06e&#45;&gt;dir_68ffa5ca8ccfa6448bd0595e797999e4</title>
<path fill="none" stroke="black" d="M278.77,-143.87C282.69,-119.67 289.9,-75.21 294.56,-46.39"/>
<polygon fill="black" stroke="black" points="298.07,-46.62 296.22,-36.19 291.16,-45.5 298.07,-46.62"/>
<g id="a_edge22&#45;headlabel"><a xlink:href="dir_000027_000026.html" target="_top" xlink:title="3">
<text text-anchor="middle" x="300.3" y="-48.12" font-family="Helvetica,sans-Serif" font-size="10.00">3</text>
</a>
</g>
</g>
<!-- dir_e4bcde167f88f305238965282a0ab06e&#45;&gt;dir_2597320cd5a766e2ddfc672ddb4c534b -->
<g id="edge23" class="edge">
<title>dir_e4bcde167f88f305238965282a0ab06e&#45;&gt;dir_2597320cd5a766e2ddfc672ddb4c534b</title>
<path fill="none" stroke="black" d="M248.75,-147.5C232.03,-137.96 210.7,-124.94 193.44,-113.8"/>
<polygon fill="black" stroke="black" points="195.12,-110.72 184.83,-108.18 191.29,-116.58 195.12,-110.72"/>
<g id="a_edge23&#45;headlabel"><a xlink:href="dir_000027_000005.html" target="_top" xlink:title="1">
<text text-anchor="middle" x="199.68" y="-107.81" font-family="Helvetica,sans-Serif" font-size="10.00">1</text>
</a>
</g>
</g>
<!-- dir_e4bcde167f88f305238965282a0ab06e&#45;&gt;dir_8bac7462668d86a984d2ee5977e3cf6a -->
<g id="edge24" class="edge">
<title>dir_e4bcde167f88f305238965282a0ab06e&#45;&gt;dir_8bac7462668d86a984d2ee5977e3cf6a</title>
<path fill="none" stroke="black" d="M265.03,-143.87C252.03,-124.57 228.83,-93.13 203,-72 183.92,-56.39 159.52,-43.35 139.6,-34.11"/>
<polygon fill="black" stroke="black" points="140.78,-30.8 130.22,-29.89 137.9,-37.19 140.78,-30.8"/>
<g id="a_edge24&#45;headlabel"><a xlink:href="dir_000027_000035.html" target="_top" xlink:title="7">
<text text-anchor="middle" x="145.22" y="-27.19" font-family="Helvetica,sans-Serif" font-size="10.00">7</text>
</a>
</g>
</g>
</g>
</svg>
