<?xml version="1.0" encoding="UTF-8" standalone="no"?>
<!DOCTYPE svg PUBLIC "-//W3C//DTD SVG 1.1//EN"
 "http://www.w3.org/Graphics/SVG/1.1/DTD/svg11.dtd">
<!-- Generated by graphviz version 2.43.0 (0)
 -->
<!-- Title: Kineis/App/Managers Pages: 1 -->
<svg width="353pt" height="375pt"
 viewBox="0.00 0.00 353.09 375.00" xmlns="http://www.w3.org/2000/svg" xmlns:xlink="http://www.w3.org/1999/xlink">
<g id="graph0" class="graph" transform="scale(1 1) rotate(0) translate(4 371)">
<title>Kineis/App/Managers</title>
<polygon fill="white" stroke="transparent" points="-4,4 -4,-371 349.09,-371 349.09,4 -4,4"/>
<g id="clust1" class="cluster">
<title>clusterdir_283ee20ab5eb9693b75f98890f2aae44</title>
<g id="a_clust1"><a xlink:href="dir_283ee20ab5eb9693b75f98890f2aae44.html" target="_top" xlink:title="App">
<polygon fill="#ddddee" stroke="black" points="90.52,-272 90.52,-359 292.52,-359 292.52,-272 90.52,-272"/>
<text text-anchor="middle" x="191.52" y="-347" font-family="Helvetica,sans-Serif" font-size="10.00">App</text>
</a>
</g>
</g>
<g id="clust2" class="cluster">
<title>clusterdir_d2f407ca869a9c9ed692376d5e29f120</title>
<g id="a_clust2"><a xlink:href="dir_d2f407ca869a9c9ed692376d5e29f120.html" target="_top">
<polygon fill="#eeeeff" stroke="black" points="98.52,-280 98.52,-332 284.52,-332 284.52,-280 98.52,-280"/>
</a>
</g>
</g>
<!-- dir_d2f407ca869a9c9ed692376d5e29f120 -->
<g id="node1" class="node">
<title>dir_d2f407ca869a9c9ed692376d5e29f120</title>
<text text-anchor="middle" x="243.52" y="-303.5" font-family="Helvetica,sans-Serif" font-size="10.00">Managers</text>
</g>
<!-- dir_60ee360fddee19ef14c06d7eba7d5fba -->
<g id="node2" class="node">
<title>dir_60ee360fddee19ef14c06d7eba7d5fba</title>
<g id="a_node2"><a xlink:href="dir_60ee360fddee19ef14c06d7eba7d5fba.html" target="_top" xlink:title="MGR_AT_CMD">
<polygon fill="white" stroke="red" points="192.52,-324 106.52,-324 106.52,-288 192.52,-288 192.52,-324"/>
<text text-anchor="middle" x="149.52" y="-303.5" font-family="Helvetica,sans-Serif" font-size="10.00">MGR_AT_CMD</text>
</a>
</g>
</g>
<!-- dir_68ffa5ca8ccfa6448bd0595e797999e4 -->
<g id="node3" class="node">
<title>dir_68ffa5ca8ccfa6448bd0595e797999e4</title>
<g id="a_node3"><a xlink:href="dir_68ffa5ca8ccfa6448bd0595e797999e4.html" target="_top" xlink:title="Appconf">
<polygon fill="none" stroke="black" points="160.52,-36 104.52,-36 104.52,0 160.52,0 160.52,-36"/>
<text text-anchor="middle" x="132.52" y="-15.5" font-family="Helvetica,sans-Serif" font-size="10.00">Appconf</text>
</a>
</g>
</g>
<!-- dir_60ee360fddee19ef14c06d7eba7d5fba&#45;&gt;dir_68ffa5ca8ccfa6448bd0595e797999e4 -->
<g id="edge5" class="edge">
<title>dir_60ee360fddee19ef14c06d7eba7d5fba&#45;&gt;dir_68ffa5ca8ccfa6448bd0595e797999e4</title>
<path fill="none" stroke="black" d="M111.41,-287.88C93.59,-278.77 72.77,-266.45 56.52,-252 26.84,-225.59 15.92,-217.75 3.52,-180 -15.96,-120.66 50.95,-67.46 95.6,-39.57"/>
<polygon fill="black" stroke="black" points="97.48,-42.52 104.2,-34.33 93.84,-36.54 97.48,-42.52"/>
<g id="a_edge5&#45;headlabel"><a xlink:href="dir_000020_000026.html" target="_top" xlink:title="1">
<text text-anchor="middle" x="95.88" y="-44.32" font-family="Helvetica,sans-Serif" font-size="10.00">1</text>
</a>
</g>
</g>
<!-- dir_2597320cd5a766e2ddfc672ddb4c534b -->
<g id="node4" class="node">
<title>dir_2597320cd5a766e2ddfc672ddb4c534b</title>
<g id="a_node4"><a xlink:href="dir_2597320cd5a766e2ddfc672ddb4c534b.html" target="_top" xlink:title="Kineis_os">
<polygon fill="white" stroke="red" points="300.02,-180 237.02,-180 237.02,-144 300.02,-144 300.02,-180"/>
<text text-anchor="middle" x="268.52" y="-159.5" font-family="Helvetica,sans-Serif" font-size="10.00">Kineis_os</text>
</a>
</g>
</g>
<!-- dir_60ee360fddee19ef14c06d7eba7d5fba&#45;&gt;dir_2597320cd5a766e2ddfc672ddb4c534b -->
<g id="edge6" class="edge">
<title>dir_60ee360fddee19ef14c06d7eba7d5fba&#45;&gt;dir_2597320cd5a766e2ddfc672ddb4c534b</title>
<path fill="none" stroke="black" d="M174,-287.89C182.48,-282.39 192.2,-276.55 201.52,-272 225.27,-260.4 241,-272.63 257.52,-252 271.32,-234.78 273.21,-209.34 272.15,-190.07"/>
<polygon fill="black" stroke="black" points="275.63,-189.76 271.31,-180.08 268.66,-190.34 275.63,-189.76"/>
<g id="a_edge6&#45;headlabel"><a xlink:href="dir_000020_000005.html" target="_top" xlink:title="1">
<text text-anchor="middle" x="278.76" y="-190.6" font-family="Helvetica,sans-Serif" font-size="10.00">1</text>
</a>
</g>
</g>
<!-- dir_70beccd1d8997d0174d02d630d77a447 -->
<g id="node5" class="node">
<title>dir_70beccd1d8997d0174d02d630d77a447</title>
<g id="a_node5"><a xlink:href="dir_70beccd1d8997d0174d02d630d77a447.html" target="_top" xlink:title="Libs">
<polygon fill="white" stroke="red" points="176.52,-252 122.52,-252 122.52,-216 176.52,-216 176.52,-252"/>
<text text-anchor="middle" x="149.52" y="-231.5" font-family="Helvetica,sans-Serif" font-size="10.00">Libs</text>
</a>
</g>
</g>
<!-- dir_60ee360fddee19ef14c06d7eba7d5fba&#45;&gt;dir_70beccd1d8997d0174d02d630d77a447 -->
<g id="edge7" class="edge">
<title>dir_60ee360fddee19ef14c06d7eba7d5fba&#45;&gt;dir_70beccd1d8997d0174d02d630d77a447</title>
<path fill="none" stroke="black" d="M149.52,-287.7C149.52,-279.98 149.52,-270.71 149.52,-262.11"/>
<polygon fill="black" stroke="black" points="153.02,-262.1 149.52,-252.1 146.02,-262.1 153.02,-262.1"/>
<g id="a_edge7&#45;headlabel"><a xlink:href="dir_000020_000012.html" target="_top" xlink:title="3">
<text text-anchor="middle" x="155.86" y="-263.2" font-family="Helvetica,sans-Serif" font-size="10.00">3</text>
</a>
</g>
</g>
<!-- dir_c25cf638d32e4911582a285b040105d2 -->
<g id="node6" class="node">
<title>dir_c25cf638d32e4911582a285b040105d2</title>
<g id="a_node6"><a xlink:href="dir_c25cf638d32e4911582a285b040105d2.html" target="_top" xlink:title="Lpm">
<polygon fill="white" stroke="red" points="248.52,-252 194.52,-252 194.52,-216 248.52,-216 248.52,-252"/>
<text text-anchor="middle" x="221.52" y="-231.5" font-family="Helvetica,sans-Serif" font-size="10.00">Lpm</text>
</a>
</g>
</g>
<!-- dir_60ee360fddee19ef14c06d7eba7d5fba&#45;&gt;dir_c25cf638d32e4911582a285b040105d2 -->
<g id="edge8" class="edge">
<title>dir_60ee360fddee19ef14c06d7eba7d5fba&#45;&gt;dir_c25cf638d32e4911582a285b040105d2</title>
<path fill="none" stroke="black" d="M167.32,-287.7C176.13,-279.14 186.9,-268.66 196.52,-259.3"/>
<polygon fill="black" stroke="black" points="199.2,-261.58 203.93,-252.1 194.32,-256.57 199.2,-261.58"/>
<g id="a_edge8&#45;headlabel"><a xlink:href="dir_000020_000036.html" target="_top" xlink:title="1">
<text text-anchor="middle" x="198.6" y="-263.63" font-family="Helvetica,sans-Serif" font-size="10.00">1</text>
</a>
</g>
</g>
<!-- dir_8bac7462668d86a984d2ee5977e3cf6a -->
<g id="node7" class="node">
<title>dir_8bac7462668d86a984d2ee5977e3cf6a</title>
<g id="a_node7"><a xlink:href="dir_8bac7462668d86a984d2ee5977e3cf6a.html" target="_top" xlink:title="Lib">
<polygon fill="none" stroke="black" points="335.52,-36 281.52,-36 281.52,0 335.52,0 335.52,-36"/>
<text text-anchor="middle" x="308.52" y="-15.5" font-family="Helvetica,sans-Serif" font-size="10.00">Lib</text>
</a>
</g>
</g>
<!-- dir_60ee360fddee19ef14c06d7eba7d5fba&#45;&gt;dir_8bac7462668d86a984d2ee5977e3cf6a -->
<g id="edge9" class="edge">
<title>dir_60ee360fddee19ef14c06d7eba7d5fba&#45;&gt;dir_8bac7462668d86a984d2ee5977e3cf6a</title>
<path fill="none" stroke="black" d="M172.99,-287.92C181.63,-282.23 191.71,-276.26 201.52,-272 233.95,-257.91 249.43,-272.09 278.52,-252 310.79,-229.72 315.58,-216.65 329.52,-180 346.63,-135.01 349.44,-118.63 337.52,-72 335.14,-62.7 330.76,-53.27 326.1,-45"/>
<polygon fill="black" stroke="black" points="328.98,-42.99 320.83,-36.22 322.98,-46.59 328.98,-42.99"/>
<g id="a_edge9&#45;headlabel"><a xlink:href="dir_000020_000035.html" target="_top" xlink:title="10">
<text text-anchor="middle" x="333.26" y="-42.11" font-family="Helvetica,sans-Serif" font-size="10.00">10</text>
</a>
</g>
</g>
<!-- dir_6bb50a2f0076c8f8a35f09a1613f8275 -->
<g id="node8" class="node">
<title>dir_6bb50a2f0076c8f8a35f09a1613f8275</title>
<g id="a_node8"><a xlink:href="dir_6bb50a2f0076c8f8a35f09a1613f8275.html" target="_top" xlink:title="Mcu">
<polygon fill="white" stroke="red" points="66.52,-180 12.52,-180 12.52,-144 66.52,-144 66.52,-180"/>
<text text-anchor="middle" x="39.52" y="-159.5" font-family="Helvetica,sans-Serif" font-size="10.00">Mcu</text>
</a>
</g>
</g>
<!-- dir_60ee360fddee19ef14c06d7eba7d5fba&#45;&gt;dir_6bb50a2f0076c8f8a35f09a1613f8275 -->
<g id="edge10" class="edge">
<title>dir_60ee360fddee19ef14c06d7eba7d5fba&#45;&gt;dir_6bb50a2f0076c8f8a35f09a1613f8275</title>
<path fill="none" stroke="black" d="M121.02,-287.78C107.43,-278.49 91.74,-266.05 80.52,-252 65.65,-233.38 54.78,-208.49 47.98,-189.77"/>
<polygon fill="black" stroke="black" points="51.21,-188.39 44.63,-180.08 44.59,-190.68 51.21,-188.39"/>
<g id="a_edge10&#45;headlabel"><a xlink:href="dir_000020_000023.html" target="_top" xlink:title="5">
<text text-anchor="middle" x="55.07" y="-188.35" font-family="Helvetica,sans-Serif" font-size="10.00">5</text>
</a>
</g>
</g>
<!-- dir_e4bcde167f88f305238965282a0ab06e -->
<g id="node9" class="node">
<title>dir_e4bcde167f88f305238965282a0ab06e</title>
<g id="a_node9"><a xlink:href="dir_e4bcde167f88f305238965282a0ab06e.html" target="_top" xlink:title="Extdep">
<polygon fill="white" stroke="red" points="219.52,-108 165.52,-108 165.52,-72 219.52,-72 219.52,-108"/>
<text text-anchor="middle" x="192.52" y="-87.5" font-family="Helvetica,sans-Serif" font-size="10.00">Extdep</text>
</a>
</g>
</g>
<!-- dir_60ee360fddee19ef14c06d7eba7d5fba&#45;&gt;dir_e4bcde167f88f305238965282a0ab06e -->
<g id="edge11" class="edge">
<title>dir_60ee360fddee19ef14c06d7eba7d5fba&#45;&gt;dir_e4bcde167f88f305238965282a0ab06e</title>
<path fill="none" stroke="black" d="M133.91,-287.77C126.15,-278.03 117.58,-265.18 113.52,-252 108.82,-236.71 109.07,-231.37 113.52,-216 124.63,-177.62 151.44,-139.7 170.74,-115.87"/>
<polygon fill="black" stroke="black" points="173.54,-117.99 177.22,-108.05 168.15,-113.52 173.54,-117.99"/>
<g id="a_edge11&#45;headlabel"><a xlink:href="dir_000020_000027.html" target="_top" xlink:title="9">
<text text-anchor="middle" x="173.43" y="-120.06" font-family="Helvetica,sans-Serif" font-size="10.00">9</text>
</a>
</g>
</g>
<!-- dir_2597320cd5a766e2ddfc672ddb4c534b&#45;&gt;dir_68ffa5ca8ccfa6448bd0595e797999e4 -->
<g id="edge1" class="edge">
<title>dir_2597320cd5a766e2ddfc672ddb4c534b&#45;&gt;dir_68ffa5ca8ccfa6448bd0595e797999e4</title>
<path fill="none" stroke="black" d="M264.33,-143.75C258.87,-124.34 247.69,-92.81 228.52,-72 212.56,-54.67 189.6,-41.71 170.13,-32.95"/>
<polygon fill="black" stroke="black" points="171.47,-29.71 160.9,-28.98 168.71,-36.14 171.47,-29.71"/>
<g id="a_edge1&#45;headlabel"><a xlink:href="dir_000005_000026.html" target="_top" xlink:title="1">
<text text-anchor="middle" x="175.9" y="-26.02" font-family="Helvetica,sans-Serif" font-size="10.00">1</text>
</a>
</g>
</g>
<!-- dir_2597320cd5a766e2ddfc672ddb4c534b&#45;&gt;dir_8bac7462668d86a984d2ee5977e3cf6a -->
<g id="edge2" class="edge">
<title>dir_2597320cd5a766e2ddfc672ddb4c534b&#45;&gt;dir_8bac7462668d86a984d2ee5977e3cf6a</title>
<path fill="none" stroke="black" d="M273.35,-143.87C280.19,-119.56 292.8,-74.82 300.91,-46.01"/>
<polygon fill="black" stroke="black" points="304.34,-46.76 303.68,-36.19 297.6,-44.87 304.34,-46.76"/>
<g id="a_edge2&#45;headlabel"><a xlink:href="dir_000005_000035.html" target="_top" xlink:title="2">
<text text-anchor="middle" x="306.1" y="-48.49" font-family="Helvetica,sans-Serif" font-size="10.00">2</text>
</a>
</g>
</g>
<!-- dir_2597320cd5a766e2ddfc672ddb4c534b&#45;&gt;dir_e4bcde167f88f305238965282a0ab06e -->
<g id="edge3" class="edge">
<title>dir_2597320cd5a766e2ddfc672ddb4c534b&#45;&gt;dir_e4bcde167f88f305238965282a0ab06e</title>
<path fill="none" stroke="black" d="M243.82,-143.7C233.64,-135.14 222.08,-124.66 212.45,-115.3"/>
<polygon fill="black" stroke="black" points="214.76,-112.67 205.2,-108.1 209.83,-117.63 214.76,-112.67"/>
<g id="a_edge3&#45;headlabel"><a xlink:href="dir_000005_000027.html" target="_top" xlink:title="8">
<text text-anchor="middle" x="219.31" y="-110.69" font-family="Helvetica,sans-Serif" font-size="10.00">8</text>
</a>
</g>
</g>
<!-- dir_70beccd1d8997d0174d02d630d77a447&#45;&gt;dir_e4bcde167f88f305238965282a0ab06e -->
<g id="edge4" class="edge">
<title>dir_70beccd1d8997d0174d02d630d77a447&#45;&gt;dir_e4bcde167f88f305238965282a0ab06e</title>
<path fill="none" stroke="black" d="M154.71,-215.87C162.07,-191.56 175.62,-146.82 184.34,-118.01"/>
<polygon fill="black" stroke="black" points="187.77,-118.77 187.32,-108.19 181.07,-116.75 187.77,-118.77"/>
<g id="a_edge4&#45;headlabel"><a xlink:href="dir_000012_000027.html" target="_top" xlink:title="3">
<text text-anchor="middle" x="189.44" y="-120.54" font-family="Helvetica,sans-Serif" font-size="10.00">3</text>
</a>
</g>
</g>
<!-- dir_c25cf638d32e4911582a285b040105d2&#45;&gt;dir_68ffa5ca8ccfa6448bd0595e797999e4 -->
<g id="edge12" class="edge">
<title>dir_c25cf638d32e4911582a285b040105d2&#45;&gt;dir_68ffa5ca8ccfa6448bd0595e797999e4</title>
<path fill="none" stroke="black" d="M211.02,-215.76C197.01,-192.15 172.15,-148.11 156.52,-108 148.61,-87.68 142.32,-63.78 138.17,-45.86"/>
<polygon fill="black" stroke="black" points="141.58,-45.07 135.97,-36.08 134.75,-46.6 141.58,-45.07"/>
<g id="a_edge12&#45;headlabel"><a xlink:href="dir_000036_000026.html" target="_top" xlink:title="1">
<text text-anchor="middle" x="145.13" y="-45.46" font-family="Helvetica,sans-Serif" font-size="10.00">1</text>
</a>
</g>
</g>
<!-- dir_c25cf638d32e4911582a285b040105d2&#45;&gt;dir_2597320cd5a766e2ddfc672ddb4c534b -->
<g id="edge13" class="edge">
<title>dir_c25cf638d32e4911582a285b040105d2&#45;&gt;dir_2597320cd5a766e2ddfc672ddb4c534b</title>
<path fill="none" stroke="black" d="M233.14,-215.7C238.66,-207.47 245.37,-197.48 251.45,-188.42"/>
<polygon fill="black" stroke="black" points="254.37,-190.36 257.04,-180.1 248.56,-186.46 254.37,-190.36"/>
<g id="a_edge13&#45;headlabel"><a xlink:href="dir_000036_000005.html" target="_top" xlink:title="1">
<text text-anchor="middle" x="254.72" y="-192.42" font-family="Helvetica,sans-Serif" font-size="10.00">1</text>
</a>
</g>
</g>
<!-- dir_c25cf638d32e4911582a285b040105d2&#45;&gt;dir_8bac7462668d86a984d2ee5977e3cf6a -->
<g id="edge14" class="edge">
<title>dir_c25cf638d32e4911582a285b040105d2&#45;&gt;dir_8bac7462668d86a984d2ee5977e3cf6a</title>
<path fill="none" stroke="black" d="M248.9,-224.52C269.36,-216.59 295.87,-202.51 308.52,-180 331.99,-138.22 324.03,-80.19 316.2,-46.42"/>
<polygon fill="black" stroke="black" points="319.51,-45.22 313.71,-36.35 312.72,-46.9 319.51,-45.22"/>
<g id="a_edge14&#45;headlabel"><a xlink:href="dir_000036_000035.html" target="_top" xlink:title="2">
<text text-anchor="middle" x="323.13" y="-45.52" font-family="Helvetica,sans-Serif" font-size="10.00">2</text>
</a>
</g>
</g>
<!-- dir_c25cf638d32e4911582a285b040105d2&#45;&gt;dir_e4bcde167f88f305238965282a0ab06e -->
<g id="edge15" class="edge">
<title>dir_c25cf638d32e4911582a285b040105d2&#45;&gt;dir_e4bcde167f88f305238965282a0ab06e</title>
<path fill="none" stroke="black" d="M218.02,-215.87C213.06,-191.56 203.92,-146.82 198.04,-118.01"/>
<polygon fill="black" stroke="black" points="201.46,-117.29 196.03,-108.19 194.6,-118.69 201.46,-117.29"/>
<g id="a_edge15&#45;headlabel"><a xlink:href="dir_000036_000027.html" target="_top" xlink:title="2">
<text text-anchor="middle" x="204.96" y="-117.74" font-family="Helvetica,sans-Serif" font-size="10.00">2</text>
</a>
</g>
</g>
<!-- dir_6bb50a2f0076c8f8a35f09a1613f8275&#45;&gt;dir_68ffa5ca8ccfa6448bd0595e797999e4 -->
<g id="edge16" class="edge">
<title>dir_6bb50a2f0076c8f8a35f09a1613f8275&#45;&gt;dir_68ffa5ca8ccfa6448bd0595e797999e4</title>
<path fill="none" stroke="black" d="M50.74,-143.87C66.87,-119.24 96.74,-73.64 115.57,-44.88"/>
<polygon fill="black" stroke="black" points="118.71,-46.47 121.26,-36.19 112.86,-42.64 118.71,-46.47"/>
<g id="a_edge16&#45;headlabel"><a xlink:href="dir_000023_000026.html" target="_top" xlink:title="1">
<text text-anchor="middle" x="119.12" y="-48.54" font-family="Helvetica,sans-Serif" font-size="10.00">1</text>
</a>
</g>
</g>
<!-- dir_6bb50a2f0076c8f8a35f09a1613f8275&#45;&gt;dir_e4bcde167f88f305238965282a0ab06e -->
<g id="edge17" class="edge">
<title>dir_6bb50a2f0076c8f8a35f09a1613f8275&#45;&gt;dir_e4bcde167f88f305238965282a0ab06e</title>
<path fill="none" stroke="black" d="M66.52,-148.65C91.39,-137.27 128.48,-120.3 155.98,-107.72"/>
<polygon fill="black" stroke="black" points="157.64,-110.81 165.28,-103.47 154.73,-104.44 157.64,-110.81"/>
<g id="a_edge17&#45;headlabel"><a xlink:href="dir_000023_000027.html" target="_top" xlink:title="1">
<text text-anchor="middle" x="155.55" y="-112.39" font-family="Helvetica,sans-Serif" font-size="10.00">1</text>
</a>
</g>
</g>
<!-- dir_e4bcde167f88f305238965282a0ab06e&#45;&gt;dir_68ffa5ca8ccfa6448bd0595e797999e4 -->
<g id="edge18" class="edge">
<title>dir_e4bcde167f88f305238965282a0ab06e&#45;&gt;dir_68ffa5ca8ccfa6448bd0595e797999e4</title>
<path fill="none" stroke="black" d="M177.69,-71.7C170.5,-63.3 161.72,-53.07 153.83,-43.86"/>
<polygon fill="black" stroke="black" points="156.35,-41.42 147.18,-36.1 151.03,-45.97 156.35,-41.42"/>
<g id="a_edge18&#45;headlabel"><a xlink:href="dir_000027_000026.html" target="_top" xlink:title="3">
<text text-anchor="middle" x="160.84" y="-39.8" font-family="Helvetica,sans-Serif" font-size="10.00">3</text>
</a>
</g>
</g>
<!-- dir_e4bcde167f88f305238965282a0ab06e&#45;&gt;dir_2597320cd5a766e2ddfc672ddb4c534b -->
<g id="edge19" class="edge">
<title>dir_e4bcde167f88f305238965282a0ab06e&#45;&gt;dir_2597320cd5a766e2ddfc672ddb4c534b</title>
<path fill="none" stroke="black" d="M216.99,-108.1C227.14,-116.64 238.71,-127.11 248.37,-136.48"/>
<polygon fill="black" stroke="black" points="246.09,-139.14 255.65,-143.7 251.01,-134.17 246.09,-139.14"/>
<g id="a_edge19&#45;headlabel"><a xlink:href="dir_000027_000005.html" target="_top" xlink:title="1">
<text text-anchor="middle" x="241.53" y="-136.13" font-family="Helvetica,sans-Serif" font-size="10.00">1</text>
</a>
</g>
</g>
<!-- dir_e4bcde167f88f305238965282a0ab06e&#45;&gt;dir_8bac7462668d86a984d2ee5977e3cf6a -->
<g id="edge20" class="edge">
<title>dir_e4bcde167f88f305238965282a0ab06e&#45;&gt;dir_8bac7462668d86a984d2ee5977e3cf6a</title>
<path fill="none" stroke="black" d="M219.72,-72.59C235.57,-63.02 255.75,-50.85 272.86,-40.52"/>
<polygon fill="black" stroke="black" points="274.74,-43.47 281.49,-35.31 271.12,-37.48 274.74,-43.47"/>
<g id="a_edge20&#45;headlabel"><a xlink:href="dir_000027_000035.html" target="_top" xlink:title="7">
<text text-anchor="middle" x="273.13" y="-45.26" font-family="Helvetica,sans-Serif" font-size="10.00">7</text>
</a>
</g>
</g>
</g>
</svg>
