<?xml version="1.0" encoding="UTF-8" standalone="no"?>
<!DOCTYPE svg PUBLIC "-//W3C//DTD SVG 1.1//EN"
 "http://www.w3.org/Graphics/SVG/1.1/DTD/svg11.dtd">
<!-- Generated by graphviz version 2.43.0 (0)
 -->
<!-- Title: Kineis/Extdep/Mcu Pages: 1 -->
<svg width="248pt" height="231pt"
 viewBox="0.00 0.00 247.50 231.00" xmlns="http://www.w3.org/2000/svg" xmlns:xlink="http://www.w3.org/1999/xlink">
<g id="graph0" class="graph" transform="scale(1 1) rotate(0) translate(4 227)">
<title>Kineis/Extdep/Mcu</title>
<polygon fill="white" stroke="transparent" points="-4,4 -4,-227 243.5,-227 243.5,4 -4,4"/>
<g id="clust1" class="cluster">
<title>clusterdir_e4bcde167f88f305238965282a0ab06e</title>
<g id="a_clust1"><a xlink:href="dir_e4bcde167f88f305238965282a0ab06e.html" target="_top" xlink:title="Extdep">
<polygon fill="#ddddee" stroke="black" points="8,-56 8,-215 166,-215 166,-56 8,-56"/>
<text text-anchor="middle" x="87" y="-203" font-family="Helvetica,sans-Serif" font-size="10.00">Extdep</text>
</a>
</g>
</g>
<g id="clust2" class="cluster">
<title>clusterdir_aca22906c4dbdf8e38c05a61c7a67a25</title>
<g id="a_clust2"><a xlink:href="dir_aca22906c4dbdf8e38c05a61c7a67a25.html" target="_top">
<polygon fill="#eeeeff" stroke="black" points="16,-64 16,-188 158,-188 158,-64 16,-64"/>
</a>
</g>
</g>
<!-- dir_aca22906c4dbdf8e38c05a61c7a67a25 -->
<g id="node1" class="node">
<title>dir_aca22906c4dbdf8e38c05a61c7a67a25</title>
<text text-anchor="middle" x="123" y="-159.5" font-family="Helvetica,sans-Serif" font-size="10.00">Mcu</text>
</g>
<!-- dir_496cf9278821991a8caa0ed467f49753 -->
<g id="node2" class="node">
<title>dir_496cf9278821991a8caa0ed467f49753</title>
<g id="a_node2"><a xlink:href="dir_496cf9278821991a8caa0ed467f49753.html" target="_top" xlink:title="Inc">
<polygon fill="white" stroke="black" points="78,-108 24,-108 24,-72 78,-72 78,-108"/>
<text text-anchor="middle" x="51" y="-87.5" font-family="Helvetica,sans-Serif" font-size="10.00">Inc</text>
</a>
</g>
</g>
<!-- dir_8bac7462668d86a984d2ee5977e3cf6a -->
<g id="node6" class="node">
<title>dir_8bac7462668d86a984d2ee5977e3cf6a</title>
<g id="a_node6"><a xlink:href="dir_8bac7462668d86a984d2ee5977e3cf6a.html" target="_top" xlink:title="Lib">
<polygon fill="none" stroke="black" points="111,-36 57,-36 57,0 111,0 111,-36"/>
<text text-anchor="middle" x="84" y="-15.5" font-family="Helvetica,sans-Serif" font-size="10.00">Lib</text>
</a>
</g>
</g>
<!-- dir_496cf9278821991a8caa0ed467f49753&#45;&gt;dir_8bac7462668d86a984d2ee5977e3cf6a -->
<g id="edge2" class="edge">
<title>dir_496cf9278821991a8caa0ed467f49753&#45;&gt;dir_8bac7462668d86a984d2ee5977e3cf6a</title>
<path fill="none" stroke="black" d="M59.16,-71.7C62.91,-63.73 67.45,-54.1 71.62,-45.26"/>
<polygon fill="black" stroke="black" points="74.84,-46.64 75.94,-36.1 68.51,-43.66 74.84,-46.64"/>
<g id="a_edge2&#45;headlabel"><a xlink:href="dir_000030_000035.html" target="_top" xlink:title="3">
<text text-anchor="middle" x="75.87" y="-48.6" font-family="Helvetica,sans-Serif" font-size="10.00">3</text>
</a>
</g>
</g>
<!-- dir_089d8fe640958b1df7ad1ed896db5d73 -->
<g id="node3" class="node">
<title>dir_089d8fe640958b1df7ad1ed896db5d73</title>
<g id="a_node3"><a xlink:href="dir_089d8fe640958b1df7ad1ed896db5d73.html" target="_top" xlink:title="Src">
<polygon fill="white" stroke="black" points="78,-180 24,-180 24,-144 78,-144 78,-180"/>
<text text-anchor="middle" x="51" y="-159.5" font-family="Helvetica,sans-Serif" font-size="10.00">Src</text>
</a>
</g>
</g>
<!-- dir_089d8fe640958b1df7ad1ed896db5d73&#45;&gt;dir_496cf9278821991a8caa0ed467f49753 -->
<g id="edge6" class="edge">
<title>dir_089d8fe640958b1df7ad1ed896db5d73&#45;&gt;dir_496cf9278821991a8caa0ed467f49753</title>
<path fill="none" stroke="black" d="M51,-143.7C51,-135.98 51,-126.71 51,-118.11"/>
<polygon fill="black" stroke="black" points="54.5,-118.1 51,-108.1 47.5,-118.1 54.5,-118.1"/>
<g id="a_edge6&#45;headlabel"><a xlink:href="dir_000031_000030.html" target="_top" xlink:title="9">
<text text-anchor="middle" x="57.34" y="-119.2" font-family="Helvetica,sans-Serif" font-size="10.00">9</text>
</a>
</g>
</g>
<!-- dir_68ffa5ca8ccfa6448bd0595e797999e4 -->
<g id="node4" class="node">
<title>dir_68ffa5ca8ccfa6448bd0595e797999e4</title>
<g id="a_node4"><a xlink:href="dir_68ffa5ca8ccfa6448bd0595e797999e4.html" target="_top" xlink:title="Appconf">
<polygon fill="none" stroke="black" points="195,-36 139,-36 139,0 195,0 195,-36"/>
<text text-anchor="middle" x="167" y="-15.5" font-family="Helvetica,sans-Serif" font-size="10.00">Appconf</text>
</a>
</g>
</g>
<!-- dir_089d8fe640958b1df7ad1ed896db5d73&#45;&gt;dir_68ffa5ca8ccfa6448bd0595e797999e4 -->
<g id="edge3" class="edge">
<title>dir_089d8fe640958b1df7ad1ed896db5d73&#45;&gt;dir_68ffa5ca8ccfa6448bd0595e797999e4</title>
<path fill="none" stroke="black" d="M69.69,-143.81C80.22,-133.78 93.34,-120.63 104,-108 121.2,-87.61 138.56,-62.69 150.68,-44.42"/>
<polygon fill="black" stroke="black" points="153.63,-46.31 156.19,-36.03 147.78,-42.46 153.63,-46.31"/>
<g id="a_edge3&#45;headlabel"><a xlink:href="dir_000031_000026.html" target="_top" xlink:title="1">
<text text-anchor="middle" x="154.03" y="-48.37" font-family="Helvetica,sans-Serif" font-size="10.00">1</text>
</a>
</g>
</g>
<!-- dir_603c3abc85dcd5ce81fff229f71c4fb7 -->
<g id="node5" class="node">
<title>dir_603c3abc85dcd5ce81fff229f71c4fb7</title>
<g id="a_node5"><a xlink:href="dir_603c3abc85dcd5ce81fff229f71c4fb7.html" target="_top" xlink:title="MGR_LOG">
<polygon fill="white" stroke="red" points="239.5,-108 174.5,-108 174.5,-72 239.5,-72 239.5,-108"/>
<text text-anchor="middle" x="207" y="-87.5" font-family="Helvetica,sans-Serif" font-size="10.00">MGR_LOG</text>
</a>
</g>
</g>
<!-- dir_089d8fe640958b1df7ad1ed896db5d73&#45;&gt;dir_603c3abc85dcd5ce81fff229f71c4fb7 -->
<g id="edge4" class="edge">
<title>dir_089d8fe640958b1df7ad1ed896db5d73&#45;&gt;dir_603c3abc85dcd5ce81fff229f71c4fb7</title>
<path fill="none" stroke="black" d="M78.09,-148.12C81.09,-146.72 84.11,-145.32 87,-144 112.85,-132.19 142.02,-119.3 165.12,-109.19"/>
<polygon fill="black" stroke="black" points="166.54,-112.39 174.3,-105.17 163.74,-105.97 166.54,-112.39"/>
<g id="a_edge4&#45;headlabel"><a xlink:href="dir_000031_000032.html" target="_top" xlink:title="2">
<text text-anchor="middle" x="164.38" y="-113.93" font-family="Helvetica,sans-Serif" font-size="10.00">2</text>
</a>
</g>
</g>
<!-- dir_089d8fe640958b1df7ad1ed896db5d73&#45;&gt;dir_8bac7462668d86a984d2ee5977e3cf6a -->
<g id="edge5" class="edge">
<title>dir_089d8fe640958b1df7ad1ed896db5d73&#45;&gt;dir_8bac7462668d86a984d2ee5977e3cf6a</title>
<path fill="none" stroke="black" d="M66.61,-143.77C74.37,-134.03 82.95,-121.18 87,-108 93.16,-87.96 91.95,-64.17 89.45,-46.24"/>
<polygon fill="black" stroke="black" points="92.88,-45.48 87.83,-36.17 85.97,-46.6 92.88,-45.48"/>
<g id="a_edge5&#45;headlabel"><a xlink:href="dir_000031_000035.html" target="_top" xlink:title="2">
<text text-anchor="middle" x="96.25" y="-46.08" font-family="Helvetica,sans-Serif" font-size="10.00">2</text>
</a>
</g>
</g>
<!-- dir_603c3abc85dcd5ce81fff229f71c4fb7&#45;&gt;dir_68ffa5ca8ccfa6448bd0595e797999e4 -->
<g id="edge1" class="edge">
<title>dir_603c3abc85dcd5ce81fff229f71c4fb7&#45;&gt;dir_68ffa5ca8ccfa6448bd0595e797999e4</title>
<path fill="none" stroke="black" d="M197.11,-71.7C192.51,-63.64 186.94,-53.89 181.85,-44.98"/>
<polygon fill="black" stroke="black" points="184.77,-43.05 176.77,-36.1 178.7,-46.52 184.77,-43.05"/>
<g id="a_edge1&#45;headlabel"><a xlink:href="dir_000032_000026.html" target="_top" xlink:title="2">
<text text-anchor="middle" x="189.02" y="-42.26" font-family="Helvetica,sans-Serif" font-size="10.00">2</text>
</a>
</g>
</g>
</g>
</svg>
