<?xml version="1.0" encoding="UTF-8" standalone="no"?>
<!DOCTYPE svg PUBLIC "-//W3C//DTD SVG 1.1//EN"
 "http://www.w3.org/Graphics/SVG/1.1/DTD/svg11.dtd">
<!-- Generated by graphviz version 2.43.0 (0)
 -->
<!-- Title: Kineis Pages: 1 -->
<svg width="174pt" height="292pt"
 viewBox="0.00 0.00 174.00 292.00" xmlns="http://www.w3.org/2000/svg" xmlns:xlink="http://www.w3.org/1999/xlink">
<g id="graph0" class="graph" transform="scale(1 1) rotate(0) translate(4 288)">
<title>Kineis</title>
<polygon fill="white" stroke="transparent" points="-4,4 -4,-288 170,-288 170,4 -4,4"/>
<g id="clust1" class="cluster">
<title>clusterdir_e477e9e432f6cdbbe234eeb906f13059</title>
<g id="a_clust1"><a xlink:href="dir_e477e9e432f6cdbbe234eeb906f13059.html" target="_top">
<polygon fill="#eeeeff" stroke="black" points="8,-8 8,-276 158,-276 158,-8 8,-8"/>
</a>
</g>
</g>
<!-- dir_e477e9e432f6cdbbe234eeb906f13059 -->
<g id="node1" class="node">
<title>dir_e477e9e432f6cdbbe234eeb906f13059</title>
<text text-anchor="middle" x="123" y="-247.5" font-family="Helvetica,sans-Serif" font-size="10.00">Kineis</text>
</g>
<!-- dir_283ee20ab5eb9693b75f98890f2aae44 -->
<g id="node2" class="node">
<title>dir_283ee20ab5eb9693b75f98890f2aae44</title>
<g id="a_node2"><a xlink:href="dir_283ee20ab5eb9693b75f98890f2aae44.html" target="_top" xlink:title="App">
<polygon fill="white" stroke="red" points="78,-268 24,-268 24,-232 78,-232 78,-268"/>
<text text-anchor="middle" x="51" y="-247.5" font-family="Helvetica,sans-Serif" font-size="10.00">App</text>
</a>
</g>
</g>
<!-- dir_68ffa5ca8ccfa6448bd0595e797999e4 -->
<g id="node3" class="node">
<title>dir_68ffa5ca8ccfa6448bd0595e797999e4</title>
<g id="a_node3"><a xlink:href="dir_68ffa5ca8ccfa6448bd0595e797999e4.html" target="_top" xlink:title="Appconf">
<polygon fill="white" stroke="black" points="72,-52 16,-52 16,-16 72,-16 72,-52"/>
<text text-anchor="middle" x="44" y="-31.5" font-family="Helvetica,sans-Serif" font-size="10.00">Appconf</text>
</a>
</g>
</g>
<!-- dir_283ee20ab5eb9693b75f98890f2aae44&#45;&gt;dir_68ffa5ca8ccfa6448bd0595e797999e4 -->
<g id="edge1" class="edge">
<title>dir_283ee20ab5eb9693b75f98890f2aae44&#45;&gt;dir_68ffa5ca8ccfa6448bd0595e797999e4</title>
<path fill="none" stroke="black" d="M41.05,-231.98C35.73,-221.89 29.73,-208.64 27,-196 16.98,-149.59 27.58,-94.34 35.96,-62.11"/>
<polygon fill="black" stroke="black" points="39.43,-62.68 38.68,-52.11 32.68,-60.84 39.43,-62.68"/>
<g id="a_edge1&#45;headlabel"><a xlink:href="dir_000004_000026.html" target="_top" xlink:title="3">
<text text-anchor="middle" x="41.23" y="-64.39" font-family="Helvetica,sans-Serif" font-size="10.00">3</text>
</a>
</g>
</g>
<!-- dir_e4bcde167f88f305238965282a0ab06e -->
<g id="node4" class="node">
<title>dir_e4bcde167f88f305238965282a0ab06e</title>
<g id="a_node4"><a xlink:href="dir_e4bcde167f88f305238965282a0ab06e.html" target="_top" xlink:title="Extdep">
<polygon fill="white" stroke="red" points="130,-124 76,-124 76,-88 130,-88 130,-124"/>
<text text-anchor="middle" x="103" y="-103.5" font-family="Helvetica,sans-Serif" font-size="10.00">Extdep</text>
</a>
</g>
</g>
<!-- dir_283ee20ab5eb9693b75f98890f2aae44&#45;&gt;dir_e4bcde167f88f305238965282a0ab06e -->
<g id="edge4" class="edge">
<title>dir_283ee20ab5eb9693b75f98890f2aae44&#45;&gt;dir_e4bcde167f88f305238965282a0ab06e</title>
<path fill="none" stroke="black" d="M64.37,-231.68C73.43,-222.28 84.33,-209.78 90,-196 98.03,-176.48 98.64,-152.49 98.82,-134.33"/>
<polygon fill="black" stroke="black" points="102.32,-134.17 98.93,-124.13 95.32,-134.09 102.32,-134.17"/>
<g id="a_edge4&#45;headlabel"><a xlink:href="dir_000004_000027.html" target="_top" xlink:title="25">
<text text-anchor="middle" x="105.12" y="-135.3" font-family="Helvetica,sans-Serif" font-size="10.00">25</text>
</a>
</g>
</g>
<!-- dir_8bac7462668d86a984d2ee5977e3cf6a -->
<g id="node5" class="node">
<title>dir_8bac7462668d86a984d2ee5977e3cf6a</title>
<g id="a_node5"><a xlink:href="dir_8bac7462668d86a984d2ee5977e3cf6a.html" target="_top" xlink:title="Lib">
<polygon fill="white" stroke="black" points="144,-52 90,-52 90,-16 144,-16 144,-52"/>
<text text-anchor="middle" x="117" y="-31.5" font-family="Helvetica,sans-Serif" font-size="10.00">Lib</text>
</a>
</g>
</g>
<!-- dir_283ee20ab5eb9693b75f98890f2aae44&#45;&gt;dir_8bac7462668d86a984d2ee5977e3cf6a -->
<g id="edge3" class="edge">
<title>dir_283ee20ab5eb9693b75f98890f2aae44&#45;&gt;dir_8bac7462668d86a984d2ee5977e3cf6a</title>
<path fill="none" stroke="black" d="M72.94,-231.83C84.19,-222.2 97.49,-209.44 107,-196 127.22,-167.41 131.73,-158.26 139,-124 142.32,-108.35 142.13,-103.69 139,-88 137.21,-79.01 133.86,-69.64 130.31,-61.32"/>
<polygon fill="black" stroke="black" points="133.46,-59.77 126.13,-52.12 127.08,-62.67 133.46,-59.77"/>
<g id="a_edge3&#45;headlabel"><a xlink:href="dir_000004_000035.html" target="_top" xlink:title="15">
<text text-anchor="middle" x="137.53" y="-59.37" font-family="Helvetica,sans-Serif" font-size="10.00">15</text>
</a>
</g>
</g>
<!-- dir_c25cf638d32e4911582a285b040105d2 -->
<g id="node6" class="node">
<title>dir_c25cf638d32e4911582a285b040105d2</title>
<g id="a_node6"><a xlink:href="dir_c25cf638d32e4911582a285b040105d2.html" target="_top" xlink:title="Lpm">
<polygon fill="white" stroke="red" points="90,-196 36,-196 36,-160 90,-160 90,-196"/>
<text text-anchor="middle" x="63" y="-175.5" font-family="Helvetica,sans-Serif" font-size="10.00">Lpm</text>
</a>
</g>
</g>
<!-- dir_283ee20ab5eb9693b75f98890f2aae44&#45;&gt;dir_c25cf638d32e4911582a285b040105d2 -->
<g id="edge2" class="edge">
<title>dir_283ee20ab5eb9693b75f98890f2aae44&#45;&gt;dir_c25cf638d32e4911582a285b040105d2</title>
<path fill="none" stroke="black" d="M48.05,-231.7C48.58,-223.9 49.97,-214.51 51.82,-205.83"/>
<polygon fill="black" stroke="black" points="55.22,-206.65 54.17,-196.1 48.42,-205 55.22,-206.65"/>
<g id="a_edge2&#45;headlabel"><a xlink:href="dir_000004_000036.html" target="_top" xlink:title="1">
<text text-anchor="middle" x="57.13" y="-208.31" font-family="Helvetica,sans-Serif" font-size="10.00">1</text>
</a>
</g>
</g>
<!-- dir_e4bcde167f88f305238965282a0ab06e&#45;&gt;dir_283ee20ab5eb9693b75f98890f2aae44 -->
<g id="edge10" class="edge">
<title>dir_e4bcde167f88f305238965282a0ab06e&#45;&gt;dir_283ee20ab5eb9693b75f98890f2aae44</title>
<path fill="none" stroke="black" d="M112.2,-124.13C116.58,-142.61 117.65,-172.54 108,-196 103.24,-207.57 94.79,-218.24 85.74,-226.93"/>
<polygon fill="black" stroke="black" points="83.22,-224.49 78.07,-233.74 87.87,-229.72 83.22,-224.49"/>
<g id="a_edge10&#45;headlabel"><a xlink:href="dir_000027_000004.html" target="_top" xlink:title="1">
<text text-anchor="middle" x="84.03" y="-217.48" font-family="Helvetica,sans-Serif" font-size="10.00">1</text>
</a>
</g>
</g>
<!-- dir_e4bcde167f88f305238965282a0ab06e&#45;&gt;dir_68ffa5ca8ccfa6448bd0595e797999e4 -->
<g id="edge9" class="edge">
<title>dir_e4bcde167f88f305238965282a0ab06e&#45;&gt;dir_68ffa5ca8ccfa6448bd0595e797999e4</title>
<path fill="none" stroke="black" d="M88.42,-87.7C81.34,-79.3 72.72,-69.07 64.95,-59.86"/>
<polygon fill="black" stroke="black" points="67.54,-57.49 58.42,-52.1 62.19,-62.01 67.54,-57.49"/>
<g id="a_edge9&#45;headlabel"><a xlink:href="dir_000027_000026.html" target="_top" xlink:title="3">
<text text-anchor="middle" x="72.03" y="-55.91" font-family="Helvetica,sans-Serif" font-size="10.00">3</text>
</a>
</g>
</g>
<!-- dir_e4bcde167f88f305238965282a0ab06e&#45;&gt;dir_8bac7462668d86a984d2ee5977e3cf6a -->
<g id="edge11" class="edge">
<title>dir_e4bcde167f88f305238965282a0ab06e&#45;&gt;dir_8bac7462668d86a984d2ee5977e3cf6a</title>
<path fill="none" stroke="black" d="M106.46,-87.7C108,-79.98 109.86,-70.71 111.58,-62.11"/>
<polygon fill="black" stroke="black" points="115.05,-62.6 113.58,-52.1 108.19,-61.22 115.05,-62.6"/>
<g id="a_edge11&#45;headlabel"><a xlink:href="dir_000027_000035.html" target="_top" xlink:title="7">
<text text-anchor="middle" x="117.13" y="-64.18" font-family="Helvetica,sans-Serif" font-size="10.00">7</text>
</a>
</g>
</g>
<!-- dir_c25cf638d32e4911582a285b040105d2&#45;&gt;dir_283ee20ab5eb9693b75f98890f2aae44 -->
<g id="edge6" class="edge">
<title>dir_c25cf638d32e4911582a285b040105d2&#45;&gt;dir_283ee20ab5eb9693b75f98890f2aae44</title>
<path fill="none" stroke="black" d="M65.96,-196.1C65.44,-203.88 64.07,-213.26 62.23,-221.95"/>
<polygon fill="black" stroke="black" points="58.82,-221.16 59.88,-231.7 65.63,-222.79 58.82,-221.16"/>
<g id="a_edge6&#45;headlabel"><a xlink:href="dir_000036_000004.html" target="_top" xlink:title="1">
<text text-anchor="middle" x="56.9" y="-214.5" font-family="Helvetica,sans-Serif" font-size="10.00">1</text>
</a>
</g>
</g>
<!-- dir_c25cf638d32e4911582a285b040105d2&#45;&gt;dir_68ffa5ca8ccfa6448bd0595e797999e4 -->
<g id="edge5" class="edge">
<title>dir_c25cf638d32e4911582a285b040105d2&#45;&gt;dir_68ffa5ca8ccfa6448bd0595e797999e4</title>
<path fill="none" stroke="black" d="M58.93,-159.9C56.6,-149.56 53.79,-136.08 52,-124 48.95,-103.41 46.9,-79.96 45.64,-62.3"/>
<polygon fill="black" stroke="black" points="49.12,-61.87 44.95,-52.13 42.13,-62.34 49.12,-61.87"/>
<g id="a_edge5&#45;headlabel"><a xlink:href="dir_000036_000026.html" target="_top" xlink:title="1">
<text text-anchor="middle" x="52.19" y="-62.77" font-family="Helvetica,sans-Serif" font-size="10.00">1</text>
</a>
</g>
</g>
<!-- dir_c25cf638d32e4911582a285b040105d2&#45;&gt;dir_e4bcde167f88f305238965282a0ab06e -->
<g id="edge8" class="edge">
<title>dir_c25cf638d32e4911582a285b040105d2&#45;&gt;dir_e4bcde167f88f305238965282a0ab06e</title>
<path fill="none" stroke="black" d="M72.89,-159.7C77.49,-151.64 83.06,-141.89 88.15,-132.98"/>
<polygon fill="black" stroke="black" points="91.3,-134.52 93.23,-124.1 85.23,-131.05 91.3,-134.52"/>
<g id="a_edge8&#45;headlabel"><a xlink:href="dir_000036_000027.html" target="_top" xlink:title="2">
<text text-anchor="middle" x="91.99" y="-136.55" font-family="Helvetica,sans-Serif" font-size="10.00">2</text>
</a>
</g>
</g>
<!-- dir_c25cf638d32e4911582a285b040105d2&#45;&gt;dir_8bac7462668d86a984d2ee5977e3cf6a -->
<g id="edge7" class="edge">
<title>dir_c25cf638d32e4911582a285b040105d2&#45;&gt;dir_8bac7462668d86a984d2ee5977e3cf6a</title>
<path fill="none" stroke="black" d="M60.35,-159.83C58.25,-141.31 57.11,-111.36 67,-88 71.53,-77.3 79.25,-67.45 87.29,-59.22"/>
<polygon fill="black" stroke="black" points="89.87,-61.59 94.67,-52.15 85.03,-56.54 89.87,-61.59"/>
<g id="a_edge7&#45;headlabel"><a xlink:href="dir_000036_000035.html" target="_top" xlink:title="2">
<text text-anchor="middle" x="89.24" y="-63.63" font-family="Helvetica,sans-Serif" font-size="10.00">2</text>
</a>
</g>
</g>
</g>
</svg>
