<?xml version="1.0" encoding="UTF-8" standalone="no"?>
<!DOCTYPE svg PUBLIC "-//W3C//DTD SVG 1.1//EN"
 "http://www.w3.org/Graphics/SVG/1.1/DTD/svg11.dtd">
<!-- Generated by graphviz version 2.43.0 (0)
 -->
<!-- Title: Kineis/Extdep/MGR_LOG Pages: 1 -->
<svg width="250pt" height="183pt"
 viewBox="0.00 0.00 250.00 183.00" xmlns="http://www.w3.org/2000/svg" xmlns:xlink="http://www.w3.org/1999/xlink">
<g id="graph0" class="graph" transform="scale(1 1) rotate(0) translate(4 179)">
<title>Kineis/Extdep/MGR_LOG</title>
<polygon fill="white" stroke="transparent" points="-4,4 -4,-179 246,-179 246,4 -4,4"/>
<g id="clust1" class="cluster">
<title>clusterdir_e4bcde167f88f305238965282a0ab06e</title>
<g id="a_clust1"><a xlink:href="dir_e4bcde167f88f305238965282a0ab06e.html" target="_top" xlink:title="Extdep">
<polygon fill="#ddddee" stroke="black" points="8,-8 8,-167 178,-167 178,-8 8,-8"/>
<text text-anchor="middle" x="93" y="-155" font-family="Helvetica,sans-Serif" font-size="10.00">Extdep</text>
</a>
</g>
</g>
<g id="clust2" class="cluster">
<title>clusterdir_603c3abc85dcd5ce81fff229f71c4fb7</title>
<g id="a_clust2"><a xlink:href="dir_603c3abc85dcd5ce81fff229f71c4fb7.html" target="_top">
<polygon fill="#eeeeff" stroke="black" points="16,-16 16,-140 170,-140 170,-16 16,-16"/>
</a>
</g>
</g>
<!-- dir_603c3abc85dcd5ce81fff229f71c4fb7 -->
<g id="node1" class="node">
<title>dir_603c3abc85dcd5ce81fff229f71c4fb7</title>
<text text-anchor="middle" x="129" y="-111.5" font-family="Helvetica,sans-Serif" font-size="10.00">MGR_LOG</text>
</g>
<!-- dir_a674acbb93d18f32f9e6583072a572b8 -->
<g id="node2" class="node">
<title>dir_a674acbb93d18f32f9e6583072a572b8</title>
<g id="a_node2"><a xlink:href="dir_a674acbb93d18f32f9e6583072a572b8.html" target="_top" xlink:title="Inc">
<polygon fill="white" stroke="black" points="78,-60 24,-60 24,-24 78,-24 78,-60"/>
<text text-anchor="middle" x="51" y="-39.5" font-family="Helvetica,sans-Serif" font-size="10.00">Inc</text>
</a>
</g>
</g>
<!-- dir_b6260dc7bec6ab88b90e637459a986f2 -->
<g id="node3" class="node">
<title>dir_b6260dc7bec6ab88b90e637459a986f2</title>
<g id="a_node3"><a xlink:href="dir_b6260dc7bec6ab88b90e637459a986f2.html" target="_top" xlink:title="Src">
<polygon fill="white" stroke="black" points="78,-132 24,-132 24,-96 78,-96 78,-132"/>
<text text-anchor="middle" x="51" y="-111.5" font-family="Helvetica,sans-Serif" font-size="10.00">Src</text>
</a>
</g>
</g>
<!-- dir_b6260dc7bec6ab88b90e637459a986f2&#45;&gt;dir_a674acbb93d18f32f9e6583072a572b8 -->
<g id="edge2" class="edge">
<title>dir_b6260dc7bec6ab88b90e637459a986f2&#45;&gt;dir_a674acbb93d18f32f9e6583072a572b8</title>
<path fill="none" stroke="black" d="M51,-95.7C51,-87.98 51,-78.71 51,-70.11"/>
<polygon fill="black" stroke="black" points="54.5,-70.1 51,-60.1 47.5,-70.1 54.5,-70.1"/>
<g id="a_edge2&#45;headlabel"><a xlink:href="dir_000034_000033.html" target="_top" xlink:title="3">
<text text-anchor="middle" x="57.34" y="-71.2" font-family="Helvetica,sans-Serif" font-size="10.00">3</text>
</a>
</g>
</g>
<!-- dir_68ffa5ca8ccfa6448bd0595e797999e4 -->
<g id="node4" class="node">
<title>dir_68ffa5ca8ccfa6448bd0595e797999e4</title>
<g id="a_node4"><a xlink:href="dir_68ffa5ca8ccfa6448bd0595e797999e4.html" target="_top" xlink:title="Appconf">
<polygon fill="none" stroke="black" points="242,-60 186,-60 186,-24 242,-24 242,-60"/>
<text text-anchor="middle" x="214" y="-39.5" font-family="Helvetica,sans-Serif" font-size="10.00">Appconf</text>
</a>
</g>
</g>
<!-- dir_b6260dc7bec6ab88b90e637459a986f2&#45;&gt;dir_68ffa5ca8ccfa6448bd0595e797999e4 -->
<g id="edge1" class="edge">
<title>dir_b6260dc7bec6ab88b90e637459a986f2&#45;&gt;dir_68ffa5ca8ccfa6448bd0595e797999e4</title>
<path fill="none" stroke="black" d="M78.03,-100.45C81.38,-98.93 84.76,-97.42 88,-96 125.94,-79.35 135.82,-76.1 174,-60 174.7,-59.7 175.41,-59.4 176.13,-59.1"/>
<polygon fill="black" stroke="black" points="177.76,-62.21 185.6,-55.09 175.03,-55.77 177.76,-62.21"/>
<g id="a_edge1&#45;headlabel"><a xlink:href="dir_000034_000026.html" target="_top" xlink:title="2">
<text text-anchor="middle" x="175.55" y="-63.73" font-family="Helvetica,sans-Serif" font-size="10.00">2</text>
</a>
</g>
</g>
</g>
</svg>
