<?xml version="1.0" encoding="UTF-8" standalone="no"?>
<!DOCTYPE svg PUBLIC "-//W3C//DTD SVG 1.1//EN"
 "http://www.w3.org/Graphics/SVG/1.1/DTD/svg11.dtd">
<!-- Generated by graphviz version 2.43.0 (0)
 -->
<!-- Title: Kineis/Extdep Pages: 1 -->
<svg width="364pt" height="267pt"
 viewBox="0.00 0.00 364.00 267.00" xmlns="http://www.w3.org/2000/svg" xmlns:xlink="http://www.w3.org/1999/xlink">
<g id="graph0" class="graph" transform="scale(1 1) rotate(0) translate(4 263)">
<title>Kineis/Extdep</title>
<polygon fill="white" stroke="transparent" points="-4,4 -4,-263 360,-263 360,4 -4,4"/>
<g id="clust1" class="cluster">
<title>clusterdir_e477e9e432f6cdbbe234eeb906f13059</title>
<g id="a_clust1"><a xlink:href="dir_e477e9e432f6cdbbe234eeb906f13059.html" target="_top" xlink:title="Kineis">
<polygon fill="#ddddee" stroke="black" points="8,-56 8,-215 238,-215 238,-56 8,-56"/>
<text text-anchor="middle" x="123" y="-203" font-family="Helvetica,sans-Serif" font-size="10.00">Kineis</text>
</a>
</g>
</g>
<g id="clust2" class="cluster">
<title>clusterdir_e4bcde167f88f305238965282a0ab06e</title>
<g id="a_clust2"><a xlink:href="dir_e4bcde167f88f305238965282a0ab06e.html" target="_top">
<polygon fill="#eeeeff" stroke="black" points="16,-64 16,-188 230,-188 230,-64 16,-64"/>
</a>
</g>
</g>
<!-- dir_e4bcde167f88f305238965282a0ab06e -->
<g id="node1" class="node">
<title>dir_e4bcde167f88f305238965282a0ab06e</title>
<text text-anchor="middle" x="195" y="-159.5" font-family="Helvetica,sans-Serif" font-size="10.00">Extdep</text>
</g>
<!-- dir_b8b18822a774fad16818b672d6e0daf5 -->
<g id="node2" class="node">
<title>dir_b8b18822a774fad16818b672d6e0daf5</title>
<g id="a_node2"><a xlink:href="dir_b8b18822a774fad16818b672d6e0daf5.html" target="_top" xlink:title="Conf">
<polygon fill="white" stroke="black" points="78,-180 24,-180 24,-144 78,-144 78,-180"/>
<text text-anchor="middle" x="51" y="-159.5" font-family="Helvetica,sans-Serif" font-size="10.00">Conf</text>
</a>
</g>
</g>
<!-- dir_603c3abc85dcd5ce81fff229f71c4fb7 -->
<g id="node4" class="node">
<title>dir_603c3abc85dcd5ce81fff229f71c4fb7</title>
<g id="a_node4"><a xlink:href="dir_603c3abc85dcd5ce81fff229f71c4fb7.html" target="_top" xlink:title="MGR_LOG">
<polygon fill="white" stroke="red" points="122.5,-108 57.5,-108 57.5,-72 122.5,-72 122.5,-108"/>
<text text-anchor="middle" x="90" y="-87.5" font-family="Helvetica,sans-Serif" font-size="10.00">MGR_LOG</text>
</a>
</g>
</g>
<!-- dir_b8b18822a774fad16818b672d6e0daf5&#45;&gt;dir_603c3abc85dcd5ce81fff229f71c4fb7 -->
<g id="edge9" class="edge">
<title>dir_b8b18822a774fad16818b672d6e0daf5&#45;&gt;dir_603c3abc85dcd5ce81fff229f71c4fb7</title>
<path fill="none" stroke="black" d="M60.64,-143.7C65.13,-135.64 70.56,-125.89 75.52,-116.98"/>
<polygon fill="black" stroke="black" points="78.66,-118.54 80.47,-108.1 72.55,-115.14 78.66,-118.54"/>
<g id="a_edge9&#45;headlabel"><a xlink:href="dir_000028_000032.html" target="_top" xlink:title="1">
<text text-anchor="middle" x="79.39" y="-120.57" font-family="Helvetica,sans-Serif" font-size="10.00">1</text>
</a>
</g>
</g>
<!-- dir_283ee20ab5eb9693b75f98890f2aae44 -->
<g id="node6" class="node">
<title>dir_283ee20ab5eb9693b75f98890f2aae44</title>
<g id="a_node6"><a xlink:href="dir_283ee20ab5eb9693b75f98890f2aae44.html" target="_top" xlink:title="App">
<polygon fill="white" stroke="red" points="150,-259 96,-259 96,-223 150,-223 150,-259"/>
<text text-anchor="middle" x="123" y="-238.5" font-family="Helvetica,sans-Serif" font-size="10.00">App</text>
</a>
</g>
</g>
<!-- dir_b8b18822a774fad16818b672d6e0daf5&#45;&gt;dir_283ee20ab5eb9693b75f98890f2aae44 -->
<g id="edge8" class="edge">
<title>dir_b8b18822a774fad16818b672d6e0daf5&#45;&gt;dir_283ee20ab5eb9693b75f98890f2aae44</title>
<path fill="none" stroke="black" d="M52.94,-180.08C58.23,-190.83 67.6,-204.59 78,-215 80.9,-217.91 84.18,-220.7 87.64,-223.3"/>
<polygon fill="black" stroke="black" points="85.69,-226.2 95.91,-228.97 89.64,-220.43 85.69,-226.2"/>
<g id="a_edge8&#45;headlabel"><a xlink:href="dir_000028_000004.html" target="_top" xlink:title="1">
<text text-anchor="middle" x="81.12" y="-224.02" font-family="Helvetica,sans-Serif" font-size="10.00">1</text>
</a>
</g>
</g>
<!-- dir_8bac7462668d86a984d2ee5977e3cf6a -->
<g id="node7" class="node">
<title>dir_8bac7462668d86a984d2ee5977e3cf6a</title>
<g id="a_node7"><a xlink:href="dir_8bac7462668d86a984d2ee5977e3cf6a.html" target="_top" xlink:title="Lib">
<polygon fill="none" stroke="black" points="300,-108 246,-108 246,-72 300,-72 300,-108"/>
<text text-anchor="middle" x="273" y="-87.5" font-family="Helvetica,sans-Serif" font-size="10.00">Lib</text>
</a>
</g>
</g>
<!-- dir_b8b18822a774fad16818b672d6e0daf5&#45;&gt;dir_8bac7462668d86a984d2ee5977e3cf6a -->
<g id="edge10" class="edge">
<title>dir_b8b18822a774fad16818b672d6e0daf5&#45;&gt;dir_8bac7462668d86a984d2ee5977e3cf6a</title>
<path fill="none" stroke="black" d="M78.28,-147.42C81.19,-146.19 84.13,-145.02 87,-144 150.4,-121.53 170.27,-129.52 234,-108 234.86,-107.71 235.72,-107.41 236.59,-107.1"/>
<polygon fill="black" stroke="black" points="237.88,-110.35 245.96,-103.49 235.37,-103.82 237.88,-110.35"/>
<g id="a_edge10&#45;headlabel"><a xlink:href="dir_000028_000035.html" target="_top" xlink:title="2">
<text text-anchor="middle" x="235.55" y="-111.79" font-family="Helvetica,sans-Serif" font-size="10.00">2</text>
</a>
</g>
</g>
<!-- dir_aca22906c4dbdf8e38c05a61c7a67a25 -->
<g id="node3" class="node">
<title>dir_aca22906c4dbdf8e38c05a61c7a67a25</title>
<g id="a_node3"><a xlink:href="dir_aca22906c4dbdf8e38c05a61c7a67a25.html" target="_top" xlink:title="Mcu">
<polygon fill="white" stroke="red" points="150,-180 96,-180 96,-144 150,-144 150,-180"/>
<text text-anchor="middle" x="123" y="-159.5" font-family="Helvetica,sans-Serif" font-size="10.00">Mcu</text>
</a>
</g>
</g>
<!-- dir_aca22906c4dbdf8e38c05a61c7a67a25&#45;&gt;dir_603c3abc85dcd5ce81fff229f71c4fb7 -->
<g id="edge12" class="edge">
<title>dir_aca22906c4dbdf8e38c05a61c7a67a25&#45;&gt;dir_603c3abc85dcd5ce81fff229f71c4fb7</title>
<path fill="none" stroke="black" d="M114.84,-143.7C111.09,-135.73 106.55,-126.1 102.38,-117.26"/>
<polygon fill="black" stroke="black" points="105.49,-115.66 98.06,-108.1 99.16,-118.64 105.49,-115.66"/>
<g id="a_edge12&#45;headlabel"><a xlink:href="dir_000029_000032.html" target="_top" xlink:title="2">
<text text-anchor="middle" x="109.59" y="-115.2" font-family="Helvetica,sans-Serif" font-size="10.00">2</text>
</a>
</g>
</g>
<!-- dir_68ffa5ca8ccfa6448bd0595e797999e4 -->
<g id="node5" class="node">
<title>dir_68ffa5ca8ccfa6448bd0595e797999e4</title>
<g id="a_node5"><a xlink:href="dir_68ffa5ca8ccfa6448bd0595e797999e4.html" target="_top" xlink:title="Appconf">
<polygon fill="none" stroke="black" points="356,-36 300,-36 300,0 356,0 356,-36"/>
<text text-anchor="middle" x="328" y="-15.5" font-family="Helvetica,sans-Serif" font-size="10.00">Appconf</text>
</a>
</g>
</g>
<!-- dir_aca22906c4dbdf8e38c05a61c7a67a25&#45;&gt;dir_68ffa5ca8ccfa6448bd0595e797999e4 -->
<g id="edge11" class="edge">
<title>dir_aca22906c4dbdf8e38c05a61c7a67a25&#45;&gt;dir_68ffa5ca8ccfa6448bd0595e797999e4</title>
<path fill="none" stroke="black" d="M150.27,-147.41C153.19,-146.17 156.13,-145.01 159,-144 223.67,-121.24 261.14,-157.09 309,-108 324.73,-91.87 328.83,-66.1 329.38,-46.43"/>
<polygon fill="black" stroke="black" points="332.88,-46.22 329.37,-36.23 325.88,-46.23 332.88,-46.22"/>
<g id="a_edge11&#45;headlabel"><a xlink:href="dir_000029_000026.html" target="_top" xlink:title="1">
<text text-anchor="middle" x="335.72" y="-47.31" font-family="Helvetica,sans-Serif" font-size="10.00">1</text>
</a>
</g>
</g>
<!-- dir_aca22906c4dbdf8e38c05a61c7a67a25&#45;&gt;dir_8bac7462668d86a984d2ee5977e3cf6a -->
<g id="edge13" class="edge">
<title>dir_aca22906c4dbdf8e38c05a61c7a67a25&#45;&gt;dir_8bac7462668d86a984d2ee5977e3cf6a</title>
<path fill="none" stroke="black" d="M150.12,-148.17C153.11,-146.76 156.12,-145.35 159,-144 184.94,-131.85 214.25,-118.22 236.65,-107.83"/>
<polygon fill="black" stroke="black" points="238.2,-110.97 245.8,-103.59 235.25,-104.62 238.2,-110.97"/>
<g id="a_edge13&#45;headlabel"><a xlink:href="dir_000029_000035.html" target="_top" xlink:title="5">
<text text-anchor="middle" x="236.13" y="-112.56" font-family="Helvetica,sans-Serif" font-size="10.00">5</text>
</a>
</g>
</g>
<!-- dir_603c3abc85dcd5ce81fff229f71c4fb7&#45;&gt;dir_68ffa5ca8ccfa6448bd0595e797999e4 -->
<g id="edge7" class="edge">
<title>dir_603c3abc85dcd5ce81fff229f71c4fb7&#45;&gt;dir_68ffa5ca8ccfa6448bd0595e797999e4</title>
<path fill="none" stroke="black" d="M122.59,-79.41C166.36,-66.54 243.96,-43.72 290.22,-30.11"/>
<polygon fill="black" stroke="black" points="291.27,-33.45 299.87,-27.27 289.29,-26.74 291.27,-33.45"/>
<g id="a_edge7&#45;headlabel"><a xlink:href="dir_000032_000026.html" target="_top" xlink:title="2">
<text text-anchor="middle" x="288.62" y="-34.69" font-family="Helvetica,sans-Serif" font-size="10.00">2</text>
</a>
</g>
</g>
<!-- dir_283ee20ab5eb9693b75f98890f2aae44&#45;&gt;dir_e4bcde167f88f305238965282a0ab06e -->
<g id="edge6" class="edge">
<title>dir_283ee20ab5eb9693b75f98890f2aae44&#45;&gt;dir_e4bcde167f88f305238965282a0ab06e</title>
<path fill="none" stroke="black" d="M150.19,-222.72C153.3,-220.29 156.31,-217.69 159,-215 166.8,-207.19 174.02,-197.5 179.92,-188.61"/>
<polygon fill="black" stroke="black" points="182.93,-190.39 185.35,-180.08 177.03,-186.64 182.93,-190.39"/>
<g id="a_edge6&#45;headlabel"><a xlink:href="dir_000004_000027.html" target="_top" xlink:title="25">
<text text-anchor="middle" x="183.39" y="-192.45" font-family="Helvetica,sans-Serif" font-size="10.00">25</text>
</a>
</g>
</g>
<!-- dir_283ee20ab5eb9693b75f98890f2aae44&#45;&gt;dir_b8b18822a774fad16818b672d6e0daf5 -->
<g id="edge3" class="edge">
<title>dir_283ee20ab5eb9693b75f98890f2aae44&#45;&gt;dir_b8b18822a774fad16818b672d6e0daf5</title>
<path fill="none" stroke="black" d="M104.74,-222.72C101.7,-220.29 98.69,-217.69 96,-215 88.12,-207.11 80.83,-197.3 74.34,-188.33"/>
<polygon fill="black" stroke="black" points="77.06,-186.13 68.36,-180.08 71.39,-190.23 77.06,-186.13"/>
<g id="a_edge3&#45;headlabel"><a xlink:href="dir_000004_000028.html" target="_top" xlink:title="14">
<text text-anchor="middle" x="81.47" y="-184.87" font-family="Helvetica,sans-Serif" font-size="10.00">14</text>
</a>
</g>
</g>
<!-- dir_283ee20ab5eb9693b75f98890f2aae44&#45;&gt;dir_aca22906c4dbdf8e38c05a61c7a67a25 -->
<g id="edge5" class="edge">
<title>dir_283ee20ab5eb9693b75f98890f2aae44&#45;&gt;dir_aca22906c4dbdf8e38c05a61c7a67a25</title>
<path fill="none" stroke="black" d="M123,-222.91C123,-213.34 123,-201.18 123,-190.32"/>
<polygon fill="black" stroke="black" points="126.5,-190.04 123,-180.04 119.5,-190.04 126.5,-190.04"/>
<g id="a_edge5&#45;headlabel"><a xlink:href="dir_000004_000029.html" target="_top" xlink:title="1">
<text text-anchor="middle" x="129.34" y="-191.14" font-family="Helvetica,sans-Serif" font-size="10.00">1</text>
</a>
</g>
</g>
<!-- dir_283ee20ab5eb9693b75f98890f2aae44&#45;&gt;dir_603c3abc85dcd5ce81fff229f71c4fb7 -->
<g id="edge2" class="edge">
<title>dir_283ee20ab5eb9693b75f98890f2aae44&#45;&gt;dir_603c3abc85dcd5ce81fff229f71c4fb7</title>
<path fill="none" stroke="black" d="M95.77,-237.51C67.14,-234.26 24.91,-227.47 15,-215 -4.64,-190.3 0.49,-172.02 15,-144 22.34,-129.83 35.4,-118.64 48.59,-110.26"/>
<polygon fill="black" stroke="black" points="50.39,-113.27 57.22,-105.16 46.83,-107.24 50.39,-113.27"/>
<g id="a_edge2&#45;headlabel"><a xlink:href="dir_000004_000032.html" target="_top" xlink:title="10">
<text text-anchor="middle" x="48.74" y="-115.04" font-family="Helvetica,sans-Serif" font-size="10.00">10</text>
</a>
</g>
</g>
<!-- dir_283ee20ab5eb9693b75f98890f2aae44&#45;&gt;dir_68ffa5ca8ccfa6448bd0595e797999e4 -->
<g id="edge1" class="edge">
<title>dir_283ee20ab5eb9693b75f98890f2aae44&#45;&gt;dir_68ffa5ca8ccfa6448bd0595e797999e4</title>
<path fill="none" stroke="black" d="M150.28,-237.84C186.12,-234.55 246.68,-227.34 265,-215 311.54,-183.65 316.51,-161.93 332,-108 337.79,-87.84 336.32,-64.06 333.66,-46.16"/>
<polygon fill="black" stroke="black" points="337.08,-45.38 331.96,-36.11 330.18,-46.55 337.08,-45.38"/>
<g id="a_edge1&#45;headlabel"><a xlink:href="dir_000004_000026.html" target="_top" xlink:title="3">
<text text-anchor="middle" x="340.48" y="-45.95" font-family="Helvetica,sans-Serif" font-size="10.00">3</text>
</a>
</g>
</g>
<!-- dir_283ee20ab5eb9693b75f98890f2aae44&#45;&gt;dir_8bac7462668d86a984d2ee5977e3cf6a -->
<g id="edge4" class="edge">
<title>dir_283ee20ab5eb9693b75f98890f2aae44&#45;&gt;dir_8bac7462668d86a984d2ee5977e3cf6a</title>
<path fill="none" stroke="black" d="M150.04,-237.02C178.84,-233.32 221.93,-226.1 234,-215 261.1,-190.07 269.5,-146.55 272.02,-118.26"/>
<polygon fill="black" stroke="black" points="275.52,-118.46 272.73,-108.24 268.54,-117.96 275.52,-118.46"/>
<g id="a_edge4&#45;headlabel"><a xlink:href="dir_000004_000035.html" target="_top" xlink:title="15">
<text text-anchor="middle" x="278.1" y="-119.74" font-family="Helvetica,sans-Serif" font-size="10.00">15</text>
</a>
</g>
</g>
</g>
</svg>
