<?xml version="1.0" encoding="UTF-8" standalone="no"?>
<!DOCTYPE svg PUBLIC "-//W3C//DTD SVG 1.1//EN"
 "http://www.w3.org/Graphics/SVG/1.1/DTD/svg11.dtd">
<!-- Generated by graphviz version 2.43.0 (0)
 -->
<!-- Title: Kineis/App Pages: 1 -->
<svg width="432pt" height="375pt"
 viewBox="0.00 0.00 432.00 375.00" xmlns="http://www.w3.org/2000/svg" xmlns:xlink="http://www.w3.org/1999/xlink">
<g id="graph0" class="graph" transform="scale(1 1) rotate(0) translate(4 371)">
<title>Kineis/App</title>
<polygon fill="white" stroke="transparent" points="-4,4 -4,-371 428,-371 428,4 -4,4"/>
<g id="clust1" class="cluster">
<title>clusterdir_e477e9e432f6cdbbe234eeb906f13059</title>
<g id="a_clust1"><a xlink:href="dir_e477e9e432f6cdbbe234eeb906f13059.html" target="_top" xlink:title="Kineis">
<polygon fill="#ddddee" stroke="black" points="8,-128 8,-359 248,-359 248,-128 8,-128"/>
<text text-anchor="middle" x="128" y="-347" font-family="Helvetica,sans-Serif" font-size="10.00">Kineis</text>
</a>
</g>
</g>
<g id="clust2" class="cluster">
<title>clusterdir_283ee20ab5eb9693b75f98890f2aae44</title>
<g id="a_clust2"><a xlink:href="dir_283ee20ab5eb9693b75f98890f2aae44.html" target="_top">
<polygon fill="#eeeeff" stroke="black" points="16,-136 16,-332 240,-332 240,-136 16,-136"/>
</a>
</g>
</g>
<!-- dir_283ee20ab5eb9693b75f98890f2aae44 -->
<g id="node1" class="node">
<title>dir_283ee20ab5eb9693b75f98890f2aae44</title>
<text text-anchor="middle" x="202" y="-303.5" font-family="Helvetica,sans-Serif" font-size="10.00">App</text>
</g>
<!-- dir_2597320cd5a766e2ddfc672ddb4c534b -->
<g id="node2" class="node">
<title>dir_2597320cd5a766e2ddfc672ddb4c534b</title>
<g id="a_node2"><a xlink:href="dir_2597320cd5a766e2ddfc672ddb4c534b.html" target="_top" xlink:title="Kineis_os">
<polygon fill="white" stroke="red" points="159.5,-180 96.5,-180 96.5,-144 159.5,-144 159.5,-180"/>
<text text-anchor="middle" x="128" y="-159.5" font-family="Helvetica,sans-Serif" font-size="10.00">Kineis_os</text>
</a>
</g>
</g>
<!-- dir_283ee20ab5eb9693b75f98890f2aae44&#45;&gt;dir_2597320cd5a766e2ddfc672ddb4c534b -->
<g id="edge12" class="edge">
<title>dir_283ee20ab5eb9693b75f98890f2aae44&#45;&gt;dir_2597320cd5a766e2ddfc672ddb4c534b</title>
<path fill="none" stroke="black" d="M184.73,-287.59C175.78,-277.79 165.23,-264.95 158,-252 147.06,-232.39 139.2,-208.12 134.29,-189.88"/>
<polygon fill="black" stroke="black" points="137.67,-188.99 131.79,-180.17 130.89,-190.73 137.67,-188.99"/>
<g id="a_edge12&#45;headlabel"><a xlink:href="dir_000004_000005.html" target="_top" xlink:title="6">
<text text-anchor="middle" x="141.32" y="-189.26" font-family="Helvetica,sans-Serif" font-size="10.00">6</text>
</a>
</g>
</g>
<!-- dir_d2f407ca869a9c9ed692376d5e29f120 -->
<g id="node4" class="node">
<title>dir_d2f407ca869a9c9ed692376d5e29f120</title>
<g id="a_node4"><a xlink:href="dir_d2f407ca869a9c9ed692376d5e29f120.html" target="_top" xlink:title="Managers">
<polygon fill="white" stroke="red" points="231.5,-252 166.5,-252 166.5,-216 231.5,-216 231.5,-252"/>
<text text-anchor="middle" x="199" y="-231.5" font-family="Helvetica,sans-Serif" font-size="10.00">Managers</text>
</a>
</g>
</g>
<!-- dir_283ee20ab5eb9693b75f98890f2aae44&#45;&gt;dir_d2f407ca869a9c9ed692376d5e29f120 -->
<g id="edge13" class="edge">
<title>dir_283ee20ab5eb9693b75f98890f2aae44&#45;&gt;dir_d2f407ca869a9c9ed692376d5e29f120</title>
<path fill="none" stroke="black" d="M201.26,-287.7C200.93,-279.98 200.53,-270.71 200.16,-262.11"/>
<polygon fill="black" stroke="black" points="203.66,-261.95 199.73,-252.1 196.66,-262.25 203.66,-261.95"/>
<g id="a_edge13&#45;headlabel"><a xlink:href="dir_000004_000019.html" target="_top" xlink:title="20">
<text text-anchor="middle" x="206.65" y="-262.92" font-family="Helvetica,sans-Serif" font-size="10.00">20</text>
</a>
</g>
</g>
<!-- dir_8bac7462668d86a984d2ee5977e3cf6a -->
<g id="node8" class="node">
<title>dir_8bac7462668d86a984d2ee5977e3cf6a</title>
<g id="a_node8"><a xlink:href="dir_8bac7462668d86a984d2ee5977e3cf6a.html" target="_top" xlink:title="Lib">
<polygon fill="none" stroke="black" points="380,-36 326,-36 326,0 380,0 380,-36"/>
<text text-anchor="middle" x="353" y="-15.5" font-family="Helvetica,sans-Serif" font-size="10.00">Lib</text>
</a>
</g>
</g>
<!-- dir_283ee20ab5eb9693b75f98890f2aae44&#45;&gt;dir_8bac7462668d86a984d2ee5977e3cf6a -->
<g id="edge14" class="edge">
<title>dir_283ee20ab5eb9693b75f98890f2aae44&#45;&gt;dir_8bac7462668d86a984d2ee5977e3cf6a</title>
<path fill="none" stroke="black" d="M229.1,-298C275.76,-284.3 370,-249.1 409,-180 432.61,-138.17 424.74,-115.79 405,-72 400.08,-61.09 391.9,-51.13 383.46,-42.86"/>
<polygon fill="black" stroke="black" points="385.78,-40.24 376.05,-36.04 381.04,-45.39 385.78,-40.24"/>
<g id="a_edge14&#45;headlabel"><a xlink:href="dir_000004_000035.html" target="_top" xlink:title="14">
<text text-anchor="middle" x="390.35" y="-38.08" font-family="Helvetica,sans-Serif" font-size="10.00">14</text>
</a>
</g>
</g>
<!-- dir_e4bcde167f88f305238965282a0ab06e -->
<g id="node9" class="node">
<title>dir_e4bcde167f88f305238965282a0ab06e</title>
<g id="a_node9"><a xlink:href="dir_e4bcde167f88f305238965282a0ab06e.html" target="_top" xlink:title="Extdep">
<polygon fill="white" stroke="red" points="240,-108 186,-108 186,-72 240,-72 240,-108"/>
<text text-anchor="middle" x="213" y="-87.5" font-family="Helvetica,sans-Serif" font-size="10.00">Extdep</text>
</a>
</g>
</g>
<!-- dir_283ee20ab5eb9693b75f98890f2aae44&#45;&gt;dir_e4bcde167f88f305238965282a0ab06e -->
<g id="edge15" class="edge">
<title>dir_283ee20ab5eb9693b75f98890f2aae44&#45;&gt;dir_e4bcde167f88f305238965282a0ab06e</title>
<path fill="none" stroke="black" d="M217.74,-287.54C225.81,-277.73 235.14,-264.9 241,-252 254.56,-222.16 253.42,-212.58 257,-180 259.52,-157.03 266.76,-148.95 257,-128 254.74,-123.15 251.5,-118.71 247.78,-114.71"/>
<polygon fill="black" stroke="black" points="249.88,-111.88 240.19,-107.6 245.09,-116.99 249.88,-111.88"/>
<g id="a_edge15&#45;headlabel"><a xlink:href="dir_000004_000027.html" target="_top" xlink:title="23">
<text text-anchor="middle" x="254.44" y="-109.77" font-family="Helvetica,sans-Serif" font-size="10.00">23</text>
</a>
</g>
</g>
<!-- dir_68ffa5ca8ccfa6448bd0595e797999e4 -->
<g id="node6" class="node">
<title>dir_68ffa5ca8ccfa6448bd0595e797999e4</title>
<g id="a_node6"><a xlink:href="dir_68ffa5ca8ccfa6448bd0595e797999e4.html" target="_top" xlink:title="Appconf">
<polygon fill="none" stroke="black" points="148,-36 92,-36 92,0 148,0 148,-36"/>
<text text-anchor="middle" x="120" y="-15.5" font-family="Helvetica,sans-Serif" font-size="10.00">Appconf</text>
</a>
</g>
</g>
<!-- dir_2597320cd5a766e2ddfc672ddb4c534b&#45;&gt;dir_68ffa5ca8ccfa6448bd0595e797999e4 -->
<g id="edge1" class="edge">
<title>dir_2597320cd5a766e2ddfc672ddb4c534b&#45;&gt;dir_68ffa5ca8ccfa6448bd0595e797999e4</title>
<path fill="none" stroke="black" d="M127.04,-143.87C125.67,-119.67 123.17,-75.21 121.54,-46.39"/>
<polygon fill="black" stroke="black" points="125.03,-45.98 120.97,-36.19 118.04,-46.37 125.03,-45.98"/>
<g id="a_edge1&#45;headlabel"><a xlink:href="dir_000005_000026.html" target="_top" xlink:title="1">
<text text-anchor="middle" x="128.06" y="-46.91" font-family="Helvetica,sans-Serif" font-size="10.00">1</text>
</a>
</g>
</g>
<!-- dir_2597320cd5a766e2ddfc672ddb4c534b&#45;&gt;dir_8bac7462668d86a984d2ee5977e3cf6a -->
<g id="edge2" class="edge">
<title>dir_2597320cd5a766e2ddfc672ddb4c534b&#45;&gt;dir_8bac7462668d86a984d2ee5977e3cf6a</title>
<path fill="none" stroke="black" d="M132.98,-144C139.73,-123.92 153.68,-90.85 177,-72 217.26,-39.44 277.18,-26.87 315.67,-22.02"/>
<polygon fill="black" stroke="black" points="316.39,-25.46 325.93,-20.85 315.59,-18.51 316.39,-25.46"/>
<g id="a_edge2&#45;headlabel"><a xlink:href="dir_000005_000035.html" target="_top" xlink:title="2">
<text text-anchor="middle" x="313.14" y="-26.19" font-family="Helvetica,sans-Serif" font-size="10.00">2</text>
</a>
</g>
</g>
<!-- dir_2597320cd5a766e2ddfc672ddb4c534b&#45;&gt;dir_e4bcde167f88f305238965282a0ab06e -->
<g id="edge3" class="edge">
<title>dir_2597320cd5a766e2ddfc672ddb4c534b&#45;&gt;dir_e4bcde167f88f305238965282a0ab06e</title>
<path fill="none" stroke="black" d="M143.1,-143.7C152.89,-134.88 165.9,-124.03 178.08,-114.47"/>
<polygon fill="black" stroke="black" points="180.56,-116.98 186.34,-108.1 176.28,-111.44 180.56,-116.98"/>
<g id="a_edge3&#45;headlabel"><a xlink:href="dir_000005_000027.html" target="_top" xlink:title="8">
<text text-anchor="middle" x="179.45" y="-118.93" font-family="Helvetica,sans-Serif" font-size="10.00">8</text>
</a>
</g>
</g>
<!-- dir_70beccd1d8997d0174d02d630d77a447 -->
<g id="node3" class="node">
<title>dir_70beccd1d8997d0174d02d630d77a447</title>
<g id="a_node3"><a xlink:href="dir_70beccd1d8997d0174d02d630d77a447.html" target="_top" xlink:title="Libs">
<polygon fill="white" stroke="red" points="232,-180 178,-180 178,-144 232,-144 232,-180"/>
<text text-anchor="middle" x="205" y="-159.5" font-family="Helvetica,sans-Serif" font-size="10.00">Libs</text>
</a>
</g>
</g>
<!-- dir_70beccd1d8997d0174d02d630d77a447&#45;&gt;dir_e4bcde167f88f305238965282a0ab06e -->
<g id="edge4" class="edge">
<title>dir_70beccd1d8997d0174d02d630d77a447&#45;&gt;dir_e4bcde167f88f305238965282a0ab06e</title>
<path fill="none" stroke="black" d="M206.98,-143.7C207.86,-135.98 208.92,-126.71 209.9,-118.11"/>
<polygon fill="black" stroke="black" points="213.39,-118.44 211.05,-108.1 206.43,-117.64 213.39,-118.44"/>
<g id="a_edge4&#45;headlabel"><a xlink:href="dir_000012_000027.html" target="_top" xlink:title="3">
<text text-anchor="middle" x="215.8" y="-119.83" font-family="Helvetica,sans-Serif" font-size="10.00">3</text>
</a>
</g>
</g>
<!-- dir_d2f407ca869a9c9ed692376d5e29f120&#45;&gt;dir_2597320cd5a766e2ddfc672ddb4c534b -->
<g id="edge6" class="edge">
<title>dir_d2f407ca869a9c9ed692376d5e29f120&#45;&gt;dir_2597320cd5a766e2ddfc672ddb4c534b</title>
<path fill="none" stroke="black" d="M181.45,-215.7C172.77,-207.14 162.14,-196.66 152.65,-187.3"/>
<polygon fill="black" stroke="black" points="154.93,-184.63 145.35,-180.1 150.01,-189.62 154.93,-184.63"/>
<g id="a_edge6&#45;headlabel"><a xlink:href="dir_000019_000005.html" target="_top" xlink:title="1">
<text text-anchor="middle" x="159.48" y="-182.63" font-family="Helvetica,sans-Serif" font-size="10.00">1</text>
</a>
</g>
</g>
<!-- dir_d2f407ca869a9c9ed692376d5e29f120&#45;&gt;dir_70beccd1d8997d0174d02d630d77a447 -->
<g id="edge7" class="edge">
<title>dir_d2f407ca869a9c9ed692376d5e29f120&#45;&gt;dir_70beccd1d8997d0174d02d630d77a447</title>
<path fill="none" stroke="black" d="M200.48,-215.7C201.14,-207.98 201.94,-198.71 202.68,-190.11"/>
<polygon fill="black" stroke="black" points="206.17,-190.37 203.53,-180.1 199.19,-189.77 206.17,-190.37"/>
<g id="a_edge7&#45;headlabel"><a xlink:href="dir_000019_000012.html" target="_top" xlink:title="3">
<text text-anchor="middle" x="208.69" y="-191.69" font-family="Helvetica,sans-Serif" font-size="10.00">3</text>
</a>
</g>
</g>
<!-- dir_6bb50a2f0076c8f8a35f09a1613f8275 -->
<g id="node5" class="node">
<title>dir_6bb50a2f0076c8f8a35f09a1613f8275</title>
<g id="a_node5"><a xlink:href="dir_6bb50a2f0076c8f8a35f09a1613f8275.html" target="_top" xlink:title="Mcu">
<polygon fill="white" stroke="red" points="78,-180 24,-180 24,-144 78,-144 78,-180"/>
<text text-anchor="middle" x="51" y="-159.5" font-family="Helvetica,sans-Serif" font-size="10.00">Mcu</text>
</a>
</g>
</g>
<!-- dir_d2f407ca869a9c9ed692376d5e29f120&#45;&gt;dir_6bb50a2f0076c8f8a35f09a1613f8275 -->
<g id="edge10" class="edge">
<title>dir_d2f407ca869a9c9ed692376d5e29f120&#45;&gt;dir_6bb50a2f0076c8f8a35f09a1613f8275</title>
<path fill="none" stroke="black" d="M166.15,-217.46C142.85,-206.44 111.56,-191.64 87.48,-180.25"/>
<polygon fill="black" stroke="black" points="88.84,-177.02 78.3,-175.91 85.85,-183.35 88.84,-177.02"/>
<g id="a_edge10&#45;headlabel"><a xlink:href="dir_000019_000023.html" target="_top" xlink:title="5">
<text text-anchor="middle" x="93.3" y="-173.49" font-family="Helvetica,sans-Serif" font-size="10.00">5</text>
</a>
</g>
</g>
<!-- dir_d2f407ca869a9c9ed692376d5e29f120&#45;&gt;dir_68ffa5ca8ccfa6448bd0595e797999e4 -->
<g id="edge5" class="edge">
<title>dir_d2f407ca869a9c9ed692376d5e29f120&#45;&gt;dir_68ffa5ca8ccfa6448bd0595e797999e4</title>
<path fill="none" stroke="black" d="M166.32,-228.33C118.52,-220.76 33.19,-204.17 15,-180 -20.46,-132.88 43.07,-74.1 85.82,-42.2"/>
<polygon fill="black" stroke="black" points="88.04,-44.91 94.06,-36.19 83.92,-39.26 88.04,-44.91"/>
<g id="a_edge5&#45;headlabel"><a xlink:href="dir_000019_000026.html" target="_top" xlink:title="1">
<text text-anchor="middle" x="86.81" y="-46.83" font-family="Helvetica,sans-Serif" font-size="10.00">1</text>
</a>
</g>
</g>
<!-- dir_c25cf638d32e4911582a285b040105d2 -->
<g id="node7" class="node">
<title>dir_c25cf638d32e4911582a285b040105d2</title>
<g id="a_node7"><a xlink:href="dir_c25cf638d32e4911582a285b040105d2.html" target="_top" xlink:title="Lpm">
<polygon fill="white" stroke="red" points="380,-180 326,-180 326,-144 380,-144 380,-180"/>
<text text-anchor="middle" x="353" y="-159.5" font-family="Helvetica,sans-Serif" font-size="10.00">Lpm</text>
</a>
</g>
</g>
<!-- dir_d2f407ca869a9c9ed692376d5e29f120&#45;&gt;dir_c25cf638d32e4911582a285b040105d2 -->
<g id="edge8" class="edge">
<title>dir_d2f407ca869a9c9ed692376d5e29f120&#45;&gt;dir_c25cf638d32e4911582a285b040105d2</title>
<path fill="none" stroke="black" d="M231.66,-218.15C256.4,-206.91 290.4,-191.45 316.12,-179.76"/>
<polygon fill="black" stroke="black" points="317.88,-182.81 325.53,-175.48 314.98,-176.44 317.88,-182.81"/>
<g id="a_edge8&#45;headlabel"><a xlink:href="dir_000019_000036.html" target="_top" xlink:title="1">
<text text-anchor="middle" x="315.78" y="-184.38" font-family="Helvetica,sans-Serif" font-size="10.00">1</text>
</a>
</g>
</g>
<!-- dir_d2f407ca869a9c9ed692376d5e29f120&#45;&gt;dir_8bac7462668d86a984d2ee5977e3cf6a -->
<g id="edge9" class="edge">
<title>dir_d2f407ca869a9c9ed692376d5e29f120&#45;&gt;dir_8bac7462668d86a984d2ee5977e3cf6a</title>
<path fill="none" stroke="black" d="M231.51,-228.68C280.62,-221.41 370,-205.02 389,-180 419.45,-139.9 391.1,-78.95 370.35,-44.7"/>
<polygon fill="black" stroke="black" points="373.3,-42.81 365.02,-36.19 367.37,-46.52 373.3,-42.81"/>
<g id="a_edge9&#45;headlabel"><a xlink:href="dir_000019_000035.html" target="_top" xlink:title="10">
<text text-anchor="middle" x="377.61" y="-41.84" font-family="Helvetica,sans-Serif" font-size="10.00">10</text>
</a>
</g>
</g>
<!-- dir_d2f407ca869a9c9ed692376d5e29f120&#45;&gt;dir_e4bcde167f88f305238965282a0ab06e -->
<g id="edge11" class="edge">
<title>dir_d2f407ca869a9c9ed692376d5e29f120&#45;&gt;dir_e4bcde167f88f305238965282a0ab06e</title>
<path fill="none" stroke="black" d="M217.6,-215.76C226.53,-206.2 236.29,-193.53 241,-180 248.6,-158.17 248.36,-149.91 241,-128 239.64,-123.96 237.65,-120.01 235.35,-116.29"/>
<polygon fill="black" stroke="black" points="238.18,-114.23 229.55,-108.07 232.46,-118.26 238.18,-114.23"/>
<g id="a_edge11&#45;headlabel"><a xlink:href="dir_000019_000027.html" target="_top" xlink:title="9">
<text text-anchor="middle" x="242.57" y="-113.03" font-family="Helvetica,sans-Serif" font-size="10.00">9</text>
</a>
</g>
</g>
<!-- dir_6bb50a2f0076c8f8a35f09a1613f8275&#45;&gt;dir_68ffa5ca8ccfa6448bd0595e797999e4 -->
<g id="edge20" class="edge">
<title>dir_6bb50a2f0076c8f8a35f09a1613f8275&#45;&gt;dir_68ffa5ca8ccfa6448bd0595e797999e4</title>
<path fill="none" stroke="black" d="M59.32,-143.87C71.24,-119.35 93.26,-74.03 107.24,-45.26"/>
<polygon fill="black" stroke="black" points="110.42,-46.71 111.65,-36.19 104.13,-43.65 110.42,-46.71"/>
<g id="a_edge20&#45;headlabel"><a xlink:href="dir_000023_000026.html" target="_top" xlink:title="1">
<text text-anchor="middle" x="111.41" y="-48.69" font-family="Helvetica,sans-Serif" font-size="10.00">1</text>
</a>
</g>
</g>
<!-- dir_6bb50a2f0076c8f8a35f09a1613f8275&#45;&gt;dir_e4bcde167f88f305238965282a0ab06e -->
<g id="edge21" class="edge">
<title>dir_6bb50a2f0076c8f8a35f09a1613f8275&#45;&gt;dir_e4bcde167f88f305238965282a0ab06e</title>
<path fill="none" stroke="black" d="M67.1,-143.84C73.19,-138.14 80.48,-132.19 88,-128 115.46,-112.71 149.91,-103.12 175.69,-97.55"/>
<polygon fill="black" stroke="black" points="176.71,-100.91 185.81,-95.47 175.31,-94.05 176.71,-100.91"/>
<g id="a_edge21&#45;headlabel"><a xlink:href="dir_000023_000027.html" target="_top" xlink:title="1">
<text text-anchor="middle" x="173.77" y="-101.91" font-family="Helvetica,sans-Serif" font-size="10.00">1</text>
</a>
</g>
</g>
<!-- dir_c25cf638d32e4911582a285b040105d2&#45;&gt;dir_2597320cd5a766e2ddfc672ddb4c534b -->
<g id="edge17" class="edge">
<title>dir_c25cf638d32e4911582a285b040105d2&#45;&gt;dir_2597320cd5a766e2ddfc672ddb4c534b</title>
<path fill="none" stroke="black" d="M333.69,-180.25C325,-187.23 314.2,-194.39 303,-198 250.13,-215.05 230.87,-215.05 178,-198 170.13,-195.46 162.45,-191.17 155.56,-186.42"/>
<polygon fill="black" stroke="black" points="157.42,-183.43 147.31,-180.25 153.22,-189.04 157.42,-183.43"/>
<g id="a_edge17&#45;headlabel"><a xlink:href="dir_000036_000005.html" target="_top" xlink:title="1">
<text text-anchor="middle" x="162" y="-180.81" font-family="Helvetica,sans-Serif" font-size="10.00">1</text>
</a>
</g>
</g>
<!-- dir_c25cf638d32e4911582a285b040105d2&#45;&gt;dir_68ffa5ca8ccfa6448bd0595e797999e4 -->
<g id="edge16" class="edge">
<title>dir_c25cf638d32e4911582a285b040105d2&#45;&gt;dir_68ffa5ca8ccfa6448bd0595e797999e4</title>
<path fill="none" stroke="black" d="M336.31,-143.72C316.8,-124.27 282.86,-92.7 249,-72 220.15,-54.36 184.39,-40.19 157.84,-30.96"/>
<polygon fill="black" stroke="black" points="158.74,-27.57 148.15,-27.67 156.49,-34.2 158.74,-27.57"/>
<g id="a_edge16&#45;headlabel"><a xlink:href="dir_000036_000026.html" target="_top" xlink:title="1">
<text text-anchor="middle" x="163.06" y="-23.54" font-family="Helvetica,sans-Serif" font-size="10.00">1</text>
</a>
</g>
</g>
<!-- dir_c25cf638d32e4911582a285b040105d2&#45;&gt;dir_8bac7462668d86a984d2ee5977e3cf6a -->
<g id="edge18" class="edge">
<title>dir_c25cf638d32e4911582a285b040105d2&#45;&gt;dir_8bac7462668d86a984d2ee5977e3cf6a</title>
<path fill="none" stroke="black" d="M353,-143.87C353,-119.67 353,-75.21 353,-46.39"/>
<polygon fill="black" stroke="black" points="356.5,-46.19 353,-36.19 349.5,-46.19 356.5,-46.19"/>
<g id="a_edge18&#45;headlabel"><a xlink:href="dir_000036_000035.html" target="_top" xlink:title="2">
<text text-anchor="middle" x="359.34" y="-47.28" font-family="Helvetica,sans-Serif" font-size="10.00">2</text>
</a>
</g>
</g>
<!-- dir_c25cf638d32e4911582a285b040105d2&#45;&gt;dir_e4bcde167f88f305238965282a0ab06e -->
<g id="edge19" class="edge">
<title>dir_c25cf638d32e4911582a285b040105d2&#45;&gt;dir_e4bcde167f88f305238965282a0ab06e</title>
<path fill="none" stroke="black" d="M334.32,-143.87C327.61,-138.31 319.78,-132.43 312,-128 292.45,-116.87 268.91,-107.91 249.69,-101.6"/>
<polygon fill="black" stroke="black" points="250.67,-98.24 240.08,-98.54 248.55,-104.91 250.67,-98.24"/>
<g id="a_edge19&#45;headlabel"><a xlink:href="dir_000036_000027.html" target="_top" xlink:title="2">
<text text-anchor="middle" x="254.96" y="-94.12" font-family="Helvetica,sans-Serif" font-size="10.00">2</text>
</a>
</g>
</g>
<!-- dir_e4bcde167f88f305238965282a0ab06e&#45;&gt;dir_2597320cd5a766e2ddfc672ddb4c534b -->
<g id="edge23" class="edge">
<title>dir_e4bcde167f88f305238965282a0ab06e&#45;&gt;dir_2597320cd5a766e2ddfc672ddb4c534b</title>
<path fill="none" stroke="black" d="M198.13,-108.1C188.38,-116.89 175.39,-127.73 163.19,-137.31"/>
<polygon fill="black" stroke="black" points="160.7,-134.81 154.93,-143.7 164.98,-140.35 160.7,-134.81"/>
<g id="a_edge23&#45;headlabel"><a xlink:href="dir_000027_000005.html" target="_top" xlink:title="1">
<text text-anchor="middle" x="161.81" y="-127.87" font-family="Helvetica,sans-Serif" font-size="10.00">1</text>
</a>
</g>
</g>
<!-- dir_e4bcde167f88f305238965282a0ab06e&#45;&gt;dir_68ffa5ca8ccfa6448bd0595e797999e4 -->
<g id="edge22" class="edge">
<title>dir_e4bcde167f88f305238965282a0ab06e&#45;&gt;dir_68ffa5ca8ccfa6448bd0595e797999e4</title>
<path fill="none" stroke="black" d="M190.01,-71.7C178.19,-62.8 163.61,-51.82 150.82,-42.2"/>
<polygon fill="black" stroke="black" points="152.82,-39.32 142.72,-36.1 148.61,-44.91 152.82,-39.32"/>
<g id="a_edge22&#45;headlabel"><a xlink:href="dir_000027_000026.html" target="_top" xlink:title="3">
<text text-anchor="middle" x="157.4" y="-36.71" font-family="Helvetica,sans-Serif" font-size="10.00">3</text>
</a>
</g>
</g>
<!-- dir_e4bcde167f88f305238965282a0ab06e&#45;&gt;dir_8bac7462668d86a984d2ee5977e3cf6a -->
<g id="edge24" class="edge">
<title>dir_e4bcde167f88f305238965282a0ab06e&#45;&gt;dir_8bac7462668d86a984d2ee5977e3cf6a</title>
<path fill="none" stroke="black" d="M240.33,-75.34C262.1,-64.45 292.79,-49.1 316.64,-37.18"/>
<polygon fill="black" stroke="black" points="318.36,-40.23 325.74,-32.63 315.23,-33.97 318.36,-40.23"/>
<g id="a_edge24&#45;headlabel"><a xlink:href="dir_000027_000035.html" target="_top" xlink:title="7">
<text text-anchor="middle" x="316.42" y="-41.88" font-family="Helvetica,sans-Serif" font-size="10.00">7</text>
</a>
</g>
</g>
</g>
</svg>
