<?xml version="1.0" encoding="UTF-8" standalone="no"?>
<!DOCTYPE svg PUBLIC "-//W3C//DTD SVG 1.1//EN"
 "http://www.w3.org/Graphics/SVG/1.1/DTD/svg11.dtd">
<!-- Generated by graphviz version 2.43.0 (0)
 -->
<!-- Title: Kineis/Lpm Pages: 1 -->
<svg width="290pt" height="249pt"
 viewBox="0.00 0.00 289.70 249.48" xmlns="http://www.w3.org/2000/svg" xmlns:xlink="http://www.w3.org/1999/xlink">
<g id="graph0" class="graph" transform="scale(1 1) rotate(0) translate(4 245.48)">
<title>Kineis/Lpm</title>
<polygon fill="white" stroke="transparent" points="-4,4 -4,-245.48 285.7,-245.48 285.7,4 -4,4"/>
<g id="clust1" class="cluster">
<title>clusterdir_e477e9e432f6cdbbe234eeb906f13059</title>
<g id="a_clust1"><a xlink:href="dir_e477e9e432f6cdbbe234eeb906f13059.html" target="_top" xlink:title="Kineis">
<polygon fill="#ddddee" stroke="black" points="8,-56 8,-215 166,-215 166,-56 8,-56"/>
<text text-anchor="middle" x="87" y="-203" font-family="Helvetica,sans-Serif" font-size="10.00">Kineis</text>
</a>
</g>
</g>
<g id="clust2" class="cluster">
<title>clusterdir_c25cf638d32e4911582a285b040105d2</title>
<g id="a_clust2"><a xlink:href="dir_c25cf638d32e4911582a285b040105d2.html" target="_top">
<polygon fill="#eeeeff" stroke="black" points="16,-64 16,-188 158,-188 158,-64 16,-64"/>
</a>
</g>
</g>
<!-- dir_c25cf638d32e4911582a285b040105d2 -->
<g id="node1" class="node">
<title>dir_c25cf638d32e4911582a285b040105d2</title>
<text text-anchor="middle" x="123" y="-159.5" font-family="Helvetica,sans-Serif" font-size="10.00">Lpm</text>
</g>
<!-- dir_111df0aac43951f8ac9c8f860048303a -->
<g id="node2" class="node">
<title>dir_111df0aac43951f8ac9c8f860048303a</title>
<g id="a_node2"><a xlink:href="dir_111df0aac43951f8ac9c8f860048303a.html" target="_top" xlink:title="Inc">
<polygon fill="white" stroke="black" points="118,-108 64,-108 64,-72 118,-72 118,-108"/>
<text text-anchor="middle" x="91" y="-87.5" font-family="Helvetica,sans-Serif" font-size="10.00">Inc</text>
</a>
</g>
</g>
<!-- dir_8bac7462668d86a984d2ee5977e3cf6a -->
<g id="node6" class="node">
<title>dir_8bac7462668d86a984d2ee5977e3cf6a</title>
<g id="a_node6"><a xlink:href="dir_8bac7462668d86a984d2ee5977e3cf6a.html" target="_top" xlink:title="Lib">
<polygon fill="none" stroke="black" points="156,-36 102,-36 102,0 156,0 156,-36"/>
<text text-anchor="middle" x="129" y="-15.5" font-family="Helvetica,sans-Serif" font-size="10.00">Lib</text>
</a>
</g>
</g>
<!-- dir_111df0aac43951f8ac9c8f860048303a&#45;&gt;dir_8bac7462668d86a984d2ee5977e3cf6a -->
<g id="edge5" class="edge">
<title>dir_111df0aac43951f8ac9c8f860048303a&#45;&gt;dir_8bac7462668d86a984d2ee5977e3cf6a</title>
<path fill="none" stroke="black" d="M100.39,-71.7C104.76,-63.64 110.06,-53.89 114.9,-44.98"/>
<polygon fill="black" stroke="black" points="118.02,-46.56 119.71,-36.1 111.87,-43.22 118.02,-46.56"/>
<g id="a_edge5&#45;headlabel"><a xlink:href="dir_000037_000035.html" target="_top" xlink:title="1">
<text text-anchor="middle" x="118.8" y="-48.58" font-family="Helvetica,sans-Serif" font-size="10.00">1</text>
</a>
</g>
</g>
<!-- dir_ca4490193a0a04522896524a4730dc1d -->
<g id="node3" class="node">
<title>dir_ca4490193a0a04522896524a4730dc1d</title>
<g id="a_node3"><a xlink:href="dir_ca4490193a0a04522896524a4730dc1d.html" target="_top" xlink:title="Src">
<polygon fill="white" stroke="black" points="78,-180 24,-180 24,-144 78,-144 78,-180"/>
<text text-anchor="middle" x="51" y="-159.5" font-family="Helvetica,sans-Serif" font-size="10.00">Src</text>
</a>
</g>
</g>
<!-- dir_ca4490193a0a04522896524a4730dc1d&#45;&gt;dir_111df0aac43951f8ac9c8f860048303a -->
<g id="edge9" class="edge">
<title>dir_ca4490193a0a04522896524a4730dc1d&#45;&gt;dir_111df0aac43951f8ac9c8f860048303a</title>
<path fill="none" stroke="black" d="M60.89,-143.7C65.49,-135.64 71.06,-125.89 76.15,-116.98"/>
<polygon fill="black" stroke="black" points="79.3,-118.52 81.23,-108.1 73.23,-115.05 79.3,-118.52"/>
<g id="a_edge9&#45;headlabel"><a xlink:href="dir_000038_000037.html" target="_top" xlink:title="6">
<text text-anchor="middle" x="79.99" y="-120.55" font-family="Helvetica,sans-Serif" font-size="10.00">6</text>
</a>
</g>
</g>
<!-- dir_68ffa5ca8ccfa6448bd0595e797999e4 -->
<g id="node4" class="node">
<title>dir_68ffa5ca8ccfa6448bd0595e797999e4</title>
<g id="a_node4"><a xlink:href="dir_68ffa5ca8ccfa6448bd0595e797999e4.html" target="_top" xlink:title="Appconf">
<polygon fill="none" stroke="black" points="267,-36 211,-36 211,0 267,0 267,-36"/>
<text text-anchor="middle" x="239" y="-15.5" font-family="Helvetica,sans-Serif" font-size="10.00">Appconf</text>
</a>
</g>
</g>
<!-- dir_ca4490193a0a04522896524a4730dc1d&#45;&gt;dir_68ffa5ca8ccfa6448bd0595e797999e4 -->
<g id="edge6" class="edge">
<title>dir_ca4490193a0a04522896524a4730dc1d&#45;&gt;dir_68ffa5ca8ccfa6448bd0595e797999e4</title>
<path fill="none" stroke="black" d="M76.27,-143.96C91.19,-133.76 110.36,-120.4 127,-108 155.92,-86.46 188.05,-60.73 210.46,-42.49"/>
<polygon fill="black" stroke="black" points="212.72,-45.16 218.25,-36.13 208.29,-39.74 212.72,-45.16"/>
<g id="a_edge6&#45;headlabel"><a xlink:href="dir_000038_000026.html" target="_top" xlink:title="1">
<text text-anchor="middle" x="211.73" y="-47.14" font-family="Helvetica,sans-Serif" font-size="10.00">1</text>
</a>
</g>
</g>
<!-- dir_283ee20ab5eb9693b75f98890f2aae44 -->
<g id="node5" class="node">
<title>dir_283ee20ab5eb9693b75f98890f2aae44</title>
<g id="a_node5"><a xlink:href="dir_283ee20ab5eb9693b75f98890f2aae44.html" target="_top" xlink:title="App">
<polygon fill="white" stroke="red" points="247,-180 193,-180 193,-144 247,-144 247,-180"/>
<text text-anchor="middle" x="220" y="-159.5" font-family="Helvetica,sans-Serif" font-size="10.00">App</text>
</a>
</g>
</g>
<!-- dir_ca4490193a0a04522896524a4730dc1d&#45;&gt;dir_283ee20ab5eb9693b75f98890f2aae44 -->
<g id="edge7" class="edge">
<title>dir_ca4490193a0a04522896524a4730dc1d&#45;&gt;dir_283ee20ab5eb9693b75f98890f2aae44</title>
<path fill="none" stroke="black" d="M56.73,-180.04C63.23,-197.14 75.67,-221.82 96,-233 118.2,-245.21 129.74,-243.03 153,-233 173.88,-224 191.27,-204.93 203.1,-188.82"/>
<polygon fill="black" stroke="black" points="206.23,-190.46 209.09,-180.26 200.49,-186.45 206.23,-190.46"/>
<g id="a_edge7&#45;headlabel"><a xlink:href="dir_000038_000004.html" target="_top" xlink:title="1">
<text text-anchor="middle" x="206.5" y="-192.53" font-family="Helvetica,sans-Serif" font-size="10.00">1</text>
</a>
</g>
</g>
<!-- dir_ca4490193a0a04522896524a4730dc1d&#45;&gt;dir_8bac7462668d86a984d2ee5977e3cf6a -->
<g id="edge8" class="edge">
<title>dir_ca4490193a0a04522896524a4730dc1d&#45;&gt;dir_8bac7462668d86a984d2ee5977e3cf6a</title>
<path fill="none" stroke="black" d="M46.67,-143.79C42.13,-121.6 37.8,-82.68 55,-56 63.47,-42.86 78.12,-34.2 92.17,-28.59"/>
<polygon fill="black" stroke="black" points="93.47,-31.84 101.71,-25.18 91.11,-25.25 93.47,-31.84"/>
<g id="a_edge8&#45;headlabel"><a xlink:href="dir_000038_000035.html" target="_top" xlink:title="1">
<text text-anchor="middle" x="91.04" y="-33.23" font-family="Helvetica,sans-Serif" font-size="10.00">1</text>
</a>
</g>
</g>
<!-- dir_e4bcde167f88f305238965282a0ab06e -->
<g id="node7" class="node">
<title>dir_e4bcde167f88f305238965282a0ab06e</title>
<g id="a_node7"><a xlink:href="dir_e4bcde167f88f305238965282a0ab06e.html" target="_top" xlink:title="Extdep">
<polygon fill="white" stroke="red" points="266,-108 212,-108 212,-72 266,-72 266,-108"/>
<text text-anchor="middle" x="239" y="-87.5" font-family="Helvetica,sans-Serif" font-size="10.00">Extdep</text>
</a>
</g>
</g>
<!-- dir_ca4490193a0a04522896524a4730dc1d&#45;&gt;dir_e4bcde167f88f305238965282a0ab06e -->
<g id="edge10" class="edge">
<title>dir_ca4490193a0a04522896524a4730dc1d&#45;&gt;dir_e4bcde167f88f305238965282a0ab06e</title>
<path fill="none" stroke="black" d="M78.38,-147.7C81.27,-146.41 84.19,-145.15 87,-144 125.74,-128.15 171.19,-112.7 202.23,-102.61"/>
<polygon fill="black" stroke="black" points="203.33,-105.94 211.77,-99.53 201.18,-99.27 203.33,-105.94"/>
<g id="a_edge10&#45;headlabel"><a xlink:href="dir_000038_000027.html" target="_top" xlink:title="2">
<text text-anchor="middle" x="200.78" y="-107.24" font-family="Helvetica,sans-Serif" font-size="10.00">2</text>
</a>
</g>
</g>
<!-- dir_283ee20ab5eb9693b75f98890f2aae44&#45;&gt;dir_111df0aac43951f8ac9c8f860048303a -->
<g id="edge3" class="edge">
<title>dir_283ee20ab5eb9693b75f98890f2aae44&#45;&gt;dir_111df0aac43951f8ac9c8f860048303a</title>
<path fill="none" stroke="black" d="M192.96,-146.33C173.78,-135.92 147.84,-121.84 126.92,-110.49"/>
<polygon fill="black" stroke="black" points="128.47,-107.35 118.01,-105.65 125.13,-113.5 128.47,-107.35"/>
<g id="a_edge3&#45;headlabel"><a xlink:href="dir_000004_000037.html" target="_top" xlink:title="1">
<text text-anchor="middle" x="132.98" y="-104.07" font-family="Helvetica,sans-Serif" font-size="10.00">1</text>
</a>
</g>
</g>
<!-- dir_283ee20ab5eb9693b75f98890f2aae44&#45;&gt;dir_68ffa5ca8ccfa6448bd0595e797999e4 -->
<g id="edge1" class="edge">
<title>dir_283ee20ab5eb9693b75f98890f2aae44&#45;&gt;dir_68ffa5ca8ccfa6448bd0595e797999e4</title>
<path fill="none" stroke="black" d="M245.38,-143.95C256.71,-134.79 268.88,-122.4 275,-108 284.04,-86.73 283.7,-77.41 275,-56 273.24,-51.68 270.72,-47.59 267.8,-43.81"/>
<polygon fill="black" stroke="black" points="270.2,-41.24 260.95,-36.07 264.96,-45.88 270.2,-41.24"/>
<g id="a_edge1&#45;headlabel"><a xlink:href="dir_000004_000026.html" target="_top" xlink:title="3">
<text text-anchor="middle" x="274.71" y="-39.55" font-family="Helvetica,sans-Serif" font-size="10.00">3</text>
</a>
</g>
</g>
<!-- dir_283ee20ab5eb9693b75f98890f2aae44&#45;&gt;dir_8bac7462668d86a984d2ee5977e3cf6a -->
<g id="edge2" class="edge">
<title>dir_283ee20ab5eb9693b75f98890f2aae44&#45;&gt;dir_8bac7462668d86a984d2ee5977e3cf6a</title>
<path fill="none" stroke="black" d="M212.05,-143.94C201.77,-122.58 182.71,-85.23 162,-56 159.1,-51.91 155.82,-47.77 152.47,-43.81"/>
<polygon fill="black" stroke="black" points="154.85,-41.22 145.62,-36.02 149.59,-45.84 154.85,-41.22"/>
<g id="a_edge2&#45;headlabel"><a xlink:href="dir_000004_000035.html" target="_top" xlink:title="15">
<text text-anchor="middle" x="159.36" y="-39.54" font-family="Helvetica,sans-Serif" font-size="10.00">15</text>
</a>
</g>
</g>
<!-- dir_283ee20ab5eb9693b75f98890f2aae44&#45;&gt;dir_e4bcde167f88f305238965282a0ab06e -->
<g id="edge4" class="edge">
<title>dir_283ee20ab5eb9693b75f98890f2aae44&#45;&gt;dir_e4bcde167f88f305238965282a0ab06e</title>
<path fill="none" stroke="black" d="M218.78,-143.7C220.09,-135.9 222.42,-126.51 225.13,-117.83"/>
<polygon fill="black" stroke="black" points="228.54,-118.7 228.46,-108.1 221.91,-116.43 228.54,-118.7"/>
<g id="a_edge4&#45;headlabel"><a xlink:href="dir_000004_000027.html" target="_top" xlink:title="25">
<text text-anchor="middle" x="230.06" y="-120.52" font-family="Helvetica,sans-Serif" font-size="10.00">25</text>
</a>
</g>
</g>
<!-- dir_e4bcde167f88f305238965282a0ab06e&#45;&gt;dir_68ffa5ca8ccfa6448bd0595e797999e4 -->
<g id="edge11" class="edge">
<title>dir_e4bcde167f88f305238965282a0ab06e&#45;&gt;dir_68ffa5ca8ccfa6448bd0595e797999e4</title>
<path fill="none" stroke="black" d="M239,-71.7C239,-63.98 239,-54.71 239,-46.11"/>
<polygon fill="black" stroke="black" points="242.5,-46.1 239,-36.1 235.5,-46.1 242.5,-46.1"/>
<g id="a_edge11&#45;headlabel"><a xlink:href="dir_000027_000026.html" target="_top" xlink:title="3">
<text text-anchor="middle" x="245.34" y="-47.2" font-family="Helvetica,sans-Serif" font-size="10.00">3</text>
</a>
</g>
</g>
<!-- dir_e4bcde167f88f305238965282a0ab06e&#45;&gt;dir_283ee20ab5eb9693b75f98890f2aae44 -->
<g id="edge12" class="edge">
<title>dir_e4bcde167f88f305238965282a0ab06e&#45;&gt;dir_283ee20ab5eb9693b75f98890f2aae44</title>
<path fill="none" stroke="black" d="M240.25,-108.1C238.94,-115.96 236.59,-125.46 233.85,-134.23"/>
<polygon fill="black" stroke="black" points="230.53,-133.1 230.61,-143.7 237.16,-135.37 230.53,-133.1"/>
<g id="a_edge12&#45;headlabel"><a xlink:href="dir_000027_000004.html" target="_top" xlink:title="1">
<text text-anchor="middle" x="229.01" y="-126.28" font-family="Helvetica,sans-Serif" font-size="10.00">1</text>
</a>
</g>
</g>
<!-- dir_e4bcde167f88f305238965282a0ab06e&#45;&gt;dir_8bac7462668d86a984d2ee5977e3cf6a -->
<g id="edge13" class="edge">
<title>dir_e4bcde167f88f305238965282a0ab06e&#45;&gt;dir_8bac7462668d86a984d2ee5977e3cf6a</title>
<path fill="none" stroke="black" d="M219.13,-71.78C212.59,-66.45 205.16,-60.74 198,-56 187.74,-49.21 176.12,-42.59 165.37,-36.88"/>
<polygon fill="black" stroke="black" points="166.7,-33.63 156.21,-32.11 163.46,-39.83 166.7,-33.63"/>
<g id="a_edge13&#45;headlabel"><a xlink:href="dir_000027_000035.html" target="_top" xlink:title="7">
<text text-anchor="middle" x="171.19" y="-30.27" font-family="Helvetica,sans-Serif" font-size="10.00">7</text>
</a>
</g>
</g>
</g>
</svg>
