<?xml version="1.0" encoding="UTF-8" standalone="no"?>
<!DOCTYPE svg PUBLIC "-//W3C//DTD SVG 1.1//EN"
 "http://www.w3.org/Graphics/SVG/1.1/DTD/svg11.dtd">
<!-- Generated by graphviz version 2.43.0 (0)
 -->
<!-- Title: Kineis/Extdep/MGR_LOG/Src Pages: 1 -->
<svg width="136pt" height="151pt"
 viewBox="0.00 0.00 136.00 151.00" xmlns="http://www.w3.org/2000/svg" xmlns:xlink="http://www.w3.org/1999/xlink">
<g id="graph0" class="graph" transform="scale(1 1) rotate(0) translate(4 147)">
<title>Kineis/Extdep/MGR_LOG/Src</title>
<polygon fill="white" stroke="transparent" points="-4,4 -4,-147 132,-147 132,4 -4,4"/>
<g id="clust1" class="cluster">
<title>clusterdir_603c3abc85dcd5ce81fff229f71c4fb7</title>
<g id="a_clust1"><a xlink:href="dir_603c3abc85dcd5ce81fff229f71c4fb7.html" target="_top" xlink:title="MGR_LOG">
<polygon fill="#ddddee" stroke="black" points="29,-64 29,-135 99,-135 99,-64 29,-64"/>
<text text-anchor="middle" x="64" y="-123" font-family="Helvetica,sans-Serif" font-size="10.00">MGR_LOG</text>
</a>
</g>
</g>
<!-- dir_b6260dc7bec6ab88b90e637459a986f2 -->
<g id="node1" class="node">
<title>dir_b6260dc7bec6ab88b90e637459a986f2</title>
<g id="a_node1"><a xlink:href="dir_b6260dc7bec6ab88b90e637459a986f2.html" target="_top" xlink:title="Src">
<polygon fill="#eeeeff" stroke="black" points="91,-108 37,-108 37,-72 91,-72 91,-108"/>
<text text-anchor="middle" x="64" y="-87.5" font-family="Helvetica,sans-Serif" font-size="10.00">Src</text>
</a>
</g>
</g>
<!-- dir_68ffa5ca8ccfa6448bd0595e797999e4 -->
<g id="node2" class="node">
<title>dir_68ffa5ca8ccfa6448bd0595e797999e4</title>
<g id="a_node2"><a xlink:href="dir_68ffa5ca8ccfa6448bd0595e797999e4.html" target="_top" xlink:title="Appconf">
<polygon fill="none" stroke="black" points="56,-36 0,-36 0,0 56,0 56,-36"/>
<text text-anchor="middle" x="28" y="-15.5" font-family="Helvetica,sans-Serif" font-size="10.00">Appconf</text>
</a>
</g>
</g>
<!-- dir_b6260dc7bec6ab88b90e637459a986f2&#45;&gt;dir_68ffa5ca8ccfa6448bd0595e797999e4 -->
<g id="edge1" class="edge">
<title>dir_b6260dc7bec6ab88b90e637459a986f2&#45;&gt;dir_68ffa5ca8ccfa6448bd0595e797999e4</title>
<path fill="none" stroke="black" d="M55.1,-71.7C51,-63.73 46.05,-54.1 41.51,-45.26"/>
<polygon fill="black" stroke="black" points="44.48,-43.4 36.8,-36.1 38.26,-46.6 44.48,-43.4"/>
<g id="a_edge1&#45;headlabel"><a xlink:href="dir_000034_000026.html" target="_top" xlink:title="2">
<text text-anchor="middle" x="48.65" y="-42.79" font-family="Helvetica,sans-Serif" font-size="10.00">2</text>
</a>
</g>
</g>
<!-- dir_a674acbb93d18f32f9e6583072a572b8 -->
<g id="node3" class="node">
<title>dir_a674acbb93d18f32f9e6583072a572b8</title>
<g id="a_node3"><a xlink:href="dir_a674acbb93d18f32f9e6583072a572b8.html" target="_top" xlink:title="Inc">
<polygon fill="none" stroke="black" points="128,-36 74,-36 74,0 128,0 128,-36"/>
<text text-anchor="middle" x="101" y="-15.5" font-family="Helvetica,sans-Serif" font-size="10.00">Inc</text>
</a>
</g>
</g>
<!-- dir_b6260dc7bec6ab88b90e637459a986f2&#45;&gt;dir_a674acbb93d18f32f9e6583072a572b8 -->
<g id="edge2" class="edge">
<title>dir_b6260dc7bec6ab88b90e637459a986f2&#45;&gt;dir_a674acbb93d18f32f9e6583072a572b8</title>
<path fill="none" stroke="black" d="M73.15,-71.7C77.4,-63.64 82.56,-53.89 87.27,-44.98"/>
<polygon fill="black" stroke="black" points="90.38,-46.58 91.96,-36.1 84.19,-43.31 90.38,-46.58"/>
<g id="a_edge2&#45;headlabel"><a xlink:href="dir_000034_000033.html" target="_top" xlink:title="3">
<text text-anchor="middle" x="91.21" y="-48.59" font-family="Helvetica,sans-Serif" font-size="10.00">3</text>
</a>
</g>
</g>
</g>
</svg>
