<?xml version="1.0" encoding="UTF-8" standalone="no"?>
<!DOCTYPE svg PUBLIC "-//W3C//DTD SVG 1.1//EN"
 "http://www.w3.org/Graphics/SVG/1.1/DTD/svg11.dtd">
<!-- Generated by graphviz version 2.43.0 (0)
 -->
<!-- Title: Kineis/App/Managers/MGR_AT_CMD/Inc Pages: 1 -->
<svg width="141pt" height="295pt"
 viewBox="0.00 0.00 141.00 295.00" xmlns="http://www.w3.org/2000/svg" xmlns:xlink="http://www.w3.org/1999/xlink">
<g id="graph0" class="graph" transform="scale(1 1) rotate(0) translate(4 291)">
<title>Kineis/App/Managers/MGR_AT_CMD/Inc</title>
<polygon fill="white" stroke="transparent" points="-4,4 -4,-291 137,-291 137,4 -4,4"/>
<g id="clust1" class="cluster">
<title>clusterdir_60ee360fddee19ef14c06d7eba7d5fba</title>
<g id="a_clust1"><a xlink:href="dir_60ee360fddee19ef14c06d7eba7d5fba.html" target="_top" xlink:title="MGR_AT_CMD">
<polygon fill="#ddddee" stroke="black" points="39,-208 39,-279 125,-279 125,-208 39,-208"/>
<text text-anchor="middle" x="82" y="-267" font-family="Helvetica,sans-Serif" font-size="10.00">MGR_AT_CMD</text>
</a>
</g>
</g>
<!-- dir_7429a52da4efb9f4e51ba2fcc7c0b4e8 -->
<g id="node1" class="node">
<title>dir_7429a52da4efb9f4e51ba2fcc7c0b4e8</title>
<g id="a_node1"><a xlink:href="dir_7429a52da4efb9f4e51ba2fcc7c0b4e8.html" target="_top" xlink:title="Inc">
<polygon fill="#eeeeff" stroke="black" points="109,-252 55,-252 55,-216 109,-216 109,-252"/>
<text text-anchor="middle" x="82" y="-231.5" font-family="Helvetica,sans-Serif" font-size="10.00">Inc</text>
</a>
</g>
</g>
<!-- dir_70beccd1d8997d0174d02d630d77a447 -->
<g id="node2" class="node">
<title>dir_70beccd1d8997d0174d02d630d77a447</title>
<g id="a_node2"><a xlink:href="dir_70beccd1d8997d0174d02d630d77a447.html" target="_top" xlink:title="Libs">
<polygon fill="white" stroke="red" points="54,-180 0,-180 0,-144 54,-144 54,-180"/>
<text text-anchor="middle" x="27" y="-159.5" font-family="Helvetica,sans-Serif" font-size="10.00">Libs</text>
</a>
</g>
</g>
<!-- dir_7429a52da4efb9f4e51ba2fcc7c0b4e8&#45;&gt;dir_70beccd1d8997d0174d02d630d77a447 -->
<g id="edge2" class="edge">
<title>dir_7429a52da4efb9f4e51ba2fcc7c0b4e8&#45;&gt;dir_70beccd1d8997d0174d02d630d77a447</title>
<path fill="none" stroke="black" d="M68.4,-215.7C61.88,-207.39 53.93,-197.28 46.75,-188.14"/>
<polygon fill="black" stroke="black" points="49.37,-185.81 40.44,-180.1 43.87,-190.13 49.37,-185.81"/>
<g id="a_edge2&#45;headlabel"><a xlink:href="dir_000021_000012.html" target="_top" xlink:title="1">
<text text-anchor="middle" x="53.82" y="-184.38" font-family="Helvetica,sans-Serif" font-size="10.00">1</text>
</a>
</g>
</g>
<!-- dir_8bac7462668d86a984d2ee5977e3cf6a -->
<g id="node3" class="node">
<title>dir_8bac7462668d86a984d2ee5977e3cf6a</title>
<g id="a_node3"><a xlink:href="dir_8bac7462668d86a984d2ee5977e3cf6a.html" target="_top" xlink:title="Lib">
<polygon fill="none" stroke="black" points="119,-36 65,-36 65,0 119,0 119,-36"/>
<text text-anchor="middle" x="92" y="-15.5" font-family="Helvetica,sans-Serif" font-size="10.00">Lib</text>
</a>
</g>
</g>
<!-- dir_7429a52da4efb9f4e51ba2fcc7c0b4e8&#45;&gt;dir_8bac7462668d86a984d2ee5977e3cf6a -->
<g id="edge3" class="edge">
<title>dir_7429a52da4efb9f4e51ba2fcc7c0b4e8&#45;&gt;dir_8bac7462668d86a984d2ee5977e3cf6a</title>
<path fill="none" stroke="black" d="M86.36,-215.65C93.25,-186.18 105.42,-124.45 101,-72 100.28,-63.5 98.93,-54.31 97.49,-46.01"/>
<polygon fill="black" stroke="black" points="100.91,-45.29 95.65,-36.09 94.03,-46.56 100.91,-45.29"/>
<g id="a_edge3&#45;headlabel"><a xlink:href="dir_000021_000035.html" target="_top" xlink:title="2">
<text text-anchor="middle" x="104.36" y="-45.81" font-family="Helvetica,sans-Serif" font-size="10.00">2</text>
</a>
</g>
</g>
<!-- dir_e4bcde167f88f305238965282a0ab06e -->
<g id="node4" class="node">
<title>dir_e4bcde167f88f305238965282a0ab06e</title>
<g id="a_node4"><a xlink:href="dir_e4bcde167f88f305238965282a0ab06e.html" target="_top" xlink:title="Extdep">
<polygon fill="white" stroke="red" points="92,-108 38,-108 38,-72 92,-72 92,-108"/>
<text text-anchor="middle" x="65" y="-87.5" font-family="Helvetica,sans-Serif" font-size="10.00">Extdep</text>
</a>
</g>
</g>
<!-- dir_7429a52da4efb9f4e51ba2fcc7c0b4e8&#45;&gt;dir_e4bcde167f88f305238965282a0ab06e -->
<g id="edge4" class="edge">
<title>dir_7429a52da4efb9f4e51ba2fcc7c0b4e8&#45;&gt;dir_e4bcde167f88f305238965282a0ab06e</title>
<path fill="none" stroke="black" d="M79.95,-215.87C77.05,-191.67 71.73,-147.21 68.28,-118.39"/>
<polygon fill="black" stroke="black" points="71.72,-117.7 67.06,-108.19 64.77,-118.53 71.72,-117.7"/>
<g id="a_edge4&#45;headlabel"><a xlink:href="dir_000021_000027.html" target="_top" xlink:title="1">
<text text-anchor="middle" x="74.97" y="-118.43" font-family="Helvetica,sans-Serif" font-size="10.00">1</text>
</a>
</g>
</g>
<!-- dir_70beccd1d8997d0174d02d630d77a447&#45;&gt;dir_e4bcde167f88f305238965282a0ab06e -->
<g id="edge1" class="edge">
<title>dir_70beccd1d8997d0174d02d630d77a447&#45;&gt;dir_e4bcde167f88f305238965282a0ab06e</title>
<path fill="none" stroke="black" d="M36.39,-143.7C40.76,-135.64 46.06,-125.89 50.9,-116.98"/>
<polygon fill="black" stroke="black" points="54.02,-118.56 55.71,-108.1 47.87,-115.22 54.02,-118.56"/>
<g id="a_edge1&#45;headlabel"><a xlink:href="dir_000012_000027.html" target="_top" xlink:title="3">
<text text-anchor="middle" x="54.8" y="-120.58" font-family="Helvetica,sans-Serif" font-size="10.00">3</text>
</a>
</g>
</g>
<!-- dir_e4bcde167f88f305238965282a0ab06e&#45;&gt;dir_8bac7462668d86a984d2ee5977e3cf6a -->
<g id="edge5" class="edge">
<title>dir_e4bcde167f88f305238965282a0ab06e&#45;&gt;dir_8bac7462668d86a984d2ee5977e3cf6a</title>
<path fill="none" stroke="black" d="M71.67,-71.7C74.71,-63.81 78.38,-54.3 81.76,-45.55"/>
<polygon fill="black" stroke="black" points="85.07,-46.69 85.4,-36.1 78.54,-44.17 85.07,-46.69"/>
<g id="a_edge5&#45;headlabel"><a xlink:href="dir_000027_000035.html" target="_top" xlink:title="7">
<text text-anchor="middle" x="86.42" y="-48.57" font-family="Helvetica,sans-Serif" font-size="10.00">7</text>
</a>
</g>
</g>
</g>
</svg>
