<?xml version="1.0" encoding="UTF-8" standalone="no"?>
<!DOCTYPE svg PUBLIC "-//W3C//DTD SVG 1.1//EN"
 "http://www.w3.org/Graphics/SVG/1.1/DTD/svg11.dtd">
<!-- Generated by graphviz version 2.43.0 (0)
 -->
<!-- Title: Kineis/App/Libs/USERDATA Pages: 1 -->
<svg width="250pt" height="183pt"
 viewBox="0.00 0.00 250.00 183.00" xmlns="http://www.w3.org/2000/svg" xmlns:xlink="http://www.w3.org/1999/xlink">
<g id="graph0" class="graph" transform="scale(1 1) rotate(0) translate(4 179)">
<title>Kineis/App/Libs/USERDATA</title>
<polygon fill="white" stroke="transparent" points="-4,4 -4,-179 246,-179 246,4 -4,4"/>
<g id="clust1" class="cluster">
<title>clusterdir_70beccd1d8997d0174d02d630d77a447</title>
<g id="a_clust1"><a xlink:href="dir_70beccd1d8997d0174d02d630d77a447.html" target="_top" xlink:title="Libs">
<polygon fill="#ddddee" stroke="black" points="8,-8 8,-167 180,-167 180,-8 8,-8"/>
<text text-anchor="middle" x="94" y="-155" font-family="Helvetica,sans-Serif" font-size="10.00">Libs</text>
</a>
</g>
</g>
<g id="clust2" class="cluster">
<title>clusterdir_46c6aded582cb38bf172fc7c5a980c8d</title>
<g id="a_clust2"><a xlink:href="dir_46c6aded582cb38bf172fc7c5a980c8d.html" target="_top">
<polygon fill="#eeeeff" stroke="black" points="16,-16 16,-140 172,-140 172,-16 16,-16"/>
</a>
</g>
</g>
<!-- dir_46c6aded582cb38bf172fc7c5a980c8d -->
<g id="node1" class="node">
<title>dir_46c6aded582cb38bf172fc7c5a980c8d</title>
<text text-anchor="middle" x="130" y="-111.5" font-family="Helvetica,sans-Serif" font-size="10.00">USERDATA</text>
</g>
<!-- dir_8b68f5e904f8fcd97bc9390d4f8b2d28 -->
<g id="node2" class="node">
<title>dir_8b68f5e904f8fcd97bc9390d4f8b2d28</title>
<g id="a_node2"><a xlink:href="dir_8b68f5e904f8fcd97bc9390d4f8b2d28.html" target="_top" xlink:title="Inc">
<polygon fill="white" stroke="black" points="78,-60 24,-60 24,-24 78,-24 78,-60"/>
<text text-anchor="middle" x="51" y="-39.5" font-family="Helvetica,sans-Serif" font-size="10.00">Inc</text>
</a>
</g>
</g>
<!-- dir_c0716e009405b97b39000f6d314e8d71 -->
<g id="node3" class="node">
<title>dir_c0716e009405b97b39000f6d314e8d71</title>
<g id="a_node3"><a xlink:href="dir_c0716e009405b97b39000f6d314e8d71.html" target="_top" xlink:title="Src">
<polygon fill="white" stroke="black" points="78,-132 24,-132 24,-96 78,-96 78,-132"/>
<text text-anchor="middle" x="51" y="-111.5" font-family="Helvetica,sans-Serif" font-size="10.00">Src</text>
</a>
</g>
</g>
<!-- dir_c0716e009405b97b39000f6d314e8d71&#45;&gt;dir_8b68f5e904f8fcd97bc9390d4f8b2d28 -->
<g id="edge1" class="edge">
<title>dir_c0716e009405b97b39000f6d314e8d71&#45;&gt;dir_8b68f5e904f8fcd97bc9390d4f8b2d28</title>
<path fill="none" stroke="black" d="M51,-95.7C51,-87.98 51,-78.71 51,-70.11"/>
<polygon fill="black" stroke="black" points="54.5,-70.1 51,-60.1 47.5,-70.1 54.5,-70.1"/>
<g id="a_edge1&#45;headlabel"><a xlink:href="dir_000018_000017.html" target="_top" xlink:title="1">
<text text-anchor="middle" x="57.34" y="-71.2" font-family="Helvetica,sans-Serif" font-size="10.00">1</text>
</a>
</g>
</g>
<!-- dir_e4bcde167f88f305238965282a0ab06e -->
<g id="node4" class="node">
<title>dir_e4bcde167f88f305238965282a0ab06e</title>
<g id="a_node4"><a xlink:href="dir_e4bcde167f88f305238965282a0ab06e.html" target="_top" xlink:title="Extdep">
<polygon fill="white" stroke="red" points="242,-60 188,-60 188,-24 242,-24 242,-60"/>
<text text-anchor="middle" x="215" y="-39.5" font-family="Helvetica,sans-Serif" font-size="10.00">Extdep</text>
</a>
</g>
</g>
<!-- dir_c0716e009405b97b39000f6d314e8d71&#45;&gt;dir_e4bcde167f88f305238965282a0ab06e -->
<g id="edge2" class="edge">
<title>dir_c0716e009405b97b39000f6d314e8d71&#45;&gt;dir_e4bcde167f88f305238965282a0ab06e</title>
<path fill="none" stroke="black" d="M78.05,-100.02C81.06,-98.64 84.09,-97.28 87,-96 126.09,-78.88 136.66,-76.53 176,-60 176.83,-59.65 177.68,-59.29 178.53,-58.93"/>
<polygon fill="black" stroke="black" points="179.95,-62.13 187.76,-54.98 177.19,-55.7 179.95,-62.13"/>
<g id="a_edge2&#45;headlabel"><a xlink:href="dir_000018_000027.html" target="_top" xlink:title="3">
<text text-anchor="middle" x="177.76" y="-63.66" font-family="Helvetica,sans-Serif" font-size="10.00">3</text>
</a>
</g>
</g>
</g>
</svg>
