<?xml version="1.0" encoding="UTF-8" standalone="no"?>
<!DOCTYPE svg PUBLIC "-//W3C//DTD SVG 1.1//EN"
 "http://www.w3.org/Graphics/SVG/1.1/DTD/svg11.dtd">
<!-- Generated by graphviz version 2.43.0 (0)
 -->
<!-- Title: Kineis/App/Kineis_os/KNS_Q/Inc/kns_q.h Pages: 1 -->
<!--zoomable 184 -->
<svg id="main" version="1.1" xmlns="http://www.w3.org/2000/svg" xmlns:xlink="http://www.w3.org/1999/xlink" xml:space="preserve" onload="init(evt)">
<style type="text/css"><![CDATA[
.edge:hover path { stroke: red; }
.edge:hover polygon { stroke: red; fill: red; }
]]></style>
<script type="text/javascript"><![CDATA[
var edges = document.getElementsByTagName('g');
if (edges && edges.length) {
  for (var i=0;i<edges.length;i++) {
    if (edges[i].id.substr(0,4)=='edge') {
      edges[i].setAttribute('class','edge');
    }
  }
}
]]></script>
        <defs>
                <circle id="rim" cx="0" cy="0" r="7"/>
                <circle id="rim2" cx="0" cy="0" r="3.5"/>
                <g id="zoomPlus">
                        <use xlink:href="#rim" fill="#404040">
                                <set attributeName="fill" to="#808080" begin="zoomplus.mouseover" end="zoomplus.mouseout"/>
                        </use>
                        <path d="M-4,0h8M0,-4v8" fill="none" stroke="white" stroke-width="1.5" pointer-events="none"/>
                </g>
                <g id="zoomMin">
                        <use xlink:href="#rim" fill="#404040">
                                <set attributeName="fill" to="#808080" begin="zoomminus.mouseover" end="zoomminus.mouseout"/>
                        </use>
                        <path d="M-4,0h8" fill="none" stroke="white" stroke-width="1.5" pointer-events="none"/>
                </g>
                <g id="dirArrow">
                        <path fill="none" stroke="white" stroke-width="1.5" d="M0,-3.0v7 M-2.5,-0.5L0,-3.0L2.5,-0.5"/>
                </g>
               <g id="resetDef">
                       <use xlink:href="#rim2" fill="#404040">
                               <set attributeName="fill" to="#808080" begin="reset.mouseover" end="reset.mouseout"/>
                       </use>
               </g>
        </defs>

<script type="text/javascript">
var viewWidth = 1344;
var viewHeight = 184;
var sectionId = 'dynsection-1';
</script>
<script xlink:href="../../svgpan.js"/>
<svg id="graph" class="graph">
<g id="viewport">
<title>Kineis/App/Kineis_os/KNS_Q/Inc/kns_q.h</title>
<polygon fill="white" stroke="transparent" points="-4,4 -4,-180 1340,-180 1340,4 -4,4"/>
<!-- Node1 -->
<g id="node1" class="node">
<title>Node1</title>
<g id="a_node1"><a xlink:title="Configuration of queues used in kineis_swr.">
<polygon fill="#bfbfbf" stroke="black" points="654.5,-145.5 654.5,-175.5 772.5,-175.5 772.5,-145.5 654.5,-145.5"/>
<text text-anchor="start" x="662.5" y="-163.5" font-family="Helvetica,sans-Serif" font-size="10.00">Kineis/App/Kineis_os</text>
<text text-anchor="middle" x="713.5" y="-152.5" font-family="Helvetica,sans-Serif" font-size="10.00">/KNS_Q/Inc/kns_q.h</text>
</a>
</g>
</g>
<!-- Node2 -->
<g id="node2" class="node">
<title>Node2</title>
<g id="a_node2"><a xlink:href="../../d0/d29/main_8c.html" target="_top" xlink:title=": Main program body">
<polygon fill="white" stroke="black" points="0,-78.5 0,-97.5 93,-97.5 93,-78.5 0,-78.5"/>
<text text-anchor="middle" x="46.5" y="-85.5" font-family="Helvetica,sans-Serif" font-size="10.00">Core/Src/main.c</text>
</a>
</g>
</g>
<!-- Node1&#45;&gt;Node2 -->
<g id="edge1" class="edge">
<title>Node1&#45;&gt;Node2</title>
<path fill="none" stroke="midnightblue" d="M644.19,-159.61C529.98,-158.49 295.64,-150.72 102.5,-109 90.19,-106.34 76.89,-101.67 66.35,-97.52"/>
<polygon fill="midnightblue" stroke="midnightblue" points="644.17,-163.11 654.2,-159.69 644.23,-156.11 644.17,-163.11"/>
</g>
<!-- Node3 -->
<g id="node3" class="node">
<title>Node3</title>
<g id="a_node3"><a xlink:href="../../d0/d08/kns__q__baremetal_8c.html" target="_top" xlink:title="Configuration of queues used in kineis_swr.">
<polygon fill="white" stroke="black" points="111.5,-73 111.5,-103 277.5,-103 277.5,-73 111.5,-73"/>
<text text-anchor="start" x="119.5" y="-91" font-family="Helvetica,sans-Serif" font-size="10.00">Kineis/App/Kineis_os</text>
<text text-anchor="middle" x="194.5" y="-80" font-family="Helvetica,sans-Serif" font-size="10.00">/KNS_Q/Src/kns_q_baremetal.c</text>
</a>
</g>
</g>
<!-- Node1&#45;&gt;Node3 -->
<g id="edge2" class="edge">
<title>Node1&#45;&gt;Node3</title>
<path fill="none" stroke="midnightblue" d="M644.34,-153.31C559.83,-145.29 412.63,-129.82 287.5,-109 277.24,-107.29 266.39,-105.21 255.88,-103.05"/>
<polygon fill="midnightblue" stroke="midnightblue" points="644.05,-156.8 654.33,-154.26 644.71,-149.83 644.05,-156.8"/>
</g>
<!-- Node5 -->
<g id="node5" class="node">
<title>Node5</title>
<g id="a_node5"><a xlink:href="../../d5/d11/kns__q__cmsis__os2_8c.html" target="_top" xlink:title=" ">
<polygon fill="white" stroke="black" points="296,-73 296,-103 463,-103 463,-73 296,-73"/>
<text text-anchor="start" x="304" y="-91" font-family="Helvetica,sans-Serif" font-size="10.00">Kineis/App/Kineis_os</text>
<text text-anchor="middle" x="379.5" y="-80" font-family="Helvetica,sans-Serif" font-size="10.00">/KNS_Q/Src/kns_q_cmsis_os2.c</text>
</a>
</g>
</g>
<!-- Node1&#45;&gt;Node5 -->
<g id="edge4" class="edge">
<title>Node1&#45;&gt;Node5</title>
<path fill="none" stroke="midnightblue" d="M644.05,-145.05C595.89,-135 530.28,-121.27 472.5,-109 463.45,-107.08 453.91,-105.04 444.53,-103.03"/>
<polygon fill="midnightblue" stroke="midnightblue" points="643.55,-148.52 654.06,-147.14 644.98,-141.67 643.55,-148.52"/>
</g>
<!-- Node6 -->
<g id="node6" class="node">
<title>Node6</title>
<g id="a_node6"><a xlink:href="../../d2/d9c/kns__q__freertos_8c.html" target="_top" xlink:title="Configuration of queues used in kineis_swr.">
<polygon fill="white" stroke="black" points="481.5,-73 481.5,-103 635.5,-103 635.5,-73 481.5,-73"/>
<text text-anchor="start" x="489.5" y="-91" font-family="Helvetica,sans-Serif" font-size="10.00">Kineis/App/Kineis_os</text>
<text text-anchor="middle" x="558.5" y="-80" font-family="Helvetica,sans-Serif" font-size="10.00">/KNS_Q/Src/kns_q_freertos.c</text>
</a>
</g>
</g>
<!-- Node1&#45;&gt;Node6 -->
<g id="edge5" class="edge">
<title>Node1&#45;&gt;Node6</title>
<path fill="none" stroke="midnightblue" d="M673.24,-141.19C647.08,-129.29 613.5,-114.02 589.44,-103.07"/>
<polygon fill="midnightblue" stroke="midnightblue" points="671.95,-144.45 682.51,-145.4 674.85,-138.08 671.95,-144.45"/>
</g>
<!-- Node7 -->
<g id="node7" class="node">
<title>Node7</title>
<g id="a_node7"><a xlink:href="../../d4/d0d/kns__app_8c.html" target="_top" xlink:title=" ">
<polygon fill="white" stroke="black" points="653.5,-78.5 653.5,-97.5 773.5,-97.5 773.5,-78.5 653.5,-78.5"/>
<text text-anchor="middle" x="713.5" y="-85.5" font-family="Helvetica,sans-Serif" font-size="10.00">Kineis/App/kns_app.c</text>
</a>
</g>
</g>
<!-- Node1&#45;&gt;Node7 -->
<g id="edge6" class="edge">
<title>Node1&#45;&gt;Node7</title>
<path fill="none" stroke="midnightblue" d="M713.5,-135.09C713.5,-122.21 713.5,-107.2 713.5,-97.89"/>
<polygon fill="midnightblue" stroke="midnightblue" points="710,-135.23 713.5,-145.23 717,-135.23 710,-135.23"/>
</g>
<!-- Node8 -->
<g id="node8" class="node">
<title>Node8</title>
<g id="a_node8"><a xlink:href="../../d1/de0/mgr__at__cmd__list__mac_8c.html" target="_top" xlink:title="subset of AT commands concerning Kinéis Medium Acces Channel (MAC).">
<polygon fill="white" stroke="black" points="791.5,-67.5 791.5,-108.5 921.5,-108.5 921.5,-67.5 791.5,-67.5"/>
<text text-anchor="start" x="799.5" y="-96.5" font-family="Helvetica,sans-Serif" font-size="10.00">Kineis/App/Managers</text>
<text text-anchor="start" x="799.5" y="-85.5" font-family="Helvetica,sans-Serif" font-size="10.00">/MGR_AT_CMD/Src/mgr</text>
<text text-anchor="middle" x="856.5" y="-74.5" font-family="Helvetica,sans-Serif" font-size="10.00">_at_cmd_list_mac.c</text>
</a>
</g>
</g>
<!-- Node1&#45;&gt;Node8 -->
<g id="edge7" class="edge">
<title>Node1&#45;&gt;Node8</title>
<path fill="none" stroke="midnightblue" d="M751.31,-140.86C771.51,-130.9 796.37,-118.64 816.85,-108.55"/>
<polygon fill="midnightblue" stroke="midnightblue" points="749.52,-137.84 742.09,-145.4 752.61,-144.12 749.52,-137.84"/>
</g>
<!-- Node9 -->
<g id="node9" class="node">
<title>Node9</title>
<g id="a_node9"><a xlink:href="../../d8/d11/mgr__at__cmd__list__user__data_8c.html" target="_top" xlink:title="subset of AT commands concerning user data manipulation such as TX">
<polygon fill="white" stroke="black" points="939.5,-67.5 939.5,-108.5 1079.5,-108.5 1079.5,-67.5 939.5,-67.5"/>
<text text-anchor="start" x="947.5" y="-96.5" font-family="Helvetica,sans-Serif" font-size="10.00">Kineis/App/Managers</text>
<text text-anchor="start" x="947.5" y="-85.5" font-family="Helvetica,sans-Serif" font-size="10.00">/MGR_AT_CMD/Src/mgr</text>
<text text-anchor="middle" x="1009.5" y="-74.5" font-family="Helvetica,sans-Serif" font-size="10.00">_at_cmd_list_user_data.c</text>
</a>
</g>
</g>
<!-- Node1&#45;&gt;Node9 -->
<g id="edge8" class="edge">
<title>Node1&#45;&gt;Node9</title>
<path fill="none" stroke="midnightblue" d="M782.52,-143.8C825.2,-134 881.09,-121 930.5,-109 933.39,-108.3 936.33,-107.58 939.31,-106.85"/>
<polygon fill="midnightblue" stroke="midnightblue" points="781.48,-140.44 772.52,-146.09 783.05,-147.27 781.48,-140.44"/>
</g>
<!-- Node10 -->
<g id="node10" class="node">
<title>Node10</title>
<g id="a_node10"><a xlink:href="../../d2/dae/kns__q__conf_8c.html" target="_top" xlink:title="Configuration of queues used in kineis_swr.">
<polygon fill="white" stroke="black" points="1098,-73 1098,-103 1207,-103 1207,-73 1098,-73"/>
<text text-anchor="start" x="1106" y="-91" font-family="Helvetica,sans-Serif" font-size="10.00">Kineis/Extdep/Conf</text>
<text text-anchor="middle" x="1152.5" y="-80" font-family="Helvetica,sans-Serif" font-size="10.00">/kns_q_conf.c</text>
</a>
</g>
</g>
<!-- Node1&#45;&gt;Node10 -->
<g id="edge9" class="edge">
<title>Node1&#45;&gt;Node10</title>
<path fill="none" stroke="midnightblue" d="M783.19,-153.67C858.95,-146.51 983.3,-132.34 1088.5,-109 1095.89,-107.36 1103.65,-105.26 1111.12,-103.05"/>
<polygon fill="midnightblue" stroke="midnightblue" points="782.46,-150.22 772.82,-154.63 783.11,-157.19 782.46,-150.22"/>
</g>
<!-- Node11 -->
<g id="node11" class="node">
<title>Node11</title>
<g id="a_node11"><a xlink:href="../../dd/d8d/mgr__lpm_8c.html" target="_top" xlink:title="low power mode manager is in charge to collect all low power needs from &#39;clients&#39; and setup the corre...">
<polygon fill="white" stroke="black" points="1225,-73 1225,-103 1336,-103 1336,-73 1225,-73"/>
<text text-anchor="start" x="1233" y="-91" font-family="Helvetica,sans-Serif" font-size="10.00">Kineis/Lpm/Src/mgr</text>
<text text-anchor="middle" x="1280.5" y="-80" font-family="Helvetica,sans-Serif" font-size="10.00">_lpm.c</text>
</a>
</g>
</g>
<!-- Node1&#45;&gt;Node11 -->
<g id="edge10" class="edge">
<title>Node1&#45;&gt;Node11</title>
<path fill="none" stroke="midnightblue" d="M782.58,-157C880.15,-152.46 1063.48,-140.25 1216.5,-109 1224.14,-107.44 1232.17,-105.33 1239.85,-103.06"/>
<polygon fill="midnightblue" stroke="midnightblue" points="782.38,-153.5 772.55,-157.45 782.7,-160.49 782.38,-153.5"/>
</g>
<!-- Node4 -->
<g id="node4" class="node">
<title>Node4</title>
<g id="a_node4"><a xlink:href="../../d7/d30/kns__q_8c.html" target="_top" xlink:title="Configuration of queues used in kineis_swr.">
<polygon fill="white" stroke="black" points="135.5,-0.5 135.5,-30.5 253.5,-30.5 253.5,-0.5 135.5,-0.5"/>
<text text-anchor="start" x="143.5" y="-18.5" font-family="Helvetica,sans-Serif" font-size="10.00">Kineis/App/Kineis_os</text>
<text text-anchor="middle" x="194.5" y="-7.5" font-family="Helvetica,sans-Serif" font-size="10.00">/KNS_Q/Src/kns_q.c</text>
</a>
</g>
</g>
<!-- Node3&#45;&gt;Node4 -->
<g id="edge3" class="edge">
<title>Node3&#45;&gt;Node4</title>
<path fill="none" stroke="midnightblue" d="M194.5,-62.73C194.5,-52.07 194.5,-39.91 194.5,-30.75"/>
<polygon fill="midnightblue" stroke="midnightblue" points="191,-62.73 194.5,-72.73 198,-62.73 191,-62.73"/>
</g>
</g>
</svg>
        <g id="navigator" transform="translate(0 0)" fill="#404254">
                <rect fill="#f2f5e9" fill-opacity="0.5" stroke="#606060" stroke-width=".5" x="0" y="0" width="60" height="60"/>
                <use id="zoomplus" xlink:href="#zoomPlus" x="17" y="9" onmousedown="handleZoom(evt,'in')"/>
                <use id="zoomminus" xlink:href="#zoomMin" x="42" y="9" onmousedown="handleZoom(evt,'out')"/>
                <use id="reset" xlink:href="#resetDef" x="30" y="36" onmousedown="handleReset()"/>
                <g id="arrowUp" xlink:href="#dirArrow" transform="translate(30 24)" onmousedown="handlePan(0,-1)">
                  <use xlink:href="#rim" fill="#404040">
                        <set attributeName="fill" to="#808080" begin="arrowUp.mouseover" end="arrowUp.mouseout"/>
                  </use>
                  <path fill="none" stroke="white" stroke-width="1.5" d="M0,-3.0v7 M-2.5,-0.5L0,-3.0L2.5,-0.5"/>
                </g>
                <g id="arrowRight" xlink:href="#dirArrow" transform="rotate(90) translate(36 -43)" onmousedown="handlePan(1,0)">
                  <use xlink:href="#rim" fill="#404040">
                        <set attributeName="fill" to="#808080" begin="arrowRight.mouseover" end="arrowRight.mouseout"/>
                  </use>
                  <path fill="none" stroke="white" stroke-width="1.5" d="M0,-3.0v7 M-2.5,-0.5L0,-3.0L2.5,-0.5"/>
                </g>
                <g id="arrowDown" xlink:href="#dirArrow" transform="rotate(180) translate(-30 -48)" onmousedown="handlePan(0,1)">
                  <use xlink:href="#rim" fill="#404040">
                        <set attributeName="fill" to="#808080" begin="arrowDown.mouseover" end="arrowDown.mouseout"/>
                  </use>
                  <path fill="none" stroke="white" stroke-width="1.5" d="M0,-3.0v7 M-2.5,-0.5L0,-3.0L2.5,-0.5"/>
                </g>
                <g id="arrowLeft" xlink:href="#dirArrow" transform="rotate(270) translate(-36 17)" onmousedown="handlePan(-1,0)">
                  <use xlink:href="#rim" fill="#404040">
                        <set attributeName="fill" to="#808080" begin="arrowLeft.mouseover" end="arrowLeft.mouseout"/>
                  </use>
                  <path fill="none" stroke="white" stroke-width="1.5" d="M0,-3.0v7 M-2.5,-0.5L0,-3.0L2.5,-0.5"/>
                </g>
        </g>
        <svg viewBox="0 0 15 15" width="100%" height="30px" preserveAspectRatio="xMaxYMin meet">
         <g id="arrow_out" transform="scale(0.3 0.3)">
          <a xlink:href="kns__q_8h__dep__incl_org.svg" target="_base">
           <rect id="button" ry="5" rx="5" y="6" x="6" height="38" width="38"
                fill="#f2f5e9" fill-opacity="0.5" stroke="#606060" stroke-width="1.0"/>
           <path id="arrow"
             d="M 11.500037,31.436501 C 11.940474,20.09759 22.043105,11.32322 32.158766,21.979434 L 37.068811,17.246167 C 37.068811,17.246167 37.088388,32 37.088388,32 L 22.160133,31.978069 C 22.160133,31.978069 26.997745,27.140456 26.997745,27.140456 C 18.528582,18.264221 13.291696,25.230495 11.500037,31.436501 z"
             style="fill:#404040;"/>
          </a>
         </g>
        </svg>
</svg>
