<?xml version="1.0" encoding="UTF-8" standalone="no"?>
<!DOCTYPE svg PUBLIC "-//W3C//DTD SVG 1.1//EN"
 "http://www.w3.org/Graphics/SVG/1.1/DTD/svg11.dtd">
<!-- Generated by graphviz version 2.43.0 (0)
 -->
<!-- Title: Kineis/App/Managers/MGR_AT_CMD/Src/mgr_at_cmd.c Pages: 1 -->
<!--zoomable 218 -->
<svg id="main" version="1.1" xmlns="http://www.w3.org/2000/svg" xmlns:xlink="http://www.w3.org/1999/xlink" xml:space="preserve" onload="init(evt)">
<style type="text/css"><![CDATA[
.edge:hover path { stroke: red; }
.edge:hover polygon { stroke: red; fill: red; }
]]></style>
<script type="text/javascript"><![CDATA[
var edges = document.getElementsByTagName('g');
if (edges && edges.length) {
  for (var i=0;i<edges.length;i++) {
    if (edges[i].id.substr(0,4)=='edge') {
      edges[i].setAttribute('class','edge');
    }
  }
}
]]></script>
        <defs>
                <circle id="rim" cx="0" cy="0" r="7"/>
                <circle id="rim2" cx="0" cy="0" r="3.5"/>
                <g id="zoomPlus">
                        <use xlink:href="#rim" fill="#404040">
                                <set attributeName="fill" to="#808080" begin="zoomplus.mouseover" end="zoomplus.mouseout"/>
                        </use>
                        <path d="M-4,0h8M0,-4v8" fill="none" stroke="white" stroke-width="1.5" pointer-events="none"/>
                </g>
                <g id="zoomMin">
                        <use xlink:href="#rim" fill="#404040">
                                <set attributeName="fill" to="#808080" begin="zoomminus.mouseover" end="zoomminus.mouseout"/>
                        </use>
                        <path d="M-4,0h8" fill="none" stroke="white" stroke-width="1.5" pointer-events="none"/>
                </g>
                <g id="dirArrow">
                        <path fill="none" stroke="white" stroke-width="1.5" d="M0,-3.0v7 M-2.5,-0.5L0,-3.0L2.5,-0.5"/>
                </g>
               <g id="resetDef">
                       <use xlink:href="#rim2" fill="#404040">
                               <set attributeName="fill" to="#808080" begin="reset.mouseover" end="reset.mouseout"/>
                       </use>
               </g>
        </defs>

<script type="text/javascript">
var viewWidth = 821;
var viewHeight = 218;
var sectionId = 'dynsection-0';
</script>
<script xlink:href="../../svgpan.js"/>
<svg id="graph" class="graph">
<g id="viewport">
<title>Kineis/App/Managers/MGR_AT_CMD/Src/mgr_at_cmd.c</title>
<polygon fill="white" stroke="transparent" points="-4,4 -4,-214 817,-214 817,4 -4,4"/>
<!-- Node1 -->
<g id="node1" class="node">
<title>Node1</title>
<g id="a_node1"><a xlink:title="APIs Implementation used to parse the UART ASCII data stream and extract AT commands.">
<polygon fill="#bfbfbf" stroke="black" points="319.5,-168.5 319.5,-209.5 449.5,-209.5 449.5,-168.5 319.5,-168.5"/>
<text text-anchor="start" x="327.5" y="-197.5" font-family="Helvetica,sans-Serif" font-size="10.00">Kineis/App/Managers</text>
<text text-anchor="start" x="327.5" y="-186.5" font-family="Helvetica,sans-Serif" font-size="10.00">/MGR_AT_CMD/Src/mgr</text>
<text text-anchor="middle" x="384.5" y="-175.5" font-family="Helvetica,sans-Serif" font-size="10.00">_at_cmd.c</text>
</a>
</g>
</g>
<!-- Node2 -->
<g id="node2" class="node">
<title>Node2</title>
<g id="a_node2"><a xlink:title=" ">
<polygon fill="white" stroke="#bfbfbf" points="142,-112.5 142,-131.5 195,-131.5 195,-112.5 142,-112.5"/>
<text text-anchor="middle" x="168.5" y="-119.5" font-family="Helvetica,sans-Serif" font-size="10.00">string.h</text>
</a>
</g>
</g>
<!-- Node1&#45;&gt;Node2 -->
<g id="edge1" class="edge">
<title>Node1&#45;&gt;Node2</title>
<path fill="none" stroke="midnightblue" d="M319.69,-168.5C282.02,-157.16 235.94,-143.3 204.63,-133.87"/>
<polygon fill="midnightblue" stroke="midnightblue" points="205.6,-130.51 195.01,-130.98 203.58,-137.21 205.6,-130.51"/>
</g>
<!-- Node3 -->
<g id="node3" class="node">
<title>Node3</title>
<g id="a_node3"><a xlink:href="../../d8/d85/kns__types_8h.html" target="_top" xlink:title="Kineis types definition.">
<polygon fill="white" stroke="black" points="0,-56.5 0,-75.5 75,-75.5 75,-56.5 0,-56.5"/>
<text text-anchor="middle" x="37.5" y="-63.5" font-family="Helvetica,sans-Serif" font-size="10.00">kns_types.h</text>
</a>
</g>
</g>
<!-- Node1&#45;&gt;Node3 -->
<g id="edge2" class="edge">
<title>Node1&#45;&gt;Node3</title>
<path fill="none" stroke="midnightblue" d="M331.38,-168.47C304.49,-158.23 271.48,-145.1 242.5,-132 224.75,-123.97 221.67,-119.03 203.5,-112 164.64,-96.96 118.81,-84.94 85.16,-77.12"/>
<polygon fill="midnightblue" stroke="midnightblue" points="85.66,-73.65 75.14,-74.83 84.1,-80.47 85.66,-73.65"/>
</g>
<!-- Node5 -->
<g id="node5" class="node">
<title>Node5</title>
<g id="a_node5"><a xlink:href="../../d2/db5/mgr__at__cmd_8h.html" target="_top" xlink:title="AT commands manager main header file.">
<polygon fill="white" stroke="black" points="251.5,-112.5 251.5,-131.5 337.5,-131.5 337.5,-112.5 251.5,-112.5"/>
<text text-anchor="middle" x="294.5" y="-119.5" font-family="Helvetica,sans-Serif" font-size="10.00">mgr_at_cmd.h</text>
</a>
</g>
</g>
<!-- Node1&#45;&gt;Node5 -->
<g id="edge4" class="edge">
<title>Node1&#45;&gt;Node5</title>
<path fill="none" stroke="midnightblue" d="M357.5,-168.5C343.83,-158.63 327.51,-146.84 314.91,-137.74"/>
<polygon fill="midnightblue" stroke="midnightblue" points="316.64,-134.67 306.48,-131.65 312.54,-140.34 316.64,-134.67"/>
</g>
<!-- Node8 -->
<g id="node8" class="node">
<title>Node8</title>
<g id="a_node8"><a xlink:href="../../d5/d58/mgr__at__cmd__common_8h.html" target="_top" xlink:title="header file for common part of the AT cmd manager">
<polygon fill="white" stroke="black" points="431.5,-112.5 431.5,-131.5 565.5,-131.5 565.5,-112.5 431.5,-112.5"/>
<text text-anchor="middle" x="498.5" y="-119.5" font-family="Helvetica,sans-Serif" font-size="10.00">mgr_at_cmd_common.h</text>
</a>
</g>
</g>
<!-- Node1&#45;&gt;Node8 -->
<g id="edge8" class="edge">
<title>Node1&#45;&gt;Node8</title>
<path fill="none" stroke="midnightblue" d="M418.7,-168.5C436.69,-158.24 458.29,-145.93 474.49,-136.69"/>
<polygon fill="midnightblue" stroke="midnightblue" points="476.37,-139.65 483.32,-131.65 472.9,-133.57 476.37,-139.65"/>
</g>
<!-- Node11 -->
<g id="node11" class="node">
<title>Node11</title>
<g id="a_node11"><a xlink:href="../../d9/dc4/kineis__sw__conf_8h.html" target="_top" xlink:title="Kineis stack SW configurations depending on platform used.">
<polygon fill="white" stroke="black" points="613,-56.5 613,-75.5 712,-75.5 712,-56.5 613,-56.5"/>
<text text-anchor="middle" x="662.5" y="-63.5" font-family="Helvetica,sans-Serif" font-size="10.00">kineis_sw_conf.h</text>
</a>
</g>
</g>
<!-- Node1&#45;&gt;Node11 -->
<g id="edge22" class="edge">
<title>Node1&#45;&gt;Node11</title>
<path fill="none" stroke="midnightblue" d="M449.94,-174.7C487.59,-165.6 535.09,-151.6 574.5,-132 601.15,-118.75 628.14,-97.37 645.08,-82.77"/>
<polygon fill="midnightblue" stroke="midnightblue" points="647.76,-85.07 652.96,-75.84 643.14,-79.82 647.76,-85.07"/>
</g>
<!-- Node12 -->
<g id="node12" class="node">
<title>Node12</title>
<g id="a_node12"><a xlink:href="../../df/d01/mgr__at__cmd__list_8h.html" target="_top" xlink:title="AT commands list header file.">
<polygon fill="white" stroke="black" points="162,-56.5 162,-75.5 269,-75.5 269,-56.5 162,-56.5"/>
<text text-anchor="middle" x="215.5" y="-63.5" font-family="Helvetica,sans-Serif" font-size="10.00">mgr_at_cmd_list.h</text>
</a>
</g>
</g>
<!-- Node1&#45;&gt;Node12 -->
<g id="edge16" class="edge">
<title>Node1&#45;&gt;Node12</title>
<path fill="none" stroke="midnightblue" d="M379.24,-168.21C373.74,-151.11 363.48,-126.87 346.5,-112 327.5,-95.37 302.05,-84.81 278.63,-78.14"/>
<polygon fill="midnightblue" stroke="midnightblue" points="279.31,-74.7 268.75,-75.51 277.51,-81.46 279.31,-74.7"/>
</g>
<!-- Node13 -->
<g id="node13" class="node">
<title>Node13</title>
<g id="a_node13"><a xlink:href="../../d4/d30/mcu__at__console_8h.html" target="_top" xlink:title="MCU wrapper for AT CMD console.">
<polygon fill="white" stroke="black" points="363.5,-56.5 363.5,-75.5 467.5,-75.5 467.5,-56.5 363.5,-56.5"/>
<text text-anchor="middle" x="415.5" y="-63.5" font-family="Helvetica,sans-Serif" font-size="10.00">mcu_at_console.h</text>
</a>
</g>
</g>
<!-- Node1&#45;&gt;Node13 -->
<g id="edge19" class="edge">
<title>Node1&#45;&gt;Node13</title>
<path fill="none" stroke="midnightblue" d="M389.55,-168.29C395.42,-145.37 405.04,-107.85 410.77,-85.47"/>
<polygon fill="midnightblue" stroke="midnightblue" points="414.21,-86.13 413.3,-75.57 407.43,-84.39 414.21,-86.13"/>
</g>
<!-- Node14 -->
<g id="node14" class="node">
<title>Node14</title>
<g id="a_node14"><a xlink:href="../../d2/d2e/mgr__log_8h.html" target="_top" xlink:title="logger main header file">
<polygon fill="white" stroke="black" points="700,-112.5 700,-131.5 765,-131.5 765,-112.5 700,-112.5"/>
<text text-anchor="middle" x="732.5" y="-119.5" font-family="Helvetica,sans-Serif" font-size="10.00">mgr_log.h</text>
</a>
</g>
</g>
<!-- Node1&#45;&gt;Node14 -->
<g id="edge23" class="edge">
<title>Node1&#45;&gt;Node14</title>
<path fill="none" stroke="midnightblue" d="M449.55,-175.85C519.84,-162.72 629.84,-142.18 689.88,-130.96"/>
<polygon fill="midnightblue" stroke="midnightblue" points="690.59,-134.39 699.78,-129.11 689.31,-127.51 690.59,-134.39"/>
</g>
<!-- Node4 -->
<g id="node4" class="node">
<title>Node4</title>
<g id="a_node4"><a xlink:title=" ">
<polygon fill="white" stroke="#bfbfbf" points="309,-0.5 309,-19.5 362,-19.5 362,-0.5 309,-0.5"/>
<text text-anchor="middle" x="335.5" y="-7.5" font-family="Helvetica,sans-Serif" font-size="10.00">stdint.h</text>
</a>
</g>
</g>
<!-- Node3&#45;&gt;Node4 -->
<g id="edge3" class="edge">
<title>Node3&#45;&gt;Node4</title>
<path fill="none" stroke="midnightblue" d="M75.2,-57.74C78.35,-57.15 81.48,-56.56 84.5,-56 160.54,-41.9 249.67,-26.09 298.63,-17.47"/>
<polygon fill="midnightblue" stroke="midnightblue" points="299.49,-20.87 308.74,-15.69 298.28,-13.98 299.49,-20.87"/>
</g>
<!-- Node5&#45;&gt;Node3 -->
<g id="edge7" class="edge">
<title>Node5&#45;&gt;Node3</title>
<path fill="none" stroke="midnightblue" d="M253.78,-112.44C207.93,-102.81 133.51,-87.17 85.04,-76.99"/>
<polygon fill="midnightblue" stroke="midnightblue" points="85.61,-73.53 75.11,-74.9 84.17,-80.38 85.61,-73.53"/>
</g>
<!-- Node6 -->
<g id="node6" class="node">
<title>Node6</title>
<g id="a_node6"><a xlink:title=" ">
<polygon fill="white" stroke="#bfbfbf" points="384.5,-0.5 384.5,-19.5 446.5,-19.5 446.5,-0.5 384.5,-0.5"/>
<text text-anchor="middle" x="415.5" y="-7.5" font-family="Helvetica,sans-Serif" font-size="10.00">stdbool.h</text>
</a>
</g>
</g>
<!-- Node5&#45;&gt;Node6 -->
<g id="edge5" class="edge">
<title>Node5&#45;&gt;Node6</title>
<path fill="none" stroke="midnightblue" d="M301.78,-112.09C312.61,-99.09 333.91,-74.44 354.5,-56 366.84,-44.94 381.8,-33.88 393.81,-25.49"/>
<polygon fill="midnightblue" stroke="midnightblue" points="396.07,-28.18 402.34,-19.64 392.11,-22.41 396.07,-28.18"/>
</g>
<!-- Node7 -->
<g id="node7" class="node">
<title>Node7</title>
<g id="a_node7"><a xlink:title=" ">
<polygon fill="white" stroke="#bfbfbf" points="93.5,-56.5 93.5,-75.5 143.5,-75.5 143.5,-56.5 93.5,-56.5"/>
<text text-anchor="middle" x="118.5" y="-63.5" font-family="Helvetica,sans-Serif" font-size="10.00">stdio.h</text>
</a>
</g>
</g>
<!-- Node5&#45;&gt;Node7 -->
<g id="edge6" class="edge">
<title>Node5&#45;&gt;Node7</title>
<path fill="none" stroke="midnightblue" d="M266.61,-112.44C235.96,-103.04 186.66,-87.91 153.44,-77.72"/>
<polygon fill="midnightblue" stroke="midnightblue" points="154.28,-74.32 143.69,-74.73 152.22,-81.01 154.28,-74.32"/>
</g>
<!-- Node8&#45;&gt;Node4 -->
<g id="edge9" class="edge">
<title>Node8&#45;&gt;Node4</title>
<path fill="none" stroke="midnightblue" d="M431.48,-113.93C404.38,-107.86 374.78,-96.65 354.5,-76 342.54,-63.82 338.04,-44.55 336.38,-30.15"/>
<polygon fill="midnightblue" stroke="midnightblue" points="339.84,-29.56 335.57,-19.87 332.86,-30.11 339.84,-29.56"/>
</g>
<!-- Node8&#45;&gt;Node6 -->
<g id="edge10" class="edge">
<title>Node8&#45;&gt;Node6</title>
<path fill="none" stroke="midnightblue" d="M497.25,-112.24C495.01,-98.98 489.29,-73.51 476.5,-56 467.22,-43.3 453.31,-32.65 441.11,-24.9"/>
<polygon fill="midnightblue" stroke="midnightblue" points="442.6,-21.71 432.23,-19.56 438.99,-27.71 442.6,-21.71"/>
</g>
<!-- Node9 -->
<g id="node9" class="node">
<title>Node9</title>
<g id="a_node9"><a xlink:href="../../df/d36/strutil__lib_8h.html" target="_top" xlink:title="small utilities to manipulate strings">
<polygon fill="white" stroke="black" points="524,-56.5 524,-75.5 595,-75.5 595,-56.5 524,-56.5"/>
<text text-anchor="middle" x="559.5" y="-63.5" font-family="Helvetica,sans-Serif" font-size="10.00">strutil_lib.h</text>
</a>
</g>
</g>
<!-- Node8&#45;&gt;Node9 -->
<g id="edge11" class="edge">
<title>Node8&#45;&gt;Node9</title>
<path fill="none" stroke="midnightblue" d="M508.3,-112.32C517.32,-104.34 530.91,-92.31 541.82,-82.65"/>
<polygon fill="midnightblue" stroke="midnightblue" points="544.35,-85.08 549.52,-75.83 539.71,-79.84 544.35,-85.08"/>
</g>
<!-- Node8&#45;&gt;Node11 -->
<g id="edge15" class="edge">
<title>Node8&#45;&gt;Node11</title>
<path fill="none" stroke="midnightblue" d="M524.49,-112.44C552.2,-103.32 596.25,-88.81 627.12,-78.65"/>
<polygon fill="midnightblue" stroke="midnightblue" points="628.23,-81.97 636.64,-75.52 626.04,-75.32 628.23,-81.97"/>
</g>
<!-- Node9&#45;&gt;Node4 -->
<g id="edge12" class="edge">
<title>Node9&#45;&gt;Node4</title>
<path fill="none" stroke="midnightblue" d="M524.01,-56.44C482.41,-46.42 413.84,-29.89 371.87,-19.77"/>
<polygon fill="midnightblue" stroke="midnightblue" points="372.6,-16.34 362.06,-17.4 370.96,-23.15 372.6,-16.34"/>
</g>
<!-- Node9&#45;&gt;Node6 -->
<g id="edge13" class="edge">
<title>Node9&#45;&gt;Node6</title>
<path fill="none" stroke="midnightblue" d="M536.68,-56.44C512.67,-47.44 474.67,-33.19 447.63,-23.05"/>
<polygon fill="midnightblue" stroke="midnightblue" points="448.8,-19.75 438.21,-19.52 446.34,-26.3 448.8,-19.75"/>
</g>
<!-- Node10 -->
<g id="node10" class="node">
<title>Node10</title>
<g id="a_node10"><a xlink:title=" ">
<polygon fill="white" stroke="#bfbfbf" points="533,-0.5 533,-19.5 586,-19.5 586,-0.5 533,-0.5"/>
<text text-anchor="middle" x="559.5" y="-7.5" font-family="Helvetica,sans-Serif" font-size="10.00">stdlib.h</text>
</a>
</g>
</g>
<!-- Node9&#45;&gt;Node10 -->
<g id="edge14" class="edge">
<title>Node9&#45;&gt;Node10</title>
<path fill="none" stroke="midnightblue" d="M559.5,-56.08C559.5,-49.01 559.5,-38.86 559.5,-29.99"/>
<polygon fill="midnightblue" stroke="midnightblue" points="563,-29.75 559.5,-19.75 556,-29.75 563,-29.75"/>
</g>
<!-- Node12&#45;&gt;Node4 -->
<g id="edge17" class="edge">
<title>Node12&#45;&gt;Node4</title>
<path fill="none" stroke="midnightblue" d="M234.51,-56.44C254.09,-47.64 284.81,-33.81 307.23,-23.72"/>
<polygon fill="midnightblue" stroke="midnightblue" points="308.89,-26.81 316.57,-19.52 306.02,-20.43 308.89,-26.81"/>
</g>
<!-- Node12&#45;&gt;Node6 -->
<g id="edge18" class="edge">
<title>Node12&#45;&gt;Node6</title>
<path fill="none" stroke="midnightblue" d="M247.19,-56.44C281.67,-47.13 336.9,-32.22 374.62,-22.04"/>
<polygon fill="midnightblue" stroke="midnightblue" points="375.54,-25.41 384.29,-19.43 373.72,-18.66 375.54,-25.41"/>
</g>
<!-- Node13&#45;&gt;Node4 -->
<g id="edge21" class="edge">
<title>Node13&#45;&gt;Node4</title>
<path fill="none" stroke="midnightblue" d="M402.65,-56.32C390.28,-47.98 371.37,-35.21 356.76,-25.35"/>
<polygon fill="midnightblue" stroke="midnightblue" points="358.57,-22.35 348.32,-19.65 354.65,-28.15 358.57,-22.35"/>
</g>
<!-- Node13&#45;&gt;Node6 -->
<g id="edge20" class="edge">
<title>Node13&#45;&gt;Node6</title>
<path fill="none" stroke="midnightblue" d="M415.5,-56.08C415.5,-49.01 415.5,-38.86 415.5,-29.99"/>
<polygon fill="midnightblue" stroke="midnightblue" points="419,-29.75 415.5,-19.75 412,-29.75 419,-29.75"/>
</g>
<!-- Node15 -->
<g id="node15" class="node">
<title>Node15</title>
<g id="a_node15"><a xlink:href="../../d9/d70/mgr__log__rtc_8h.html" target="_top" xlink:title=": Header for mgr_log_rtc.c file. This file contains log routine concerning RTC. Thus there is a depen...">
<polygon fill="white" stroke="black" points="730,-56.5 730,-75.5 813,-75.5 813,-56.5 730,-56.5"/>
<text text-anchor="middle" x="771.5" y="-63.5" font-family="Helvetica,sans-Serif" font-size="10.00">mgr_log_rtc.h</text>
</a>
</g>
</g>
<!-- Node14&#45;&gt;Node15 -->
<g id="edge24" class="edge">
<title>Node14&#45;&gt;Node15</title>
<path fill="none" stroke="midnightblue" d="M738.94,-112.08C744.45,-104.46 752.53,-93.26 759.26,-83.94"/>
<polygon fill="midnightblue" stroke="midnightblue" points="762.16,-85.91 765.18,-75.75 756.49,-81.81 762.16,-85.91"/>
</g>
</g>
</svg>
        <g id="navigator" transform="translate(0 0)" fill="#404254">
                <rect fill="#f2f5e9" fill-opacity="0.5" stroke="#606060" stroke-width=".5" x="0" y="0" width="60" height="60"/>
                <use id="zoomplus" xlink:href="#zoomPlus" x="17" y="9" onmousedown="handleZoom(evt,'in')"/>
                <use id="zoomminus" xlink:href="#zoomMin" x="42" y="9" onmousedown="handleZoom(evt,'out')"/>
                <use id="reset" xlink:href="#resetDef" x="30" y="36" onmousedown="handleReset()"/>
                <g id="arrowUp" xlink:href="#dirArrow" transform="translate(30 24)" onmousedown="handlePan(0,-1)">
                  <use xlink:href="#rim" fill="#404040">
                        <set attributeName="fill" to="#808080" begin="arrowUp.mouseover" end="arrowUp.mouseout"/>
                  </use>
                  <path fill="none" stroke="white" stroke-width="1.5" d="M0,-3.0v7 M-2.5,-0.5L0,-3.0L2.5,-0.5"/>
                </g>
                <g id="arrowRight" xlink:href="#dirArrow" transform="rotate(90) translate(36 -43)" onmousedown="handlePan(1,0)">
                  <use xlink:href="#rim" fill="#404040">
                        <set attributeName="fill" to="#808080" begin="arrowRight.mouseover" end="arrowRight.mouseout"/>
                  </use>
                  <path fill="none" stroke="white" stroke-width="1.5" d="M0,-3.0v7 M-2.5,-0.5L0,-3.0L2.5,-0.5"/>
                </g>
                <g id="arrowDown" xlink:href="#dirArrow" transform="rotate(180) translate(-30 -48)" onmousedown="handlePan(0,1)">
                  <use xlink:href="#rim" fill="#404040">
                        <set attributeName="fill" to="#808080" begin="arrowDown.mouseover" end="arrowDown.mouseout"/>
                  </use>
                  <path fill="none" stroke="white" stroke-width="1.5" d="M0,-3.0v7 M-2.5,-0.5L0,-3.0L2.5,-0.5"/>
                </g>
                <g id="arrowLeft" xlink:href="#dirArrow" transform="rotate(270) translate(-36 17)" onmousedown="handlePan(-1,0)">
                  <use xlink:href="#rim" fill="#404040">
                        <set attributeName="fill" to="#808080" begin="arrowLeft.mouseover" end="arrowLeft.mouseout"/>
                  </use>
                  <path fill="none" stroke="white" stroke-width="1.5" d="M0,-3.0v7 M-2.5,-0.5L0,-3.0L2.5,-0.5"/>
                </g>
        </g>
        <svg viewBox="0 0 15 15" width="100%" height="30px" preserveAspectRatio="xMaxYMin meet">
         <g id="arrow_out" transform="scale(0.3 0.3)">
          <a xlink:href="mgr__at__cmd_8c__incl_org.svg" target="_base">
           <rect id="button" ry="5" rx="5" y="6" x="6" height="38" width="38"
                fill="#f2f5e9" fill-opacity="0.5" stroke="#606060" stroke-width="1.0"/>
           <path id="arrow"
             d="M 11.500037,31.436501 C 11.940474,20.09759 22.043105,11.32322 32.158766,21.979434 L 37.068811,17.246167 C 37.068811,17.246167 37.088388,32 37.088388,32 L 22.160133,31.978069 C 22.160133,31.978069 26.997745,27.140456 26.997745,27.140456 C 18.528582,18.264221 13.291696,25.230495 11.500037,31.436501 z"
             style="fill:#404040;"/>
          </a>
         </g>
        </svg>
</svg>
