<?xml version="1.0" encoding="UTF-8" standalone="no"?>
<!DOCTYPE svg PUBLIC "-//W3C//DTD SVG 1.1//EN"
 "http://www.w3.org/Graphics/SVG/1.1/DTD/svg11.dtd">
<!-- Generated by graphviz version 2.43.0 (0)
 -->
<!-- Title: MCU_AT_CONSOLE_send Pages: 1 -->
<!--zoomable 913 -->
<svg id="main" version="1.1" xmlns="http://www.w3.org/2000/svg" xmlns:xlink="http://www.w3.org/1999/xlink" xml:space="preserve" onload="init(evt)">
<style type="text/css"><![CDATA[
.edge:hover path { stroke: red; }
.edge:hover polygon { stroke: red; fill: red; }
]]></style>
<script type="text/javascript"><![CDATA[
var edges = document.getElementsByTagName('g');
if (edges && edges.length) {
  for (var i=0;i<edges.length;i++) {
    if (edges[i].id.substr(0,4)=='edge') {
      edges[i].setAttribute('class','edge');
    }
  }
}
]]></script>
        <defs>
                <circle id="rim" cx="0" cy="0" r="7"/>
                <circle id="rim2" cx="0" cy="0" r="3.5"/>
                <g id="zoomPlus">
                        <use xlink:href="#rim" fill="#404040">
                                <set attributeName="fill" to="#808080" begin="zoomplus.mouseover" end="zoomplus.mouseout"/>
                        </use>
                        <path d="M-4,0h8M0,-4v8" fill="none" stroke="white" stroke-width="1.5" pointer-events="none"/>
                </g>
                <g id="zoomMin">
                        <use xlink:href="#rim" fill="#404040">
                                <set attributeName="fill" to="#808080" begin="zoomminus.mouseover" end="zoomminus.mouseout"/>
                        </use>
                        <path d="M-4,0h8" fill="none" stroke="white" stroke-width="1.5" pointer-events="none"/>
                </g>
                <g id="dirArrow">
                        <path fill="none" stroke="white" stroke-width="1.5" d="M0,-3.0v7 M-2.5,-0.5L0,-3.0L2.5,-0.5"/>
                </g>
               <g id="resetDef">
                       <use xlink:href="#rim2" fill="#404040">
                               <set attributeName="fill" to="#808080" begin="reset.mouseover" end="reset.mouseout"/>
                       </use>
               </g>
        </defs>

<script type="text/javascript">
var viewWidth = 1086;
var viewHeight = 913;
var sectionId = 'dynsection-5';
</script>
<script xlink:href="../../svgpan.js"/>
<svg id="graph" class="graph">
<g id="viewport">
<title>MCU_AT_CONSOLE_send</title>
<polygon fill="white" stroke="transparent" points="-4,4 -4,-909.32 1082,-909.32 1082,4 -4,4"/>
<!-- Node1 -->
<g id="node1" class="node">
<title>Node1</title>
<g id="a_node1"><a xlink:title="Send AT CMD response to console.">
<polygon fill="#bfbfbf" stroke="black" points="940,-324 940,-343 1078,-343 1078,-324 940,-324"/>
<text text-anchor="middle" x="1009" y="-331" font-family="Helvetica,sans-Serif" font-size="10.00">MCU_AT_CONSOLE_send</text>
</a>
</g>
</g>
<!-- Node2 -->
<g id="node2" class="node">
<title>Node2</title>
<g id="a_node2"><a xlink:href="../../d0/d0f/group___m_g_r___a_t___c_m_d.html#ga204fad5fbc19a59d6c9a498aad156fc5" target="_top" xlink:title=" ">
<polygon fill="white" stroke="black" points="523.5,-856 523.5,-875 675.5,-875 675.5,-856 523.5,-856"/>
<text text-anchor="middle" x="599.5" y="-863" font-family="Helvetica,sans-Serif" font-size="10.00">bMGR_AT_CMD_ADDR_cmd</text>
</a>
</g>
</g>
<!-- Node1&#45;&gt;Node2 -->
<g id="edge1" class="edge">
<title>Node1&#45;&gt;Node2</title>
<path fill="none" stroke="midnightblue" d="M1005.67,-353.17C996.36,-428.93 959.56,-700.75 904,-764.5 846.63,-830.33 745.22,-853.4 675.53,-861.39"/>
<polygon fill="midnightblue" stroke="midnightblue" points="1009.16,-353.46 1006.89,-343.11 1002.21,-352.62 1009.16,-353.46"/>
</g>
<!-- Node3 -->
<g id="node3" class="node">
<title>Node3</title>
<g id="a_node3"><a xlink:href="../../d0/d0f/group___m_g_r___a_t___c_m_d.html#ga292621f6d8d6617d0f06907bae52a96f" target="_top" xlink:title="Process AT command &quot;AT+ATXRP&quot; get/set the repetition number and the period between 2 transmissions.">
<polygon fill="white" stroke="black" points="521.5,-666 521.5,-685 677.5,-685 677.5,-666 521.5,-666"/>
<text text-anchor="middle" x="599.5" y="-673" font-family="Helvetica,sans-Serif" font-size="10.00">bMGR_AT_CMD_ATXRP_cmd</text>
</a>
</g>
</g>
<!-- Node1&#45;&gt;Node3 -->
<g id="edge2" class="edge">
<title>Node1&#45;&gt;Node3</title>
<path fill="none" stroke="midnightblue" d="M1004.25,-353.09C994.95,-396.5 966.93,-501.64 904,-561.5 838.14,-624.15 734.59,-653.12 667.11,-665.98"/>
<polygon fill="midnightblue" stroke="midnightblue" points="1007.69,-353.73 1006.26,-343.23 1000.83,-352.33 1007.69,-353.73"/>
</g>
<!-- Node4 -->
<g id="node4" class="node">
<title>Node4</title>
<g id="a_node4"><a xlink:href="../../d0/d0f/group___m_g_r___a_t___c_m_d.html#gaaa6dc2a43b7e21084f52c8591674d534" target="_top" xlink:title=" ">
<polygon fill="white" stroke="black" points="529.5,-818 529.5,-837 669.5,-837 669.5,-818 529.5,-818"/>
<text text-anchor="middle" x="599.5" y="-825" font-family="Helvetica,sans-Serif" font-size="10.00">bMGR_AT_CMD_FW_cmd</text>
</a>
</g>
</g>
<!-- Node1&#45;&gt;Node4 -->
<g id="edge3" class="edge">
<title>Node1&#45;&gt;Node4</title>
<path fill="none" stroke="midnightblue" d="M1007.65,-353.49C1005.59,-412.97 991.99,-591.46 904,-699.5 844.78,-772.22 736.88,-804.3 666.97,-817.96"/>
<polygon fill="midnightblue" stroke="midnightblue" points="1011.15,-353.32 1007.92,-343.23 1004.15,-353.13 1011.15,-353.32"/>
</g>
<!-- Node5 -->
<g id="node5" class="node">
<title>Node5</title>
<g id="a_node5"><a xlink:href="../../d0/d0f/group___m_g_r___a_t___c_m_d.html#gaf81cad313cfb0badce0d5d0af319fbdc" target="_top" xlink:title=" ">
<polygon fill="white" stroke="black" points="532.5,-780 532.5,-799 666.5,-799 666.5,-780 532.5,-780"/>
<text text-anchor="middle" x="599.5" y="-787" font-family="Helvetica,sans-Serif" font-size="10.00">bMGR_AT_CMD_ID_cmd</text>
</a>
</g>
</g>
<!-- Node1&#45;&gt;Node5 -->
<g id="edge4" class="edge">
<title>Node1&#45;&gt;Node5</title>
<path fill="none" stroke="midnightblue" d="M1004.95,-352.97C996.47,-401.94 968.86,-532.46 904,-618.5 834.86,-710.22 800.17,-724.34 695,-770.5 686.11,-774.4 676.4,-777.51 666.7,-779.98"/>
<polygon fill="midnightblue" stroke="midnightblue" points="1008.41,-353.51 1006.59,-343.07 1001.5,-352.36 1008.41,-353.51"/>
</g>
<!-- Node6 -->
<g id="node6" class="node">
<title>Node6</title>
<g id="a_node6"><a xlink:href="../../d0/d0f/group___m_g_r___a_t___c_m_d.html#ga3d564aff9653e8bdc572d189093f1acc" target="_top" xlink:title="Log in debug interface a failed message.">
<polygon fill="white" stroke="black" points="736.5,-533 736.5,-552 898.5,-552 898.5,-533 736.5,-533"/>
<text text-anchor="middle" x="817.5" y="-540" font-family="Helvetica,sans-Serif" font-size="10.00">bMGR_AT_CMD_logFailedMsg</text>
</a>
</g>
</g>
<!-- Node1&#45;&gt;Node6 -->
<g id="edge5" class="edge">
<title>Node1&#45;&gt;Node6</title>
<path fill="none" stroke="midnightblue" d="M992.58,-350.51C954.48,-392.53 856.86,-500.19 827.19,-532.92"/>
<polygon fill="midnightblue" stroke="midnightblue" points="995.24,-352.78 999.37,-343.02 990.06,-348.08 995.24,-352.78"/>
</g>
<!-- Node10 -->
<g id="node10" class="node">
<title>Node10</title>
<g id="a_node10"><a xlink:href="../../d0/d0f/group___m_g_r___a_t___c_m_d.html#gaed4723249aba7dbe8e17c74eed648f4b" target="_top" xlink:title=" ">
<polygon fill="white" stroke="black" points="527.5,-324 527.5,-343 671.5,-343 671.5,-324 527.5,-324"/>
<text text-anchor="middle" x="599.5" y="-331" font-family="Helvetica,sans-Serif" font-size="10.00">bMGR_AT_CMD_LPM_cmd</text>
</a>
</g>
</g>
<!-- Node1&#45;&gt;Node10 -->
<g id="edge41" class="edge">
<title>Node1&#45;&gt;Node10</title>
<path fill="none" stroke="midnightblue" d="M929.52,-333.5C854.93,-333.5 743.74,-333.5 671.67,-333.5"/>
<polygon fill="midnightblue" stroke="midnightblue" points="929.79,-337 939.79,-333.5 929.79,-330 929.79,-337"/>
</g>
<!-- Node12 -->
<g id="node12" class="node">
<title>Node12</title>
<g id="a_node12"><a xlink:href="../../d0/d0f/group___m_g_r___a_t___c_m_d.html#gafa3e80f7aedfa74c8d16d0202a3f4f07" target="_top" xlink:title="Process AT command &quot;AT+PREPASS_EN&quot; Enabling/disabling PREVIPASS (sat pass prediction) computation,...">
<polygon fill="white" stroke="black" points="529,-274.5 529,-304.5 670,-304.5 670,-274.5 529,-274.5"/>
<text text-anchor="start" x="537" y="-292.5" font-family="Helvetica,sans-Serif" font-size="10.00">bMGR_AT_CMD_PREPASS</text>
<text text-anchor="middle" x="599.5" y="-281.5" font-family="Helvetica,sans-Serif" font-size="10.00">_EN_cmd</text>
</a>
</g>
</g>
<!-- Node1&#45;&gt;Node12 -->
<g id="edge42" class="edge">
<title>Node1&#45;&gt;Node12</title>
<path fill="none" stroke="midnightblue" d="M929.46,-325.02C854.39,-316.91 742.3,-304.81 670.29,-297.04"/>
<polygon fill="midnightblue" stroke="midnightblue" points="929.48,-328.54 939.79,-326.13 930.23,-321.58 929.48,-328.54"/>
</g>
<!-- Node13 -->
<g id="node13" class="node">
<title>Node13</title>
<g id="a_node13"><a xlink:href="../../d0/d0f/group___m_g_r___a_t___c_m_d.html#gaf2dc4b8c03924fc01641182032c31ba5" target="_top" xlink:title=" ">
<polygon fill="white" stroke="black" points="520.5,-236 520.5,-255 678.5,-255 678.5,-236 520.5,-236"/>
<text text-anchor="middle" x="599.5" y="-243" font-family="Helvetica,sans-Serif" font-size="10.00">bMGR_AT_CMD_RCONF_cmd</text>
</a>
</g>
</g>
<!-- Node1&#45;&gt;Node13 -->
<g id="edge43" class="edge">
<title>Node1&#45;&gt;Node13</title>
<path fill="none" stroke="midnightblue" d="M972.62,-320.57C952.67,-313.62 927.17,-305.32 904,-299.5 824.58,-279.56 731.69,-264.16 669.79,-255"/>
<polygon fill="midnightblue" stroke="midnightblue" points="971.63,-323.93 982.22,-323.96 973.96,-317.33 971.63,-323.93"/>
</g>
<!-- Node15 -->
<g id="node15" class="node">
<title>Node15</title>
<g id="a_node15"><a xlink:href="../../d0/d0f/group___m_g_r___a_t___c_m_d.html#ga35554beb51f6f25a760a6d2bb76f7ee8" target="_top" xlink:title=" ">
<polygon fill="white" stroke="black" points="531,-198 531,-217 668,-217 668,-198 531,-198"/>
<text text-anchor="middle" x="599.5" y="-205" font-family="Helvetica,sans-Serif" font-size="10.00">bMGR_AT_CMD_SN_cmd</text>
</a>
</g>
</g>
<!-- Node1&#45;&gt;Node15 -->
<g id="edge46" class="edge">
<title>Node1&#45;&gt;Node15</title>
<path fill="none" stroke="midnightblue" d="M990.18,-317.24C970.56,-300.28 937.35,-274.3 904,-260.5 827.03,-228.64 731.37,-215.93 668.26,-210.86"/>
<polygon fill="midnightblue" stroke="midnightblue" points="987.9,-319.9 997.71,-323.89 992.53,-314.65 987.9,-319.9"/>
</g>
<!-- Node16 -->
<g id="node16" class="node">
<title>Node16</title>
<g id="a_node16"><a xlink:href="../../d0/d0f/group___m_g_r___a_t___c_m_d.html#gafa261eed6f61302c724f74b963bae320" target="_top" xlink:title=" ">
<polygon fill="white" stroke="black" points="516,-160 516,-179 683,-179 683,-160 516,-160"/>
<text text-anchor="middle" x="599.5" y="-167" font-family="Helvetica,sans-Serif" font-size="10.00">bMGR_AT_CMD_VERSION_cmd</text>
</a>
</g>
</g>
<!-- Node1&#45;&gt;Node16 -->
<g id="edge47" class="edge">
<title>Node1&#45;&gt;Node16</title>
<path fill="none" stroke="midnightblue" d="M997.91,-315.11C981.9,-287.89 947.95,-237.53 904,-213.5 835.91,-176.27 746.98,-167.17 683,-166.24"/>
<polygon fill="midnightblue" stroke="midnightblue" points="994.98,-317.05 1002.98,-324 1001.06,-313.58 994.98,-317.05"/>
</g>
<!-- Node19 -->
<g id="node19" class="node">
<title>Node19</title>
<g id="a_node19"><a xlink:href="../../d0/d29/main_8c.html#a840291bc02cba5474a4cb46a9b9566fe" target="_top" xlink:title="The application entry point.">
<polygon fill="white" stroke="black" points="23,-467 23,-486 64,-486 64,-467 23,-467"/>
<text text-anchor="middle" x="43.5" y="-474" font-family="Helvetica,sans-Serif" font-size="10.00">main</text>
</a>
</g>
</g>
<!-- Node1&#45;&gt;Node19 -->
<g id="edge56" class="edge">
<title>Node1&#45;&gt;Node19</title>
<path fill="none" stroke="midnightblue" d="M1006.43,-353.23C999.52,-435.57 969.13,-750.73 904,-821.5 809.37,-924.3 740.23,-903.5 600.5,-903.5 600.5,-903.5 600.5,-903.5 384,-903.5 163.33,-903.5 63.11,-549.78 46.89,-486.22"/>
<polygon fill="midnightblue" stroke="midnightblue" points="1009.93,-353.46 1007.26,-343.21 1002.95,-352.89 1009.93,-353.46"/>
</g>
<!-- Node23 -->
<g id="node23" class="node">
<title>Node23</title>
<g id="a_node23"><a xlink:href="../../d0/d0f/group___m_g_r___a_t___c_m_d.html#gabef580da46cf82ca74ba3e5217cf3ffa" target="_top" xlink:title=": Log in debug interface a succeed message">
<polygon fill="white" stroke="black" points="731,-362 731,-381 904,-381 904,-362 731,-362"/>
<text text-anchor="middle" x="817.5" y="-369" font-family="Helvetica,sans-Serif" font-size="10.00">bMGR_AT_CMD_logSucceedMsg</text>
</a>
</g>
</g>
<!-- Node1&#45;&gt;Node23 -->
<g id="edge30" class="edge">
<title>Node1&#45;&gt;Node23</title>
<path fill="none" stroke="midnightblue" d="M950.11,-345.11C923.15,-350.51 891.49,-356.86 865.97,-361.98"/>
<polygon fill="midnightblue" stroke="midnightblue" points="951.06,-348.49 960.18,-343.09 949.69,-341.62 951.06,-348.49"/>
</g>
<!-- Node25 -->
<g id="node25" class="node">
<title>Node25</title>
<g id="a_node25"><a xlink:href="../../d0/d0f/group___m_g_r___a_t___c_m_d.html#gae5c3c3791220ed4687558e8681648a0d" target="_top" xlink:title=": This function writes in UART the response of specific command">
<polygon fill="white" stroke="black" points="515.5,-84 515.5,-103 683.5,-103 683.5,-84 515.5,-84"/>
<text text-anchor="middle" x="599.5" y="-91" font-family="Helvetica,sans-Serif" font-size="10.00">bMGR_AT_CMD_sendResponse</text>
</a>
</g>
</g>
<!-- Node1&#45;&gt;Node25 -->
<g id="edge44" class="edge">
<title>Node1&#45;&gt;Node25</title>
<path fill="none" stroke="midnightblue" d="M1001.59,-314.07C988.9,-278.72 957.1,-204 904,-165.5 839.94,-119.06 807.31,-144.4 731,-123.5 714.86,-119.08 711.22,-116.6 695,-112.5 681.37,-109.06 666.51,-105.83 652.7,-103.04"/>
<polygon fill="midnightblue" stroke="midnightblue" points="998.34,-315.38 1004.92,-323.69 1004.96,-313.09 998.34,-315.38"/>
</g>
<!-- Node26 -->
<g id="node26" class="node">
<title>Node26</title>
<g id="a_node26"><a xlink:href="../../d0/d29/main_8c.html#a1730ffe1e560465665eb47d9264826f9" target="_top" xlink:title="This function is executed in case of error occurrence.">
<polygon fill="white" stroke="black" points="343.5,-353 343.5,-372 426.5,-372 426.5,-353 343.5,-353"/>
<text text-anchor="middle" x="385" y="-360" font-family="Helvetica,sans-Serif" font-size="10.00">Error_Handler</text>
</a>
</g>
</g>
<!-- Node1&#45;&gt;Node26 -->
<g id="edge48" class="edge">
<title>Node1&#45;&gt;Node26</title>
<path fill="none" stroke="midnightblue" d="M1007.09,-313.75C1003.56,-263.39 986.49,-130.27 904,-74.5 756.72,25.07 651.63,24.55 504,-74.5 403.94,-141.64 388.66,-310.34 386.39,-352.72"/>
<polygon fill="midnightblue" stroke="midnightblue" points="1003.6,-314.15 1007.69,-323.93 1010.59,-313.74 1003.6,-314.15"/>
</g>
<!-- Node32 -->
<g id="node32" class="node">
<title>Node32</title>
<g id="a_node32"><a xlink:href="../../d8/d62/group___m_c_u___a_p_p___w_r_a_p_p_e_r_s.html#gaf6858a5591eaf9e21e59a15188ff6f13" target="_top" xlink:title="Write content of a binary data buffer as AT cmd response.">
<polygon fill="white" stroke="black" points="748.5,-84.5 748.5,-114.5 886.5,-114.5 886.5,-84.5 748.5,-84.5"/>
<text text-anchor="start" x="756.5" y="-102.5" font-family="Helvetica,sans-Serif" font-size="10.00">MCU_AT_CONSOLE_send</text>
<text text-anchor="middle" x="817.5" y="-91.5" font-family="Helvetica,sans-Serif" font-size="10.00">_dataBuf</text>
</a>
</g>
</g>
<!-- Node1&#45;&gt;Node32 -->
<g id="edge57" class="edge">
<title>Node1&#45;&gt;Node32</title>
<path fill="none" stroke="midnightblue" d="M1003.29,-313.91C992.62,-273.61 962.82,-180.92 904,-129.5 897.01,-123.39 888.7,-118.5 880.06,-114.6"/>
<polygon fill="midnightblue" stroke="midnightblue" points="999.95,-314.97 1005.8,-323.81 1006.74,-313.25 999.95,-314.97"/>
</g>
<!-- Node6&#45;&gt;Node2 -->
<g id="edge6" class="edge">
<title>Node6&#45;&gt;Node2</title>
<path fill="none" stroke="midnightblue" d="M814.92,-562.06C809.42,-616.47 786.13,-770.6 695,-846.5 689.34,-851.21 682.84,-854.87 675.94,-857.69"/>
<polygon fill="midnightblue" stroke="midnightblue" points="818.41,-562.3 815.84,-552.02 811.44,-561.66 818.41,-562.3"/>
</g>
<!-- Node6&#45;&gt;Node3 -->
<g id="edge7" class="edge">
<title>Node6&#45;&gt;Node3</title>
<path fill="none" stroke="midnightblue" d="M791.91,-557.57C773.99,-569.19 749.68,-586.3 731,-604.5 712.15,-622.86 716.97,-637.01 695,-651.5 685.39,-657.84 674.22,-662.5 662.99,-665.93"/>
<polygon fill="midnightblue" stroke="midnightblue" points="794.08,-560.34 800.64,-552.02 790.32,-554.44 794.08,-560.34"/>
</g>
<!-- Node6&#45;&gt;Node4 -->
<g id="edge9" class="edge">
<title>Node6&#45;&gt;Node4</title>
<path fill="none" stroke="midnightblue" d="M810.19,-561.97C791.77,-617.6 736.77,-775.38 695,-808.5 687.66,-814.32 679,-818.51 669.97,-821.49"/>
<polygon fill="midnightblue" stroke="midnightblue" points="813.58,-562.87 813.37,-552.27 806.93,-560.68 813.58,-562.87"/>
</g>
<!-- Node6&#45;&gt;Node5 -->
<g id="edge12" class="edge">
<title>Node6&#45;&gt;Node5</title>
<path fill="none" stroke="midnightblue" d="M801.04,-559.86C782.24,-581.73 750.6,-621.13 731,-659.5 707.4,-705.68 733.72,-736 695,-770.5 687,-777.62 677.1,-782.37 666.74,-785.49"/>
<polygon fill="midnightblue" stroke="midnightblue" points="803.86,-561.95 807.79,-552.11 798.58,-557.35 803.86,-561.95"/>
</g>
<!-- Node7 -->
<g id="node7" class="node">
<title>Node7</title>
<g id="a_node7"><a xlink:href="../../d0/d0f/group___m_g_r___a_t___c_m_d.html#gafccf5cd6468be2c39af4c4c599d48ef8" target="_top" xlink:title="Process AT command &quot;AT+CW&quot;.">
<polygon fill="white" stroke="black" points="315,-552 315,-571 455,-571 455,-552 315,-552"/>
<text text-anchor="middle" x="385" y="-559" font-family="Helvetica,sans-Serif" font-size="10.00">bMGR_AT_CMD_CW_cmd</text>
</a>
</g>
</g>
<!-- Node6&#45;&gt;Node7 -->
<g id="edge8" class="edge">
<title>Node6&#45;&gt;Node7</title>
<path fill="none" stroke="midnightblue" d="M726.12,-546.49C645.34,-550.05 528.7,-555.2 455.15,-558.45"/>
<polygon fill="midnightblue" stroke="midnightblue" points="726.45,-549.98 736.28,-546.04 726.14,-542.98 726.45,-549.98"/>
</g>
<!-- Node8 -->
<g id="node8" class="node">
<title>Node8</title>
<g id="a_node8"><a xlink:href="../../d0/d0f/group___m_g_r___a_t___c_m_d.html#gaaa9bdf10c9ac69ef778eea22f8225343" target="_top" xlink:title="Handle new TX data, this is the core function of AT+TX cmd.">
<polygon fill="white" stroke="black" points="505.5,-742 505.5,-761 693.5,-761 693.5,-742 505.5,-742"/>
<text text-anchor="middle" x="599.5" y="-749" font-family="Helvetica,sans-Serif" font-size="10.00">bMGR_AT_CMD_handleNewTxData</text>
</a>
</g>
</g>
<!-- Node6&#45;&gt;Node8 -->
<g id="edge10" class="edge">
<title>Node6&#45;&gt;Node8</title>
<path fill="none" stroke="midnightblue" d="M802.38,-560.12C784.71,-582.54 753.97,-622.78 731,-659.5 712.86,-688.49 721.88,-706.36 695,-727.5 687.02,-733.78 677.58,-738.43 667.82,-741.88"/>
<polygon fill="midnightblue" stroke="midnightblue" points="805.21,-562.19 808.68,-552.18 799.72,-557.84 805.21,-562.19"/>
</g>
<!-- Node9 -->
<g id="node9" class="node">
<title>Node9</title>
<g id="a_node9"><a xlink:href="../../d0/d0f/group___m_g_r___a_t___c_m_d.html#ga0a4332fc4f8bad99c421588fe542a2bd" target="_top" xlink:title="Process AT command &quot;AT+TX&quot; send user data.">
<polygon fill="white" stroke="black" points="316.5,-723 316.5,-742 453.5,-742 453.5,-723 316.5,-723"/>
<text text-anchor="middle" x="385" y="-730" font-family="Helvetica,sans-Serif" font-size="10.00">bMGR_AT_CMD_TX_cmd</text>
</a>
</g>
</g>
<!-- Node6&#45;&gt;Node9 -->
<g id="edge19" class="edge">
<title>Node6&#45;&gt;Node9</title>
<path fill="none" stroke="midnightblue" d="M803.31,-560.51C774.98,-598.96 709.68,-686.3 695,-694.5 654.89,-716.9 531.79,-726.31 453.61,-730.1"/>
<polygon fill="midnightblue" stroke="midnightblue" points="806.27,-562.4 809.37,-552.27 800.63,-558.25 806.27,-562.4"/>
</g>
<!-- Node6&#45;&gt;Node10 -->
<g id="edge13" class="edge">
<title>Node6&#45;&gt;Node10</title>
<path fill="none" stroke="midnightblue" d="M799.46,-526.01C756.42,-484.37 644.36,-375.94 610.4,-343.08"/>
<polygon fill="midnightblue" stroke="midnightblue" points="797.04,-528.54 806.66,-532.98 801.9,-523.51 797.04,-528.54"/>
</g>
<!-- Node11 -->
<g id="node11" class="node">
<title>Node11</title>
<g id="a_node11"><a xlink:href="../../d0/d0f/group___m_g_r___a_t___c_m_d.html#gad504c930c0c0222576334c21940e245e" target="_top" xlink:title=" ">
<polygon fill="white" stroke="black" points="525.5,-476 525.5,-495 673.5,-495 673.5,-476 525.5,-476"/>
<text text-anchor="middle" x="599.5" y="-483" font-family="Helvetica,sans-Serif" font-size="10.00">bMGR_AT_CMD_PING_cmd</text>
</a>
</g>
</g>
<!-- Node6&#45;&gt;Node11 -->
<g id="edge14" class="edge">
<title>Node6&#45;&gt;Node11</title>
<path fill="none" stroke="midnightblue" d="M772.16,-530.27C749.16,-523.97 720.6,-516.23 695,-509.5 676.5,-504.64 655.92,-499.39 638.7,-495.05"/>
<polygon fill="midnightblue" stroke="midnightblue" points="771.41,-533.69 781.98,-532.96 773.26,-526.94 771.41,-533.69"/>
</g>
<!-- Node6&#45;&gt;Node12 -->
<g id="edge15" class="edge">
<title>Node6&#45;&gt;Node12</title>
<path fill="none" stroke="midnightblue" d="M805.43,-523.82C788.7,-495.37 756.26,-439.33 731,-390.5 713.83,-357.3 723.74,-338.39 695,-314.5 687.69,-308.42 679.06,-303.81 670.03,-300.31"/>
<polygon fill="midnightblue" stroke="midnightblue" points="802.56,-525.84 810.65,-532.67 808.59,-522.28 802.56,-525.84"/>
</g>
<!-- Node6&#45;&gt;Node13 -->
<g id="edge16" class="edge">
<title>Node6&#45;&gt;Node13</title>
<path fill="none" stroke="midnightblue" d="M804.41,-524.29C786.36,-496.46 752.23,-441.22 731,-390.5 708.68,-337.17 737.32,-304.88 695,-265.5 690.21,-261.04 684.69,-257.48 678.77,-254.64"/>
<polygon fill="midnightblue" stroke="midnightblue" points="801.67,-526.5 810.07,-532.94 807.52,-522.66 801.67,-526.5"/>
</g>
<!-- Node14 -->
<g id="node14" class="node">
<title>Node14</title>
<g id="a_node14"><a xlink:href="../../d0/d0f/group___m_g_r___a_t___c_m_d.html#ga02e2a055602cf05cffff4e57ef414e50" target="_top" xlink:title=" ">
<polygon fill="white" stroke="black" points="504.5,-438 504.5,-457 694.5,-457 694.5,-438 504.5,-438"/>
<text text-anchor="middle" x="599.5" y="-445" font-family="Helvetica,sans-Serif" font-size="10.00">bMGR_AT_CMD_SAVE_RCONF_cmd</text>
</a>
</g>
</g>
<!-- Node6&#45;&gt;Node14 -->
<g id="edge17" class="edge">
<title>Node6&#45;&gt;Node14</title>
<path fill="none" stroke="midnightblue" d="M796.53,-526.81C773.41,-509.42 733.54,-481.83 695,-466.5 685.28,-462.63 674.68,-459.52 664.2,-457.03"/>
<polygon fill="midnightblue" stroke="midnightblue" points="794.46,-529.63 804.54,-532.92 798.71,-524.07 794.46,-529.63"/>
</g>
<!-- Node6&#45;&gt;Node15 -->
<g id="edge18" class="edge">
<title>Node6&#45;&gt;Node15</title>
<path fill="none" stroke="midnightblue" d="M803.96,-524.41C785.37,-496.78 750.57,-441.84 731,-390.5 704.42,-320.77 748.23,-278.8 695,-226.5 687.6,-219.23 678.24,-214.36 668.31,-211.17"/>
<polygon fill="midnightblue" stroke="midnightblue" points="801.08,-526.4 809.6,-532.69 806.86,-522.46 801.08,-526.4"/>
</g>
<!-- Node6&#45;&gt;Node16 -->
<g id="edge20" class="edge">
<title>Node6&#45;&gt;Node16</title>
<path fill="none" stroke="midnightblue" d="M803.7,-524.51C784.77,-497 749.55,-442.22 731,-390.5 700.21,-304.66 758.77,-253.69 695,-188.5 691.37,-184.79 687.24,-181.7 682.77,-179.14"/>
<polygon fill="midnightblue" stroke="midnightblue" points="800.86,-526.55 809.45,-532.75 806.6,-522.54 800.86,-526.55"/>
</g>
<!-- Node17 -->
<g id="node17" class="node">
<title>Node17</title>
<g id="a_node17"><a xlink:href="../../d0/d0f/group___m_g_r___a_t___c_m_d.html#ga9cef55cf869d8f8c3eaf6a49ca61b5d2" target="_top" xlink:title="Decode and exectue AT cmd if valid.">
<polygon fill="white" stroke="black" points="316.5,-628 316.5,-647 453.5,-647 453.5,-628 316.5,-628"/>
<text text-anchor="middle" x="385" y="-635" font-family="Helvetica,sans-Serif" font-size="10.00">MGR_AT_CMD_decodeAt</text>
</a>
</g>
</g>
<!-- Node6&#45;&gt;Node17 -->
<g id="edge21" class="edge">
<title>Node6&#45;&gt;Node17</title>
<path fill="none" stroke="midnightblue" d="M797.6,-558.59C774.92,-576.83 734.92,-605.7 695,-618.5 615.03,-644.13 517.57,-645.55 453.76,-642.77"/>
<polygon fill="midnightblue" stroke="midnightblue" points="799.91,-561.22 805.41,-552.17 795.46,-555.82 799.91,-561.22"/>
</g>
<!-- Node20 -->
<g id="node20" class="node">
<title>Node20</title>
<g id="a_node20"><a xlink:href="../../d0/d0f/group___m_g_r___a_t___c_m_d.html#ga1a39b3c9cd76d50537a8bc42087ed46f" target="_top" xlink:title="Fct used to retreive and process event coming from kineis stack as answers to AT commands.">
<polygon fill="white" stroke="black" points="302,-438 302,-457 468,-457 468,-438 302,-438"/>
<text text-anchor="middle" x="385" y="-445" font-family="Helvetica,sans-Serif" font-size="10.00">MGR_AT_CMD_macEvtProcess</text>
</a>
</g>
</g>
<!-- Node6&#45;&gt;Node20 -->
<g id="edge24" class="edge">
<title>Node6&#45;&gt;Node20</title>
<path fill="none" stroke="midnightblue" d="M726.03,-539.35C662.77,-535.26 576.9,-525.9 504,-504.5 465.36,-493.16 423.74,-470.25 401.74,-457.19"/>
<polygon fill="midnightblue" stroke="midnightblue" points="726.19,-542.87 736.38,-539.99 726.62,-535.88 726.19,-542.87"/>
</g>
<!-- Node21 -->
<g id="node21" class="node">
<title>Node21</title>
<g id="a_node21"><a xlink:href="../../d0/d0f/group___m_g_r___a_t___c_m_d.html#ga60486b23c6850d01bbb1e29875cd24f4" target="_top" xlink:title="Send random TX data as per RF configuration.">
<polygon fill="white" stroke="black" points="504,-590 504,-609 695,-609 695,-590 504,-590"/>
<text text-anchor="middle" x="599.5" y="-597" font-family="Helvetica,sans-Serif" font-size="10.00">MGR_AT_CMD_sendRandomTxData</text>
</a>
</g>
</g>
<!-- Node6&#45;&gt;Node21 -->
<g id="edge26" class="edge">
<title>Node6&#45;&gt;Node21</title>
<path fill="none" stroke="midnightblue" d="M772.16,-554.73C749.16,-561.03 720.6,-568.77 695,-575.5 676.5,-580.36 655.92,-585.61 638.7,-589.95"/>
<polygon fill="midnightblue" stroke="midnightblue" points="773.26,-558.06 781.98,-552.04 771.41,-551.31 773.26,-558.06"/>
</g>
<!-- Node8&#45;&gt;Node9 -->
<g id="edge11" class="edge">
<title>Node8&#45;&gt;Node9</title>
<path fill="none" stroke="midnightblue" d="M495.06,-742.25C480.97,-740.99 466.82,-739.73 453.59,-738.54"/>
<polygon fill="midnightblue" stroke="midnightblue" points="495.02,-745.76 505.29,-743.17 495.65,-738.79 495.02,-745.76"/>
</g>
<!-- Node18 -->
<g id="node18" class="node">
<title>Node18</title>
<g id="a_node18"><a xlink:href="../../dd/d41/group___k_n_s___a_p_p.html#ga06543de003a98e82570c572ce5e1240c" target="_top" xlink:title="This fct is the application expected to run in front of the GUI.">
<polygon fill="white" stroke="black" points="141,-486 141,-505 248,-505 248,-486 141,-486"/>
<text text-anchor="middle" x="194.5" y="-493" font-family="Helvetica,sans-Serif" font-size="10.00">KNS_APP_gui_loop</text>
</a>
</g>
</g>
<!-- Node17&#45;&gt;Node18 -->
<g id="edge22" class="edge">
<title>Node17&#45;&gt;Node18</title>
<path fill="none" stroke="midnightblue" d="M313.35,-624.28C309.41,-622.58 305.59,-620.66 302,-618.5 252.89,-588.9 214.7,-528.9 200.99,-505.33"/>
<polygon fill="midnightblue" stroke="midnightblue" points="312.16,-627.57 322.75,-627.86 314.65,-621.03 312.16,-627.57"/>
</g>
<!-- Node18&#45;&gt;Node19 -->
<g id="edge23" class="edge">
<title>Node18&#45;&gt;Node19</title>
<path fill="none" stroke="midnightblue" d="M130.81,-487.51C106.81,-484.44 81.13,-481.17 64.08,-479"/>
<polygon fill="midnightblue" stroke="midnightblue" points="130.61,-491.01 140.97,-488.8 131.49,-484.06 130.61,-491.01"/>
</g>
<!-- Node20&#45;&gt;Node18 -->
<g id="edge25" class="edge">
<title>Node20&#45;&gt;Node18</title>
<path fill="none" stroke="midnightblue" d="M336.29,-459.65C304.3,-467.79 262.78,-478.37 233.13,-485.92"/>
<polygon fill="midnightblue" stroke="midnightblue" points="337.48,-462.96 346.31,-457.1 335.75,-456.17 337.48,-462.96"/>
</g>
<!-- Node21&#45;&gt;Node7 -->
<g id="edge27" class="edge">
<title>Node21&#45;&gt;Node7</title>
<path fill="none" stroke="midnightblue" d="M535.05,-588.15C504.56,-582.7 468.42,-576.24 439.37,-571.04"/>
<polygon fill="midnightblue" stroke="midnightblue" points="534.69,-591.64 545.15,-589.96 535.92,-584.75 534.69,-591.64"/>
</g>
<!-- Node22 -->
<g id="node22" class="node">
<title>Node22</title>
<g id="a_node22"><a xlink:href="../../d0/d0f/group___m_g_r___a_t___c_m_d.html#gafccb1dfaf28ab371bebd814a3abaa57c" target="_top" xlink:title="Callback function notifying end of TX processing in case of modulated wave.">
<polygon fill="white" stroke="black" points="339,-590 339,-609 431,-609 431,-590 339,-590"/>
<text text-anchor="middle" x="385" y="-597" font-family="Helvetica,sans-Serif" font-size="10.00">eoAtMW_isr_cb</text>
</a>
</g>
</g>
<!-- Node21&#45;&gt;Node22 -->
<g id="edge28" class="edge">
<title>Node21&#45;&gt;Node22</title>
<path fill="none" stroke="midnightblue" d="M493.66,-592.75C471.66,-592.73 449.59,-593.1 431.2,-593.86"/>
<polygon fill="midnightblue" stroke="midnightblue" points="493.74,-596.25 503.75,-592.78 493.76,-589.25 493.74,-596.25"/>
</g>
<!-- Node22&#45;&gt;Node21 -->
<g id="edge29" class="edge">
<title>Node22&#45;&gt;Node21</title>
<path fill="none" stroke="midnightblue" d="M441.21,-605.5C460.34,-606.11 482.36,-606.35 503.75,-606.21"/>
<polygon fill="midnightblue" stroke="midnightblue" points="441.32,-602 431.2,-605.14 441.07,-609 441.32,-602"/>
</g>
<!-- Node23&#45;&gt;Node3 -->
<g id="edge31" class="edge">
<title>Node23&#45;&gt;Node3</title>
<path fill="none" stroke="midnightblue" d="M804.93,-389.94C787.56,-418.07 754.28,-473.69 731,-523.5 711.88,-564.4 723.92,-583.82 695,-618.5 676.35,-640.86 646.53,-656.77 625.38,-665.99"/>
<polygon fill="midnightblue" stroke="midnightblue" points="808.06,-391.53 810.37,-381.19 802.12,-387.83 808.06,-391.53"/>
</g>
<!-- Node23&#45;&gt;Node7 -->
<g id="edge32" class="edge">
<title>Node23&#45;&gt;Node7</title>
<path fill="none" stroke="midnightblue" d="M759.48,-383.05C739.15,-387.1 716.07,-391.6 695,-395.5 610.29,-411.18 579.26,-386.59 504,-428.5 496.82,-432.5 419.9,-521.91 394.26,-551.84"/>
<polygon fill="midnightblue" stroke="midnightblue" points="760.4,-386.44 769.53,-381.05 759.03,-379.57 760.4,-386.44"/>
</g>
<!-- Node23&#45;&gt;Node10 -->
<g id="edge33" class="edge">
<title>Node23&#45;&gt;Node10</title>
<path fill="none" stroke="midnightblue" d="M752.41,-360.22C721.33,-354.76 684.41,-348.26 654.75,-343.04"/>
<polygon fill="midnightblue" stroke="midnightblue" points="751.82,-363.67 762.27,-361.96 753.03,-356.78 751.82,-363.67"/>
</g>
<!-- Node23&#45;&gt;Node11 -->
<g id="edge34" class="edge">
<title>Node23&#45;&gt;Node11</title>
<path fill="none" stroke="midnightblue" d="M800.33,-388.3C778.51,-409.9 737.47,-446.97 695,-466.5 686.49,-470.41 677.17,-473.53 667.82,-476"/>
<polygon fill="midnightblue" stroke="midnightblue" points="802.91,-390.66 807.46,-381.1 797.94,-385.73 802.91,-390.66"/>
</g>
<!-- Node23&#45;&gt;Node12 -->
<g id="edge35" class="edge">
<title>Node23&#45;&gt;Node12</title>
<path fill="none" stroke="midnightblue" d="M789.88,-357.31C765.65,-344.8 728.64,-326.73 695,-314.5 685.03,-310.88 674.3,-307.53 663.77,-304.55"/>
<polygon fill="midnightblue" stroke="midnightblue" points="788.33,-360.44 798.82,-361.96 791.57,-354.24 788.33,-360.44"/>
</g>
<!-- Node23&#45;&gt;Node13 -->
<g id="edge36" class="edge">
<title>Node23&#45;&gt;Node13</title>
<path fill="none" stroke="midnightblue" d="M801.96,-354.18C780.91,-330.31 739.59,-287.75 695,-265.5 686.3,-261.16 676.69,-257.75 667.03,-255.09"/>
<polygon fill="midnightblue" stroke="midnightblue" points="799.34,-356.5 808.52,-361.77 804.63,-351.92 799.34,-356.5"/>
</g>
<!-- Node23&#45;&gt;Node14 -->
<g id="edge37" class="edge">
<title>Node23&#45;&gt;Node14</title>
<path fill="none" stroke="midnightblue" d="M787.31,-385.52C763,-396.81 727.28,-412.57 695,-423.5 678.65,-429.04 660.32,-433.97 644.19,-437.91"/>
<polygon fill="midnightblue" stroke="midnightblue" points="789.1,-388.54 796.67,-381.12 786.13,-382.21 789.1,-388.54"/>
</g>
<!-- Node23&#45;&gt;Node20 -->
<g id="edge39" class="edge">
<title>Node23&#45;&gt;Node20</title>
<path fill="none" stroke="midnightblue" d="M720.46,-370.54C657.95,-371.94 575.12,-377.65 504,-395.5 466.22,-404.98 425.28,-425.6 402.94,-437.83"/>
<polygon fill="midnightblue" stroke="midnightblue" points="720.77,-374.04 730.7,-370.34 720.64,-367.04 720.77,-374.04"/>
</g>
<!-- Node23&#45;&gt;Node21 -->
<g id="edge40" class="edge">
<title>Node23&#45;&gt;Node21</title>
<path fill="none" stroke="midnightblue" d="M800.88,-389.07C777.98,-414.72 733.78,-463.82 695,-504.5 664.66,-536.32 627.61,-572.94 610.3,-589.92"/>
<polygon fill="midnightblue" stroke="midnightblue" points="803.76,-391.1 807.8,-381.31 798.53,-386.44 803.76,-391.1"/>
</g>
<!-- Node24 -->
<g id="node24" class="node">
<title>Node24</title>
<g id="a_node24"><a xlink:href="../../d0/d0f/group___m_g_r___a_t___c_m_d.html#ga166c0300322bd71368b25fe8c351eb9b" target="_top" xlink:title=" ">
<polygon fill="white" stroke="black" points="521,-122 521,-141 678,-141 678,-122 521,-122"/>
<text text-anchor="middle" x="599.5" y="-129" font-family="Helvetica,sans-Serif" font-size="10.00">bMGR_AT_CMD_UDATE_cmd</text>
</a>
</g>
</g>
<!-- Node23&#45;&gt;Node24 -->
<g id="edge38" class="edge">
<title>Node23&#45;&gt;Node24</title>
<path fill="none" stroke="midnightblue" d="M811.74,-351.87C800.06,-308.11 765.61,-202.33 695,-150.5 689.87,-146.74 684.19,-143.67 678.22,-141.18"/>
<polygon fill="midnightblue" stroke="midnightblue" points="808.36,-352.77 814.23,-361.59 815.14,-351.03 808.36,-352.77"/>
</g>
<!-- Node25&#45;&gt;Node20 -->
<g id="edge45" class="edge">
<title>Node25&#45;&gt;Node20</title>
<path fill="none" stroke="midnightblue" d="M507.36,-109.24C506.19,-110.27 505.07,-111.35 504,-112.5 421.54,-200.53 527.21,-276.41 468,-381.5 453.38,-407.45 424.13,-427.11 404.81,-437.97"/>
<polygon fill="midnightblue" stroke="midnightblue" points="509.6,-111.93 515.61,-103.21 505.47,-106.28 509.6,-111.93"/>
</g>
<!-- Node26&#45;&gt;Node19 -->
<g id="edge52" class="edge">
<title>Node26&#45;&gt;Node19</title>
<path fill="none" stroke="midnightblue" d="M333.15,-360.86C278.48,-361.1 190.37,-367.38 123,-400.5 90.83,-416.32 63.37,-450.2 51.2,-466.86"/>
<polygon fill="midnightblue" stroke="midnightblue" points="333.28,-364.36 343.29,-360.88 333.3,-357.36 333.28,-364.36"/>
</g>
<!-- Node27 -->
<g id="node27" class="node">
<title>Node27</title>
<g id="a_node27"><a xlink:href="../../d9/d2f/group___k_i_n_e_i_s___s_w___c_o_n_f.html#ga530a6753c266d92335600fbc8c47da6d" target="_top" xlink:title="Handle assert reported by Kineis stack,.">
<polygon fill="white" stroke="black" points="143.5,-334 143.5,-353 245.5,-353 245.5,-334 143.5,-334"/>
<text text-anchor="middle" x="194.5" y="-341" font-family="Helvetica,sans-Serif" font-size="10.00">kns_assert_failed</text>
</a>
</g>
</g>
<!-- Node26&#45;&gt;Node27 -->
<g id="edge49" class="edge">
<title>Node26&#45;&gt;Node27</title>
<path fill="none" stroke="midnightblue" d="M333.03,-357.36C305.93,-354.63 272.72,-351.28 245.72,-348.56"/>
<polygon fill="midnightblue" stroke="midnightblue" points="332.8,-360.86 343.1,-358.38 333.5,-353.89 332.8,-360.86"/>
</g>
<!-- Node28 -->
<g id="node28" class="node">
<title>Node28</title>
<g id="a_node28"><a xlink:href="../../db/dca/group___m_g_r___l_p_m.html#gab502b89f35dcc87b365658836f69736e" target="_top" xlink:title="System Clock Configuration when exit from stop mode.">
<polygon fill="white" stroke="black" points="123,-284.5 123,-314.5 266,-314.5 266,-284.5 123,-284.5"/>
<text text-anchor="start" x="131" y="-302.5" font-family="Helvetica,sans-Serif" font-size="10.00">LPM_SystemClock_Config</text>
<text text-anchor="middle" x="194.5" y="-291.5" font-family="Helvetica,sans-Serif" font-size="10.00">_RestoreFromStop</text>
</a>
</g>
</g>
<!-- Node26&#45;&gt;Node28 -->
<g id="edge50" class="edge">
<title>Node26&#45;&gt;Node28</title>
<path fill="none" stroke="midnightblue" d="M345.55,-349.65C315.13,-339.48 272.6,-325.27 240.58,-314.56"/>
<polygon fill="midnightblue" stroke="midnightblue" points="344.78,-353.08 355.37,-352.93 347,-346.44 344.78,-353.08"/>
</g>
<!-- Node30 -->
<g id="node30" class="node">
<title>Node30</title>
<g id="a_node30"><a xlink:href="../../d8/d5d/group___m_c_u___w_r_a_p_p_e_r_s.html#gaf68cb2253430ce4b7743a51d34430028" target="_top" xlink:title="Function used to start the timer for a specific delay.">
<polygon fill="white" stroke="black" points="149,-410 149,-429 240,-429 240,-410 149,-410"/>
<text text-anchor="middle" x="194.5" y="-417" font-family="Helvetica,sans-Serif" font-size="10.00">MCU_TIM_start</text>
</a>
</g>
</g>
<!-- Node26&#45;&gt;Node30 -->
<g id="edge53" class="edge">
<title>Node26&#45;&gt;Node30</title>
<path fill="none" stroke="midnightblue" d="M342.6,-375.02C307.82,-385.54 258.86,-400.34 227.15,-409.93"/>
<polygon fill="midnightblue" stroke="midnightblue" points="343.89,-378.28 352.45,-372.04 341.86,-371.58 343.89,-378.28"/>
</g>
<!-- Node31 -->
<g id="node31" class="node">
<title>Node31</title>
<g id="a_node31"><a xlink:href="../../d0/d29/main_8c.html#a70af21c671abfcc773614a9a4f63d920" target="_top" xlink:title="System Clock Configuration.">
<polygon fill="white" stroke="black" points="136,-448 136,-467 253,-467 253,-448 136,-448"/>
<text text-anchor="middle" x="194.5" y="-455" font-family="Helvetica,sans-Serif" font-size="10.00">SystemClock_Config</text>
</a>
</g>
</g>
<!-- Node26&#45;&gt;Node31 -->
<g id="edge54" class="edge">
<title>Node26&#45;&gt;Node31</title>
<path fill="none" stroke="midnightblue" d="M363.84,-378.27C341.19,-395.3 302.77,-422.18 266,-438.5 257.66,-442.2 248.43,-445.32 239.48,-447.9"/>
<polygon fill="midnightblue" stroke="midnightblue" points="366.15,-380.91 371.98,-372.06 361.91,-375.34 366.15,-380.91"/>
</g>
<!-- Node29 -->
<g id="node29" class="node">
<title>Node29</title>
<g id="a_node29"><a xlink:href="../../db/dca/group___m_g_r___l_p_m.html#ga2dfaa58a8d7f90840153f1f06542fd13" target="_top" xlink:title="System callback invoked by MGR_LPM at STOP mode exit.">
<polygon fill="white" stroke="black" points="0,-290 0,-309 87,-309 87,-290 0,-290"/>
<text text-anchor="middle" x="43.5" y="-297" font-family="Helvetica,sans-Serif" font-size="10.00">LPM_stop_exit</text>
</a>
</g>
</g>
<!-- Node28&#45;&gt;Node29 -->
<g id="edge51" class="edge">
<title>Node28&#45;&gt;Node29</title>
<path fill="none" stroke="midnightblue" d="M112.93,-299.5C104.09,-299.5 95.36,-299.5 87.26,-299.5"/>
<polygon fill="midnightblue" stroke="midnightblue" points="112.93,-303 122.93,-299.5 112.93,-296 112.93,-303"/>
</g>
<!-- Node31&#45;&gt;Node19 -->
<g id="edge55" class="edge">
<title>Node31&#45;&gt;Node19</title>
<path fill="none" stroke="midnightblue" d="M125.96,-466.11C103.41,-468.99 80,-471.97 64.1,-474"/>
<polygon fill="midnightblue" stroke="midnightblue" points="126.42,-469.58 135.89,-464.84 125.53,-462.64 126.42,-469.58"/>
</g>
<!-- Node32&#45;&gt;Node25 -->
<g id="edge58" class="edge">
<title>Node32&#45;&gt;Node25</title>
<path fill="none" stroke="midnightblue" d="M738.18,-97.32C720.49,-96.83 701.65,-96.31 683.76,-95.81"/>
<polygon fill="midnightblue" stroke="midnightblue" points="738.36,-100.83 748.45,-97.61 738.55,-93.83 738.36,-100.83"/>
</g>
</g>
</svg>
        <g id="navigator" transform="translate(0 0)" fill="#404254">
                <rect fill="#f2f5e9" fill-opacity="0.5" stroke="#606060" stroke-width=".5" x="0" y="0" width="60" height="60"/>
                <use id="zoomplus" xlink:href="#zoomPlus" x="17" y="9" onmousedown="handleZoom(evt,'in')"/>
                <use id="zoomminus" xlink:href="#zoomMin" x="42" y="9" onmousedown="handleZoom(evt,'out')"/>
                <use id="reset" xlink:href="#resetDef" x="30" y="36" onmousedown="handleReset()"/>
                <g id="arrowUp" xlink:href="#dirArrow" transform="translate(30 24)" onmousedown="handlePan(0,-1)">
                  <use xlink:href="#rim" fill="#404040">
                        <set attributeName="fill" to="#808080" begin="arrowUp.mouseover" end="arrowUp.mouseout"/>
                  </use>
                  <path fill="none" stroke="white" stroke-width="1.5" d="M0,-3.0v7 M-2.5,-0.5L0,-3.0L2.5,-0.5"/>
                </g>
                <g id="arrowRight" xlink:href="#dirArrow" transform="rotate(90) translate(36 -43)" onmousedown="handlePan(1,0)">
                  <use xlink:href="#rim" fill="#404040">
                        <set attributeName="fill" to="#808080" begin="arrowRight.mouseover" end="arrowRight.mouseout"/>
                  </use>
                  <path fill="none" stroke="white" stroke-width="1.5" d="M0,-3.0v7 M-2.5,-0.5L0,-3.0L2.5,-0.5"/>
                </g>
                <g id="arrowDown" xlink:href="#dirArrow" transform="rotate(180) translate(-30 -48)" onmousedown="handlePan(0,1)">
                  <use xlink:href="#rim" fill="#404040">
                        <set attributeName="fill" to="#808080" begin="arrowDown.mouseover" end="arrowDown.mouseout"/>
                  </use>
                  <path fill="none" stroke="white" stroke-width="1.5" d="M0,-3.0v7 M-2.5,-0.5L0,-3.0L2.5,-0.5"/>
                </g>
                <g id="arrowLeft" xlink:href="#dirArrow" transform="rotate(270) translate(-36 17)" onmousedown="handlePan(-1,0)">
                  <use xlink:href="#rim" fill="#404040">
                        <set attributeName="fill" to="#808080" begin="arrowLeft.mouseover" end="arrowLeft.mouseout"/>
                  </use>
                  <path fill="none" stroke="white" stroke-width="1.5" d="M0,-3.0v7 M-2.5,-0.5L0,-3.0L2.5,-0.5"/>
                </g>
        </g>
        <svg viewBox="0 0 15 15" width="100%" height="30px" preserveAspectRatio="xMaxYMin meet">
         <g id="arrow_out" transform="scale(0.3 0.3)">
          <a xlink:href="group___m_c_u___a_p_p___w_r_a_p_p_e_r_s_gae14ee3e1d2a9b459c0d89c451a4bc470_icgraph_org.svg" target="_base">
           <rect id="button" ry="5" rx="5" y="6" x="6" height="38" width="38"
                fill="#f2f5e9" fill-opacity="0.5" stroke="#606060" stroke-width="1.0"/>
           <path id="arrow"
             d="M 11.500037,31.436501 C 11.940474,20.09759 22.043105,11.32322 32.158766,21.979434 L 37.068811,17.246167 C 37.068811,17.246167 37.088388,32 37.088388,32 L 22.160133,31.978069 C 22.160133,31.978069 26.997745,27.140456 26.997745,27.140456 C 18.528582,18.264221 13.291696,25.230495 11.500037,31.436501 z"
             style="fill:#404040;"/>
          </a>
         </g>
        </svg>
</svg>
