<?xml version="1.0" encoding="UTF-8" standalone="no"?>
<!DOCTYPE svg PUBLIC "-//W3C//DTD SVG 1.1//EN"
 "http://www.w3.org/Graphics/SVG/1.1/DTD/svg11.dtd">
<!-- Generated by graphviz version 2.43.0 (0)
 -->
<!-- Title: MCU_AT_CONSOLE_register Pages: 1 -->
<svg width="479pt" height="28pt"
 viewBox="0.00 0.00 479.00 28.00" xmlns="http://www.w3.org/2000/svg" xmlns:xlink="http://www.w3.org/1999/xlink">
<g id="graph0" class="graph" transform="scale(1 1) rotate(0) translate(4 24)">
<title>MCU_AT_CONSOLE_register</title>
<polygon fill="white" stroke="transparent" points="-4,4 -4,-24 475,-24 475,4 -4,4"/>
<!-- Node1 -->
<g id="node1" class="node">
<title>Node1</title>
<g id="a_node1"><a xlink:title="Start AT CMD console for AT cmd reception.">
<polygon fill="#bfbfbf" stroke="black" points="0,-0.5 0,-19.5 152,-19.5 152,-0.5 0,-0.5"/>
<text text-anchor="middle" x="76" y="-7.5" font-family="Helvetica,sans-Serif" font-size="10.00">MCU_AT_CONSOLE_register</text>
</a>
</g>
</g>
<!-- Node2 -->
<g id="node2" class="node">
<title>Node2</title>
<g id="a_node2"><a xlink:href="../../d8/d62/group___m_c_u___a_p_p___w_r_a_p_p_e_r_s.html#ga2fbcd5790071dab1b10a9196607692b8" target="_top" xlink:title="Enable and start RX interrupt from UART.">
<polygon fill="white" stroke="black" points="188,-0.5 188,-19.5 325,-19.5 325,-0.5 188,-0.5"/>
<text text-anchor="middle" x="256.5" y="-7.5" font-family="Helvetica,sans-Serif" font-size="10.00">KINEIS_UART_StartRx_IT</text>
</a>
</g>
</g>
<!-- Node1&#45;&gt;Node2 -->
<g id="edge1" class="edge">
<title>Node1&#45;&gt;Node2</title>
<path fill="none" stroke="midnightblue" d="M152.18,-10C160.58,-10 169.15,-10 177.58,-10"/>
<polygon fill="midnightblue" stroke="midnightblue" points="177.78,-13.5 187.78,-10 177.78,-6.5 177.78,-13.5"/>
</g>
<!-- Node3 -->
<g id="node3" class="node">
<title>Node3</title>
<g id="a_node3"><a xlink:href="../../d8/d62/group___m_c_u___a_p_p___w_r_a_p_p_e_r_s.html#gaeda0953e4ffe9aae0475009c1d221944" target="_top" xlink:title="RX interrupt handler for 7 or 8 bits data word length .">
<polygon fill="white" stroke="black" points="361,-0.5 361,-19.5 471,-19.5 471,-0.5 361,-0.5"/>
<text text-anchor="middle" x="416" y="-7.5" font-family="Helvetica,sans-Serif" font-size="10.00">KINEIS_RxISR_8BIT</text>
</a>
</g>
</g>
<!-- Node2&#45;&gt;Node3 -->
<g id="edge2" class="edge">
<title>Node2&#45;&gt;Node3</title>
<path fill="none" stroke="midnightblue" d="M325.21,-10C333.63,-10 342.21,-10 350.58,-10"/>
<polygon fill="midnightblue" stroke="midnightblue" points="350.65,-13.5 360.65,-10 350.65,-6.5 350.65,-13.5"/>
</g>
</g>
</svg>
