<?xml version="1.0" encoding="UTF-8" standalone="no"?>
<!DOCTYPE svg PUBLIC "-//W3C//DTD SVG 1.1//EN"
 "http://www.w3.org/Graphics/SVG/1.1/DTD/svg11.dtd">
<!-- Generated by graphviz version 2.43.0 (0)
 -->
<!-- Title: MCU_AT_CONSOLE_send Pages: 1 -->
<!--zoomable 917 -->
<svg id="main" version="1.1" xmlns="http://www.w3.org/2000/svg" xmlns:xlink="http://www.w3.org/1999/xlink" xml:space="preserve" onload="init(evt)">
<style type="text/css"><![CDATA[
.edge:hover path { stroke: red; }
.edge:hover polygon { stroke: red; fill: red; }
]]></style>
<script type="text/javascript"><![CDATA[
var edges = document.getElementsByTagName('g');
if (edges && edges.length) {
  for (var i=0;i<edges.length;i++) {
    if (edges[i].id.substr(0,4)=='edge') {
      edges[i].setAttribute('class','edge');
    }
  }
}
]]></script>
        <defs>
                <circle id="rim" cx="0" cy="0" r="7"/>
                <circle id="rim2" cx="0" cy="0" r="3.5"/>
                <g id="zoomPlus">
                        <use xlink:href="#rim" fill="#404040">
                                <set attributeName="fill" to="#808080" begin="zoomplus.mouseover" end="zoomplus.mouseout"/>
                        </use>
                        <path d="M-4,0h8M0,-4v8" fill="none" stroke="white" stroke-width="1.5" pointer-events="none"/>
                </g>
                <g id="zoomMin">
                        <use xlink:href="#rim" fill="#404040">
                                <set attributeName="fill" to="#808080" begin="zoomminus.mouseover" end="zoomminus.mouseout"/>
                        </use>
                        <path d="M-4,0h8" fill="none" stroke="white" stroke-width="1.5" pointer-events="none"/>
                </g>
                <g id="dirArrow">
                        <path fill="none" stroke="white" stroke-width="1.5" d="M0,-3.0v7 M-2.5,-0.5L0,-3.0L2.5,-0.5"/>
                </g>
               <g id="resetDef">
                       <use xlink:href="#rim2" fill="#404040">
                               <set attributeName="fill" to="#808080" begin="reset.mouseover" end="reset.mouseout"/>
                       </use>
               </g>
        </defs>

<script type="text/javascript">
var viewWidth = 1202;
var viewHeight = 917;
var sectionId = 'dynsection-5';
</script>
<script xlink:href="../../svgpan.js"/>
<svg id="graph" class="graph">
<g id="viewport">
<title>MCU_AT_CONSOLE_send</title>
<polygon fill="white" stroke="transparent" points="-4,4 -4,-912.98 1198,-912.98 1198,4 -4,4"/>
<!-- Node1 -->
<g id="node1" class="node">
<title>Node1</title>
<g id="a_node1"><a xlink:title="Send AT CMD response to console.">
<polygon fill="#bfbfbf" stroke="black" points="1056,-436 1056,-455 1194,-455 1194,-436 1056,-436"/>
<text text-anchor="middle" x="1125" y="-443" font-family="Helvetica,sans-Serif" font-size="10.00">MCU_AT_CONSOLE_send</text>
</a>
</g>
</g>
<!-- Node2 -->
<g id="node2" class="node">
<title>Node2</title>
<g id="a_node2"><a xlink:href="../../d0/d0f/group___m_g_r___a_t___c_m_d.html#ga204fad5fbc19a59d6c9a498aad156fc5" target="_top" xlink:title=" ">
<polygon fill="white" stroke="black" points="639.5,-860 639.5,-879 791.5,-879 791.5,-860 639.5,-860"/>
<text text-anchor="middle" x="715.5" y="-867" font-family="Helvetica,sans-Serif" font-size="10.00">bMGR_AT_CMD_ADDR_cmd</text>
</a>
</g>
</g>
<!-- Node1&#45;&gt;Node2 -->
<g id="edge1" class="edge">
<title>Node1&#45;&gt;Node2</title>
<path fill="none" stroke="midnightblue" d="M1123.36,-465.52C1120.5,-521.37 1104.93,-680.68 1020,-770.5 960.5,-833.42 860.57,-856.41 791.73,-864.78"/>
<polygon fill="midnightblue" stroke="midnightblue" points="1126.87,-465.37 1123.8,-455.23 1119.87,-465.08 1126.87,-465.37"/>
</g>
<!-- Node3 -->
<g id="node3" class="node">
<title>Node3</title>
<g id="a_node3"><a xlink:href="../../d0/d0f/group___m_g_r___a_t___c_m_d.html#gaaa6dc2a43b7e21084f52c8591674d534" target="_top" xlink:title=" ">
<polygon fill="white" stroke="black" points="645.5,-822 645.5,-841 785.5,-841 785.5,-822 645.5,-822"/>
<text text-anchor="middle" x="715.5" y="-829" font-family="Helvetica,sans-Serif" font-size="10.00">bMGR_AT_CMD_FW_cmd</text>
</a>
</g>
</g>
<!-- Node1&#45;&gt;Node3 -->
<g id="edge2" class="edge">
<title>Node1&#45;&gt;Node3</title>
<path fill="none" stroke="midnightblue" d="M1121.3,-464.92C1113.74,-512.52 1088.27,-636.53 1020,-710.5 957.48,-778.23 852.04,-808.73 783.36,-821.97"/>
<polygon fill="midnightblue" stroke="midnightblue" points="1124.76,-465.42 1122.78,-455.01 1117.84,-464.38 1124.76,-465.42"/>
</g>
<!-- Node4 -->
<g id="node4" class="node">
<title>Node4</title>
<g id="a_node4"><a xlink:href="../../d0/d0f/group___m_g_r___a_t___c_m_d.html#gaf81cad313cfb0badce0d5d0af319fbdc" target="_top" xlink:title=" ">
<polygon fill="white" stroke="black" points="648.5,-784 648.5,-803 782.5,-803 782.5,-784 648.5,-784"/>
<text text-anchor="middle" x="715.5" y="-791" font-family="Helvetica,sans-Serif" font-size="10.00">bMGR_AT_CMD_ID_cmd</text>
</a>
</g>
</g>
<!-- Node1&#45;&gt;Node4 -->
<g id="edge3" class="edge">
<title>Node1&#45;&gt;Node4</title>
<path fill="none" stroke="midnightblue" d="M1117.11,-464.67C1103.24,-501.23 1069.05,-582.03 1020,-635.5 944.58,-717.7 914.07,-731.81 811,-774.5 801.65,-778.37 791.44,-781.48 781.3,-783.96"/>
<polygon fill="midnightblue" stroke="midnightblue" points="1120.42,-465.8 1120.62,-455.2 1113.86,-463.36 1120.42,-465.8"/>
</g>
<!-- Node5 -->
<g id="node5" class="node">
<title>Node5</title>
<g id="a_node5"><a xlink:href="../../d0/d0f/group___m_g_r___a_t___c_m_d.html#gacc6b6479b50b0c5aed24b2e62448bde0" target="_top" xlink:title="Process AT command &quot;AT+KMAC&quot; get/set the Kineis MAC profile.">
<polygon fill="white" stroke="black" points="639,-746 639,-765 792,-765 792,-746 639,-746"/>
<text text-anchor="middle" x="715.5" y="-753" font-family="Helvetica,sans-Serif" font-size="10.00">bMGR_AT_CMD_KMAC_cmd</text>
</a>
</g>
</g>
<!-- Node1&#45;&gt;Node5 -->
<g id="edge4" class="edge">
<title>Node1&#45;&gt;Node5</title>
<path fill="none" stroke="midnightblue" d="M1107.21,-462.63C1086.92,-483.18 1051.56,-518.49 1020,-547.5 945.29,-616.17 919.53,-625.53 847,-696.5 829.9,-713.23 831.78,-724.65 811,-736.5 804.17,-740.4 796.66,-743.5 788.95,-745.98"/>
<polygon fill="midnightblue" stroke="midnightblue" points="1109.93,-464.86 1114.45,-455.28 1104.94,-459.95 1109.93,-464.86"/>
</g>
<!-- Node6 -->
<g id="node6" class="node">
<title>Node6</title>
<g id="a_node6"><a xlink:href="../../d0/d0f/group___m_g_r___a_t___c_m_d.html#ga3d564aff9653e8bdc572d189093f1acc" target="_top" xlink:title="Log in debug interface a failed message.">
<polygon fill="white" stroke="black" points="852.5,-519 852.5,-538 1014.5,-538 1014.5,-519 852.5,-519"/>
<text text-anchor="middle" x="933.5" y="-526" font-family="Helvetica,sans-Serif" font-size="10.00">bMGR_AT_CMD_logFailedMsg</text>
</a>
</g>
</g>
<!-- Node1&#45;&gt;Node6 -->
<g id="edge5" class="edge">
<title>Node1&#45;&gt;Node6</title>
<path fill="none" stroke="midnightblue" d="M1099.5,-460.4C1078.82,-472.55 1048.17,-489.59 1020,-501.5 1003.94,-508.29 985.57,-514.3 969.98,-518.93"/>
<polygon fill="midnightblue" stroke="midnightblue" points="1101.44,-463.31 1108.25,-455.2 1097.87,-457.3 1101.44,-463.31"/>
</g>
<!-- Node10 -->
<g id="node10" class="node">
<title>Node10</title>
<g id="a_node10"><a xlink:href="../../d0/d0f/group___m_g_r___a_t___c_m_d.html#gaed4723249aba7dbe8e17c74eed648f4b" target="_top" xlink:title=" ">
<polygon fill="white" stroke="black" points="643.5,-480 643.5,-499 787.5,-499 787.5,-480 643.5,-480"/>
<text text-anchor="middle" x="715.5" y="-487" font-family="Helvetica,sans-Serif" font-size="10.00">bMGR_AT_CMD_LPM_cmd</text>
</a>
</g>
</g>
<!-- Node1&#45;&gt;Node10 -->
<g id="edge40" class="edge">
<title>Node1&#45;&gt;Node10</title>
<path fill="none" stroke="midnightblue" d="M1045.67,-456.35C1037.01,-457.45 1028.32,-458.53 1020,-459.5 940.59,-468.77 849.26,-477.54 787.71,-483.18"/>
<polygon fill="midnightblue" stroke="midnightblue" points="1046.33,-459.79 1055.79,-455.03 1045.43,-452.85 1046.33,-459.79"/>
</g>
<!-- Node12 -->
<g id="node12" class="node">
<title>Node12</title>
<g id="a_node12"><a xlink:href="../../d0/d0f/group___m_g_r___a_t___c_m_d.html#gafa3e80f7aedfa74c8d16d0202a3f4f07" target="_top" xlink:title="Process AT command &quot;AT+PREPASS_EN&quot; Enabling/disabling PREVIPASS (sat pass prediction) computation,...">
<polygon fill="white" stroke="black" points="645,-430.5 645,-460.5 786,-460.5 786,-430.5 645,-430.5"/>
<text text-anchor="start" x="653" y="-448.5" font-family="Helvetica,sans-Serif" font-size="10.00">bMGR_AT_CMD_PREPASS</text>
<text text-anchor="middle" x="715.5" y="-437.5" font-family="Helvetica,sans-Serif" font-size="10.00">_EN_cmd</text>
</a>
</g>
</g>
<!-- Node1&#45;&gt;Node12 -->
<g id="edge41" class="edge">
<title>Node1&#45;&gt;Node12</title>
<path fill="none" stroke="midnightblue" d="M1045.46,-445.5C970.39,-445.5 858.3,-445.5 786.29,-445.5"/>
<polygon fill="midnightblue" stroke="midnightblue" points="1045.79,-449 1055.79,-445.5 1045.79,-442 1045.79,-449"/>
</g>
<!-- Node13 -->
<g id="node13" class="node">
<title>Node13</title>
<g id="a_node13"><a xlink:href="../../d0/d0f/group___m_g_r___a_t___c_m_d.html#gaf2dc4b8c03924fc01641182032c31ba5" target="_top" xlink:title=" ">
<polygon fill="white" stroke="black" points="636.5,-316 636.5,-335 794.5,-335 794.5,-316 636.5,-316"/>
<text text-anchor="middle" x="715.5" y="-323" font-family="Helvetica,sans-Serif" font-size="10.00">bMGR_AT_CMD_RCONF_cmd</text>
</a>
</g>
</g>
<!-- Node1&#45;&gt;Node13 -->
<g id="edge42" class="edge">
<title>Node1&#45;&gt;Node13</title>
<path fill="none" stroke="midnightblue" d="M1108.47,-428.63C1089.59,-409.33 1055.8,-378.47 1020,-363.5 947.62,-333.23 857.69,-325.24 794.58,-323.9"/>
<polygon fill="midnightblue" stroke="midnightblue" points="1105.95,-431.07 1115.39,-435.88 1111.01,-426.23 1105.95,-431.07"/>
</g>
<!-- Node15 -->
<g id="node15" class="node">
<title>Node15</title>
<g id="a_node15"><a xlink:href="../../d0/d0f/group___m_g_r___a_t___c_m_d.html#ga35554beb51f6f25a760a6d2bb76f7ee8" target="_top" xlink:title=" ">
<polygon fill="white" stroke="black" points="647,-240 647,-259 784,-259 784,-240 647,-240"/>
<text text-anchor="middle" x="715.5" y="-247" font-family="Helvetica,sans-Serif" font-size="10.00">bMGR_AT_CMD_SN_cmd</text>
</a>
</g>
</g>
<!-- Node1&#45;&gt;Node15 -->
<g id="edge45" class="edge">
<title>Node1&#45;&gt;Node15</title>
<path fill="none" stroke="midnightblue" d="M1113.49,-426.76C1097.16,-399.44 1063.04,-349.03 1020,-322.5 947.23,-277.64 848.9,-260.34 784.14,-253.68"/>
<polygon fill="midnightblue" stroke="midnightblue" points="1110.63,-428.81 1118.69,-435.7 1116.69,-425.29 1110.63,-428.81"/>
</g>
<!-- Node16 -->
<g id="node16" class="node">
<title>Node16</title>
<g id="a_node16"><a xlink:href="../../d0/d0f/group___m_g_r___a_t___c_m_d.html#gafa261eed6f61302c724f74b963bae320" target="_top" xlink:title=" ">
<polygon fill="white" stroke="black" points="632,-164 632,-183 799,-183 799,-164 632,-164"/>
<text text-anchor="middle" x="715.5" y="-171" font-family="Helvetica,sans-Serif" font-size="10.00">bMGR_AT_CMD_VERSION_cmd</text>
</a>
</g>
</g>
<!-- Node1&#45;&gt;Node16 -->
<g id="edge46" class="edge">
<title>Node1&#45;&gt;Node16</title>
<path fill="none" stroke="midnightblue" d="M1118.41,-425.97C1106.59,-388.21 1075.52,-304.91 1020,-259.5 957.16,-208.1 865.32,-187.39 799.14,-179.06"/>
<polygon fill="midnightblue" stroke="midnightblue" points="1115.11,-427.18 1121.35,-435.74 1121.82,-425.16 1115.11,-427.18"/>
</g>
<!-- Node19 -->
<g id="node19" class="node">
<title>Node19</title>
<g id="a_node19"><a xlink:href="../../d0/d29/main_8c.html#a840291bc02cba5474a4cb46a9b9566fe" target="_top" xlink:title="The application entry point.">
<polygon fill="white" stroke="black" points="139,-351 139,-370 180,-370 180,-351 139,-351"/>
<text text-anchor="middle" x="159.5" y="-358" font-family="Helvetica,sans-Serif" font-size="10.00">main</text>
</a>
</g>
</g>
<!-- Node1&#45;&gt;Node19 -->
<g id="edge56" class="edge">
<title>Node1&#45;&gt;Node19</title>
<path fill="none" stroke="midnightblue" d="M1121.17,-465.24C1110.72,-535.67 1072.12,-773.23 1020,-826.5 922.37,-926.29 856.11,-907.5 716.5,-907.5 716.5,-907.5 716.5,-907.5 500,-907.5 236.78,-907.5 170.54,-444.6 161.62,-370.46"/>
<polygon fill="midnightblue" stroke="midnightblue" points="1124.67,-465.5 1122.66,-455.09 1117.75,-464.48 1124.67,-465.5"/>
</g>
<!-- Node23 -->
<g id="node23" class="node">
<title>Node23</title>
<g id="a_node23"><a xlink:href="../../d0/d0f/group___m_g_r___a_t___c_m_d.html#gabef580da46cf82ca74ba3e5217cf3ffa" target="_top" xlink:title=": Log in debug interface a succeed message">
<polygon fill="white" stroke="black" points="847,-373 847,-392 1020,-392 1020,-373 847,-373"/>
<text text-anchor="middle" x="933.5" y="-380" font-family="Helvetica,sans-Serif" font-size="10.00">bMGR_AT_CMD_logSucceedMsg</text>
</a>
</g>
</g>
<!-- Node1&#45;&gt;Node23 -->
<g id="edge30" class="edge">
<title>Node1&#45;&gt;Node23</title>
<path fill="none" stroke="midnightblue" d="M1085.49,-432.7C1049.27,-420.66 995.87,-402.9 963.24,-392.05"/>
<polygon fill="midnightblue" stroke="midnightblue" points="1084.63,-436.1 1095.22,-435.93 1086.83,-429.46 1084.63,-436.1"/>
</g>
<!-- Node25 -->
<g id="node25" class="node">
<title>Node25</title>
<g id="a_node25"><a xlink:href="../../d0/d0f/group___m_g_r___a_t___c_m_d.html#gae5c3c3791220ed4687558e8681648a0d" target="_top" xlink:title=": This function writes in UART the response of specific command">
<polygon fill="white" stroke="black" points="631.5,-50 631.5,-69 799.5,-69 799.5,-50 631.5,-50"/>
<text text-anchor="middle" x="715.5" y="-57" font-family="Helvetica,sans-Serif" font-size="10.00">bMGR_AT_CMD_sendResponse</text>
</a>
</g>
</g>
<!-- Node1&#45;&gt;Node25 -->
<g id="edge43" class="edge">
<title>Node1&#45;&gt;Node25</title>
<path fill="none" stroke="midnightblue" d="M1121.31,-425.91C1111.44,-357.12 1074.92,-128.37 1020,-83.5 987.41,-56.87 877.92,-54.09 799.82,-55.78"/>
<polygon fill="midnightblue" stroke="midnightblue" points="1117.85,-426.44 1122.71,-435.85 1124.78,-425.46 1117.85,-426.44"/>
</g>
<!-- Node26 -->
<g id="node26" class="node">
<title>Node26</title>
<g id="a_node26"><a xlink:href="../../d0/d29/main_8c.html#a1730ffe1e560465665eb47d9264826f9" target="_top" xlink:title="This function is executed in case of error occurrence.">
<polygon fill="white" stroke="black" points="459.5,-237 459.5,-256 542.5,-256 542.5,-237 459.5,-237"/>
<text text-anchor="middle" x="501" y="-244" font-family="Helvetica,sans-Serif" font-size="10.00">Error_Handler</text>
</a>
</g>
</g>
<!-- Node1&#45;&gt;Node26 -->
<g id="edge47" class="edge">
<title>Node1&#45;&gt;Node26</title>
<path fill="none" stroke="midnightblue" d="M1121.85,-425.68C1115.54,-377.22 1092.68,-251.71 1020,-183.5 948.78,-116.65 907.48,-130.8 811,-115.5 727.16,-102.2 697.55,-80.98 620,-115.5 562.11,-141.27 520.69,-211.01 506.95,-236.77"/>
<polygon fill="midnightblue" stroke="midnightblue" points="1118.4,-426.27 1123.07,-435.79 1125.35,-425.44 1118.4,-426.27"/>
</g>
<!-- Node33 -->
<g id="node33" class="node">
<title>Node33</title>
<g id="a_node33"><a xlink:href="../../d8/d62/group___m_c_u___a_p_p___w_r_a_p_p_e_r_s.html#gaf6858a5591eaf9e21e59a15188ff6f13" target="_top" xlink:title="Write content of a binary data buffer as AT cmd response.">
<polygon fill="white" stroke="black" points="864.5,-0.5 864.5,-30.5 1002.5,-30.5 1002.5,-0.5 864.5,-0.5"/>
<text text-anchor="start" x="872.5" y="-18.5" font-family="Helvetica,sans-Serif" font-size="10.00">MCU_AT_CONSOLE_send</text>
<text text-anchor="middle" x="933.5" y="-7.5" font-family="Helvetica,sans-Serif" font-size="10.00">_dataBuf</text>
</a>
</g>
</g>
<!-- Node1&#45;&gt;Node33 -->
<g id="edge57" class="edge">
<title>Node1&#45;&gt;Node33</title>
<path fill="none" stroke="midnightblue" d="M1121.35,-425.8C1111.25,-353.38 1073.04,-103.14 1020,-45.5 1014.35,-39.36 1007.38,-34.48 999.87,-30.6"/>
<polygon fill="midnightblue" stroke="midnightblue" points="1117.9,-426.41 1122.73,-435.84 1124.84,-425.46 1117.9,-426.41"/>
</g>
<!-- Node6&#45;&gt;Node2 -->
<g id="edge6" class="edge">
<title>Node6&#45;&gt;Node2</title>
<path fill="none" stroke="midnightblue" d="M931.38,-548.44C927.04,-605.31 906.43,-769.43 811,-850.5 805.26,-855.38 798.62,-859.12 791.57,-861.99"/>
<polygon fill="midnightblue" stroke="midnightblue" points="934.88,-548.49 932.06,-538.27 927.9,-548.02 934.88,-548.49"/>
</g>
<!-- Node6&#45;&gt;Node3 -->
<g id="edge8" class="edge">
<title>Node6&#45;&gt;Node3</title>
<path fill="none" stroke="midnightblue" d="M930.3,-548.17C923.37,-600.25 897.07,-742.54 811,-812.5 803.6,-818.52 794.81,-822.8 785.61,-825.81"/>
<polygon fill="midnightblue" stroke="midnightblue" points="933.78,-548.58 931.53,-538.22 926.83,-547.72 933.78,-548.58"/>
</g>
<!-- Node6&#45;&gt;Node4 -->
<g id="edge11" class="edge">
<title>Node6&#45;&gt;Node4</title>
<path fill="none" stroke="midnightblue" d="M922.54,-547.49C906.33,-578.49 873.43,-642 847,-696.5 830.34,-730.85 840.96,-750.84 811,-774.5 802.73,-781.03 792.8,-785.5 782.54,-788.53"/>
<polygon fill="midnightblue" stroke="midnightblue" points="925.82,-548.76 927.36,-538.28 919.62,-545.52 925.82,-548.76"/>
</g>
<!-- Node6&#45;&gt;Node5 -->
<g id="edge12" class="edge">
<title>Node6&#45;&gt;Node5</title>
<path fill="none" stroke="midnightblue" d="M877.63,-541.76C866.09,-546.85 855.01,-553.87 847,-563.5 796.78,-623.88 866.72,-681.15 811,-736.5 805.66,-741.81 799.27,-745.84 792.38,-748.87"/>
<polygon fill="midnightblue" stroke="midnightblue" points="878.92,-545.01 886.93,-538.07 876.34,-538.5 878.92,-545.01"/>
</g>
<!-- Node7 -->
<g id="node7" class="node">
<title>Node7</title>
<g id="a_node7"><a xlink:href="../../d0/d0f/group___m_g_r___a_t___c_m_d.html#gafccf5cd6468be2c39af4c4c599d48ef8" target="_top" xlink:title="Process AT command &quot;AT+CW&quot;.">
<polygon fill="white" stroke="black" points="431,-556 431,-575 571,-575 571,-556 431,-556"/>
<text text-anchor="middle" x="501" y="-563" font-family="Helvetica,sans-Serif" font-size="10.00">bMGR_AT_CMD_CW_cmd</text>
</a>
</g>
</g>
<!-- Node6&#45;&gt;Node7 -->
<g id="edge7" class="edge">
<title>Node6&#45;&gt;Node7</title>
<path fill="none" stroke="midnightblue" d="M842.37,-538.44C831.8,-539.52 821.17,-540.56 811,-541.5 728.62,-549.1 633.74,-556.23 571.08,-560.71"/>
<polygon fill="midnightblue" stroke="midnightblue" points="842.88,-541.9 852.47,-537.4 842.17,-534.94 842.88,-541.9"/>
</g>
<!-- Node8 -->
<g id="node8" class="node">
<title>Node8</title>
<g id="a_node8"><a xlink:href="../../d0/d0f/group___m_g_r___a_t___c_m_d.html#gaaa9bdf10c9ac69ef778eea22f8225343" target="_top" xlink:title="Handle new TX data, this is the core function of AT+TX cmd.">
<polygon fill="white" stroke="black" points="621.5,-708 621.5,-727 809.5,-727 809.5,-708 621.5,-708"/>
<text text-anchor="middle" x="715.5" y="-715" font-family="Helvetica,sans-Serif" font-size="10.00">bMGR_AT_CMD_handleNewTxData</text>
</a>
</g>
</g>
<!-- Node6&#45;&gt;Node8 -->
<g id="edge9" class="edge">
<title>Node6&#45;&gt;Node8</title>
<path fill="none" stroke="midnightblue" d="M878.78,-541.84C866.98,-546.94 855.49,-553.94 847,-563.5 807.19,-608.33 853.84,-651.56 811,-693.5 804.59,-699.78 796.78,-704.48 788.43,-708"/>
<polygon fill="midnightblue" stroke="midnightblue" points="880.21,-545.03 888.25,-538.13 877.67,-538.51 880.21,-545.03"/>
</g>
<!-- Node9 -->
<g id="node9" class="node">
<title>Node9</title>
<g id="a_node9"><a xlink:href="../../d0/d0f/group___m_g_r___a_t___c_m_d.html#ga0a4332fc4f8bad99c421588fe542a2bd" target="_top" xlink:title="Process AT command &quot;AT+TX&quot; send user data.">
<polygon fill="white" stroke="black" points="432.5,-689 432.5,-708 569.5,-708 569.5,-689 432.5,-689"/>
<text text-anchor="middle" x="501" y="-696" font-family="Helvetica,sans-Serif" font-size="10.00">bMGR_AT_CMD_TX_cmd</text>
</a>
</g>
</g>
<!-- Node6&#45;&gt;Node9 -->
<g id="edge19" class="edge">
<title>Node6&#45;&gt;Node9</title>
<path fill="none" stroke="midnightblue" d="M881.61,-541.6C869.07,-546.78 856.52,-553.86 847,-563.5 816.43,-594.44 845.15,-627.57 811,-654.5 774.62,-683.19 648.97,-693.18 569.54,-696.66"/>
<polygon fill="midnightblue" stroke="midnightblue" points="883.02,-544.81 891.15,-538.01 880.55,-538.26 883.02,-544.81"/>
</g>
<!-- Node6&#45;&gt;Node10 -->
<g id="edge13" class="edge">
<title>Node6&#45;&gt;Node10</title>
<path fill="none" stroke="midnightblue" d="M869.56,-517.14C837.69,-511.38 799.45,-504.48 769.17,-499.01"/>
<polygon fill="midnightblue" stroke="midnightblue" points="869.2,-520.63 879.66,-518.96 870.44,-513.74 869.2,-520.63"/>
</g>
<!-- Node11 -->
<g id="node11" class="node">
<title>Node11</title>
<g id="a_node11"><a xlink:href="../../d0/d0f/group___m_g_r___a_t___c_m_d.html#gad504c930c0c0222576334c21940e245e" target="_top" xlink:title=" ">
<polygon fill="white" stroke="black" points="641.5,-392 641.5,-411 789.5,-411 789.5,-392 641.5,-392"/>
<text text-anchor="middle" x="715.5" y="-399" font-family="Helvetica,sans-Serif" font-size="10.00">bMGR_AT_CMD_PING_cmd</text>
</a>
</g>
</g>
<!-- Node6&#45;&gt;Node11 -->
<g id="edge14" class="edge">
<title>Node6&#45;&gt;Node11</title>
<path fill="none" stroke="midnightblue" d="M917.99,-511.01C896.99,-486.92 855.72,-443.95 811,-421.5 802.31,-417.14 792.7,-413.72 783.05,-411.05"/>
<polygon fill="midnightblue" stroke="midnightblue" points="915.39,-513.35 924.55,-518.68 920.71,-508.8 915.39,-513.35"/>
</g>
<!-- Node6&#45;&gt;Node12 -->
<g id="edge15" class="edge">
<title>Node6&#45;&gt;Node12</title>
<path fill="none" stroke="midnightblue" d="M906.33,-514.25C882.13,-501.5 844.9,-482.95 811,-470.5 801.12,-466.87 790.49,-463.54 780.04,-460.56"/>
<polygon fill="midnightblue" stroke="midnightblue" points="904.77,-517.38 915.24,-518.99 908.06,-511.2 904.77,-517.38"/>
</g>
<!-- Node6&#45;&gt;Node13 -->
<g id="edge16" class="edge">
<title>Node6&#45;&gt;Node13</title>
<path fill="none" stroke="midnightblue" d="M920.03,-510.34C903.23,-485.8 872.49,-440.59 847,-401.5 830.63,-376.4 835.68,-361.49 811,-344.5 805.49,-340.7 799.39,-337.63 793.02,-335.15"/>
<polygon fill="midnightblue" stroke="midnightblue" points="917.21,-512.41 925.75,-518.69 922.98,-508.46 917.21,-512.41"/>
</g>
<!-- Node14 -->
<g id="node14" class="node">
<title>Node14</title>
<g id="a_node14"><a xlink:href="../../d0/d0f/group___m_g_r___a_t___c_m_d.html#ga02e2a055602cf05cffff4e57ef414e50" target="_top" xlink:title=" ">
<polygon fill="white" stroke="black" points="620.5,-354 620.5,-373 810.5,-373 810.5,-354 620.5,-354"/>
<text text-anchor="middle" x="715.5" y="-361" font-family="Helvetica,sans-Serif" font-size="10.00">bMGR_AT_CMD_SAVE_RCONF_cmd</text>
</a>
</g>
</g>
<!-- Node6&#45;&gt;Node14 -->
<g id="edge17" class="edge">
<title>Node6&#45;&gt;Node14</title>
<path fill="none" stroke="midnightblue" d="M922.52,-509.63C904.68,-477.89 864.16,-414.19 811,-382.5 804.53,-378.64 797.42,-375.56 790.08,-373.09"/>
<polygon fill="midnightblue" stroke="midnightblue" points="919.63,-511.64 927.5,-518.73 925.77,-508.28 919.63,-511.64"/>
</g>
<!-- Node6&#45;&gt;Node15 -->
<g id="edge18" class="edge">
<title>Node6&#45;&gt;Node15</title>
<path fill="none" stroke="midnightblue" d="M918.56,-510.68C900.36,-486.83 868.33,-442.74 847,-401.5 826.25,-361.4 839.92,-341.18 811,-306.5 792.35,-284.13 762.53,-268.23 741.38,-259"/>
<polygon fill="midnightblue" stroke="midnightblue" points="915.93,-513 924.8,-518.78 921.47,-508.73 915.93,-513"/>
</g>
<!-- Node6&#45;&gt;Node16 -->
<g id="edge20" class="edge">
<title>Node6&#45;&gt;Node16</title>
<path fill="none" stroke="midnightblue" d="M917.29,-511.19C897.75,-487.95 864.28,-444.56 847,-401.5 811.9,-314.02 876.72,-260.07 811,-192.5 807.38,-188.78 803.26,-185.68 798.8,-183.11"/>
<polygon fill="midnightblue" stroke="midnightblue" points="914.65,-513.49 923.81,-518.81 919.97,-508.94 914.65,-513.49"/>
</g>
<!-- Node17 -->
<g id="node17" class="node">
<title>Node17</title>
<g id="a_node17"><a xlink:href="../../d0/d0f/group___m_g_r___a_t___c_m_d.html#ga9cef55cf869d8f8c3eaf6a49ca61b5d2" target="_top" xlink:title="Decode and exectue AT cmd if valid.">
<polygon fill="white" stroke="black" points="432.5,-632 432.5,-651 569.5,-651 569.5,-632 432.5,-632"/>
<text text-anchor="middle" x="501" y="-639" font-family="Helvetica,sans-Serif" font-size="10.00">MGR_AT_CMD_decodeAt</text>
</a>
</g>
</g>
<!-- Node6&#45;&gt;Node17 -->
<g id="edge21" class="edge">
<title>Node6&#45;&gt;Node17</title>
<path fill="none" stroke="midnightblue" d="M885.54,-541.59C872.1,-546.89 858.1,-554.04 847,-563.5 823.62,-583.42 837.31,-606.65 811,-622.5 729.05,-671.87 611.67,-661.77 547.75,-651.03"/>
<polygon fill="midnightblue" stroke="midnightblue" points="887,-544.79 895.18,-538.06 884.59,-538.21 887,-544.79"/>
</g>
<!-- Node20 -->
<g id="node20" class="node">
<title>Node20</title>
<g id="a_node20"><a xlink:href="../../d0/d0f/group___m_g_r___a_t___c_m_d.html#ga1a39b3c9cd76d50537a8bc42087ed46f" target="_top" xlink:title="Fct used to retreive and process event coming from kineis stack as answers to AT commands.">
<polygon fill="white" stroke="black" points="418,-322 418,-341 584,-341 584,-322 418,-322"/>
<text text-anchor="middle" x="501" y="-329" font-family="Helvetica,sans-Serif" font-size="10.00">MGR_AT_CMD_macEvtProcess</text>
</a>
</g>
</g>
<!-- Node6&#45;&gt;Node20 -->
<g id="edge24" class="edge">
<title>Node6&#45;&gt;Node20</title>
<path fill="none" stroke="midnightblue" d="M842.06,-531.45C763.41,-532.45 656.5,-529.56 620,-508.5 551.54,-469 515.08,-371.85 504.96,-341.04"/>
<polygon fill="midnightblue" stroke="midnightblue" points="842.52,-534.94 852.47,-531.29 842.42,-527.94 842.52,-534.94"/>
</g>
<!-- Node21 -->
<g id="node21" class="node">
<title>Node21</title>
<g id="a_node21"><a xlink:href="../../d0/d0f/group___m_g_r___a_t___c_m_d.html#ga60486b23c6850d01bbb1e29875cd24f4" target="_top" xlink:title="Send random TX data as per RF configuration.">
<polygon fill="white" stroke="black" points="620,-594 620,-613 811,-613 811,-594 620,-594"/>
<text text-anchor="middle" x="715.5" y="-601" font-family="Helvetica,sans-Serif" font-size="10.00">MGR_AT_CMD_sendRandomTxData</text>
</a>
</g>
</g>
<!-- Node6&#45;&gt;Node21 -->
<g id="edge26" class="edge">
<title>Node6&#45;&gt;Node21</title>
<path fill="none" stroke="midnightblue" d="M899.08,-541.91C883.25,-548.33 864.1,-556.2 847,-563.5 830.9,-570.37 827.54,-573.77 811,-579.5 794.85,-585.1 776.73,-590.01 760.71,-593.91"/>
<polygon fill="midnightblue" stroke="midnightblue" points="900.51,-545.11 908.47,-538.12 897.88,-538.62 900.51,-545.11"/>
</g>
<!-- Node8&#45;&gt;Node9 -->
<g id="edge10" class="edge">
<title>Node8&#45;&gt;Node9</title>
<path fill="none" stroke="midnightblue" d="M611.06,-708.25C596.97,-706.99 582.82,-705.73 569.59,-704.54"/>
<polygon fill="midnightblue" stroke="midnightblue" points="611.02,-711.76 621.29,-709.17 611.65,-704.79 611.02,-711.76"/>
</g>
<!-- Node18 -->
<g id="node18" class="node">
<title>Node18</title>
<g id="a_node18"><a xlink:href="../../dd/d41/group___k_n_s___a_p_p.html#ga06543de003a98e82570c572ce5e1240c" target="_top" xlink:title="This fct is the application expected to run in front of the GUI.">
<polygon fill="white" stroke="black" points="257,-370 257,-389 364,-389 364,-370 257,-370"/>
<text text-anchor="middle" x="310.5" y="-377" font-family="Helvetica,sans-Serif" font-size="10.00">KNS_APP_gui_loop</text>
</a>
</g>
</g>
<!-- Node17&#45;&gt;Node18 -->
<g id="edge22" class="edge">
<title>Node17&#45;&gt;Node18</title>
<path fill="none" stroke="midnightblue" d="M424.38,-627.11C422.15,-625.71 420.02,-624.17 418,-622.5 340.38,-558.08 317.62,-426.04 312.67,-389.22"/>
<polygon fill="midnightblue" stroke="midnightblue" points="422.92,-630.3 433.39,-631.9 426.21,-624.12 422.92,-630.3"/>
</g>
<!-- Node18&#45;&gt;Node19 -->
<g id="edge23" class="edge">
<title>Node18&#45;&gt;Node19</title>
<path fill="none" stroke="midnightblue" d="M246.81,-371.51C222.81,-368.45 197.13,-365.17 180.08,-363"/>
<polygon fill="midnightblue" stroke="midnightblue" points="246.61,-375.01 256.97,-372.8 247.49,-368.06 246.61,-375.01"/>
</g>
<!-- Node20&#45;&gt;Node18 -->
<g id="edge25" class="edge">
<title>Node20&#45;&gt;Node18</title>
<path fill="none" stroke="midnightblue" d="M452.29,-343.65C420.3,-351.79 378.78,-362.37 349.13,-369.92"/>
<polygon fill="midnightblue" stroke="midnightblue" points="453.48,-346.96 462.31,-341.1 451.75,-340.17 453.48,-346.96"/>
</g>
<!-- Node21&#45;&gt;Node7 -->
<g id="edge27" class="edge">
<title>Node21&#45;&gt;Node7</title>
<path fill="none" stroke="midnightblue" d="M651.05,-592.15C620.56,-586.7 584.42,-580.24 555.37,-575.04"/>
<polygon fill="midnightblue" stroke="midnightblue" points="650.69,-595.64 661.15,-593.96 651.92,-588.75 650.69,-595.64"/>
</g>
<!-- Node22 -->
<g id="node22" class="node">
<title>Node22</title>
<g id="a_node22"><a xlink:href="../../d0/d0f/group___m_g_r___a_t___c_m_d.html#gafccb1dfaf28ab371bebd814a3abaa57c" target="_top" xlink:title="Callback function notifying end of TX processing in case of modulated wave.">
<polygon fill="white" stroke="black" points="455,-594 455,-613 547,-613 547,-594 455,-594"/>
<text text-anchor="middle" x="501" y="-601" font-family="Helvetica,sans-Serif" font-size="10.00">eoAtMW_isr_cb</text>
</a>
</g>
</g>
<!-- Node21&#45;&gt;Node22 -->
<g id="edge28" class="edge">
<title>Node21&#45;&gt;Node22</title>
<path fill="none" stroke="midnightblue" d="M609.66,-596.75C587.66,-596.73 565.59,-597.1 547.2,-597.86"/>
<polygon fill="midnightblue" stroke="midnightblue" points="609.74,-600.25 619.75,-596.79 609.76,-593.25 609.74,-600.25"/>
</g>
<!-- Node22&#45;&gt;Node21 -->
<g id="edge29" class="edge">
<title>Node22&#45;&gt;Node21</title>
<path fill="none" stroke="midnightblue" d="M557.21,-609.5C576.34,-610.11 598.36,-610.35 619.75,-610.21"/>
<polygon fill="midnightblue" stroke="midnightblue" points="557.32,-606.01 547.2,-609.14 557.07,-613 557.32,-606.01"/>
</g>
<!-- Node23&#45;&gt;Node7 -->
<g id="edge31" class="edge">
<title>Node23&#45;&gt;Node7</title>
<path fill="none" stroke="midnightblue" d="M914.09,-366.27C891.59,-347.63 851.5,-318.12 811,-306.5 729.4,-283.08 691.39,-260.57 620,-306.5 573.46,-336.44 518.02,-512.28 504.89,-555.77"/>
<polygon fill="midnightblue" stroke="midnightblue" points="911.92,-369.03 921.81,-372.82 916.45,-363.69 911.92,-369.03"/>
</g>
<!-- Node23&#45;&gt;Node10 -->
<g id="edge32" class="edge">
<title>Node23&#45;&gt;Node10</title>
<path fill="none" stroke="midnightblue" d="M914.76,-399.21C892.37,-419.32 851.83,-452.63 811,-470.5 802.11,-474.39 792.4,-477.5 782.69,-479.97"/>
<polygon fill="midnightblue" stroke="midnightblue" points="917.4,-401.54 922.41,-392.2 912.67,-396.37 917.4,-401.54"/>
</g>
<!-- Node23&#45;&gt;Node11 -->
<g id="edge33" class="edge">
<title>Node23&#45;&gt;Node11</title>
<path fill="none" stroke="midnightblue" d="M836.52,-390.94C820.75,-392.33 804.63,-393.75 789.53,-395.08"/>
<polygon fill="midnightblue" stroke="midnightblue" points="837.17,-394.4 846.82,-390.04 836.55,-387.43 837.17,-394.4"/>
</g>
<!-- Node23&#45;&gt;Node12 -->
<g id="edge34" class="edge">
<title>Node23&#45;&gt;Node12</title>
<path fill="none" stroke="midnightblue" d="M893.44,-395.2C869.68,-402.81 838.69,-412.51 811,-420.5 799.42,-423.84 787,-427.25 775.09,-430.44"/>
<polygon fill="midnightblue" stroke="midnightblue" points="894.7,-398.47 903.15,-392.08 892.56,-391.81 894.7,-398.47"/>
</g>
<!-- Node23&#45;&gt;Node13 -->
<g id="edge35" class="edge">
<title>Node23&#45;&gt;Node13</title>
<path fill="none" stroke="midnightblue" d="M895.03,-369.66C871.16,-361.77 839.48,-351.79 811,-344.5 797.54,-341.05 782.88,-337.84 769.21,-335.08"/>
<polygon fill="midnightblue" stroke="midnightblue" points="894.15,-373.06 904.75,-372.91 896.37,-366.42 894.15,-373.06"/>
</g>
<!-- Node23&#45;&gt;Node14 -->
<g id="edge36" class="edge">
<title>Node23&#45;&gt;Node14</title>
<path fill="none" stroke="midnightblue" d="M836.71,-374.07C828.04,-373.31 819.26,-372.54 810.61,-371.78"/>
<polygon fill="midnightblue" stroke="midnightblue" points="836.55,-377.57 846.82,-374.96 837.17,-370.6 836.55,-377.57"/>
</g>
<!-- Node23&#45;&gt;Node20 -->
<g id="edge38" class="edge">
<title>Node23&#45;&gt;Node20</title>
<path fill="none" stroke="midnightblue" d="M928.98,-362.79C919.52,-316.49 888.81,-201.2 811,-154.5 738.22,-110.81 688.66,-104.59 620,-154.5 578.05,-185 613.43,-222.79 584,-265.5 566.89,-290.33 537.77,-310.57 519.23,-321.82"/>
<polygon fill="midnightblue" stroke="midnightblue" points="925.57,-363.6 930.9,-372.76 932.44,-362.27 925.57,-363.6"/>
</g>
<!-- Node23&#45;&gt;Node21 -->
<g id="edge39" class="edge">
<title>Node23&#45;&gt;Node21</title>
<path fill="none" stroke="midnightblue" d="M916.38,-399.38C893.19,-423.63 849.02,-469.68 811,-508.5 780.24,-539.91 743.39,-576.72 726.21,-593.84"/>
<polygon fill="midnightblue" stroke="midnightblue" points="919.03,-401.68 923.41,-392.03 913.97,-396.84 919.03,-401.68"/>
</g>
<!-- Node24 -->
<g id="node24" class="node">
<title>Node24</title>
<g id="a_node24"><a xlink:href="../../d0/d0f/group___m_g_r___a_t___c_m_d.html#ga166c0300322bd71368b25fe8c351eb9b" target="_top" xlink:title=" ">
<polygon fill="white" stroke="black" points="637,-202 637,-221 794,-221 794,-202 637,-202"/>
<text text-anchor="middle" x="715.5" y="-209" font-family="Helvetica,sans-Serif" font-size="10.00">bMGR_AT_CMD_UDATE_cmd</text>
</a>
</g>
</g>
<!-- Node23&#45;&gt;Node24 -->
<g id="edge37" class="edge">
<title>Node23&#45;&gt;Node24</title>
<path fill="none" stroke="midnightblue" d="M923.2,-363.76C905.94,-331.03 865.64,-263.81 811,-230.5 804.71,-226.67 797.8,-223.59 790.65,-221.12"/>
<polygon fill="midnightblue" stroke="midnightblue" points="920.13,-365.43 927.81,-372.73 926.36,-362.23 920.13,-365.43"/>
</g>
<!-- Node25&#45;&gt;Node20 -->
<g id="edge44" class="edge">
<title>Node25&#45;&gt;Node20</title>
<path fill="none" stroke="midnightblue" d="M681.53,-73.42C660.89,-83.78 635.37,-99.86 620,-121.5 581.8,-175.28 619.55,-209.93 584,-265.5 567.85,-290.75 538.74,-310.73 519.9,-321.84"/>
<polygon fill="midnightblue" stroke="midnightblue" points="683.11,-76.54 690.62,-69.07 680.09,-70.23 683.11,-76.54"/>
</g>
<!-- Node26&#45;&gt;Node19 -->
<g id="edge52" class="edge">
<title>Node26&#45;&gt;Node19</title>
<path fill="none" stroke="midnightblue" d="M449.15,-244.86C394.48,-245.1 306.37,-251.38 239,-284.5 206.83,-300.32 179.37,-334.2 167.2,-350.86"/>
<polygon fill="midnightblue" stroke="midnightblue" points="449.28,-248.36 459.29,-244.88 449.3,-241.36 449.28,-248.36"/>
</g>
<!-- Node27 -->
<g id="node27" class="node">
<title>Node27</title>
<g id="a_node27"><a xlink:href="../../d9/d2f/group___k_i_n_e_i_s___s_w___c_o_n_f.html#ga530a6753c266d92335600fbc8c47da6d" target="_top" xlink:title="Handle assert reported by Kineis stack,.">
<polygon fill="white" stroke="black" points="259.5,-218 259.5,-237 361.5,-237 361.5,-218 259.5,-218"/>
<text text-anchor="middle" x="310.5" y="-225" font-family="Helvetica,sans-Serif" font-size="10.00">kns_assert_failed</text>
</a>
</g>
</g>
<!-- Node26&#45;&gt;Node27 -->
<g id="edge48" class="edge">
<title>Node26&#45;&gt;Node27</title>
<path fill="none" stroke="midnightblue" d="M449.03,-241.36C421.93,-238.63 388.72,-235.28 361.72,-232.56"/>
<polygon fill="midnightblue" stroke="midnightblue" points="448.8,-244.86 459.1,-242.38 449.5,-237.89 448.8,-244.86"/>
</g>
<!-- Node28 -->
<g id="node28" class="node">
<title>Node28</title>
<g id="a_node28"><a xlink:href="../../db/dca/group___m_g_r___l_p_m.html#gab502b89f35dcc87b365658836f69736e" target="_top" xlink:title="System Clock Configuration when exit from stop mode.">
<polygon fill="white" stroke="black" points="239,-168.5 239,-198.5 382,-198.5 382,-168.5 239,-168.5"/>
<text text-anchor="start" x="247" y="-186.5" font-family="Helvetica,sans-Serif" font-size="10.00">LPM_SystemClock_Config</text>
<text text-anchor="middle" x="310.5" y="-175.5" font-family="Helvetica,sans-Serif" font-size="10.00">_RestoreFromStop</text>
</a>
</g>
</g>
<!-- Node26&#45;&gt;Node28 -->
<g id="edge49" class="edge">
<title>Node26&#45;&gt;Node28</title>
<path fill="none" stroke="midnightblue" d="M461.55,-233.65C431.13,-223.48 388.6,-209.27 356.58,-198.57"/>
<polygon fill="midnightblue" stroke="midnightblue" points="460.78,-237.08 471.37,-236.93 463,-230.44 460.78,-237.08"/>
</g>
<!-- Node31 -->
<g id="node31" class="node">
<title>Node31</title>
<g id="a_node31"><a xlink:href="../../d8/d5d/group___m_c_u___w_r_a_p_p_e_r_s.html#gaf68cb2253430ce4b7743a51d34430028" target="_top" xlink:title="Function used to start the timer for a specific delay.">
<polygon fill="white" stroke="black" points="265,-294 265,-313 356,-313 356,-294 265,-294"/>
<text text-anchor="middle" x="310.5" y="-301" font-family="Helvetica,sans-Serif" font-size="10.00">MCU_TIM_start</text>
</a>
</g>
</g>
<!-- Node26&#45;&gt;Node31 -->
<g id="edge53" class="edge">
<title>Node26&#45;&gt;Node31</title>
<path fill="none" stroke="midnightblue" d="M458.6,-259.02C423.82,-269.54 374.86,-284.34 343.15,-293.93"/>
<polygon fill="midnightblue" stroke="midnightblue" points="459.89,-262.29 468.45,-256.04 457.86,-255.58 459.89,-262.29"/>
</g>
<!-- Node32 -->
<g id="node32" class="node">
<title>Node32</title>
<g id="a_node32"><a xlink:href="../../d0/d29/main_8c.html#a70af21c671abfcc773614a9a4f63d920" target="_top" xlink:title="System Clock Configuration.">
<polygon fill="white" stroke="black" points="252,-332 252,-351 369,-351 369,-332 252,-332"/>
<text text-anchor="middle" x="310.5" y="-339" font-family="Helvetica,sans-Serif" font-size="10.00">SystemClock_Config</text>
</a>
</g>
</g>
<!-- Node26&#45;&gt;Node32 -->
<g id="edge54" class="edge">
<title>Node26&#45;&gt;Node32</title>
<path fill="none" stroke="midnightblue" d="M479.84,-262.27C457.19,-279.3 418.77,-306.18 382,-322.5 373.66,-326.2 364.43,-329.33 355.48,-331.9"/>
<polygon fill="midnightblue" stroke="midnightblue" points="482.15,-264.91 487.98,-256.06 477.91,-259.34 482.15,-264.91"/>
</g>
<!-- Node29 -->
<g id="node29" class="node">
<title>Node29</title>
<g id="a_node29"><a xlink:href="../../db/dca/group___m_g_r___l_p_m.html#ga2dfaa58a8d7f90840153f1f06542fd13" target="_top" xlink:title="System callback invoked by MGR_LPM at STOP mode exit.">
<polygon fill="white" stroke="black" points="116,-174 116,-193 203,-193 203,-174 116,-174"/>
<text text-anchor="middle" x="159.5" y="-181" font-family="Helvetica,sans-Serif" font-size="10.00">LPM_stop_exit</text>
</a>
</g>
</g>
<!-- Node28&#45;&gt;Node29 -->
<g id="edge50" class="edge">
<title>Node28&#45;&gt;Node29</title>
<path fill="none" stroke="midnightblue" d="M228.93,-183.5C220.09,-183.5 211.36,-183.5 203.26,-183.5"/>
<polygon fill="midnightblue" stroke="midnightblue" points="228.93,-187 238.93,-183.5 228.93,-180 228.93,-187"/>
</g>
<!-- Node30 -->
<g id="node30" class="node">
<title>Node30</title>
<g id="a_node30"><a xlink:href="../../db/dca/group___m_g_r___l_p_m.html#ga5e3c04e1820c16433ff591dde81e7449" target="_top" xlink:title=" ">
<polygon fill="white" stroke="black" points="0,-174 0,-193 80,-193 80,-174 0,-174"/>
<text text-anchor="middle" x="40" y="-181" font-family="Helvetica,sans-Serif" font-size="10.00">__attribute__</text>
</a>
</g>
</g>
<!-- Node29&#45;&gt;Node30 -->
<g id="edge51" class="edge">
<title>Node29&#45;&gt;Node30</title>
<path fill="none" stroke="midnightblue" d="M105.72,-183.5C97.07,-183.5 88.25,-183.5 80.01,-183.5"/>
<polygon fill="midnightblue" stroke="midnightblue" points="105.75,-187 115.75,-183.5 105.75,-180 105.75,-187"/>
</g>
<!-- Node32&#45;&gt;Node19 -->
<g id="edge55" class="edge">
<title>Node32&#45;&gt;Node19</title>
<path fill="none" stroke="midnightblue" d="M241.96,-350.11C219.41,-352.99 196,-355.97 180.1,-358"/>
<polygon fill="midnightblue" stroke="midnightblue" points="242.42,-353.58 251.89,-348.85 241.53,-346.64 242.42,-353.58"/>
</g>
<!-- Node33&#45;&gt;Node25 -->
<g id="edge58" class="edge">
<title>Node33&#45;&gt;Node25</title>
<path fill="none" stroke="midnightblue" d="M854.27,-31.44C823.8,-37.64 789.91,-44.55 763.36,-49.95"/>
<polygon fill="midnightblue" stroke="midnightblue" points="855.35,-34.79 864.45,-29.36 853.96,-27.93 855.35,-34.79"/>
</g>
</g>
</svg>
        <g id="navigator" transform="translate(0 0)" fill="#404254">
                <rect fill="#f2f5e9" fill-opacity="0.5" stroke="#606060" stroke-width=".5" x="0" y="0" width="60" height="60"/>
                <use id="zoomplus" xlink:href="#zoomPlus" x="17" y="9" onmousedown="handleZoom(evt,'in')"/>
                <use id="zoomminus" xlink:href="#zoomMin" x="42" y="9" onmousedown="handleZoom(evt,'out')"/>
                <use id="reset" xlink:href="#resetDef" x="30" y="36" onmousedown="handleReset()"/>
                <g id="arrowUp" xlink:href="#dirArrow" transform="translate(30 24)" onmousedown="handlePan(0,-1)">
                  <use xlink:href="#rim" fill="#404040">
                        <set attributeName="fill" to="#808080" begin="arrowUp.mouseover" end="arrowUp.mouseout"/>
                  </use>
                  <path fill="none" stroke="white" stroke-width="1.5" d="M0,-3.0v7 M-2.5,-0.5L0,-3.0L2.5,-0.5"/>
                </g>
                <g id="arrowRight" xlink:href="#dirArrow" transform="rotate(90) translate(36 -43)" onmousedown="handlePan(1,0)">
                  <use xlink:href="#rim" fill="#404040">
                        <set attributeName="fill" to="#808080" begin="arrowRight.mouseover" end="arrowRight.mouseout"/>
                  </use>
                  <path fill="none" stroke="white" stroke-width="1.5" d="M0,-3.0v7 M-2.5,-0.5L0,-3.0L2.5,-0.5"/>
                </g>
                <g id="arrowDown" xlink:href="#dirArrow" transform="rotate(180) translate(-30 -48)" onmousedown="handlePan(0,1)">
                  <use xlink:href="#rim" fill="#404040">
                        <set attributeName="fill" to="#808080" begin="arrowDown.mouseover" end="arrowDown.mouseout"/>
                  </use>
                  <path fill="none" stroke="white" stroke-width="1.5" d="M0,-3.0v7 M-2.5,-0.5L0,-3.0L2.5,-0.5"/>
                </g>
                <g id="arrowLeft" xlink:href="#dirArrow" transform="rotate(270) translate(-36 17)" onmousedown="handlePan(-1,0)">
                  <use xlink:href="#rim" fill="#404040">
                        <set attributeName="fill" to="#808080" begin="arrowLeft.mouseover" end="arrowLeft.mouseout"/>
                  </use>
                  <path fill="none" stroke="white" stroke-width="1.5" d="M0,-3.0v7 M-2.5,-0.5L0,-3.0L2.5,-0.5"/>
                </g>
        </g>
        <svg viewBox="0 0 15 15" width="100%" height="30px" preserveAspectRatio="xMaxYMin meet">
         <g id="arrow_out" transform="scale(0.3 0.3)">
          <a xlink:href="group___m_c_u___a_p_p___w_r_a_p_p_e_r_s_gae14ee3e1d2a9b459c0d89c451a4bc470_icgraph_org.svg" target="_base">
           <rect id="button" ry="5" rx="5" y="6" x="6" height="38" width="38"
                fill="#f2f5e9" fill-opacity="0.5" stroke="#606060" stroke-width="1.0"/>
           <path id="arrow"
             d="M 11.500037,31.436501 C 11.940474,20.09759 22.043105,11.32322 32.158766,21.979434 L 37.068811,17.246167 C 37.068811,17.246167 37.088388,32 37.088388,32 L 22.160133,31.978069 C 22.160133,31.978069 26.997745,27.140456 26.997745,27.140456 C 18.528582,18.264221 13.291696,25.230495 11.500037,31.436501 z"
             style="fill:#404040;"/>
          </a>
         </g>
        </svg>
</svg>
