<?xml version="1.0" encoding="UTF-8" standalone="no"?>
<!DOCTYPE svg PUBLIC "-//W3C//DTD SVG 1.1//EN"
 "http://www.w3.org/Graphics/SVG/1.1/DTD/svg11.dtd">
<!-- Generated by graphviz version 2.43.0 (0)
 -->
<!-- Title: Kineis/App/Libs/STRUTIL/Inc/strutil_lib.h Pages: 1 -->
<!--zoomable 273 -->
<svg id="main" version="1.1" xmlns="http://www.w3.org/2000/svg" xmlns:xlink="http://www.w3.org/1999/xlink" xml:space="preserve" onload="init(evt)">
<style type="text/css"><![CDATA[
.edge:hover path { stroke: red; }
.edge:hover polygon { stroke: red; fill: red; }
]]></style>
<script type="text/javascript"><![CDATA[
var edges = document.getElementsByTagName('g');
if (edges && edges.length) {
  for (var i=0;i<edges.length;i++) {
    if (edges[i].id.substr(0,4)=='edge') {
      edges[i].setAttribute('class','edge');
    }
  }
}
]]></script>
        <defs>
                <circle id="rim" cx="0" cy="0" r="7"/>
                <circle id="rim2" cx="0" cy="0" r="3.5"/>
                <g id="zoomPlus">
                        <use xlink:href="#rim" fill="#404040">
                                <set attributeName="fill" to="#808080" begin="zoomplus.mouseover" end="zoomplus.mouseout"/>
                        </use>
                        <path d="M-4,0h8M0,-4v8" fill="none" stroke="white" stroke-width="1.5" pointer-events="none"/>
                </g>
                <g id="zoomMin">
                        <use xlink:href="#rim" fill="#404040">
                                <set attributeName="fill" to="#808080" begin="zoomminus.mouseover" end="zoomminus.mouseout"/>
                        </use>
                        <path d="M-4,0h8" fill="none" stroke="white" stroke-width="1.5" pointer-events="none"/>
                </g>
                <g id="dirArrow">
                        <path fill="none" stroke="white" stroke-width="1.5" d="M0,-3.0v7 M-2.5,-0.5L0,-3.0L2.5,-0.5"/>
                </g>
               <g id="resetDef">
                       <use xlink:href="#rim2" fill="#404040">
                               <set attributeName="fill" to="#808080" begin="reset.mouseover" end="reset.mouseout"/>
                       </use>
               </g>
        </defs>

<script type="text/javascript">
var viewWidth = 1177;
var viewHeight = 273;
var sectionId = 'dynsection-1';
</script>
<script xlink:href="../../svgpan.js"/>
<svg id="graph" class="graph">
<g id="viewport">
<title>Kineis/App/Libs/STRUTIL/Inc/strutil_lib.h</title>
<polygon fill="white" stroke="transparent" points="-4,4 -4,-269 1173,-269 1173,4 -4,4"/>
<!-- Node1 -->
<g id="node1" class="node">
<title>Node1</title>
<g id="a_node1"><a xlink:title="small utilities to manipulate strings">
<polygon fill="#bfbfbf" stroke="black" points="480,-234.5 480,-264.5 614,-264.5 614,-234.5 480,-234.5"/>
<text text-anchor="start" x="488" y="-252.5" font-family="Helvetica,sans-Serif" font-size="10.00">Kineis/App/Libs/STRUTIL</text>
<text text-anchor="middle" x="547" y="-241.5" font-family="Helvetica,sans-Serif" font-size="10.00">/Inc/strutil_lib.h</text>
</a>
</g>
</g>
<!-- Node2 -->
<g id="node2" class="node">
<title>Node2</title>
<g id="a_node2"><a xlink:href="../../d5/d43/strutil__lib_8c.html" target="_top" xlink:title="Application general purpose routines for data conversion / generation.">
<polygon fill="white" stroke="black" points="405,-162 405,-192 539,-192 539,-162 405,-162"/>
<text text-anchor="start" x="413" y="-180" font-family="Helvetica,sans-Serif" font-size="10.00">Kineis/App/Libs/STRUTIL</text>
<text text-anchor="middle" x="472" y="-169" font-family="Helvetica,sans-Serif" font-size="10.00">/Src/strutil_lib.c</text>
</a>
</g>
</g>
<!-- Node1&#45;&gt;Node2 -->
<g id="edge1" class="edge">
<title>Node1&#45;&gt;Node2</title>
<path fill="none" stroke="midnightblue" d="M524.28,-227.14C512.15,-215.74 497.58,-202.04 486.9,-192"/>
<polygon fill="midnightblue" stroke="midnightblue" points="522.14,-229.93 531.82,-234.23 526.93,-224.83 522.14,-229.93"/>
</g>
<!-- Node3 -->
<g id="node3" class="node">
<title>Node3</title>
<g id="a_node3"><a xlink:href="../../d5/d58/mgr__at__cmd__common_8h.html" target="_top" xlink:title="header file for common part of the AT cmd manager">
<polygon fill="white" stroke="black" points="557.5,-156.5 557.5,-197.5 686.5,-197.5 686.5,-156.5 557.5,-156.5"/>
<text text-anchor="start" x="565.5" y="-185.5" font-family="Helvetica,sans-Serif" font-size="10.00">Kineis/App/Managers</text>
<text text-anchor="start" x="565.5" y="-174.5" font-family="Helvetica,sans-Serif" font-size="10.00">/MGR_AT_CMD/Inc/mgr</text>
<text text-anchor="middle" x="622" y="-163.5" font-family="Helvetica,sans-Serif" font-size="10.00">_at_cmd_common.h</text>
</a>
</g>
</g>
<!-- Node1&#45;&gt;Node3 -->
<g id="edge2" class="edge">
<title>Node1&#45;&gt;Node3</title>
<path fill="none" stroke="midnightblue" d="M569.47,-227.38C579.52,-217.93 591.31,-206.85 601.16,-197.59"/>
<polygon fill="midnightblue" stroke="midnightblue" points="567.07,-224.83 562.18,-234.23 571.86,-229.93 567.07,-224.83"/>
</g>
<!-- Node4 -->
<g id="node4" class="node">
<title>Node4</title>
<g id="a_node4"><a xlink:href="../../d4/ddf/mgr__at__cmd__list__general_8h.html" target="_top" xlink:title="subset of AT commands concerning general purpose (get ID, FW version, ...)">
<polygon fill="white" stroke="black" points="557.5,-78.5 557.5,-119.5 686.5,-119.5 686.5,-78.5 557.5,-78.5"/>
<text text-anchor="start" x="565.5" y="-107.5" font-family="Helvetica,sans-Serif" font-size="10.00">Kineis/App/Managers</text>
<text text-anchor="start" x="565.5" y="-96.5" font-family="Helvetica,sans-Serif" font-size="10.00">/MGR_AT_CMD/Inc/mgr</text>
<text text-anchor="middle" x="622" y="-85.5" font-family="Helvetica,sans-Serif" font-size="10.00">_at_cmd_list_general.h</text>
</a>
</g>
</g>
<!-- Node3&#45;&gt;Node4 -->
<g id="edge3" class="edge">
<title>Node3&#45;&gt;Node4</title>
<path fill="none" stroke="midnightblue" d="M622,-146.3C622,-137.3 622,-127.65 622,-119.51"/>
<polygon fill="midnightblue" stroke="midnightblue" points="618.5,-146.43 622,-156.43 625.5,-146.43 618.5,-146.43"/>
</g>
<!-- Node5 -->
<g id="node5" class="node">
<title>Node5</title>
<g id="a_node5"><a xlink:href="../../da/df9/mgr__at__cmd__list_8c.html" target="_top" xlink:title="AT commands list main file.">
<polygon fill="white" stroke="black" points="306,-0.5 306,-41.5 436,-41.5 436,-0.5 306,-0.5"/>
<text text-anchor="start" x="314" y="-29.5" font-family="Helvetica,sans-Serif" font-size="10.00">Kineis/App/Managers</text>
<text text-anchor="start" x="314" y="-18.5" font-family="Helvetica,sans-Serif" font-size="10.00">/MGR_AT_CMD/Src/mgr</text>
<text text-anchor="middle" x="371" y="-7.5" font-family="Helvetica,sans-Serif" font-size="10.00">_at_cmd_list.c</text>
</a>
</g>
</g>
<!-- Node3&#45;&gt;Node5 -->
<g id="edge18" class="edge">
<title>Node3&#45;&gt;Node5</title>
<path fill="none" stroke="midnightblue" d="M547.46,-156.13C474.82,-141.29 437.94,-169.52 390,-120 369.87,-99.2 367.92,-63.84 368.99,-41.76"/>
<polygon fill="midnightblue" stroke="midnightblue" points="546.94,-159.6 557.47,-158.4 548.49,-152.77 546.94,-159.6"/>
</g>
<!-- Node6 -->
<g id="node6" class="node">
<title>Node6</title>
<g id="a_node6"><a xlink:href="../../d1/dfd/mgr__at__cmd__list__general_8c.html" target="_top" xlink:title="subset of AT commands concerning general purpose (get ID, FW version, ...)">
<polygon fill="white" stroke="black" points="612,-0.5 612,-41.5 742,-41.5 742,-0.5 612,-0.5"/>
<text text-anchor="start" x="620" y="-29.5" font-family="Helvetica,sans-Serif" font-size="10.00">Kineis/App/Managers</text>
<text text-anchor="start" x="620" y="-18.5" font-family="Helvetica,sans-Serif" font-size="10.00">/MGR_AT_CMD/Src/mgr</text>
<text text-anchor="middle" x="677" y="-7.5" font-family="Helvetica,sans-Serif" font-size="10.00">_at_cmd_list_general.c</text>
</a>
</g>
</g>
<!-- Node3&#45;&gt;Node6 -->
<g id="edge20" class="edge">
<title>Node3&#45;&gt;Node6</title>
<path fill="none" stroke="midnightblue" d="M669.29,-150.45C680.01,-142.23 690,-132.07 696,-120 708.5,-94.86 697.57,-62.29 687.86,-41.77"/>
<polygon fill="midnightblue" stroke="midnightblue" points="667.12,-147.69 661,-156.34 671.18,-153.4 667.12,-147.69"/>
</g>
<!-- Node7 -->
<g id="node7" class="node">
<title>Node7</title>
<g id="a_node7"><a xlink:href="../../d9/dc9/mgr__at__cmd__list__mac_8h.html" target="_top" xlink:title="subset of AT commands concerning Kinéis Medium Acces Channel (MAC).">
<polygon fill="white" stroke="black" points="55.5,-78.5 55.5,-119.5 184.5,-119.5 184.5,-78.5 55.5,-78.5"/>
<text text-anchor="start" x="63.5" y="-107.5" font-family="Helvetica,sans-Serif" font-size="10.00">Kineis/App/Managers</text>
<text text-anchor="start" x="63.5" y="-96.5" font-family="Helvetica,sans-Serif" font-size="10.00">/MGR_AT_CMD/Inc/mgr</text>
<text text-anchor="middle" x="120" y="-85.5" font-family="Helvetica,sans-Serif" font-size="10.00">_at_cmd_list_mac.h</text>
</a>
</g>
</g>
<!-- Node3&#45;&gt;Node7 -->
<g id="edge6" class="edge">
<title>Node3&#45;&gt;Node7</title>
<path fill="none" stroke="midnightblue" d="M547.18,-156.02C390.68,-128.13 346.32,-148.14 194,-120 190.99,-119.44 187.92,-118.83 184.84,-118.16"/>
<polygon fill="midnightblue" stroke="midnightblue" points="546.7,-159.49 557.16,-157.84 547.95,-152.6 546.7,-159.49"/>
</g>
<!-- Node9 -->
<g id="node9" class="node">
<title>Node9</title>
<g id="a_node9"><a xlink:href="../../da/da4/mgr__at__cmd__list__previpass_8h.html" target="_top" xlink:title="subset of AT commands concerning satellite PASS predictions, usefull for Medium Acces">
<polygon fill="white" stroke="black" points="203,-78.5 203,-119.5 343,-119.5 343,-78.5 203,-78.5"/>
<text text-anchor="start" x="211" y="-107.5" font-family="Helvetica,sans-Serif" font-size="10.00">Kineis/App/Managers</text>
<text text-anchor="start" x="211" y="-96.5" font-family="Helvetica,sans-Serif" font-size="10.00">/MGR_AT_CMD/Inc/mgr</text>
<text text-anchor="middle" x="273" y="-85.5" font-family="Helvetica,sans-Serif" font-size="10.00">_at_cmd_list_previpass.h</text>
</a>
</g>
</g>
<!-- Node3&#45;&gt;Node9 -->
<g id="edge9" class="edge">
<title>Node3&#45;&gt;Node9</title>
<path fill="none" stroke="midnightblue" d="M547.26,-155.92C462.1,-136.78 438.43,-137.36 357,-120 352.45,-119.03 347.78,-118 343.07,-116.95"/>
<polygon fill="midnightblue" stroke="midnightblue" points="546.57,-159.35 557.1,-158.15 548.12,-152.52 546.57,-159.35"/>
</g>
<!-- Node11 -->
<g id="node11" class="node">
<title>Node11</title>
<g id="a_node11"><a xlink:href="../../de/de6/mgr__at__cmd__list__user__data_8h.html" target="_top" xlink:title="subset of AT commands concerning user data manipulation such as TX">
<polygon fill="white" stroke="black" points="399,-78.5 399,-119.5 539,-119.5 539,-78.5 399,-78.5"/>
<text text-anchor="start" x="407" y="-107.5" font-family="Helvetica,sans-Serif" font-size="10.00">Kineis/App/Managers</text>
<text text-anchor="start" x="407" y="-96.5" font-family="Helvetica,sans-Serif" font-size="10.00">/MGR_AT_CMD/Inc/mgr</text>
<text text-anchor="middle" x="469" y="-85.5" font-family="Helvetica,sans-Serif" font-size="10.00">_at_cmd_list_user_data.h</text>
</a>
</g>
</g>
<!-- Node3&#45;&gt;Node11 -->
<g id="edge12" class="edge">
<title>Node3&#45;&gt;Node11</title>
<path fill="none" stroke="midnightblue" d="M573.5,-151.91C552.46,-141.46 528.15,-129.38 508.27,-119.51"/>
<polygon fill="midnightblue" stroke="midnightblue" points="572.09,-155.11 582.6,-156.43 575.2,-148.84 572.09,-155.11"/>
</g>
<!-- Node13 -->
<g id="node13" class="node">
<title>Node13</title>
<g id="a_node13"><a xlink:href="../../da/d77/mgr__at__cmd_8c.html" target="_top" xlink:title="APIs Implementation used to parse the UART ASCII data stream and extract AT commands.">
<polygon fill="white" stroke="black" points="743,-78.5 743,-119.5 873,-119.5 873,-78.5 743,-78.5"/>
<text text-anchor="start" x="751" y="-107.5" font-family="Helvetica,sans-Serif" font-size="10.00">Kineis/App/Managers</text>
<text text-anchor="start" x="751" y="-96.5" font-family="Helvetica,sans-Serif" font-size="10.00">/MGR_AT_CMD/Src/mgr</text>
<text text-anchor="middle" x="808" y="-85.5" font-family="Helvetica,sans-Serif" font-size="10.00">_at_cmd.c</text>
</a>
</g>
</g>
<!-- Node3&#45;&gt;Node13 -->
<g id="edge16" class="edge">
<title>Node3&#45;&gt;Node13</title>
<path fill="none" stroke="midnightblue" d="M679.25,-152.61C705.21,-142 735.55,-129.6 760.26,-119.51"/>
<polygon fill="midnightblue" stroke="midnightblue" points="677.83,-149.41 669.9,-156.43 680.48,-155.89 677.83,-149.41"/>
</g>
<!-- Node14 -->
<g id="node14" class="node">
<title>Node14</title>
<g id="a_node14"><a xlink:href="../../d5/dd7/mgr__at__cmd__common_8c.html" target="_top" xlink:title="common part of the AT cmd manager (logging, AT cmd response api)">
<polygon fill="white" stroke="black" points="891,-78.5 891,-119.5 1021,-119.5 1021,-78.5 891,-78.5"/>
<text text-anchor="start" x="899" y="-107.5" font-family="Helvetica,sans-Serif" font-size="10.00">Kineis/App/Managers</text>
<text text-anchor="start" x="899" y="-96.5" font-family="Helvetica,sans-Serif" font-size="10.00">/MGR_AT_CMD/Src/mgr</text>
<text text-anchor="middle" x="956" y="-85.5" font-family="Helvetica,sans-Serif" font-size="10.00">_at_cmd_common.c</text>
</a>
</g>
</g>
<!-- Node3&#45;&gt;Node14 -->
<g id="edge17" class="edge">
<title>Node3&#45;&gt;Node14</title>
<path fill="none" stroke="midnightblue" d="M696.42,-161.04C748.54,-150.3 819.72,-135.11 882,-120 884.85,-119.31 887.75,-118.59 890.68,-117.85"/>
<polygon fill="midnightblue" stroke="midnightblue" points="695.68,-157.62 686.59,-163.06 697.09,-164.47 695.68,-157.62"/>
</g>
<!-- Node15 -->
<g id="node15" class="node">
<title>Node15</title>
<g id="a_node15"><a xlink:href="../../d2/d04/mgr__at__cmd__list__certif_8c.html" target="_top" xlink:title="subset of AT commands concerning specifics for certification">
<polygon fill="white" stroke="black" points="1039,-78.5 1039,-119.5 1169,-119.5 1169,-78.5 1039,-78.5"/>
<text text-anchor="start" x="1047" y="-107.5" font-family="Helvetica,sans-Serif" font-size="10.00">Kineis/App/Managers</text>
<text text-anchor="start" x="1047" y="-96.5" font-family="Helvetica,sans-Serif" font-size="10.00">/MGR_AT_CMD/Src/mgr</text>
<text text-anchor="middle" x="1104" y="-85.5" font-family="Helvetica,sans-Serif" font-size="10.00">_at_cmd_list_certif.c</text>
</a>
</g>
</g>
<!-- Node3&#45;&gt;Node15 -->
<g id="edge19" class="edge">
<title>Node3&#45;&gt;Node15</title>
<path fill="none" stroke="midnightblue" d="M696.73,-168.64C778.92,-159.87 914.64,-143.41 1030,-120 1032.87,-119.42 1035.79,-118.79 1038.74,-118.12"/>
<polygon fill="midnightblue" stroke="midnightblue" points="696.31,-165.16 686.73,-169.69 697.05,-172.12 696.31,-165.16"/>
</g>
<!-- Node4&#45;&gt;Node5 -->
<g id="edge4" class="edge">
<title>Node4&#45;&gt;Node5</title>
<path fill="none" stroke="midnightblue" d="M547.5,-75.44C511.87,-64.66 469.64,-51.87 435.42,-41.51"/>
<polygon fill="midnightblue" stroke="midnightblue" points="546.78,-78.88 557.36,-78.43 548.8,-72.18 546.78,-78.88"/>
</g>
<!-- Node4&#45;&gt;Node6 -->
<g id="edge5" class="edge">
<title>Node4&#45;&gt;Node6</title>
<path fill="none" stroke="midnightblue" d="M642.23,-70.05C649.09,-60.57 656.6,-50.18 662.88,-41.51"/>
<polygon fill="midnightblue" stroke="midnightblue" points="639.19,-68.27 636.16,-78.43 644.86,-72.38 639.19,-68.27"/>
</g>
<!-- Node7&#45;&gt;Node5 -->
<g id="edge7" class="edge">
<title>Node7&#45;&gt;Node5</title>
<path fill="none" stroke="midnightblue" d="M194.5,-75.44C230.13,-64.66 272.36,-51.87 306.58,-41.51"/>
<polygon fill="midnightblue" stroke="midnightblue" points="193.2,-72.18 184.64,-78.43 195.22,-78.88 193.2,-72.18"/>
</g>
<!-- Node8 -->
<g id="node8" class="node">
<title>Node8</title>
<g id="a_node8"><a xlink:href="../../d1/de0/mgr__at__cmd__list__mac_8c.html" target="_top" xlink:title="subset of AT commands concerning Kinéis Medium Acces Channel (MAC).">
<polygon fill="white" stroke="black" points="0,-0.5 0,-41.5 130,-41.5 130,-0.5 0,-0.5"/>
<text text-anchor="start" x="8" y="-29.5" font-family="Helvetica,sans-Serif" font-size="10.00">Kineis/App/Managers</text>
<text text-anchor="start" x="8" y="-18.5" font-family="Helvetica,sans-Serif" font-size="10.00">/MGR_AT_CMD/Src/mgr</text>
<text text-anchor="middle" x="65" y="-7.5" font-family="Helvetica,sans-Serif" font-size="10.00">_at_cmd_list_mac.c</text>
</a>
</g>
</g>
<!-- Node7&#45;&gt;Node8 -->
<g id="edge8" class="edge">
<title>Node7&#45;&gt;Node8</title>
<path fill="none" stroke="midnightblue" d="M99.77,-70.05C92.91,-60.57 85.4,-50.18 79.12,-41.51"/>
<polygon fill="midnightblue" stroke="midnightblue" points="97.14,-72.38 105.84,-78.43 102.81,-68.27 97.14,-72.38"/>
</g>
<!-- Node9&#45;&gt;Node5 -->
<g id="edge10" class="edge">
<title>Node9&#45;&gt;Node5</title>
<path fill="none" stroke="midnightblue" d="M306.44,-72.06C319.35,-62.06 333.86,-50.8 345.85,-41.51"/>
<polygon fill="midnightblue" stroke="midnightblue" points="303.99,-69.53 298.24,-78.43 308.28,-75.07 303.99,-69.53"/>
</g>
<!-- Node10 -->
<g id="node10" class="node">
<title>Node10</title>
<g id="a_node10"><a xlink:href="../../d0/d4a/mgr__at__cmd__list__previpass_8c.html" target="_top" xlink:title="subset of AT commands concerning satellite PASS predictions, usefull for Medium Acces">
<polygon fill="white" stroke="black" points="148.5,-0.5 148.5,-41.5 287.5,-41.5 287.5,-0.5 148.5,-0.5"/>
<text text-anchor="start" x="156.5" y="-29.5" font-family="Helvetica,sans-Serif" font-size="10.00">Kineis/App/Managers</text>
<text text-anchor="start" x="156.5" y="-18.5" font-family="Helvetica,sans-Serif" font-size="10.00">/MGR_AT_CMD/Src/mgr</text>
<text text-anchor="middle" x="218" y="-7.5" font-family="Helvetica,sans-Serif" font-size="10.00">_at_cmd_list_previpass.c</text>
</a>
</g>
</g>
<!-- Node9&#45;&gt;Node10 -->
<g id="edge11" class="edge">
<title>Node9&#45;&gt;Node10</title>
<path fill="none" stroke="midnightblue" d="M252.77,-70.05C245.91,-60.57 238.4,-50.18 232.12,-41.51"/>
<polygon fill="midnightblue" stroke="midnightblue" points="250.14,-72.38 258.84,-78.43 255.81,-68.27 250.14,-72.38"/>
</g>
<!-- Node11&#45;&gt;Node5 -->
<g id="edge13" class="edge">
<title>Node11&#45;&gt;Node5</title>
<path fill="none" stroke="midnightblue" d="M435.56,-72.06C422.65,-62.06 408.14,-50.8 396.15,-41.51"/>
<polygon fill="midnightblue" stroke="midnightblue" points="433.72,-75.07 443.76,-78.43 438.01,-69.53 433.72,-75.07"/>
</g>
<!-- Node11&#45;&gt;Node6 -->
<g id="edge14" class="edge">
<title>Node11&#45;&gt;Node6</title>
<path fill="none" stroke="midnightblue" d="M532.26,-74.89C561.45,-64.22 595.74,-51.69 623.62,-41.51"/>
<polygon fill="midnightblue" stroke="midnightblue" points="530.76,-71.71 522.57,-78.43 533.16,-78.28 530.76,-71.71"/>
</g>
<!-- Node12 -->
<g id="node12" class="node">
<title>Node12</title>
<g id="a_node12"><a xlink:href="../../d8/d11/mgr__at__cmd__list__user__data_8c.html" target="_top" xlink:title="subset of AT commands concerning user data manipulation such as TX">
<polygon fill="white" stroke="black" points="454,-0.5 454,-41.5 594,-41.5 594,-0.5 454,-0.5"/>
<text text-anchor="start" x="462" y="-29.5" font-family="Helvetica,sans-Serif" font-size="10.00">Kineis/App/Managers</text>
<text text-anchor="start" x="462" y="-18.5" font-family="Helvetica,sans-Serif" font-size="10.00">/MGR_AT_CMD/Src/mgr</text>
<text text-anchor="middle" x="524" y="-7.5" font-family="Helvetica,sans-Serif" font-size="10.00">_at_cmd_list_user_data.c</text>
</a>
</g>
</g>
<!-- Node11&#45;&gt;Node12 -->
<g id="edge15" class="edge">
<title>Node11&#45;&gt;Node12</title>
<path fill="none" stroke="midnightblue" d="M489.23,-70.05C496.09,-60.57 503.6,-50.18 509.88,-41.51"/>
<polygon fill="midnightblue" stroke="midnightblue" points="486.19,-68.27 483.16,-78.43 491.86,-72.38 486.19,-68.27"/>
</g>
</g>
</svg>
        <g id="navigator" transform="translate(0 0)" fill="#404254">
                <rect fill="#f2f5e9" fill-opacity="0.5" stroke="#606060" stroke-width=".5" x="0" y="0" width="60" height="60"/>
                <use id="zoomplus" xlink:href="#zoomPlus" x="17" y="9" onmousedown="handleZoom(evt,'in')"/>
                <use id="zoomminus" xlink:href="#zoomMin" x="42" y="9" onmousedown="handleZoom(evt,'out')"/>
                <use id="reset" xlink:href="#resetDef" x="30" y="36" onmousedown="handleReset()"/>
                <g id="arrowUp" xlink:href="#dirArrow" transform="translate(30 24)" onmousedown="handlePan(0,-1)">
                  <use xlink:href="#rim" fill="#404040">
                        <set attributeName="fill" to="#808080" begin="arrowUp.mouseover" end="arrowUp.mouseout"/>
                  </use>
                  <path fill="none" stroke="white" stroke-width="1.5" d="M0,-3.0v7 M-2.5,-0.5L0,-3.0L2.5,-0.5"/>
                </g>
                <g id="arrowRight" xlink:href="#dirArrow" transform="rotate(90) translate(36 -43)" onmousedown="handlePan(1,0)">
                  <use xlink:href="#rim" fill="#404040">
                        <set attributeName="fill" to="#808080" begin="arrowRight.mouseover" end="arrowRight.mouseout"/>
                  </use>
                  <path fill="none" stroke="white" stroke-width="1.5" d="M0,-3.0v7 M-2.5,-0.5L0,-3.0L2.5,-0.5"/>
                </g>
                <g id="arrowDown" xlink:href="#dirArrow" transform="rotate(180) translate(-30 -48)" onmousedown="handlePan(0,1)">
                  <use xlink:href="#rim" fill="#404040">
                        <set attributeName="fill" to="#808080" begin="arrowDown.mouseover" end="arrowDown.mouseout"/>
                  </use>
                  <path fill="none" stroke="white" stroke-width="1.5" d="M0,-3.0v7 M-2.5,-0.5L0,-3.0L2.5,-0.5"/>
                </g>
                <g id="arrowLeft" xlink:href="#dirArrow" transform="rotate(270) translate(-36 17)" onmousedown="handlePan(-1,0)">
                  <use xlink:href="#rim" fill="#404040">
                        <set attributeName="fill" to="#808080" begin="arrowLeft.mouseover" end="arrowLeft.mouseout"/>
                  </use>
                  <path fill="none" stroke="white" stroke-width="1.5" d="M0,-3.0v7 M-2.5,-0.5L0,-3.0L2.5,-0.5"/>
                </g>
        </g>
        <svg viewBox="0 0 15 15" width="100%" height="30px" preserveAspectRatio="xMaxYMin meet">
         <g id="arrow_out" transform="scale(0.3 0.3)">
          <a xlink:href="strutil__lib_8h__dep__incl_org.svg" target="_base">
           <rect id="button" ry="5" rx="5" y="6" x="6" height="38" width="38"
                fill="#f2f5e9" fill-opacity="0.5" stroke="#606060" stroke-width="1.0"/>
           <path id="arrow"
             d="M 11.500037,31.436501 C 11.940474,20.09759 22.043105,11.32322 32.158766,21.979434 L 37.068811,17.246167 C 37.068811,17.246167 37.088388,32 37.088388,32 L 22.160133,31.978069 C 22.160133,31.978069 26.997745,27.140456 26.997745,27.140456 C 18.528582,18.264221 13.291696,25.230495 11.500037,31.436501 z"
             style="fill:#404040;"/>
          </a>
         </g>
        </svg>
</svg>
