<?xml version="1.0" encoding="UTF-8" standalone="no"?>
<!DOCTYPE svg PUBLIC "-//W3C//DTD SVG 1.1//EN"
 "http://www.w3.org/Graphics/SVG/1.1/DTD/svg11.dtd">
<!-- Generated by graphviz version 2.43.0 (0)
 -->
<!-- Title: Kineis/App/Libs/STRUTIL/Inc/strutil_lib.h Pages: 1 -->
<!--zoomable 273 -->
<svg id="main" version="1.1" xmlns="http://www.w3.org/2000/svg" xmlns:xlink="http://www.w3.org/1999/xlink" xml:space="preserve" onload="init(evt)">
<style type="text/css"><![CDATA[
.edge:hover path { stroke: red; }
.edge:hover polygon { stroke: red; fill: red; }
]]></style>
<script type="text/javascript"><![CDATA[
var edges = document.getElementsByTagName('g');
if (edges && edges.length) {
  for (var i=0;i<edges.length;i++) {
    if (edges[i].id.substr(0,4)=='edge') {
      edges[i].setAttribute('class','edge');
    }
  }
}
]]></script>
        <defs>
                <circle id="rim" cx="0" cy="0" r="7"/>
                <circle id="rim2" cx="0" cy="0" r="3.5"/>
                <g id="zoomPlus">
                        <use xlink:href="#rim" fill="#404040">
                                <set attributeName="fill" to="#808080" begin="zoomplus.mouseover" end="zoomplus.mouseout"/>
                        </use>
                        <path d="M-4,0h8M0,-4v8" fill="none" stroke="white" stroke-width="1.5" pointer-events="none"/>
                </g>
                <g id="zoomMin">
                        <use xlink:href="#rim" fill="#404040">
                                <set attributeName="fill" to="#808080" begin="zoomminus.mouseover" end="zoomminus.mouseout"/>
                        </use>
                        <path d="M-4,0h8" fill="none" stroke="white" stroke-width="1.5" pointer-events="none"/>
                </g>
                <g id="dirArrow">
                        <path fill="none" stroke="white" stroke-width="1.5" d="M0,-3.0v7 M-2.5,-0.5L0,-3.0L2.5,-0.5"/>
                </g>
               <g id="resetDef">
                       <use xlink:href="#rim2" fill="#404040">
                               <set attributeName="fill" to="#808080" begin="reset.mouseover" end="reset.mouseout"/>
                       </use>
               </g>
        </defs>

<script type="text/javascript">
var viewWidth = 1149;
var viewHeight = 273;
var sectionId = 'dynsection-1';
</script>
<script xlink:href="../../svgpan.js"/>
<svg id="graph" class="graph">
<g id="viewport">
<title>Kineis/App/Libs/STRUTIL/Inc/strutil_lib.h</title>
<polygon fill="white" stroke="transparent" points="-4,4 -4,-269 1145,-269 1145,4 -4,4"/>
<!-- Node1 -->
<g id="node1" class="node">
<title>Node1</title>
<g id="a_node1"><a xlink:title="small utilities to manipulate strings">
<polygon fill="#bfbfbf" stroke="black" points="447,-234.5 447,-264.5 581,-264.5 581,-234.5 447,-234.5"/>
<text text-anchor="start" x="455" y="-252.5" font-family="Helvetica,sans-Serif" font-size="10.00">Kineis/App/Libs/STRUTIL</text>
<text text-anchor="middle" x="514" y="-241.5" font-family="Helvetica,sans-Serif" font-size="10.00">/Inc/strutil_lib.h</text>
</a>
</g>
</g>
<!-- Node2 -->
<g id="node2" class="node">
<title>Node2</title>
<g id="a_node2"><a xlink:href="../../d5/d43/strutil__lib_8c.html" target="_top" xlink:title="Application general purpose routines for data conversion / generation.">
<polygon fill="white" stroke="black" points="372,-162 372,-192 506,-192 506,-162 372,-162"/>
<text text-anchor="start" x="380" y="-180" font-family="Helvetica,sans-Serif" font-size="10.00">Kineis/App/Libs/STRUTIL</text>
<text text-anchor="middle" x="439" y="-169" font-family="Helvetica,sans-Serif" font-size="10.00">/Src/strutil_lib.c</text>
</a>
</g>
</g>
<!-- Node1&#45;&gt;Node2 -->
<g id="edge1" class="edge">
<title>Node1&#45;&gt;Node2</title>
<path fill="none" stroke="midnightblue" d="M491.28,-227.14C479.15,-215.74 464.58,-202.04 453.9,-192"/>
<polygon fill="midnightblue" stroke="midnightblue" points="489.14,-229.93 498.82,-234.23 493.93,-224.83 489.14,-229.93"/>
</g>
<!-- Node3 -->
<g id="node3" class="node">
<title>Node3</title>
<g id="a_node3"><a xlink:href="../../d5/d58/mgr__at__cmd__common_8h.html" target="_top" xlink:title="header file for common part of the AT cmd manager">
<polygon fill="white" stroke="black" points="524.5,-156.5 524.5,-197.5 653.5,-197.5 653.5,-156.5 524.5,-156.5"/>
<text text-anchor="start" x="532.5" y="-185.5" font-family="Helvetica,sans-Serif" font-size="10.00">Kineis/App/Managers</text>
<text text-anchor="start" x="532.5" y="-174.5" font-family="Helvetica,sans-Serif" font-size="10.00">/MGR_AT_CMD/Inc/mgr</text>
<text text-anchor="middle" x="589" y="-163.5" font-family="Helvetica,sans-Serif" font-size="10.00">_at_cmd_common.h</text>
</a>
</g>
</g>
<!-- Node1&#45;&gt;Node3 -->
<g id="edge2" class="edge">
<title>Node1&#45;&gt;Node3</title>
<path fill="none" stroke="midnightblue" d="M536.47,-227.38C546.52,-217.93 558.31,-206.85 568.16,-197.59"/>
<polygon fill="midnightblue" stroke="midnightblue" points="534.07,-224.83 529.18,-234.23 538.86,-229.93 534.07,-224.83"/>
</g>
<!-- Node4 -->
<g id="node4" class="node">
<title>Node4</title>
<g id="a_node4"><a xlink:href="../../d4/ddf/mgr__at__cmd__list__general_8h.html" target="_top" xlink:title="subset of AT commands concerning general purpose (get ID, FW version, ...)">
<polygon fill="white" stroke="black" points="371.5,-78.5 371.5,-119.5 500.5,-119.5 500.5,-78.5 371.5,-78.5"/>
<text text-anchor="start" x="379.5" y="-107.5" font-family="Helvetica,sans-Serif" font-size="10.00">Kineis/App/Managers</text>
<text text-anchor="start" x="379.5" y="-96.5" font-family="Helvetica,sans-Serif" font-size="10.00">/MGR_AT_CMD/Inc/mgr</text>
<text text-anchor="middle" x="436" y="-85.5" font-family="Helvetica,sans-Serif" font-size="10.00">_at_cmd_list_general.h</text>
</a>
</g>
</g>
<!-- Node3&#45;&gt;Node4 -->
<g id="edge3" class="edge">
<title>Node3&#45;&gt;Node4</title>
<path fill="none" stroke="midnightblue" d="M540.5,-151.91C519.46,-141.46 495.15,-129.38 475.27,-119.51"/>
<polygon fill="midnightblue" stroke="midnightblue" points="539.09,-155.11 549.6,-156.43 542.2,-148.84 539.09,-155.11"/>
</g>
<!-- Node5 -->
<g id="node5" class="node">
<title>Node5</title>
<g id="a_node5"><a xlink:href="../../da/df9/mgr__at__cmd__list_8c.html" target="_top" xlink:title="AT commands list main file.">
<polygon fill="white" stroke="black" points="306,-0.5 306,-41.5 436,-41.5 436,-0.5 306,-0.5"/>
<text text-anchor="start" x="314" y="-29.5" font-family="Helvetica,sans-Serif" font-size="10.00">Kineis/App/Managers</text>
<text text-anchor="start" x="314" y="-18.5" font-family="Helvetica,sans-Serif" font-size="10.00">/MGR_AT_CMD/Src/mgr</text>
<text text-anchor="middle" x="371" y="-7.5" font-family="Helvetica,sans-Serif" font-size="10.00">_at_cmd_list.c</text>
</a>
</g>
</g>
<!-- Node3&#45;&gt;Node5 -->
<g id="edge19" class="edge">
<title>Node3&#45;&gt;Node5</title>
<path fill="none" stroke="midnightblue" d="M514.7,-156.2C443.67,-141.8 403.51,-172.41 362,-120 344.39,-97.77 353.4,-63.16 361.92,-41.58"/>
<polygon fill="midnightblue" stroke="midnightblue" points="513.93,-159.61 524.46,-158.42 515.49,-152.79 513.93,-159.61"/>
</g>
<!-- Node6 -->
<g id="node6" class="node">
<title>Node6</title>
<g id="a_node6"><a xlink:href="../../d1/dfd/mgr__at__cmd__list__general_8c.html" target="_top" xlink:title="subset of AT commands concerning general purpose (get ID, FW version, ...)">
<polygon fill="white" stroke="black" points="454,-0.5 454,-41.5 584,-41.5 584,-0.5 454,-0.5"/>
<text text-anchor="start" x="462" y="-29.5" font-family="Helvetica,sans-Serif" font-size="10.00">Kineis/App/Managers</text>
<text text-anchor="start" x="462" y="-18.5" font-family="Helvetica,sans-Serif" font-size="10.00">/MGR_AT_CMD/Src/mgr</text>
<text text-anchor="middle" x="519" y="-7.5" font-family="Helvetica,sans-Serif" font-size="10.00">_at_cmd_list_general.c</text>
</a>
</g>
</g>
<!-- Node3&#45;&gt;Node6 -->
<g id="edge21" class="edge">
<title>Node3&#45;&gt;Node6</title>
<path fill="none" stroke="midnightblue" d="M639.74,-150.79C651.07,-142.61 661.6,-132.38 668,-120 676.57,-103.42 678.63,-93.35 668,-78 662.55,-70.13 619.39,-54.39 580.91,-41.59"/>
<polygon fill="midnightblue" stroke="midnightblue" points="637.76,-147.91 631.4,-156.38 641.66,-153.72 637.76,-147.91"/>
</g>
<!-- Node7 -->
<g id="node7" class="node">
<title>Node7</title>
<g id="a_node7"><a xlink:href="../../d9/dc9/mgr__at__cmd__list__mac_8h.html" target="_top" xlink:title="subset of AT commands concerning Kinéis Medium Acces Channel (MAC).">
<polygon fill="white" stroke="black" points="27.5,-78.5 27.5,-119.5 156.5,-119.5 156.5,-78.5 27.5,-78.5"/>
<text text-anchor="start" x="35.5" y="-107.5" font-family="Helvetica,sans-Serif" font-size="10.00">Kineis/App/Managers</text>
<text text-anchor="start" x="35.5" y="-96.5" font-family="Helvetica,sans-Serif" font-size="10.00">/MGR_AT_CMD/Inc/mgr</text>
<text text-anchor="middle" x="92" y="-85.5" font-family="Helvetica,sans-Serif" font-size="10.00">_at_cmd_list_mac.h</text>
</a>
</g>
</g>
<!-- Node3&#45;&gt;Node7 -->
<g id="edge6" class="edge">
<title>Node3&#45;&gt;Node7</title>
<path fill="none" stroke="midnightblue" d="M514.32,-156.04C359.9,-128.4 316.18,-147.85 166,-120 162.99,-119.44 159.92,-118.82 156.84,-118.16"/>
<polygon fill="midnightblue" stroke="midnightblue" points="513.7,-159.49 524.16,-157.84 514.96,-152.6 513.7,-159.49"/>
</g>
<!-- Node9 -->
<g id="node9" class="node">
<title>Node9</title>
<g id="a_node9"><a xlink:href="../../da/da4/mgr__at__cmd__list__previpass_8h.html" target="_top" xlink:title="subset of AT commands concerning satellite PASS predictions, usefull for Medium Acces">
<polygon fill="white" stroke="black" points="519,-78.5 519,-119.5 659,-119.5 659,-78.5 519,-78.5"/>
<text text-anchor="start" x="527" y="-107.5" font-family="Helvetica,sans-Serif" font-size="10.00">Kineis/App/Managers</text>
<text text-anchor="start" x="527" y="-96.5" font-family="Helvetica,sans-Serif" font-size="10.00">/MGR_AT_CMD/Inc/mgr</text>
<text text-anchor="middle" x="589" y="-85.5" font-family="Helvetica,sans-Serif" font-size="10.00">_at_cmd_list_previpass.h</text>
</a>
</g>
</g>
<!-- Node3&#45;&gt;Node9 -->
<g id="edge9" class="edge">
<title>Node3&#45;&gt;Node9</title>
<path fill="none" stroke="midnightblue" d="M589,-146.3C589,-137.3 589,-127.65 589,-119.51"/>
<polygon fill="midnightblue" stroke="midnightblue" points="585.5,-146.43 589,-156.43 592.5,-146.43 585.5,-146.43"/>
</g>
<!-- Node11 -->
<g id="node11" class="node">
<title>Node11</title>
<g id="a_node11"><a xlink:href="../../de/de6/mgr__at__cmd__list__user__data_8h.html" target="_top" xlink:title="subset of AT commands concerning user data manipulation such as TX">
<polygon fill="white" stroke="black" points="175,-78.5 175,-119.5 315,-119.5 315,-78.5 175,-78.5"/>
<text text-anchor="start" x="183" y="-107.5" font-family="Helvetica,sans-Serif" font-size="10.00">Kineis/App/Managers</text>
<text text-anchor="start" x="183" y="-96.5" font-family="Helvetica,sans-Serif" font-size="10.00">/MGR_AT_CMD/Inc/mgr</text>
<text text-anchor="middle" x="245" y="-85.5" font-family="Helvetica,sans-Serif" font-size="10.00">_at_cmd_list_user_data.h</text>
</a>
</g>
</g>
<!-- Node3&#45;&gt;Node11 -->
<g id="edge12" class="edge">
<title>Node3&#45;&gt;Node11</title>
<path fill="none" stroke="midnightblue" d="M514.59,-155.99C431.28,-137.03 408.25,-137.1 329,-120 324.46,-119.02 319.78,-117.98 315.08,-116.92"/>
<polygon fill="midnightblue" stroke="midnightblue" points="513.97,-159.44 524.5,-158.27 515.53,-152.62 513.97,-159.44"/>
</g>
<!-- Node13 -->
<g id="node13" class="node">
<title>Node13</title>
<g id="a_node13"><a xlink:href="../../da/d77/mgr__at__cmd_8c.html" target="_top" xlink:title="APIs Implementation used to parse the UART ASCII data stream and extract AT commands.">
<polygon fill="white" stroke="black" points="715,-78.5 715,-119.5 845,-119.5 845,-78.5 715,-78.5"/>
<text text-anchor="start" x="723" y="-107.5" font-family="Helvetica,sans-Serif" font-size="10.00">Kineis/App/Managers</text>
<text text-anchor="start" x="723" y="-96.5" font-family="Helvetica,sans-Serif" font-size="10.00">/MGR_AT_CMD/Src/mgr</text>
<text text-anchor="middle" x="780" y="-85.5" font-family="Helvetica,sans-Serif" font-size="10.00">_at_cmd.c</text>
</a>
</g>
</g>
<!-- Node3&#45;&gt;Node13 -->
<g id="edge17" class="edge">
<title>Node3&#45;&gt;Node13</title>
<path fill="none" stroke="midnightblue" d="M647.79,-152.61C674.45,-142 705.61,-129.6 730.98,-119.51"/>
<polygon fill="midnightblue" stroke="midnightblue" points="646.18,-149.48 638.19,-156.43 648.77,-155.98 646.18,-149.48"/>
</g>
<!-- Node14 -->
<g id="node14" class="node">
<title>Node14</title>
<g id="a_node14"><a xlink:href="../../d5/dd7/mgr__at__cmd__common_8c.html" target="_top" xlink:title="common part of the AT cmd manager (logging, AT cmd response api)">
<polygon fill="white" stroke="black" points="863,-78.5 863,-119.5 993,-119.5 993,-78.5 863,-78.5"/>
<text text-anchor="start" x="871" y="-107.5" font-family="Helvetica,sans-Serif" font-size="10.00">Kineis/App/Managers</text>
<text text-anchor="start" x="871" y="-96.5" font-family="Helvetica,sans-Serif" font-size="10.00">/MGR_AT_CMD/Src/mgr</text>
<text text-anchor="middle" x="928" y="-85.5" font-family="Helvetica,sans-Serif" font-size="10.00">_at_cmd_common.c</text>
</a>
</g>
</g>
<!-- Node3&#45;&gt;Node14 -->
<g id="edge18" class="edge">
<title>Node3&#45;&gt;Node14</title>
<path fill="none" stroke="midnightblue" d="M663.79,-161.35C717.01,-150.65 790.11,-135.37 854,-120 856.85,-119.32 859.75,-118.6 862.68,-117.87"/>
<polygon fill="midnightblue" stroke="midnightblue" points="662.87,-157.97 653.75,-163.36 664.25,-164.83 662.87,-157.97"/>
</g>
<!-- Node15 -->
<g id="node15" class="node">
<title>Node15</title>
<g id="a_node15"><a xlink:href="../../d2/d04/mgr__at__cmd__list__certif_8c.html" target="_top" xlink:title="subset of AT commands concerning specifics for certification">
<polygon fill="white" stroke="black" points="1011,-78.5 1011,-119.5 1141,-119.5 1141,-78.5 1011,-78.5"/>
<text text-anchor="start" x="1019" y="-107.5" font-family="Helvetica,sans-Serif" font-size="10.00">Kineis/App/Managers</text>
<text text-anchor="start" x="1019" y="-96.5" font-family="Helvetica,sans-Serif" font-size="10.00">/MGR_AT_CMD/Src/mgr</text>
<text text-anchor="middle" x="1076" y="-85.5" font-family="Helvetica,sans-Serif" font-size="10.00">_at_cmd_list_certif.c</text>
</a>
</g>
</g>
<!-- Node3&#45;&gt;Node15 -->
<g id="edge20" class="edge">
<title>Node3&#45;&gt;Node15</title>
<path fill="none" stroke="midnightblue" d="M663.92,-168.78C747.04,-160.1 884.89,-143.66 1002,-120 1004.87,-119.42 1007.79,-118.79 1010.74,-118.13"/>
<polygon fill="midnightblue" stroke="midnightblue" points="663.4,-165.32 653.81,-169.83 664.12,-172.28 663.4,-165.32"/>
</g>
<!-- Node4&#45;&gt;Node5 -->
<g id="edge4" class="edge">
<title>Node4&#45;&gt;Node5</title>
<path fill="none" stroke="midnightblue" d="M412.59,-70.63C404.35,-60.99 395.26,-50.36 387.68,-41.51"/>
<polygon fill="midnightblue" stroke="midnightblue" points="410.1,-73.1 419.26,-78.43 415.42,-68.55 410.1,-73.1"/>
</g>
<!-- Node4&#45;&gt;Node6 -->
<g id="edge5" class="edge">
<title>Node4&#45;&gt;Node6</title>
<path fill="none" stroke="midnightblue" d="M464.95,-71.49C475.72,-61.63 487.74,-50.63 497.7,-41.51"/>
<polygon fill="midnightblue" stroke="midnightblue" points="462.39,-69.09 457.37,-78.43 467.11,-74.26 462.39,-69.09"/>
</g>
<!-- Node7&#45;&gt;Node5 -->
<g id="edge7" class="edge">
<title>Node7&#45;&gt;Node5</title>
<path fill="none" stroke="midnightblue" d="M166.63,-77.67C209.96,-65.87 264.03,-51.14 305.67,-39.79"/>
<polygon fill="midnightblue" stroke="midnightblue" points="165.44,-74.37 156.71,-80.37 167.28,-81.12 165.44,-74.37"/>
</g>
<!-- Node8 -->
<g id="node8" class="node">
<title>Node8</title>
<g id="a_node8"><a xlink:href="../../d1/de0/mgr__at__cmd__list__mac_8c.html" target="_top" xlink:title="subset of AT commands concerning Kinéis Medium Acces Channel (MAC).">
<polygon fill="white" stroke="black" points="0,-0.5 0,-41.5 130,-41.5 130,-0.5 0,-0.5"/>
<text text-anchor="start" x="8" y="-29.5" font-family="Helvetica,sans-Serif" font-size="10.00">Kineis/App/Managers</text>
<text text-anchor="start" x="8" y="-18.5" font-family="Helvetica,sans-Serif" font-size="10.00">/MGR_AT_CMD/Src/mgr</text>
<text text-anchor="middle" x="65" y="-7.5" font-family="Helvetica,sans-Serif" font-size="10.00">_at_cmd_list_mac.c</text>
</a>
</g>
</g>
<!-- Node7&#45;&gt;Node8 -->
<g id="edge8" class="edge">
<title>Node7&#45;&gt;Node8</title>
<path fill="none" stroke="midnightblue" d="M81.66,-68.88C78.4,-59.72 74.89,-49.83 71.93,-41.51"/>
<polygon fill="midnightblue" stroke="midnightblue" points="78.4,-70.18 85.05,-78.43 85,-67.83 78.4,-70.18"/>
</g>
<!-- Node9&#45;&gt;Node5 -->
<g id="edge10" class="edge">
<title>Node9&#45;&gt;Node5</title>
<path fill="none" stroke="midnightblue" d="M523.1,-75.03C492.41,-64.33 456.29,-51.73 426.95,-41.51"/>
<polygon fill="midnightblue" stroke="midnightblue" points="522.26,-78.44 532.86,-78.43 524.57,-71.83 522.26,-78.44"/>
</g>
<!-- Node10 -->
<g id="node10" class="node">
<title>Node10</title>
<g id="a_node10"><a xlink:href="../../d0/d4a/mgr__at__cmd__list__previpass_8c.html" target="_top" xlink:title="subset of AT commands concerning satellite PASS predictions, usefull for Medium Acces">
<polygon fill="white" stroke="black" points="602.5,-0.5 602.5,-41.5 741.5,-41.5 741.5,-0.5 602.5,-0.5"/>
<text text-anchor="start" x="610.5" y="-29.5" font-family="Helvetica,sans-Serif" font-size="10.00">Kineis/App/Managers</text>
<text text-anchor="start" x="610.5" y="-18.5" font-family="Helvetica,sans-Serif" font-size="10.00">/MGR_AT_CMD/Src/mgr</text>
<text text-anchor="middle" x="672" y="-7.5" font-family="Helvetica,sans-Serif" font-size="10.00">_at_cmd_list_previpass.c</text>
</a>
</g>
</g>
<!-- Node9&#45;&gt;Node10 -->
<g id="edge11" class="edge">
<title>Node9&#45;&gt;Node10</title>
<path fill="none" stroke="midnightblue" d="M617.95,-71.49C628.72,-61.63 640.74,-50.63 650.7,-41.51"/>
<polygon fill="midnightblue" stroke="midnightblue" points="615.39,-69.09 610.37,-78.43 620.11,-74.26 615.39,-69.09"/>
</g>
<!-- Node11&#45;&gt;Node5 -->
<g id="edge13" class="edge">
<title>Node11&#45;&gt;Node5</title>
<path fill="none" stroke="midnightblue" d="M286.11,-73.2C303.16,-62.92 322.66,-51.16 338.66,-41.51"/>
<polygon fill="midnightblue" stroke="midnightblue" points="284.2,-70.27 277.45,-78.43 287.82,-76.26 284.2,-70.27"/>
</g>
<!-- Node11&#45;&gt;Node6 -->
<g id="edge14" class="edge">
<title>Node11&#45;&gt;Node6</title>
<path fill="none" stroke="midnightblue" d="M324.88,-75.84C365.82,-64.49 415.04,-50.83 453.68,-40.12"/>
<polygon fill="midnightblue" stroke="midnightblue" points="323.91,-72.48 315.21,-78.53 325.78,-79.23 323.91,-72.48"/>
</g>
<!-- Node11&#45;&gt;Node8 -->
<g id="edge15" class="edge">
<title>Node11&#45;&gt;Node8</title>
<path fill="none" stroke="midnightblue" d="M189.27,-74.47C164.22,-63.89 135,-51.56 111.2,-41.51"/>
<polygon fill="midnightblue" stroke="midnightblue" points="188.07,-77.76 198.65,-78.43 190.79,-71.31 188.07,-77.76"/>
</g>
<!-- Node12 -->
<g id="node12" class="node">
<title>Node12</title>
<g id="a_node12"><a xlink:href="../../d8/d11/mgr__at__cmd__list__user__data_8c.html" target="_top" xlink:title="subset of AT commands concerning user data manipulation such as TX">
<polygon fill="white" stroke="black" points="148,-0.5 148,-41.5 288,-41.5 288,-0.5 148,-0.5"/>
<text text-anchor="start" x="156" y="-29.5" font-family="Helvetica,sans-Serif" font-size="10.00">Kineis/App/Managers</text>
<text text-anchor="start" x="156" y="-18.5" font-family="Helvetica,sans-Serif" font-size="10.00">/MGR_AT_CMD/Src/mgr</text>
<text text-anchor="middle" x="218" y="-7.5" font-family="Helvetica,sans-Serif" font-size="10.00">_at_cmd_list_user_data.c</text>
</a>
</g>
</g>
<!-- Node11&#45;&gt;Node12 -->
<g id="edge16" class="edge">
<title>Node11&#45;&gt;Node12</title>
<path fill="none" stroke="midnightblue" d="M234.66,-68.88C231.4,-59.72 227.89,-49.83 224.93,-41.51"/>
<polygon fill="midnightblue" stroke="midnightblue" points="231.4,-70.18 238.05,-78.43 238,-67.83 231.4,-70.18"/>
</g>
</g>
</svg>
        <g id="navigator" transform="translate(0 0)" fill="#404254">
                <rect fill="#f2f5e9" fill-opacity="0.5" stroke="#606060" stroke-width=".5" x="0" y="0" width="60" height="60"/>
                <use id="zoomplus" xlink:href="#zoomPlus" x="17" y="9" onmousedown="handleZoom(evt,'in')"/>
                <use id="zoomminus" xlink:href="#zoomMin" x="42" y="9" onmousedown="handleZoom(evt,'out')"/>
                <use id="reset" xlink:href="#resetDef" x="30" y="36" onmousedown="handleReset()"/>
                <g id="arrowUp" xlink:href="#dirArrow" transform="translate(30 24)" onmousedown="handlePan(0,-1)">
                  <use xlink:href="#rim" fill="#404040">
                        <set attributeName="fill" to="#808080" begin="arrowUp.mouseover" end="arrowUp.mouseout"/>
                  </use>
                  <path fill="none" stroke="white" stroke-width="1.5" d="M0,-3.0v7 M-2.5,-0.5L0,-3.0L2.5,-0.5"/>
                </g>
                <g id="arrowRight" xlink:href="#dirArrow" transform="rotate(90) translate(36 -43)" onmousedown="handlePan(1,0)">
                  <use xlink:href="#rim" fill="#404040">
                        <set attributeName="fill" to="#808080" begin="arrowRight.mouseover" end="arrowRight.mouseout"/>
                  </use>
                  <path fill="none" stroke="white" stroke-width="1.5" d="M0,-3.0v7 M-2.5,-0.5L0,-3.0L2.5,-0.5"/>
                </g>
                <g id="arrowDown" xlink:href="#dirArrow" transform="rotate(180) translate(-30 -48)" onmousedown="handlePan(0,1)">
                  <use xlink:href="#rim" fill="#404040">
                        <set attributeName="fill" to="#808080" begin="arrowDown.mouseover" end="arrowDown.mouseout"/>
                  </use>
                  <path fill="none" stroke="white" stroke-width="1.5" d="M0,-3.0v7 M-2.5,-0.5L0,-3.0L2.5,-0.5"/>
                </g>
                <g id="arrowLeft" xlink:href="#dirArrow" transform="rotate(270) translate(-36 17)" onmousedown="handlePan(-1,0)">
                  <use xlink:href="#rim" fill="#404040">
                        <set attributeName="fill" to="#808080" begin="arrowLeft.mouseover" end="arrowLeft.mouseout"/>
                  </use>
                  <path fill="none" stroke="white" stroke-width="1.5" d="M0,-3.0v7 M-2.5,-0.5L0,-3.0L2.5,-0.5"/>
                </g>
        </g>
        <svg viewBox="0 0 15 15" width="100%" height="30px" preserveAspectRatio="xMaxYMin meet">
         <g id="arrow_out" transform="scale(0.3 0.3)">
          <a xlink:href="strutil__lib_8h__dep__incl_org.svg" target="_base">
           <rect id="button" ry="5" rx="5" y="6" x="6" height="38" width="38"
                fill="#f2f5e9" fill-opacity="0.5" stroke="#606060" stroke-width="1.0"/>
           <path id="arrow"
             d="M 11.500037,31.436501 C 11.940474,20.09759 22.043105,11.32322 32.158766,21.979434 L 37.068811,17.246167 C 37.068811,17.246167 37.088388,32 37.088388,32 L 22.160133,31.978069 C 22.160133,31.978069 26.997745,27.140456 26.997745,27.140456 C 18.528582,18.264221 13.291696,25.230495 11.500037,31.436501 z"
             style="fill:#404040;"/>
          </a>
         </g>
        </svg>
</svg>
