<?xml version="1.0" encoding="UTF-8" standalone="no"?>
<!DOCTYPE svg PUBLIC "-//W3C//DTD SVG 1.1//EN"
 "http://www.w3.org/Graphics/SVG/1.1/DTD/svg11.dtd">
<!-- Generated by graphviz version 2.43.0 (0)
 -->
<!-- Title: KNS_CS_enter Pages: 1 -->
<svg width="912pt" height="104pt"
 viewBox="0.00 0.00 912.00 104.00" xmlns="http://www.w3.org/2000/svg" xmlns:xlink="http://www.w3.org/1999/xlink">
<g id="graph0" class="graph" transform="scale(1 1) rotate(0) translate(4 100)">
<title>KNS_CS_enter</title>
<polygon fill="white" stroke="transparent" points="-4,4 -4,-100 908,-100 908,4 -4,4"/>
<!-- Node1 -->
<g id="node1" class="node">
<title>Node1</title>
<g id="a_node1"><a xlink:title="Enter critical section.">
<polygon fill="#bfbfbf" stroke="black" points="818,-57.5 818,-76.5 904,-76.5 904,-57.5 818,-57.5"/>
<text text-anchor="middle" x="861" y="-64.5" font-family="Helvetica,sans-Serif" font-size="10.00">KNS_CS_enter</text>
</a>
</g>
</g>
<!-- Node2 -->
<g id="node2" class="node">
<title>Node2</title>
<g id="a_node2"><a xlink:href="../../db/d4f/group___u_s_e_r___d_a_t_a.html#ga029850e8ca80a3be9b099582f5c7488a" target="_top" xlink:title="flush TX fifo">
<polygon fill="white" stroke="black" points="487.5,-76.5 487.5,-95.5 614.5,-95.5 614.5,-76.5 487.5,-76.5"/>
<text text-anchor="middle" x="551" y="-83.5" font-family="Helvetica,sans-Serif" font-size="10.00">USERDATA_txFifoFlush</text>
</a>
</g>
</g>
<!-- Node1&#45;&gt;Node2 -->
<g id="edge1" class="edge">
<title>Node1&#45;&gt;Node2</title>
<path fill="none" stroke="midnightblue" d="M807.56,-70.24C754.2,-73.53 671.51,-78.63 614.72,-82.13"/>
<polygon fill="midnightblue" stroke="midnightblue" points="808.05,-73.71 817.82,-69.6 807.62,-66.72 808.05,-73.71"/>
</g>
<!-- Node3 -->
<g id="node3" class="node">
<title>Node3</title>
<g id="a_node3"><a xlink:href="../../db/d4f/group___u_s_e_r___d_a_t_a.html#gafba02bd8b2e6ebad0b2f38b72e40ec21" target="_top" xlink:title="Log content of the TX fifo.">
<polygon fill="white" stroke="black" points="664,-38.5 664,-57.5 782,-57.5 782,-38.5 664,-38.5"/>
<text text-anchor="middle" x="723" y="-45.5" font-family="Helvetica,sans-Serif" font-size="10.00">USERDATA_txFifoLog</text>
</a>
</g>
</g>
<!-- Node1&#45;&gt;Node3 -->
<g id="edge2" class="edge">
<title>Node1&#45;&gt;Node3</title>
<path fill="none" stroke="midnightblue" d="M807.74,-59.7C799.39,-58.53 790.72,-57.32 782.24,-56.14"/>
<polygon fill="midnightblue" stroke="midnightblue" points="807.33,-63.18 817.71,-61.09 808.29,-56.24 807.33,-63.18"/>
</g>
<!-- Node3&#45;&gt;Node2 -->
<g id="edge6" class="edge">
<title>Node3&#45;&gt;Node2</title>
<path fill="none" stroke="midnightblue" d="M669.1,-59.82C645.13,-65.18 617.18,-71.43 594.59,-76.48"/>
<polygon fill="midnightblue" stroke="midnightblue" points="670.11,-63.19 679.1,-57.59 668.58,-56.35 670.11,-63.19"/>
</g>
<!-- Node4 -->
<g id="node4" class="node">
<title>Node4</title>
<g id="a_node4"><a xlink:href="../../db/d4f/group___u_s_e_r___d_a_t_a.html#ga9dc3ef3b0eec939e8a61b25e0a107cbe" target="_top" xlink:title="Add element in TX fifo.">
<polygon fill="white" stroke="black" points="485,-38.5 485,-57.5 617,-57.5 617,-38.5 485,-38.5"/>
<text text-anchor="middle" x="551" y="-45.5" font-family="Helvetica,sans-Serif" font-size="10.00">USERDATA_txFifoAddElt</text>
</a>
</g>
</g>
<!-- Node3&#45;&gt;Node4 -->
<g id="edge3" class="edge">
<title>Node3&#45;&gt;Node4</title>
<path fill="none" stroke="midnightblue" d="M653.9,-48C641.75,-48 629.12,-48 617.06,-48"/>
<polygon fill="midnightblue" stroke="midnightblue" points="653.97,-51.5 663.97,-48 653.97,-44.5 653.97,-51.5"/>
</g>
<!-- Node7 -->
<g id="node7" class="node">
<title>Node7</title>
<g id="a_node7"><a xlink:href="../../db/d4f/group___u_s_e_r___d_a_t_a.html#ga4d20835dbc4b21f645ff55eed7d93216" target="_top" xlink:title="Delete an element from the TX fifo.">
<polygon fill="white" stroke="black" points="474,-0.5 474,-19.5 628,-19.5 628,-0.5 474,-0.5"/>
<text text-anchor="middle" x="551" y="-7.5" font-family="Helvetica,sans-Serif" font-size="10.00">USERDATA_txFifoRemoveElt</text>
</a>
</g>
</g>
<!-- Node3&#45;&gt;Node7 -->
<g id="edge7" class="edge">
<title>Node3&#45;&gt;Node7</title>
<path fill="none" stroke="midnightblue" d="M669.1,-36.18C645.13,-30.82 617.18,-24.57 594.59,-19.52"/>
<polygon fill="midnightblue" stroke="midnightblue" points="668.58,-39.65 679.1,-38.41 670.11,-32.81 668.58,-39.65"/>
</g>
<!-- Node5 -->
<g id="node5" class="node">
<title>Node5</title>
<g id="a_node5"><a xlink:href="../../d0/d0f/group___m_g_r___a_t___c_m_d.html#gaaa9bdf10c9ac69ef778eea22f8225343" target="_top" xlink:title="Handle new TX data, this is the core function of AT+TX cmd.">
<polygon fill="white" stroke="black" points="250,-38.5 250,-57.5 438,-57.5 438,-38.5 250,-38.5"/>
<text text-anchor="middle" x="344" y="-45.5" font-family="Helvetica,sans-Serif" font-size="10.00">bMGR_AT_CMD_handleNewTxData</text>
</a>
</g>
</g>
<!-- Node4&#45;&gt;Node5 -->
<g id="edge4" class="edge">
<title>Node4&#45;&gt;Node5</title>
<path fill="none" stroke="midnightblue" d="M474.56,-48C462.68,-48 450.28,-48 438.05,-48"/>
<polygon fill="midnightblue" stroke="midnightblue" points="474.86,-51.5 484.86,-48 474.86,-44.5 474.86,-51.5"/>
</g>
<!-- Node6 -->
<g id="node6" class="node">
<title>Node6</title>
<g id="a_node6"><a xlink:href="../../d0/d0f/group___m_g_r___a_t___c_m_d.html#ga0a4332fc4f8bad99c421588fe542a2bd" target="_top" xlink:title="Process AT command &quot;AT+TX&quot; send user data.">
<polygon fill="white" stroke="black" points="77,-38.5 77,-57.5 214,-57.5 214,-38.5 77,-38.5"/>
<text text-anchor="middle" x="145.5" y="-45.5" font-family="Helvetica,sans-Serif" font-size="10.00">bMGR_AT_CMD_TX_cmd</text>
</a>
</g>
</g>
<!-- Node5&#45;&gt;Node6 -->
<g id="edge5" class="edge">
<title>Node5&#45;&gt;Node6</title>
<path fill="none" stroke="midnightblue" d="M239.71,-48C231.01,-48 222.36,-48 214.04,-48"/>
<polygon fill="midnightblue" stroke="midnightblue" points="239.93,-51.5 249.93,-48 239.93,-44.5 239.93,-51.5"/>
</g>
<!-- Node8 -->
<g id="node8" class="node">
<title>Node8</title>
<g id="a_node8"><a xlink:href="../../d0/d0f/group___m_g_r___a_t___c_m_d.html#ga1a39b3c9cd76d50537a8bc42087ed46f" target="_top" xlink:title="Fct used to retreive and process event coming from kineis stack as answers to AT commands.">
<polygon fill="white" stroke="black" points="261,-0.5 261,-19.5 427,-19.5 427,-0.5 261,-0.5"/>
<text text-anchor="middle" x="344" y="-7.5" font-family="Helvetica,sans-Serif" font-size="10.00">MGR_AT_CMD_macEvtProcess</text>
</a>
</g>
</g>
<!-- Node7&#45;&gt;Node8 -->
<g id="edge8" class="edge">
<title>Node7&#45;&gt;Node8</title>
<path fill="none" stroke="midnightblue" d="M463.83,-10C451.67,-10 439.2,-10 427.11,-10"/>
<polygon fill="midnightblue" stroke="midnightblue" points="463.96,-13.5 473.96,-10 463.96,-6.5 463.96,-13.5"/>
</g>
<!-- Node9 -->
<g id="node9" class="node">
<title>Node9</title>
<g id="a_node9"><a xlink:href="../../dd/d41/group___k_n_s___a_p_p.html#ga06543de003a98e82570c572ce5e1240c" target="_top" xlink:title="This fct is the application expected to run in front of the GUI.">
<polygon fill="white" stroke="black" points="92,-0.5 92,-19.5 199,-19.5 199,-0.5 92,-0.5"/>
<text text-anchor="middle" x="145.5" y="-7.5" font-family="Helvetica,sans-Serif" font-size="10.00">KNS_APP_gui_loop</text>
</a>
</g>
</g>
<!-- Node8&#45;&gt;Node9 -->
<g id="edge9" class="edge">
<title>Node8&#45;&gt;Node9</title>
<path fill="none" stroke="midnightblue" d="M250.49,-10C232.9,-10 215.06,-10 199.25,-10"/>
<polygon fill="midnightblue" stroke="midnightblue" points="250.8,-13.5 260.8,-10 250.8,-6.5 250.8,-13.5"/>
</g>
<!-- Node10 -->
<g id="node10" class="node">
<title>Node10</title>
<g id="a_node10"><a xlink:href="../../d0/d29/main_8c.html#a840291bc02cba5474a4cb46a9b9566fe" target="_top" xlink:title="The application entry point.">
<polygon fill="white" stroke="black" points="0,-0.5 0,-19.5 41,-19.5 41,-0.5 0,-0.5"/>
<text text-anchor="middle" x="20.5" y="-7.5" font-family="Helvetica,sans-Serif" font-size="10.00">main</text>
</a>
</g>
</g>
<!-- Node9&#45;&gt;Node10 -->
<g id="edge10" class="edge">
<title>Node9&#45;&gt;Node10</title>
<path fill="none" stroke="midnightblue" d="M81.77,-10C66.99,-10 52.31,-10 41.13,-10"/>
<polygon fill="midnightblue" stroke="midnightblue" points="81.98,-13.5 91.98,-10 81.98,-6.5 81.98,-13.5"/>
</g>
</g>
</svg>
