<?xml version="1.0" encoding="UTF-8" standalone="no"?>
<!DOCTYPE svg PUBLIC "-//W3C//DTD SVG 1.1//EN"
 "http://www.w3.org/Graphics/SVG/1.1/DTD/svg11.dtd">
<!-- Generated by graphviz version 2.43.0 (0)
 -->
<!-- Title: Kineis/Extdep/MGR_LOG/Inc/mgr_log_rtc.h Pages: 1 -->
<svg width="2552pt" height="251pt"
 viewBox="0.00 0.00 2552.00 251.00" xmlns="http://www.w3.org/2000/svg" xmlns:xlink="http://www.w3.org/1999/xlink">
<g id="graph0" class="graph" transform="scale(1 1) rotate(0) translate(4 247)">
<title>Kineis/Extdep/MGR_LOG/Inc/mgr_log_rtc.h</title>
<polygon fill="white" stroke="transparent" points="-4,4 -4,-247 2548,-247 2548,4 -4,4"/>
<!-- Node1 -->
<g id="node1" class="node">
<title>Node1</title>
<g id="a_node1"><a xlink:title=": Header for mgr_log_rtc.c file. This file contains log routine concerning RTC. Thus there is a depen...">
<polygon fill="#bfbfbf" stroke="black" points="1371,-212.5 1371,-242.5 1506,-242.5 1506,-212.5 1371,-212.5"/>
<text text-anchor="start" x="1379" y="-230.5" font-family="Helvetica,sans-Serif" font-size="10.00">Kineis/Extdep/MGR_LOG</text>
<text text-anchor="middle" x="1438.5" y="-219.5" font-family="Helvetica,sans-Serif" font-size="10.00">/Inc/mgr_log_rtc.h</text>
</a>
</g>
</g>
<!-- Node2 -->
<g id="node2" class="node">
<title>Node2</title>
<g id="a_node2"><a xlink:href="../../d2/d2e/mgr__log_8h.html" target="_top" xlink:title="logger main header file">
<polygon fill="white" stroke="black" points="1323,-145.5 1323,-175.5 1458,-175.5 1458,-145.5 1323,-145.5"/>
<text text-anchor="start" x="1331" y="-163.5" font-family="Helvetica,sans-Serif" font-size="10.00">Kineis/Extdep/MGR_LOG</text>
<text text-anchor="middle" x="1390.5" y="-152.5" font-family="Helvetica,sans-Serif" font-size="10.00">/Inc/mgr_log.h</text>
</a>
</g>
</g>
<!-- Node1&#45;&gt;Node2 -->
<g id="edge1" class="edge">
<title>Node1&#45;&gt;Node2</title>
<path fill="none" stroke="midnightblue" d="M1422,-204.16C1415,-194.68 1407.06,-183.92 1400.89,-175.58"/>
<polygon fill="midnightblue" stroke="midnightblue" points="1419.33,-206.43 1428.08,-212.4 1424.96,-202.27 1419.33,-206.43"/>
</g>
<!-- Node19 -->
<g id="node19" class="node">
<title>Node19</title>
<g id="a_node19"><a xlink:href="../../dc/d4f/mgr__log__rtc_8c.html" target="_top" xlink:title="This file contains log routine concerning RTC. There is a dependency on HAL RTC.">
<polygon fill="white" stroke="black" points="2409,-73 2409,-103 2544,-103 2544,-73 2409,-73"/>
<text text-anchor="start" x="2417" y="-91" font-family="Helvetica,sans-Serif" font-size="10.00">Kineis/Extdep/MGR_LOG</text>
<text text-anchor="middle" x="2476.5" y="-80" font-family="Helvetica,sans-Serif" font-size="10.00">/Src/mgr_log_rtc.c</text>
</a>
</g>
</g>
<!-- Node1&#45;&gt;Node19 -->
<g id="edge20" class="edge">
<title>Node1&#45;&gt;Node19</title>
<path fill="none" stroke="midnightblue" d="M1516.06,-220.62C1680.28,-207.39 2074.76,-171.45 2400.5,-109 2409.08,-107.36 2418.11,-105.28 2426.85,-103.1"/>
<polygon fill="midnightblue" stroke="midnightblue" points="1515.74,-217.14 1506.05,-221.42 1516.3,-224.12 1515.74,-217.14"/>
</g>
<!-- Node3 -->
<g id="node3" class="node">
<title>Node3</title>
<g id="a_node3"><a xlink:href="../../d0/d29/main_8c.html" target="_top" xlink:title=": Main program body">
<polygon fill="white" stroke="black" points="0,-78.5 0,-97.5 93,-97.5 93,-78.5 0,-78.5"/>
<text text-anchor="middle" x="46.5" y="-85.5" font-family="Helvetica,sans-Serif" font-size="10.00">Core/Src/main.c</text>
</a>
</g>
</g>
<!-- Node2&#45;&gt;Node3 -->
<g id="edge2" class="edge">
<title>Node2&#45;&gt;Node3</title>
<path fill="none" stroke="midnightblue" d="M1312.88,-159.53C1071.5,-159.16 336.29,-154.23 102.5,-109 89.93,-106.57 76.4,-101.8 65.79,-97.53"/>
<polygon fill="midnightblue" stroke="midnightblue" points="1312.97,-163.03 1322.97,-159.55 1312.98,-156.03 1312.97,-163.03"/>
</g>
<!-- Node4 -->
<g id="node4" class="node">
<title>Node4</title>
<g id="a_node4"><a xlink:href="../../d0/d08/kns__q__baremetal_8c.html" target="_top" xlink:title="Configuration of queues used in kineis_swr.">
<polygon fill="white" stroke="black" points="111.5,-73 111.5,-103 277.5,-103 277.5,-73 111.5,-73"/>
<text text-anchor="start" x="119.5" y="-91" font-family="Helvetica,sans-Serif" font-size="10.00">Kineis/App/Kineis_os</text>
<text text-anchor="middle" x="194.5" y="-80" font-family="Helvetica,sans-Serif" font-size="10.00">/KNS_Q/Src/kns_q_baremetal.c</text>
</a>
</g>
</g>
<!-- Node2&#45;&gt;Node4 -->
<g id="edge3" class="edge">
<title>Node2&#45;&gt;Node4</title>
<path fill="none" stroke="midnightblue" d="M1312.81,-157.65C1095.67,-152.2 485.37,-134.98 286.5,-109 275.32,-107.54 263.48,-105.41 252.15,-103.09"/>
<polygon fill="midnightblue" stroke="midnightblue" points="1312.76,-161.15 1322.85,-157.9 1312.94,-154.15 1312.76,-161.15"/>
</g>
<!-- Node6 -->
<g id="node6" class="node">
<title>Node6</title>
<g id="a_node6"><a xlink:href="../../d5/d11/kns__q__cmsis__os2_8c.html" target="_top" xlink:title=" ">
<polygon fill="white" stroke="black" points="296,-73 296,-103 463,-103 463,-73 296,-73"/>
<text text-anchor="start" x="304" y="-91" font-family="Helvetica,sans-Serif" font-size="10.00">Kineis/App/Kineis_os</text>
<text text-anchor="middle" x="379.5" y="-80" font-family="Helvetica,sans-Serif" font-size="10.00">/KNS_Q/Src/kns_q_cmsis_os2.c</text>
</a>
</g>
</g>
<!-- Node2&#45;&gt;Node6 -->
<g id="edge5" class="edge">
<title>Node2&#45;&gt;Node6</title>
<path fill="none" stroke="midnightblue" d="M1312.64,-159.32C1153.9,-158.06 781.71,-150.49 472.5,-109 461.37,-107.51 449.59,-105.4 438.29,-103.1"/>
<polygon fill="midnightblue" stroke="midnightblue" points="1312.76,-162.83 1322.78,-159.4 1312.81,-155.83 1312.76,-162.83"/>
</g>
<!-- Node7 -->
<g id="node7" class="node">
<title>Node7</title>
<g id="a_node7"><a xlink:href="../../d2/d9c/kns__q__freertos_8c.html" target="_top" xlink:title="Configuration of queues used in kineis_swr.">
<polygon fill="white" stroke="black" points="481.5,-73 481.5,-103 635.5,-103 635.5,-73 481.5,-73"/>
<text text-anchor="start" x="489.5" y="-91" font-family="Helvetica,sans-Serif" font-size="10.00">Kineis/App/Kineis_os</text>
<text text-anchor="middle" x="558.5" y="-80" font-family="Helvetica,sans-Serif" font-size="10.00">/KNS_Q/Src/kns_q_freertos.c</text>
</a>
</g>
</g>
<!-- Node2&#45;&gt;Node7 -->
<g id="edge6" class="edge">
<title>Node2&#45;&gt;Node7</title>
<path fill="none" stroke="midnightblue" d="M1312.66,-158.34C1176.48,-155.41 886.47,-145.09 644.5,-109 634.19,-107.46 623.29,-105.33 612.84,-103.03"/>
<polygon fill="midnightblue" stroke="midnightblue" points="1312.91,-161.85 1322.99,-158.56 1313.06,-154.85 1312.91,-161.85"/>
</g>
<!-- Node8 -->
<g id="node8" class="node">
<title>Node8</title>
<g id="a_node8"><a xlink:href="../../d4/d0d/kns__app_8c.html" target="_top" xlink:title=" ">
<polygon fill="white" stroke="black" points="653.5,-78.5 653.5,-97.5 773.5,-97.5 773.5,-78.5 653.5,-78.5"/>
<text text-anchor="middle" x="713.5" y="-85.5" font-family="Helvetica,sans-Serif" font-size="10.00">Kineis/App/kns_app.c</text>
</a>
</g>
</g>
<!-- Node2&#45;&gt;Node8 -->
<g id="edge7" class="edge">
<title>Node2&#45;&gt;Node8</title>
<path fill="none" stroke="midnightblue" d="M1312.67,-157.98C1196.39,-154.61 970.81,-143.75 782.5,-109 767.66,-106.26 751.43,-101.64 738.45,-97.53"/>
<polygon fill="midnightblue" stroke="midnightblue" points="1312.8,-161.49 1322.89,-158.27 1313,-154.49 1312.8,-161.49"/>
</g>
<!-- Node9 -->
<g id="node9" class="node">
<title>Node9</title>
<g id="a_node9"><a xlink:href="../../d0/d01/user__data_8c.html" target="_top" xlink:title="Library to handle user data to be be received or transmitted over the air.">
<polygon fill="white" stroke="black" points="791.5,-73 791.5,-103 937.5,-103 937.5,-73 791.5,-73"/>
<text text-anchor="start" x="799.5" y="-91" font-family="Helvetica,sans-Serif" font-size="10.00">Kineis/App/Libs/USERDATA</text>
<text text-anchor="middle" x="864.5" y="-80" font-family="Helvetica,sans-Serif" font-size="10.00">/Src/user_data.c</text>
</a>
</g>
</g>
<!-- Node2&#45;&gt;Node9 -->
<g id="edge8" class="edge">
<title>Node2&#45;&gt;Node9</title>
<path fill="none" stroke="midnightblue" d="M1312.78,-153.65C1223.81,-146.25 1073.92,-131.69 946.5,-109 937.27,-107.36 927.53,-105.28 918.11,-103.1"/>
<polygon fill="midnightblue" stroke="midnightblue" points="1312.54,-157.14 1322.8,-154.47 1313.12,-150.16 1312.54,-157.14"/>
</g>
<!-- Node10 -->
<g id="node10" class="node">
<title>Node10</title>
<g id="a_node10"><a xlink:href="../../da/d77/mgr__at__cmd_8c.html" target="_top" xlink:title="APIs Implementation used to parse the UART ASCII data stream and extract AT commands.">
<polygon fill="white" stroke="black" points="955.5,-67.5 955.5,-108.5 1085.5,-108.5 1085.5,-67.5 955.5,-67.5"/>
<text text-anchor="start" x="963.5" y="-96.5" font-family="Helvetica,sans-Serif" font-size="10.00">Kineis/App/Managers</text>
<text text-anchor="start" x="963.5" y="-85.5" font-family="Helvetica,sans-Serif" font-size="10.00">/MGR_AT_CMD/Src/mgr</text>
<text text-anchor="middle" x="1020.5" y="-74.5" font-family="Helvetica,sans-Serif" font-size="10.00">_at_cmd.c</text>
</a>
</g>
</g>
<!-- Node2&#45;&gt;Node10 -->
<g id="edge9" class="edge">
<title>Node2&#45;&gt;Node10</title>
<path fill="none" stroke="midnightblue" d="M1312.7,-148.29C1252.77,-139.16 1168.02,-125.17 1094.5,-109 1091.64,-108.37 1088.73,-107.7 1085.79,-107.01"/>
<polygon fill="midnightblue" stroke="midnightblue" points="1312.43,-151.79 1322.84,-149.83 1313.48,-144.87 1312.43,-151.79"/>
</g>
<!-- Node11 -->
<g id="node11" class="node">
<title>Node11</title>
<g id="a_node11"><a xlink:href="../../d2/d04/mgr__at__cmd__list__certif_8c.html" target="_top" xlink:title="subset of AT commands concerning specifics for certification">
<polygon fill="white" stroke="black" points="1103.5,-67.5 1103.5,-108.5 1233.5,-108.5 1233.5,-67.5 1103.5,-67.5"/>
<text text-anchor="start" x="1111.5" y="-96.5" font-family="Helvetica,sans-Serif" font-size="10.00">Kineis/App/Managers</text>
<text text-anchor="start" x="1111.5" y="-85.5" font-family="Helvetica,sans-Serif" font-size="10.00">/MGR_AT_CMD/Src/mgr</text>
<text text-anchor="middle" x="1168.5" y="-74.5" font-family="Helvetica,sans-Serif" font-size="10.00">_at_cmd_list_certif.c</text>
</a>
</g>
</g>
<!-- Node2&#45;&gt;Node11 -->
<g id="edge10" class="edge">
<title>Node2&#45;&gt;Node11</title>
<path fill="none" stroke="midnightblue" d="M1336.7,-142.42C1304.57,-132.21 1263.63,-119.21 1230.19,-108.59"/>
<polygon fill="midnightblue" stroke="midnightblue" points="1335.78,-145.8 1346.37,-145.49 1337.9,-139.12 1335.78,-145.8"/>
</g>
<!-- Node12 -->
<g id="node12" class="node">
<title>Node12</title>
<g id="a_node12"><a xlink:href="../../d1/dfd/mgr__at__cmd__list__general_8c.html" target="_top" xlink:title="subset of AT commands concerning general purpose (get ID, FW version, ...)">
<polygon fill="white" stroke="black" points="1251.5,-67.5 1251.5,-108.5 1381.5,-108.5 1381.5,-67.5 1251.5,-67.5"/>
<text text-anchor="start" x="1259.5" y="-96.5" font-family="Helvetica,sans-Serif" font-size="10.00">Kineis/App/Managers</text>
<text text-anchor="start" x="1259.5" y="-85.5" font-family="Helvetica,sans-Serif" font-size="10.00">/MGR_AT_CMD/Src/mgr</text>
<text text-anchor="middle" x="1316.5" y="-74.5" font-family="Helvetica,sans-Serif" font-size="10.00">_at_cmd_list_general.c</text>
</a>
</g>
</g>
<!-- Node2&#45;&gt;Node12 -->
<g id="edge11" class="edge">
<title>Node2&#45;&gt;Node12</title>
<path fill="none" stroke="midnightblue" d="M1368.04,-138.1C1358.18,-128.71 1346.69,-117.76 1337.06,-108.59"/>
<polygon fill="midnightblue" stroke="midnightblue" points="1365.87,-140.87 1375.52,-145.23 1370.7,-135.8 1365.87,-140.87"/>
</g>
<!-- Node13 -->
<g id="node13" class="node">
<title>Node13</title>
<g id="a_node13"><a xlink:href="../../d1/de0/mgr__at__cmd__list__mac_8c.html" target="_top" xlink:title="subset of AT commands concerning Kinéis Medium Acces Channel (MAC).">
<polygon fill="white" stroke="black" points="1399.5,-67.5 1399.5,-108.5 1529.5,-108.5 1529.5,-67.5 1399.5,-67.5"/>
<text text-anchor="start" x="1407.5" y="-96.5" font-family="Helvetica,sans-Serif" font-size="10.00">Kineis/App/Managers</text>
<text text-anchor="start" x="1407.5" y="-85.5" font-family="Helvetica,sans-Serif" font-size="10.00">/MGR_AT_CMD/Src/mgr</text>
<text text-anchor="middle" x="1464.5" y="-74.5" font-family="Helvetica,sans-Serif" font-size="10.00">_at_cmd_list_mac.c</text>
</a>
</g>
</g>
<!-- Node2&#45;&gt;Node13 -->
<g id="edge12" class="edge">
<title>Node2&#45;&gt;Node13</title>
<path fill="none" stroke="midnightblue" d="M1412.96,-138.1C1422.82,-128.71 1434.31,-117.76 1443.94,-108.59"/>
<polygon fill="midnightblue" stroke="midnightblue" points="1410.3,-135.8 1405.48,-145.23 1415.13,-140.87 1410.3,-135.8"/>
</g>
<!-- Node14 -->
<g id="node14" class="node">
<title>Node14</title>
<g id="a_node14"><a xlink:href="../../d8/d11/mgr__at__cmd__list__user__data_8c.html" target="_top" xlink:title="subset of AT commands concerning user data manipulation such as TX">
<polygon fill="white" stroke="black" points="1547.5,-67.5 1547.5,-108.5 1687.5,-108.5 1687.5,-67.5 1547.5,-67.5"/>
<text text-anchor="start" x="1555.5" y="-96.5" font-family="Helvetica,sans-Serif" font-size="10.00">Kineis/App/Managers</text>
<text text-anchor="start" x="1555.5" y="-85.5" font-family="Helvetica,sans-Serif" font-size="10.00">/MGR_AT_CMD/Src/mgr</text>
<text text-anchor="middle" x="1617.5" y="-74.5" font-family="Helvetica,sans-Serif" font-size="10.00">_at_cmd_list_user_data.c</text>
</a>
</g>
</g>
<!-- Node2&#45;&gt;Node14 -->
<g id="edge13" class="edge">
<title>Node2&#45;&gt;Node14</title>
<path fill="none" stroke="midnightblue" d="M1445.51,-142.42C1478.37,-132.21 1520.22,-119.21 1554.42,-108.59"/>
<polygon fill="midnightblue" stroke="midnightblue" points="1444.13,-139.18 1435.62,-145.49 1446.21,-145.86 1444.13,-139.18"/>
</g>
<!-- Node15 -->
<g id="node15" class="node">
<title>Node15</title>
<g id="a_node15"><a xlink:href="../../d0/d4d/kns__assert_8c.html" target="_top" xlink:title="assert handling dependency regarding platform using the Kineis stack (handle reset)">
<polygon fill="white" stroke="black" points="1706,-73 1706,-103 1815,-103 1815,-73 1706,-73"/>
<text text-anchor="start" x="1714" y="-91" font-family="Helvetica,sans-Serif" font-size="10.00">Kineis/Extdep/Conf</text>
<text text-anchor="middle" x="1760.5" y="-80" font-family="Helvetica,sans-Serif" font-size="10.00">/kns_assert.c</text>
</a>
</g>
</g>
<!-- Node2&#45;&gt;Node15 -->
<g id="edge14" class="edge">
<title>Node2&#45;&gt;Node15</title>
<path fill="none" stroke="midnightblue" d="M1468.32,-149.71C1530.53,-141.15 1619.71,-127.24 1696.5,-109 1703.64,-107.31 1711.13,-105.23 1718.39,-103.07"/>
<polygon fill="midnightblue" stroke="midnightblue" points="1467.63,-146.27 1458.19,-151.09 1468.57,-153.21 1467.63,-146.27"/>
</g>
<!-- Node16 -->
<g id="node16" class="node">
<title>Node16</title>
<g id="a_node16"><a xlink:href="../../df/ddf/mcu__misc_8c.html" target="_top" xlink:title="File to implement miscellaneous features for a specific design.">
<polygon fill="white" stroke="black" points="1833,-73 1833,-103 1958,-103 1958,-73 1833,-73"/>
<text text-anchor="start" x="1841" y="-91" font-family="Helvetica,sans-Serif" font-size="10.00">Kineis/Extdep/Mcu/Src</text>
<text text-anchor="middle" x="1895.5" y="-80" font-family="Helvetica,sans-Serif" font-size="10.00">/mcu_misc.c</text>
</a>
</g>
</g>
<!-- Node2&#45;&gt;Node16 -->
<g id="edge15" class="edge">
<title>Node2&#45;&gt;Node16</title>
<path fill="none" stroke="midnightblue" d="M1468.2,-154.08C1555.29,-147.17 1700.44,-133.12 1823.5,-109 1831.78,-107.38 1840.49,-105.29 1848.89,-103.08"/>
<polygon fill="midnightblue" stroke="midnightblue" points="1467.83,-150.6 1458.13,-154.87 1468.37,-157.58 1467.83,-150.6"/>
</g>
<!-- Node17 -->
<g id="node17" class="node">
<title>Node17</title>
<g id="a_node17"><a xlink:href="../../dd/d3f/mcu__tim_8c.html" target="_top" xlink:title="MCU wrappers for timer or non&#45;blocking delays used by Kineis stack.">
<polygon fill="white" stroke="black" points="1976,-73 1976,-103 2101,-103 2101,-73 1976,-73"/>
<text text-anchor="start" x="1984" y="-91" font-family="Helvetica,sans-Serif" font-size="10.00">Kineis/Extdep/Mcu/Src</text>
<text text-anchor="middle" x="2038.5" y="-80" font-family="Helvetica,sans-Serif" font-size="10.00">/mcu_tim.c</text>
</a>
</g>
</g>
<!-- Node2&#45;&gt;Node17 -->
<g id="edge16" class="edge">
<title>Node2&#45;&gt;Node17</title>
<path fill="none" stroke="midnightblue" d="M1468.56,-157.19C1579.87,-152.88 1790.25,-140.93 1966.5,-109 1975.05,-107.45 1984.06,-105.34 1992.7,-103.07"/>
<polygon fill="midnightblue" stroke="midnightblue" points="1468.29,-153.7 1458.43,-157.58 1468.55,-160.7 1468.29,-153.7"/>
</g>
<!-- Node18 -->
<g id="node18" class="node">
<title>Node18</title>
<g id="a_node18"><a xlink:href="../../db/de3/mgr__log_8c.html" target="_top" xlink:title="logger main file">
<polygon fill="white" stroke="black" points="2119,-73 2119,-103 2254,-103 2254,-73 2119,-73"/>
<text text-anchor="start" x="2127" y="-91" font-family="Helvetica,sans-Serif" font-size="10.00">Kineis/Extdep/MGR_LOG</text>
<text text-anchor="middle" x="2186.5" y="-80" font-family="Helvetica,sans-Serif" font-size="10.00">/Src/mgr_log.c</text>
</a>
</g>
</g>
<!-- Node2&#45;&gt;Node18 -->
<g id="edge17" class="edge">
<title>Node2&#45;&gt;Node18</title>
<path fill="none" stroke="midnightblue" d="M1468.57,-158.8C1601.32,-156.54 1879.15,-147.21 2110.5,-109 2119.65,-107.49 2129.31,-105.37 2138.55,-103.07"/>
<polygon fill="midnightblue" stroke="midnightblue" points="1468.43,-155.3 1458.49,-158.96 1468.55,-162.3 1468.43,-155.3"/>
</g>
<!-- Node2&#45;&gt;Node19 -->
<g id="edge18" class="edge">
<title>Node2&#45;&gt;Node19</title>
<path fill="none" stroke="midnightblue" d="M1468.32,-157.7C1672.67,-152.63 2221.14,-136.78 2400.5,-109 2409.94,-107.54 2419.9,-105.38 2429.39,-103.02"/>
<polygon fill="midnightblue" stroke="midnightblue" points="1468.18,-154.2 1458.27,-157.94 1468.35,-161.2 1468.18,-154.2"/>
</g>
<!-- Node20 -->
<g id="node20" class="node">
<title>Node20</title>
<g id="a_node20"><a xlink:href="../../d5/db5/lpm_8c.html" target="_top" xlink:title="This file contains some utilities and functions needed for a correct handling of LPM on the STM32WL55...">
<polygon fill="white" stroke="black" points="2272,-78.5 2272,-97.5 2391,-97.5 2391,-78.5 2272,-78.5"/>
<text text-anchor="middle" x="2331.5" y="-85.5" font-family="Helvetica,sans-Serif" font-size="10.00">Kineis/Lpm/Src/lpm.c</text>
</a>
</g>
</g>
<!-- Node2&#45;&gt;Node20 -->
<g id="edge19" class="edge">
<title>Node2&#45;&gt;Node20</title>
<path fill="none" stroke="midnightblue" d="M1468.31,-157.27C1652.64,-151.64 2111.83,-135.33 2263.5,-109 2278.29,-106.43 2294.43,-101.77 2307.27,-97.59"/>
<polygon fill="midnightblue" stroke="midnightblue" points="1468.04,-153.78 1458.15,-157.58 1468.25,-160.78 1468.04,-153.78"/>
</g>
<!-- Node5 -->
<g id="node5" class="node">
<title>Node5</title>
<g id="a_node5"><a xlink:href="../../d7/d30/kns__q_8c.html" target="_top" xlink:title="Configuration of queues used in kineis_swr.">
<polygon fill="white" stroke="black" points="135.5,-0.5 135.5,-30.5 253.5,-30.5 253.5,-0.5 135.5,-0.5"/>
<text text-anchor="start" x="143.5" y="-18.5" font-family="Helvetica,sans-Serif" font-size="10.00">Kineis/App/Kineis_os</text>
<text text-anchor="middle" x="194.5" y="-7.5" font-family="Helvetica,sans-Serif" font-size="10.00">/KNS_Q/Src/kns_q.c</text>
</a>
</g>
</g>
<!-- Node4&#45;&gt;Node5 -->
<g id="edge4" class="edge">
<title>Node4&#45;&gt;Node5</title>
<path fill="none" stroke="midnightblue" d="M194.5,-62.73C194.5,-52.07 194.5,-39.91 194.5,-30.75"/>
<polygon fill="midnightblue" stroke="midnightblue" points="191,-62.73 194.5,-72.73 198,-62.73 191,-62.73"/>
</g>
</g>
</svg>
