<?xml version="1.0" encoding="UTF-8" standalone="no"?>
<!DOCTYPE svg PUBLIC "-//W3C//DTD SVG 1.1//EN"
 "http://www.w3.org/Graphics/SVG/1.1/DTD/svg11.dtd">
<!-- Generated by graphviz version 2.43.0 (0)
 -->
<!-- Title: Kineis/Extdep/MGR_LOG/Inc/mgr_log_rtc.h Pages: 1 -->
<svg width="2404pt" height="251pt"
 viewBox="0.00 0.00 2404.00 251.00" xmlns="http://www.w3.org/2000/svg" xmlns:xlink="http://www.w3.org/1999/xlink">
<g id="graph0" class="graph" transform="scale(1 1) rotate(0) translate(4 247)">
<title>Kineis/Extdep/MGR_LOG/Inc/mgr_log_rtc.h</title>
<polygon fill="white" stroke="transparent" points="-4,4 -4,-247 2400,-247 2400,4 -4,4"/>
<!-- Node1 -->
<g id="node1" class="node">
<title>Node1</title>
<g id="a_node1"><a xlink:title=": Header for mgr_log_rtc.c file. This file contains log routine concerning RTC. Thus there is a depen...">
<polygon fill="#bfbfbf" stroke="black" points="1297,-212.5 1297,-242.5 1432,-242.5 1432,-212.5 1297,-212.5"/>
<text text-anchor="start" x="1305" y="-230.5" font-family="Helvetica,sans-Serif" font-size="10.00">Kineis/Extdep/MGR_LOG</text>
<text text-anchor="middle" x="1364.5" y="-219.5" font-family="Helvetica,sans-Serif" font-size="10.00">/Inc/mgr_log_rtc.h</text>
</a>
</g>
</g>
<!-- Node2 -->
<g id="node2" class="node">
<title>Node2</title>
<g id="a_node2"><a xlink:href="../../d2/d2e/mgr__log_8h.html" target="_top" xlink:title="logger main header file">
<polygon fill="white" stroke="black" points="1249,-145.5 1249,-175.5 1384,-175.5 1384,-145.5 1249,-145.5"/>
<text text-anchor="start" x="1257" y="-163.5" font-family="Helvetica,sans-Serif" font-size="10.00">Kineis/Extdep/MGR_LOG</text>
<text text-anchor="middle" x="1316.5" y="-152.5" font-family="Helvetica,sans-Serif" font-size="10.00">/Inc/mgr_log.h</text>
</a>
</g>
</g>
<!-- Node1&#45;&gt;Node2 -->
<g id="edge1" class="edge">
<title>Node1&#45;&gt;Node2</title>
<path fill="none" stroke="midnightblue" d="M1348,-204.16C1341,-194.68 1333.06,-183.92 1326.89,-175.58"/>
<polygon fill="midnightblue" stroke="midnightblue" points="1345.33,-206.43 1354.08,-212.4 1350.96,-202.27 1345.33,-206.43"/>
</g>
<!-- Node18 -->
<g id="node18" class="node">
<title>Node18</title>
<g id="a_node18"><a xlink:href="../../dc/d4f/mgr__log__rtc_8c.html" target="_top" xlink:title="This file contains log routine concerning RTC. There is a dependency on HAL RTC.">
<polygon fill="white" stroke="black" points="2261,-73 2261,-103 2396,-103 2396,-73 2261,-73"/>
<text text-anchor="start" x="2269" y="-91" font-family="Helvetica,sans-Serif" font-size="10.00">Kineis/Extdep/MGR_LOG</text>
<text text-anchor="middle" x="2328.5" y="-80" font-family="Helvetica,sans-Serif" font-size="10.00">/Src/mgr_log_rtc.c</text>
</a>
</g>
</g>
<!-- Node1&#45;&gt;Node18 -->
<g id="edge19" class="edge">
<title>Node1&#45;&gt;Node18</title>
<path fill="none" stroke="midnightblue" d="M1442.46,-219.51C1597.66,-204.87 1955.87,-167.41 2252.5,-109 2261.07,-107.31 2270.1,-105.22 2278.83,-103.03"/>
<polygon fill="midnightblue" stroke="midnightblue" points="1441.72,-216.07 1432.09,-220.49 1442.37,-223.04 1441.72,-216.07"/>
</g>
<!-- Node3 -->
<g id="node3" class="node">
<title>Node3</title>
<g id="a_node3"><a xlink:href="../../d0/d29/main_8c.html" target="_top" xlink:title=": Main program body">
<polygon fill="white" stroke="black" points="0,-78.5 0,-97.5 93,-97.5 93,-78.5 0,-78.5"/>
<text text-anchor="middle" x="46.5" y="-85.5" font-family="Helvetica,sans-Serif" font-size="10.00">Core/Src/main.c</text>
</a>
</g>
</g>
<!-- Node2&#45;&gt;Node3 -->
<g id="edge2" class="edge">
<title>Node2&#45;&gt;Node3</title>
<path fill="none" stroke="midnightblue" d="M1238.59,-159.32C1006.33,-158.28 321.32,-151.6 102.5,-109 89.93,-106.55 76.4,-101.78 65.79,-97.52"/>
<polygon fill="midnightblue" stroke="midnightblue" points="1238.63,-162.82 1248.64,-159.36 1238.66,-155.82 1238.63,-162.82"/>
</g>
<!-- Node4 -->
<g id="node4" class="node">
<title>Node4</title>
<g id="a_node4"><a xlink:href="../../d0/d08/kns__q__baremetal_8c.html" target="_top" xlink:title="Configuration of queues used in kineis_swr.">
<polygon fill="white" stroke="black" points="111.5,-73 111.5,-103 277.5,-103 277.5,-73 111.5,-73"/>
<text text-anchor="start" x="119.5" y="-91" font-family="Helvetica,sans-Serif" font-size="10.00">Kineis/App/Kineis_os</text>
<text text-anchor="middle" x="194.5" y="-80" font-family="Helvetica,sans-Serif" font-size="10.00">/KNS_Q/Src/kns_q_baremetal.c</text>
</a>
</g>
</g>
<!-- Node2&#45;&gt;Node4 -->
<g id="edge3" class="edge">
<title>Node2&#45;&gt;Node4</title>
<path fill="none" stroke="midnightblue" d="M1238.73,-160.05C1066.43,-160.33 639.8,-155.74 286.5,-109 275.32,-107.52 263.48,-105.39 252.15,-103.06"/>
<polygon fill="midnightblue" stroke="midnightblue" points="1238.98,-163.55 1248.97,-160.03 1238.96,-156.55 1238.98,-163.55"/>
</g>
<!-- Node6 -->
<g id="node6" class="node">
<title>Node6</title>
<g id="a_node6"><a xlink:href="../../d5/d11/kns__q__cmsis__os2_8c.html" target="_top" xlink:title=" ">
<polygon fill="white" stroke="black" points="296,-73 296,-103 463,-103 463,-73 296,-73"/>
<text text-anchor="start" x="304" y="-91" font-family="Helvetica,sans-Serif" font-size="10.00">Kineis/App/Kineis_os</text>
<text text-anchor="middle" x="379.5" y="-80" font-family="Helvetica,sans-Serif" font-size="10.00">/KNS_Q/Src/kns_q_cmsis_os2.c</text>
</a>
</g>
</g>
<!-- Node2&#45;&gt;Node6 -->
<g id="edge5" class="edge">
<title>Node2&#45;&gt;Node6</title>
<path fill="none" stroke="midnightblue" d="M1238.45,-158.79C1089.06,-156.54 752.65,-147.28 472.5,-109 461.37,-107.48 449.6,-105.36 438.3,-103.06"/>
<polygon fill="midnightblue" stroke="midnightblue" points="1238.83,-162.29 1248.88,-158.94 1238.93,-155.29 1238.83,-162.29"/>
</g>
<!-- Node7 -->
<g id="node7" class="node">
<title>Node7</title>
<g id="a_node7"><a xlink:href="../../d2/d9c/kns__q__freertos_8c.html" target="_top" xlink:title="Configuration of queues used in kineis_swr.">
<polygon fill="white" stroke="black" points="481.5,-73 481.5,-103 635.5,-103 635.5,-73 481.5,-73"/>
<text text-anchor="start" x="489.5" y="-91" font-family="Helvetica,sans-Serif" font-size="10.00">Kineis/App/Kineis_os</text>
<text text-anchor="middle" x="558.5" y="-80" font-family="Helvetica,sans-Serif" font-size="10.00">/KNS_Q/Src/kns_q_freertos.c</text>
</a>
</g>
</g>
<!-- Node2&#45;&gt;Node7 -->
<g id="edge6" class="edge">
<title>Node2&#45;&gt;Node7</title>
<path fill="none" stroke="midnightblue" d="M1238.58,-157.52C1112.91,-153.47 857.95,-141.64 644.5,-109 634.35,-107.45 623.62,-105.34 613.31,-103.07"/>
<polygon fill="midnightblue" stroke="midnightblue" points="1238.76,-161.03 1248.87,-157.85 1238.98,-154.03 1238.76,-161.03"/>
</g>
<!-- Node8 -->
<g id="node8" class="node">
<title>Node8</title>
<g id="a_node8"><a xlink:href="../../d4/d0d/kns__app_8c.html" target="_top" xlink:title=" ">
<polygon fill="white" stroke="black" points="653.5,-78.5 653.5,-97.5 773.5,-97.5 773.5,-78.5 653.5,-78.5"/>
<text text-anchor="middle" x="713.5" y="-85.5" font-family="Helvetica,sans-Serif" font-size="10.00">Kineis/App/kns_app.c</text>
</a>
</g>
</g>
<!-- Node2&#45;&gt;Node8 -->
<g id="edge7" class="edge">
<title>Node2&#45;&gt;Node8</title>
<path fill="none" stroke="midnightblue" d="M1238.76,-156.72C1134.23,-151.95 942.96,-139.56 782.5,-109 767.8,-106.2 751.72,-101.63 738.78,-97.57"/>
<polygon fill="midnightblue" stroke="midnightblue" points="1238.77,-160.23 1248.91,-157.17 1239.08,-153.23 1238.77,-160.23"/>
</g>
<!-- Node9 -->
<g id="node9" class="node">
<title>Node9</title>
<g id="a_node9"><a xlink:href="../../d0/d01/user__data_8c.html" target="_top" xlink:title="Library to handle user data to be be received or transmitted over the air.">
<polygon fill="white" stroke="black" points="791.5,-73 791.5,-103 937.5,-103 937.5,-73 791.5,-73"/>
<text text-anchor="start" x="799.5" y="-91" font-family="Helvetica,sans-Serif" font-size="10.00">Kineis/App/Libs/USERDATA</text>
<text text-anchor="middle" x="864.5" y="-80" font-family="Helvetica,sans-Serif" font-size="10.00">/Src/user_data.c</text>
</a>
</g>
</g>
<!-- Node2&#45;&gt;Node9 -->
<g id="edge8" class="edge">
<title>Node2&#45;&gt;Node9</title>
<path fill="none" stroke="midnightblue" d="M1238.66,-151.25C1163.53,-142.73 1046.73,-128.01 946.5,-109 937.43,-107.28 927.86,-105.19 918.58,-103.03"/>
<polygon fill="midnightblue" stroke="midnightblue" points="1238.65,-154.77 1248.98,-152.41 1239.44,-147.82 1238.65,-154.77"/>
</g>
<!-- Node10 -->
<g id="node10" class="node">
<title>Node10</title>
<g id="a_node10"><a xlink:href="../../da/d77/mgr__at__cmd_8c.html" target="_top" xlink:title="APIs Implementation used to parse the UART ASCII data stream and extract AT commands.">
<polygon fill="white" stroke="black" points="955.5,-67.5 955.5,-108.5 1085.5,-108.5 1085.5,-67.5 955.5,-67.5"/>
<text text-anchor="start" x="963.5" y="-96.5" font-family="Helvetica,sans-Serif" font-size="10.00">Kineis/App/Managers</text>
<text text-anchor="start" x="963.5" y="-85.5" font-family="Helvetica,sans-Serif" font-size="10.00">/MGR_AT_CMD/Src/mgr</text>
<text text-anchor="middle" x="1020.5" y="-74.5" font-family="Helvetica,sans-Serif" font-size="10.00">_at_cmd.c</text>
</a>
</g>
</g>
<!-- Node2&#45;&gt;Node10 -->
<g id="edge9" class="edge">
<title>Node2&#45;&gt;Node10</title>
<path fill="none" stroke="midnightblue" d="M1241.88,-143.31C1198.72,-133.75 1143.43,-121.17 1094.5,-109 1091.66,-108.29 1088.76,-107.56 1085.83,-106.81"/>
<polygon fill="midnightblue" stroke="midnightblue" points="1241.22,-146.75 1251.74,-145.49 1242.73,-139.91 1241.22,-146.75"/>
</g>
<!-- Node11 -->
<g id="node11" class="node">
<title>Node11</title>
<g id="a_node11"><a xlink:href="../../d2/d04/mgr__at__cmd__list__certif_8c.html" target="_top" xlink:title="subset of AT commands concerning specifics for certification">
<polygon fill="white" stroke="black" points="1103.5,-67.5 1103.5,-108.5 1233.5,-108.5 1233.5,-67.5 1103.5,-67.5"/>
<text text-anchor="start" x="1111.5" y="-96.5" font-family="Helvetica,sans-Serif" font-size="10.00">Kineis/App/Managers</text>
<text text-anchor="start" x="1111.5" y="-85.5" font-family="Helvetica,sans-Serif" font-size="10.00">/MGR_AT_CMD/Src/mgr</text>
<text text-anchor="middle" x="1168.5" y="-74.5" font-family="Helvetica,sans-Serif" font-size="10.00">_at_cmd_list_certif.c</text>
</a>
</g>
</g>
<!-- Node2&#45;&gt;Node11 -->
<g id="edge10" class="edge">
<title>Node2&#45;&gt;Node11</title>
<path fill="none" stroke="midnightblue" d="M1277.65,-141C1256.69,-131.01 1230.82,-118.69 1209.53,-108.55"/>
<polygon fill="midnightblue" stroke="midnightblue" points="1276.37,-144.26 1286.91,-145.4 1279.38,-137.94 1276.37,-144.26"/>
</g>
<!-- Node12 -->
<g id="node12" class="node">
<title>Node12</title>
<g id="a_node12"><a xlink:href="../../d1/dfd/mgr__at__cmd__list__general_8c.html" target="_top" xlink:title="subset of AT commands concerning general purpose (get ID, FW version, ...)">
<polygon fill="white" stroke="black" points="1251.5,-67.5 1251.5,-108.5 1381.5,-108.5 1381.5,-67.5 1251.5,-67.5"/>
<text text-anchor="start" x="1259.5" y="-96.5" font-family="Helvetica,sans-Serif" font-size="10.00">Kineis/App/Managers</text>
<text text-anchor="start" x="1259.5" y="-85.5" font-family="Helvetica,sans-Serif" font-size="10.00">/MGR_AT_CMD/Src/mgr</text>
<text text-anchor="middle" x="1316.5" y="-74.5" font-family="Helvetica,sans-Serif" font-size="10.00">_at_cmd_list_general.c</text>
</a>
</g>
</g>
<!-- Node2&#45;&gt;Node12 -->
<g id="edge11" class="edge">
<title>Node2&#45;&gt;Node12</title>
<path fill="none" stroke="midnightblue" d="M1316.5,-134.98C1316.5,-126.35 1316.5,-116.76 1316.5,-108.59"/>
<polygon fill="midnightblue" stroke="midnightblue" points="1313,-135.23 1316.5,-145.23 1320,-135.23 1313,-135.23"/>
</g>
<!-- Node13 -->
<g id="node13" class="node">
<title>Node13</title>
<g id="a_node13"><a xlink:href="../../d8/d11/mgr__at__cmd__list__user__data_8c.html" target="_top" xlink:title="subset of AT commands concerning user data manipulation such as TX">
<polygon fill="white" stroke="black" points="1399.5,-67.5 1399.5,-108.5 1539.5,-108.5 1539.5,-67.5 1399.5,-67.5"/>
<text text-anchor="start" x="1407.5" y="-96.5" font-family="Helvetica,sans-Serif" font-size="10.00">Kineis/App/Managers</text>
<text text-anchor="start" x="1407.5" y="-85.5" font-family="Helvetica,sans-Serif" font-size="10.00">/MGR_AT_CMD/Src/mgr</text>
<text text-anchor="middle" x="1469.5" y="-74.5" font-family="Helvetica,sans-Serif" font-size="10.00">_at_cmd_list_user_data.c</text>
</a>
</g>
</g>
<!-- Node2&#45;&gt;Node13 -->
<g id="edge12" class="edge">
<title>Node2&#45;&gt;Node13</title>
<path fill="none" stroke="midnightblue" d="M1356.37,-141.13C1378.09,-131.12 1404.97,-118.73 1427.08,-108.55"/>
<polygon fill="midnightblue" stroke="midnightblue" points="1354.71,-138.04 1347.09,-145.4 1357.64,-144.4 1354.71,-138.04"/>
</g>
<!-- Node14 -->
<g id="node14" class="node">
<title>Node14</title>
<g id="a_node14"><a xlink:href="../../d0/d4d/kns__assert_8c.html" target="_top" xlink:title="assert handling dependency regarding platform using the Kineis stack (handle reset)">
<polygon fill="white" stroke="black" points="1558,-73 1558,-103 1667,-103 1667,-73 1558,-73"/>
<text text-anchor="start" x="1566" y="-91" font-family="Helvetica,sans-Serif" font-size="10.00">Kineis/Extdep/Conf</text>
<text text-anchor="middle" x="1612.5" y="-80" font-family="Helvetica,sans-Serif" font-size="10.00">/kns_assert.c</text>
</a>
</g>
</g>
<!-- Node2&#45;&gt;Node14 -->
<g id="edge13" class="edge">
<title>Node2&#45;&gt;Node14</title>
<path fill="none" stroke="midnightblue" d="M1394.18,-144.38C1439.43,-135.13 1497.47,-122.5 1548.5,-109 1555.25,-107.21 1562.36,-105.17 1569.27,-103.08"/>
<polygon fill="midnightblue" stroke="midnightblue" points="1393.24,-141 1384.13,-146.42 1394.63,-147.86 1393.24,-141"/>
</g>
<!-- Node15 -->
<g id="node15" class="node">
<title>Node15</title>
<g id="a_node15"><a xlink:href="../../df/ddf/mcu__misc_8c.html" target="_top" xlink:title="File to implement miscellaneous features for a specific design.">
<polygon fill="white" stroke="black" points="1685,-73 1685,-103 1810,-103 1810,-73 1685,-73"/>
<text text-anchor="start" x="1693" y="-91" font-family="Helvetica,sans-Serif" font-size="10.00">Kineis/Extdep/Mcu/Src</text>
<text text-anchor="middle" x="1747.5" y="-80" font-family="Helvetica,sans-Serif" font-size="10.00">/mcu_misc.c</text>
</a>
</g>
</g>
<!-- Node2&#45;&gt;Node15 -->
<g id="edge14" class="edge">
<title>Node2&#45;&gt;Node15</title>
<path fill="none" stroke="midnightblue" d="M1394.16,-151.55C1467.21,-143.38 1579.43,-129.01 1675.5,-109 1683.63,-107.31 1692.19,-105.21 1700.47,-103.02"/>
<polygon fill="midnightblue" stroke="midnightblue" points="1393.67,-148.09 1384.11,-152.67 1394.44,-155.04 1393.67,-148.09"/>
</g>
<!-- Node16 -->
<g id="node16" class="node">
<title>Node16</title>
<g id="a_node16"><a xlink:href="../../dd/d3f/mcu__tim_8c.html" target="_top" xlink:title="MCU wrappers for timer or non&#45;blocking delays used by Kineis stack.">
<polygon fill="white" stroke="black" points="1828,-73 1828,-103 1953,-103 1953,-73 1828,-73"/>
<text text-anchor="start" x="1836" y="-91" font-family="Helvetica,sans-Serif" font-size="10.00">Kineis/Extdep/Mcu/Src</text>
<text text-anchor="middle" x="1890.5" y="-80" font-family="Helvetica,sans-Serif" font-size="10.00">/mcu_tim.c</text>
</a>
</g>
</g>
<!-- Node2&#45;&gt;Node16 -->
<g id="edge15" class="edge">
<title>Node2&#45;&gt;Node16</title>
<path fill="none" stroke="midnightblue" d="M1394.24,-155.8C1493.41,-150.14 1669.88,-136.91 1818.5,-109 1826.92,-107.42 1835.78,-105.33 1844.3,-103.09"/>
<polygon fill="midnightblue" stroke="midnightblue" points="1393.8,-152.32 1384.01,-156.37 1394.19,-159.31 1393.8,-152.32"/>
</g>
<!-- Node17 -->
<g id="node17" class="node">
<title>Node17</title>
<g id="a_node17"><a xlink:href="../../db/de3/mgr__log_8c.html" target="_top" xlink:title="logger main file">
<polygon fill="white" stroke="black" points="1971,-73 1971,-103 2106,-103 2106,-73 1971,-73"/>
<text text-anchor="start" x="1979" y="-91" font-family="Helvetica,sans-Serif" font-size="10.00">Kineis/Extdep/MGR_LOG</text>
<text text-anchor="middle" x="2038.5" y="-80" font-family="Helvetica,sans-Serif" font-size="10.00">/Src/mgr_log.c</text>
</a>
</g>
</g>
<!-- Node2&#45;&gt;Node17 -->
<g id="edge16" class="edge">
<title>Node2&#45;&gt;Node17</title>
<path fill="none" stroke="midnightblue" d="M1394.64,-157.81C1516.51,-154.18 1758.87,-142.98 1961.5,-109 1970.76,-107.45 1980.54,-105.31 1989.9,-103"/>
<polygon fill="midnightblue" stroke="midnightblue" points="1394.19,-154.32 1384.3,-158.11 1394.39,-161.32 1394.19,-154.32"/>
</g>
<!-- Node2&#45;&gt;Node18 -->
<g id="edge17" class="edge">
<title>Node2&#45;&gt;Node18</title>
<path fill="none" stroke="midnightblue" d="M1394.34,-157.34C1588.04,-151.64 2087.94,-134.82 2252.5,-109 2261.8,-107.54 2271.61,-105.42 2280.97,-103.09"/>
<polygon fill="midnightblue" stroke="midnightblue" points="1394.13,-153.84 1384.24,-157.64 1394.34,-160.84 1394.13,-153.84"/>
</g>
<!-- Node19 -->
<g id="node19" class="node">
<title>Node19</title>
<g id="a_node19"><a xlink:href="../../d5/db5/lpm_8c.html" target="_top" xlink:title="This file contains some utilities and functions needed for a correct handling of LPM on the STM32WL55...">
<polygon fill="white" stroke="black" points="2124,-78.5 2124,-97.5 2243,-97.5 2243,-78.5 2124,-78.5"/>
<text text-anchor="middle" x="2183.5" y="-85.5" font-family="Helvetica,sans-Serif" font-size="10.00">Kineis/Lpm/Src/lpm.c</text>
</a>
</g>
</g>
<!-- Node2&#45;&gt;Node19 -->
<g id="edge18" class="edge">
<title>Node2&#45;&gt;Node19</title>
<path fill="none" stroke="midnightblue" d="M1394.22,-160.3C1537.84,-160.53 1854.01,-155.12 2115.5,-109 2130.28,-106.39 2146.42,-101.73 2159.26,-97.56"/>
<polygon fill="midnightblue" stroke="midnightblue" points="1394.19,-156.8 1384.18,-160.28 1394.17,-163.8 1394.19,-156.8"/>
</g>
<!-- Node5 -->
<g id="node5" class="node">
<title>Node5</title>
<g id="a_node5"><a xlink:href="../../d7/d30/kns__q_8c.html" target="_top" xlink:title="Configuration of queues used in kineis_swr.">
<polygon fill="white" stroke="black" points="135.5,-0.5 135.5,-30.5 253.5,-30.5 253.5,-0.5 135.5,-0.5"/>
<text text-anchor="start" x="143.5" y="-18.5" font-family="Helvetica,sans-Serif" font-size="10.00">Kineis/App/Kineis_os</text>
<text text-anchor="middle" x="194.5" y="-7.5" font-family="Helvetica,sans-Serif" font-size="10.00">/KNS_Q/Src/kns_q.c</text>
</a>
</g>
</g>
<!-- Node4&#45;&gt;Node5 -->
<g id="edge4" class="edge">
<title>Node4&#45;&gt;Node5</title>
<path fill="none" stroke="midnightblue" d="M194.5,-62.73C194.5,-52.07 194.5,-39.91 194.5,-30.75"/>
<polygon fill="midnightblue" stroke="midnightblue" points="191,-62.73 194.5,-72.73 198,-62.73 191,-62.73"/>
</g>
</g>
</svg>
