<?xml version="1.0" encoding="UTF-8" standalone="no"?>
<!DOCTYPE svg PUBLIC "-//W3C//DTD SVG 1.1//EN"
 "http://www.w3.org/Graphics/SVG/1.1/DTD/svg11.dtd">
<!-- Generated by graphviz version 2.43.0 (0)
 -->
<!-- Title: __attribute__ Pages: 1 -->
<svg width="737pt" height="243pt"
 viewBox="0.00 0.00 737.00 242.50" xmlns="http://www.w3.org/2000/svg" xmlns:xlink="http://www.w3.org/1999/xlink">
<g id="graph0" class="graph" transform="scale(1 1) rotate(0) translate(4 238.5)">
<title>__attribute__</title>
<polygon fill="white" stroke="transparent" points="-4,4 -4,-238.5 733,-238.5 733,4 -4,4"/>
<!-- Node1 -->
<g id="node1" class="node">
<title>Node1</title>
<g id="a_node1"><a xlink:title=" ">
<polygon fill="#bfbfbf" stroke="black" points="0,-101 0,-120 80,-120 80,-101 0,-101"/>
<text text-anchor="middle" x="40" y="-108" font-family="Helvetica,sans-Serif" font-size="10.00">__attribute__</text>
</a>
</g>
</g>
<!-- Node2 -->
<g id="node2" class="node">
<title>Node2</title>
<g id="a_node2"><a xlink:href="../../db/dca/group___m_g_r___l_p_m.html#ga8828ea85b626943b9d30c4dfabb0666a" target="_top" xlink:title="System callback invoked by MGR_LPM at STANDBY mode entering.">
<polygon fill="white" stroke="black" points="116,-196 116,-215 236,-215 236,-196 116,-196"/>
<text text-anchor="middle" x="176" y="-203" font-family="Helvetica,sans-Serif" font-size="10.00">LPM_shutdown_enter</text>
</a>
</g>
</g>
<!-- Node1&#45;&gt;Node2 -->
<g id="edge1" class="edge">
<title>Node1&#45;&gt;Node2</title>
<path fill="none" stroke="midnightblue" d="M47.97,-120.13C60.07,-136.15 86.48,-168.33 116,-186.5 119.36,-188.57 122.96,-190.43 126.68,-192.11"/>
<polygon fill="midnightblue" stroke="midnightblue" points="125.47,-195.39 136.05,-195.9 128.09,-188.91 125.47,-195.39"/>
</g>
<!-- Node6 -->
<g id="node6" class="node">
<title>Node6</title>
<g id="a_node6"><a xlink:href="../../db/dca/group___m_g_r___l_p_m.html#ga417819706e6583b0e268368befe4cdbb" target="_top" xlink:title="System callback invoked by MGR_LPM at SLEEP mode entering.">
<polygon fill="white" stroke="black" points="126.5,-82 126.5,-101 225.5,-101 225.5,-82 126.5,-82"/>
<text text-anchor="middle" x="176" y="-89" font-family="Helvetica,sans-Serif" font-size="10.00">LPM_sleep_enter</text>
</a>
</g>
</g>
<!-- Node1&#45;&gt;Node6 -->
<g id="edge5" class="edge">
<title>Node1&#45;&gt;Node6</title>
<path fill="none" stroke="midnightblue" d="M80.12,-104.95C91.34,-103.36 103.84,-101.59 115.98,-99.87"/>
<polygon fill="midnightblue" stroke="midnightblue" points="116.65,-103.31 126.06,-98.44 115.67,-96.38 116.65,-103.31"/>
</g>
<!-- Node7 -->
<g id="node7" class="node">
<title>Node7</title>
<g id="a_node7"><a xlink:href="../../db/dca/group___m_g_r___l_p_m.html#gafd6b27155bf6c556515edc46ea62ac96" target="_top" xlink:title="System callback invoked by MGR_LPM at SLEEP mode exit.">
<polygon fill="white" stroke="black" points="130,-44 130,-63 222,-63 222,-44 130,-44"/>
<text text-anchor="middle" x="176" y="-51" font-family="Helvetica,sans-Serif" font-size="10.00">LPM_sleep_exit</text>
</a>
</g>
</g>
<!-- Node1&#45;&gt;Node7 -->
<g id="edge6" class="edge">
<title>Node1&#45;&gt;Node7</title>
<path fill="none" stroke="midnightblue" d="M57.92,-100.96C72.89,-92.75 95.48,-80.94 116,-72.5 121.22,-70.35 126.79,-68.28 132.33,-66.36"/>
<polygon fill="midnightblue" stroke="midnightblue" points="133.84,-69.54 142.21,-63.05 131.62,-62.9 133.84,-69.54"/>
</g>
<!-- Node8 -->
<g id="node8" class="node">
<title>Node8</title>
<g id="a_node8"><a xlink:href="../../db/dca/group___m_g_r___l_p_m.html#gaa6d6e5889194fc0b5a37640ed3d53ef3" target="_top" xlink:title="System callback invoked by MGR_LPM at STANDBY mode entering.">
<polygon fill="white" stroke="black" points="120,-158 120,-177 232,-177 232,-158 120,-158"/>
<text text-anchor="middle" x="176" y="-165" font-family="Helvetica,sans-Serif" font-size="10.00">LPM_standby_enter</text>
</a>
</g>
</g>
<!-- Node1&#45;&gt;Node8 -->
<g id="edge7" class="edge">
<title>Node1&#45;&gt;Node8</title>
<path fill="none" stroke="midnightblue" d="M57.92,-120.04C72.89,-128.25 95.48,-140.06 116,-148.5 121.22,-150.65 126.79,-152.72 132.33,-154.64"/>
<polygon fill="midnightblue" stroke="midnightblue" points="131.62,-158.1 142.21,-157.95 133.84,-151.46 131.62,-158.1"/>
</g>
<!-- Node9 -->
<g id="node9" class="node">
<title>Node9</title>
<g id="a_node9"><a xlink:href="../../db/dca/group___m_g_r___l_p_m.html#gab196a8032ee24a710126fc16eec09ed8" target="_top" xlink:title="System callback invoked by MGR_LPM at STOP mode entering.">
<polygon fill="white" stroke="black" points="129,-120 129,-139 223,-139 223,-120 129,-120"/>
<text text-anchor="middle" x="176" y="-127" font-family="Helvetica,sans-Serif" font-size="10.00">LPM_stop_enter</text>
</a>
</g>
</g>
<!-- Node1&#45;&gt;Node9 -->
<g id="edge11" class="edge">
<title>Node1&#45;&gt;Node9</title>
<path fill="none" stroke="midnightblue" d="M80.12,-116.05C92.19,-117.76 105.73,-119.68 118.71,-121.52"/>
<polygon fill="midnightblue" stroke="midnightblue" points="118.58,-125.03 128.97,-122.97 119.56,-118.1 118.58,-125.03"/>
</g>
<!-- Node11 -->
<g id="node11" class="node">
<title>Node11</title>
<g id="a_node11"><a xlink:href="../../db/dca/group___m_g_r___l_p_m.html#ga2dfaa58a8d7f90840153f1f06542fd13" target="_top" xlink:title="System callback invoked by MGR_LPM at STOP mode exit.">
<polygon fill="white" stroke="black" points="132.5,-6 132.5,-25 219.5,-25 219.5,-6 132.5,-6"/>
<text text-anchor="middle" x="176" y="-13" font-family="Helvetica,sans-Serif" font-size="10.00">LPM_stop_exit</text>
</a>
</g>
</g>
<!-- Node1&#45;&gt;Node11 -->
<g id="edge14" class="edge">
<title>Node1&#45;&gt;Node11</title>
<path fill="none" stroke="midnightblue" d="M47.97,-100.87C60.07,-84.85 86.48,-52.67 116,-34.5 119.36,-32.43 122.96,-30.57 126.68,-28.89"/>
<polygon fill="midnightblue" stroke="midnightblue" points="128.09,-32.09 136.05,-25.1 125.47,-25.61 128.09,-32.09"/>
</g>
<!-- Node3 -->
<g id="node3" class="node">
<title>Node3</title>
<g id="a_node3"><a xlink:href="../../db/dca/group___m_g_r___l_p_m.html#ga2a7197f71c2bd57494778d45b8e3dab2" target="_top" xlink:title="Disable all GPIO as not used for the moment.">
<polygon fill="white" stroke="black" points="272,-139 272,-158 436,-158 436,-139 272,-139"/>
<text text-anchor="middle" x="354" y="-146" font-family="Helvetica,sans-Serif" font-size="10.00">GPIO_DisableAllToAnalogInput</text>
</a>
</g>
</g>
<!-- Node2&#45;&gt;Node3 -->
<g id="edge2" class="edge">
<title>Node2&#45;&gt;Node3</title>
<path fill="none" stroke="midnightblue" d="M210.14,-195.95C218.67,-193.18 227.77,-189.97 236,-186.5 252.67,-179.48 255.06,-173.84 272,-167.5 278.79,-164.96 286.03,-162.69 293.28,-160.67"/>
<polygon fill="midnightblue" stroke="midnightblue" points="294.36,-164.01 303.14,-158.08 292.58,-157.24 294.36,-164.01"/>
</g>
<!-- Node4 -->
<g id="node4" class="node">
<title>Node4</title>
<g id="a_node4"><a xlink:href="../../db/dca/group___m_g_r___l_p_m.html#ga2f442d07b917d5aaa9c7b1ca07b0c24b" target="_top" xlink:title="Function used to configure the external wakeup pins to exit low power mode (standby and shutdown only...">
<polygon fill="white" stroke="black" points="287.5,-177 287.5,-196 420.5,-196 420.5,-177 287.5,-177"/>
<text text-anchor="middle" x="354" y="-184" font-family="Helvetica,sans-Serif" font-size="10.00">LPM_configWakeUpPins</text>
</a>
</g>
</g>
<!-- Node2&#45;&gt;Node4 -->
<g id="edge3" class="edge">
<title>Node2&#45;&gt;Node4</title>
<path fill="none" stroke="midnightblue" d="M236.1,-199.12C249.35,-197.69 263.6,-196.15 277.42,-194.66"/>
<polygon fill="midnightblue" stroke="midnightblue" points="277.83,-198.14 287.4,-193.58 277.08,-191.18 277.83,-198.14"/>
</g>
<!-- Node5 -->
<g id="node5" class="node">
<title>Node5</title>
<g id="a_node5"><a xlink:href="../../db/dca/group___m_g_r___l_p_m.html#ga3d23fbf0f20054b5bddbbf112200367a" target="_top" xlink:title="Function used to configure the internal wakeup line to exit low power mode.">
<polygon fill="white" stroke="black" points="290,-215 290,-234 418,-234 418,-215 290,-215"/>
<text text-anchor="middle" x="354" y="-222" font-family="Helvetica,sans-Serif" font-size="10.00">LPM_configWakeUpRtc</text>
</a>
</g>
</g>
<!-- Node2&#45;&gt;Node5 -->
<g id="edge4" class="edge">
<title>Node2&#45;&gt;Node5</title>
<path fill="none" stroke="midnightblue" d="M236.1,-211.88C250.13,-213.39 265.27,-215.03 279.85,-216.6"/>
<polygon fill="midnightblue" stroke="midnightblue" points="279.52,-220.09 289.84,-217.68 280.27,-213.13 279.52,-220.09"/>
</g>
<!-- Node8&#45;&gt;Node3 -->
<g id="edge8" class="edge">
<title>Node8&#45;&gt;Node3</title>
<path fill="none" stroke="midnightblue" d="M232.2,-161.54C241.66,-160.52 251.7,-159.44 261.79,-158.35"/>
<polygon fill="midnightblue" stroke="midnightblue" points="262.32,-161.81 271.89,-157.26 261.57,-154.85 262.32,-161.81"/>
</g>
<!-- Node8&#45;&gt;Node4 -->
<g id="edge9" class="edge">
<title>Node8&#45;&gt;Node4</title>
<path fill="none" stroke="midnightblue" d="M232.2,-173.46C246.37,-174.99 261.87,-176.66 276.89,-178.28"/>
<polygon fill="midnightblue" stroke="midnightblue" points="276.88,-181.8 287.2,-179.4 277.63,-174.84 276.88,-181.8"/>
</g>
<!-- Node8&#45;&gt;Node5 -->
<g id="edge10" class="edge">
<title>Node8&#45;&gt;Node5</title>
<path fill="none" stroke="midnightblue" d="M210.14,-177.05C218.67,-179.82 227.77,-183.03 236,-186.5 252.67,-193.52 255.06,-199.16 272,-205.5 278.79,-208.04 286.03,-210.31 293.28,-212.33"/>
<polygon fill="midnightblue" stroke="midnightblue" points="292.58,-215.76 303.14,-214.92 294.36,-208.99 292.58,-215.76"/>
</g>
<!-- Node9&#45;&gt;Node3 -->
<g id="edge12" class="edge">
<title>Node9&#45;&gt;Node3</title>
<path fill="none" stroke="midnightblue" d="M223.24,-134.49C235.09,-135.77 248.26,-137.19 261.53,-138.62"/>
<polygon fill="midnightblue" stroke="midnightblue" points="261.36,-142.13 271.67,-139.72 262.11,-135.17 261.36,-142.13"/>
</g>
<!-- Node10 -->
<g id="node10" class="node">
<title>Node10</title>
<g id="a_node10"><a xlink:href="../../db/dca/group___m_g_r___l_p_m.html#ga3e50a711eb2eb868233364c9c0f1a577" target="_top" xlink:title=" ">
<polygon fill="white" stroke="black" points="287,-101 287,-120 421,-120 421,-101 287,-101"/>
<text text-anchor="middle" x="354" y="-108" font-family="Helvetica,sans-Serif" font-size="10.00">LPM_configWakeUpUart</text>
</a>
</g>
</g>
<!-- Node9&#45;&gt;Node10 -->
<g id="edge13" class="edge">
<title>Node9&#45;&gt;Node10</title>
<path fill="none" stroke="midnightblue" d="M223.24,-124.51C239.66,-122.74 258.59,-120.69 276.84,-118.72"/>
<polygon fill="midnightblue" stroke="midnightblue" points="277.31,-122.19 286.88,-117.64 276.56,-115.23 277.31,-122.19"/>
</g>
<!-- Node12 -->
<g id="node12" class="node">
<title>Node12</title>
<g id="a_node12"><a xlink:href="../../db/dca/group___m_g_r___l_p_m.html#gab502b89f35dcc87b365658836f69736e" target="_top" xlink:title="System Clock Configuration when exit from stop mode.">
<polygon fill="white" stroke="black" points="282.5,-0.5 282.5,-30.5 425.5,-30.5 425.5,-0.5 282.5,-0.5"/>
<text text-anchor="start" x="290.5" y="-18.5" font-family="Helvetica,sans-Serif" font-size="10.00">LPM_SystemClock_Config</text>
<text text-anchor="middle" x="354" y="-7.5" font-family="Helvetica,sans-Serif" font-size="10.00">_RestoreFromStop</text>
</a>
</g>
</g>
<!-- Node11&#45;&gt;Node12 -->
<g id="edge15" class="edge">
<title>Node11&#45;&gt;Node12</title>
<path fill="none" stroke="midnightblue" d="M219.6,-15.5C235.48,-15.5 254.08,-15.5 272.26,-15.5"/>
<polygon fill="midnightblue" stroke="midnightblue" points="272.3,-19 282.3,-15.5 272.3,-12 272.3,-19"/>
</g>
<!-- Node13 -->
<g id="node13" class="node">
<title>Node13</title>
<g id="a_node13"><a xlink:href="../../d0/d29/main_8c.html#a1730ffe1e560465665eb47d9264826f9" target="_top" xlink:title="This function is executed in case of error occurrence.">
<polygon fill="white" stroke="black" points="472,-6 472,-25 555,-25 555,-6 472,-6"/>
<text text-anchor="middle" x="513.5" y="-13" font-family="Helvetica,sans-Serif" font-size="10.00">Error_Handler</text>
</a>
</g>
</g>
<!-- Node12&#45;&gt;Node13 -->
<g id="edge16" class="edge">
<title>Node12&#45;&gt;Node13</title>
<path fill="none" stroke="midnightblue" d="M425.92,-15.5C437.92,-15.5 450.17,-15.5 461.53,-15.5"/>
<polygon fill="midnightblue" stroke="midnightblue" points="461.68,-19 471.68,-15.5 461.68,-12 461.68,-19"/>
</g>
<!-- Node14 -->
<g id="node14" class="node">
<title>Node14</title>
<g id="a_node14"><a xlink:href="../../d8/d62/group___m_c_u___a_p_p___w_r_a_p_p_e_r_s.html#gae14ee3e1d2a9b459c0d89c451a4bc470" target="_top" xlink:title="Send AT CMD response to console.">
<polygon fill="white" stroke="black" points="591,-6 591,-25 729,-25 729,-6 591,-6"/>
<text text-anchor="middle" x="660" y="-13" font-family="Helvetica,sans-Serif" font-size="10.00">MCU_AT_CONSOLE_send</text>
</a>
</g>
</g>
<!-- Node13&#45;&gt;Node14 -->
<g id="edge17" class="edge">
<title>Node13&#45;&gt;Node14</title>
<path fill="none" stroke="midnightblue" d="M555.14,-15.5C563.2,-15.5 571.92,-15.5 580.77,-15.5"/>
<polygon fill="midnightblue" stroke="midnightblue" points="580.77,-19 590.77,-15.5 580.77,-12 580.77,-19"/>
</g>
</g>
</svg>
