<?xml version="1.0" encoding="UTF-8" standalone="no"?>
<!DOCTYPE svg PUBLIC "-//W3C//DTD SVG 1.1//EN"
 "http://www.w3.org/Graphics/SVG/1.1/DTD/svg11.dtd">
<!-- Generated by graphviz version 2.43.0 (0)
 -->
<!-- Title: LPM_configWakeUpRtc Pages: 1 -->
<svg width="292pt" height="66pt"
 viewBox="0.00 0.00 292.00 66.00" xmlns="http://www.w3.org/2000/svg" xmlns:xlink="http://www.w3.org/1999/xlink">
<g id="graph0" class="graph" transform="scale(1 1) rotate(0) translate(4 62)">
<title>LPM_configWakeUpRtc</title>
<polygon fill="white" stroke="transparent" points="-4,4 -4,-62 288,-62 288,4 -4,4"/>
<!-- Node1 -->
<g id="node1" class="node">
<title>Node1</title>
<g id="a_node1"><a xlink:title="Function used to configure the internal wakeup line to exit low power mode.">
<polygon fill="#bfbfbf" stroke="black" points="156,-19.5 156,-38.5 284,-38.5 284,-19.5 156,-19.5"/>
<text text-anchor="middle" x="220" y="-26.5" font-family="Helvetica,sans-Serif" font-size="10.00">LPM_configWakeUpRtc</text>
</a>
</g>
</g>
<!-- Node2 -->
<g id="node2" class="node">
<title>Node2</title>
<g id="a_node2"><a xlink:href="../../db/dca/group___m_g_r___l_p_m.html#ga8828ea85b626943b9d30c4dfabb0666a" target="_top" xlink:title="System callback invoked by MGR_LPM at STANDBY mode entering.">
<polygon fill="white" stroke="black" points="0,-38.5 0,-57.5 120,-57.5 120,-38.5 0,-38.5"/>
<text text-anchor="middle" x="60" y="-45.5" font-family="Helvetica,sans-Serif" font-size="10.00">LPM_shutdown_enter</text>
</a>
</g>
</g>
<!-- Node1&#45;&gt;Node2 -->
<g id="edge1" class="edge">
<title>Node1&#45;&gt;Node2</title>
<path fill="none" stroke="midnightblue" d="M145.63,-37.82C137.05,-38.86 128.37,-39.9 120.01,-40.9"/>
<polygon fill="midnightblue" stroke="midnightblue" points="146.14,-41.29 155.65,-36.62 145.3,-34.34 146.14,-41.29"/>
</g>
<!-- Node3 -->
<g id="node3" class="node">
<title>Node3</title>
<g id="a_node3"><a xlink:href="../../db/dca/group___m_g_r___l_p_m.html#gaa6d6e5889194fc0b5a37640ed3d53ef3" target="_top" xlink:title="System callback invoked by MGR_LPM at STANDBY mode entering.">
<polygon fill="white" stroke="black" points="4,-0.5 4,-19.5 116,-19.5 116,-0.5 4,-0.5"/>
<text text-anchor="middle" x="60" y="-7.5" font-family="Helvetica,sans-Serif" font-size="10.00">LPM_standby_enter</text>
</a>
</g>
</g>
<!-- Node1&#45;&gt;Node3 -->
<g id="edge2" class="edge">
<title>Node1&#45;&gt;Node3</title>
<path fill="none" stroke="midnightblue" d="M145.46,-20.16C135.62,-18.97 125.67,-17.78 116.22,-16.64"/>
<polygon fill="midnightblue" stroke="midnightblue" points="145.3,-23.66 155.65,-21.38 146.14,-16.71 145.3,-23.66"/>
</g>
</g>
</svg>
