<?xml version="1.0" encoding="UTF-8" standalone="no"?>
<!DOCTYPE svg PUBLIC "-//W3C//DTD SVG 1.1//EN"
 "http://www.w3.org/Graphics/SVG/1.1/DTD/svg11.dtd">
<!-- Generated by graphviz version 2.43.0 (0)
 -->
<!-- Title: LPM_standby_enter Pages: 1 -->
<svg width="320pt" height="104pt"
 viewBox="0.00 0.00 320.00 104.00" xmlns="http://www.w3.org/2000/svg" xmlns:xlink="http://www.w3.org/1999/xlink">
<g id="graph0" class="graph" transform="scale(1 1) rotate(0) translate(4 100)">
<title>LPM_standby_enter</title>
<polygon fill="white" stroke="transparent" points="-4,4 -4,-100 316,-100 316,4 -4,4"/>
<!-- Node1 -->
<g id="node1" class="node">
<title>Node1</title>
<g id="a_node1"><a xlink:title="System callback invoked by MGR_LPM at STANDBY mode entering.">
<polygon fill="#bfbfbf" stroke="black" points="0,-38.5 0,-57.5 112,-57.5 112,-38.5 0,-38.5"/>
<text text-anchor="middle" x="56" y="-45.5" font-family="Helvetica,sans-Serif" font-size="10.00">LPM_standby_enter</text>
</a>
</g>
</g>
<!-- Node2 -->
<g id="node2" class="node">
<title>Node2</title>
<g id="a_node2"><a xlink:href="../../db/dca/group___m_g_r___l_p_m.html#ga2a7197f71c2bd57494778d45b8e3dab2" target="_top" xlink:title="Disable all GPIO as not used for the moment.">
<polygon fill="white" stroke="black" points="148,-76.5 148,-95.5 312,-95.5 312,-76.5 148,-76.5"/>
<text text-anchor="middle" x="230" y="-83.5" font-family="Helvetica,sans-Serif" font-size="10.00">GPIO_DisableAllToAnalogInput</text>
</a>
</g>
</g>
<!-- Node1&#45;&gt;Node2 -->
<g id="edge1" class="edge">
<title>Node1&#45;&gt;Node2</title>
<path fill="none" stroke="midnightblue" d="M100.4,-57.59C123.41,-62.67 151.85,-68.96 176.13,-74.32"/>
<polygon fill="midnightblue" stroke="midnightblue" points="175.39,-77.74 185.91,-76.48 176.9,-70.91 175.39,-77.74"/>
</g>
<!-- Node3 -->
<g id="node3" class="node">
<title>Node3</title>
<g id="a_node3"><a xlink:href="../../db/dca/group___m_g_r___l_p_m.html#ga2f442d07b917d5aaa9c7b1ca07b0c24b" target="_top" xlink:title="Function used to configure the external wakeup pins to exit low power mode (standby and shutdown only...">
<polygon fill="white" stroke="black" points="163.5,-38.5 163.5,-57.5 296.5,-57.5 296.5,-38.5 163.5,-38.5"/>
<text text-anchor="middle" x="230" y="-45.5" font-family="Helvetica,sans-Serif" font-size="10.00">LPM_configWakeUpPins</text>
</a>
</g>
</g>
<!-- Node1&#45;&gt;Node3 -->
<g id="edge2" class="edge">
<title>Node1&#45;&gt;Node3</title>
<path fill="none" stroke="midnightblue" d="M112.37,-48C125.28,-48 139.25,-48 152.89,-48"/>
<polygon fill="midnightblue" stroke="midnightblue" points="153.23,-51.5 163.23,-48 153.23,-44.5 153.23,-51.5"/>
</g>
<!-- Node4 -->
<g id="node4" class="node">
<title>Node4</title>
<g id="a_node4"><a xlink:href="../../db/dca/group___m_g_r___l_p_m.html#ga3d23fbf0f20054b5bddbbf112200367a" target="_top" xlink:title="Function used to configure the internal wakeup line to exit low power mode.">
<polygon fill="white" stroke="black" points="166,-0.5 166,-19.5 294,-19.5 294,-0.5 166,-0.5"/>
<text text-anchor="middle" x="230" y="-7.5" font-family="Helvetica,sans-Serif" font-size="10.00">LPM_configWakeUpRtc</text>
</a>
</g>
</g>
<!-- Node1&#45;&gt;Node4 -->
<g id="edge3" class="edge">
<title>Node1&#45;&gt;Node4</title>
<path fill="none" stroke="midnightblue" d="M100.4,-38.41C123.41,-33.33 151.85,-27.04 176.13,-21.68"/>
<polygon fill="midnightblue" stroke="midnightblue" points="176.9,-25.09 185.91,-19.52 175.39,-18.26 176.9,-25.09"/>
</g>
</g>
</svg>
