<?xml version="1.0" encoding="UTF-8" standalone="no"?>
<!DOCTYPE svg PUBLIC "-//W3C//DTD SVG 1.1//EN"
 "http://www.w3.org/Graphics/SVG/1.1/DTD/svg11.dtd">
<!-- Generated by graphviz version 2.43.0 (0)
 -->
<!-- Title: LPM_init Pages: 1 -->
<svg width="239pt" height="66pt"
 viewBox="0.00 0.00 239.00 66.00" xmlns="http://www.w3.org/2000/svg" xmlns:xlink="http://www.w3.org/1999/xlink">
<g id="graph0" class="graph" transform="scale(1 1) rotate(0) translate(4 62)">
<title>LPM_init</title>
<polygon fill="white" stroke="transparent" points="-4,4 -4,-62 235,-62 235,4 -4,4"/>
<!-- Node1 -->
<g id="node1" class="node">
<title>Node1</title>
<g id="a_node1"><a xlink:title="Initializes the LPM management and register clients such as the Kineis stack client.">
<polygon fill="#bfbfbf" stroke="black" points="0,-19.5 0,-38.5 58,-38.5 58,-19.5 0,-19.5"/>
<text text-anchor="middle" x="29" y="-26.5" font-family="Helvetica,sans-Serif" font-size="10.00">LPM_init</text>
</a>
</g>
</g>
<!-- Node2 -->
<g id="node2" class="node">
<title>Node2</title>
<g id="a_node2"><a xlink:href="../../db/dca/group___m_g_r___l_p_m.html#gab9603672d9a4e59ebeaf71f704373173" target="_top" xlink:title="This initialize the callback client tab with NULL pointer.">
<polygon fill="white" stroke="black" points="119.5,-38.5 119.5,-57.5 205.5,-57.5 205.5,-38.5 119.5,-38.5"/>
<text text-anchor="middle" x="162.5" y="-45.5" font-family="Helvetica,sans-Serif" font-size="10.00">MGR_LPM_init</text>
</a>
</g>
</g>
<!-- Node1&#45;&gt;Node2 -->
<g id="edge1" class="edge">
<title>Node1&#45;&gt;Node2</title>
<path fill="none" stroke="midnightblue" d="M58.21,-33.08C73.1,-35.23 91.85,-37.94 109.27,-40.45"/>
<polygon fill="midnightblue" stroke="midnightblue" points="108.94,-43.94 119.34,-41.91 109.94,-37.01 108.94,-43.94"/>
</g>
<!-- Node3 -->
<g id="node3" class="node">
<title>Node3</title>
<g id="a_node3"><a xlink:href="../../db/dca/group___m_g_r___l_p_m.html#gab855de5c70e67980c2e838a6ba03a7a8" target="_top" xlink:title="This function adds a client in the client table.">
<polygon fill="white" stroke="black" points="94,-0.5 94,-19.5 231,-19.5 231,-0.5 94,-0.5"/>
<text text-anchor="middle" x="162.5" y="-7.5" font-family="Helvetica,sans-Serif" font-size="10.00">MGR_LPM_registerClient</text>
</a>
</g>
</g>
<!-- Node1&#45;&gt;Node3 -->
<g id="edge2" class="edge">
<title>Node1&#45;&gt;Node3</title>
<path fill="none" stroke="midnightblue" d="M58.21,-24.92C66.39,-23.74 75.73,-22.39 85.38,-21"/>
<polygon fill="midnightblue" stroke="midnightblue" points="86.11,-24.43 95.51,-19.54 85.11,-17.5 86.11,-24.43"/>
</g>
</g>
</svg>
