<?xml version="1.0" encoding="UTF-8" standalone="no"?>
<!DOCTYPE svg PUBLIC "-//W3C//DTD SVG 1.1//EN"
 "http://www.w3.org/Graphics/SVG/1.1/DTD/svg11.dtd">
<!-- Generated by graphviz version 2.43.0 (0)
 -->
<!-- Title: GPIO_DisableAllToAnalogInput Pages: 1 -->
<svg width="328pt" height="142pt"
 viewBox="0.00 0.00 328.00 142.00" xmlns="http://www.w3.org/2000/svg" xmlns:xlink="http://www.w3.org/1999/xlink">
<g id="graph0" class="graph" transform="scale(1 1) rotate(0) translate(4 138)">
<title>GPIO_DisableAllToAnalogInput</title>
<polygon fill="white" stroke="transparent" points="-4,4 -4,-138 324,-138 324,4 -4,4"/>
<!-- Node1 -->
<g id="node1" class="node">
<title>Node1</title>
<g id="a_node1"><a xlink:title="Disable all GPIO as not used for the moment.">
<polygon fill="#bfbfbf" stroke="black" points="156,-57.5 156,-76.5 320,-76.5 320,-57.5 156,-57.5"/>
<text text-anchor="middle" x="238" y="-64.5" font-family="Helvetica,sans-Serif" font-size="10.00">GPIO_DisableAllToAnalogInput</text>
</a>
</g>
</g>
<!-- Node2 -->
<g id="node2" class="node">
<title>Node2</title>
<g id="a_node2"><a xlink:href="../../db/dca/group___m_g_r___l_p_m.html#ga8828ea85b626943b9d30c4dfabb0666a" target="_top" xlink:title="System callback invoked by MGR_LPM at STANDBY mode entering.">
<polygon fill="white" stroke="black" points="0,-114.5 0,-133.5 120,-133.5 120,-114.5 0,-114.5"/>
<text text-anchor="middle" x="60" y="-121.5" font-family="Helvetica,sans-Serif" font-size="10.00">LPM_shutdown_enter</text>
</a>
</g>
</g>
<!-- Node1&#45;&gt;Node2 -->
<g id="edge1" class="edge">
<title>Node1&#45;&gt;Node2</title>
<path fill="none" stroke="midnightblue" d="M198.03,-79.68C175.28,-87.08 146.02,-96.58 120,-105 110.48,-108.08 100.09,-111.43 90.72,-114.45"/>
<polygon fill="midnightblue" stroke="midnightblue" points="199.25,-82.97 207.68,-76.55 197.08,-76.31 199.25,-82.97"/>
</g>
<!-- Node3 -->
<g id="node3" class="node">
<title>Node3</title>
<g id="a_node3"><a xlink:href="../../db/dca/group___m_g_r___l_p_m.html#gaa6d6e5889194fc0b5a37640ed3d53ef3" target="_top" xlink:title="System callback invoked by MGR_LPM at STANDBY mode entering.">
<polygon fill="white" stroke="black" points="4,-76.5 4,-95.5 116,-95.5 116,-76.5 4,-76.5"/>
<text text-anchor="middle" x="60" y="-83.5" font-family="Helvetica,sans-Serif" font-size="10.00">LPM_standby_enter</text>
</a>
</g>
</g>
<!-- Node1&#45;&gt;Node3 -->
<g id="edge2" class="edge">
<title>Node1&#45;&gt;Node3</title>
<path fill="none" stroke="midnightblue" d="M145.85,-76.84C135.75,-77.93 125.7,-79.02 116.24,-80.04"/>
<polygon fill="midnightblue" stroke="midnightblue" points="146.39,-80.3 155.95,-75.75 145.64,-73.34 146.39,-80.3"/>
</g>
<!-- Node4 -->
<g id="node4" class="node">
<title>Node4</title>
<g id="a_node4"><a xlink:href="../../db/dca/group___m_g_r___l_p_m.html#gab196a8032ee24a710126fc16eec09ed8" target="_top" xlink:title="System callback invoked by MGR_LPM at STOP mode entering.">
<polygon fill="white" stroke="black" points="13,-38.5 13,-57.5 107,-57.5 107,-38.5 13,-38.5"/>
<text text-anchor="middle" x="60" y="-45.5" font-family="Helvetica,sans-Serif" font-size="10.00">LPM_stop_enter</text>
</a>
</g>
</g>
<!-- Node1&#45;&gt;Node4 -->
<g id="edge3" class="edge">
<title>Node1&#45;&gt;Node4</title>
<path fill="none" stroke="midnightblue" d="M145.71,-57.14C132.31,-55.7 119.01,-54.26 107.06,-52.97"/>
<polygon fill="midnightblue" stroke="midnightblue" points="145.64,-60.66 155.95,-58.25 146.39,-53.7 145.64,-60.66"/>
</g>
<!-- Node5 -->
<g id="node5" class="node">
<title>Node5</title>
<g id="a_node5"><a xlink:href="../../d0/d29/main_8c.html#a840291bc02cba5474a4cb46a9b9566fe" target="_top" xlink:title="The application entry point.">
<polygon fill="white" stroke="black" points="39.5,-0.5 39.5,-19.5 80.5,-19.5 80.5,-0.5 39.5,-0.5"/>
<text text-anchor="middle" x="60" y="-7.5" font-family="Helvetica,sans-Serif" font-size="10.00">main</text>
</a>
</g>
</g>
<!-- Node1&#45;&gt;Node5 -->
<g id="edge4" class="edge">
<title>Node1&#45;&gt;Node5</title>
<path fill="none" stroke="midnightblue" d="M198.03,-54.32C175.28,-46.92 146.02,-37.42 120,-29 106.89,-24.76 92.14,-20.01 80.67,-16.32"/>
<polygon fill="midnightblue" stroke="midnightblue" points="197.08,-57.69 207.68,-57.45 199.25,-51.03 197.08,-57.69"/>
</g>
</g>
</svg>
