<?xml version="1.0" encoding="UTF-8" standalone="no"?>
<!DOCTYPE svg PUBLIC "-//W3C//DTD SVG 1.1//EN"
 "http://www.w3.org/Graphics/SVG/1.1/DTD/svg11.dtd">
<!-- Generated by graphviz version 2.43.0 (0)
 -->
<!-- Title: MGR_LPM_enter Pages: 1 -->
<svg width="458pt" height="256pt"
 viewBox="0.00 0.00 458.00 256.00" xmlns="http://www.w3.org/2000/svg" xmlns:xlink="http://www.w3.org/1999/xlink">
<g id="graph0" class="graph" transform="scale(1 1) rotate(0) translate(4 252)">
<title>MGR_LPM_enter</title>
<polygon fill="white" stroke="transparent" points="-4,4 -4,-252 454,-252 454,4 -4,4"/>
<!-- Node1 -->
<g id="node1" class="node">
<title>Node1</title>
<g id="a_node1"><a xlink:title="This is the main Entry point to the low power mode manager.">
<polygon fill="#bfbfbf" stroke="black" points="0,-114.5 0,-133.5 96,-133.5 96,-114.5 0,-114.5"/>
<text text-anchor="middle" x="48" y="-121.5" font-family="Helvetica,sans-Serif" font-size="10.00">MGR_LPM_enter</text>
</a>
</g>
</g>
<!-- Node2 -->
<g id="node2" class="node">
<title>Node2</title>
<g id="a_node2"><a xlink:href="../../db/dca/group___m_g_r___l_p_m.html#ga64b281d5b49b69bcc99344d5dd614493" target="_top" xlink:title="internal API used to request client deepest LPM.">
<polygon fill="white" stroke="black" points="140,-228.5 140,-247.5 283,-247.5 283,-228.5 140,-228.5"/>
<text text-anchor="middle" x="211.5" y="-235.5" font-family="Helvetica,sans-Serif" font-size="10.00">eMGR_LPM_clientRequest</text>
</a>
</g>
</g>
<!-- Node1&#45;&gt;Node2 -->
<g id="edge1" class="edge">
<title>Node1&#45;&gt;Node2</title>
<path fill="none" stroke="midnightblue" d="M54.49,-133.54C66.14,-152.88 95.29,-196.74 132,-219 135.57,-221.17 139.38,-223.09 143.32,-224.79"/>
<polygon fill="midnightblue" stroke="midnightblue" points="142.1,-228.07 152.69,-228.37 144.6,-221.53 142.1,-228.07"/>
</g>
<!-- Node3 -->
<g id="node3" class="node">
<title>Node3</title>
<g id="a_node3"><a xlink:href="../../db/dca/group___m_g_r___l_p_m.html#ga52e2359a25b281d9fc80097bc2eae3c2" target="_top" xlink:title="internal API used to notify clients when entering into LPM">
<polygon fill="white" stroke="black" points="132,-190.5 132,-209.5 291,-209.5 291,-190.5 132,-190.5"/>
<text text-anchor="middle" x="211.5" y="-197.5" font-family="Helvetica,sans-Serif" font-size="10.00">vMGR_LPM_clientNotifyEnter</text>
</a>
</g>
</g>
<!-- Node1&#45;&gt;Node3 -->
<g id="edge2" class="edge">
<title>Node1&#45;&gt;Node3</title>
<path fill="none" stroke="midnightblue" d="M60.02,-133.55C75.21,-146.22 103.9,-168.47 132,-181 137.63,-183.51 143.64,-185.72 149.74,-187.66"/>
<polygon fill="midnightblue" stroke="midnightblue" points="148.76,-191.02 159.35,-190.48 150.74,-184.3 148.76,-191.02"/>
</g>
<!-- Node4 -->
<g id="node4" class="node">
<title>Node4</title>
<g id="a_node4"><a xlink:href="../../db/dca/group___m_g_r___l_p_m.html#gac44963210fbbc4095bab272f5b382b3a" target="_top" xlink:title="internal API used to notify clients when exiting LPM">
<polygon fill="white" stroke="black" points="135.5,-152.5 135.5,-171.5 287.5,-171.5 287.5,-152.5 135.5,-152.5"/>
<text text-anchor="middle" x="211.5" y="-159.5" font-family="Helvetica,sans-Serif" font-size="10.00">vMGR_LPM_clientNotifyExit</text>
</a>
</g>
</g>
<!-- Node1&#45;&gt;Node4 -->
<g id="edge3" class="edge">
<title>Node1&#45;&gt;Node4</title>
<path fill="none" stroke="midnightblue" d="M89.75,-133.59C111.16,-138.63 137.59,-144.84 160.25,-150.18"/>
<polygon fill="midnightblue" stroke="midnightblue" points="159.5,-153.6 170.04,-152.48 161.11,-146.78 159.5,-153.6"/>
</g>
<!-- Node5 -->
<g id="node5" class="node">
<title>Node5</title>
<g id="a_node5"><a xlink:href="../../db/dca/group___m_g_r___l_p_m.html#gabbe558bca2d35870d29e614dd72c63c5" target="_top" xlink:title="This is the function to enter in shutdown mode.">
<polygon fill="white" stroke="black" points="136.5,-114.5 136.5,-133.5 286.5,-133.5 286.5,-114.5 136.5,-114.5"/>
<text text-anchor="middle" x="211.5" y="-121.5" font-family="Helvetica,sans-Serif" font-size="10.00">vMGR_LPM_enterShutdown</text>
</a>
</g>
</g>
<!-- Node1&#45;&gt;Node5 -->
<g id="edge4" class="edge">
<title>Node1&#45;&gt;Node5</title>
<path fill="none" stroke="midnightblue" d="M96.15,-124C105.57,-124 115.74,-124 125.99,-124"/>
<polygon fill="midnightblue" stroke="midnightblue" points="126.25,-127.5 136.25,-124 126.25,-120.5 126.25,-127.5"/>
</g>
<!-- Node6 -->
<g id="node6" class="node">
<title>Node6</title>
<g id="a_node6"><a xlink:href="../../db/dca/group___m_g_r___l_p_m.html#gae9eed692d36867fa1fa8d825e57d3926" target="_top" xlink:title="This is the function to enter in sleep mode.">
<polygon fill="white" stroke="black" points="147,-76.5 147,-95.5 276,-95.5 276,-76.5 147,-76.5"/>
<text text-anchor="middle" x="211.5" y="-83.5" font-family="Helvetica,sans-Serif" font-size="10.00">vMGR_LPM_enterSleep</text>
</a>
</g>
</g>
<!-- Node1&#45;&gt;Node6 -->
<g id="edge5" class="edge">
<title>Node1&#45;&gt;Node6</title>
<path fill="none" stroke="midnightblue" d="M89.75,-114.41C111.16,-109.37 137.59,-103.16 160.25,-97.82"/>
<polygon fill="midnightblue" stroke="midnightblue" points="161.11,-101.22 170.04,-95.52 159.5,-94.4 161.11,-101.22"/>
</g>
<!-- Node7 -->
<g id="node7" class="node">
<title>Node7</title>
<g id="a_node7"><a xlink:href="../../db/dca/group___m_g_r___l_p_m.html#gacba2a0ba5b0d79aee8e65edc76451e48" target="_top" xlink:title="This is the function to enter in standby mode.">
<polygon fill="white" stroke="black" points="140,-38.5 140,-57.5 283,-57.5 283,-38.5 140,-38.5"/>
<text text-anchor="middle" x="211.5" y="-45.5" font-family="Helvetica,sans-Serif" font-size="10.00">vMGR_LPM_enterStandBy</text>
</a>
</g>
</g>
<!-- Node1&#45;&gt;Node7 -->
<g id="edge6" class="edge">
<title>Node1&#45;&gt;Node7</title>
<path fill="none" stroke="midnightblue" d="M60.02,-114.45C75.21,-101.78 103.9,-79.53 132,-67 137.63,-64.49 143.64,-62.28 149.74,-60.34"/>
<polygon fill="midnightblue" stroke="midnightblue" points="150.74,-63.7 159.35,-57.52 148.76,-56.98 150.74,-63.7"/>
</g>
<!-- Node8 -->
<g id="node8" class="node">
<title>Node8</title>
<g id="a_node8"><a xlink:href="../../db/dca/group___m_g_r___l_p_m.html#ga394c596cc344e87c088527daba299c8d" target="_top" xlink:title="This is the function to enter in stop mode.">
<polygon fill="white" stroke="black" points="149.5,-0.5 149.5,-19.5 273.5,-19.5 273.5,-0.5 149.5,-0.5"/>
<text text-anchor="middle" x="211.5" y="-7.5" font-family="Helvetica,sans-Serif" font-size="10.00">vMGR_LPM_enterStop</text>
</a>
</g>
</g>
<!-- Node1&#45;&gt;Node8 -->
<g id="edge7" class="edge">
<title>Node1&#45;&gt;Node8</title>
<path fill="none" stroke="midnightblue" d="M54.49,-114.46C66.14,-95.12 95.29,-51.26 132,-29 135.57,-26.83 139.38,-24.91 143.32,-23.21"/>
<polygon fill="midnightblue" stroke="midnightblue" points="144.6,-26.47 152.69,-19.63 142.1,-19.93 144.6,-26.47"/>
</g>
<!-- Node9 -->
<g id="node9" class="node">
<title>Node9</title>
<g id="a_node9"><a xlink:href="../../d1/ddb/group___k_n_s___q.html#gae3b6f82f0cfe829173632dde48cd0d28" target="_top" xlink:title="This function is used to check some queue contains some elements.">
<polygon fill="white" stroke="black" points="327,-0.5 327,-19.5 450,-19.5 450,-0.5 327,-0.5"/>
<text text-anchor="middle" x="388.5" y="-7.5" font-family="Helvetica,sans-Serif" font-size="10.00">KNS_Q_isEvtInSomeQ</text>
</a>
</g>
</g>
<!-- Node8&#45;&gt;Node9 -->
<g id="edge8" class="edge">
<title>Node8&#45;&gt;Node9</title>
<path fill="none" stroke="midnightblue" d="M273.71,-10C287.59,-10 302.44,-10 316.68,-10"/>
<polygon fill="midnightblue" stroke="midnightblue" points="316.92,-13.5 326.92,-10 316.92,-6.5 316.92,-13.5"/>
</g>
</g>
</svg>
