<?xml version="1.0" encoding="UTF-8" standalone="no"?>
<!DOCTYPE svg PUBLIC "-//W3C//DTD SVG 1.1//EN"
 "http://www.w3.org/Graphics/SVG/1.1/DTD/svg11.dtd">
<!-- Generated by graphviz version 2.43.0 (0)
 -->
<!-- Title: LPM_shutdown_enter Pages: 1 -->
<svg width="328pt" height="104pt"
 viewBox="0.00 0.00 328.00 104.00" xmlns="http://www.w3.org/2000/svg" xmlns:xlink="http://www.w3.org/1999/xlink">
<g id="graph0" class="graph" transform="scale(1 1) rotate(0) translate(4 100)">
<title>LPM_shutdown_enter</title>
<polygon fill="white" stroke="transparent" points="-4,4 -4,-100 324,-100 324,4 -4,4"/>
<!-- Node1 -->
<g id="node1" class="node">
<title>Node1</title>
<g id="a_node1"><a xlink:title="System callback invoked by MGR_LPM at STANDBY mode entering.">
<polygon fill="#bfbfbf" stroke="black" points="0,-38.5 0,-57.5 120,-57.5 120,-38.5 0,-38.5"/>
<text text-anchor="middle" x="60" y="-45.5" font-family="Helvetica,sans-Serif" font-size="10.00">LPM_shutdown_enter</text>
</a>
</g>
</g>
<!-- Node2 -->
<g id="node2" class="node">
<title>Node2</title>
<g id="a_node2"><a xlink:href="../../db/dca/group___m_g_r___l_p_m.html#ga2a7197f71c2bd57494778d45b8e3dab2" target="_top" xlink:title="Disable all GPIO as not used for the moment.">
<polygon fill="white" stroke="black" points="156,-76.5 156,-95.5 320,-95.5 320,-76.5 156,-76.5"/>
<text text-anchor="middle" x="238" y="-83.5" font-family="Helvetica,sans-Serif" font-size="10.00">GPIO_DisableAllToAnalogInput</text>
</a>
</g>
</g>
<!-- Node1&#45;&gt;Node2 -->
<g id="edge1" class="edge">
<title>Node1&#45;&gt;Node2</title>
<path fill="none" stroke="midnightblue" d="M105.41,-57.59C128.95,-62.67 158.06,-68.96 182.9,-74.32"/>
<polygon fill="midnightblue" stroke="midnightblue" points="182.39,-77.79 192.91,-76.48 183.87,-70.95 182.39,-77.79"/>
</g>
<!-- Node3 -->
<g id="node3" class="node">
<title>Node3</title>
<g id="a_node3"><a xlink:href="../../db/dca/group___m_g_r___l_p_m.html#ga2f442d07b917d5aaa9c7b1ca07b0c24b" target="_top" xlink:title="Function used to configure the external wakeup pins to exit low power mode (standby and shutdown only...">
<polygon fill="white" stroke="black" points="171.5,-38.5 171.5,-57.5 304.5,-57.5 304.5,-38.5 171.5,-38.5"/>
<text text-anchor="middle" x="238" y="-45.5" font-family="Helvetica,sans-Serif" font-size="10.00">LPM_configWakeUpPins</text>
</a>
</g>
</g>
<!-- Node1&#45;&gt;Node3 -->
<g id="edge2" class="edge">
<title>Node1&#45;&gt;Node3</title>
<path fill="none" stroke="midnightblue" d="M120.1,-48C133.23,-48 147.32,-48 161.02,-48"/>
<polygon fill="midnightblue" stroke="midnightblue" points="161.4,-51.5 171.4,-48 161.4,-44.5 161.4,-51.5"/>
</g>
<!-- Node4 -->
<g id="node4" class="node">
<title>Node4</title>
<g id="a_node4"><a xlink:href="../../db/dca/group___m_g_r___l_p_m.html#ga3d23fbf0f20054b5bddbbf112200367a" target="_top" xlink:title="Function used to configure the internal wakeup line to exit low power mode.">
<polygon fill="white" stroke="black" points="174,-0.5 174,-19.5 302,-19.5 302,-0.5 174,-0.5"/>
<text text-anchor="middle" x="238" y="-7.5" font-family="Helvetica,sans-Serif" font-size="10.00">LPM_configWakeUpRtc</text>
</a>
</g>
</g>
<!-- Node1&#45;&gt;Node4 -->
<g id="edge3" class="edge">
<title>Node1&#45;&gt;Node4</title>
<path fill="none" stroke="midnightblue" d="M105.41,-38.41C128.95,-33.33 158.06,-27.04 182.9,-21.68"/>
<polygon fill="midnightblue" stroke="midnightblue" points="183.87,-25.05 192.91,-19.52 182.39,-18.21 183.87,-25.05"/>
</g>
</g>
</svg>
