<?xml version="1.0" encoding="UTF-8" standalone="no"?>
<!DOCTYPE svg PUBLIC "-//W3C//DTD SVG 1.1//EN"
 "http://www.w3.org/Graphics/SVG/1.1/DTD/svg11.dtd">
<!-- Generated by graphviz version 2.43.0 (0)
 -->
<!-- Title: LPM_SystemClock_Config_RestoreFromStop Pages: 1 -->
<svg width="444pt" height="39pt"
 viewBox="0.00 0.00 444.00 39.00" xmlns="http://www.w3.org/2000/svg" xmlns:xlink="http://www.w3.org/1999/xlink">
<g id="graph0" class="graph" transform="scale(1 1) rotate(0) translate(4 35)">
<title>LPM_SystemClock_Config_RestoreFromStop</title>
<polygon fill="white" stroke="transparent" points="-4,4 -4,-35 440,-35 440,4 -4,4"/>
<!-- Node1 -->
<g id="node1" class="node">
<title>Node1</title>
<g id="a_node1"><a xlink:title="System Clock Configuration when exit from stop mode.">
<polygon fill="#bfbfbf" stroke="black" points="0,-0.5 0,-30.5 143,-30.5 143,-0.5 0,-0.5"/>
<text text-anchor="start" x="8" y="-18.5" font-family="Helvetica,sans-Serif" font-size="10.00">LPM_SystemClock_Config</text>
<text text-anchor="middle" x="71.5" y="-7.5" font-family="Helvetica,sans-Serif" font-size="10.00">_RestoreFromStop</text>
</a>
</g>
</g>
<!-- Node2 -->
<g id="node2" class="node">
<title>Node2</title>
<g id="a_node2"><a xlink:href="../../d0/d29/main_8c.html#a1730ffe1e560465665eb47d9264826f9" target="_top" xlink:title="This function is executed in case of error occurrence.">
<polygon fill="white" stroke="black" points="179,-6 179,-25 262,-25 262,-6 179,-6"/>
<text text-anchor="middle" x="220.5" y="-13" font-family="Helvetica,sans-Serif" font-size="10.00">Error_Handler</text>
</a>
</g>
</g>
<!-- Node1&#45;&gt;Node2 -->
<g id="edge1" class="edge">
<title>Node1&#45;&gt;Node2</title>
<path fill="none" stroke="midnightblue" d="M143.42,-15.5C151.99,-15.5 160.6,-15.5 168.8,-15.5"/>
<polygon fill="midnightblue" stroke="midnightblue" points="168.92,-19 178.92,-15.5 168.92,-12 168.92,-19"/>
</g>
<!-- Node3 -->
<g id="node3" class="node">
<title>Node3</title>
<g id="a_node3"><a xlink:href="../../d8/d62/group___m_c_u___a_p_p___w_r_a_p_p_e_r_s.html#gae14ee3e1d2a9b459c0d89c451a4bc470" target="_top" xlink:title="Send AT CMD response to console.">
<polygon fill="white" stroke="black" points="298,-6 298,-25 436,-25 436,-6 298,-6"/>
<text text-anchor="middle" x="367" y="-13" font-family="Helvetica,sans-Serif" font-size="10.00">MCU_AT_CONSOLE_send</text>
</a>
</g>
</g>
<!-- Node2&#45;&gt;Node3 -->
<g id="edge2" class="edge">
<title>Node2&#45;&gt;Node3</title>
<path fill="none" stroke="midnightblue" d="M262.14,-15.5C270.2,-15.5 278.92,-15.5 287.77,-15.5"/>
<polygon fill="midnightblue" stroke="midnightblue" points="287.77,-19 297.77,-15.5 287.77,-12 287.77,-19"/>
</g>
</g>
</svg>
