<?xml version="1.0" encoding="UTF-8" standalone="no"?>
<!DOCTYPE svg PUBLIC "-//W3C//DTD SVG 1.1//EN"
 "http://www.w3.org/Graphics/SVG/1.1/DTD/svg11.dtd">
<!-- Generated by graphviz version 2.43.0 (0)
 -->
<!-- Title: LPM_enter Pages: 1 -->
<svg width="562pt" height="256pt"
 viewBox="0.00 0.00 562.00 256.00" xmlns="http://www.w3.org/2000/svg" xmlns:xlink="http://www.w3.org/1999/xlink">
<g id="graph0" class="graph" transform="scale(1 1) rotate(0) translate(4 252)">
<title>LPM_enter</title>
<polygon fill="white" stroke="transparent" points="-4,4 -4,-252 558,-252 558,4 -4,4"/>
<!-- Node1 -->
<g id="node1" class="node">
<title>Node1</title>
<g id="a_node1"><a xlink:title="Try to enter low power mode depending on clients capabilities.">
<polygon fill="#bfbfbf" stroke="black" points="0,-114.5 0,-133.5 68,-133.5 68,-114.5 0,-114.5"/>
<text text-anchor="middle" x="34" y="-121.5" font-family="Helvetica,sans-Serif" font-size="10.00">LPM_enter</text>
</a>
</g>
</g>
<!-- Node2 -->
<g id="node2" class="node">
<title>Node2</title>
<g id="a_node2"><a xlink:href="../../db/dca/group___m_g_r___l_p_m.html#ga7bf128e76e6a14840b3c8d74946c37f1" target="_top" xlink:title="This is the main Entry point to the low power mode manager.">
<polygon fill="white" stroke="black" points="104,-114.5 104,-133.5 200,-133.5 200,-114.5 104,-114.5"/>
<text text-anchor="middle" x="152" y="-121.5" font-family="Helvetica,sans-Serif" font-size="10.00">MGR_LPM_enter</text>
</a>
</g>
</g>
<!-- Node1&#45;&gt;Node2 -->
<g id="edge1" class="edge">
<title>Node1&#45;&gt;Node2</title>
<path fill="none" stroke="midnightblue" d="M68.24,-124C76.23,-124 84.99,-124 93.73,-124"/>
<polygon fill="midnightblue" stroke="midnightblue" points="93.92,-127.5 103.92,-124 93.92,-120.5 93.92,-127.5"/>
</g>
<!-- Node3 -->
<g id="node3" class="node">
<title>Node3</title>
<g id="a_node3"><a xlink:href="../../db/dca/group___m_g_r___l_p_m.html#ga64b281d5b49b69bcc99344d5dd614493" target="_top" xlink:title="internal API used to request client deepest LPM.">
<polygon fill="white" stroke="black" points="244,-228.5 244,-247.5 387,-247.5 387,-228.5 244,-228.5"/>
<text text-anchor="middle" x="315.5" y="-235.5" font-family="Helvetica,sans-Serif" font-size="10.00">eMGR_LPM_clientRequest</text>
</a>
</g>
</g>
<!-- Node2&#45;&gt;Node3 -->
<g id="edge2" class="edge">
<title>Node2&#45;&gt;Node3</title>
<path fill="none" stroke="midnightblue" d="M158.49,-133.54C170.14,-152.88 199.29,-196.74 236,-219 239.57,-221.17 243.38,-223.09 247.32,-224.79"/>
<polygon fill="midnightblue" stroke="midnightblue" points="246.1,-228.07 256.69,-228.37 248.6,-221.53 246.1,-228.07"/>
</g>
<!-- Node4 -->
<g id="node4" class="node">
<title>Node4</title>
<g id="a_node4"><a xlink:href="../../db/dca/group___m_g_r___l_p_m.html#ga52e2359a25b281d9fc80097bc2eae3c2" target="_top" xlink:title="internal API used to notify clients when entering into LPM">
<polygon fill="white" stroke="black" points="236,-190.5 236,-209.5 395,-209.5 395,-190.5 236,-190.5"/>
<text text-anchor="middle" x="315.5" y="-197.5" font-family="Helvetica,sans-Serif" font-size="10.00">vMGR_LPM_clientNotifyEnter</text>
</a>
</g>
</g>
<!-- Node2&#45;&gt;Node4 -->
<g id="edge3" class="edge">
<title>Node2&#45;&gt;Node4</title>
<path fill="none" stroke="midnightblue" d="M164.02,-133.55C179.21,-146.22 207.9,-168.47 236,-181 241.63,-183.51 247.64,-185.72 253.74,-187.66"/>
<polygon fill="midnightblue" stroke="midnightblue" points="252.76,-191.02 263.35,-190.48 254.74,-184.3 252.76,-191.02"/>
</g>
<!-- Node5 -->
<g id="node5" class="node">
<title>Node5</title>
<g id="a_node5"><a xlink:href="../../db/dca/group___m_g_r___l_p_m.html#gac44963210fbbc4095bab272f5b382b3a" target="_top" xlink:title="internal API used to notify clients when exiting LPM">
<polygon fill="white" stroke="black" points="239.5,-152.5 239.5,-171.5 391.5,-171.5 391.5,-152.5 239.5,-152.5"/>
<text text-anchor="middle" x="315.5" y="-159.5" font-family="Helvetica,sans-Serif" font-size="10.00">vMGR_LPM_clientNotifyExit</text>
</a>
</g>
</g>
<!-- Node2&#45;&gt;Node5 -->
<g id="edge4" class="edge">
<title>Node2&#45;&gt;Node5</title>
<path fill="none" stroke="midnightblue" d="M193.75,-133.59C215.16,-138.63 241.59,-144.84 264.25,-150.18"/>
<polygon fill="midnightblue" stroke="midnightblue" points="263.5,-153.6 274.04,-152.48 265.11,-146.78 263.5,-153.6"/>
</g>
<!-- Node6 -->
<g id="node6" class="node">
<title>Node6</title>
<g id="a_node6"><a xlink:href="../../db/dca/group___m_g_r___l_p_m.html#gabbe558bca2d35870d29e614dd72c63c5" target="_top" xlink:title="This is the function to enter in shutdown mode.">
<polygon fill="white" stroke="black" points="240.5,-114.5 240.5,-133.5 390.5,-133.5 390.5,-114.5 240.5,-114.5"/>
<text text-anchor="middle" x="315.5" y="-121.5" font-family="Helvetica,sans-Serif" font-size="10.00">vMGR_LPM_enterShutdown</text>
</a>
</g>
</g>
<!-- Node2&#45;&gt;Node6 -->
<g id="edge5" class="edge">
<title>Node2&#45;&gt;Node6</title>
<path fill="none" stroke="midnightblue" d="M200.15,-124C209.57,-124 219.74,-124 229.99,-124"/>
<polygon fill="midnightblue" stroke="midnightblue" points="230.25,-127.5 240.25,-124 230.25,-120.5 230.25,-127.5"/>
</g>
<!-- Node7 -->
<g id="node7" class="node">
<title>Node7</title>
<g id="a_node7"><a xlink:href="../../db/dca/group___m_g_r___l_p_m.html#gae9eed692d36867fa1fa8d825e57d3926" target="_top" xlink:title="This is the function to enter in sleep mode.">
<polygon fill="white" stroke="black" points="251,-76.5 251,-95.5 380,-95.5 380,-76.5 251,-76.5"/>
<text text-anchor="middle" x="315.5" y="-83.5" font-family="Helvetica,sans-Serif" font-size="10.00">vMGR_LPM_enterSleep</text>
</a>
</g>
</g>
<!-- Node2&#45;&gt;Node7 -->
<g id="edge6" class="edge">
<title>Node2&#45;&gt;Node7</title>
<path fill="none" stroke="midnightblue" d="M193.75,-114.41C215.16,-109.37 241.59,-103.16 264.25,-97.82"/>
<polygon fill="midnightblue" stroke="midnightblue" points="265.11,-101.22 274.04,-95.52 263.5,-94.4 265.11,-101.22"/>
</g>
<!-- Node8 -->
<g id="node8" class="node">
<title>Node8</title>
<g id="a_node8"><a xlink:href="../../db/dca/group___m_g_r___l_p_m.html#gacba2a0ba5b0d79aee8e65edc76451e48" target="_top" xlink:title="This is the function to enter in standby mode.">
<polygon fill="white" stroke="black" points="244,-38.5 244,-57.5 387,-57.5 387,-38.5 244,-38.5"/>
<text text-anchor="middle" x="315.5" y="-45.5" font-family="Helvetica,sans-Serif" font-size="10.00">vMGR_LPM_enterStandBy</text>
</a>
</g>
</g>
<!-- Node2&#45;&gt;Node8 -->
<g id="edge7" class="edge">
<title>Node2&#45;&gt;Node8</title>
<path fill="none" stroke="midnightblue" d="M164.02,-114.45C179.21,-101.78 207.9,-79.53 236,-67 241.63,-64.49 247.64,-62.28 253.74,-60.34"/>
<polygon fill="midnightblue" stroke="midnightblue" points="254.74,-63.7 263.35,-57.52 252.76,-56.98 254.74,-63.7"/>
</g>
<!-- Node9 -->
<g id="node9" class="node">
<title>Node9</title>
<g id="a_node9"><a xlink:href="../../db/dca/group___m_g_r___l_p_m.html#ga394c596cc344e87c088527daba299c8d" target="_top" xlink:title="This is the function to enter in stop mode.">
<polygon fill="white" stroke="black" points="253.5,-0.5 253.5,-19.5 377.5,-19.5 377.5,-0.5 253.5,-0.5"/>
<text text-anchor="middle" x="315.5" y="-7.5" font-family="Helvetica,sans-Serif" font-size="10.00">vMGR_LPM_enterStop</text>
</a>
</g>
</g>
<!-- Node2&#45;&gt;Node9 -->
<g id="edge8" class="edge">
<title>Node2&#45;&gt;Node9</title>
<path fill="none" stroke="midnightblue" d="M158.49,-114.46C170.14,-95.12 199.29,-51.26 236,-29 239.57,-26.83 243.38,-24.91 247.32,-23.21"/>
<polygon fill="midnightblue" stroke="midnightblue" points="248.6,-26.47 256.69,-19.63 246.1,-19.93 248.6,-26.47"/>
</g>
<!-- Node10 -->
<g id="node10" class="node">
<title>Node10</title>
<g id="a_node10"><a xlink:href="../../d1/ddb/group___k_n_s___q.html#gae3b6f82f0cfe829173632dde48cd0d28" target="_top" xlink:title="This function is used to check some queue contains some elements.">
<polygon fill="white" stroke="black" points="431,-0.5 431,-19.5 554,-19.5 554,-0.5 431,-0.5"/>
<text text-anchor="middle" x="492.5" y="-7.5" font-family="Helvetica,sans-Serif" font-size="10.00">KNS_Q_isEvtInSomeQ</text>
</a>
</g>
</g>
<!-- Node9&#45;&gt;Node10 -->
<g id="edge9" class="edge">
<title>Node9&#45;&gt;Node10</title>
<path fill="none" stroke="midnightblue" d="M377.71,-10C391.59,-10 406.44,-10 420.68,-10"/>
<polygon fill="midnightblue" stroke="midnightblue" points="420.92,-13.5 430.92,-10 420.92,-6.5 420.92,-13.5"/>
</g>
</g>
</svg>
