<?xml version="1.0" encoding="UTF-8" standalone="no"?>
<!DOCTYPE svg PUBLIC "-//W3C//DTD SVG 1.1//EN"
 "http://www.w3.org/Graphics/SVG/1.1/DTD/svg11.dtd">
<!-- Generated by graphviz version 2.43.0 (0)
 -->
<!-- Title: GPIO_DisableAllToAnalogInput Pages: 1 -->
<svg width="444pt" height="142pt"
 viewBox="0.00 0.00 444.00 142.00" xmlns="http://www.w3.org/2000/svg" xmlns:xlink="http://www.w3.org/1999/xlink">
<g id="graph0" class="graph" transform="scale(1 1) rotate(0) translate(4 138)">
<title>GPIO_DisableAllToAnalogInput</title>
<polygon fill="white" stroke="transparent" points="-4,4 -4,-138 440,-138 440,4 -4,4"/>
<!-- Node1 -->
<g id="node1" class="node">
<title>Node1</title>
<g id="a_node1"><a xlink:title="Disable all GPIO as not used for the moment.">
<polygon fill="#bfbfbf" stroke="black" points="272,-57.5 272,-76.5 436,-76.5 436,-57.5 272,-57.5"/>
<text text-anchor="middle" x="354" y="-64.5" font-family="Helvetica,sans-Serif" font-size="10.00">GPIO_DisableAllToAnalogInput</text>
</a>
</g>
</g>
<!-- Node2 -->
<g id="node2" class="node">
<title>Node2</title>
<g id="a_node2"><a xlink:href="../../db/dca/group___m_g_r___l_p_m.html#ga8828ea85b626943b9d30c4dfabb0666a" target="_top" xlink:title="System callback invoked by MGR_LPM at STANDBY mode entering.">
<polygon fill="white" stroke="black" points="116,-114.5 116,-133.5 236,-133.5 236,-114.5 116,-114.5"/>
<text text-anchor="middle" x="176" y="-121.5" font-family="Helvetica,sans-Serif" font-size="10.00">LPM_shutdown_enter</text>
</a>
</g>
</g>
<!-- Node1&#45;&gt;Node2 -->
<g id="edge1" class="edge">
<title>Node1&#45;&gt;Node2</title>
<path fill="none" stroke="midnightblue" d="M314.03,-79.68C291.28,-87.08 262.02,-96.58 236,-105 226.48,-108.08 216.09,-111.43 206.72,-114.45"/>
<polygon fill="midnightblue" stroke="midnightblue" points="315.25,-82.97 323.68,-76.55 313.08,-76.31 315.25,-82.97"/>
</g>
<!-- Node4 -->
<g id="node4" class="node">
<title>Node4</title>
<g id="a_node4"><a xlink:href="../../db/dca/group___m_g_r___l_p_m.html#gaa6d6e5889194fc0b5a37640ed3d53ef3" target="_top" xlink:title="System callback invoked by MGR_LPM at STANDBY mode entering.">
<polygon fill="white" stroke="black" points="120,-76.5 120,-95.5 232,-95.5 232,-76.5 120,-76.5"/>
<text text-anchor="middle" x="176" y="-83.5" font-family="Helvetica,sans-Serif" font-size="10.00">LPM_standby_enter</text>
</a>
</g>
</g>
<!-- Node1&#45;&gt;Node4 -->
<g id="edge3" class="edge">
<title>Node1&#45;&gt;Node4</title>
<path fill="none" stroke="midnightblue" d="M261.85,-76.84C251.75,-77.93 241.7,-79.02 232.24,-80.04"/>
<polygon fill="midnightblue" stroke="midnightblue" points="262.39,-80.3 271.95,-75.75 261.64,-73.34 262.39,-80.3"/>
</g>
<!-- Node5 -->
<g id="node5" class="node">
<title>Node5</title>
<g id="a_node5"><a xlink:href="../../db/dca/group___m_g_r___l_p_m.html#gab196a8032ee24a710126fc16eec09ed8" target="_top" xlink:title="System callback invoked by MGR_LPM at STOP mode entering.">
<polygon fill="white" stroke="black" points="129,-38.5 129,-57.5 223,-57.5 223,-38.5 129,-38.5"/>
<text text-anchor="middle" x="176" y="-45.5" font-family="Helvetica,sans-Serif" font-size="10.00">LPM_stop_enter</text>
</a>
</g>
</g>
<!-- Node1&#45;&gt;Node5 -->
<g id="edge5" class="edge">
<title>Node1&#45;&gt;Node5</title>
<path fill="none" stroke="midnightblue" d="M261.71,-57.14C248.31,-55.7 235.01,-54.26 223.06,-52.97"/>
<polygon fill="midnightblue" stroke="midnightblue" points="261.64,-60.66 271.95,-58.25 262.39,-53.7 261.64,-60.66"/>
</g>
<!-- Node6 -->
<g id="node6" class="node">
<title>Node6</title>
<g id="a_node6"><a xlink:href="../../d0/d29/main_8c.html#a840291bc02cba5474a4cb46a9b9566fe" target="_top" xlink:title="The application entry point.">
<polygon fill="white" stroke="black" points="155.5,-0.5 155.5,-19.5 196.5,-19.5 196.5,-0.5 155.5,-0.5"/>
<text text-anchor="middle" x="176" y="-7.5" font-family="Helvetica,sans-Serif" font-size="10.00">main</text>
</a>
</g>
</g>
<!-- Node1&#45;&gt;Node6 -->
<g id="edge7" class="edge">
<title>Node1&#45;&gt;Node6</title>
<path fill="none" stroke="midnightblue" d="M314.03,-54.32C291.28,-46.92 262.02,-37.42 236,-29 222.89,-24.76 208.14,-20.01 196.67,-16.32"/>
<polygon fill="midnightblue" stroke="midnightblue" points="313.08,-57.69 323.68,-57.45 315.25,-51.03 313.08,-57.69"/>
</g>
<!-- Node3 -->
<g id="node3" class="node">
<title>Node3</title>
<g id="a_node3"><a xlink:href="../../db/dca/group___m_g_r___l_p_m.html#ga5e3c04e1820c16433ff591dde81e7449" target="_top" xlink:title=" ">
<polygon fill="white" stroke="black" points="0,-76.5 0,-95.5 80,-95.5 80,-76.5 0,-76.5"/>
<text text-anchor="middle" x="40" y="-83.5" font-family="Helvetica,sans-Serif" font-size="10.00">__attribute__</text>
</a>
</g>
</g>
<!-- Node2&#45;&gt;Node3 -->
<g id="edge2" class="edge">
<title>Node2&#45;&gt;Node3</title>
<path fill="none" stroke="midnightblue" d="M131.56,-111.68C113.15,-106.46 92.02,-100.47 74.8,-95.59"/>
<polygon fill="midnightblue" stroke="midnightblue" points="130.61,-115.05 141.19,-114.41 132.52,-108.32 130.61,-115.05"/>
</g>
<!-- Node4&#45;&gt;Node3 -->
<g id="edge4" class="edge">
<title>Node4&#45;&gt;Node3</title>
<path fill="none" stroke="midnightblue" d="M109.69,-86C99.61,-86 89.47,-86 80.2,-86"/>
<polygon fill="midnightblue" stroke="midnightblue" points="109.72,-89.5 119.72,-86 109.72,-82.5 109.72,-89.5"/>
</g>
<!-- Node5&#45;&gt;Node3 -->
<g id="edge6" class="edge">
<title>Node5&#45;&gt;Node3</title>
<path fill="none" stroke="midnightblue" d="M131.56,-60.32C113.15,-65.54 92.02,-71.53 74.8,-76.41"/>
<polygon fill="midnightblue" stroke="midnightblue" points="132.52,-63.68 141.19,-57.59 130.61,-56.95 132.52,-63.68"/>
</g>
</g>
</svg>
