<?xml version="1.0" encoding="UTF-8" standalone="no"?>
<!DOCTYPE svg PUBLIC "-//W3C//DTD SVG 1.1//EN"
 "http://www.w3.org/Graphics/SVG/1.1/DTD/svg11.dtd">
<!-- Generated by graphviz version 2.43.0 (0)
 -->
<!-- Title: vMGR_LPM_clientNotifyExit Pages: 1 -->
<svg width="396pt" height="28pt"
 viewBox="0.00 0.00 396.00 28.00" xmlns="http://www.w3.org/2000/svg" xmlns:xlink="http://www.w3.org/1999/xlink">
<g id="graph0" class="graph" transform="scale(1 1) rotate(0) translate(4 24)">
<title>vMGR_LPM_clientNotifyExit</title>
<polygon fill="white" stroke="transparent" points="-4,4 -4,-24 392,-24 392,4 -4,4"/>
<!-- Node1 -->
<g id="node1" class="node">
<title>Node1</title>
<g id="a_node1"><a xlink:title="internal API used to notify clients when exiting LPM">
<polygon fill="#bfbfbf" stroke="black" points="236,-0.5 236,-19.5 388,-19.5 388,-0.5 236,-0.5"/>
<text text-anchor="middle" x="312" y="-7.5" font-family="Helvetica,sans-Serif" font-size="10.00">vMGR_LPM_clientNotifyExit</text>
</a>
</g>
</g>
<!-- Node2 -->
<g id="node2" class="node">
<title>Node2</title>
<g id="a_node2"><a xlink:href="../../db/dca/group___m_g_r___l_p_m.html#ga7bf128e76e6a14840b3c8d74946c37f1" target="_top" xlink:title="This is the main Entry point to the low power mode manager.">
<polygon fill="white" stroke="black" points="104,-0.5 104,-19.5 200,-19.5 200,-0.5 104,-0.5"/>
<text text-anchor="middle" x="152" y="-7.5" font-family="Helvetica,sans-Serif" font-size="10.00">MGR_LPM_enter</text>
</a>
</g>
</g>
<!-- Node1&#45;&gt;Node2 -->
<g id="edge1" class="edge">
<title>Node1&#45;&gt;Node2</title>
<path fill="none" stroke="midnightblue" d="M225.51,-10C216.84,-10 208.28,-10 200.24,-10"/>
<polygon fill="midnightblue" stroke="midnightblue" points="225.7,-13.5 235.7,-10 225.7,-6.5 225.7,-13.5"/>
</g>
<!-- Node3 -->
<g id="node3" class="node">
<title>Node3</title>
<g id="a_node3"><a xlink:href="../../db/dca/group___m_g_r___l_p_m.html#ga349cbb2c24fd0bd7f2c24bd063734660" target="_top" xlink:title="Try to enter low power mode depending on clients capabilities.">
<polygon fill="white" stroke="black" points="0,-0.5 0,-19.5 68,-19.5 68,-0.5 0,-0.5"/>
<text text-anchor="middle" x="34" y="-7.5" font-family="Helvetica,sans-Serif" font-size="10.00">LPM_enter</text>
</a>
</g>
</g>
<!-- Node2&#45;&gt;Node3 -->
<g id="edge2" class="edge">
<title>Node2&#45;&gt;Node3</title>
<path fill="none" stroke="midnightblue" d="M93.66,-10C84.96,-10 76.24,-10 68.28,-10"/>
<polygon fill="midnightblue" stroke="midnightblue" points="93.82,-13.5 103.82,-10 93.82,-6.5 93.82,-13.5"/>
</g>
</g>
</svg>
