<?xml version="1.0" encoding="UTF-8" standalone="no"?>
<!DOCTYPE svg PUBLIC "-//W3C//DTD SVG 1.1//EN"
 "http://www.w3.org/Graphics/SVG/1.1/DTD/svg11.dtd">
<!-- Generated by graphviz version 2.43.0 (0)
 -->
<!-- Title: LPM_SystemClock_Config_RestoreFromStop Pages: 1 -->
<svg width="390pt" height="39pt"
 viewBox="0.00 0.00 390.00 39.00" xmlns="http://www.w3.org/2000/svg" xmlns:xlink="http://www.w3.org/1999/xlink">
<g id="graph0" class="graph" transform="scale(1 1) rotate(0) translate(4 35)">
<title>LPM_SystemClock_Config_RestoreFromStop</title>
<polygon fill="white" stroke="transparent" points="-4,4 -4,-35 386,-35 386,4 -4,4"/>
<!-- Node1 -->
<g id="node1" class="node">
<title>Node1</title>
<g id="a_node1"><a xlink:title="System Clock Configuration when exit from stop mode.">
<polygon fill="#bfbfbf" stroke="black" points="239,-0.5 239,-30.5 382,-30.5 382,-0.5 239,-0.5"/>
<text text-anchor="start" x="247" y="-18.5" font-family="Helvetica,sans-Serif" font-size="10.00">LPM_SystemClock_Config</text>
<text text-anchor="middle" x="310.5" y="-7.5" font-family="Helvetica,sans-Serif" font-size="10.00">_RestoreFromStop</text>
</a>
</g>
</g>
<!-- Node2 -->
<g id="node2" class="node">
<title>Node2</title>
<g id="a_node2"><a xlink:href="../../db/dca/group___m_g_r___l_p_m.html#ga2dfaa58a8d7f90840153f1f06542fd13" target="_top" xlink:title="System callback invoked by MGR_LPM at STOP mode exit.">
<polygon fill="white" stroke="black" points="116,-6 116,-25 203,-25 203,-6 116,-6"/>
<text text-anchor="middle" x="159.5" y="-13" font-family="Helvetica,sans-Serif" font-size="10.00">LPM_stop_exit</text>
</a>
</g>
</g>
<!-- Node1&#45;&gt;Node2 -->
<g id="edge1" class="edge">
<title>Node1&#45;&gt;Node2</title>
<path fill="none" stroke="midnightblue" d="M228.93,-15.5C220.09,-15.5 211.36,-15.5 203.26,-15.5"/>
<polygon fill="midnightblue" stroke="midnightblue" points="228.93,-19 238.93,-15.5 228.93,-12 228.93,-19"/>
</g>
<!-- Node3 -->
<g id="node3" class="node">
<title>Node3</title>
<g id="a_node3"><a xlink:href="../../db/dca/group___m_g_r___l_p_m.html#ga5e3c04e1820c16433ff591dde81e7449" target="_top" xlink:title=" ">
<polygon fill="white" stroke="black" points="0,-6 0,-25 80,-25 80,-6 0,-6"/>
<text text-anchor="middle" x="40" y="-13" font-family="Helvetica,sans-Serif" font-size="10.00">__attribute__</text>
</a>
</g>
</g>
<!-- Node2&#45;&gt;Node3 -->
<g id="edge2" class="edge">
<title>Node2&#45;&gt;Node3</title>
<path fill="none" stroke="midnightblue" d="M105.72,-15.5C97.07,-15.5 88.25,-15.5 80.01,-15.5"/>
<polygon fill="midnightblue" stroke="midnightblue" points="105.75,-19 115.75,-15.5 105.75,-12 105.75,-19"/>
</g>
</g>
</svg>
