<?xml version="1.0" encoding="UTF-8" standalone="no"?>
<!DOCTYPE svg PUBLIC "-//W3C//DTD SVG 1.1//EN"
 "http://www.w3.org/Graphics/SVG/1.1/DTD/svg11.dtd">
<!-- Generated by graphviz version 2.43.0 (0)
 -->
<!-- Title: LPM_configWakeUpRtc Pages: 1 -->
<svg width="408pt" height="66pt"
 viewBox="0.00 0.00 408.00 66.00" xmlns="http://www.w3.org/2000/svg" xmlns:xlink="http://www.w3.org/1999/xlink">
<g id="graph0" class="graph" transform="scale(1 1) rotate(0) translate(4 62)">
<title>LPM_configWakeUpRtc</title>
<polygon fill="white" stroke="transparent" points="-4,4 -4,-62 404,-62 404,4 -4,4"/>
<!-- Node1 -->
<g id="node1" class="node">
<title>Node1</title>
<g id="a_node1"><a xlink:title="Function used to configure the internal wakeup line to exit low power mode.">
<polygon fill="#bfbfbf" stroke="black" points="272,-19.5 272,-38.5 400,-38.5 400,-19.5 272,-19.5"/>
<text text-anchor="middle" x="336" y="-26.5" font-family="Helvetica,sans-Serif" font-size="10.00">LPM_configWakeUpRtc</text>
</a>
</g>
</g>
<!-- Node2 -->
<g id="node2" class="node">
<title>Node2</title>
<g id="a_node2"><a xlink:href="../../db/dca/group___m_g_r___l_p_m.html#ga8828ea85b626943b9d30c4dfabb0666a" target="_top" xlink:title="System callback invoked by MGR_LPM at STANDBY mode entering.">
<polygon fill="white" stroke="black" points="116,-38.5 116,-57.5 236,-57.5 236,-38.5 116,-38.5"/>
<text text-anchor="middle" x="176" y="-45.5" font-family="Helvetica,sans-Serif" font-size="10.00">LPM_shutdown_enter</text>
</a>
</g>
</g>
<!-- Node1&#45;&gt;Node2 -->
<g id="edge1" class="edge">
<title>Node1&#45;&gt;Node2</title>
<path fill="none" stroke="midnightblue" d="M261.63,-37.82C253.05,-38.86 244.37,-39.9 236.01,-40.9"/>
<polygon fill="midnightblue" stroke="midnightblue" points="262.14,-41.29 271.65,-36.62 261.3,-34.34 262.14,-41.29"/>
</g>
<!-- Node4 -->
<g id="node4" class="node">
<title>Node4</title>
<g id="a_node4"><a xlink:href="../../db/dca/group___m_g_r___l_p_m.html#gaa6d6e5889194fc0b5a37640ed3d53ef3" target="_top" xlink:title="System callback invoked by MGR_LPM at STANDBY mode entering.">
<polygon fill="white" stroke="black" points="120,-0.5 120,-19.5 232,-19.5 232,-0.5 120,-0.5"/>
<text text-anchor="middle" x="176" y="-7.5" font-family="Helvetica,sans-Serif" font-size="10.00">LPM_standby_enter</text>
</a>
</g>
</g>
<!-- Node1&#45;&gt;Node4 -->
<g id="edge3" class="edge">
<title>Node1&#45;&gt;Node4</title>
<path fill="none" stroke="midnightblue" d="M261.46,-20.16C251.62,-18.97 241.67,-17.78 232.22,-16.64"/>
<polygon fill="midnightblue" stroke="midnightblue" points="261.3,-23.66 271.65,-21.38 262.14,-16.71 261.3,-23.66"/>
</g>
<!-- Node3 -->
<g id="node3" class="node">
<title>Node3</title>
<g id="a_node3"><a xlink:href="../../db/dca/group___m_g_r___l_p_m.html#ga5e3c04e1820c16433ff591dde81e7449" target="_top" xlink:title=" ">
<polygon fill="white" stroke="black" points="0,-19.5 0,-38.5 80,-38.5 80,-19.5 0,-19.5"/>
<text text-anchor="middle" x="40" y="-26.5" font-family="Helvetica,sans-Serif" font-size="10.00">__attribute__</text>
</a>
</g>
</g>
<!-- Node2&#45;&gt;Node3 -->
<g id="edge2" class="edge">
<title>Node2&#45;&gt;Node3</title>
<path fill="none" stroke="midnightblue" d="M105.9,-38.2C97.09,-36.95 88.32,-35.71 80.22,-34.56"/>
<polygon fill="midnightblue" stroke="midnightblue" points="105.44,-41.67 115.84,-39.61 106.43,-34.74 105.44,-41.67"/>
</g>
<!-- Node4&#45;&gt;Node3 -->
<g id="edge4" class="edge">
<title>Node4&#45;&gt;Node3</title>
<path fill="none" stroke="midnightblue" d="M109.69,-19.26C99.61,-20.69 89.47,-22.13 80.2,-23.44"/>
<polygon fill="midnightblue" stroke="midnightblue" points="110.31,-22.71 119.72,-17.84 109.33,-15.78 110.31,-22.71"/>
</g>
</g>
</svg>
