<?xml version="1.0" encoding="UTF-8" standalone="no"?>
<!DOCTYPE svg PUBLIC "-//W3C//DTD SVG 1.1//EN"
 "http://www.w3.org/Graphics/SVG/1.1/DTD/svg11.dtd">
<!-- Generated by graphviz version 2.43.0 (0)
 -->
<!-- Title: Kineis/App/Kineis_os/KNS_Q/Inc/kns_q.h Pages: 1 -->
<svg width="346pt" height="263pt"
 viewBox="0.00 0.00 346.00 263.00" xmlns="http://www.w3.org/2000/svg" xmlns:xlink="http://www.w3.org/1999/xlink">
<g id="graph0" class="graph" transform="scale(1 1) rotate(0) translate(4 259)">
<title>Kineis/App/Kineis_os/KNS_Q/Inc/kns_q.h</title>
<polygon fill="white" stroke="transparent" points="-4,4 -4,-259 342,-259 342,4 -4,4"/>
<!-- Node1 -->
<g id="node1" class="node">
<title>Node1</title>
<g id="a_node1"><a xlink:title="Configuration of queues used in kineis_swr.">
<polygon fill="#bfbfbf" stroke="black" points="220,-224.5 220,-254.5 338,-254.5 338,-224.5 220,-224.5"/>
<text text-anchor="start" x="228" y="-242.5" font-family="Helvetica,sans-Serif" font-size="10.00">Kineis/App/Kineis_os</text>
<text text-anchor="middle" x="279" y="-231.5" font-family="Helvetica,sans-Serif" font-size="10.00">/KNS_Q/Inc/kns_q.h</text>
</a>
</g>
</g>
<!-- Node2 -->
<g id="node2" class="node">
<title>Node2</title>
<g id="a_node2"><a xlink:title=" ">
<polygon fill="white" stroke="#bfbfbf" points="0,-56.5 0,-75.5 62,-75.5 62,-56.5 0,-56.5"/>
<text text-anchor="middle" x="31" y="-63.5" font-family="Helvetica,sans-Serif" font-size="10.00">stdbool.h</text>
</a>
</g>
</g>
<!-- Node1&#45;&gt;Node2 -->
<g id="edge1" class="edge">
<title>Node1&#45;&gt;Node2</title>
<path fill="none" stroke="midnightblue" d="M219.93,-232.36C159.16,-222.54 67.42,-197.19 24,-132 14.87,-118.3 18.34,-99.26 23.05,-85.33"/>
<polygon fill="midnightblue" stroke="midnightblue" points="26.38,-86.43 26.71,-75.84 19.85,-83.91 26.38,-86.43"/>
</g>
<!-- Node3 -->
<g id="node3" class="node">
<title>Node3</title>
<g id="a_node3"><a xlink:title=" ">
<polygon fill="white" stroke="#bfbfbf" points="204.5,-0.5 204.5,-19.5 257.5,-19.5 257.5,-0.5 204.5,-0.5"/>
<text text-anchor="middle" x="231" y="-7.5" font-family="Helvetica,sans-Serif" font-size="10.00">stdint.h</text>
</a>
</g>
</g>
<!-- Node1&#45;&gt;Node3 -->
<g id="edge2" class="edge">
<title>Node1&#45;&gt;Node3</title>
<path fill="none" stroke="midnightblue" d="M287,-224.44C292.13,-214.59 298.31,-200.92 301,-188 308.73,-150.92 329.85,-118.94 295,-56 287.43,-42.33 273.73,-31.85 260.95,-24.47"/>
<polygon fill="midnightblue" stroke="midnightblue" points="262.37,-21.26 251.9,-19.63 259.07,-27.43 262.37,-21.26"/>
</g>
<!-- Node4 -->
<g id="node4" class="node">
<title>Node4</title>
<g id="a_node4"><a xlink:href="../../d8/d85/kns__types_8h.html" target="_top" xlink:title="Kineis types definition.">
<polygon fill="white" stroke="black" points="193.5,-56.5 193.5,-75.5 268.5,-75.5 268.5,-56.5 193.5,-56.5"/>
<text text-anchor="middle" x="231" y="-63.5" font-family="Helvetica,sans-Serif" font-size="10.00">kns_types.h</text>
</a>
</g>
</g>
<!-- Node1&#45;&gt;Node4 -->
<g id="edge3" class="edge">
<title>Node1&#45;&gt;Node4</title>
<path fill="none" stroke="midnightblue" d="M282.29,-224.49C287.23,-200.36 294.36,-149.91 278,-112 272.81,-99.97 262.67,-89.6 253.13,-81.86"/>
<polygon fill="midnightblue" stroke="midnightblue" points="255.14,-78.99 245.05,-75.75 250.92,-84.57 255.14,-78.99"/>
</g>
<!-- Node5 -->
<g id="node5" class="node">
<title>Node5</title>
<g id="a_node5"><a xlink:href="../../d8/dd1/kns__q__conf_8h.html" target="_top" xlink:title="Configuration of queues used in kineis_sw.">
<polygon fill="white" stroke="black" points="184,-168.5 184,-187.5 264,-187.5 264,-168.5 184,-168.5"/>
<text text-anchor="middle" x="224" y="-175.5" font-family="Helvetica,sans-Serif" font-size="10.00">kns_q_conf.h</text>
</a>
</g>
</g>
<!-- Node1&#45;&gt;Node5 -->
<g id="edge5" class="edge">
<title>Node1&#45;&gt;Node5</title>
<path fill="none" stroke="midnightblue" d="M265.97,-224.4C257.81,-215.58 247.28,-204.18 238.81,-195.02"/>
<polygon fill="midnightblue" stroke="midnightblue" points="241.36,-192.63 232,-187.66 236.22,-197.38 241.36,-192.63"/>
</g>
<!-- Node4&#45;&gt;Node3 -->
<g id="edge4" class="edge">
<title>Node4&#45;&gt;Node3</title>
<path fill="none" stroke="midnightblue" d="M231,-56.08C231,-49.01 231,-38.86 231,-29.99"/>
<polygon fill="midnightblue" stroke="midnightblue" points="234.5,-29.75 231,-19.75 227.5,-29.75 234.5,-29.75"/>
</g>
<!-- Node5&#45;&gt;Node2 -->
<g id="edge6" class="edge">
<title>Node5&#45;&gt;Node2</title>
<path fill="none" stroke="midnightblue" d="M183.9,-172.89C134.53,-166.95 54.9,-154.15 36,-132 25.33,-119.5 25.16,-100.27 27,-85.97"/>
<polygon fill="midnightblue" stroke="midnightblue" points="30.51,-86.22 28.76,-75.77 23.61,-85.04 30.51,-86.22"/>
</g>
<!-- Node5&#45;&gt;Node3 -->
<g id="edge7" class="edge">
<title>Node5&#45;&gt;Node3</title>
<path fill="none" stroke="midnightblue" d="M240.63,-168.46C253.49,-160.84 270.34,-148.36 278,-132 292.33,-101.41 291.26,-87.06 278,-56 272.85,-43.95 262.72,-33.58 253.17,-25.84"/>
<polygon fill="midnightblue" stroke="midnightblue" points="255.17,-22.96 245.08,-19.74 250.96,-28.55 255.17,-22.96"/>
</g>
<!-- Node6 -->
<g id="node6" class="node">
<title>Node6</title>
<g id="a_node6"><a xlink:href="../../df/d64/kns__mac__evt_8h.html" target="_top" xlink:title=" ">
<polygon fill="white" stroke="black" points="179,-112.5 179,-131.5 269,-131.5 269,-112.5 179,-112.5"/>
<text text-anchor="middle" x="224" y="-119.5" font-family="Helvetica,sans-Serif" font-size="10.00">kns_mac_evt.h</text>
</a>
</g>
</g>
<!-- Node5&#45;&gt;Node6 -->
<g id="edge8" class="edge">
<title>Node5&#45;&gt;Node6</title>
<path fill="none" stroke="midnightblue" d="M224,-168.08C224,-161.01 224,-150.86 224,-141.99"/>
<polygon fill="midnightblue" stroke="midnightblue" points="227.5,-141.75 224,-131.75 220.5,-141.75 227.5,-141.75"/>
</g>
<!-- Node7 -->
<g id="node7" class="node">
<title>Node7</title>
<g id="a_node7"><a xlink:href="../../d7/d8a/kns__srvc__common_8h.html" target="_top" xlink:title="Common part of Kinéis service layer.">
<polygon fill="white" stroke="black" points="45,-112.5 45,-131.5 161,-131.5 161,-112.5 45,-112.5"/>
<text text-anchor="middle" x="103" y="-119.5" font-family="Helvetica,sans-Serif" font-size="10.00">kns_srvc_common.h</text>
</a>
</g>
</g>
<!-- Node5&#45;&gt;Node7 -->
<g id="edge12" class="edge">
<title>Node5&#45;&gt;Node7</title>
<path fill="none" stroke="midnightblue" d="M204.83,-168.44C185.09,-159.64 154.11,-145.81 131.51,-135.72"/>
<polygon fill="midnightblue" stroke="midnightblue" points="132.64,-132.4 122.08,-131.52 129.79,-138.79 132.64,-132.4"/>
</g>
<!-- Node6&#45;&gt;Node2 -->
<g id="edge9" class="edge">
<title>Node6&#45;&gt;Node2</title>
<path fill="none" stroke="midnightblue" d="M193.42,-112.44C160.39,-103.2 107.61,-88.44 71.23,-78.26"/>
<polygon fill="midnightblue" stroke="midnightblue" points="72.01,-74.84 61.44,-75.52 70.13,-81.58 72.01,-74.84"/>
</g>
<!-- Node6&#45;&gt;Node3 -->
<g id="edge10" class="edge">
<title>Node6&#45;&gt;Node3</title>
<path fill="none" stroke="midnightblue" d="M212.32,-112.18C197.82,-100.07 176.02,-77.35 185,-56 190.03,-44.05 199.94,-33.69 209.29,-25.93"/>
<polygon fill="midnightblue" stroke="midnightblue" points="211.44,-28.69 217.21,-19.81 207.16,-23.15 211.44,-28.69"/>
</g>
<!-- Node6&#45;&gt;Node4 -->
<g id="edge11" class="edge">
<title>Node6&#45;&gt;Node4</title>
<path fill="none" stroke="midnightblue" d="M225.16,-112.08C226.08,-104.93 227.42,-94.64 228.58,-85.69"/>
<polygon fill="midnightblue" stroke="midnightblue" points="232.05,-86.12 229.87,-75.75 225.11,-85.22 232.05,-86.12"/>
</g>
<!-- Node7&#45;&gt;Node2 -->
<g id="edge13" class="edge">
<title>Node7&#45;&gt;Node2</title>
<path fill="none" stroke="midnightblue" d="M91.43,-112.32C80.58,-104.18 64.12,-91.84 51.12,-82.09"/>
<polygon fill="midnightblue" stroke="midnightblue" points="52.88,-79.03 42.78,-75.83 48.68,-84.63 52.88,-79.03"/>
</g>
<!-- Node7&#45;&gt;Node3 -->
<g id="edge14" class="edge">
<title>Node7&#45;&gt;Node3</title>
<path fill="none" stroke="midnightblue" d="M113.16,-112.14C127.56,-99.59 154.72,-75.97 178,-56 189.6,-46.05 202.68,-34.94 212.95,-26.25"/>
<polygon fill="midnightblue" stroke="midnightblue" points="215.44,-28.73 220.81,-19.6 210.92,-23.38 215.44,-28.73"/>
</g>
<!-- Node7&#45;&gt;Node4 -->
<g id="edge15" class="edge">
<title>Node7&#45;&gt;Node4</title>
<path fill="none" stroke="midnightblue" d="M123.28,-112.44C144.35,-103.56 177.52,-89.56 201.49,-79.45"/>
<polygon fill="midnightblue" stroke="midnightblue" points="202.96,-82.63 210.81,-75.52 200.24,-76.18 202.96,-82.63"/>
</g>
</g>
</svg>
