<?xml version="1.0" encoding="UTF-8" standalone="no"?>
<!DOCTYPE svg PUBLIC "-//W3C//DTD SVG 1.1//EN"
 "http://www.w3.org/Graphics/SVG/1.1/DTD/svg11.dtd">
<!-- Generated by graphviz version 2.43.0 (0)
 -->
<!-- Title: Kineis/App/Kineis_os/KNS_Q/Inc/kns_q.h Pages: 1 -->
<svg width="415pt" height="319pt"
 viewBox="0.00 0.00 414.59 319.00" xmlns="http://www.w3.org/2000/svg" xmlns:xlink="http://www.w3.org/1999/xlink">
<g id="graph0" class="graph" transform="scale(1 1) rotate(0) translate(4 315)">
<title>Kineis/App/Kineis_os/KNS_Q/Inc/kns_q.h</title>
<polygon fill="white" stroke="transparent" points="-4,4 -4,-315 410.59,-315 410.59,4 -4,4"/>
<!-- Node1 -->
<g id="node1" class="node">
<title>Node1</title>
<g id="a_node1"><a xlink:title="Configuration of queues used in kineis_swr.">
<polygon fill="#bfbfbf" stroke="black" points="65,-280.5 65,-310.5 183,-310.5 183,-280.5 65,-280.5"/>
<text text-anchor="start" x="73" y="-298.5" font-family="Helvetica,sans-Serif" font-size="10.00">Kineis/App/Kineis_os</text>
<text text-anchor="middle" x="124" y="-287.5" font-family="Helvetica,sans-Serif" font-size="10.00">/KNS_Q/Inc/kns_q.h</text>
</a>
</g>
</g>
<!-- Node2 -->
<g id="node2" class="node">
<title>Node2</title>
<g id="a_node2"><a xlink:title=" ">
<polygon fill="white" stroke="#bfbfbf" points="149,-112.5 149,-131.5 211,-131.5 211,-112.5 149,-112.5"/>
<text text-anchor="middle" x="180" y="-119.5" font-family="Helvetica,sans-Serif" font-size="10.00">stdbool.h</text>
</a>
</g>
</g>
<!-- Node1&#45;&gt;Node2 -->
<g id="edge1" class="edge">
<title>Node1&#45;&gt;Node2</title>
<path fill="none" stroke="midnightblue" d="M136.7,-280.29C152.99,-261.01 180.41,-224.73 191,-188 195.46,-172.54 191.7,-154.45 187.41,-141.28"/>
<polygon fill="midnightblue" stroke="midnightblue" points="190.57,-139.74 183.84,-131.55 183.99,-142.14 190.57,-139.74"/>
</g>
<!-- Node3 -->
<g id="node3" class="node">
<title>Node3</title>
<g id="a_node3"><a xlink:title=" ">
<polygon fill="white" stroke="#bfbfbf" points="249.5,-0.5 249.5,-19.5 302.5,-19.5 302.5,-0.5 249.5,-0.5"/>
<text text-anchor="middle" x="276" y="-7.5" font-family="Helvetica,sans-Serif" font-size="10.00">stdint.h</text>
</a>
</g>
</g>
<!-- Node1&#45;&gt;Node3 -->
<g id="edge2" class="edge">
<title>Node1&#45;&gt;Node3</title>
<path fill="none" stroke="midnightblue" d="M90.12,-280.46C53.4,-262.72 0,-228.43 0,-179 0,-179 0,-179 0,-121 0,-70.07 164.21,-32.26 239.31,-17.64"/>
<polygon fill="midnightblue" stroke="midnightblue" points="240.12,-21.04 249.29,-15.73 238.81,-14.17 240.12,-21.04"/>
</g>
<!-- Node4 -->
<g id="node4" class="node">
<title>Node4</title>
<g id="a_node4"><a xlink:href="../../d8/d85/kns__types_8h.html" target="_top" xlink:title="Kineis types definition.">
<polygon fill="white" stroke="black" points="201.5,-56.5 201.5,-75.5 276.5,-75.5 276.5,-56.5 201.5,-56.5"/>
<text text-anchor="middle" x="239" y="-63.5" font-family="Helvetica,sans-Serif" font-size="10.00">kns_types.h</text>
</a>
</g>
</g>
<!-- Node1&#45;&gt;Node4 -->
<g id="edge3" class="edge">
<title>Node1&#45;&gt;Node4</title>
<path fill="none" stroke="midnightblue" d="M106.87,-280.3C81.11,-257.13 37.38,-209.58 57,-168 81.59,-115.89 146.15,-89.52 191.35,-77.03"/>
<polygon fill="midnightblue" stroke="midnightblue" points="192.47,-80.35 201.25,-74.43 190.69,-73.58 192.47,-80.35"/>
</g>
<!-- Node5 -->
<g id="node5" class="node">
<title>Node5</title>
<g id="a_node5"><a xlink:href="../../d8/dd1/kns__q__conf_8h.html" target="_top" xlink:title="Configuration of queues used in kineis_sw.">
<polygon fill="white" stroke="black" points="238,-224.5 238,-243.5 318,-243.5 318,-224.5 238,-224.5"/>
<text text-anchor="middle" x="278" y="-231.5" font-family="Helvetica,sans-Serif" font-size="10.00">kns_q_conf.h</text>
</a>
</g>
</g>
<!-- Node1&#45;&gt;Node5 -->
<g id="edge5" class="edge">
<title>Node1&#45;&gt;Node5</title>
<path fill="none" stroke="midnightblue" d="M160.5,-280.4C186.57,-270.33 221.29,-256.91 246.22,-247.28"/>
<polygon fill="midnightblue" stroke="midnightblue" points="247.53,-250.53 255.59,-243.66 245,-244 247.53,-250.53"/>
</g>
<!-- Node4&#45;&gt;Node3 -->
<g id="edge4" class="edge">
<title>Node4&#45;&gt;Node3</title>
<path fill="none" stroke="midnightblue" d="M245.11,-56.08C250.28,-48.53 257.85,-37.49 264.19,-28.23"/>
<polygon fill="midnightblue" stroke="midnightblue" points="267.24,-29.98 270,-19.75 261.46,-26.02 267.24,-29.98"/>
</g>
<!-- Node5&#45;&gt;Node2 -->
<g id="edge6" class="edge">
<title>Node5&#45;&gt;Node2</title>
<path fill="none" stroke="midnightblue" d="M271.22,-224.4C261.2,-211.78 241.68,-187.61 224,-168 215.04,-158.06 204.58,-147.33 196.1,-138.84"/>
<polygon fill="midnightblue" stroke="midnightblue" points="198.54,-136.33 188.98,-131.76 193.61,-141.29 198.54,-136.33"/>
</g>
<!-- Node5&#45;&gt;Node3 -->
<g id="edge7" class="edge">
<title>Node5&#45;&gt;Node3</title>
<path fill="none" stroke="midnightblue" d="M309.57,-224.36C330.26,-217.36 356.75,-205.72 375,-188 400.82,-162.92 412.92,-146.6 403,-112 394.91,-83.79 389.8,-75.65 368,-56 351.99,-41.57 330.52,-30.72 312.34,-23.29"/>
<polygon fill="midnightblue" stroke="midnightblue" points="313.5,-19.98 302.91,-19.61 310.96,-26.5 313.5,-19.98"/>
</g>
<!-- Node6 -->
<g id="node6" class="node">
<title>Node6</title>
<g id="a_node6"><a xlink:href="../../df/d64/kns__mac__evt_8h.html" target="_top" xlink:title=" ">
<polygon fill="white" stroke="black" points="276,-168.5 276,-187.5 366,-187.5 366,-168.5 276,-168.5"/>
<text text-anchor="middle" x="321" y="-175.5" font-family="Helvetica,sans-Serif" font-size="10.00">kns_mac_evt.h</text>
</a>
</g>
</g>
<!-- Node5&#45;&gt;Node6 -->
<g id="edge8" class="edge">
<title>Node5&#45;&gt;Node6</title>
<path fill="none" stroke="midnightblue" d="M285.1,-224.08C291.24,-216.38 300.27,-205.03 307.74,-195.65"/>
<polygon fill="midnightblue" stroke="midnightblue" points="310.54,-197.75 314.03,-187.75 305.06,-193.39 310.54,-197.75"/>
</g>
<!-- Node8 -->
<g id="node8" class="node">
<title>Node8</title>
<g id="a_node8"><a xlink:href="../../d7/d8a/kns__srvc__common_8h.html" target="_top" xlink:title="Common part of Kinéis service layer.">
<polygon fill="white" stroke="black" points="66,-168.5 66,-187.5 182,-187.5 182,-168.5 66,-168.5"/>
<text text-anchor="middle" x="124" y="-175.5" font-family="Helvetica,sans-Serif" font-size="10.00">kns_srvc_common.h</text>
</a>
</g>
</g>
<!-- Node5&#45;&gt;Node8 -->
<g id="edge15" class="edge">
<title>Node5&#45;&gt;Node8</title>
<path fill="none" stroke="midnightblue" d="M253.6,-224.44C227.8,-215.4 186.92,-201.06 157.98,-190.92"/>
<polygon fill="midnightblue" stroke="midnightblue" points="158.88,-187.52 148.29,-187.52 156.57,-194.13 158.88,-187.52"/>
</g>
<!-- Node6&#45;&gt;Node2 -->
<g id="edge9" class="edge">
<title>Node6&#45;&gt;Node2</title>
<path fill="none" stroke="midnightblue" d="M298.66,-168.44C275.25,-159.48 238.26,-145.31 211.81,-135.18"/>
<polygon fill="midnightblue" stroke="midnightblue" points="212.83,-131.82 202.24,-131.52 210.32,-138.36 212.83,-131.82"/>
</g>
<!-- Node6&#45;&gt;Node3 -->
<g id="edge10" class="edge">
<title>Node6&#45;&gt;Node3</title>
<path fill="none" stroke="midnightblue" d="M342.39,-168.44C365.98,-157.58 399.2,-137.17 388,-112 370.3,-72.2 328.29,-41.47 301.06,-24.83"/>
<polygon fill="midnightblue" stroke="midnightblue" points="302.49,-21.62 292.1,-19.54 298.93,-27.64 302.49,-21.62"/>
</g>
<!-- Node6&#45;&gt;Node4 -->
<g id="edge11" class="edge">
<title>Node6&#45;&gt;Node4</title>
<path fill="none" stroke="midnightblue" d="M303.6,-168.44C289.64,-160.72 270.53,-148.12 259,-132 249.24,-118.34 244.15,-99.81 241.55,-86.02"/>
<polygon fill="midnightblue" stroke="midnightblue" points="244.95,-85.09 239.91,-75.77 238.04,-86.2 244.95,-85.09"/>
</g>
<!-- Node7 -->
<g id="node7" class="node">
<title>Node7</title>
<g id="a_node7"><a xlink:href="../../d8/d4a/kns__mac__prfl__cfg_8h.html" target="_top" xlink:title="Header file describing the ser settings required to configure a MAC protocol.">
<polygon fill="white" stroke="black" points="267.5,-112.5 267.5,-131.5 378.5,-131.5 378.5,-112.5 267.5,-112.5"/>
<text text-anchor="middle" x="323" y="-119.5" font-family="Helvetica,sans-Serif" font-size="10.00">kns_mac_prfl_cfg.h</text>
</a>
</g>
</g>
<!-- Node6&#45;&gt;Node7 -->
<g id="edge12" class="edge">
<title>Node6&#45;&gt;Node7</title>
<path fill="none" stroke="midnightblue" d="M321.33,-168.08C321.59,-161.01 321.97,-150.86 322.3,-141.99"/>
<polygon fill="midnightblue" stroke="midnightblue" points="325.8,-141.87 322.68,-131.75 318.81,-141.61 325.8,-141.87"/>
</g>
<!-- Node7&#45;&gt;Node3 -->
<g id="edge13" class="edge">
<title>Node7&#45;&gt;Node3</title>
<path fill="none" stroke="midnightblue" d="M319.31,-112.37C311.66,-94.46 293.91,-52.92 283.67,-28.95"/>
<polygon fill="midnightblue" stroke="midnightblue" points="286.82,-27.41 279.67,-19.59 280.38,-30.16 286.82,-27.41"/>
</g>
<!-- Node7&#45;&gt;Node4 -->
<g id="edge14" class="edge">
<title>Node7&#45;&gt;Node4</title>
<path fill="none" stroke="midnightblue" d="M309.5,-112.32C296.4,-103.9 276.29,-90.97 260.89,-81.07"/>
<polygon fill="midnightblue" stroke="midnightblue" points="262.77,-78.12 252.46,-75.65 258.98,-84.01 262.77,-78.12"/>
</g>
<!-- Node8&#45;&gt;Node2 -->
<g id="edge16" class="edge">
<title>Node8&#45;&gt;Node2</title>
<path fill="none" stroke="midnightblue" d="M133,-168.32C141.19,-160.42 153.51,-148.55 163.47,-138.94"/>
<polygon fill="midnightblue" stroke="midnightblue" points="166.07,-141.29 170.84,-131.83 161.21,-136.26 166.07,-141.29"/>
</g>
<!-- Node8&#45;&gt;Node3 -->
<g id="edge17" class="edge">
<title>Node8&#45;&gt;Node3</title>
<path fill="none" stroke="midnightblue" d="M121.97,-168.49C119.34,-155.55 116.09,-130.51 125,-112 147.35,-65.57 202.69,-37.26 239.79,-22.86"/>
<polygon fill="midnightblue" stroke="midnightblue" points="241.12,-26.1 249.27,-19.33 238.68,-19.54 241.12,-26.1"/>
</g>
<!-- Node8&#45;&gt;Node4 -->
<g id="edge18" class="edge">
<title>Node8&#45;&gt;Node4</title>
<path fill="none" stroke="midnightblue" d="M123.84,-168.37C124.05,-154.83 126.34,-128.45 140,-112 153.14,-96.16 173.04,-85.66 191.56,-78.81"/>
<polygon fill="midnightblue" stroke="midnightblue" points="192.75,-82.1 201.08,-75.55 190.48,-75.48 192.75,-82.1"/>
</g>
</g>
</svg>
