<?xml version="1.0" encoding="UTF-8" standalone="no"?>
<!DOCTYPE svg PUBLIC "-//W3C//DTD SVG 1.1//EN"
 "http://www.w3.org/Graphics/SVG/1.1/DTD/svg11.dtd">
<!-- Generated by graphviz version 2.43.0 (0)
 -->
<!-- Title: Kineis/Extdep/Mcu/Src/mcu_nvm.c Pages: 1 -->
<svg width="257pt" height="207pt"
 viewBox="0.00 0.00 257.00 207.00" xmlns="http://www.w3.org/2000/svg" xmlns:xlink="http://www.w3.org/1999/xlink">
<g id="graph0" class="graph" transform="scale(1 1) rotate(0) translate(4 203)">
<title>Kineis/Extdep/Mcu/Src/mcu_nvm.c</title>
<polygon fill="white" stroke="transparent" points="-4,4 -4,-203 253,-203 253,4 -4,4"/>
<!-- Node1 -->
<g id="node1" class="node">
<title>Node1</title>
<g id="a_node1"><a xlink:title="MCU wrapper for any access to the non volatile memory accesses.">
<polygon fill="#bfbfbf" stroke="black" points="29,-168.5 29,-198.5 154,-198.5 154,-168.5 29,-168.5"/>
<text text-anchor="start" x="37" y="-186.5" font-family="Helvetica,sans-Serif" font-size="10.00">Kineis/Extdep/Mcu/Src</text>
<text text-anchor="middle" x="91.5" y="-175.5" font-family="Helvetica,sans-Serif" font-size="10.00">/mcu_nvm.c</text>
</a>
</g>
</g>
<!-- Node2 -->
<g id="node2" class="node">
<title>Node2</title>
<g id="a_node2"><a xlink:href="../../d8/d85/kns__types_8h.html" target="_top" xlink:title="Kineis types definition.">
<polygon fill="white" stroke="black" points="61,-56.5 61,-75.5 136,-75.5 136,-56.5 61,-56.5"/>
<text text-anchor="middle" x="98.5" y="-63.5" font-family="Helvetica,sans-Serif" font-size="10.00">kns_types.h</text>
</a>
</g>
</g>
<!-- Node1&#45;&gt;Node2 -->
<g id="edge1" class="edge">
<title>Node1&#45;&gt;Node2</title>
<path fill="none" stroke="midnightblue" d="M85.64,-168.41C80.48,-154.15 74.37,-131.48 78.5,-112 80.5,-102.59 84.6,-92.76 88.57,-84.7"/>
<polygon fill="midnightblue" stroke="midnightblue" points="91.81,-86.07 93.37,-75.59 85.61,-82.81 91.81,-86.07"/>
</g>
<!-- Node4 -->
<g id="node4" class="node">
<title>Node4</title>
<g id="a_node4"><a xlink:href="../../db/dcb/aes_8h.html" target="_top" xlink:title=" ">
<polygon fill="white" stroke="black" points="0,-56.5 0,-75.5 43,-75.5 43,-56.5 0,-56.5"/>
<text text-anchor="middle" x="21.5" y="-63.5" font-family="Helvetica,sans-Serif" font-size="10.00">aes.h</text>
</a>
</g>
</g>
<!-- Node1&#45;&gt;Node4 -->
<g id="edge3" class="edge">
<title>Node1&#45;&gt;Node4</title>
<path fill="none" stroke="midnightblue" d="M82.92,-168.34C70.07,-147.15 45.89,-107.24 32.01,-84.34"/>
<polygon fill="midnightblue" stroke="midnightblue" points="34.93,-82.41 26.75,-75.67 28.94,-86.04 34.93,-82.41"/>
</g>
<!-- Node5 -->
<g id="node5" class="node">
<title>Node5</title>
<g id="a_node5"><a xlink:href="../../df/dbf/mcu__aes_8h.html" target="_top" xlink:title="MCU wrapper for encryption/decryption wrappers utilities.">
<polygon fill="white" stroke="black" points="180,-112.5 180,-131.5 249,-131.5 249,-112.5 180,-112.5"/>
<text text-anchor="middle" x="214.5" y="-119.5" font-family="Helvetica,sans-Serif" font-size="10.00">mcu_aes.h</text>
</a>
</g>
</g>
<!-- Node1&#45;&gt;Node5 -->
<g id="edge5" class="edge">
<title>Node1&#45;&gt;Node5</title>
<path fill="none" stroke="midnightblue" d="M120.65,-168.4C140.92,-158.59 167.74,-145.62 187.52,-136.05"/>
<polygon fill="midnightblue" stroke="midnightblue" points="189.12,-139.16 196.6,-131.66 186.08,-132.86 189.12,-139.16"/>
</g>
<!-- Node6 -->
<g id="node6" class="node">
<title>Node6</title>
<g id="a_node6"><a xlink:href="../../d8/dd2/mcu__nvm_8h.html" target="_top" xlink:title="MCU wrappers for Non volatile memory management.">
<polygon fill="white" stroke="black" points="87.5,-112.5 87.5,-131.5 161.5,-131.5 161.5,-112.5 87.5,-112.5"/>
<text text-anchor="middle" x="124.5" y="-119.5" font-family="Helvetica,sans-Serif" font-size="10.00">mcu_nvm.h</text>
</a>
</g>
</g>
<!-- Node1&#45;&gt;Node6 -->
<g id="edge7" class="edge">
<title>Node1&#45;&gt;Node6</title>
<path fill="none" stroke="midnightblue" d="M99.32,-168.4C103.97,-160.02 109.9,-149.33 114.84,-140.42"/>
<polygon fill="midnightblue" stroke="midnightblue" points="117.91,-142.1 119.7,-131.66 111.79,-138.71 117.91,-142.1"/>
</g>
<!-- Node3 -->
<g id="node3" class="node">
<title>Node3</title>
<g id="a_node3"><a xlink:title=" ">
<polygon fill="white" stroke="#bfbfbf" points="105,-0.5 105,-19.5 158,-19.5 158,-0.5 105,-0.5"/>
<text text-anchor="middle" x="131.5" y="-7.5" font-family="Helvetica,sans-Serif" font-size="10.00">stdint.h</text>
</a>
</g>
</g>
<!-- Node2&#45;&gt;Node3 -->
<g id="edge2" class="edge">
<title>Node2&#45;&gt;Node3</title>
<path fill="none" stroke="midnightblue" d="M103.95,-56.08C108.51,-48.61 115.17,-37.72 120.79,-28.52"/>
<polygon fill="midnightblue" stroke="midnightblue" points="123.92,-30.11 126.15,-19.75 117.95,-26.46 123.92,-30.11"/>
</g>
<!-- Node4&#45;&gt;Node3 -->
<g id="edge4" class="edge">
<title>Node4&#45;&gt;Node3</title>
<path fill="none" stroke="midnightblue" d="M39.17,-56.32C56.89,-47.62 84.4,-34.12 104.79,-24.11"/>
<polygon fill="midnightblue" stroke="midnightblue" points="106.44,-27.2 113.87,-19.65 103.35,-20.92 106.44,-27.2"/>
</g>
<!-- Node5&#45;&gt;Node3 -->
<g id="edge6" class="edge">
<title>Node5&#45;&gt;Node3</title>
<path fill="none" stroke="midnightblue" d="M207.99,-112.37C194.23,-94.14 162,-51.43 144.08,-27.68"/>
<polygon fill="midnightblue" stroke="midnightblue" points="146.8,-25.47 137.98,-19.59 141.21,-29.68 146.8,-25.47"/>
</g>
<!-- Node6&#45;&gt;Node2 -->
<g id="edge9" class="edge">
<title>Node6&#45;&gt;Node2</title>
<path fill="none" stroke="midnightblue" d="M120.21,-112.08C116.65,-104.69 111.48,-93.95 107.08,-84.81"/>
<polygon fill="midnightblue" stroke="midnightblue" points="110.21,-83.24 102.71,-75.75 103.9,-86.28 110.21,-83.24"/>
</g>
<!-- Node6&#45;&gt;Node3 -->
<g id="edge8" class="edge">
<title>Node6&#45;&gt;Node3</title>
<path fill="none" stroke="midnightblue" d="M129.63,-112.41C134.56,-103.61 141.66,-89.38 144.5,-76 147.82,-60.35 143.7,-42.52 139.24,-29.5"/>
<polygon fill="midnightblue" stroke="midnightblue" points="142.39,-27.95 135.57,-19.84 135.85,-30.44 142.39,-27.95"/>
</g>
</g>
</svg>
