<?xml version="1.0" encoding="UTF-8" standalone="no"?>
<!DOCTYPE svg PUBLIC "-//W3C//DTD SVG 1.1//EN"
 "http://www.w3.org/Graphics/SVG/1.1/DTD/svg11.dtd">
<!-- Generated by graphviz version 2.43.0 (0)
 -->
<!-- Title: Kineis/Extdep/Conf/kineis_sw_conf.h Pages: 1 -->
<svg width="1439pt" height="273pt"
 viewBox="0.00 0.00 1438.50 273.00" xmlns="http://www.w3.org/2000/svg" xmlns:xlink="http://www.w3.org/1999/xlink">
<g id="graph0" class="graph" transform="scale(1 1) rotate(0) translate(4 269)">
<title>Kineis/Extdep/Conf/kineis_sw_conf.h</title>
<polygon fill="white" stroke="transparent" points="-4,4 -4,-269 1434.5,-269 1434.5,4 -4,4"/>
<!-- Node1 -->
<g id="node1" class="node">
<title>Node1</title>
<g id="a_node1"><a xlink:title="Kineis stack SW configurations depending on platform used.">
<polygon fill="#bfbfbf" stroke="black" points="994.5,-234.5 994.5,-264.5 1103.5,-264.5 1103.5,-234.5 994.5,-234.5"/>
<text text-anchor="start" x="1002.5" y="-252.5" font-family="Helvetica,sans-Serif" font-size="10.00">Kineis/Extdep/Conf</text>
<text text-anchor="middle" x="1049" y="-241.5" font-family="Helvetica,sans-Serif" font-size="10.00">/kineis_sw_conf.h</text>
</a>
</g>
</g>
<!-- Node2 -->
<g id="node2" class="node">
<title>Node2</title>
<g id="a_node2"><a xlink:href="../../d4/d0d/kns__app_8c.html" target="_top" xlink:title=" ">
<polygon fill="white" stroke="black" points="415,-167.5 415,-186.5 535,-186.5 535,-167.5 415,-167.5"/>
<text text-anchor="middle" x="475" y="-174.5" font-family="Helvetica,sans-Serif" font-size="10.00">Kineis/App/kns_app.c</text>
</a>
</g>
</g>
<!-- Node1&#45;&gt;Node2 -->
<g id="edge1" class="edge">
<title>Node1&#45;&gt;Node2</title>
<path fill="none" stroke="midnightblue" d="M984.15,-245.8C887.5,-240.93 700.3,-228.2 544,-198 529.31,-195.16 513.23,-190.59 500.29,-186.53"/>
<polygon fill="midnightblue" stroke="midnightblue" points="984.19,-249.31 994.35,-246.3 984.53,-242.32 984.19,-249.31"/>
</g>
<!-- Node3 -->
<g id="node3" class="node">
<title>Node3</title>
<g id="a_node3"><a xlink:href="../../d0/d01/user__data_8c.html" target="_top" xlink:title="Library to handle user data to be be received or transmitted over the air.">
<polygon fill="white" stroke="black" points="553,-162 553,-192 699,-192 699,-162 553,-162"/>
<text text-anchor="start" x="561" y="-180" font-family="Helvetica,sans-Serif" font-size="10.00">Kineis/App/Libs/USERDATA</text>
<text text-anchor="middle" x="626" y="-169" font-family="Helvetica,sans-Serif" font-size="10.00">/Src/user_data.c</text>
</a>
</g>
</g>
<!-- Node1&#45;&gt;Node3 -->
<g id="edge2" class="edge">
<title>Node1&#45;&gt;Node3</title>
<path fill="none" stroke="midnightblue" d="M984.15,-240.71C915.32,-232.01 803.53,-216.68 708,-198 699.08,-196.26 689.68,-194.18 680.54,-192.04"/>
<polygon fill="midnightblue" stroke="midnightblue" points="984.04,-244.22 994.4,-241.99 984.92,-237.27 984.04,-244.22"/>
</g>
<!-- Node4 -->
<g id="node4" class="node">
<title>Node4</title>
<g id="a_node4"><a xlink:href="../../d5/d58/mgr__at__cmd__common_8h.html" target="_top" xlink:title="header file for common part of the AT cmd manager">
<polygon fill="white" stroke="black" points="717.5,-156.5 717.5,-197.5 846.5,-197.5 846.5,-156.5 717.5,-156.5"/>
<text text-anchor="start" x="725.5" y="-185.5" font-family="Helvetica,sans-Serif" font-size="10.00">Kineis/App/Managers</text>
<text text-anchor="start" x="725.5" y="-174.5" font-family="Helvetica,sans-Serif" font-size="10.00">/MGR_AT_CMD/Inc/mgr</text>
<text text-anchor="middle" x="782" y="-163.5" font-family="Helvetica,sans-Serif" font-size="10.00">_at_cmd_common.h</text>
</a>
</g>
</g>
<!-- Node1&#45;&gt;Node4 -->
<g id="edge3" class="edge">
<title>Node1&#45;&gt;Node4</title>
<path fill="none" stroke="midnightblue" d="M986.1,-231.89C944.14,-220.81 889.11,-206.28 846.76,-195.1"/>
<polygon fill="midnightblue" stroke="midnightblue" points="985.37,-235.32 995.93,-234.49 987.16,-228.55 985.37,-235.32"/>
</g>
<!-- Node13 -->
<g id="node13" class="node">
<title>Node13</title>
<g id="a_node13"><a xlink:href="../../d8/d11/mgr__at__cmd__list__user__data_8c.html" target="_top" xlink:title="subset of AT commands concerning user data manipulation such as TX">
<polygon fill="white" stroke="black" points="1006,-0.5 1006,-41.5 1146,-41.5 1146,-0.5 1006,-0.5"/>
<text text-anchor="start" x="1014" y="-29.5" font-family="Helvetica,sans-Serif" font-size="10.00">Kineis/App/Managers</text>
<text text-anchor="start" x="1014" y="-18.5" font-family="Helvetica,sans-Serif" font-size="10.00">/MGR_AT_CMD/Src/mgr</text>
<text text-anchor="middle" x="1076" y="-7.5" font-family="Helvetica,sans-Serif" font-size="10.00">_at_cmd_list_user_data.c</text>
</a>
</g>
</g>
<!-- Node1&#45;&gt;Node13 -->
<g id="edge24" class="edge">
<title>Node1&#45;&gt;Node13</title>
<path fill="none" stroke="midnightblue" d="M1066.92,-225.99C1085.13,-201.54 1112.16,-160.53 1123,-120 1127.82,-101.97 1129.39,-95.54 1123,-78 1117.96,-64.16 1107.84,-51.37 1098.28,-41.51"/>
<polygon fill="midnightblue" stroke="midnightblue" points="1063.93,-224.14 1060.65,-234.21 1069.49,-228.38 1063.93,-224.14"/>
</g>
<!-- Node14 -->
<g id="node14" class="node">
<title>Node14</title>
<g id="a_node14"><a xlink:href="../../da/d77/mgr__at__cmd_8c.html" target="_top" xlink:title="APIs Implementation used to parse the UART ASCII data stream and extract AT commands.">
<polygon fill="white" stroke="black" points="984,-78.5 984,-119.5 1114,-119.5 1114,-78.5 984,-78.5"/>
<text text-anchor="start" x="992" y="-107.5" font-family="Helvetica,sans-Serif" font-size="10.00">Kineis/App/Managers</text>
<text text-anchor="start" x="992" y="-96.5" font-family="Helvetica,sans-Serif" font-size="10.00">/MGR_AT_CMD/Src/mgr</text>
<text text-anchor="middle" x="1049" y="-85.5" font-family="Helvetica,sans-Serif" font-size="10.00">_at_cmd.c</text>
</a>
</g>
</g>
<!-- Node1&#45;&gt;Node14 -->
<g id="edge23" class="edge">
<title>Node1&#45;&gt;Node14</title>
<path fill="none" stroke="midnightblue" d="M1049,-224.08C1049,-194.83 1049,-146.44 1049,-119.55"/>
<polygon fill="midnightblue" stroke="midnightblue" points="1045.5,-224.26 1049,-234.26 1052.5,-224.26 1045.5,-224.26"/>
</g>
<!-- Node17 -->
<g id="node17" class="node">
<title>Node17</title>
<g id="a_node17"><a xlink:href="../../d8/d3c/mcu__at__console__stm_8c.html" target="_top" xlink:title=" ">
<polygon fill="white" stroke="black" points="1170.5,-162 1170.5,-192 1301.5,-192 1301.5,-162 1170.5,-162"/>
<text text-anchor="start" x="1178.5" y="-180" font-family="Helvetica,sans-Serif" font-size="10.00">Kineis/App/Mcu/Src</text>
<text text-anchor="middle" x="1236" y="-169" font-family="Helvetica,sans-Serif" font-size="10.00">/mcu_at_console_stm.c</text>
</a>
</g>
</g>
<!-- Node1&#45;&gt;Node17 -->
<g id="edge25" class="edge">
<title>Node1&#45;&gt;Node17</title>
<path fill="none" stroke="midnightblue" d="M1095.92,-230.81C1127.71,-218.83 1169.13,-203.21 1198.67,-192.07"/>
<polygon fill="midnightblue" stroke="midnightblue" points="1094.52,-227.6 1086.39,-234.4 1096.98,-234.15 1094.52,-227.6"/>
</g>
<!-- Node19 -->
<g id="node19" class="node">
<title>Node19</title>
<g id="a_node19"><a xlink:href="../../dd/d8d/mgr__lpm_8c.html" target="_top" xlink:title="low power mode manager is in charge to collect all low power needs from &#39;clients&#39; and setup the corre...">
<polygon fill="white" stroke="black" points="1319.5,-162 1319.5,-192 1430.5,-192 1430.5,-162 1319.5,-162"/>
<text text-anchor="start" x="1327.5" y="-180" font-family="Helvetica,sans-Serif" font-size="10.00">Kineis/Lpm/Src/mgr</text>
<text text-anchor="middle" x="1375" y="-169" font-family="Helvetica,sans-Serif" font-size="10.00">_lpm.c</text>
</a>
</g>
</g>
<!-- Node1&#45;&gt;Node19 -->
<g id="edge27" class="edge">
<title>Node1&#45;&gt;Node19</title>
<path fill="none" stroke="midnightblue" d="M1113.58,-238.14C1166.88,-229.09 1244.32,-214.79 1311,-198 1318,-196.24 1325.36,-194.16 1332.5,-192.01"/>
<polygon fill="midnightblue" stroke="midnightblue" points="1112.86,-234.71 1103.59,-239.82 1114.03,-241.61 1112.86,-234.71"/>
</g>
<!-- Node5 -->
<g id="node5" class="node">
<title>Node5</title>
<g id="a_node5"><a xlink:href="../../d4/ddf/mgr__at__cmd__list__general_8h.html" target="_top" xlink:title="subset of AT commands concerning general purpose (get ID, FW version, ...)">
<polygon fill="white" stroke="black" points="640.5,-78.5 640.5,-119.5 769.5,-119.5 769.5,-78.5 640.5,-78.5"/>
<text text-anchor="start" x="648.5" y="-107.5" font-family="Helvetica,sans-Serif" font-size="10.00">Kineis/App/Managers</text>
<text text-anchor="start" x="648.5" y="-96.5" font-family="Helvetica,sans-Serif" font-size="10.00">/MGR_AT_CMD/Inc/mgr</text>
<text text-anchor="middle" x="705" y="-85.5" font-family="Helvetica,sans-Serif" font-size="10.00">_at_cmd_list_general.h</text>
</a>
</g>
</g>
<!-- Node4&#45;&gt;Node5 -->
<g id="edge4" class="edge">
<title>Node4&#45;&gt;Node5</title>
<path fill="none" stroke="midnightblue" d="M754.85,-149.2C744.93,-139.42 733.91,-128.54 724.76,-119.51"/>
<polygon fill="midnightblue" stroke="midnightblue" points="752.59,-151.89 762.17,-156.43 757.51,-146.91 752.59,-151.89"/>
</g>
<!-- Node6 -->
<g id="node6" class="node">
<title>Node6</title>
<g id="a_node6"><a xlink:href="../../da/df9/mgr__at__cmd__list_8c.html" target="_top" xlink:title="AT commands list main file.">
<polygon fill="white" stroke="black" points="196,-0.5 196,-41.5 326,-41.5 326,-0.5 196,-0.5"/>
<text text-anchor="start" x="204" y="-29.5" font-family="Helvetica,sans-Serif" font-size="10.00">Kineis/App/Managers</text>
<text text-anchor="start" x="204" y="-18.5" font-family="Helvetica,sans-Serif" font-size="10.00">/MGR_AT_CMD/Src/mgr</text>
<text text-anchor="middle" x="261" y="-7.5" font-family="Helvetica,sans-Serif" font-size="10.00">_at_cmd_list.c</text>
</a>
</g>
</g>
<!-- Node4&#45;&gt;Node6 -->
<g id="edge20" class="edge">
<title>Node4&#45;&gt;Node6</title>
<path fill="none" stroke="midnightblue" d="M707.26,-156.45C616.63,-147.6 224.97,-160.68 187,-120 174.26,-106.35 178.69,-94.71 187,-78 194.53,-62.85 208.34,-50.71 222,-41.66"/>
<polygon fill="midnightblue" stroke="midnightblue" points="706.82,-159.93 717.19,-157.72 707.71,-152.98 706.82,-159.93"/>
</g>
<!-- Node7 -->
<g id="node7" class="node">
<title>Node7</title>
<g id="a_node7"><a xlink:href="../../d1/dfd/mgr__at__cmd__list__general_8c.html" target="_top" xlink:title="subset of AT commands concerning general purpose (get ID, FW version, ...)">
<polygon fill="white" stroke="black" points="793,-0.5 793,-41.5 923,-41.5 923,-0.5 793,-0.5"/>
<text text-anchor="start" x="801" y="-29.5" font-family="Helvetica,sans-Serif" font-size="10.00">Kineis/App/Managers</text>
<text text-anchor="start" x="801" y="-18.5" font-family="Helvetica,sans-Serif" font-size="10.00">/MGR_AT_CMD/Src/mgr</text>
<text text-anchor="middle" x="858" y="-7.5" font-family="Helvetica,sans-Serif" font-size="10.00">_at_cmd_list_general.c</text>
</a>
</g>
</g>
<!-- Node4&#45;&gt;Node7 -->
<g id="edge22" class="edge">
<title>Node4&#45;&gt;Node7</title>
<path fill="none" stroke="midnightblue" d="M856.96,-167.55C886.96,-160.08 918.69,-146.09 937,-120 947.72,-104.72 945.57,-94.58 937,-78 929.05,-62.62 914.71,-50.55 900.4,-41.62"/>
<polygon fill="midnightblue" stroke="midnightblue" points="855.85,-164.22 846.87,-169.85 857.4,-171.04 855.85,-164.22"/>
</g>
<!-- Node8 -->
<g id="node8" class="node">
<title>Node8</title>
<g id="a_node8"><a xlink:href="../../d9/dc9/mgr__at__cmd__list__mac_8h.html" target="_top" xlink:title="subset of AT commands concerning Kinéis Medium Acces Channel (MAC).">
<polygon fill="white" stroke="black" points="196.5,-78.5 196.5,-119.5 325.5,-119.5 325.5,-78.5 196.5,-78.5"/>
<text text-anchor="start" x="204.5" y="-107.5" font-family="Helvetica,sans-Serif" font-size="10.00">Kineis/App/Managers</text>
<text text-anchor="start" x="204.5" y="-96.5" font-family="Helvetica,sans-Serif" font-size="10.00">/MGR_AT_CMD/Inc/mgr</text>
<text text-anchor="middle" x="261" y="-85.5" font-family="Helvetica,sans-Serif" font-size="10.00">_at_cmd_list_mac.h</text>
</a>
</g>
</g>
<!-- Node4&#45;&gt;Node8 -->
<g id="edge7" class="edge">
<title>Node4&#45;&gt;Node8</title>
<path fill="none" stroke="midnightblue" d="M707.17,-156.03C542.33,-127.07 495.65,-149.25 335,-120 331.99,-119.45 328.92,-118.84 325.83,-118.18"/>
<polygon fill="midnightblue" stroke="midnightblue" points="706.71,-159.5 717.17,-157.82 707.94,-152.61 706.71,-159.5"/>
</g>
<!-- Node10 -->
<g id="node10" class="node">
<title>Node10</title>
<g id="a_node10"><a xlink:href="../../da/da4/mgr__at__cmd__list__previpass_8h.html" target="_top" xlink:title="subset of AT commands concerning satellite PASS predictions, usefull for Medium Acces">
<polygon fill="white" stroke="black" points="0,-78.5 0,-119.5 140,-119.5 140,-78.5 0,-78.5"/>
<text text-anchor="start" x="8" y="-107.5" font-family="Helvetica,sans-Serif" font-size="10.00">Kineis/App/Managers</text>
<text text-anchor="start" x="8" y="-96.5" font-family="Helvetica,sans-Serif" font-size="10.00">/MGR_AT_CMD/Inc/mgr</text>
<text text-anchor="middle" x="70" y="-85.5" font-family="Helvetica,sans-Serif" font-size="10.00">_at_cmd_list_previpass.h</text>
</a>
</g>
</g>
<!-- Node4&#45;&gt;Node10 -->
<g id="edge10" class="edge">
<title>Node4&#45;&gt;Node10</title>
<path fill="none" stroke="midnightblue" d="M707.29,-156.08C462.8,-116.68 394.78,-156.22 154,-120 149.55,-119.33 144.99,-118.54 140.41,-117.68"/>
<polygon fill="midnightblue" stroke="midnightblue" points="706.75,-159.54 717.19,-157.7 707.89,-152.63 706.75,-159.54"/>
</g>
<!-- Node12 -->
<g id="node12" class="node">
<title>Node12</title>
<g id="a_node12"><a xlink:href="../../de/de6/mgr__at__cmd__list__user__data_8h.html" target="_top" xlink:title="subset of AT commands concerning user data manipulation such as TX">
<polygon fill="white" stroke="black" points="788,-78.5 788,-119.5 928,-119.5 928,-78.5 788,-78.5"/>
<text text-anchor="start" x="796" y="-107.5" font-family="Helvetica,sans-Serif" font-size="10.00">Kineis/App/Managers</text>
<text text-anchor="start" x="796" y="-96.5" font-family="Helvetica,sans-Serif" font-size="10.00">/MGR_AT_CMD/Inc/mgr</text>
<text text-anchor="middle" x="858" y="-85.5" font-family="Helvetica,sans-Serif" font-size="10.00">_at_cmd_list_user_data.h</text>
</a>
</g>
</g>
<!-- Node4&#45;&gt;Node12 -->
<g id="edge13" class="edge">
<title>Node4&#45;&gt;Node12</title>
<path fill="none" stroke="midnightblue" d="M808.8,-149.2C818.58,-139.42 829.46,-128.54 838.49,-119.51"/>
<polygon fill="midnightblue" stroke="midnightblue" points="806.17,-146.88 801.57,-156.43 811.12,-151.83 806.17,-146.88"/>
</g>
<!-- Node4&#45;&gt;Node14 -->
<g id="edge18" class="edge">
<title>Node4&#45;&gt;Node14</title>
<path fill="none" stroke="midnightblue" d="M856.32,-154.84C896.27,-143.47 945.08,-129.58 983.57,-118.62"/>
<polygon fill="midnightblue" stroke="midnightblue" points="855.29,-151.5 846.63,-157.6 857.21,-158.23 855.29,-151.5"/>
</g>
<!-- Node15 -->
<g id="node15" class="node">
<title>Node15</title>
<g id="a_node15"><a xlink:href="../../d5/dd7/mgr__at__cmd__common_8c.html" target="_top" xlink:title="common part of the AT cmd manager (logging, AT cmd response api)">
<polygon fill="white" stroke="black" points="344,-78.5 344,-119.5 474,-119.5 474,-78.5 344,-78.5"/>
<text text-anchor="start" x="352" y="-107.5" font-family="Helvetica,sans-Serif" font-size="10.00">Kineis/App/Managers</text>
<text text-anchor="start" x="352" y="-96.5" font-family="Helvetica,sans-Serif" font-size="10.00">/MGR_AT_CMD/Src/mgr</text>
<text text-anchor="middle" x="409" y="-85.5" font-family="Helvetica,sans-Serif" font-size="10.00">_at_cmd_common.c</text>
</a>
</g>
</g>
<!-- Node4&#45;&gt;Node15 -->
<g id="edge19" class="edge">
<title>Node4&#45;&gt;Node15</title>
<path fill="none" stroke="midnightblue" d="M707.22,-155.95C607.23,-135.14 578.92,-140.58 483,-120 480.14,-119.39 477.22,-118.73 474.28,-118.04"/>
<polygon fill="midnightblue" stroke="midnightblue" points="706.61,-159.4 717.12,-158.05 708.06,-152.55 706.61,-159.4"/>
</g>
<!-- Node16 -->
<g id="node16" class="node">
<title>Node16</title>
<g id="a_node16"><a xlink:href="../../d2/d04/mgr__at__cmd__list__certif_8c.html" target="_top" xlink:title="subset of AT commands concerning specifics for certification">
<polygon fill="white" stroke="black" points="492,-78.5 492,-119.5 622,-119.5 622,-78.5 492,-78.5"/>
<text text-anchor="start" x="500" y="-107.5" font-family="Helvetica,sans-Serif" font-size="10.00">Kineis/App/Managers</text>
<text text-anchor="start" x="500" y="-96.5" font-family="Helvetica,sans-Serif" font-size="10.00">/MGR_AT_CMD/Src/mgr</text>
<text text-anchor="middle" x="557" y="-85.5" font-family="Helvetica,sans-Serif" font-size="10.00">_at_cmd_list_certif.c</text>
</a>
</g>
</g>
<!-- Node4&#45;&gt;Node16 -->
<g id="edge21" class="edge">
<title>Node4&#45;&gt;Node16</title>
<path fill="none" stroke="midnightblue" d="M714.4,-153.17C682.63,-142.44 645.16,-129.78 614.75,-119.51"/>
<polygon fill="midnightblue" stroke="midnightblue" points="713.46,-156.54 724.06,-156.43 715.7,-149.91 713.46,-156.54"/>
</g>
<!-- Node5&#45;&gt;Node6 -->
<g id="edge5" class="edge">
<title>Node5&#45;&gt;Node6</title>
<path fill="none" stroke="midnightblue" d="M630.34,-77.98C518.12,-54.8 398.37,-38.5 326.23,-29.59"/>
<polygon fill="midnightblue" stroke="midnightblue" points="629.62,-81.4 640.13,-80.02 631.05,-74.55 629.62,-81.4"/>
</g>
<!-- Node5&#45;&gt;Node7 -->
<g id="edge6" class="edge">
<title>Node5&#45;&gt;Node7</title>
<path fill="none" stroke="midnightblue" d="M753.5,-73.91C774.54,-63.46 798.85,-51.38 818.73,-41.51"/>
<polygon fill="midnightblue" stroke="midnightblue" points="751.8,-70.84 744.4,-78.43 754.91,-77.11 751.8,-70.84"/>
</g>
<!-- Node8&#45;&gt;Node6 -->
<g id="edge8" class="edge">
<title>Node8&#45;&gt;Node6</title>
<path fill="none" stroke="midnightblue" d="M261,-68.3C261,-59.3 261,-49.65 261,-41.51"/>
<polygon fill="midnightblue" stroke="midnightblue" points="257.5,-68.43 261,-78.43 264.5,-68.43 257.5,-68.43"/>
</g>
<!-- Node9 -->
<g id="node9" class="node">
<title>Node9</title>
<g id="a_node9"><a xlink:href="../../d1/de0/mgr__at__cmd__list__mac_8c.html" target="_top" xlink:title="subset of AT commands concerning Kinéis Medium Acces Channel (MAC).">
<polygon fill="white" stroke="black" points="495,-0.5 495,-41.5 625,-41.5 625,-0.5 495,-0.5"/>
<text text-anchor="start" x="503" y="-29.5" font-family="Helvetica,sans-Serif" font-size="10.00">Kineis/App/Managers</text>
<text text-anchor="start" x="503" y="-18.5" font-family="Helvetica,sans-Serif" font-size="10.00">/MGR_AT_CMD/Src/mgr</text>
<text text-anchor="middle" x="560" y="-7.5" font-family="Helvetica,sans-Serif" font-size="10.00">_at_cmd_list_mac.c</text>
</a>
</g>
</g>
<!-- Node8&#45;&gt;Node9 -->
<g id="edge9" class="edge">
<title>Node8&#45;&gt;Node9</title>
<path fill="none" stroke="midnightblue" d="M335.54,-77.88C395.18,-62.45 452.32,-48.28 494.93,-37.83"/>
<polygon fill="midnightblue" stroke="midnightblue" points="334.36,-74.57 325.55,-80.47 336.11,-81.35 334.36,-74.57"/>
</g>
<!-- Node10&#45;&gt;Node6 -->
<g id="edge11" class="edge">
<title>Node10&#45;&gt;Node6</title>
<path fill="none" stroke="midnightblue" d="M128.79,-74.61C155.45,-64 186.61,-51.6 211.98,-41.51"/>
<polygon fill="midnightblue" stroke="midnightblue" points="127.18,-71.48 119.19,-78.43 129.77,-77.98 127.18,-71.48"/>
</g>
<!-- Node11 -->
<g id="node11" class="node">
<title>Node11</title>
<g id="a_node11"><a xlink:href="../../d0/d4a/mgr__at__cmd__list__previpass_8c.html" target="_top" xlink:title="subset of AT commands concerning satellite PASS predictions, usefull for Medium Acces">
<polygon fill="white" stroke="black" points="0.5,-0.5 0.5,-41.5 139.5,-41.5 139.5,-0.5 0.5,-0.5"/>
<text text-anchor="start" x="8.5" y="-29.5" font-family="Helvetica,sans-Serif" font-size="10.00">Kineis/App/Managers</text>
<text text-anchor="start" x="8.5" y="-18.5" font-family="Helvetica,sans-Serif" font-size="10.00">/MGR_AT_CMD/Src/mgr</text>
<text text-anchor="middle" x="70" y="-7.5" font-family="Helvetica,sans-Serif" font-size="10.00">_at_cmd_list_previpass.c</text>
</a>
</g>
</g>
<!-- Node10&#45;&gt;Node11 -->
<g id="edge12" class="edge">
<title>Node10&#45;&gt;Node11</title>
<path fill="none" stroke="midnightblue" d="M70,-68.3C70,-59.3 70,-49.65 70,-41.51"/>
<polygon fill="midnightblue" stroke="midnightblue" points="66.5,-68.43 70,-78.43 73.5,-68.43 66.5,-68.43"/>
</g>
<!-- Node12&#45;&gt;Node6 -->
<g id="edge14" class="edge">
<title>Node12&#45;&gt;Node6</title>
<path fill="none" stroke="midnightblue" d="M778.3,-78.05C778.2,-78.04 778.1,-78.02 778,-78 692.79,-62.81 445.17,-38.96 326.25,-27.94"/>
<polygon fill="midnightblue" stroke="midnightblue" points="777.4,-81.44 787.88,-79.89 778.72,-74.57 777.4,-81.44"/>
</g>
<!-- Node12&#45;&gt;Node7 -->
<g id="edge15" class="edge">
<title>Node12&#45;&gt;Node7</title>
<path fill="none" stroke="midnightblue" d="M858,-68.3C858,-59.3 858,-49.65 858,-41.51"/>
<polygon fill="midnightblue" stroke="midnightblue" points="854.5,-68.43 858,-78.43 861.5,-68.43 854.5,-68.43"/>
</g>
<!-- Node12&#45;&gt;Node9 -->
<g id="edge16" class="edge">
<title>Node12&#45;&gt;Node9</title>
<path fill="none" stroke="midnightblue" d="M778.05,-77.61C730.2,-65.41 670.15,-50.09 625.19,-38.62"/>
<polygon fill="midnightblue" stroke="midnightblue" points="777.2,-81.01 787.76,-80.09 778.93,-74.22 777.2,-81.01"/>
</g>
<!-- Node12&#45;&gt;Node13 -->
<g id="edge17" class="edge">
<title>Node12&#45;&gt;Node13</title>
<path fill="none" stroke="midnightblue" d="M923.9,-75.03C954.59,-64.33 990.71,-51.73 1020.05,-41.51"/>
<polygon fill="midnightblue" stroke="midnightblue" points="922.43,-71.83 914.14,-78.43 924.74,-78.44 922.43,-71.83"/>
</g>
<!-- Node18 -->
<g id="node18" class="node">
<title>Node18</title>
<g id="a_node18"><a xlink:href="../../dd/ddf/mcu__at__console_8c.html" target="_top" xlink:title="MCU wrapper for AT CMD console.">
<polygon fill="white" stroke="black" points="1181,-84 1181,-114 1291,-114 1291,-84 1181,-84"/>
<text text-anchor="start" x="1189" y="-102" font-family="Helvetica,sans-Serif" font-size="10.00">Kineis/App/Mcu/Src</text>
<text text-anchor="middle" x="1236" y="-91" font-family="Helvetica,sans-Serif" font-size="10.00">/mcu_at_console.c</text>
</a>
</g>
</g>
<!-- Node17&#45;&gt;Node18 -->
<g id="edge26" class="edge">
<title>Node17&#45;&gt;Node18</title>
<path fill="none" stroke="midnightblue" d="M1236,-151.59C1236,-139.26 1236,-124.72 1236,-114.23"/>
<polygon fill="midnightblue" stroke="midnightblue" points="1232.5,-151.7 1236,-161.7 1239.5,-151.71 1232.5,-151.7"/>
</g>
</g>
</svg>
