<?xml version="1.0" encoding="UTF-8" standalone="no"?>
<!DOCTYPE svg PUBLIC "-//W3C//DTD SVG 1.1//EN"
 "http://www.w3.org/Graphics/SVG/1.1/DTD/svg11.dtd">
<!-- Generated by graphviz version 2.43.0 (0)
 -->
<!-- Title: xor_block Pages: 1 -->
<svg width="338pt" height="104pt"
 viewBox="0.00 0.00 338.00 104.00" xmlns="http://www.w3.org/2000/svg" xmlns:xlink="http://www.w3.org/1999/xlink">
<g id="graph0" class="graph" transform="scale(1 1) rotate(0) translate(4 100)">
<title>xor_block</title>
<polygon fill="white" stroke="transparent" points="-4,4 -4,-100 334,-100 334,4 -4,4"/>
<!-- Node1 -->
<g id="node1" class="node">
<title>Node1</title>
<g id="a_node1"><a xlink:title=" ">
<polygon fill="#bfbfbf" stroke="black" points="266,-38.5 266,-57.5 330,-57.5 330,-38.5 266,-38.5"/>
<text text-anchor="middle" x="298" y="-45.5" font-family="Helvetica,sans-Serif" font-size="10.00">xor_block</text>
</a>
</g>
</g>
<!-- Node2 -->
<g id="node2" class="node">
<title>Node2</title>
<g id="a_node2"><a xlink:href="../../dd/d34/aes_8c.html#ae1911494dc4fea7f043ff14aac0b9b6d" target="_top" xlink:title=" ">
<polygon fill="white" stroke="black" points="140,-76.5 140,-95.5 230,-95.5 230,-76.5 140,-76.5"/>
<text text-anchor="middle" x="185" y="-83.5" font-family="Helvetica,sans-Serif" font-size="10.00">add_round_key</text>
</a>
</g>
</g>
<!-- Node1&#45;&gt;Node2 -->
<g id="edge1" class="edge">
<title>Node1&#45;&gt;Node2</title>
<path fill="none" stroke="midnightblue" d="M259.11,-60.97C244.32,-66.03 227.67,-71.73 214,-76.41"/>
<polygon fill="midnightblue" stroke="midnightblue" points="260.66,-64.14 268.99,-57.59 258.4,-57.52 260.66,-64.14"/>
</g>
<!-- Node3 -->
<g id="node3" class="node">
<title>Node3</title>
<g id="a_node3"><a xlink:href="../../dd/d34/aes_8c.html#afa9f83c53abecf3a81de7cb31ef04712" target="_top" xlink:title=" ">
<polygon fill="white" stroke="black" points="0,-38.5 0,-57.5 104,-57.5 104,-38.5 0,-38.5"/>
<text text-anchor="middle" x="52" y="-45.5" font-family="Helvetica,sans-Serif" font-size="10.00">mix_sub_columns</text>
</a>
</g>
</g>
<!-- Node1&#45;&gt;Node3 -->
<g id="edge5" class="edge">
<title>Node1&#45;&gt;Node3</title>
<path fill="none" stroke="midnightblue" d="M255.5,-48C213.72,-48 149.22,-48 104.27,-48"/>
<polygon fill="midnightblue" stroke="midnightblue" points="255.6,-51.5 265.6,-48 255.6,-44.5 255.6,-51.5"/>
</g>
<!-- Node4 -->
<g id="node4" class="node">
<title>Node4</title>
<g id="a_node4"><a xlink:href="../../dd/d34/aes_8c.html#a8166c0ad4d3789a4d2f4e83a3e5e4d97" target="_top" xlink:title=" ">
<polygon fill="white" stroke="black" points="142,-0.5 142,-19.5 228,-19.5 228,-0.5 142,-0.5"/>
<text text-anchor="middle" x="185" y="-7.5" font-family="Helvetica,sans-Serif" font-size="10.00">copy_and_key</text>
</a>
</g>
</g>
<!-- Node1&#45;&gt;Node4 -->
<g id="edge3" class="edge">
<title>Node1&#45;&gt;Node4</title>
<path fill="none" stroke="midnightblue" d="M259.11,-35.03C244.32,-29.97 227.67,-24.27 214,-19.59"/>
<polygon fill="midnightblue" stroke="midnightblue" points="258.4,-38.48 268.99,-38.41 260.66,-31.86 258.4,-38.48"/>
</g>
<!-- Node2&#45;&gt;Node3 -->
<g id="edge2" class="edge">
<title>Node2&#45;&gt;Node3</title>
<path fill="none" stroke="midnightblue" d="M141.29,-73.61C123.35,-68.41 102.8,-62.45 86.05,-57.59"/>
<polygon fill="midnightblue" stroke="midnightblue" points="140.36,-76.99 150.94,-76.41 142.31,-70.26 140.36,-76.99"/>
</g>
<!-- Node4&#45;&gt;Node3 -->
<g id="edge4" class="edge">
<title>Node4&#45;&gt;Node3</title>
<path fill="none" stroke="midnightblue" d="M141.29,-22.39C123.35,-27.59 102.8,-33.55 86.05,-38.41"/>
<polygon fill="midnightblue" stroke="midnightblue" points="142.31,-25.74 150.94,-19.59 140.36,-19.01 142.31,-25.74"/>
</g>
</g>
</svg>
