<?xml version="1.0" encoding="UTF-8" standalone="no"?>
<!DOCTYPE svg PUBLIC "-//W3C//DTD SVG 1.1//EN"
 "http://www.w3.org/Graphics/SVG/1.1/DTD/svg11.dtd">
<!-- Generated by graphviz version 2.43.0 (0)
 -->
<!-- Title: mix_sub_columns Pages: 1 -->
<svg width="346pt" height="332pt"
 viewBox="0.00 0.00 346.00 332.00" xmlns="http://www.w3.org/2000/svg" xmlns:xlink="http://www.w3.org/1999/xlink">
<g id="graph0" class="graph" transform="scale(1 1) rotate(0) translate(4 328)">
<title>mix_sub_columns</title>
<polygon fill="white" stroke="transparent" points="-4,4 -4,-328 342,-328 342,4 -4,4"/>
<!-- Node1 -->
<g id="node1" class="node">
<title>Node1</title>
<g id="a_node1"><a xlink:title=" ">
<polygon fill="#bfbfbf" stroke="black" points="0,-152.5 0,-171.5 104,-171.5 104,-152.5 0,-152.5"/>
<text text-anchor="middle" x="52" y="-159.5" font-family="Helvetica,sans-Serif" font-size="10.00">mix_sub_columns</text>
</a>
</g>
</g>
<!-- Node2 -->
<g id="node2" class="node">
<title>Node2</title>
<g id="a_node2"><a xlink:href="../../dd/d34/aes_8c.html#ae1911494dc4fea7f043ff14aac0b9b6d" target="_top" xlink:title=" ">
<polygon fill="white" stroke="black" points="144,-304.5 144,-323.5 234,-323.5 234,-304.5 144,-304.5"/>
<text text-anchor="middle" x="189" y="-311.5" font-family="Helvetica,sans-Serif" font-size="10.00">add_round_key</text>
</a>
</g>
</g>
<!-- Node1&#45;&gt;Node2 -->
<g id="edge1" class="edge">
<title>Node1&#45;&gt;Node2</title>
<path fill="none" stroke="midnightblue" d="M57.36,-171.57C68.3,-194.64 98.95,-254.09 140,-290 144.21,-293.68 149.08,-296.95 154.07,-299.81"/>
<polygon fill="midnightblue" stroke="midnightblue" points="152.59,-302.98 163.08,-304.5 155.82,-296.77 152.59,-302.98"/>
</g>
<!-- Node3 -->
<g id="node3" class="node">
<title>Node3</title>
<g id="a_node3"><a xlink:href="../../dd/d34/aes_8c.html#aafcd677b2384ebb1d46cf3dec70d3707" target="_top" xlink:title=" ">
<polygon fill="white" stroke="black" points="274,-266.5 274,-285.5 338,-285.5 338,-266.5 274,-266.5"/>
<text text-anchor="middle" x="306" y="-273.5" font-family="Helvetica,sans-Serif" font-size="10.00">xor_block</text>
</a>
</g>
</g>
<!-- Node1&#45;&gt;Node3 -->
<g id="edge11" class="edge">
<title>Node1&#45;&gt;Node3</title>
<path fill="none" stroke="midnightblue" d="M58.48,-171.62C70.39,-191.51 100.76,-236.97 140,-257 178.64,-276.72 228.84,-279.83 263.68,-279.03"/>
<polygon fill="midnightblue" stroke="midnightblue" points="264.09,-282.52 273.97,-278.68 263.85,-275.52 264.09,-282.52"/>
</g>
<!-- Node4 -->
<g id="node4" class="node">
<title>Node4</title>
<g id="a_node4"><a xlink:href="../../db/dcb/aes_8h.html#abf8246507cac0e3fd44c63d6e06bfeb8" target="_top" xlink:title=" ">
<polygon fill="white" stroke="black" points="140,-228.5 140,-247.5 238,-247.5 238,-228.5 140,-228.5"/>
<text text-anchor="middle" x="189" y="-235.5" font-family="Helvetica,sans-Serif" font-size="10.00">aes_cbc_decrypt</text>
</a>
</g>
</g>
<!-- Node1&#45;&gt;Node4 -->
<g id="edge3" class="edge">
<title>Node1&#45;&gt;Node4</title>
<path fill="none" stroke="midnightblue" d="M65.76,-171.55C82.29,-183.64 112.27,-204.62 140,-219 143.76,-220.95 147.77,-222.83 151.8,-224.59"/>
<polygon fill="midnightblue" stroke="midnightblue" points="150.59,-227.88 161.16,-228.49 153.28,-221.41 150.59,-227.88"/>
</g>
<!-- Node5 -->
<g id="node5" class="node">
<title>Node5</title>
<g id="a_node5"><a xlink:href="../../db/dcb/aes_8h.html#aafdeb6720bdc985cefd83f837bbb55da" target="_top" xlink:title=" ">
<polygon fill="white" stroke="black" points="140,-190.5 140,-209.5 238,-209.5 238,-190.5 140,-190.5"/>
<text text-anchor="middle" x="189" y="-197.5" font-family="Helvetica,sans-Serif" font-size="10.00">aes_cbc_encrypt</text>
</a>
</g>
</g>
<!-- Node1&#45;&gt;Node5 -->
<g id="edge4" class="edge">
<title>Node1&#45;&gt;Node5</title>
<path fill="none" stroke="midnightblue" d="M87.07,-171.59C104.41,-176.47 125.7,-182.46 144.25,-187.68"/>
<polygon fill="midnightblue" stroke="midnightblue" points="143.37,-191.07 153.94,-190.41 145.27,-184.34 143.37,-191.07"/>
</g>
<!-- Node6 -->
<g id="node6" class="node">
<title>Node6</title>
<g id="a_node6"><a xlink:href="../../db/dcb/aes_8h.html#a404435662fd18973152a775a9632f88c" target="_top" xlink:title=" ">
<polygon fill="white" stroke="black" points="151,-152.5 151,-171.5 227,-171.5 227,-152.5 151,-152.5"/>
<text text-anchor="middle" x="189" y="-159.5" font-family="Helvetica,sans-Serif" font-size="10.00">aes_decrypt</text>
</a>
</g>
</g>
<!-- Node1&#45;&gt;Node6 -->
<g id="edge5" class="edge">
<title>Node1&#45;&gt;Node6</title>
<path fill="none" stroke="midnightblue" d="M104.04,-162C116.05,-162 128.8,-162 140.64,-162"/>
<polygon fill="midnightblue" stroke="midnightblue" points="140.78,-165.5 150.78,-162 140.78,-158.5 140.78,-165.5"/>
</g>
<!-- Node7 -->
<g id="node7" class="node">
<title>Node7</title>
<g id="a_node7"><a xlink:href="../../db/dcb/aes_8h.html#ac88fd4e9cb53f78713a8fce1a6fcffc0" target="_top" xlink:title=" ">
<polygon fill="white" stroke="black" points="151,-114.5 151,-133.5 227,-133.5 227,-114.5 151,-114.5"/>
<text text-anchor="middle" x="189" y="-121.5" font-family="Helvetica,sans-Serif" font-size="10.00">aes_encrypt</text>
</a>
</g>
</g>
<!-- Node1&#45;&gt;Node7 -->
<g id="edge6" class="edge">
<title>Node1&#45;&gt;Node7</title>
<path fill="none" stroke="midnightblue" d="M87.07,-152.41C104.41,-147.53 125.7,-141.54 144.25,-136.32"/>
<polygon fill="midnightblue" stroke="midnightblue" points="145.27,-139.66 153.94,-133.59 143.37,-132.93 145.27,-139.66"/>
</g>
<!-- Node8 -->
<g id="node8" class="node">
<title>Node8</title>
<g id="a_node8"><a xlink:href="../../db/dcb/aes_8h.html#a0ffc37ee1bbb50e7147bf6e7de5d73a1" target="_top" xlink:title=" ">
<polygon fill="white" stroke="black" points="150.5,-76.5 150.5,-95.5 227.5,-95.5 227.5,-76.5 150.5,-76.5"/>
<text text-anchor="middle" x="189" y="-83.5" font-family="Helvetica,sans-Serif" font-size="10.00">aes_set_key</text>
</a>
</g>
</g>
<!-- Node1&#45;&gt;Node8 -->
<g id="edge7" class="edge">
<title>Node1&#45;&gt;Node8</title>
<path fill="none" stroke="midnightblue" d="M65.76,-152.45C82.29,-140.36 112.27,-119.38 140,-105 143.76,-103.05 147.77,-101.17 151.8,-99.41"/>
<polygon fill="midnightblue" stroke="midnightblue" points="153.28,-102.59 161.16,-95.51 150.59,-96.12 153.28,-102.59"/>
</g>
<!-- Node9 -->
<g id="node9" class="node">
<title>Node9</title>
<g id="a_node9"><a xlink:href="../../dd/d34/aes_8c.html#a8166c0ad4d3789a4d2f4e83a3e5e4d97" target="_top" xlink:title=" ">
<polygon fill="white" stroke="black" points="146,-38.5 146,-57.5 232,-57.5 232,-38.5 146,-38.5"/>
<text text-anchor="middle" x="189" y="-45.5" font-family="Helvetica,sans-Serif" font-size="10.00">copy_and_key</text>
</a>
</g>
</g>
<!-- Node1&#45;&gt;Node9 -->
<g id="edge8" class="edge">
<title>Node1&#45;&gt;Node9</title>
<path fill="none" stroke="midnightblue" d="M59.55,-152.31C72.73,-133.48 104.27,-91.61 140,-67 142.69,-65.14 145.6,-63.43 148.59,-61.86"/>
<polygon fill="midnightblue" stroke="midnightblue" points="150.18,-64.98 157.74,-57.56 147.2,-58.64 150.18,-64.98"/>
</g>
<!-- Node10 -->
<g id="node10" class="node">
<title>Node10</title>
<g id="a_node10"><a xlink:href="../../dd/d34/aes_8c.html#a7b4821df13a3c7109fe5a6d588f0f9d3" target="_top" xlink:title=" ">
<polygon fill="white" stroke="black" points="144.5,-0.5 144.5,-19.5 233.5,-19.5 233.5,-0.5 144.5,-0.5"/>
<text text-anchor="middle" x="189" y="-7.5" font-family="Helvetica,sans-Serif" font-size="10.00">shift_sub_rows</text>
</a>
</g>
</g>
<!-- Node1&#45;&gt;Node10 -->
<g id="edge10" class="edge">
<title>Node1&#45;&gt;Node10</title>
<path fill="none" stroke="midnightblue" d="M56.91,-152.17C67.03,-127.91 96.38,-64.58 140,-29 142.04,-27.34 144.23,-25.81 146.53,-24.4"/>
<polygon fill="midnightblue" stroke="midnightblue" points="148.52,-27.31 155.75,-19.57 145.27,-21.11 148.52,-27.31"/>
</g>
<!-- Node2&#45;&gt;Node3 -->
<g id="edge2" class="edge">
<title>Node2&#45;&gt;Node3</title>
<path fill="none" stroke="midnightblue" d="M219.02,-304.41C233.32,-299.69 250.76,-293.92 266.19,-288.82"/>
<polygon fill="midnightblue" stroke="midnightblue" points="267.59,-292.05 275.99,-285.59 265.4,-285.4 267.59,-292.05"/>
</g>
<!-- Node9&#45;&gt;Node3 -->
<g id="edge9" class="edge">
<title>Node9&#45;&gt;Node3</title>
<path fill="none" stroke="midnightblue" d="M225.35,-57.7C230.04,-60.15 234.45,-63.2 238,-67 289.16,-121.69 301.25,-215.58 304.11,-256.25"/>
<polygon fill="midnightblue" stroke="midnightblue" points="300.62,-256.46 304.7,-266.24 307.61,-256.05 300.62,-256.46"/>
</g>
</g>
</svg>
