<?xml version="1.0" encoding="UTF-8" standalone="no"?>
<!DOCTYPE svg PUBLIC "-//W3C//DTD SVG 1.1//EN"
 "http://www.w3.org/Graphics/SVG/1.1/DTD/svg11.dtd">
<!-- Generated by graphviz version 2.43.0 (0)
 -->
<!-- Title: Kineis/App/Managers/MGR_AT_CMD/Src/mgr_at_cmd_list_certif.c Pages: 1 -->
<!--zoomable 218 -->
<svg id="main" version="1.1" xmlns="http://www.w3.org/2000/svg" xmlns:xlink="http://www.w3.org/1999/xlink" xml:space="preserve" onload="init(evt)">
<style type="text/css"><![CDATA[
.edge:hover path { stroke: red; }
.edge:hover polygon { stroke: red; fill: red; }
]]></style>
<script type="text/javascript"><![CDATA[
var edges = document.getElementsByTagName('g');
if (edges && edges.length) {
  for (var i=0;i<edges.length;i++) {
    if (edges[i].id.substr(0,4)=='edge') {
      edges[i].setAttribute('class','edge');
    }
  }
}
]]></script>
        <defs>
                <circle id="rim" cx="0" cy="0" r="7"/>
                <circle id="rim2" cx="0" cy="0" r="3.5"/>
                <g id="zoomPlus">
                        <use xlink:href="#rim" fill="#404040">
                                <set attributeName="fill" to="#808080" begin="zoomplus.mouseover" end="zoomplus.mouseout"/>
                        </use>
                        <path d="M-4,0h8M0,-4v8" fill="none" stroke="white" stroke-width="1.5" pointer-events="none"/>
                </g>
                <g id="zoomMin">
                        <use xlink:href="#rim" fill="#404040">
                                <set attributeName="fill" to="#808080" begin="zoomminus.mouseover" end="zoomminus.mouseout"/>
                        </use>
                        <path d="M-4,0h8" fill="none" stroke="white" stroke-width="1.5" pointer-events="none"/>
                </g>
                <g id="dirArrow">
                        <path fill="none" stroke="white" stroke-width="1.5" d="M0,-3.0v7 M-2.5,-0.5L0,-3.0L2.5,-0.5"/>
                </g>
               <g id="resetDef">
                       <use xlink:href="#rim2" fill="#404040">
                               <set attributeName="fill" to="#808080" begin="reset.mouseover" end="reset.mouseout"/>
                       </use>
               </g>
        </defs>

<script type="text/javascript">
var viewWidth = 819;
var viewHeight = 218;
var sectionId = 'dynsection-0';
</script>
<script xlink:href="../../svgpan.js"/>
<svg id="graph" class="graph">
<g id="viewport">
<title>Kineis/App/Managers/MGR_AT_CMD/Src/mgr_at_cmd_list_certif.c</title>
<polygon fill="white" stroke="transparent" points="-4,4 -4,-214 814.5,-214 814.5,4 -4,4"/>
<!-- Node1 -->
<g id="node1" class="node">
<title>Node1</title>
<g id="a_node1"><a xlink:title="subset of AT commands concerning specifics for certification">
<polygon fill="#bfbfbf" stroke="black" points="443,-168.5 443,-209.5 573,-209.5 573,-168.5 443,-168.5"/>
<text text-anchor="start" x="451" y="-197.5" font-family="Helvetica,sans-Serif" font-size="10.00">Kineis/App/Managers</text>
<text text-anchor="start" x="451" y="-186.5" font-family="Helvetica,sans-Serif" font-size="10.00">/MGR_AT_CMD/Src/mgr</text>
<text text-anchor="middle" x="508" y="-175.5" font-family="Helvetica,sans-Serif" font-size="10.00">_at_cmd_list_certif.c</text>
</a>
</g>
</g>
<!-- Node2 -->
<g id="node2" class="node">
<title>Node2</title>
<g id="a_node2"><a xlink:title=" ">
<polygon fill="white" stroke="#bfbfbf" points="0,-112.5 0,-131.5 50,-131.5 50,-112.5 0,-112.5"/>
<text text-anchor="middle" x="25" y="-119.5" font-family="Helvetica,sans-Serif" font-size="10.00">stdio.h</text>
</a>
</g>
</g>
<!-- Node1&#45;&gt;Node2 -->
<g id="edge1" class="edge">
<title>Node1&#45;&gt;Node2</title>
<path fill="none" stroke="midnightblue" d="M442.88,-182.65C357.2,-175 201.84,-159 60.33,-132.03"/>
<polygon fill="midnightblue" stroke="midnightblue" points="60.65,-128.52 50.16,-130.07 59.32,-135.4 60.65,-128.52"/>
</g>
<!-- Node3 -->
<g id="node3" class="node">
<title>Node3</title>
<g id="a_node3"><a xlink:title=" ">
<polygon fill="white" stroke="#bfbfbf" points="68.5,-112.5 68.5,-131.5 121.5,-131.5 121.5,-112.5 68.5,-112.5"/>
<text text-anchor="middle" x="95" y="-119.5" font-family="Helvetica,sans-Serif" font-size="10.00">string.h</text>
</a>
</g>
</g>
<!-- Node1&#45;&gt;Node3 -->
<g id="edge2" class="edge">
<title>Node1&#45;&gt;Node3</title>
<path fill="none" stroke="midnightblue" d="M442.93,-179.54C368.5,-169.56 243.09,-151.79 136,-132 134.71,-131.76 133.4,-131.51 132.08,-131.25"/>
<polygon fill="midnightblue" stroke="midnightblue" points="132.35,-127.74 121.85,-129.16 130.95,-134.6 132.35,-127.74"/>
</g>
<!-- Node4 -->
<g id="node4" class="node">
<title>Node4</title>
<g id="a_node4"><a xlink:title=" ">
<polygon fill="white" stroke="#bfbfbf" points="208.5,-0.5 208.5,-19.5 261.5,-19.5 261.5,-0.5 208.5,-0.5"/>
<text text-anchor="middle" x="235" y="-7.5" font-family="Helvetica,sans-Serif" font-size="10.00">stdlib.h</text>
</a>
</g>
</g>
<!-- Node1&#45;&gt;Node4 -->
<g id="edge3" class="edge">
<title>Node1&#45;&gt;Node4</title>
<path fill="none" stroke="midnightblue" d="M442.79,-188.06C362.69,-184.15 229.97,-163.84 169,-76 154.91,-55.71 181.5,-36.36 205.01,-24.14"/>
<polygon fill="midnightblue" stroke="midnightblue" points="206.68,-27.21 214.11,-19.66 203.59,-20.93 206.68,-27.21"/>
</g>
<!-- Node5 -->
<g id="node5" class="node">
<title>Node5</title>
<g id="a_node5"><a xlink:href="../../d8/d85/kns__types_8h.html" target="_top" xlink:title="Kineis types definition.">
<polygon fill="white" stroke="black" points="537.5,-56.5 537.5,-75.5 612.5,-75.5 612.5,-56.5 537.5,-56.5"/>
<text text-anchor="middle" x="575" y="-63.5" font-family="Helvetica,sans-Serif" font-size="10.00">kns_types.h</text>
</a>
</g>
</g>
<!-- Node1&#45;&gt;Node5 -->
<g id="edge4" class="edge">
<title>Node1&#45;&gt;Node5</title>
<path fill="none" stroke="midnightblue" d="M521.45,-168.42C528.5,-157.83 537.08,-144.42 544,-132 552.64,-116.49 561.24,-98.18 567.18,-84.95"/>
<polygon fill="midnightblue" stroke="midnightblue" points="570.47,-86.15 571.32,-75.59 564.07,-83.31 570.47,-86.15"/>
</g>
<!-- Node7 -->
<g id="node7" class="node">
<title>Node7</title>
<g id="a_node7"><a xlink:href="../../df/d53/kns__rf_8h.html" target="_top" xlink:title="Device communication driver for Kinéis radio frequence.">
<polygon fill="white" stroke="black" points="480.5,-112.5 480.5,-131.5 535.5,-131.5 535.5,-112.5 480.5,-112.5"/>
<text text-anchor="middle" x="508" y="-119.5" font-family="Helvetica,sans-Serif" font-size="10.00">kns_rf.h</text>
</a>
</g>
</g>
<!-- Node1&#45;&gt;Node7 -->
<g id="edge6" class="edge">
<title>Node1&#45;&gt;Node7</title>
<path fill="none" stroke="midnightblue" d="M508,-168.5C508,-160.07 508,-150.24 508,-141.87"/>
<polygon fill="midnightblue" stroke="midnightblue" points="511.5,-141.65 508,-131.65 504.5,-141.65 511.5,-141.65"/>
</g>
<!-- Node9 -->
<g id="node9" class="node">
<title>Node9</title>
<g id="a_node9"><a xlink:href="../../d5/d58/mgr__at__cmd__common_8h.html" target="_top" xlink:title="header file for common part of the AT cmd manager">
<polygon fill="white" stroke="black" points="328,-112.5 328,-131.5 462,-131.5 462,-112.5 328,-112.5"/>
<text text-anchor="middle" x="395" y="-119.5" font-family="Helvetica,sans-Serif" font-size="10.00">mgr_at_cmd_common.h</text>
</a>
</g>
</g>
<!-- Node1&#45;&gt;Node9 -->
<g id="edge10" class="edge">
<title>Node1&#45;&gt;Node9</title>
<path fill="none" stroke="midnightblue" d="M474.1,-168.5C456.27,-158.24 434.85,-145.93 418.8,-136.69"/>
<polygon fill="midnightblue" stroke="midnightblue" points="420.46,-133.6 410.04,-131.65 416.97,-139.67 420.46,-133.6"/>
</g>
<!-- Node12 -->
<g id="node12" class="node">
<title>Node12</title>
<g id="a_node12"><a xlink:href="../../d2/d2e/mgr__log_8h.html" target="_top" xlink:title="logger main header file">
<polygon fill="white" stroke="black" points="630.5,-112.5 630.5,-131.5 695.5,-131.5 695.5,-112.5 630.5,-112.5"/>
<text text-anchor="middle" x="663" y="-119.5" font-family="Helvetica,sans-Serif" font-size="10.00">mgr_log.h</text>
</a>
</g>
</g>
<!-- Node1&#45;&gt;Node12 -->
<g id="edge18" class="edge">
<title>Node1&#45;&gt;Node12</title>
<path fill="none" stroke="midnightblue" d="M554.51,-168.5C579.98,-157.81 610.81,-144.89 633.09,-135.54"/>
<polygon fill="midnightblue" stroke="midnightblue" points="634.5,-138.75 642.37,-131.65 631.79,-132.29 634.5,-138.75"/>
</g>
<!-- Node14 -->
<g id="node14" class="node">
<title>Node14</title>
<g id="a_node14"><a xlink:href="../../d8/d77/kns__assert_8h.html" target="_top" xlink:title="ASSERT handling for kineis stack. Handle way to reset device if needed.">
<polygon fill="white" stroke="black" points="631,-56.5 631,-75.5 709,-75.5 709,-56.5 631,-56.5"/>
<text text-anchor="middle" x="670" y="-63.5" font-family="Helvetica,sans-Serif" font-size="10.00">kns_assert.h</text>
</a>
</g>
</g>
<!-- Node1&#45;&gt;Node14 -->
<g id="edge20" class="edge">
<title>Node1&#45;&gt;Node14</title>
<path fill="none" stroke="midnightblue" d="M534.39,-168.29C566.89,-144.01 621.35,-103.34 650.38,-81.66"/>
<polygon fill="midnightblue" stroke="midnightblue" points="652.6,-84.36 658.52,-75.57 648.41,-78.75 652.6,-84.36"/>
</g>
<!-- Node15 -->
<g id="node15" class="node">
<title>Node15</title>
<g id="a_node15"><a xlink:href="../../d5/d04/kns__app__conf_8h.html" target="_top" xlink:title="Kineis Application configurations depending on platform used.">
<polygon fill="white" stroke="black" points="714,-112.5 714,-131.5 806,-131.5 806,-112.5 714,-112.5"/>
<text text-anchor="middle" x="760" y="-119.5" font-family="Helvetica,sans-Serif" font-size="10.00">kns_app_conf.h</text>
</a>
</g>
</g>
<!-- Node1&#45;&gt;Node15 -->
<g id="edge22" class="edge">
<title>Node1&#45;&gt;Node15</title>
<path fill="none" stroke="midnightblue" d="M573.22,-171.18C618.57,-159.48 677.72,-144.22 717.19,-134.04"/>
<polygon fill="midnightblue" stroke="midnightblue" points="718.22,-137.39 727.03,-131.51 716.47,-130.61 718.22,-137.39"/>
</g>
<!-- Node6 -->
<g id="node6" class="node">
<title>Node6</title>
<g id="a_node6"><a xlink:title=" ">
<polygon fill="white" stroke="#bfbfbf" points="482.5,-0.5 482.5,-19.5 535.5,-19.5 535.5,-0.5 482.5,-0.5"/>
<text text-anchor="middle" x="509" y="-7.5" font-family="Helvetica,sans-Serif" font-size="10.00">stdint.h</text>
</a>
</g>
</g>
<!-- Node5&#45;&gt;Node6 -->
<g id="edge5" class="edge">
<title>Node5&#45;&gt;Node6</title>
<path fill="none" stroke="midnightblue" d="M564.4,-56.32C554.54,-48.26 539.65,-36.08 527.78,-26.37"/>
<polygon fill="midnightblue" stroke="midnightblue" points="529.75,-23.46 519.8,-19.83 525.32,-28.88 529.75,-23.46"/>
</g>
<!-- Node7&#45;&gt;Node5 -->
<g id="edge9" class="edge">
<title>Node7&#45;&gt;Node5</title>
<path fill="none" stroke="midnightblue" d="M518.76,-112.32C528.77,-104.26 543.89,-92.08 555.93,-82.37"/>
<polygon fill="midnightblue" stroke="midnightblue" points="558.45,-84.83 564.04,-75.83 554.06,-79.38 558.45,-84.83"/>
</g>
<!-- Node7&#45;&gt;Node6 -->
<g id="edge8" class="edge">
<title>Node7&#45;&gt;Node6</title>
<path fill="none" stroke="midnightblue" d="M508.08,-112.37C508.24,-94.62 508.61,-53.67 508.83,-29.6"/>
<polygon fill="midnightblue" stroke="midnightblue" points="512.33,-29.62 508.92,-19.59 505.33,-29.56 512.33,-29.62"/>
</g>
<!-- Node8 -->
<g id="node8" class="node">
<title>Node8</title>
<g id="a_node8"><a xlink:title=" ">
<polygon fill="white" stroke="#bfbfbf" points="364,-0.5 364,-19.5 426,-19.5 426,-0.5 364,-0.5"/>
<text text-anchor="middle" x="395" y="-7.5" font-family="Helvetica,sans-Serif" font-size="10.00">stdbool.h</text>
</a>
</g>
</g>
<!-- Node7&#45;&gt;Node8 -->
<g id="edge7" class="edge">
<title>Node7&#45;&gt;Node8</title>
<path fill="none" stroke="midnightblue" d="M499.13,-112.37C480.15,-93.89 435.36,-50.29 411.17,-26.74"/>
<polygon fill="midnightblue" stroke="midnightblue" points="413.43,-24.06 403.83,-19.59 408.55,-29.07 413.43,-24.06"/>
</g>
<!-- Node9&#45;&gt;Node6 -->
<g id="edge11" class="edge">
<title>Node9&#45;&gt;Node6</title>
<path fill="none" stroke="midnightblue" d="M403.95,-112.37C423.09,-93.89 468.28,-50.29 492.68,-26.74"/>
<polygon fill="midnightblue" stroke="midnightblue" points="495.33,-29.05 500.1,-19.59 490.47,-24.02 495.33,-29.05"/>
</g>
<!-- Node9&#45;&gt;Node8 -->
<g id="edge12" class="edge">
<title>Node9&#45;&gt;Node8</title>
<path fill="none" stroke="midnightblue" d="M395,-112.37C395,-94.62 395,-53.67 395,-29.6"/>
<polygon fill="midnightblue" stroke="midnightblue" points="398.5,-29.59 395,-19.59 391.5,-29.59 398.5,-29.59"/>
</g>
<!-- Node10 -->
<g id="node10" class="node">
<title>Node10</title>
<g id="a_node10"><a xlink:href="../../df/d36/strutil__lib_8h.html" target="_top" xlink:title="small utilities to manipulate strings">
<polygon fill="white" stroke="black" points="295.5,-56.5 295.5,-75.5 366.5,-75.5 366.5,-56.5 295.5,-56.5"/>
<text text-anchor="middle" x="331" y="-63.5" font-family="Helvetica,sans-Serif" font-size="10.00">strutil_lib.h</text>
</a>
</g>
</g>
<!-- Node9&#45;&gt;Node10 -->
<g id="edge13" class="edge">
<title>Node9&#45;&gt;Node10</title>
<path fill="none" stroke="midnightblue" d="M384.72,-112.32C375.16,-104.26 360.72,-92.08 349.22,-82.37"/>
<polygon fill="midnightblue" stroke="midnightblue" points="351.37,-79.61 341.47,-75.83 346.86,-84.96 351.37,-79.61"/>
</g>
<!-- Node11 -->
<g id="node11" class="node">
<title>Node11</title>
<g id="a_node11"><a xlink:href="../../d9/dc4/kineis__sw__conf_8h.html" target="_top" xlink:title="Kineis stack SW configurations depending on platform used.">
<polygon fill="white" stroke="black" points="178.5,-56.5 178.5,-75.5 277.5,-75.5 277.5,-56.5 178.5,-56.5"/>
<text text-anchor="middle" x="228" y="-63.5" font-family="Helvetica,sans-Serif" font-size="10.00">kineis_sw_conf.h</text>
</a>
</g>
</g>
<!-- Node9&#45;&gt;Node11 -->
<g id="edge17" class="edge">
<title>Node9&#45;&gt;Node11</title>
<path fill="none" stroke="midnightblue" d="M368.54,-112.44C340.32,-103.32 295.46,-88.81 264.03,-78.65"/>
<polygon fill="midnightblue" stroke="midnightblue" points="264.93,-75.26 254.34,-75.52 262.78,-81.92 264.93,-75.26"/>
</g>
<!-- Node10&#45;&gt;Node4 -->
<g id="edge16" class="edge">
<title>Node10&#45;&gt;Node4</title>
<path fill="none" stroke="midnightblue" d="M315.58,-56.32C300.46,-47.82 277.18,-34.73 259.53,-24.8"/>
<polygon fill="midnightblue" stroke="midnightblue" points="260.82,-21.51 250.39,-19.65 257.39,-27.61 260.82,-21.51"/>
</g>
<!-- Node10&#45;&gt;Node6 -->
<g id="edge14" class="edge">
<title>Node10&#45;&gt;Node6</title>
<path fill="none" stroke="midnightblue" d="M359.2,-56.44C389.85,-47.15 438.93,-32.26 472.5,-22.07"/>
<polygon fill="midnightblue" stroke="midnightblue" points="473.83,-25.33 482.38,-19.08 471.8,-18.63 473.83,-25.33"/>
</g>
<!-- Node10&#45;&gt;Node8 -->
<g id="edge15" class="edge">
<title>Node10&#45;&gt;Node8</title>
<path fill="none" stroke="midnightblue" d="M341.28,-56.32C350.84,-48.26 365.28,-36.08 376.78,-26.37"/>
<polygon fill="midnightblue" stroke="midnightblue" points="379.14,-28.96 384.53,-19.83 374.63,-23.61 379.14,-28.96"/>
</g>
<!-- Node13 -->
<g id="node13" class="node">
<title>Node13</title>
<g id="a_node13"><a xlink:href="../../d9/d70/mgr__log__rtc_8h.html" target="_top" xlink:title=": Header for mgr_log_rtc.c file. This file contains log routine concerning RTC. Thus there is a depen...">
<polygon fill="white" stroke="black" points="727.5,-56.5 727.5,-75.5 810.5,-75.5 810.5,-56.5 727.5,-56.5"/>
<text text-anchor="middle" x="769" y="-63.5" font-family="Helvetica,sans-Serif" font-size="10.00">mgr_log_rtc.h</text>
</a>
</g>
</g>
<!-- Node12&#45;&gt;Node13 -->
<g id="edge19" class="edge">
<title>Node12&#45;&gt;Node13</title>
<path fill="none" stroke="midnightblue" d="M680.03,-112.32C697.03,-103.66 723.38,-90.24 742.99,-80.25"/>
<polygon fill="midnightblue" stroke="midnightblue" points="744.69,-83.31 752.01,-75.65 741.51,-77.08 744.69,-83.31"/>
</g>
<!-- Node14&#45;&gt;Node6 -->
<g id="edge21" class="edge">
<title>Node14&#45;&gt;Node6</title>
<path fill="none" stroke="midnightblue" d="M644.49,-56.44C617.4,-47.36 574.41,-32.94 544.13,-22.78"/>
<polygon fill="midnightblue" stroke="midnightblue" points="544.99,-19.38 534.39,-19.52 542.76,-26.01 544.99,-19.38"/>
</g>
</g>
</svg>
        <g id="navigator" transform="translate(0 0)" fill="#404254">
                <rect fill="#f2f5e9" fill-opacity="0.5" stroke="#606060" stroke-width=".5" x="0" y="0" width="60" height="60"/>
                <use id="zoomplus" xlink:href="#zoomPlus" x="17" y="9" onmousedown="handleZoom(evt,'in')"/>
                <use id="zoomminus" xlink:href="#zoomMin" x="42" y="9" onmousedown="handleZoom(evt,'out')"/>
                <use id="reset" xlink:href="#resetDef" x="30" y="36" onmousedown="handleReset()"/>
                <g id="arrowUp" xlink:href="#dirArrow" transform="translate(30 24)" onmousedown="handlePan(0,-1)">
                  <use xlink:href="#rim" fill="#404040">
                        <set attributeName="fill" to="#808080" begin="arrowUp.mouseover" end="arrowUp.mouseout"/>
                  </use>
                  <path fill="none" stroke="white" stroke-width="1.5" d="M0,-3.0v7 M-2.5,-0.5L0,-3.0L2.5,-0.5"/>
                </g>
                <g id="arrowRight" xlink:href="#dirArrow" transform="rotate(90) translate(36 -43)" onmousedown="handlePan(1,0)">
                  <use xlink:href="#rim" fill="#404040">
                        <set attributeName="fill" to="#808080" begin="arrowRight.mouseover" end="arrowRight.mouseout"/>
                  </use>
                  <path fill="none" stroke="white" stroke-width="1.5" d="M0,-3.0v7 M-2.5,-0.5L0,-3.0L2.5,-0.5"/>
                </g>
                <g id="arrowDown" xlink:href="#dirArrow" transform="rotate(180) translate(-30 -48)" onmousedown="handlePan(0,1)">
                  <use xlink:href="#rim" fill="#404040">
                        <set attributeName="fill" to="#808080" begin="arrowDown.mouseover" end="arrowDown.mouseout"/>
                  </use>
                  <path fill="none" stroke="white" stroke-width="1.5" d="M0,-3.0v7 M-2.5,-0.5L0,-3.0L2.5,-0.5"/>
                </g>
                <g id="arrowLeft" xlink:href="#dirArrow" transform="rotate(270) translate(-36 17)" onmousedown="handlePan(-1,0)">
                  <use xlink:href="#rim" fill="#404040">
                        <set attributeName="fill" to="#808080" begin="arrowLeft.mouseover" end="arrowLeft.mouseout"/>
                  </use>
                  <path fill="none" stroke="white" stroke-width="1.5" d="M0,-3.0v7 M-2.5,-0.5L0,-3.0L2.5,-0.5"/>
                </g>
        </g>
        <svg viewBox="0 0 15 15" width="100%" height="30px" preserveAspectRatio="xMaxYMin meet">
         <g id="arrow_out" transform="scale(0.3 0.3)">
          <a xlink:href="mgr__at__cmd__list__certif_8c__incl_org.svg" target="_base">
           <rect id="button" ry="5" rx="5" y="6" x="6" height="38" width="38"
                fill="#f2f5e9" fill-opacity="0.5" stroke="#606060" stroke-width="1.0"/>
           <path id="arrow"
             d="M 11.500037,31.436501 C 11.940474,20.09759 22.043105,11.32322 32.158766,21.979434 L 37.068811,17.246167 C 37.068811,17.246167 37.088388,32 37.088388,32 L 22.160133,31.978069 C 22.160133,31.978069 26.997745,27.140456 26.997745,27.140456 C 18.528582,18.264221 13.291696,25.230495 11.500037,31.436501 z"
             style="fill:#404040;"/>
          </a>
         </g>
        </svg>
</svg>
