<?xml version="1.0" encoding="UTF-8" standalone="no"?>
<!DOCTYPE svg PUBLIC "-//W3C//DTD SVG 1.1//EN"
 "http://www.w3.org/Graphics/SVG/1.1/DTD/svg11.dtd">
<!-- Generated by graphviz version 2.43.0 (0)
 -->
<!-- Title: Kineis/Extdep/Mcu/Src/mcu_tim.c Pages: 1 -->
<svg width="395pt" height="207pt"
 viewBox="0.00 0.00 394.50 207.00" xmlns="http://www.w3.org/2000/svg" xmlns:xlink="http://www.w3.org/1999/xlink">
<g id="graph0" class="graph" transform="scale(1 1) rotate(0) translate(4 203)">
<title>Kineis/Extdep/Mcu/Src/mcu_tim.c</title>
<polygon fill="white" stroke="transparent" points="-4,4 -4,-203 390.5,-203 390.5,4 -4,4"/>
<!-- Node1 -->
<g id="node1" class="node">
<title>Node1</title>
<g id="a_node1"><a xlink:title="MCU wrappers for timer or non&#45;blocking delays used by Kineis stack.">
<polygon fill="#bfbfbf" stroke="black" points="154.5,-168.5 154.5,-198.5 279.5,-198.5 279.5,-168.5 154.5,-168.5"/>
<text text-anchor="start" x="162.5" y="-186.5" font-family="Helvetica,sans-Serif" font-size="10.00">Kineis/Extdep/Mcu/Src</text>
<text text-anchor="middle" x="217" y="-175.5" font-family="Helvetica,sans-Serif" font-size="10.00">/mcu_tim.c</text>
</a>
</g>
</g>
<!-- Node2 -->
<g id="node2" class="node">
<title>Node2</title>
<g id="a_node2"><a xlink:href="../../d5/d04/kns__app__conf_8h.html" target="_top" xlink:title="Kineis Application configurations depending on platform used.">
<polygon fill="white" stroke="black" points="0,-112.5 0,-131.5 92,-131.5 92,-112.5 0,-112.5"/>
<text text-anchor="middle" x="46" y="-119.5" font-family="Helvetica,sans-Serif" font-size="10.00">kns_app_conf.h</text>
</a>
</g>
</g>
<!-- Node1&#45;&gt;Node2 -->
<g id="edge1" class="edge">
<title>Node1&#45;&gt;Node2</title>
<path fill="none" stroke="midnightblue" d="M176.48,-168.4C147.27,-158.24 108.28,-144.67 80.55,-135.02"/>
<polygon fill="midnightblue" stroke="midnightblue" points="81.48,-131.64 70.88,-131.66 79.18,-138.25 81.48,-131.64"/>
</g>
<!-- Node3 -->
<g id="node3" class="node">
<title>Node3</title>
<g id="a_node3"><a xlink:href="../../d4/dbe/mcu__tim_8h.html" target="_top" xlink:title="MCU wrappers for timer or non&#45;blocking delays used by Kineis stack.">
<polygon fill="white" stroke="black" points="110,-112.5 110,-131.5 178,-131.5 178,-112.5 110,-112.5"/>
<text text-anchor="middle" x="144" y="-119.5" font-family="Helvetica,sans-Serif" font-size="10.00">mcu_tim.h</text>
</a>
</g>
</g>
<!-- Node1&#45;&gt;Node3 -->
<g id="edge2" class="edge">
<title>Node1&#45;&gt;Node3</title>
<path fill="none" stroke="midnightblue" d="M199.7,-168.4C188.55,-159.31 174.05,-147.49 162.64,-138.19"/>
<polygon fill="midnightblue" stroke="midnightblue" points="164.58,-135.26 154.62,-131.66 160.16,-140.69 164.58,-135.26"/>
</g>
<!-- Node6 -->
<g id="node6" class="node">
<title>Node6</title>
<g id="a_node6"><a xlink:title=" ">
<polygon fill="white" stroke="#bfbfbf" points="196,-112.5 196,-131.5 238,-131.5 238,-112.5 196,-112.5"/>
<text text-anchor="middle" x="217" y="-119.5" font-family="Helvetica,sans-Serif" font-size="10.00">tim.h</text>
</a>
</g>
</g>
<!-- Node1&#45;&gt;Node6 -->
<g id="edge6" class="edge">
<title>Node1&#45;&gt;Node6</title>
<path fill="none" stroke="midnightblue" d="M217,-168.4C217,-160.47 217,-150.46 217,-141.86"/>
<polygon fill="midnightblue" stroke="midnightblue" points="220.5,-141.66 217,-131.66 213.5,-141.66 220.5,-141.66"/>
</g>
<!-- Node7 -->
<g id="node7" class="node">
<title>Node7</title>
<g id="a_node7"><a xlink:title=" ">
<polygon fill="white" stroke="#bfbfbf" points="256,-112.5 256,-131.5 294,-131.5 294,-112.5 256,-112.5"/>
<text text-anchor="middle" x="275" y="-119.5" font-family="Helvetica,sans-Serif" font-size="10.00">rtc.h</text>
</a>
</g>
</g>
<!-- Node1&#45;&gt;Node7 -->
<g id="edge7" class="edge">
<title>Node1&#45;&gt;Node7</title>
<path fill="none" stroke="midnightblue" d="M230.75,-168.4C239.35,-159.58 250.45,-148.18 259.39,-139.02"/>
<polygon fill="midnightblue" stroke="midnightblue" points="262.09,-141.26 266.56,-131.66 257.07,-136.38 262.09,-141.26"/>
</g>
<!-- Node8 -->
<g id="node8" class="node">
<title>Node8</title>
<g id="a_node8"><a xlink:href="../../d2/d2e/mgr__log_8h.html" target="_top" xlink:title="logger main header file">
<polygon fill="white" stroke="black" points="312.5,-112.5 312.5,-131.5 377.5,-131.5 377.5,-112.5 312.5,-112.5"/>
<text text-anchor="middle" x="345" y="-119.5" font-family="Helvetica,sans-Serif" font-size="10.00">mgr_log.h</text>
</a>
</g>
</g>
<!-- Node1&#45;&gt;Node8 -->
<g id="edge8" class="edge">
<title>Node1&#45;&gt;Node8</title>
<path fill="none" stroke="midnightblue" d="M247.33,-168.4C268.52,-158.55 296.59,-145.5 317.2,-135.92"/>
<polygon fill="midnightblue" stroke="midnightblue" points="318.78,-139.05 326.37,-131.66 315.83,-132.7 318.78,-139.05"/>
</g>
<!-- Node4 -->
<g id="node4" class="node">
<title>Node4</title>
<g id="a_node4"><a xlink:title=" ">
<polygon fill="white" stroke="#bfbfbf" points="117.5,-0.5 117.5,-19.5 170.5,-19.5 170.5,-0.5 117.5,-0.5"/>
<text text-anchor="middle" x="144" y="-7.5" font-family="Helvetica,sans-Serif" font-size="10.00">stdint.h</text>
</a>
</g>
</g>
<!-- Node3&#45;&gt;Node4 -->
<g id="edge3" class="edge">
<title>Node3&#45;&gt;Node4</title>
<path fill="none" stroke="midnightblue" d="M140.66,-112.2C137.45,-103.24 132.82,-88.88 131,-76 128.76,-60.15 132.79,-42.34 136.94,-29.38"/>
<polygon fill="midnightblue" stroke="midnightblue" points="140.3,-30.37 140.32,-19.78 133.69,-28.05 140.3,-30.37"/>
</g>
<!-- Node5 -->
<g id="node5" class="node">
<title>Node5</title>
<g id="a_node5"><a xlink:href="../../d8/d85/kns__types_8h.html" target="_top" xlink:title="Kineis types definition.">
<polygon fill="white" stroke="black" points="139.5,-56.5 139.5,-75.5 214.5,-75.5 214.5,-56.5 139.5,-56.5"/>
<text text-anchor="middle" x="177" y="-63.5" font-family="Helvetica,sans-Serif" font-size="10.00">kns_types.h</text>
</a>
</g>
</g>
<!-- Node3&#45;&gt;Node5 -->
<g id="edge4" class="edge">
<title>Node3&#45;&gt;Node5</title>
<path fill="none" stroke="midnightblue" d="M149.45,-112.08C154.01,-104.61 160.67,-93.72 166.29,-84.52"/>
<polygon fill="midnightblue" stroke="midnightblue" points="169.42,-86.11 171.65,-75.75 163.45,-82.46 169.42,-86.11"/>
</g>
<!-- Node5&#45;&gt;Node4 -->
<g id="edge5" class="edge">
<title>Node5&#45;&gt;Node4</title>
<path fill="none" stroke="midnightblue" d="M171.55,-56.08C166.99,-48.61 160.33,-37.72 154.71,-28.52"/>
<polygon fill="midnightblue" stroke="midnightblue" points="157.55,-26.46 149.35,-19.75 151.58,-30.11 157.55,-26.46"/>
</g>
<!-- Node9 -->
<g id="node9" class="node">
<title>Node9</title>
<g id="a_node9"><a xlink:href="../../d9/d70/mgr__log__rtc_8h.html" target="_top" xlink:title=": Header for mgr_log_rtc.c file. This file contains log routine concerning RTC. Thus there is a depen...">
<polygon fill="white" stroke="black" points="303.5,-56.5 303.5,-75.5 386.5,-75.5 386.5,-56.5 303.5,-56.5"/>
<text text-anchor="middle" x="345" y="-63.5" font-family="Helvetica,sans-Serif" font-size="10.00">mgr_log_rtc.h</text>
</a>
</g>
</g>
<!-- Node8&#45;&gt;Node9 -->
<g id="edge9" class="edge">
<title>Node8&#45;&gt;Node9</title>
<path fill="none" stroke="midnightblue" d="M345,-112.08C345,-105.01 345,-94.86 345,-85.99"/>
<polygon fill="midnightblue" stroke="midnightblue" points="348.5,-85.75 345,-75.75 341.5,-85.75 348.5,-85.75"/>
</g>
</g>
</svg>
