<?xml version="1.0" encoding="UTF-8" standalone="no"?>
<!DOCTYPE svg PUBLIC "-//W3C//DTD SVG 1.1//EN"
 "http://www.w3.org/Graphics/SVG/1.1/DTD/svg11.dtd">
<!-- Generated by graphviz version 2.43.0 (0)
 -->
<!-- Title: u8UTIL_convertCharToHex4bits Pages: 1 -->
<svg width="780pt" height="66pt"
 viewBox="0.00 0.00 780.00 66.00" xmlns="http://www.w3.org/2000/svg" xmlns:xlink="http://www.w3.org/1999/xlink">
<g id="graph0" class="graph" transform="scale(1 1) rotate(0) translate(4 62)">
<title>u8UTIL_convertCharToHex4bits</title>
<polygon fill="white" stroke="transparent" points="-4,4 -4,-62 776,-62 776,4 -4,4"/>
<!-- Node1 -->
<g id="node1" class="node">
<title>Node1</title>
<g id="a_node1"><a xlink:title="convert an hexadecimal ASCII digit to a 4bits integer">
<polygon fill="#bfbfbf" stroke="black" points="603,-19.5 603,-38.5 772,-38.5 772,-19.5 603,-19.5"/>
<text text-anchor="middle" x="687.5" y="-26.5" font-family="Helvetica,sans-Serif" font-size="10.00">u8UTIL_convertCharToHex4bits</text>
</a>
</g>
</g>
<!-- Node2 -->
<g id="node2" class="node">
<title>Node2</title>
<g id="a_node2"><a xlink:href="../../d0/d0f/group___m_g_r___a_t___c_m_d.html#ga474b262632007c7cdccc1c36d53d3d00" target="_top" xlink:title=": convert the input form ASCII to binary.">
<polygon fill="white" stroke="black" points="397,-14 397,-44 567,-44 567,-14 397,-14"/>
<text text-anchor="start" x="405" y="-32" font-family="Helvetica,sans-Serif" font-size="10.00">u16MGR_AT_CMD_convertAscii</text>
<text text-anchor="middle" x="482" y="-21" font-family="Helvetica,sans-Serif" font-size="10.00">Binary</text>
</a>
</g>
</g>
<!-- Node1&#45;&gt;Node2 -->
<g id="edge1" class="edge">
<title>Node1&#45;&gt;Node2</title>
<path fill="none" stroke="midnightblue" d="M592.61,-29C584.17,-29 575.66,-29 567.31,-29"/>
<polygon fill="midnightblue" stroke="midnightblue" points="592.85,-32.5 602.85,-29 592.85,-25.5 592.85,-32.5"/>
</g>
<!-- Node3 -->
<g id="node3" class="node">
<title>Node3</title>
<g id="a_node3"><a xlink:href="../../d0/d0f/group___m_g_r___a_t___c_m_d.html#gaaa9bdf10c9ac69ef778eea22f8225343" target="_top" xlink:title="Handle new TX data, this is the core function of AT+TX cmd.">
<polygon fill="white" stroke="black" points="173,-38.5 173,-57.5 361,-57.5 361,-38.5 173,-38.5"/>
<text text-anchor="middle" x="267" y="-45.5" font-family="Helvetica,sans-Serif" font-size="10.00">bMGR_AT_CMD_handleNewTxData</text>
</a>
</g>
</g>
<!-- Node2&#45;&gt;Node3 -->
<g id="edge2" class="edge">
<title>Node2&#45;&gt;Node3</title>
<path fill="none" stroke="midnightblue" d="M386.83,-37.4C378.27,-38.16 369.6,-38.94 361.05,-39.7"/>
<polygon fill="midnightblue" stroke="midnightblue" points="387.17,-40.88 396.82,-36.51 386.55,-33.91 387.17,-40.88"/>
</g>
<!-- Node5 -->
<g id="node5" class="node">
<title>Node5</title>
<g id="a_node5"><a xlink:href="../../d0/d0f/group___m_g_r___a_t___c_m_d.html#gaf2dc4b8c03924fc01641182032c31ba5" target="_top" xlink:title=" ">
<polygon fill="white" stroke="black" points="188,-0.5 188,-19.5 346,-19.5 346,-0.5 188,-0.5"/>
<text text-anchor="middle" x="267" y="-7.5" font-family="Helvetica,sans-Serif" font-size="10.00">bMGR_AT_CMD_RCONF_cmd</text>
</a>
</g>
</g>
<!-- Node2&#45;&gt;Node5 -->
<g id="edge4" class="edge">
<title>Node2&#45;&gt;Node5</title>
<path fill="none" stroke="midnightblue" d="M386.53,-20.57C373,-19.37 359.2,-18.14 346.03,-16.96"/>
<polygon fill="midnightblue" stroke="midnightblue" points="386.55,-24.09 396.82,-21.49 387.17,-17.12 386.55,-24.09"/>
</g>
<!-- Node4 -->
<g id="node4" class="node">
<title>Node4</title>
<g id="a_node4"><a xlink:href="../../d0/d0f/group___m_g_r___a_t___c_m_d.html#ga0a4332fc4f8bad99c421588fe542a2bd" target="_top" xlink:title="Process AT command &quot;AT+TX&quot; send user data.">
<polygon fill="white" stroke="black" points="0,-38.5 0,-57.5 137,-57.5 137,-38.5 0,-38.5"/>
<text text-anchor="middle" x="68.5" y="-45.5" font-family="Helvetica,sans-Serif" font-size="10.00">bMGR_AT_CMD_TX_cmd</text>
</a>
</g>
</g>
<!-- Node3&#45;&gt;Node4 -->
<g id="edge3" class="edge">
<title>Node3&#45;&gt;Node4</title>
<path fill="none" stroke="midnightblue" d="M162.71,-48C154.01,-48 145.36,-48 137.04,-48"/>
<polygon fill="midnightblue" stroke="midnightblue" points="162.93,-51.5 172.93,-48 162.93,-44.5 162.93,-51.5"/>
</g>
</g>
</svg>
