<?xml version="1.0" encoding="UTF-8" standalone="no"?>
<!DOCTYPE svg PUBLIC "-//W3C//DTD SVG 1.1//EN"
 "http://www.w3.org/Graphics/SVG/1.1/DTD/svg11.dtd">
<!-- Generated by graphviz version 2.43.0 (0)
 -->
<!-- Title: Kineis/Lib/kns_types.h Pages: 1 -->
<svg width="936pt" height="229pt"
 viewBox="0.00 0.00 935.71 229.00" xmlns="http://www.w3.org/2000/svg" xmlns:xlink="http://www.w3.org/1999/xlink">
<g id="graph0" class="graph" transform="scale(1 1) rotate(0) translate(4 225)">
<title>Kineis/Lib/kns_types.h</title>
<polygon fill="white" stroke="transparent" points="-4,4 -4,-225 931.71,-225 931.71,4 -4,4"/>
<!-- Node1 -->
<g id="node1" class="node">
<title>Node1</title>
<g id="a_node1"><a xlink:title="Kineis types definition.">
<polygon fill="#bfbfbf" stroke="black" points="363.21,-201.5 363.21,-220.5 488.21,-220.5 488.21,-201.5 363.21,-201.5"/>
<text text-anchor="middle" x="425.71" y="-208.5" font-family="Helvetica,sans-Serif" font-size="10.00">Kineis/Lib/kns_types.h</text>
</a>
</g>
</g>
<!-- Node2 -->
<g id="node2" class="node">
<title>Node2</title>
<g id="a_node2"><a xlink:href="../../d0/d84/kns__q_8h.html" target="_top" xlink:title="Configuration of queues used in kineis_swr.">
<polygon fill="white" stroke="black" points="184.71,-0.5 184.71,-30.5 302.71,-30.5 302.71,-0.5 184.71,-0.5"/>
<text text-anchor="start" x="192.71" y="-18.5" font-family="Helvetica,sans-Serif" font-size="10.00">Kineis/App/Kineis_os</text>
<text text-anchor="middle" x="243.71" y="-7.5" font-family="Helvetica,sans-Serif" font-size="10.00">/KNS_Q/Inc/kns_q.h</text>
</a>
</g>
</g>
<!-- Node1&#45;&gt;Node2 -->
<g id="edge1" class="edge">
<title>Node1&#45;&gt;Node2</title>
<path fill="none" stroke="midnightblue" d="M352.86,-207.23C240.6,-202.21 35.9,-189.74 13.71,-165 -44.44,-100.15 98.51,-52.05 184.46,-29.95"/>
<polygon fill="midnightblue" stroke="midnightblue" points="352.95,-210.74 363.09,-207.68 353.26,-203.75 352.95,-210.74"/>
</g>
<!-- Node3 -->
<g id="node3" class="node">
<title>Node3</title>
<g id="a_node3"><a xlink:href="../../d8/dd2/mcu__nvm_8h.html" target="_top" xlink:title="MCU wrappers for Non volatile memory management.">
<polygon fill="white" stroke="black" points="22.71,-134.5 22.71,-164.5 146.71,-164.5 146.71,-134.5 22.71,-134.5"/>
<text text-anchor="start" x="30.71" y="-152.5" font-family="Helvetica,sans-Serif" font-size="10.00">Kineis/Extdep/Mcu/Inc</text>
<text text-anchor="middle" x="84.71" y="-141.5" font-family="Helvetica,sans-Serif" font-size="10.00">/mcu_nvm.h</text>
</a>
</g>
</g>
<!-- Node1&#45;&gt;Node3 -->
<g id="edge2" class="edge">
<title>Node1&#45;&gt;Node3</title>
<path fill="none" stroke="midnightblue" d="M361.13,-199.91C306.36,-191.2 225.76,-177.99 155.71,-165 152.87,-164.47 149.96,-163.92 147.03,-163.36"/>
<polygon fill="midnightblue" stroke="midnightblue" points="360.63,-203.38 371.05,-201.49 361.73,-196.46 360.63,-203.38"/>
</g>
<!-- Node4 -->
<g id="node4" class="node">
<title>Node4</title>
<g id="a_node4"><a xlink:href="../../d4/dbe/mcu__tim_8h.html" target="_top" xlink:title="MCU wrappers for timer or non&#45;blocking delays used by Kineis stack.">
<polygon fill="white" stroke="black" points="164.71,-134.5 164.71,-164.5 288.71,-164.5 288.71,-134.5 164.71,-134.5"/>
<text text-anchor="start" x="172.71" y="-152.5" font-family="Helvetica,sans-Serif" font-size="10.00">Kineis/Extdep/Mcu/Inc</text>
<text text-anchor="middle" x="226.71" y="-141.5" font-family="Helvetica,sans-Serif" font-size="10.00">/mcu_tim.h</text>
</a>
</g>
</g>
<!-- Node1&#45;&gt;Node4 -->
<g id="edge3" class="edge">
<title>Node1&#45;&gt;Node4</title>
<path fill="none" stroke="midnightblue" d="M387.61,-198.61C355.15,-188.9 308.37,-174.92 273.61,-164.52"/>
<polygon fill="midnightblue" stroke="midnightblue" points="386.62,-201.96 397.2,-201.48 388.62,-195.26 386.62,-201.96"/>
</g>
<!-- Node5 -->
<g id="node5" class="node">
<title>Node5</title>
<g id="a_node5"><a xlink:href="../../df/d64/kns__mac__evt_8h.html" target="_top" xlink:title=" ">
<polygon fill="white" stroke="black" points="434.71,-134.5 434.71,-164.5 544.71,-164.5 544.71,-134.5 434.71,-134.5"/>
<text text-anchor="start" x="442.71" y="-152.5" font-family="Helvetica,sans-Serif" font-size="10.00">Kineis/Lib/kns_mac</text>
<text text-anchor="middle" x="489.71" y="-141.5" font-family="Helvetica,sans-Serif" font-size="10.00">_evt.h</text>
</a>
</g>
</g>
<!-- Node1&#45;&gt;Node5 -->
<g id="edge4" class="edge">
<title>Node1&#45;&gt;Node5</title>
<path fill="none" stroke="midnightblue" d="M442.23,-194.65C452.23,-185.35 464.9,-173.57 474.63,-164.52"/>
<polygon fill="midnightblue" stroke="midnightblue" points="439.82,-192.1 434.88,-201.48 444.59,-197.23 439.82,-192.1"/>
</g>
<!-- Node8 -->
<g id="node8" class="node">
<title>Node8</title>
<g id="a_node8"><a xlink:href="../../d8/d4a/kns__mac__prfl__cfg_8h.html" target="_top" xlink:title="Header file describing the ser settings required to configure a MAC protocol.">
<polygon fill="white" stroke="black" points="306.71,-134.5 306.71,-164.5 416.71,-164.5 416.71,-134.5 306.71,-134.5"/>
<text text-anchor="start" x="314.71" y="-152.5" font-family="Helvetica,sans-Serif" font-size="10.00">Kineis/Lib/kns_mac</text>
<text text-anchor="middle" x="361.71" y="-141.5" font-family="Helvetica,sans-Serif" font-size="10.00">_prfl_cfg.h</text>
</a>
</g>
</g>
<!-- Node1&#45;&gt;Node8 -->
<g id="edge8" class="edge">
<title>Node1&#45;&gt;Node8</title>
<path fill="none" stroke="midnightblue" d="M409.2,-194.65C399.19,-185.35 386.53,-173.57 376.8,-164.52"/>
<polygon fill="midnightblue" stroke="midnightblue" points="406.84,-197.23 416.54,-201.48 411.6,-192.1 406.84,-197.23"/>
</g>
<!-- Node9 -->
<g id="node9" class="node">
<title>Node9</title>
<g id="a_node9"><a xlink:href="../../d9/d57/kns__cfg_8h.html" target="_top" xlink:title="Device communication driver for Kineis radio frequence.">
<polygon fill="white" stroke="black" points="563.21,-140 563.21,-159 676.21,-159 676.21,-140 563.21,-140"/>
<text text-anchor="middle" x="619.71" y="-147" font-family="Helvetica,sans-Serif" font-size="10.00">Kineis/Lib/kns_cfg.h</text>
</a>
</g>
</g>
<!-- Node1&#45;&gt;Node9 -->
<g id="edge10" class="edge">
<title>Node1&#45;&gt;Node9</title>
<path fill="none" stroke="midnightblue" d="M463.11,-198.53C500.82,-186.96 558.14,-169.38 591.97,-159.01"/>
<polygon fill="midnightblue" stroke="midnightblue" points="462.04,-195.2 453.51,-201.48 464.09,-201.89 462.04,-195.2"/>
</g>
<!-- Node10 -->
<g id="node10" class="node">
<title>Node10</title>
<g id="a_node10"><a xlink:href="../../df/d53/kns__rf_8h.html" target="_top" xlink:title="Device communication driver for Kinéis radio frequence.">
<polygon fill="white" stroke="black" points="694.21,-140 694.21,-159 799.21,-159 799.21,-140 694.21,-140"/>
<text text-anchor="middle" x="746.71" y="-147" font-family="Helvetica,sans-Serif" font-size="10.00">Kineis/Lib/kns_rf.h</text>
</a>
</g>
</g>
<!-- Node1&#45;&gt;Node10 -->
<g id="edge11" class="edge">
<title>Node1&#45;&gt;Node10</title>
<path fill="none" stroke="midnightblue" d="M490.82,-199.88C543.54,-191.41 619.63,-178.56 685.71,-165 694.46,-163.21 703.86,-161.07 712.6,-159"/>
<polygon fill="midnightblue" stroke="midnightblue" points="490.25,-196.43 480.93,-201.46 491.36,-203.34 490.25,-196.43"/>
</g>
<!-- Node11 -->
<g id="node11" class="node">
<title>Node11</title>
<g id="a_node11"><a xlink:href="../../d7/d8a/kns__srvc__common_8h.html" target="_top" xlink:title="Common part of Kinéis service layer.">
<polygon fill="white" stroke="black" points="817.71,-134.5 817.71,-164.5 927.71,-164.5 927.71,-134.5 817.71,-134.5"/>
<text text-anchor="start" x="825.71" y="-152.5" font-family="Helvetica,sans-Serif" font-size="10.00">Kineis/Lib/kns_srvc</text>
<text text-anchor="middle" x="872.71" y="-141.5" font-family="Helvetica,sans-Serif" font-size="10.00">_common.h</text>
</a>
</g>
</g>
<!-- Node1&#45;&gt;Node11 -->
<g id="edge12" class="edge">
<title>Node1&#45;&gt;Node11</title>
<path fill="none" stroke="midnightblue" d="M498.47,-203.76C575.76,-196.6 701.35,-183.42 808.71,-165 811.63,-164.5 814.62,-163.95 817.63,-163.37"/>
<polygon fill="midnightblue" stroke="midnightblue" points="498,-200.29 488.36,-204.69 498.64,-207.26 498,-200.29"/>
</g>
<!-- Node6 -->
<g id="node6" class="node">
<title>Node6</title>
<g id="a_node6"><a xlink:href="../../d8/dd1/kns__q__conf_8h.html" target="_top" xlink:title="Configuration of queues used in kineis_sw.">
<polygon fill="white" stroke="black" points="439.21,-67.5 439.21,-97.5 548.21,-97.5 548.21,-67.5 439.21,-67.5"/>
<text text-anchor="start" x="447.21" y="-85.5" font-family="Helvetica,sans-Serif" font-size="10.00">Kineis/Extdep/Conf</text>
<text text-anchor="middle" x="493.71" y="-74.5" font-family="Helvetica,sans-Serif" font-size="10.00">/kns_q_conf.h</text>
</a>
</g>
</g>
<!-- Node5&#45;&gt;Node6 -->
<g id="edge5" class="edge">
<title>Node5&#45;&gt;Node6</title>
<path fill="none" stroke="midnightblue" d="M491.2,-124.4C491.75,-115.37 492.36,-105.41 492.85,-97.58"/>
<polygon fill="midnightblue" stroke="midnightblue" points="487.7,-124.2 490.58,-134.4 494.69,-124.63 487.7,-124.2"/>
</g>
<!-- Node7 -->
<g id="node7" class="node">
<title>Node7</title>
<g id="a_node7"><a xlink:href="../../d7/d1a/kns__mac_8h.html" target="_top" xlink:title="Main header file for MAC layer of Kineis stack.">
<polygon fill="white" stroke="black" points="302.21,-73 302.21,-92 421.21,-92 421.21,-73 302.21,-73"/>
<text text-anchor="middle" x="361.71" y="-80" font-family="Helvetica,sans-Serif" font-size="10.00">Kineis/Lib/kns_mac.h</text>
</a>
</g>
</g>
<!-- Node5&#45;&gt;Node7 -->
<g id="edge7" class="edge">
<title>Node5&#45;&gt;Node7</title>
<path fill="none" stroke="midnightblue" d="M452.89,-129.8C428.35,-117.34 397.27,-101.56 378.46,-92.01"/>
<polygon fill="midnightblue" stroke="midnightblue" points="451.44,-132.99 461.94,-134.4 454.61,-126.75 451.44,-132.99"/>
</g>
<!-- Node6&#45;&gt;Node2 -->
<g id="edge6" class="edge">
<title>Node6&#45;&gt;Node2</title>
<path fill="none" stroke="midnightblue" d="M429.93,-64.92C389.13,-54.31 336.78,-40.7 297.98,-30.61"/>
<polygon fill="midnightblue" stroke="midnightblue" points="429.21,-68.35 439.77,-67.48 430.98,-61.57 429.21,-68.35"/>
</g>
<!-- Node8&#45;&gt;Node7 -->
<g id="edge9" class="edge">
<title>Node8&#45;&gt;Node7</title>
<path fill="none" stroke="midnightblue" d="M361.71,-124.25C361.71,-113.02 361.71,-100.38 361.71,-92.19"/>
<polygon fill="midnightblue" stroke="midnightblue" points="358.21,-124.4 361.71,-134.4 365.21,-124.4 358.21,-124.4"/>
</g>
<!-- Node11&#45;&gt;Node6 -->
<g id="edge13" class="edge">
<title>Node11&#45;&gt;Node6</title>
<path fill="none" stroke="midnightblue" d="M807.64,-133.86C710.73,-115.36 609.11,-99.96 548.25,-91.16"/>
<polygon fill="midnightblue" stroke="midnightblue" points="807.12,-137.33 817.6,-135.78 808.44,-130.45 807.12,-137.33"/>
</g>
</g>
</svg>
