<?xml version="1.0" encoding="UTF-8" standalone="no"?>
<!DOCTYPE svg PUBLIC "-//W3C//DTD SVG 1.1//EN"
 "http://www.w3.org/Graphics/SVG/1.1/DTD/svg11.dtd">
<!-- Generated by graphviz version 2.43.0 (0)
 -->
<!-- Title: Kineis/Lib/kns_types.h Pages: 1 -->
<!--zoomable 296 -->
<svg id="main" version="1.1" xmlns="http://www.w3.org/2000/svg" xmlns:xlink="http://www.w3.org/1999/xlink" xml:space="preserve" onload="init(evt)">
<style type="text/css"><![CDATA[
.edge:hover path { stroke: red; }
.edge:hover polygon { stroke: red; fill: red; }
]]></style>
<script type="text/javascript"><![CDATA[
var edges = document.getElementsByTagName('g');
if (edges && edges.length) {
  for (var i=0;i<edges.length;i++) {
    if (edges[i].id.substr(0,4)=='edge') {
      edges[i].setAttribute('class','edge');
    }
  }
}
]]></script>
        <defs>
                <circle id="rim" cx="0" cy="0" r="7"/>
                <circle id="rim2" cx="0" cy="0" r="3.5"/>
                <g id="zoomPlus">
                        <use xlink:href="#rim" fill="#404040">
                                <set attributeName="fill" to="#808080" begin="zoomplus.mouseover" end="zoomplus.mouseout"/>
                        </use>
                        <path d="M-4,0h8M0,-4v8" fill="none" stroke="white" stroke-width="1.5" pointer-events="none"/>
                </g>
                <g id="zoomMin">
                        <use xlink:href="#rim" fill="#404040">
                                <set attributeName="fill" to="#808080" begin="zoomminus.mouseover" end="zoomminus.mouseout"/>
                        </use>
                        <path d="M-4,0h8" fill="none" stroke="white" stroke-width="1.5" pointer-events="none"/>
                </g>
                <g id="dirArrow">
                        <path fill="none" stroke="white" stroke-width="1.5" d="M0,-3.0v7 M-2.5,-0.5L0,-3.0L2.5,-0.5"/>
                </g>
               <g id="resetDef">
                       <use xlink:href="#rim2" fill="#404040">
                               <set attributeName="fill" to="#808080" begin="reset.mouseover" end="reset.mouseout"/>
                       </use>
               </g>
        </defs>

<script type="text/javascript">
var viewWidth = 736;
var viewHeight = 296;
var sectionId = 'dynsection-1';
</script>
<script xlink:href="../../svgpan.js"/>
<svg id="graph" class="graph">
<g id="viewport">
<title>Kineis/Lib/kns_types.h</title>
<polygon fill="white" stroke="transparent" points="-4,4 -4,-292 732.1,-292 732.1,4 -4,4"/>
<!-- Node1 -->
<g id="node1" class="node">
<title>Node1</title>
<g id="a_node1"><a xlink:title="Kineis types definition.">
<polygon fill="#bfbfbf" stroke="black" points="287.87,-268.5 287.87,-287.5 412.87,-287.5 412.87,-268.5 287.87,-268.5"/>
<text text-anchor="middle" x="350.37" y="-275.5" font-family="Helvetica,sans-Serif" font-size="10.00">Kineis/Lib/kns_types.h</text>
</a>
</g>
</g>
<!-- Node2 -->
<g id="node2" class="node">
<title>Node2</title>
<g id="a_node2"><a xlink:href="../../d0/d84/kns__q_8h.html" target="_top" xlink:title="Configuration of queues used in kineis_swr.">
<polygon fill="white" stroke="black" points="436.37,-0.5 436.37,-30.5 554.37,-30.5 554.37,-0.5 436.37,-0.5"/>
<text text-anchor="start" x="444.37" y="-18.5" font-family="Helvetica,sans-Serif" font-size="10.00">Kineis/App/Kineis_os</text>
<text text-anchor="middle" x="495.37" y="-7.5" font-family="Helvetica,sans-Serif" font-size="10.00">/KNS_Q/Inc/kns_q.h</text>
</a>
</g>
</g>
<!-- Node1&#45;&gt;Node2 -->
<g id="edge1" class="edge">
<title>Node1&#45;&gt;Node2</title>
<path fill="none" stroke="midnightblue" d="M423.05,-273.02C522.98,-266.8 692.63,-253.23 711.37,-232 782.2,-151.79 606.77,-63.99 529.6,-30.51"/>
<polygon fill="midnightblue" stroke="midnightblue" points="422.78,-269.53 413.02,-273.64 423.21,-276.52 422.78,-269.53"/>
</g>
<!-- Node3 -->
<g id="node3" class="node">
<title>Node3</title>
<g id="a_node3"><a xlink:href="../../d8/dd2/mcu__nvm_8h.html" target="_top" xlink:title="MCU wrappers for Non volatile memory management.">
<polygon fill="white" stroke="black" points="15.37,-201.5 15.37,-231.5 139.37,-231.5 139.37,-201.5 15.37,-201.5"/>
<text text-anchor="start" x="23.37" y="-219.5" font-family="Helvetica,sans-Serif" font-size="10.00">Kineis/Extdep/Mcu/Inc</text>
<text text-anchor="middle" x="77.37" y="-208.5" font-family="Helvetica,sans-Serif" font-size="10.00">/mcu_nvm.h</text>
</a>
</g>
</g>
<!-- Node1&#45;&gt;Node3 -->
<g id="edge2" class="edge">
<title>Node1&#45;&gt;Node3</title>
<path fill="none" stroke="midnightblue" d="M301.39,-266.32C256.13,-256.46 188.68,-241.76 139.62,-231.07"/>
<polygon fill="midnightblue" stroke="midnightblue" points="300.74,-269.77 311.26,-268.48 302.23,-262.93 300.74,-269.77"/>
</g>
<!-- Node4 -->
<g id="node4" class="node">
<title>Node4</title>
<g id="a_node4"><a xlink:href="../../d4/dbe/mcu__tim_8h.html" target="_top" xlink:title="MCU wrappers for timer or non&#45;blocking delays used by Kineis stack.">
<polygon fill="white" stroke="black" points="157.37,-201.5 157.37,-231.5 281.37,-231.5 281.37,-201.5 157.37,-201.5"/>
<text text-anchor="start" x="165.37" y="-219.5" font-family="Helvetica,sans-Serif" font-size="10.00">Kineis/Extdep/Mcu/Inc</text>
<text text-anchor="middle" x="219.37" y="-208.5" font-family="Helvetica,sans-Serif" font-size="10.00">/mcu_tim.h</text>
</a>
</g>
</g>
<!-- Node1&#45;&gt;Node4 -->
<g id="edge3" class="edge">
<title>Node1&#45;&gt;Node4</title>
<path fill="none" stroke="midnightblue" d="M322.48,-264.33C301.28,-254.7 272.14,-241.47 250.25,-231.52"/>
<polygon fill="midnightblue" stroke="midnightblue" points="321.05,-267.53 331.6,-268.48 323.94,-261.15 321.05,-267.53"/>
</g>
<!-- Node5 -->
<g id="node5" class="node">
<title>Node5</title>
<g id="a_node5"><a xlink:href="../../df/d64/kns__mac__evt_8h.html" target="_top" xlink:title=" ">
<polygon fill="white" stroke="black" points="254.37,-134.5 254.37,-164.5 364.37,-164.5 364.37,-134.5 254.37,-134.5"/>
<text text-anchor="start" x="262.37" y="-152.5" font-family="Helvetica,sans-Serif" font-size="10.00">Kineis/Lib/kns_mac</text>
<text text-anchor="middle" x="309.37" y="-141.5" font-family="Helvetica,sans-Serif" font-size="10.00">_evt.h</text>
</a>
</g>
</g>
<!-- Node1&#45;&gt;Node5 -->
<g id="edge4" class="edge">
<title>Node1&#45;&gt;Node5</title>
<path fill="none" stroke="midnightblue" d="M340.61,-259.39C336.4,-251.24 331.69,-241.32 328.37,-232 320.19,-209 314.56,-181.09 311.66,-164.62"/>
<polygon fill="midnightblue" stroke="midnightblue" points="337.57,-261.13 345.38,-268.29 343.75,-257.82 337.57,-261.13"/>
</g>
<!-- Node8 -->
<g id="node8" class="node">
<title>Node8</title>
<g id="a_node8"><a xlink:href="../../d8/d4a/kns__mac__prfl__cfg_8h.html" target="_top" xlink:title="Header file describing the ser settings required to configure a MAC protocol.">
<polygon fill="white" stroke="black" points="337.37,-201.5 337.37,-231.5 447.37,-231.5 447.37,-201.5 337.37,-201.5"/>
<text text-anchor="start" x="345.37" y="-219.5" font-family="Helvetica,sans-Serif" font-size="10.00">Kineis/Lib/kns_mac</text>
<text text-anchor="middle" x="392.37" y="-208.5" font-family="Helvetica,sans-Serif" font-size="10.00">_prfl_cfg.h</text>
</a>
</g>
</g>
<!-- Node1&#45;&gt;Node8 -->
<g id="edge8" class="edge">
<title>Node1&#45;&gt;Node8</title>
<path fill="none" stroke="midnightblue" d="M362.2,-260.25C368.59,-251.19 376.4,-240.12 382.47,-231.52"/>
<polygon fill="midnightblue" stroke="midnightblue" points="359.3,-258.29 356.39,-268.48 365.02,-262.32 359.3,-258.29"/>
</g>
<!-- Node9 -->
<g id="node9" class="node">
<title>Node9</title>
<g id="a_node9"><a xlink:href="../../d9/d57/kns__cfg_8h.html" target="_top" xlink:title="Device communication driver for Kineis radio frequence.">
<polygon fill="white" stroke="black" points="465.87,-207 465.87,-226 578.87,-226 578.87,-207 465.87,-207"/>
<text text-anchor="middle" x="522.37" y="-214" font-family="Helvetica,sans-Serif" font-size="10.00">Kineis/Lib/kns_cfg.h</text>
</a>
</g>
</g>
<!-- Node1&#45;&gt;Node9 -->
<g id="edge11" class="edge">
<title>Node1&#45;&gt;Node9</title>
<path fill="none" stroke="midnightblue" d="M384.82,-265.08C418.25,-253.52 468.16,-236.25 497.77,-226.01"/>
<polygon fill="midnightblue" stroke="midnightblue" points="383.32,-261.9 375.01,-268.48 385.61,-268.51 383.32,-261.9"/>
</g>
<!-- Node10 -->
<g id="node10" class="node">
<title>Node10</title>
<g id="a_node10"><a xlink:href="../../df/d53/kns__rf_8h.html" target="_top" xlink:title="Device communication driver for Kinéis radio frequence.">
<polygon fill="white" stroke="black" points="596.87,-207 596.87,-226 701.87,-226 701.87,-207 596.87,-207"/>
<text text-anchor="middle" x="649.37" y="-214" font-family="Helvetica,sans-Serif" font-size="10.00">Kineis/Lib/kns_rf.h</text>
</a>
</g>
</g>
<!-- Node1&#45;&gt;Node10 -->
<g id="edge12" class="edge">
<title>Node1&#45;&gt;Node10</title>
<path fill="none" stroke="midnightblue" d="M409.23,-266.66C457.49,-257.99 527.51,-244.98 588.37,-232 596.89,-230.18 606.04,-228.09 614.6,-226.06"/>
<polygon fill="midnightblue" stroke="midnightblue" points="408.5,-263.23 399.28,-268.44 409.74,-270.12 408.5,-263.23"/>
</g>
<!-- Node11 -->
<g id="node11" class="node">
<title>Node11</title>
<g id="a_node11"><a xlink:href="../../d7/d8a/kns__srvc__common_8h.html" target="_top" xlink:title="Common part of Kinéis service layer.">
<polygon fill="white" stroke="black" points="29.37,-134.5 29.37,-164.5 139.37,-164.5 139.37,-134.5 29.37,-134.5"/>
<text text-anchor="start" x="37.37" y="-152.5" font-family="Helvetica,sans-Serif" font-size="10.00">Kineis/Lib/kns_srvc</text>
<text text-anchor="middle" x="84.37" y="-141.5" font-family="Helvetica,sans-Serif" font-size="10.00">_common.h</text>
</a>
</g>
</g>
<!-- Node1&#45;&gt;Node11 -->
<g id="edge13" class="edge">
<title>Node1&#45;&gt;Node11</title>
<path fill="none" stroke="midnightblue" d="M277.41,-272.52C181.76,-265.88 23.96,-252.04 6.37,-232 -15.07,-207.57 24.09,-180.55 54.28,-164.58"/>
<polygon fill="midnightblue" stroke="midnightblue" points="277.4,-276.02 287.61,-273.21 277.88,-269.04 277.4,-276.02"/>
</g>
<!-- Node6 -->
<g id="node6" class="node">
<title>Node6</title>
<g id="a_node6"><a xlink:href="../../d8/dd1/kns__q__conf_8h.html" target="_top" xlink:title="Configuration of queues used in kineis_sw.">
<polygon fill="white" stroke="black" points="205.87,-67.5 205.87,-97.5 314.87,-97.5 314.87,-67.5 205.87,-67.5"/>
<text text-anchor="start" x="213.87" y="-85.5" font-family="Helvetica,sans-Serif" font-size="10.00">Kineis/Extdep/Conf</text>
<text text-anchor="middle" x="260.37" y="-74.5" font-family="Helvetica,sans-Serif" font-size="10.00">/kns_q_conf.h</text>
</a>
</g>
</g>
<!-- Node5&#45;&gt;Node6 -->
<g id="edge5" class="edge">
<title>Node5&#45;&gt;Node6</title>
<path fill="none" stroke="midnightblue" d="M292.53,-126.16C285.38,-116.68 277.27,-105.92 270.98,-97.58"/>
<polygon fill="midnightblue" stroke="midnightblue" points="289.92,-128.52 298.74,-134.4 295.51,-124.3 289.92,-128.52"/>
</g>
<!-- Node7 -->
<g id="node7" class="node">
<title>Node7</title>
<g id="a_node7"><a xlink:href="../../d7/d1a/kns__mac_8h.html" target="_top" xlink:title="Main header file for MAC layer of Kineis stack.">
<polygon fill="white" stroke="black" points="332.87,-73 332.87,-92 451.87,-92 451.87,-73 332.87,-73"/>
<text text-anchor="middle" x="392.37" y="-80" font-family="Helvetica,sans-Serif" font-size="10.00">Kineis/Lib/kns_mac.h</text>
</a>
</g>
</g>
<!-- Node5&#45;&gt;Node7 -->
<g id="edge7" class="edge">
<title>Node5&#45;&gt;Node7</title>
<path fill="none" stroke="midnightblue" d="M335.54,-128.01C350.95,-115.94 369.64,-101.3 381.27,-92.19"/>
<polygon fill="midnightblue" stroke="midnightblue" points="333.1,-125.47 327.38,-134.4 337.41,-130.99 333.1,-125.47"/>
</g>
<!-- Node6&#45;&gt;Node2 -->
<g id="edge6" class="edge">
<title>Node6&#45;&gt;Node2</title>
<path fill="none" stroke="midnightblue" d="M321.06,-64.71C359.3,-54.14 408.11,-40.63 444.35,-30.61"/>
<polygon fill="midnightblue" stroke="midnightblue" points="319.78,-61.44 311.07,-67.48 321.64,-68.18 319.78,-61.44"/>
</g>
<!-- Node8&#45;&gt;Node5 -->
<g id="edge9" class="edge">
<title>Node8&#45;&gt;Node5</title>
<path fill="none" stroke="midnightblue" d="M366.41,-195.17C353.72,-185.23 338.76,-173.51 327.35,-164.58"/>
<polygon fill="midnightblue" stroke="midnightblue" points="364.33,-197.99 374.36,-201.4 368.65,-192.47 364.33,-197.99"/>
</g>
<!-- Node8&#45;&gt;Node7 -->
<g id="edge10" class="edge">
<title>Node8&#45;&gt;Node7</title>
<path fill="none" stroke="midnightblue" d="M392.37,-191.32C392.37,-161.38 392.37,-111.91 392.37,-92.1"/>
<polygon fill="midnightblue" stroke="midnightblue" points="388.87,-191.37 392.37,-201.37 395.87,-191.37 388.87,-191.37"/>
</g>
<!-- Node11&#45;&gt;Node6 -->
<g id="edge14" class="edge">
<title>Node11&#45;&gt;Node6</title>
<path fill="none" stroke="midnightblue" d="M132.25,-130.82C160.54,-120.37 195.87,-107.32 222.26,-97.58"/>
<polygon fill="midnightblue" stroke="midnightblue" points="130.73,-127.65 122.56,-134.4 133.15,-134.21 130.73,-127.65"/>
</g>
</g>
</svg>
        <g id="navigator" transform="translate(0 0)" fill="#404254">
                <rect fill="#f2f5e9" fill-opacity="0.5" stroke="#606060" stroke-width=".5" x="0" y="0" width="60" height="60"/>
                <use id="zoomplus" xlink:href="#zoomPlus" x="17" y="9" onmousedown="handleZoom(evt,'in')"/>
                <use id="zoomminus" xlink:href="#zoomMin" x="42" y="9" onmousedown="handleZoom(evt,'out')"/>
                <use id="reset" xlink:href="#resetDef" x="30" y="36" onmousedown="handleReset()"/>
                <g id="arrowUp" xlink:href="#dirArrow" transform="translate(30 24)" onmousedown="handlePan(0,-1)">
                  <use xlink:href="#rim" fill="#404040">
                        <set attributeName="fill" to="#808080" begin="arrowUp.mouseover" end="arrowUp.mouseout"/>
                  </use>
                  <path fill="none" stroke="white" stroke-width="1.5" d="M0,-3.0v7 M-2.5,-0.5L0,-3.0L2.5,-0.5"/>
                </g>
                <g id="arrowRight" xlink:href="#dirArrow" transform="rotate(90) translate(36 -43)" onmousedown="handlePan(1,0)">
                  <use xlink:href="#rim" fill="#404040">
                        <set attributeName="fill" to="#808080" begin="arrowRight.mouseover" end="arrowRight.mouseout"/>
                  </use>
                  <path fill="none" stroke="white" stroke-width="1.5" d="M0,-3.0v7 M-2.5,-0.5L0,-3.0L2.5,-0.5"/>
                </g>
                <g id="arrowDown" xlink:href="#dirArrow" transform="rotate(180) translate(-30 -48)" onmousedown="handlePan(0,1)">
                  <use xlink:href="#rim" fill="#404040">
                        <set attributeName="fill" to="#808080" begin="arrowDown.mouseover" end="arrowDown.mouseout"/>
                  </use>
                  <path fill="none" stroke="white" stroke-width="1.5" d="M0,-3.0v7 M-2.5,-0.5L0,-3.0L2.5,-0.5"/>
                </g>
                <g id="arrowLeft" xlink:href="#dirArrow" transform="rotate(270) translate(-36 17)" onmousedown="handlePan(-1,0)">
                  <use xlink:href="#rim" fill="#404040">
                        <set attributeName="fill" to="#808080" begin="arrowLeft.mouseover" end="arrowLeft.mouseout"/>
                  </use>
                  <path fill="none" stroke="white" stroke-width="1.5" d="M0,-3.0v7 M-2.5,-0.5L0,-3.0L2.5,-0.5"/>
                </g>
        </g>
        <svg viewBox="0 0 15 15" width="100%" height="30px" preserveAspectRatio="xMaxYMin meet">
         <g id="arrow_out" transform="scale(0.3 0.3)">
          <a xlink:href="kns__types_8h__dep__incl_org.svg" target="_base">
           <rect id="button" ry="5" rx="5" y="6" x="6" height="38" width="38"
                fill="#f2f5e9" fill-opacity="0.5" stroke="#606060" stroke-width="1.0"/>
           <path id="arrow"
             d="M 11.500037,31.436501 C 11.940474,20.09759 22.043105,11.32322 32.158766,21.979434 L 37.068811,17.246167 C 37.068811,17.246167 37.088388,32 37.088388,32 L 22.160133,31.978069 C 22.160133,31.978069 26.997745,27.140456 26.997745,27.140456 C 18.528582,18.264221 13.291696,25.230495 11.500037,31.436501 z"
             style="fill:#404040;"/>
          </a>
         </g>
        </svg>
</svg>
