<?xml version="1.0" encoding="UTF-8" standalone="no"?>
<!DOCTYPE svg PUBLIC "-//W3C//DTD SVG 1.1//EN"
 "http://www.w3.org/Graphics/SVG/1.1/DTD/svg11.dtd">
<!-- Generated by graphviz version 2.43.0 (0)
 -->
<!-- Title: Kineis/Lpm/Src/lpm_cli_kstk.c Pages: 1 -->
<svg width="334pt" height="319pt"
 viewBox="0.00 0.00 334.19 319.00" xmlns="http://www.w3.org/2000/svg" xmlns:xlink="http://www.w3.org/1999/xlink">
<g id="graph0" class="graph" transform="scale(1 1) rotate(0) translate(4 315)">
<title>Kineis/Lpm/Src/lpm_cli_kstk.c</title>
<polygon fill="white" stroke="transparent" points="-4,4 -4,-315 330.19,-315 330.19,4 -4,4"/>
<!-- Node1 -->
<g id="node1" class="node">
<title>Node1</title>
<g id="a_node1"><a xlink:title="Kineis stack&#39;s LPM client. It is implementing APIs needed to interface with the low power manager (MG...">
<polygon fill="#bfbfbf" stroke="black" points="42.48,-280.5 42.48,-310.5 152.48,-310.5 152.48,-280.5 42.48,-280.5"/>
<text text-anchor="start" x="50.48" y="-298.5" font-family="Helvetica,sans-Serif" font-size="10.00">Kineis/Lpm/Src/lpm</text>
<text text-anchor="middle" x="97.48" y="-287.5" font-family="Helvetica,sans-Serif" font-size="10.00">_cli_kstk.c</text>
</a>
</g>
</g>
<!-- Node2 -->
<g id="node2" class="node">
<title>Node2</title>
<g id="a_node2"><a xlink:title=" ">
<polygon fill="white" stroke="#bfbfbf" points="2.48,-112.5 2.48,-131.5 64.48,-131.5 64.48,-112.5 2.48,-112.5"/>
<text text-anchor="middle" x="33.48" y="-119.5" font-family="Helvetica,sans-Serif" font-size="10.00">stdbool.h</text>
</a>
</g>
</g>
<!-- Node1&#45;&gt;Node2 -->
<g id="edge1" class="edge">
<title>Node1&#45;&gt;Node2</title>
<path fill="none" stroke="midnightblue" d="M53.25,-280.44C36.13,-272.59 18.32,-260.89 8.48,-244 -10.78,-210.93 8.95,-165.18 22.68,-140.49"/>
<polygon fill="midnightblue" stroke="midnightblue" points="25.87,-141.97 27.89,-131.57 19.82,-138.44 25.87,-141.97"/>
</g>
<!-- Node3 -->
<g id="node3" class="node">
<title>Node3</title>
<g id="a_node3"><a xlink:href="../../df/da4/lpm__cli__kstk_8h.html" target="_top" xlink:title="Kineis stack&#39;s LPM client. It is implementing APIs needed to interface with the low power manager (MG...">
<polygon fill="white" stroke="black" points="17.98,-224.5 17.98,-243.5 104.98,-243.5 104.98,-224.5 17.98,-224.5"/>
<text text-anchor="middle" x="61.48" y="-231.5" font-family="Helvetica,sans-Serif" font-size="10.00">lpm_cli_kstk.h</text>
</a>
</g>
</g>
<!-- Node1&#45;&gt;Node3 -->
<g id="edge2" class="edge">
<title>Node1&#45;&gt;Node3</title>
<path fill="none" stroke="midnightblue" d="M88.95,-280.4C83.88,-272.02 77.41,-261.33 72.02,-252.42"/>
<polygon fill="midnightblue" stroke="midnightblue" points="74.89,-250.4 66.72,-243.66 68.9,-254.03 74.89,-250.4"/>
</g>
<!-- Node4 -->
<g id="node4" class="node">
<title>Node4</title>
<g id="a_node4"><a xlink:href="../../df/d63/mgr__lpm_8h.html" target="_top" xlink:title="low power mode manager is in charge to collect all low power needs from &#39;clients&#39; and setup the corre...">
<polygon fill="white" stroke="black" points="59.98,-168.5 59.98,-187.5 128.98,-187.5 128.98,-168.5 59.98,-168.5"/>
<text text-anchor="middle" x="94.48" y="-175.5" font-family="Helvetica,sans-Serif" font-size="10.00">mgr_lpm.h</text>
</a>
</g>
</g>
<!-- Node1&#45;&gt;Node4 -->
<g id="edge9" class="edge">
<title>Node1&#45;&gt;Node4</title>
<path fill="none" stroke="midnightblue" d="M104.23,-280.5C110.22,-266.3 117.47,-243.68 113.48,-224 111.59,-214.65 107.69,-204.83 103.91,-196.75"/>
<polygon fill="midnightblue" stroke="midnightblue" points="106.96,-195.01 99.36,-187.63 100.69,-198.14 106.96,-195.01"/>
</g>
<!-- Node7 -->
<g id="node7" class="node">
<title>Node7</title>
<g id="a_node7"><a xlink:href="../../d7/d1a/kns__mac_8h.html" target="_top" xlink:title="Main header file for MAC layer of Kineis stack.">
<polygon fill="white" stroke="black" points="161.98,-224.5 161.98,-243.5 230.98,-243.5 230.98,-224.5 161.98,-224.5"/>
<text text-anchor="middle" x="196.48" y="-231.5" font-family="Helvetica,sans-Serif" font-size="10.00">kns_mac.h</text>
</a>
</g>
</g>
<!-- Node1&#45;&gt;Node7 -->
<g id="edge10" class="edge">
<title>Node1&#45;&gt;Node7</title>
<path fill="none" stroke="midnightblue" d="M120.94,-280.4C136.81,-270.86 157.67,-258.32 173.45,-248.84"/>
<polygon fill="midnightblue" stroke="midnightblue" points="175.31,-251.81 182.08,-243.66 171.7,-245.81 175.31,-251.81"/>
</g>
<!-- Node3&#45;&gt;Node2 -->
<g id="edge3" class="edge">
<title>Node3&#45;&gt;Node2</title>
<path fill="none" stroke="midnightblue" d="M59.28,-224.37C54.77,-206.62 44.34,-165.67 38.22,-141.6"/>
<polygon fill="midnightblue" stroke="midnightblue" points="41.53,-140.42 35.67,-131.59 34.74,-142.15 41.53,-140.42"/>
</g>
<!-- Node3&#45;&gt;Node4 -->
<g id="edge4" class="edge">
<title>Node3&#45;&gt;Node4</title>
<path fill="none" stroke="midnightblue" d="M66.93,-224.08C71.5,-216.61 78.15,-205.72 83.78,-196.52"/>
<polygon fill="midnightblue" stroke="midnightblue" points="86.91,-198.11 89.13,-187.75 80.93,-194.46 86.91,-198.11"/>
</g>
<!-- Node4&#45;&gt;Node2 -->
<g id="edge5" class="edge">
<title>Node4&#45;&gt;Node2</title>
<path fill="none" stroke="midnightblue" d="M84.68,-168.32C75.66,-160.34 62.08,-148.31 51.16,-138.65"/>
<polygon fill="midnightblue" stroke="midnightblue" points="53.27,-135.84 43.46,-131.83 48.63,-141.08 53.27,-135.84"/>
</g>
<!-- Node5 -->
<g id="node5" class="node">
<title>Node5</title>
<g id="a_node5"><a xlink:title=" ">
<polygon fill="white" stroke="#bfbfbf" points="183.98,-0.5 183.98,-19.5 236.98,-19.5 236.98,-0.5 183.98,-0.5"/>
<text text-anchor="middle" x="210.48" y="-7.5" font-family="Helvetica,sans-Serif" font-size="10.00">stdint.h</text>
</a>
</g>
</g>
<!-- Node4&#45;&gt;Node5 -->
<g id="edge6" class="edge">
<title>Node4&#45;&gt;Node5</title>
<path fill="none" stroke="midnightblue" d="M94.5,-168.36C95,-146.97 99,-90.78 126.48,-56 138.57,-40.7 157.34,-29.95 174.07,-22.8"/>
<polygon fill="midnightblue" stroke="midnightblue" points="175.62,-25.95 183.61,-19 173.03,-19.45 175.62,-25.95"/>
</g>
<!-- Node6 -->
<g id="node6" class="node">
<title>Node6</title>
<g id="a_node6"><a xlink:href="../../d8/d85/kns__types_8h.html" target="_top" xlink:title="Kineis types definition.">
<polygon fill="white" stroke="black" points="135.98,-56.5 135.98,-75.5 210.98,-75.5 210.98,-56.5 135.98,-56.5"/>
<text text-anchor="middle" x="173.48" y="-63.5" font-family="Helvetica,sans-Serif" font-size="10.00">kns_types.h</text>
</a>
</g>
</g>
<!-- Node4&#45;&gt;Node6 -->
<g id="edge7" class="edge">
<title>Node4&#45;&gt;Node6</title>
<path fill="none" stroke="midnightblue" d="M100.68,-168.37C113.72,-150.22 144.18,-107.8 161.28,-83.99"/>
<polygon fill="midnightblue" stroke="midnightblue" points="164.32,-85.76 167.31,-75.59 158.64,-81.67 164.32,-85.76"/>
</g>
<!-- Node6&#45;&gt;Node5 -->
<g id="edge8" class="edge">
<title>Node6&#45;&gt;Node5</title>
<path fill="none" stroke="midnightblue" d="M179.59,-56.08C184.76,-48.53 192.33,-37.49 198.68,-28.23"/>
<polygon fill="midnightblue" stroke="midnightblue" points="201.72,-29.98 204.49,-19.75 195.95,-26.02 201.72,-29.98"/>
</g>
<!-- Node8 -->
<g id="node8" class="node">
<title>Node8</title>
<g id="a_node8"><a xlink:href="../../df/d64/kns__mac__evt_8h.html" target="_top" xlink:title=" ">
<polygon fill="white" stroke="black" points="147.48,-168.5 147.48,-187.5 237.48,-187.5 237.48,-168.5 147.48,-168.5"/>
<text text-anchor="middle" x="192.48" y="-175.5" font-family="Helvetica,sans-Serif" font-size="10.00">kns_mac_evt.h</text>
</a>
</g>
</g>
<!-- Node7&#45;&gt;Node8 -->
<g id="edge11" class="edge">
<title>Node7&#45;&gt;Node8</title>
<path fill="none" stroke="midnightblue" d="M195.82,-224.08C195.3,-217.01 194.55,-206.86 193.89,-197.99"/>
<polygon fill="midnightblue" stroke="midnightblue" points="197.36,-197.47 193.13,-187.75 190.38,-197.98 197.36,-197.47"/>
</g>
<!-- Node9 -->
<g id="node9" class="node">
<title>Node9</title>
<g id="a_node9"><a xlink:href="../../d8/d4a/kns__mac__prfl__cfg_8h.html" target="_top" xlink:title="Header file describing the ser settings required to configure a MAC protocol.">
<polygon fill="white" stroke="black" points="197.98,-112.5 197.98,-131.5 308.98,-131.5 308.98,-112.5 197.98,-112.5"/>
<text text-anchor="middle" x="253.48" y="-119.5" font-family="Helvetica,sans-Serif" font-size="10.00">kns_mac_prfl_cfg.h</text>
</a>
</g>
</g>
<!-- Node7&#45;&gt;Node9 -->
<g id="edge18" class="edge">
<title>Node7&#45;&gt;Node9</title>
<path fill="none" stroke="midnightblue" d="M211,-224.27C222.71,-216.37 238.51,-203.6 246.48,-188 253.83,-173.63 255.17,-155.17 254.92,-141.6"/>
<polygon fill="midnightblue" stroke="midnightblue" points="258.41,-141.36 254.42,-131.54 251.42,-141.7 258.41,-141.36"/>
</g>
<!-- Node8&#45;&gt;Node2 -->
<g id="edge12" class="edge">
<title>Node8&#45;&gt;Node2</title>
<path fill="none" stroke="midnightblue" d="M167.29,-168.44C140.54,-159.36 98.08,-144.94 68.18,-134.78"/>
<polygon fill="midnightblue" stroke="midnightblue" points="69.15,-131.42 58.56,-131.52 66.9,-138.05 69.15,-131.42"/>
</g>
<!-- Node8&#45;&gt;Node5 -->
<g id="edge13" class="edge">
<title>Node8&#45;&gt;Node5</title>
<path fill="none" stroke="midnightblue" d="M237.59,-173.63C265.86,-168.91 300.28,-157.82 318.48,-132 348.43,-89.51 279.01,-45.37 237.97,-24.06"/>
<polygon fill="midnightblue" stroke="midnightblue" points="239.46,-20.9 228.96,-19.51 236.31,-27.15 239.46,-20.9"/>
</g>
<!-- Node8&#45;&gt;Node6 -->
<g id="edge14" class="edge">
<title>Node8&#45;&gt;Node6</title>
<path fill="none" stroke="midnightblue" d="M190.99,-168.37C187.92,-150.62 180.85,-109.67 176.69,-85.6"/>
<polygon fill="midnightblue" stroke="midnightblue" points="180.12,-84.85 174.97,-75.59 173.22,-86.04 180.12,-84.85"/>
</g>
<!-- Node8&#45;&gt;Node9 -->
<g id="edge15" class="edge">
<title>Node8&#45;&gt;Node9</title>
<path fill="none" stroke="midnightblue" d="M202.28,-168.32C211.3,-160.34 224.89,-148.31 235.8,-138.65"/>
<polygon fill="midnightblue" stroke="midnightblue" points="238.33,-141.08 243.5,-131.83 233.69,-135.84 238.33,-141.08"/>
</g>
<!-- Node9&#45;&gt;Node5 -->
<g id="edge16" class="edge">
<title>Node9&#45;&gt;Node5</title>
<path fill="none" stroke="midnightblue" d="M250.11,-112.37C243.11,-94.46 226.87,-52.92 217.5,-28.95"/>
<polygon fill="midnightblue" stroke="midnightblue" points="220.74,-27.63 213.84,-19.59 214.22,-30.18 220.74,-27.63"/>
</g>
<!-- Node9&#45;&gt;Node6 -->
<g id="edge17" class="edge">
<title>Node9&#45;&gt;Node6</title>
<path fill="none" stroke="midnightblue" d="M240.63,-112.32C228.27,-103.98 209.35,-91.21 194.74,-81.35"/>
<polygon fill="midnightblue" stroke="midnightblue" points="196.55,-78.35 186.3,-75.65 192.63,-84.15 196.55,-78.35"/>
</g>
</g>
</svg>
