<?xml version="1.0" encoding="UTF-8" standalone="no"?>
<!DOCTYPE svg PUBLIC "-//W3C//DTD SVG 1.1//EN"
 "http://www.w3.org/Graphics/SVG/1.1/DTD/svg11.dtd">
<!-- Generated by graphviz version 2.43.0 (0)
 -->
<!-- Title: Kineis/Lpm/Src/lpm_cli_kstk.c Pages: 1 -->
<svg width="374pt" height="263pt"
 viewBox="0.00 0.00 374.10 263.00" xmlns="http://www.w3.org/2000/svg" xmlns:xlink="http://www.w3.org/1999/xlink">
<g id="graph0" class="graph" transform="scale(1 1) rotate(0) translate(4 259)">
<title>Kineis/Lpm/Src/lpm_cli_kstk.c</title>
<polygon fill="white" stroke="transparent" points="-4,4 -4,-259 370.1,-259 370.1,4 -4,4"/>
<!-- Node1 -->
<g id="node1" class="node">
<title>Node1</title>
<g id="a_node1"><a xlink:title="Kineis stack&#39;s LPM client. It is implementing APIs needed to interface with the low power manager (MG...">
<polygon fill="#bfbfbf" stroke="black" points="41.6,-224.5 41.6,-254.5 151.6,-254.5 151.6,-224.5 41.6,-224.5"/>
<text text-anchor="start" x="49.6" y="-242.5" font-family="Helvetica,sans-Serif" font-size="10.00">Kineis/Lpm/Src/lpm</text>
<text text-anchor="middle" x="96.6" y="-231.5" font-family="Helvetica,sans-Serif" font-size="10.00">_cli_kstk.c</text>
</a>
</g>
</g>
<!-- Node2 -->
<g id="node2" class="node">
<title>Node2</title>
<g id="a_node2"><a xlink:title=" ">
<polygon fill="white" stroke="#bfbfbf" points="9.6,-56.5 9.6,-75.5 71.6,-75.5 71.6,-56.5 9.6,-56.5"/>
<text text-anchor="middle" x="40.6" y="-63.5" font-family="Helvetica,sans-Serif" font-size="10.00">stdbool.h</text>
</a>
</g>
</g>
<!-- Node1&#45;&gt;Node2 -->
<g id="edge1" class="edge">
<title>Node1&#45;&gt;Node2</title>
<path fill="none" stroke="midnightblue" d="M52.37,-224.44C35.25,-216.59 17.44,-204.89 7.6,-188 -12.02,-154.3 11.97,-108.52 28.15,-84.07"/>
<polygon fill="midnightblue" stroke="midnightblue" points="31.05,-86.02 33.86,-75.81 25.3,-82.04 31.05,-86.02"/>
</g>
<!-- Node3 -->
<g id="node3" class="node">
<title>Node3</title>
<g id="a_node3"><a xlink:href="../../df/da4/lpm__cli__kstk_8h.html" target="_top" xlink:title="Kineis stack&#39;s LPM client. It is implementing APIs needed to interface with the low power manager (MG...">
<polygon fill="white" stroke="black" points="17.1,-168.5 17.1,-187.5 104.1,-187.5 104.1,-168.5 17.1,-168.5"/>
<text text-anchor="middle" x="60.6" y="-175.5" font-family="Helvetica,sans-Serif" font-size="10.00">lpm_cli_kstk.h</text>
</a>
</g>
</g>
<!-- Node1&#45;&gt;Node3 -->
<g id="edge2" class="edge">
<title>Node1&#45;&gt;Node3</title>
<path fill="none" stroke="midnightblue" d="M88.07,-224.4C83,-216.02 76.53,-205.33 71.14,-196.42"/>
<polygon fill="midnightblue" stroke="midnightblue" points="74.01,-194.4 65.84,-187.66 68.02,-198.03 74.01,-194.4"/>
</g>
<!-- Node4 -->
<g id="node4" class="node">
<title>Node4</title>
<g id="a_node4"><a xlink:href="../../df/d63/mgr__lpm_8h.html" target="_top" xlink:title="low power mode manager is in charge to collect all low power needs from &#39;clients&#39; and setup the corre...">
<polygon fill="white" stroke="black" points="59.1,-112.5 59.1,-131.5 128.1,-131.5 128.1,-112.5 59.1,-112.5"/>
<text text-anchor="middle" x="93.6" y="-119.5" font-family="Helvetica,sans-Serif" font-size="10.00">mgr_lpm.h</text>
</a>
</g>
</g>
<!-- Node1&#45;&gt;Node4 -->
<g id="edge9" class="edge">
<title>Node1&#45;&gt;Node4</title>
<path fill="none" stroke="midnightblue" d="M103.87,-224.24C110.19,-210.04 117.76,-187.58 113.6,-168 111.61,-158.59 107.5,-148.76 103.53,-140.7"/>
<polygon fill="midnightblue" stroke="midnightblue" points="106.49,-138.81 98.73,-131.59 100.3,-142.07 106.49,-138.81"/>
</g>
<!-- Node7 -->
<g id="node7" class="node">
<title>Node7</title>
<g id="a_node7"><a xlink:href="../../d7/d1a/kns__mac_8h.html" target="_top" xlink:title="Main header file for MAC layer of Kineis stack.">
<polygon fill="white" stroke="black" points="161.1,-168.5 161.1,-187.5 230.1,-187.5 230.1,-168.5 161.1,-168.5"/>
<text text-anchor="middle" x="195.6" y="-175.5" font-family="Helvetica,sans-Serif" font-size="10.00">kns_mac.h</text>
</a>
</g>
</g>
<!-- Node1&#45;&gt;Node7 -->
<g id="edge10" class="edge">
<title>Node1&#45;&gt;Node7</title>
<path fill="none" stroke="midnightblue" d="M120.06,-224.4C135.93,-214.86 156.79,-202.32 172.57,-192.84"/>
<polygon fill="midnightblue" stroke="midnightblue" points="174.43,-195.81 181.2,-187.66 170.82,-189.81 174.43,-195.81"/>
</g>
<!-- Node3&#45;&gt;Node2 -->
<g id="edge3" class="edge">
<title>Node3&#45;&gt;Node2</title>
<path fill="none" stroke="midnightblue" d="M58.23,-168.43C55.8,-159.42 52.05,-144.8 49.6,-132 46.66,-116.59 44.28,-98.96 42.71,-85.95"/>
<polygon fill="midnightblue" stroke="midnightblue" points="46.17,-85.41 41.54,-75.88 39.22,-86.21 46.17,-85.41"/>
</g>
<!-- Node3&#45;&gt;Node4 -->
<g id="edge4" class="edge">
<title>Node3&#45;&gt;Node4</title>
<path fill="none" stroke="midnightblue" d="M66.05,-168.08C70.62,-160.61 77.27,-149.72 82.9,-140.52"/>
<polygon fill="midnightblue" stroke="midnightblue" points="86.03,-142.11 88.25,-131.75 80.05,-138.46 86.03,-142.11"/>
</g>
<!-- Node4&#45;&gt;Node2 -->
<g id="edge5" class="edge">
<title>Node4&#45;&gt;Node2</title>
<path fill="none" stroke="midnightblue" d="M84.85,-112.08C77.13,-104.22 65.7,-92.57 56.39,-83.08"/>
<polygon fill="midnightblue" stroke="midnightblue" points="58.69,-80.44 49.19,-75.75 53.7,-85.34 58.69,-80.44"/>
</g>
<!-- Node5 -->
<g id="node5" class="node">
<title>Node5</title>
<g id="a_node5"><a xlink:title=" ">
<polygon fill="white" stroke="#bfbfbf" points="190.1,-0.5 190.1,-19.5 243.1,-19.5 243.1,-0.5 190.1,-0.5"/>
<text text-anchor="middle" x="216.6" y="-7.5" font-family="Helvetica,sans-Serif" font-size="10.00">stdint.h</text>
</a>
</g>
</g>
<!-- Node4&#45;&gt;Node5 -->
<g id="edge6" class="edge">
<title>Node4&#45;&gt;Node5</title>
<path fill="none" stroke="midnightblue" d="M97.94,-112.07C104.84,-98.59 119.4,-72.85 137.6,-56 151.9,-42.77 170.76,-31.84 186.48,-24.07"/>
<polygon fill="midnightblue" stroke="midnightblue" points="188.25,-27.1 195.78,-19.64 185.25,-20.77 188.25,-27.1"/>
</g>
<!-- Node6 -->
<g id="node6" class="node">
<title>Node6</title>
<g id="a_node6"><a xlink:href="../../d8/d85/kns__types_8h.html" target="_top" xlink:title="Kineis types definition.">
<polygon fill="white" stroke="black" points="146.1,-56.5 146.1,-75.5 221.1,-75.5 221.1,-56.5 146.1,-56.5"/>
<text text-anchor="middle" x="183.6" y="-63.5" font-family="Helvetica,sans-Serif" font-size="10.00">kns_types.h</text>
</a>
</g>
</g>
<!-- Node4&#45;&gt;Node6 -->
<g id="edge7" class="edge">
<title>Node4&#45;&gt;Node6</title>
<path fill="none" stroke="midnightblue" d="M108.06,-112.32C122.1,-103.9 143.65,-90.97 160.15,-81.07"/>
<polygon fill="midnightblue" stroke="midnightblue" points="162.4,-83.8 169.18,-75.65 158.8,-77.8 162.4,-83.8"/>
</g>
<!-- Node6&#45;&gt;Node5 -->
<g id="edge8" class="edge">
<title>Node6&#45;&gt;Node5</title>
<path fill="none" stroke="midnightblue" d="M189.05,-56.08C193.62,-48.61 200.27,-37.72 205.9,-28.52"/>
<polygon fill="midnightblue" stroke="midnightblue" points="209.03,-30.11 211.25,-19.75 203.05,-26.46 209.03,-30.11"/>
</g>
<!-- Node8 -->
<g id="node8" class="node">
<title>Node8</title>
<g id="a_node8"><a xlink:href="../../df/d64/kns__mac__evt_8h.html" target="_top" xlink:title=" ">
<polygon fill="white" stroke="black" points="146.6,-112.5 146.6,-131.5 236.6,-131.5 236.6,-112.5 146.6,-112.5"/>
<text text-anchor="middle" x="191.6" y="-119.5" font-family="Helvetica,sans-Serif" font-size="10.00">kns_mac_evt.h</text>
</a>
</g>
</g>
<!-- Node7&#45;&gt;Node8 -->
<g id="edge11" class="edge">
<title>Node7&#45;&gt;Node8</title>
<path fill="none" stroke="midnightblue" d="M194.94,-168.08C194.42,-161.01 193.67,-150.86 193.01,-141.99"/>
<polygon fill="midnightblue" stroke="midnightblue" points="196.48,-141.47 192.25,-131.75 189.5,-141.98 196.48,-141.47"/>
</g>
<!-- Node9 -->
<g id="node9" class="node">
<title>Node9</title>
<g id="a_node9"><a xlink:href="../../d8/d4a/kns__mac__prfl__cfg_8h.html" target="_top" xlink:title="Header file describing the ser settings required to configure a MAC protocol.">
<polygon fill="white" stroke="black" points="255.1,-112.5 255.1,-131.5 366.1,-131.5 366.1,-112.5 255.1,-112.5"/>
<text text-anchor="middle" x="310.6" y="-119.5" font-family="Helvetica,sans-Serif" font-size="10.00">kns_mac_prfl_cfg.h</text>
</a>
</g>
</g>
<!-- Node7&#45;&gt;Node9 -->
<g id="edge15" class="edge">
<title>Node7&#45;&gt;Node9</title>
<path fill="none" stroke="midnightblue" d="M213.82,-168.44C232.5,-159.68 261.76,-145.94 283.22,-135.86"/>
<polygon fill="midnightblue" stroke="midnightblue" points="284.9,-138.93 292.47,-131.52 281.93,-132.6 284.9,-138.93"/>
</g>
<!-- Node8&#45;&gt;Node2 -->
<g id="edge12" class="edge">
<title>Node8&#45;&gt;Node2</title>
<path fill="none" stroke="midnightblue" d="M167.68,-112.44C142.38,-103.4 102.3,-89.06 73.92,-78.92"/>
<polygon fill="midnightblue" stroke="midnightblue" points="75.01,-75.59 64.42,-75.52 72.65,-82.18 75.01,-75.59"/>
</g>
<!-- Node8&#45;&gt;Node5 -->
<g id="edge13" class="edge">
<title>Node8&#45;&gt;Node5</title>
<path fill="none" stroke="midnightblue" d="M202.59,-112.37C212.06,-104.17 225.04,-90.92 230.6,-76 236.33,-60.64 231.4,-42.31 225.86,-29.04"/>
<polygon fill="midnightblue" stroke="midnightblue" points="228.88,-27.23 221.49,-19.64 222.53,-30.18 228.88,-27.23"/>
</g>
<!-- Node8&#45;&gt;Node6 -->
<g id="edge14" class="edge">
<title>Node8&#45;&gt;Node6</title>
<path fill="none" stroke="midnightblue" d="M190.28,-112.08C189.22,-104.93 187.7,-94.64 186.37,-85.69"/>
<polygon fill="midnightblue" stroke="midnightblue" points="189.83,-85.13 184.9,-75.75 182.9,-86.16 189.83,-85.13"/>
</g>
<!-- Node9&#45;&gt;Node5 -->
<g id="edge16" class="edge">
<title>Node9&#45;&gt;Node5</title>
<path fill="none" stroke="midnightblue" d="M303.23,-112.37C287.58,-94.05 250.83,-51.05 230.59,-27.36"/>
<polygon fill="midnightblue" stroke="midnightblue" points="233.1,-24.92 223.94,-19.59 227.78,-29.47 233.1,-24.92"/>
</g>
<!-- Node9&#45;&gt;Node6 -->
<g id="edge17" class="edge">
<title>Node9&#45;&gt;Node6</title>
<path fill="none" stroke="midnightblue" d="M290.48,-112.44C269.58,-103.56 236.67,-89.56 212.89,-79.45"/>
<polygon fill="midnightblue" stroke="midnightblue" points="214.2,-76.21 203.63,-75.52 211.47,-82.65 214.2,-76.21"/>
</g>
</g>
</svg>
