<?xml version="1.0" encoding="UTF-8" standalone="no"?>
<!DOCTYPE svg PUBLIC "-//W3C//DTD SVG 1.1//EN"
 "http://www.w3.org/Graphics/SVG/1.1/DTD/svg11.dtd">
<!-- Generated by graphviz version 2.43.0 (0)
 -->
<!-- Title: Kineis/Appconf/kns_app_conf.h Pages: 1 -->
<svg width="713pt" height="184pt"
 viewBox="0.00 0.00 712.50 184.00" xmlns="http://www.w3.org/2000/svg" xmlns:xlink="http://www.w3.org/1999/xlink">
<g id="graph0" class="graph" transform="scale(1 1) rotate(0) translate(4 180)">
<title>Kineis/Appconf/kns_app_conf.h</title>
<polygon fill="white" stroke="transparent" points="-4,4 -4,-180 708.5,-180 708.5,4 -4,4"/>
<!-- Node1 -->
<g id="node1" class="node">
<title>Node1</title>
<g id="a_node1"><a xlink:title="Kineis Application configurations depending on platform used.">
<polygon fill="#bfbfbf" stroke="black" points="305,-145.5 305,-175.5 415,-175.5 415,-145.5 305,-145.5"/>
<text text-anchor="start" x="313" y="-163.5" font-family="Helvetica,sans-Serif" font-size="10.00">Kineis/Appconf/kns</text>
<text text-anchor="middle" x="360" y="-152.5" font-family="Helvetica,sans-Serif" font-size="10.00">_app_conf.h</text>
</a>
</g>
</g>
<!-- Node2 -->
<g id="node2" class="node">
<title>Node2</title>
<g id="a_node2"><a xlink:href="../../d2/d04/mgr__at__cmd__list__certif_8c.html" target="_top" xlink:title="subset of AT commands concerning specifics for certification">
<polygon fill="white" stroke="black" points="0,-67.5 0,-108.5 130,-108.5 130,-67.5 0,-67.5"/>
<text text-anchor="start" x="8" y="-96.5" font-family="Helvetica,sans-Serif" font-size="10.00">Kineis/App/Managers</text>
<text text-anchor="start" x="8" y="-85.5" font-family="Helvetica,sans-Serif" font-size="10.00">/MGR_AT_CMD/Src/mgr</text>
<text text-anchor="middle" x="65" y="-74.5" font-family="Helvetica,sans-Serif" font-size="10.00">_at_cmd_list_certif.c</text>
</a>
</g>
</g>
<!-- Node1&#45;&gt;Node2 -->
<g id="edge1" class="edge">
<title>Node1&#45;&gt;Node2</title>
<path fill="none" stroke="midnightblue" d="M294.76,-145.15C250.91,-135.36 191.87,-121.87 140,-109 136.73,-108.19 133.38,-107.35 130.01,-106.48"/>
<polygon fill="midnightblue" stroke="midnightblue" points="294.2,-148.61 304.72,-147.37 295.72,-141.78 294.2,-148.61"/>
</g>
<!-- Node3 -->
<g id="node3" class="node">
<title>Node3</title>
<g id="a_node3"><a xlink:href="../../d8/d3c/mcu__at__console__stm_8c.html" target="_top" xlink:title=" ">
<polygon fill="white" stroke="black" points="148.5,-73 148.5,-103 279.5,-103 279.5,-73 148.5,-73"/>
<text text-anchor="start" x="156.5" y="-91" font-family="Helvetica,sans-Serif" font-size="10.00">Kineis/App/Mcu/Src</text>
<text text-anchor="middle" x="214" y="-80" font-family="Helvetica,sans-Serif" font-size="10.00">/mcu_at_console_stm.c</text>
</a>
</g>
</g>
<!-- Node1&#45;&gt;Node3 -->
<g id="edge2" class="edge">
<title>Node1&#45;&gt;Node3</title>
<path fill="none" stroke="midnightblue" d="M321.75,-141.03C297.16,-129.16 265.71,-113.97 243.14,-103.07"/>
<polygon fill="midnightblue" stroke="midnightblue" points="320.28,-144.21 330.81,-145.4 323.32,-137.9 320.28,-144.21"/>
</g>
<!-- Node5 -->
<g id="node5" class="node">
<title>Node5</title>
<g id="a_node5"><a xlink:href="../../dd/d3f/mcu__tim_8c.html" target="_top" xlink:title="MCU wrappers for timer or non&#45;blocking delays used by Kineis stack.">
<polygon fill="white" stroke="black" points="297.5,-73 297.5,-103 422.5,-103 422.5,-73 297.5,-73"/>
<text text-anchor="start" x="305.5" y="-91" font-family="Helvetica,sans-Serif" font-size="10.00">Kineis/Extdep/Mcu/Src</text>
<text text-anchor="middle" x="360" y="-80" font-family="Helvetica,sans-Serif" font-size="10.00">/mcu_tim.c</text>
</a>
</g>
</g>
<!-- Node1&#45;&gt;Node5 -->
<g id="edge4" class="edge">
<title>Node1&#45;&gt;Node5</title>
<path fill="none" stroke="midnightblue" d="M360,-135.23C360,-124.57 360,-112.41 360,-103.25"/>
<polygon fill="midnightblue" stroke="midnightblue" points="356.5,-135.23 360,-145.23 363.5,-135.23 356.5,-135.23"/>
</g>
<!-- Node6 -->
<g id="node6" class="node">
<title>Node6</title>
<g id="a_node6"><a xlink:href="../../dc/d4f/mgr__log__rtc_8c.html" target="_top" xlink:title="This file contains log routine concerning RTC. There is a dependency on HAL RTC.">
<polygon fill="white" stroke="black" points="440.5,-73 440.5,-103 575.5,-103 575.5,-73 440.5,-73"/>
<text text-anchor="start" x="448.5" y="-91" font-family="Helvetica,sans-Serif" font-size="10.00">Kineis/Extdep/MGR_LOG</text>
<text text-anchor="middle" x="508" y="-80" font-family="Helvetica,sans-Serif" font-size="10.00">/Src/mgr_log_rtc.c</text>
</a>
</g>
</g>
<!-- Node1&#45;&gt;Node6 -->
<g id="edge5" class="edge">
<title>Node1&#45;&gt;Node6</title>
<path fill="none" stroke="midnightblue" d="M398.77,-141.03C423.7,-129.16 455.58,-113.97 478.46,-103.07"/>
<polygon fill="midnightblue" stroke="midnightblue" points="397.12,-137.94 389.59,-145.4 400.13,-144.26 397.12,-137.94"/>
</g>
<!-- Node7 -->
<g id="node7" class="node">
<title>Node7</title>
<g id="a_node7"><a xlink:href="../../dd/d8d/mgr__lpm_8c.html" target="_top" xlink:title="low power mode manager is in charge to collect all low power needs from &#39;clients&#39; and setup the corre...">
<polygon fill="white" stroke="black" points="593.5,-73 593.5,-103 704.5,-103 704.5,-73 593.5,-73"/>
<text text-anchor="start" x="601.5" y="-91" font-family="Helvetica,sans-Serif" font-size="10.00">Kineis/Lpm/Src/mgr</text>
<text text-anchor="middle" x="649" y="-80" font-family="Helvetica,sans-Serif" font-size="10.00">_lpm.c</text>
</a>
</g>
</g>
<!-- Node1&#45;&gt;Node7 -->
<g id="edge6" class="edge">
<title>Node1&#45;&gt;Node7</title>
<path fill="none" stroke="midnightblue" d="M425.27,-146.33C470.37,-136.87 531.61,-123.31 585,-109 591.75,-107.19 598.85,-105.13 605.76,-103.04"/>
<polygon fill="midnightblue" stroke="midnightblue" points="424.4,-142.94 415.33,-148.4 425.83,-149.79 424.4,-142.94"/>
</g>
<!-- Node4 -->
<g id="node4" class="node">
<title>Node4</title>
<g id="a_node4"><a xlink:href="../../dd/ddf/mcu__at__console_8c.html" target="_top" xlink:title="MCU wrapper for AT CMD console.">
<polygon fill="white" stroke="black" points="159,-0.5 159,-30.5 269,-30.5 269,-0.5 159,-0.5"/>
<text text-anchor="start" x="167" y="-18.5" font-family="Helvetica,sans-Serif" font-size="10.00">Kineis/App/Mcu/Src</text>
<text text-anchor="middle" x="214" y="-7.5" font-family="Helvetica,sans-Serif" font-size="10.00">/mcu_at_console.c</text>
</a>
</g>
</g>
<!-- Node3&#45;&gt;Node4 -->
<g id="edge3" class="edge">
<title>Node3&#45;&gt;Node4</title>
<path fill="none" stroke="midnightblue" d="M214,-62.73C214,-52.07 214,-39.91 214,-30.75"/>
<polygon fill="midnightblue" stroke="midnightblue" points="210.5,-62.73 214,-72.73 217.5,-62.73 210.5,-62.73"/>
</g>
</g>
</svg>
