<?xml version="1.0" encoding="UTF-8" standalone="no"?>
<!DOCTYPE svg PUBLIC "-//W3C//DTD SVG 1.1//EN"
 "http://www.w3.org/Graphics/SVG/1.1/DTD/svg11.dtd">
<!-- Generated by graphviz version 2.43.0 (0)
 -->
<!-- Title: IDLE_task Pages: 1 -->
<svg width="744pt" height="332pt"
 viewBox="0.00 0.00 744.00 332.00" xmlns="http://www.w3.org/2000/svg" xmlns:xlink="http://www.w3.org/1999/xlink">
<g id="graph0" class="graph" transform="scale(1 1) rotate(0) translate(4 328)">
<title>IDLE_task</title>
<polygon fill="white" stroke="transparent" points="-4,4 -4,-328 740,-328 740,4 -4,4"/>
<!-- Node1 -->
<g id="node1" class="node">
<title>Node1</title>
<g id="a_node1"><a xlink:title=" ">
<polygon fill="#bfbfbf" stroke="black" points="0,-247.5 0,-266.5 65,-266.5 65,-247.5 0,-247.5"/>
<text text-anchor="middle" x="32.5" y="-254.5" font-family="Helvetica,sans-Serif" font-size="10.00">IDLE_task</text>
</a>
</g>
</g>
<!-- Node2 -->
<g id="node2" class="node">
<title>Node2</title>
<g id="a_node2"><a xlink:href="../../d0/d29/main_8c.html#a2436cad8369aeaa42df04ee4024042f2" target="_top" xlink:title="Check stack limit, in a way to track overflows (0xAAAAAAAA)">
<polygon fill="white" stroke="black" points="120,-304.5 120,-323.5 231,-323.5 231,-304.5 120,-304.5"/>
<text text-anchor="middle" x="175.5" y="-311.5" font-family="Helvetica,sans-Serif" font-size="10.00">assertMspOverflow</text>
</a>
</g>
</g>
<!-- Node1&#45;&gt;Node2 -->
<g id="edge1" class="edge">
<title>Node1&#45;&gt;Node2</title>
<path fill="none" stroke="midnightblue" d="M51.24,-266.52C64.68,-273.52 83.71,-282.99 101,-290 110.99,-294.05 121.95,-297.92 132.29,-301.33"/>
<polygon fill="midnightblue" stroke="midnightblue" points="131.36,-304.71 141.95,-304.44 133.51,-298.05 131.36,-304.71"/>
</g>
<!-- Node3 -->
<g id="node3" class="node">
<title>Node3</title>
<g id="a_node3"><a xlink:href="../../d1/ddb/group___k_n_s___q.html#gae3b6f82f0cfe829173632dde48cd0d28" target="_top" xlink:title="This function is used to check some queue contains some elements.">
<polygon fill="white" stroke="black" points="613,-133.5 613,-152.5 736,-152.5 736,-133.5 613,-133.5"/>
<text text-anchor="middle" x="674.5" y="-140.5" font-family="Helvetica,sans-Serif" font-size="10.00">KNS_Q_isEvtInSomeQ</text>
</a>
</g>
</g>
<!-- Node1&#45;&gt;Node3 -->
<g id="edge2" class="edge">
<title>Node1&#45;&gt;Node3</title>
<path fill="none" stroke="midnightblue" d="M65.19,-260.43C167.15,-270.94 485.4,-299.47 577,-257 619.35,-237.37 649.85,-188.98 664.23,-161.98"/>
<polygon fill="midnightblue" stroke="midnightblue" points="667.5,-163.28 668.94,-152.79 661.27,-160.09 667.5,-163.28"/>
</g>
<!-- Node4 -->
<g id="node4" class="node">
<title>Node4</title>
<g id="a_node4"><a xlink:href="../../db/dca/group___m_g_r___l_p_m.html#ga349cbb2c24fd0bd7f2c24bd063734660" target="_top" xlink:title="Try to enter low power mode depending on clients capabilities.">
<polygon fill="white" stroke="black" points="141.5,-228.5 141.5,-247.5 209.5,-247.5 209.5,-228.5 141.5,-228.5"/>
<text text-anchor="middle" x="175.5" y="-235.5" font-family="Helvetica,sans-Serif" font-size="10.00">LPM_enter</text>
</a>
</g>
</g>
<!-- Node1&#45;&gt;Node4 -->
<g id="edge3" class="edge">
<title>Node1&#45;&gt;Node4</title>
<path fill="none" stroke="midnightblue" d="M65.14,-252.74C84.68,-250.1 110.01,-246.69 131.37,-243.81"/>
<polygon fill="midnightblue" stroke="midnightblue" points="132.05,-247.25 141.49,-242.45 131.11,-240.31 132.05,-247.25"/>
</g>
<!-- Node13 -->
<g id="node13" class="node">
<title>Node13</title>
<g id="a_node13"><a xlink:href="../../d0/d0f/group___m_g_r___a_t___c_m_d.html#ga93e0ba86dd0dff06dc8b957213e34b58" target="_top" xlink:title="API used to check there is some AT command in internal fifo.">
<polygon fill="white" stroke="black" points="101,-190.5 101,-209.5 250,-209.5 250,-190.5 101,-190.5"/>
<text text-anchor="middle" x="175.5" y="-197.5" font-family="Helvetica,sans-Serif" font-size="10.00">MGR_AT_CMD_isPendingAt</text>
</a>
</g>
</g>
<!-- Node1&#45;&gt;Node13 -->
<g id="edge13" class="edge">
<title>Node1&#45;&gt;Node13</title>
<path fill="none" stroke="midnightblue" d="M47.96,-247.39C61.26,-238.92 81.79,-226.74 101,-219 107.16,-216.52 113.74,-214.28 120.34,-212.28"/>
<polygon fill="midnightblue" stroke="midnightblue" points="121.33,-215.64 129.98,-209.53 119.4,-208.91 121.33,-215.64"/>
</g>
<!-- Node5 -->
<g id="node5" class="node">
<title>Node5</title>
<g id="a_node5"><a xlink:href="../../db/dca/group___m_g_r___l_p_m.html#ga7bf128e76e6a14840b3c8d74946c37f1" target="_top" xlink:title="This is the main Entry point to the low power mode manager.">
<polygon fill="white" stroke="black" points="286,-133.5 286,-152.5 382,-152.5 382,-133.5 286,-133.5"/>
<text text-anchor="middle" x="334" y="-140.5" font-family="Helvetica,sans-Serif" font-size="10.00">MGR_LPM_enter</text>
</a>
</g>
</g>
<!-- Node4&#45;&gt;Node5 -->
<g id="edge4" class="edge">
<title>Node4&#45;&gt;Node5</title>
<path fill="none" stroke="midnightblue" d="M209.62,-233.02C222.73,-230.15 237.6,-225.73 250,-219 277.74,-203.94 303.53,-177.62 318.78,-160.25"/>
<polygon fill="midnightblue" stroke="midnightblue" points="321.54,-162.4 325.38,-152.53 316.22,-157.86 321.54,-162.4"/>
</g>
<!-- Node6 -->
<g id="node6" class="node">
<title>Node6</title>
<g id="a_node6"><a xlink:href="../../db/dca/group___m_g_r___l_p_m.html#ga64b281d5b49b69bcc99344d5dd614493" target="_top" xlink:title="internal API used to request client deepest LPM.">
<polygon fill="white" stroke="black" points="426,-228.5 426,-247.5 569,-247.5 569,-228.5 426,-228.5"/>
<text text-anchor="middle" x="497.5" y="-235.5" font-family="Helvetica,sans-Serif" font-size="10.00">eMGR_LPM_clientRequest</text>
</a>
</g>
</g>
<!-- Node5&#45;&gt;Node6 -->
<g id="edge5" class="edge">
<title>Node5&#45;&gt;Node6</title>
<path fill="none" stroke="midnightblue" d="M342.6,-152.58C356.01,-168.84 385.58,-201.73 418,-219 422.45,-221.37 427.2,-223.45 432.07,-225.27"/>
<polygon fill="midnightblue" stroke="midnightblue" points="430.96,-228.59 441.56,-228.47 433.2,-221.96 430.96,-228.59"/>
</g>
<!-- Node7 -->
<g id="node7" class="node">
<title>Node7</title>
<g id="a_node7"><a xlink:href="../../db/dca/group___m_g_r___l_p_m.html#ga52e2359a25b281d9fc80097bc2eae3c2" target="_top" xlink:title="internal API used to notify clients when entering into LPM">
<polygon fill="white" stroke="black" points="418,-190.5 418,-209.5 577,-209.5 577,-190.5 418,-190.5"/>
<text text-anchor="middle" x="497.5" y="-197.5" font-family="Helvetica,sans-Serif" font-size="10.00">vMGR_LPM_clientNotifyEnter</text>
</a>
</g>
</g>
<!-- Node5&#45;&gt;Node7 -->
<g id="edge6" class="edge">
<title>Node5&#45;&gt;Node7</title>
<path fill="none" stroke="midnightblue" d="M353.37,-152.65C369.92,-161.04 395.09,-173.06 418,-181 425.27,-183.52 433.02,-185.83 440.72,-187.9"/>
<polygon fill="midnightblue" stroke="midnightblue" points="439.85,-191.29 450.41,-190.41 441.61,-184.52 439.85,-191.29"/>
</g>
<!-- Node8 -->
<g id="node8" class="node">
<title>Node8</title>
<g id="a_node8"><a xlink:href="../../db/dca/group___m_g_r___l_p_m.html#gac44963210fbbc4095bab272f5b382b3a" target="_top" xlink:title="internal API used to notify clients when exiting LPM">
<polygon fill="white" stroke="black" points="421.5,-152.5 421.5,-171.5 573.5,-171.5 573.5,-152.5 421.5,-152.5"/>
<text text-anchor="middle" x="497.5" y="-159.5" font-family="Helvetica,sans-Serif" font-size="10.00">vMGR_LPM_clientNotifyExit</text>
</a>
</g>
</g>
<!-- Node5&#45;&gt;Node8 -->
<g id="edge7" class="edge">
<title>Node5&#45;&gt;Node8</title>
<path fill="none" stroke="midnightblue" d="M382.15,-148.55C391.36,-149.63 401.29,-150.8 411.31,-151.98"/>
<polygon fill="midnightblue" stroke="midnightblue" points="411,-155.47 421.34,-153.16 411.82,-148.51 411,-155.47"/>
</g>
<!-- Node9 -->
<g id="node9" class="node">
<title>Node9</title>
<g id="a_node9"><a xlink:href="../../db/dca/group___m_g_r___l_p_m.html#gabbe558bca2d35870d29e614dd72c63c5" target="_top" xlink:title="This is the function to enter in shutdown mode.">
<polygon fill="white" stroke="black" points="422.5,-114.5 422.5,-133.5 572.5,-133.5 572.5,-114.5 422.5,-114.5"/>
<text text-anchor="middle" x="497.5" y="-121.5" font-family="Helvetica,sans-Serif" font-size="10.00">vMGR_LPM_enterShutdown</text>
</a>
</g>
</g>
<!-- Node5&#45;&gt;Node9 -->
<g id="edge8" class="edge">
<title>Node5&#45;&gt;Node9</title>
<path fill="none" stroke="midnightblue" d="M382.15,-137.45C391.67,-136.33 401.96,-135.12 412.32,-133.9"/>
<polygon fill="midnightblue" stroke="midnightblue" points="412.73,-137.38 422.25,-132.74 411.91,-130.43 412.73,-137.38"/>
</g>
<!-- Node10 -->
<g id="node10" class="node">
<title>Node10</title>
<g id="a_node10"><a xlink:href="../../db/dca/group___m_g_r___l_p_m.html#gae9eed692d36867fa1fa8d825e57d3926" target="_top" xlink:title="This is the function to enter in sleep mode.">
<polygon fill="white" stroke="black" points="433,-76.5 433,-95.5 562,-95.5 562,-76.5 433,-76.5"/>
<text text-anchor="middle" x="497.5" y="-83.5" font-family="Helvetica,sans-Serif" font-size="10.00">vMGR_LPM_enterSleep</text>
</a>
</g>
</g>
<!-- Node5&#45;&gt;Node10 -->
<g id="edge9" class="edge">
<title>Node5&#45;&gt;Node10</title>
<path fill="none" stroke="midnightblue" d="M353.37,-133.35C369.92,-124.96 395.09,-112.94 418,-105 425.27,-102.48 433.02,-100.17 440.72,-98.1"/>
<polygon fill="midnightblue" stroke="midnightblue" points="441.61,-101.48 450.41,-95.59 439.85,-94.71 441.61,-101.48"/>
</g>
<!-- Node11 -->
<g id="node11" class="node">
<title>Node11</title>
<g id="a_node11"><a xlink:href="../../db/dca/group___m_g_r___l_p_m.html#gacba2a0ba5b0d79aee8e65edc76451e48" target="_top" xlink:title="This is the function to enter in standby mode.">
<polygon fill="white" stroke="black" points="426,-38.5 426,-57.5 569,-57.5 569,-38.5 426,-38.5"/>
<text text-anchor="middle" x="497.5" y="-45.5" font-family="Helvetica,sans-Serif" font-size="10.00">vMGR_LPM_enterStandBy</text>
</a>
</g>
</g>
<!-- Node5&#45;&gt;Node11 -->
<g id="edge10" class="edge">
<title>Node5&#45;&gt;Node11</title>
<path fill="none" stroke="midnightblue" d="M342.6,-133.42C356.01,-117.16 385.58,-84.27 418,-67 422.45,-64.63 427.2,-62.55 432.07,-60.73"/>
<polygon fill="midnightblue" stroke="midnightblue" points="433.2,-64.04 441.56,-57.53 430.96,-57.41 433.2,-64.04"/>
</g>
<!-- Node12 -->
<g id="node12" class="node">
<title>Node12</title>
<g id="a_node12"><a xlink:href="../../db/dca/group___m_g_r___l_p_m.html#ga394c596cc344e87c088527daba299c8d" target="_top" xlink:title="This is the function to enter in stop mode.">
<polygon fill="white" stroke="black" points="435.5,-0.5 435.5,-19.5 559.5,-19.5 559.5,-0.5 435.5,-0.5"/>
<text text-anchor="middle" x="497.5" y="-7.5" font-family="Helvetica,sans-Serif" font-size="10.00">vMGR_LPM_enterStop</text>
</a>
</g>
</g>
<!-- Node5&#45;&gt;Node12 -->
<g id="edge11" class="edge">
<title>Node5&#45;&gt;Node12</title>
<path fill="none" stroke="midnightblue" d="M339.18,-133.26C349.26,-111.03 377.1,-56.36 418,-29 421.1,-26.93 424.39,-25.08 427.82,-23.44"/>
<polygon fill="midnightblue" stroke="midnightblue" points="429.26,-26.63 437.13,-19.54 426.56,-20.17 429.26,-26.63"/>
</g>
<!-- Node12&#45;&gt;Node3 -->
<g id="edge12" class="edge">
<title>Node12&#45;&gt;Node3</title>
<path fill="none" stroke="midnightblue" d="M556.37,-19.53C563.61,-22 570.68,-25.1 577,-29 616.33,-53.27 647.67,-99 663.08,-124.55"/>
<polygon fill="midnightblue" stroke="midnightblue" points="660.12,-126.41 668.19,-133.27 666.15,-122.87 660.12,-126.41"/>
</g>
</g>
</svg>
