<?xml version="1.0" encoding="UTF-8" standalone="no"?>
<!DOCTYPE svg PUBLIC "-//W3C//DTD SVG 1.1//EN"
 "http://www.w3.org/Graphics/SVG/1.1/DTD/svg11.dtd">
<!-- Generated by graphviz version 2.43.0 (0)
 -->
<!-- Title: main Pages: 1 -->
<svg width="855pt" height="900pt"
 viewBox="0.00 0.00 855.00 899.95" xmlns="http://www.w3.org/2000/svg" xmlns:xlink="http://www.w3.org/1999/xlink">
<g id="graph0" class="graph" transform="scale(1 1) rotate(0) translate(4 895.95)">
<title>main</title>
<polygon fill="white" stroke="transparent" points="-4,4 -4,-895.95 851,-895.95 851,4 -4,4"/>
<!-- Node1 -->
<g id="node1" class="node">
<title>Node1</title>
<g id="a_node1"><a xlink:title="The application entry point.">
<polygon fill="#bfbfbf" stroke="black" points="0,-342.5 0,-361.5 41,-361.5 41,-342.5 0,-342.5"/>
<text text-anchor="middle" x="20.5" y="-349.5" font-family="Helvetica,sans-Serif" font-size="10.00">main</text>
</a>
</g>
</g>
<!-- Node2 -->
<g id="node2" class="node">
<title>Node2</title>
<g id="a_node2"><a xlink:href="../../d0/d29/main_8c.html#a1730ffe1e560465665eb47d9264826f9" target="_top" xlink:title="This function is executed in case of error occurrence.">
<polygon fill="white" stroke="black" points="318.5,-751.5 318.5,-770.5 401.5,-770.5 401.5,-751.5 318.5,-751.5"/>
<text text-anchor="middle" x="360" y="-758.5" font-family="Helvetica,sans-Serif" font-size="10.00">Error_Handler</text>
</a>
</g>
</g>
<!-- Node1&#45;&gt;Node2 -->
<g id="edge1" class="edge">
<title>Node1&#45;&gt;Node2</title>
<path fill="none" stroke="midnightblue" d="M21.49,-361.62C21.62,-414.15 24.99,-665.94 77,-718 137.51,-778.56 244.9,-776.94 308.25,-769.5"/>
<polygon fill="midnightblue" stroke="midnightblue" points="308.93,-772.94 318.41,-768.21 308.05,-766 308.93,-772.94"/>
</g>
<!-- Node3 -->
<g id="node3" class="node">
<title>Node3</title>
<g id="a_node3"><a xlink:href="../../d8/d62/group___m_c_u___a_p_p___w_r_a_p_p_e_r_s.html#gae14ee3e1d2a9b459c0d89c451a4bc470" target="_top" xlink:title="Send AT CMD response to console.">
<polygon fill="white" stroke="black" points="698.5,-741.5 698.5,-760.5 836.5,-760.5 836.5,-741.5 698.5,-741.5"/>
<text text-anchor="middle" x="767.5" y="-748.5" font-family="Helvetica,sans-Serif" font-size="10.00">MCU_AT_CONSOLE_send</text>
</a>
</g>
</g>
<!-- Node1&#45;&gt;Node3 -->
<g id="edge53" class="edge">
<title>Node1&#45;&gt;Node3</title>
<path fill="none" stroke="midnightblue" d="M21.34,-361.55C20.63,-417.27 19.89,-699.89 77,-759 255.84,-944.11 405.81,-903.08 652,-828 690.84,-816.16 728.44,-786.24 749.42,-767.38"/>
<polygon fill="midnightblue" stroke="midnightblue" points="751.88,-769.87 756.86,-760.52 747.13,-764.72 751.88,-769.87"/>
</g>
<!-- Node4 -->
<g id="node4" class="node">
<title>Node4</title>
<g id="a_node4"><a xlink:href="../../db/dca/group___m_g_r___l_p_m.html#ga2a7197f71c2bd57494778d45b8e3dab2" target="_top" xlink:title="Disable all GPIO as not used for the moment.">
<polygon fill="white" stroke="black" points="77,-456.5 77,-475.5 241,-475.5 241,-456.5 77,-456.5"/>
<text text-anchor="middle" x="159" y="-463.5" font-family="Helvetica,sans-Serif" font-size="10.00">GPIO_DisableAllToAnalogInput</text>
</a>
</g>
</g>
<!-- Node1&#45;&gt;Node4 -->
<g id="edge3" class="edge">
<title>Node1&#45;&gt;Node4</title>
<path fill="none" stroke="midnightblue" d="M24.25,-361.54C30.35,-380.89 46.89,-424.76 77,-447 79.53,-448.87 82.22,-450.56 85.02,-452.09"/>
<polygon fill="midnightblue" stroke="midnightblue" points="83.74,-455.35 94.28,-456.43 86.71,-449.01 83.74,-455.35"/>
</g>
<!-- Node5 -->
<g id="node5" class="node">
<title>Node5</title>
<g id="a_node5"><a xlink:href="../../d0/d29/main_8c.html#ab5e4675bc5ccd4c2aeeae31f8df4b4fb" target="_top" xlink:title=" ">
<polygon fill="white" stroke="black" points="126.5,-418.5 126.5,-437.5 191.5,-437.5 191.5,-418.5 126.5,-418.5"/>
<text text-anchor="middle" x="159" y="-425.5" font-family="Helvetica,sans-Serif" font-size="10.00">IDLE_task</text>
</a>
</g>
</g>
<!-- Node1&#45;&gt;Node5 -->
<g id="edge4" class="edge">
<title>Node1&#45;&gt;Node5</title>
<path fill="none" stroke="midnightblue" d="M28.17,-361.72C37.54,-374.58 55.84,-397.04 77,-409 89.02,-415.8 103.37,-420.17 116.62,-422.98"/>
<polygon fill="midnightblue" stroke="midnightblue" points="116.01,-426.42 126.48,-424.83 117.3,-419.54 116.01,-426.42"/>
</g>
<!-- Node18 -->
<g id="node14" class="node">
<title>Node18</title>
<g id="a_node14"><a xlink:href="../../dd/d41/group___k_n_s___a_p_p.html#ga255c1dfa836e65189f22594678e9f616" target="_top" xlink:title="Init function needed for the application SW running in front of the GUI.">
<polygon fill="white" stroke="black" points="108,-380.5 108,-399.5 210,-399.5 210,-380.5 108,-380.5"/>
<text text-anchor="middle" x="159" y="-387.5" font-family="Helvetica,sans-Serif" font-size="10.00">KNS_APP_gui_init</text>
</a>
</g>
</g>
<!-- Node1&#45;&gt;Node18 -->
<g id="edge13" class="edge">
<title>Node1&#45;&gt;Node18</title>
<path fill="none" stroke="midnightblue" d="M41.13,-359.25C51.68,-363.02 64.96,-367.54 77,-371 85.57,-373.47 94.72,-375.85 103.67,-378.04"/>
<polygon fill="midnightblue" stroke="midnightblue" points="103.11,-381.51 113.65,-380.44 104.75,-374.7 103.11,-381.51"/>
</g>
<!-- Node24 -->
<g id="node18" class="node">
<title>Node24</title>
<g id="a_node18"><a xlink:href="../../dd/d41/group___k_n_s___a_p_p.html#ga06543de003a98e82570c572ce5e1240c" target="_top" xlink:title="This fct is the application expected to run in front of the GUI.">
<polygon fill="white" stroke="black" points="105.5,-627.5 105.5,-646.5 212.5,-646.5 212.5,-627.5 105.5,-627.5"/>
<text text-anchor="middle" x="159" y="-634.5" font-family="Helvetica,sans-Serif" font-size="10.00">KNS_APP_gui_loop</text>
</a>
</g>
</g>
<!-- Node1&#45;&gt;Node24 -->
<g id="edge17" class="edge">
<title>Node1&#45;&gt;Node24</title>
<path fill="none" stroke="midnightblue" d="M21.51,-361.63C22,-394.96 27.45,-507.28 77,-580 89.58,-598.46 110.26,-612.87 127.57,-622.58"/>
<polygon fill="midnightblue" stroke="midnightblue" points="126.3,-625.87 136.77,-627.49 129.6,-619.69 126.3,-625.87"/>
</g>
<!-- Node45 -->
<g id="node32" class="node">
<title>Node45</title>
<g id="a_node32"><a xlink:href="../../dd/d41/group___k_n_s___a_p_p.html#ga7f6fc13a3df7e1c584e0afc7f85c2a1b" target="_top" xlink:title="At end of standalone APP test, generate TEST status.">
<polygon fill="white" stroke="black" points="103.5,-551.5 103.5,-570.5 214.5,-570.5 214.5,-551.5 103.5,-551.5"/>
<text text-anchor="middle" x="159" y="-558.5" font-family="Helvetica,sans-Serif" font-size="10.00">KNS_APP_stdln_init</text>
</a>
</g>
</g>
<!-- Node1&#45;&gt;Node45 -->
<g id="edge35" class="edge">
<title>Node1&#45;&gt;Node45</title>
<path fill="none" stroke="midnightblue" d="M22.03,-361.82C24.07,-390.27 33.63,-473.85 77,-523 86.59,-533.87 99.96,-541.87 113.07,-547.64"/>
<polygon fill="midnightblue" stroke="midnightblue" points="111.93,-550.95 122.52,-551.46 114.56,-544.46 111.93,-550.95"/>
</g>
<!-- Node47 -->
<g id="node34" class="node">
<title>Node47</title>
<g id="a_node34"><a xlink:href="../../dd/d41/group___k_n_s___a_p_p.html#ga7dcd894e8e120e17325f7801d136d938" target="_top" xlink:title="This fct is a very basic standalone application.">
<polygon fill="white" stroke="black" points="101,-494.5 101,-513.5 217,-513.5 217,-494.5 101,-494.5"/>
<text text-anchor="middle" x="159" y="-501.5" font-family="Helvetica,sans-Serif" font-size="10.00">KNS_APP_stdln_loop</text>
</a>
</g>
</g>
<!-- Node1&#45;&gt;Node47 -->
<g id="edge37" class="edge">
<title>Node1&#45;&gt;Node47</title>
<path fill="none" stroke="midnightblue" d="M22.57,-361.78C25.82,-386.5 37.87,-451.84 77,-485 81.27,-488.62 86.1,-491.58 91.23,-493.99"/>
<polygon fill="midnightblue" stroke="midnightblue" points="90.14,-497.32 100.72,-497.78 92.73,-490.82 90.14,-497.32"/>
</g>
<!-- Node51 -->
<g id="node38" class="node">
<title>Node51</title>
<g id="a_node38"><a xlink:href="../../df/dbc/group___k_n_s___m_a_c.html#ga62f6e4a65f4287ba549d8802bc98f074" target="_top" xlink:title="MAC layer main task to be called from OS.">
<polygon fill="white" stroke="black" points="113.5,-342.5 113.5,-361.5 204.5,-361.5 204.5,-342.5 113.5,-342.5"/>
<text text-anchor="middle" x="159" y="-349.5" font-family="Helvetica,sans-Serif" font-size="10.00">KNS_MAC_task</text>
</a>
</g>
</g>
<!-- Node1&#45;&gt;Node51 -->
<g id="edge43" class="edge">
<title>Node1&#45;&gt;Node51</title>
<path fill="none" stroke="midnightblue" d="M41.06,-352C57.29,-352 81.18,-352 103.14,-352"/>
<polygon fill="midnightblue" stroke="midnightblue" points="103.39,-355.5 113.39,-352 103.39,-348.5 103.39,-355.5"/>
</g>
<!-- Node52 -->
<g id="node39" class="node">
<title>Node52</title>
<g id="a_node39"><a xlink:href="../../df/da4/group___k_n_s___o_s.html#ga0a892fccd7f4fb75f99405a0e4dc1b89" target="_top" xlink:title="This function is the main scheduler of Kineis baremetal OS.">
<polygon fill="white" stroke="black" points="116,-304.5 116,-323.5 202,-323.5 202,-304.5 116,-304.5"/>
<text text-anchor="middle" x="159" y="-311.5" font-family="Helvetica,sans-Serif" font-size="10.00">KNS_OS_main</text>
</a>
</g>
</g>
<!-- Node1&#45;&gt;Node52 -->
<g id="edge44" class="edge">
<title>Node1&#45;&gt;Node52</title>
<path fill="none" stroke="midnightblue" d="M41.13,-344.75C51.68,-340.98 64.96,-336.46 77,-333 86.27,-330.33 96.22,-327.76 105.86,-325.42"/>
<polygon fill="midnightblue" stroke="midnightblue" points="106.83,-328.79 115.75,-323.07 105.22,-321.98 106.83,-328.79"/>
</g>
<!-- Node53 -->
<g id="node40" class="node">
<title>Node53</title>
<g id="a_node40"><a xlink:href="../../df/da4/group___k_n_s___o_s.html#ga23487aaf89f6f7bdf5dd40adcb5f8a64" target="_top" xlink:title="This function is used to register task to be handled by baremetal Kineis OS.">
<polygon fill="white" stroke="black" points="99,-266.5 99,-285.5 219,-285.5 219,-266.5 99,-266.5"/>
<text text-anchor="middle" x="159" y="-273.5" font-family="Helvetica,sans-Serif" font-size="10.00">KNS_OS_registerTask</text>
</a>
</g>
</g>
<!-- Node1&#45;&gt;Node53 -->
<g id="edge45" class="edge">
<title>Node1&#45;&gt;Node53</title>
<path fill="none" stroke="midnightblue" d="M28.17,-342.28C37.54,-329.42 55.84,-306.96 77,-295 81,-292.74 85.25,-290.75 89.64,-288.99"/>
<polygon fill="midnightblue" stroke="midnightblue" points="91.15,-292.17 99.4,-285.51 88.8,-285.57 91.15,-292.17"/>
</g>
<!-- Node54 -->
<g id="node41" class="node">
<title>Node54</title>
<g id="a_node41"><a xlink:href="../../d1/ddb/group___k_n_s___q.html#gaa6fee493c2be7dbf974796fd99db498d" target="_top" xlink:title="This function is used to create queue.">
<polygon fill="white" stroke="black" points="116,-228.5 116,-247.5 202,-247.5 202,-228.5 116,-228.5"/>
<text text-anchor="middle" x="159" y="-235.5" font-family="Helvetica,sans-Serif" font-size="10.00">KNS_Q_create</text>
</a>
</g>
</g>
<!-- Node1&#45;&gt;Node54 -->
<g id="edge46" class="edge">
<title>Node1&#45;&gt;Node54</title>
<path fill="none" stroke="midnightblue" d="M24.25,-342.46C30.35,-323.11 46.89,-279.24 77,-257 85.45,-250.76 95.64,-246.53 105.9,-243.67"/>
<polygon fill="midnightblue" stroke="midnightblue" points="106.78,-247.06 115.7,-241.33 105.16,-240.25 106.78,-247.06"/>
</g>
<!-- Node55 -->
<g id="node42" class="node">
<title>Node55</title>
<g id="a_node42"><a xlink:href="../../db/dca/group___m_g_r___l_p_m.html#ga74cf27df142233dc7971d5c92b942239" target="_top" xlink:title="Force the current low power mode manually.">
<polygon fill="white" stroke="black" points="112,-190.5 112,-209.5 206,-209.5 206,-190.5 112,-190.5"/>
<text text-anchor="middle" x="159" y="-197.5" font-family="Helvetica,sans-Serif" font-size="10.00">LPM_forceMode</text>
</a>
</g>
</g>
<!-- Node1&#45;&gt;Node55 -->
<g id="edge47" class="edge">
<title>Node1&#45;&gt;Node55</title>
<path fill="none" stroke="midnightblue" d="M22.57,-342.22C25.82,-317.5 37.87,-252.16 77,-219 84.12,-212.97 92.81,-208.77 101.82,-205.86"/>
<polygon fill="midnightblue" stroke="midnightblue" points="102.93,-209.19 111.66,-203.19 101.1,-202.43 102.93,-209.19"/>
</g>
<!-- Node56 -->
<g id="node43" class="node">
<title>Node56</title>
<g id="a_node43"><a xlink:href="../../db/dca/group___m_g_r___l_p_m.html#gadce2d4f4f14f65b15b45c1621e7ad4b8" target="_top" xlink:title="Get the current low power mode.">
<polygon fill="white" stroke="black" points="116.5,-152.5 116.5,-171.5 201.5,-171.5 201.5,-152.5 116.5,-152.5"/>
<text text-anchor="middle" x="159" y="-159.5" font-family="Helvetica,sans-Serif" font-size="10.00">LPM_getMode</text>
</a>
</g>
</g>
<!-- Node1&#45;&gt;Node56 -->
<g id="edge48" class="edge">
<title>Node1&#45;&gt;Node56</title>
<path fill="none" stroke="midnightblue" d="M21.55,-342.14C22.26,-312.84 28.53,-225.59 77,-181 85.14,-173.51 95.65,-168.81 106.4,-165.88"/>
<polygon fill="midnightblue" stroke="midnightblue" points="107.27,-169.27 116.27,-163.67 105.74,-162.44 107.27,-169.27"/>
</g>
<!-- Node57 -->
<g id="node44" class="node">
<title>Node57</title>
<g id="a_node44"><a xlink:href="../../db/dca/group___m_g_r___l_p_m.html#ga3651c89177d143f413f9d69a84f15c15" target="_top" xlink:title="Initializes the LPM management and register clients such as the Kineis stack client.">
<polygon fill="white" stroke="black" points="130,-114.5 130,-133.5 188,-133.5 188,-114.5 130,-114.5"/>
<text text-anchor="middle" x="159" y="-121.5" font-family="Helvetica,sans-Serif" font-size="10.00">LPM_init</text>
</a>
</g>
</g>
<!-- Node1&#45;&gt;Node57 -->
<g id="edge49" class="edge">
<title>Node1&#45;&gt;Node57</title>
<path fill="none" stroke="midnightblue" d="M22.73,-342.47C27.68,-305.44 47.38,-171.77 77,-143 88.28,-132.04 104.62,-126.97 119.67,-124.76"/>
<polygon fill="midnightblue" stroke="midnightblue" points="120.25,-128.21 129.81,-123.64 119.48,-121.26 120.25,-128.21"/>
</g>
<!-- Node60 -->
<g id="node47" class="node">
<title>Node60</title>
<g id="a_node47"><a xlink:href="../../db/dca/group___m_g_r___l_p_m.html#gaf1f90aff094eac58cd08abf46df4fe0f" target="_top" xlink:title="Specific system function to configure some clock behaviours during LPM (e.g. UART)">
<polygon fill="white" stroke="black" points="90.5,-76.5 90.5,-95.5 227.5,-95.5 227.5,-76.5 90.5,-76.5"/>
<text text-anchor="middle" x="159" y="-83.5" font-family="Helvetica,sans-Serif" font-size="10.00">LPM_SystemClockConfig</text>
</a>
</g>
</g>
<!-- Node1&#45;&gt;Node60 -->
<g id="edge52" class="edge">
<title>Node1&#45;&gt;Node60</title>
<path fill="none" stroke="midnightblue" d="M22.31,-342.48C25.99,-301.4 42.51,-139.81 77,-105 78.45,-103.54 79.99,-102.18 81.6,-100.92"/>
<polygon fill="midnightblue" stroke="midnightblue" points="83.7,-103.73 90.23,-95.39 79.92,-97.84 83.7,-103.73"/>
</g>
<!-- Node61 -->
<g id="node48" class="node">
<title>Node61</title>
<g id="a_node48"><a xlink:href="../../d8/d5d/group___m_c_u___w_r_a_p_p_e_r_s.html#ga0a236e49bb7677ee6c323dd94e59c5b6" target="_top" xlink:title="Function used to un&#45;register the timer.">
<polygon fill="white" stroke="black" points="111,-38.5 111,-57.5 207,-57.5 207,-38.5 111,-38.5"/>
<text text-anchor="middle" x="159" y="-45.5" font-family="Helvetica,sans-Serif" font-size="10.00">MCU_TIM_deinit</text>
</a>
</g>
</g>
<!-- Node1&#45;&gt;Node61 -->
<g id="edge54" class="edge">
<title>Node1&#45;&gt;Node61</title>
<path fill="none" stroke="midnightblue" d="M22.01,-342.27C24.6,-297.05 37.67,-107.86 77,-67 83.55,-60.2 92.03,-55.63 101.04,-52.6"/>
<polygon fill="midnightblue" stroke="midnightblue" points="102.23,-55.9 110.94,-49.88 100.38,-49.15 102.23,-55.9"/>
</g>
<!-- Node62 -->
<g id="node49" class="node">
<title>Node62</title>
<g id="a_node49"><a xlink:href="../../d0/d29/main_8c.html#a946cd7187fe7c484f11db28f078eb33c" target="_top" xlink:title=" ">
<polygon fill="white" stroke="black" points="124.5,-0.5 124.5,-19.5 193.5,-19.5 193.5,-0.5 124.5,-0.5"/>
<text text-anchor="middle" x="159" y="-7.5" font-family="Helvetica,sans-Serif" font-size="10.00">Sram2_Init</text>
</a>
</g>
</g>
<!-- Node1&#45;&gt;Node62 -->
<g id="edge55" class="edge">
<title>Node1&#45;&gt;Node62</title>
<path fill="none" stroke="midnightblue" d="M21.77,-342.31C23.33,-293.62 32.73,-76.02 77,-29 86.55,-18.86 100.39,-13.66 113.95,-11.12"/>
<polygon fill="midnightblue" stroke="midnightblue" points="114.77,-14.54 124.18,-9.66 113.78,-7.61 114.77,-14.54"/>
</g>
<!-- Node63 -->
<g id="node50" class="node">
<title>Node63</title>
<g id="a_node50"><a xlink:href="../../d0/d29/main_8c.html#a70af21c671abfcc773614a9a4f63d920" target="_top" xlink:title="System Clock Configuration.">
<polygon fill="white" stroke="black" points="100.5,-689.5 100.5,-708.5 217.5,-708.5 217.5,-689.5 100.5,-689.5"/>
<text text-anchor="middle" x="159" y="-696.5" font-family="Helvetica,sans-Serif" font-size="10.00">SystemClock_Config</text>
</a>
</g>
</g>
<!-- Node1&#45;&gt;Node63 -->
<g id="edge56" class="edge">
<title>Node1&#45;&gt;Node63</title>
<path fill="none" stroke="midnightblue" d="M22.13,-361.53C25.36,-407.61 41.2,-607.07 77,-656 86.64,-669.18 101.55,-678.69 115.97,-685.37"/>
<polygon fill="midnightblue" stroke="midnightblue" points="114.74,-688.65 125.31,-689.36 117.49,-682.22 114.74,-688.65"/>
</g>
<!-- Node2&#45;&gt;Node3 -->
<g id="edge2" class="edge">
<title>Node2&#45;&gt;Node3</title>
<path fill="none" stroke="midnightblue" d="M378.74,-770.55C401.29,-782.09 441.75,-800.85 479,-808 554.51,-822.49 577.15,-825.6 652,-808 686.04,-799.99 721.54,-780.26 743.81,-766.27"/>
<polygon fill="midnightblue" stroke="midnightblue" points="745.99,-769.03 752.51,-760.67 742.2,-763.14 745.99,-769.03"/>
</g>
<!-- Node6 -->
<g id="node6" class="node">
<title>Node6</title>
<g id="a_node6"><a xlink:href="../../d0/d29/main_8c.html#a2436cad8369aeaa42df04ee4024042f2" target="_top" xlink:title="Check stack limit, in a way to track overflows (0xAAAAAAAA)">
<polygon fill="white" stroke="black" points="304.5,-380.5 304.5,-399.5 415.5,-399.5 415.5,-380.5 304.5,-380.5"/>
<text text-anchor="middle" x="360" y="-387.5" font-family="Helvetica,sans-Serif" font-size="10.00">assertMspOverflow</text>
</a>
</g>
</g>
<!-- Node5&#45;&gt;Node6 -->
<g id="edge5" class="edge">
<title>Node5&#45;&gt;Node6</title>
<path fill="none" stroke="midnightblue" d="M191.53,-421.98C220.26,-416.49 263.47,-408.24 298.8,-401.5"/>
<polygon fill="midnightblue" stroke="midnightblue" points="299.84,-404.86 309.01,-399.55 298.53,-397.98 299.84,-404.86"/>
</g>
<!-- Node7 -->
<g id="node7" class="node">
<title>Node7</title>
<g id="a_node7"><a xlink:href="../../d1/ddb/group___k_n_s___q.html#gae3b6f82f0cfe829173632dde48cd0d28" target="_top" xlink:title="This function is used to check some queue contains some elements.">
<polygon fill="white" stroke="black" points="298.5,-342.5 298.5,-361.5 421.5,-361.5 421.5,-342.5 298.5,-342.5"/>
<text text-anchor="middle" x="360" y="-349.5" font-family="Helvetica,sans-Serif" font-size="10.00">KNS_Q_isEvtInSomeQ</text>
</a>
</g>
</g>
<!-- Node5&#45;&gt;Node7 -->
<g id="edge6" class="edge">
<title>Node5&#45;&gt;Node7</title>
<path fill="none" stroke="midnightblue" d="M191.57,-424.92C207.23,-422.35 225.97,-417.63 241,-409 261.17,-397.41 256.81,-382.56 277,-371 280.89,-368.77 285.02,-366.81 289.28,-365.08"/>
<polygon fill="midnightblue" stroke="midnightblue" points="290.56,-368.33 298.77,-361.63 288.17,-361.75 290.56,-368.33"/>
</g>
<!-- Node8 -->
<g id="node8" class="node">
<title>Node8</title>
<g id="a_node8"><a xlink:href="../../db/dca/group___m_g_r___l_p_m.html#ga349cbb2c24fd0bd7f2c24bd063734660" target="_top" xlink:title="Try to enter low power mode depending on clients capabilities.">
<polygon fill="white" stroke="black" points="326,-304.5 326,-323.5 394,-323.5 394,-304.5 326,-304.5"/>
<text text-anchor="middle" x="360" y="-311.5" font-family="Helvetica,sans-Serif" font-size="10.00">LPM_enter</text>
</a>
</g>
</g>
<!-- Node5&#45;&gt;Node8 -->
<g id="edge7" class="edge">
<title>Node5&#45;&gt;Node8</title>
<path fill="none" stroke="midnightblue" d="M191.68,-426.98C207.94,-424.99 227.18,-420.16 241,-409 270.08,-385.52 247.89,-356.44 277,-333 287.88,-324.23 302.08,-319.37 315.59,-316.71"/>
<polygon fill="midnightblue" stroke="midnightblue" points="316.41,-320.12 325.72,-315.08 315.3,-313.21 316.41,-320.12"/>
</g>
<!-- Node17 -->
<g id="node13" class="node">
<title>Node17</title>
<g id="a_node13"><a xlink:href="../../d0/d0f/group___m_g_r___a_t___c_m_d.html#ga93e0ba86dd0dff06dc8b957213e34b58" target="_top" xlink:title="API used to check there is some AT command in internal fifo.">
<polygon fill="white" stroke="black" points="285.5,-266.5 285.5,-285.5 434.5,-285.5 434.5,-266.5 285.5,-266.5"/>
<text text-anchor="middle" x="360" y="-273.5" font-family="Helvetica,sans-Serif" font-size="10.00">MGR_AT_CMD_isPendingAt</text>
</a>
</g>
</g>
<!-- Node5&#45;&gt;Node17 -->
<g id="edge12" class="edge">
<title>Node5&#45;&gt;Node17</title>
<path fill="none" stroke="midnightblue" d="M191.52,-427.81C208.14,-426.09 227.76,-421.28 241,-409 279.96,-372.87 237.99,-331.07 277,-295 278.53,-293.59 280.14,-292.27 281.82,-291.05"/>
<polygon fill="midnightblue" stroke="midnightblue" points="284,-293.83 290.75,-285.67 280.38,-287.83 284,-293.83"/>
</g>
<!-- Node9 -->
<g id="node9" class="node">
<title>Node9</title>
<g id="a_node9"><a xlink:href="../../db/dca/group___m_g_r___l_p_m.html#ga7bf128e76e6a14840b3c8d74946c37f1" target="_top" xlink:title="This is the main Entry point to the low power mode manager.">
<polygon fill="white" stroke="red" points="517.5,-304.5 517.5,-323.5 613.5,-323.5 613.5,-304.5 517.5,-304.5"/>
<text text-anchor="middle" x="565.5" y="-311.5" font-family="Helvetica,sans-Serif" font-size="10.00">MGR_LPM_enter</text>
</a>
</g>
</g>
<!-- Node8&#45;&gt;Node9 -->
<g id="edge8" class="edge">
<title>Node8&#45;&gt;Node9</title>
<path fill="none" stroke="midnightblue" d="M394.15,-314C424.72,-314 470.77,-314 507.28,-314"/>
<polygon fill="midnightblue" stroke="midnightblue" points="507.31,-317.5 517.31,-314 507.31,-310.5 507.31,-317.5"/>
</g>
<!-- Node10 -->
<g id="node10" class="node">
<title>Node10</title>
<g id="a_node10"><a xlink:href="../../db/dca/group___m_g_r___l_p_m.html#ga64b281d5b49b69bcc99344d5dd614493" target="_top" xlink:title="internal API used to request client deepest LPM.">
<polygon fill="white" stroke="black" points="696,-342.5 696,-361.5 839,-361.5 839,-342.5 696,-342.5"/>
<text text-anchor="middle" x="767.5" y="-349.5" font-family="Helvetica,sans-Serif" font-size="10.00">eMGR_LPM_clientRequest</text>
</a>
</g>
</g>
<!-- Node9&#45;&gt;Node10 -->
<g id="edge9" class="edge">
<title>Node9&#45;&gt;Node10</title>
<path fill="none" stroke="midnightblue" d="M613.64,-322.96C641.35,-328.22 676.64,-334.93 706.34,-340.57"/>
<polygon fill="midnightblue" stroke="midnightblue" points="705.7,-344.01 716.18,-342.44 707.01,-337.13 705.7,-344.01"/>
</g>
<!-- Node11 -->
<g id="node11" class="node">
<title>Node11</title>
<g id="a_node11"><a xlink:href="../../db/dca/group___m_g_r___l_p_m.html#ga52e2359a25b281d9fc80097bc2eae3c2" target="_top" xlink:title="internal API used to notify clients when entering into LPM">
<polygon fill="white" stroke="black" points="688,-304.5 688,-323.5 847,-323.5 847,-304.5 688,-304.5"/>
<text text-anchor="middle" x="767.5" y="-311.5" font-family="Helvetica,sans-Serif" font-size="10.00">vMGR_LPM_clientNotifyEnter</text>
</a>
</g>
</g>
<!-- Node9&#45;&gt;Node11 -->
<g id="edge10" class="edge">
<title>Node9&#45;&gt;Node11</title>
<path fill="none" stroke="midnightblue" d="M613.64,-314C632.87,-314 655.76,-314 677.89,-314"/>
<polygon fill="midnightblue" stroke="midnightblue" points="677.99,-317.5 687.99,-314 677.99,-310.5 677.99,-317.5"/>
</g>
<!-- Node12 -->
<g id="node12" class="node">
<title>Node12</title>
<g id="a_node12"><a xlink:href="../../db/dca/group___m_g_r___l_p_m.html#gac44963210fbbc4095bab272f5b382b3a" target="_top" xlink:title="internal API used to notify clients when exiting LPM">
<polygon fill="white" stroke="black" points="691.5,-266.5 691.5,-285.5 843.5,-285.5 843.5,-266.5 691.5,-266.5"/>
<text text-anchor="middle" x="767.5" y="-273.5" font-family="Helvetica,sans-Serif" font-size="10.00">vMGR_LPM_clientNotifyExit</text>
</a>
</g>
</g>
<!-- Node9&#45;&gt;Node12 -->
<g id="edge11" class="edge">
<title>Node9&#45;&gt;Node12</title>
<path fill="none" stroke="midnightblue" d="M613.64,-305.04C641.35,-299.78 676.64,-293.07 706.34,-287.43"/>
<polygon fill="midnightblue" stroke="midnightblue" points="707.01,-290.87 716.18,-285.56 705.7,-283.99 707.01,-290.87"/>
</g>
<!-- Node19 -->
<g id="node15" class="node">
<title>Node19</title>
<g id="a_node15"><a xlink:href="../../d0/d0f/group___m_g_r___a_t___c_m_d.html#ga8edd80aa91125cf8b5f711cd822df02a" target="_top" xlink:title="main API used to start AT command Manager">
<polygon fill="white" stroke="black" points="303,-228.5 303,-247.5 417,-247.5 417,-228.5 303,-228.5"/>
<text text-anchor="middle" x="360" y="-235.5" font-family="Helvetica,sans-Serif" font-size="10.00">MGR_AT_CMD_start</text>
</a>
</g>
</g>
<!-- Node18&#45;&gt;Node19 -->
<g id="edge14" class="edge">
<title>Node18&#45;&gt;Node19</title>
<path fill="none" stroke="midnightblue" d="M210.2,-386.55C221.44,-383.66 232.53,-378.86 241,-371 279.96,-334.87 237.99,-293.07 277,-257 281.72,-252.64 287.23,-249.21 293.13,-246.53"/>
<polygon fill="midnightblue" stroke="midnightblue" points="294.56,-249.73 302.66,-242.91 292.07,-243.19 294.56,-249.73"/>
</g>
<!-- Node20 -->
<g id="node16" class="node">
<title>Node20</title>
<g id="a_node16"><a xlink:href="../../d8/d62/group___m_c_u___a_p_p___w_r_a_p_p_e_r_s.html#ga74be300679e0b76678c55d7c8b609e6a" target="_top" xlink:title="Start AT CMD console for AT cmd reception.">
<polygon fill="white" stroke="red" points="489.5,-247.5 489.5,-266.5 641.5,-266.5 641.5,-247.5 489.5,-247.5"/>
<text text-anchor="middle" x="565.5" y="-254.5" font-family="Helvetica,sans-Serif" font-size="10.00">MCU_AT_CONSOLE_register</text>
</a>
</g>
</g>
<!-- Node19&#45;&gt;Node20 -->
<g id="edge15" class="edge">
<title>Node19&#45;&gt;Node20</title>
<path fill="none" stroke="midnightblue" d="M417.15,-243.24C436.36,-245.04 458.3,-247.08 479.28,-249.04"/>
<polygon fill="midnightblue" stroke="midnightblue" points="479.2,-252.55 489.49,-250 479.85,-245.58 479.2,-252.55"/>
</g>
<!-- Node23 -->
<g id="node17" class="node">
<title>Node23</title>
<g id="a_node17"><a xlink:href="../../d0/d0f/group___m_g_r___a_t___c_m_d.html#ga8a8d9cacd2053d0c96e923fc183ac4ad" target="_top" xlink:title="API used to extract the latest AT cmds from the incoming received data stream.">
<polygon fill="white" stroke="black" points="482,-209.5 482,-228.5 649,-228.5 649,-209.5 482,-209.5"/>
<text text-anchor="middle" x="565.5" y="-216.5" font-family="Helvetica,sans-Serif" font-size="10.00">MGR_AT_CMD_parseStreamCb</text>
</a>
</g>
</g>
<!-- Node19&#45;&gt;Node23 -->
<g id="edge16" class="edge">
<title>Node19&#45;&gt;Node23</title>
<path fill="none" stroke="midnightblue" d="M417.15,-232.76C434.1,-231.18 453.18,-229.39 471.85,-227.65"/>
<polygon fill="midnightblue" stroke="midnightblue" points="472.23,-231.13 481.86,-226.72 471.58,-224.16 472.23,-231.13"/>
</g>
<!-- Node25 -->
<g id="node19" class="node">
<title>Node25</title>
<g id="a_node19"><a xlink:href="../../d0/d0f/group___m_g_r___a_t___c_m_d.html#ga9cef55cf869d8f8c3eaf6a49ca61b5d2" target="_top" xlink:title="Decode and exectue AT cmd if valid.">
<polygon fill="white" stroke="black" points="291.5,-713.5 291.5,-732.5 428.5,-732.5 428.5,-713.5 291.5,-713.5"/>
<text text-anchor="middle" x="360" y="-720.5" font-family="Helvetica,sans-Serif" font-size="10.00">MGR_AT_CMD_decodeAt</text>
</a>
</g>
</g>
<!-- Node24&#45;&gt;Node25 -->
<g id="edge18" class="edge">
<title>Node24&#45;&gt;Node25</title>
<path fill="none" stroke="midnightblue" d="M182.06,-646.53C217.39,-661.8 286.84,-691.82 327.43,-709.36"/>
<polygon fill="midnightblue" stroke="midnightblue" points="326.28,-712.67 336.84,-713.43 329.05,-706.25 326.28,-712.67"/>
</g>
<!-- Node29 -->
<g id="node22" class="node">
<title>Node29</title>
<g id="a_node22"><a xlink:href="../../d0/d0f/group___m_g_r___a_t___c_m_d.html#ga1a39b3c9cd76d50537a8bc42087ed46f" target="_top" xlink:title="Fct used to retreive and process event coming from kineis stack as answers to AT commands.">
<polygon fill="white" stroke="black" points="277,-646.5 277,-665.5 443,-665.5 443,-646.5 277,-646.5"/>
<text text-anchor="middle" x="360" y="-653.5" font-family="Helvetica,sans-Serif" font-size="10.00">MGR_AT_CMD_macEvtProcess</text>
</a>
</g>
</g>
<!-- Node24&#45;&gt;Node29 -->
<g id="edge22" class="edge">
<title>Node24&#45;&gt;Node29</title>
<path fill="none" stroke="midnightblue" d="M212.55,-642.02C229.24,-643.61 248.21,-645.42 266.85,-647.2"/>
<polygon fill="midnightblue" stroke="midnightblue" points="266.56,-650.69 276.85,-648.16 267.22,-643.72 266.56,-650.69"/>
</g>
<!-- Node44 -->
<g id="node31" class="node">
<title>Node44</title>
<g id="a_node31"><a xlink:href="../../d0/d0f/group___m_g_r___a_t___c_m_d.html#gae0ad7a2cd1228d268e28d2fd9fcd4411" target="_top" xlink:title="API used to get next AT command stored in internal fifo.">
<polygon fill="white" stroke="black" points="288.5,-608.5 288.5,-627.5 431.5,-627.5 431.5,-608.5 288.5,-608.5"/>
<text text-anchor="middle" x="360" y="-615.5" font-family="Helvetica,sans-Serif" font-size="10.00">MGR_AT_CMD_popNextAt</text>
</a>
</g>
</g>
<!-- Node24&#45;&gt;Node44 -->
<g id="edge34" class="edge">
<title>Node24&#45;&gt;Node44</title>
<path fill="none" stroke="midnightblue" d="M212.55,-631.98C232.62,-630.07 256,-627.83 278.1,-625.72"/>
<polygon fill="midnightblue" stroke="midnightblue" points="278.53,-629.2 288.16,-624.76 277.87,-622.23 278.53,-629.2"/>
</g>
<!-- Node26 -->
<g id="node20" class="node">
<title>Node26</title>
<g id="a_node20"><a xlink:href="../../d0/d0f/group___m_g_r___a_t___c_m_d.html#ga3d564aff9653e8bdc572d189093f1acc" target="_top" xlink:title="Log in debug interface a failed message.">
<polygon fill="white" stroke="black" points="484.5,-741.5 484.5,-760.5 646.5,-760.5 646.5,-741.5 484.5,-741.5"/>
<text text-anchor="middle" x="565.5" y="-748.5" font-family="Helvetica,sans-Serif" font-size="10.00">bMGR_AT_CMD_logFailedMsg</text>
</a>
</g>
</g>
<!-- Node25&#45;&gt;Node26 -->
<g id="edge19" class="edge">
<title>Node25&#45;&gt;Node26</title>
<path fill="none" stroke="midnightblue" d="M428.76,-732.32C446.89,-734.82 466.65,-737.54 485.34,-740.11"/>
<polygon fill="midnightblue" stroke="midnightblue" points="484.91,-743.58 495.3,-741.48 485.87,-736.65 484.91,-743.58"/>
</g>
<!-- Node27 -->
<g id="node21" class="node">
<title>Node27</title>
<g id="a_node21"><a xlink:href="../../d0/d0f/group___m_g_r___a_t___c_m_d.html#ga00f586ef524b455b8324900358922b2b" target="_top" xlink:title="Identifies AT command and its type (AT+XYZ=... or AT+XYZ=? or AT+XYZ? mode)">
<polygon fill="white" stroke="red" points="495.5,-779.5 495.5,-798.5 635.5,-798.5 635.5,-779.5 495.5,-779.5"/>
<text text-anchor="middle" x="565.5" y="-786.5" font-family="Helvetica,sans-Serif" font-size="10.00">MGR_AT_CMD_getAtType</text>
</a>
</g>
</g>
<!-- Node25&#45;&gt;Node27 -->
<g id="edge21" class="edge">
<title>Node25&#45;&gt;Node27</title>
<path fill="none" stroke="midnightblue" d="M417.24,-732.61C426.08,-735.08 434.95,-738.17 443,-742 461.3,-750.71 460.66,-761.37 479,-770 484.29,-772.49 489.92,-774.66 495.66,-776.55"/>
<polygon fill="midnightblue" stroke="midnightblue" points="494.82,-779.95 505.41,-779.47 496.83,-773.25 494.82,-779.95"/>
</g>
<!-- Node26&#45;&gt;Node3 -->
<g id="edge20" class="edge">
<title>Node26&#45;&gt;Node3</title>
<path fill="none" stroke="midnightblue" d="M646.7,-751C660.29,-751 674.4,-751 687.95,-751"/>
<polygon fill="midnightblue" stroke="midnightblue" points="688.19,-754.5 698.19,-751 688.19,-747.5 688.19,-754.5"/>
</g>
<!-- Node29&#45;&gt;Node26 -->
<g id="edge23" class="edge">
<title>Node29&#45;&gt;Node26</title>
<path fill="none" stroke="midnightblue" d="M379.01,-665.64C395.9,-674.9 421.69,-689.57 443,-704 459.78,-715.37 460.66,-723.37 479,-732 484.29,-734.49 489.92,-736.66 495.66,-738.55"/>
<polygon fill="midnightblue" stroke="midnightblue" points="494.82,-741.95 505.41,-741.47 496.83,-735.25 494.82,-741.95"/>
</g>
<!-- Node30 -->
<g id="node23" class="node">
<title>Node30</title>
<g id="a_node23"><a xlink:href="../../d0/d0f/group___m_g_r___a_t___c_m_d.html#gabef580da46cf82ca74ba3e5217cf3ffa" target="_top" xlink:title=": Log in debug interface a succeed message">
<polygon fill="white" stroke="black" points="479,-703.5 479,-722.5 652,-722.5 652,-703.5 479,-703.5"/>
<text text-anchor="middle" x="565.5" y="-710.5" font-family="Helvetica,sans-Serif" font-size="10.00">bMGR_AT_CMD_logSucceedMsg</text>
</a>
</g>
</g>
<!-- Node29&#45;&gt;Node30 -->
<g id="edge24" class="edge">
<title>Node29&#45;&gt;Node30</title>
<path fill="none" stroke="midnightblue" d="M388.44,-665.64C412.22,-673.79 447.64,-685.48 479,-694 488.26,-696.51 498.14,-698.94 507.79,-701.17"/>
<polygon fill="midnightblue" stroke="midnightblue" points="507.19,-704.63 517.71,-703.43 508.74,-697.8 507.19,-704.63"/>
</g>
<!-- Node31 -->
<g id="node24" class="node">
<title>Node31</title>
<g id="a_node24"><a xlink:href="../../d0/d0f/group___m_g_r___a_t___c_m_d.html#gae5c3c3791220ed4687558e8681648a0d" target="_top" xlink:title=": This function writes in UART the response of specific command">
<polygon fill="white" stroke="red" points="481.5,-665.5 481.5,-684.5 649.5,-684.5 649.5,-665.5 481.5,-665.5"/>
<text text-anchor="middle" x="565.5" y="-672.5" font-family="Helvetica,sans-Serif" font-size="10.00">bMGR_AT_CMD_sendResponse</text>
</a>
</g>
</g>
<!-- Node29&#45;&gt;Node31 -->
<g id="edge26" class="edge">
<title>Node29&#45;&gt;Node31</title>
<path fill="none" stroke="midnightblue" d="M443.18,-663.67C452.42,-664.54 461.88,-665.42 471.24,-666.29"/>
<polygon fill="midnightblue" stroke="midnightblue" points="471.06,-669.79 481.35,-667.24 471.71,-662.82 471.06,-669.79"/>
</g>
<!-- Node33 -->
<g id="node25" class="node">
<title>Node33</title>
<g id="a_node25"><a xlink:href="../../d1/ddb/group___k_n_s___q.html#ga200d86f8adcbe9365bcec0cc085c91c0" target="_top" xlink:title="This function is used to pop next element from a queue.">
<polygon fill="white" stroke="black" points="529,-437.5 529,-456.5 602,-456.5 602,-437.5 529,-437.5"/>
<text text-anchor="middle" x="565.5" y="-444.5" font-family="Helvetica,sans-Serif" font-size="10.00">KNS_Q_pop</text>
</a>
</g>
</g>
<!-- Node29&#45;&gt;Node33 -->
<g id="edge28" class="edge">
<title>Node29&#45;&gt;Node33</title>
<path fill="none" stroke="midnightblue" d="M430.43,-646.35C435.05,-643.83 439.32,-640.76 443,-637 497.36,-581.53 424.39,-521.22 479,-466 489.32,-455.56 504.02,-450.29 518.33,-447.78"/>
<polygon fill="midnightblue" stroke="midnightblue" points="519.16,-451.2 528.61,-446.4 518.23,-444.26 519.16,-451.2"/>
</g>
<!-- Node34 -->
<g id="node26" class="node">
<title>Node34</title>
<g id="a_node26"><a xlink:href="../../d0/d0f/group___m_g_r___a_t___c_m_d.html#gacc929e5b70f2d6fefaa89d8aabf18773" target="_top" xlink:title="Set/clear a GPIO around transmission.">
<polygon fill="white" stroke="black" points="528.5,-627.5 528.5,-646.5 602.5,-646.5 602.5,-627.5 528.5,-627.5"/>
<text text-anchor="middle" x="565.5" y="-634.5" font-family="Helvetica,sans-Serif" font-size="10.00">Set_TX_LED</text>
</a>
</g>
</g>
<!-- Node29&#45;&gt;Node34 -->
<g id="edge29" class="edge">
<title>Node29&#45;&gt;Node34</title>
<path fill="none" stroke="midnightblue" d="M443.18,-648.33C468.71,-645.94 495.93,-643.4 518.11,-641.33"/>
<polygon fill="midnightblue" stroke="midnightblue" points="518.62,-644.8 528.25,-640.38 517.96,-637.83 518.62,-644.8"/>
</g>
<!-- Node35 -->
<g id="node27" class="node">
<title>Node35</title>
<g id="a_node27"><a xlink:href="../../db/d4f/group___u_s_e_r___d_a_t_a.html#ga7bf3cf40b0f5041d24a722e26347c83d" target="_top" xlink:title="get first element which contains the expected payload">
<polygon fill="white" stroke="black" points="486,-589.5 486,-608.5 645,-608.5 645,-589.5 486,-589.5"/>
<text text-anchor="middle" x="565.5" y="-596.5" font-family="Helvetica,sans-Serif" font-size="10.00">USERDATA_txFifoFindPayload</text>
</a>
</g>
</g>
<!-- Node29&#45;&gt;Node35 -->
<g id="edge30" class="edge">
<title>Node29&#45;&gt;Node35</title>
<path fill="none" stroke="midnightblue" d="M411.47,-646.46C422.04,-643.87 433,-640.72 443,-637 459.95,-630.68 462.02,-624.24 479,-618 486.05,-615.41 493.55,-613.11 501.08,-611.09"/>
<polygon fill="midnightblue" stroke="midnightblue" points="502.12,-614.44 510.96,-608.59 500.41,-607.65 502.12,-614.44"/>
</g>
<!-- Node36 -->
<g id="node28" class="node">
<title>Node36</title>
<g id="a_node28"><a xlink:href="../../db/d4f/group___u_s_e_r___d_a_t_a.html#ga029850e8ca80a3be9b099582f5c7488a" target="_top" xlink:title="flush TX fifo">
<polygon fill="white" stroke="red" points="502,-551.5 502,-570.5 629,-570.5 629,-551.5 502,-551.5"/>
<text text-anchor="middle" x="565.5" y="-558.5" font-family="Helvetica,sans-Serif" font-size="10.00">USERDATA_txFifoFlush</text>
</a>
</g>
</g>
<!-- Node29&#45;&gt;Node36 -->
<g id="edge31" class="edge">
<title>Node29&#45;&gt;Node36</title>
<path fill="none" stroke="midnightblue" d="M424.95,-646.48C431.36,-644 437.52,-640.89 443,-637 467.43,-619.65 454.49,-597.24 479,-580 483.17,-577.07 487.71,-574.58 492.46,-572.46"/>
<polygon fill="midnightblue" stroke="midnightblue" points="493.73,-575.72 501.79,-568.85 491.2,-569.2 493.73,-575.72"/>
</g>
<!-- Node41 -->
<g id="node29" class="node">
<title>Node41</title>
<g id="a_node29"><a xlink:href="../../db/d4f/group___u_s_e_r___d_a_t_a.html#gac0082e264a11102f05874ef9f0609e26" target="_top" xlink:title="get first element of the TX Fifo">
<polygon fill="white" stroke="black" points="496.5,-513.5 496.5,-532.5 634.5,-532.5 634.5,-513.5 496.5,-513.5"/>
<text text-anchor="middle" x="565.5" y="-520.5" font-family="Helvetica,sans-Serif" font-size="10.00">USERDATA_txFifoGetFirst</text>
</a>
</g>
</g>
<!-- Node29&#45;&gt;Node41 -->
<g id="edge32" class="edge">
<title>Node29&#45;&gt;Node41</title>
<path fill="none" stroke="midnightblue" d="M428.22,-646.46C433.57,-643.95 438.6,-640.85 443,-637 477,-607.29 444.87,-571.56 479,-542 481.53,-539.81 484.25,-537.86 487.12,-536.11"/>
<polygon fill="midnightblue" stroke="midnightblue" points="488.82,-539.18 496.12,-531.5 485.62,-532.95 488.82,-539.18"/>
</g>
<!-- Node42 -->
<g id="node30" class="node">
<title>Node42</title>
<g id="a_node30"><a xlink:href="../../db/d4f/group___u_s_e_r___d_a_t_a.html#ga4d20835dbc4b21f645ff55eed7d93216" target="_top" xlink:title="Delete an element from the TX fifo.">
<polygon fill="white" stroke="red" points="488.5,-475.5 488.5,-494.5 642.5,-494.5 642.5,-475.5 488.5,-475.5"/>
<text text-anchor="middle" x="565.5" y="-482.5" font-family="Helvetica,sans-Serif" font-size="10.00">USERDATA_txFifoRemoveElt</text>
</a>
</g>
</g>
<!-- Node29&#45;&gt;Node42 -->
<g id="edge33" class="edge">
<title>Node29&#45;&gt;Node42</title>
<path fill="none" stroke="midnightblue" d="M429.81,-646.31C434.63,-643.82 439.11,-640.75 443,-637 487.09,-594.5 434.72,-546.3 479,-504 480.48,-502.58 482.05,-501.26 483.68,-500.03"/>
<polygon fill="midnightblue" stroke="midnightblue" points="485.74,-502.87 492.37,-494.6 482.03,-496.93 485.74,-502.87"/>
</g>
<!-- Node30&#45;&gt;Node3 -->
<g id="edge25" class="edge">
<title>Node30&#45;&gt;Node3</title>
<path fill="none" stroke="midnightblue" d="M616.71,-722.54C643.93,-727.71 677.76,-734.14 706.38,-739.58"/>
<polygon fill="midnightblue" stroke="midnightblue" points="705.79,-743.03 716.27,-741.46 707.1,-736.15 705.79,-743.03"/>
</g>
<!-- Node31&#45;&gt;Node3 -->
<g id="edge27" class="edge">
<title>Node31&#45;&gt;Node3</title>
<path fill="none" stroke="midnightblue" d="M619.07,-684.57C630.09,-687.16 641.54,-690.3 652,-694 684.05,-705.35 718.73,-723.51 741.42,-736.28"/>
<polygon fill="midnightblue" stroke="midnightblue" points="739.95,-739.47 750.37,-741.39 743.42,-733.39 739.95,-739.47"/>
</g>
<!-- Node46 -->
<g id="node33" class="node">
<title>Node46</title>
<g id="a_node33"><a xlink:href="../../d1/ddb/group___k_n_s___q.html#gac9a2be7939be73c32fd7eefb0d3ab3b3" target="_top" xlink:title="This function is used to push an element into a queue.">
<polygon fill="white" stroke="black" points="321,-570.5 321,-589.5 399,-589.5 399,-570.5 321,-570.5"/>
<text text-anchor="middle" x="360" y="-577.5" font-family="Helvetica,sans-Serif" font-size="10.00">KNS_Q_push</text>
</a>
</g>
</g>
<!-- Node45&#45;&gt;Node46 -->
<g id="edge36" class="edge">
<title>Node45&#45;&gt;Node46</title>
<path fill="none" stroke="midnightblue" d="M214.64,-566.22C244.67,-569.08 281.59,-572.61 310.57,-575.38"/>
<polygon fill="midnightblue" stroke="midnightblue" points="310.58,-578.89 320.86,-576.36 311.24,-571.92 310.58,-578.89"/>
</g>
<!-- Node47&#45;&gt;Node33 -->
<g id="edge40" class="edge">
<title>Node47&#45;&gt;Node33</title>
<path fill="none" stroke="midnightblue" d="M183.46,-513.59C234.4,-532.77 357.4,-570.18 443,-523 469.24,-508.54 454.49,-483.24 479,-466 490.5,-457.91 504.84,-453.19 518.47,-450.45"/>
<polygon fill="midnightblue" stroke="midnightblue" points="519.42,-453.84 528.7,-448.73 518.26,-446.94 519.42,-453.84"/>
</g>
<!-- Node47&#45;&gt;Node46 -->
<g id="edge41" class="edge">
<title>Node47&#45;&gt;Node46</title>
<path fill="none" stroke="midnightblue" d="M179.54,-513.65C202.51,-524.77 241.94,-543.14 277,-556 288.42,-560.19 300.95,-564.16 312.69,-567.62"/>
<polygon fill="midnightblue" stroke="midnightblue" points="311.75,-570.99 322.33,-570.4 313.69,-564.26 311.75,-570.99"/>
</g>
<!-- Node48 -->
<g id="node35" class="node">
<title>Node48</title>
<g id="a_node35"><a xlink:href="../../dd/d41/group___k_n_s___a_p_p.html#ga36f229bbda63818246ec86181b1fdd42" target="_top" xlink:title=" ">
<polygon fill="white" stroke="black" points="320,-494.5 320,-513.5 400,-513.5 400,-494.5 320,-494.5"/>
<text text-anchor="middle" x="360" y="-501.5" font-family="Helvetica,sans-Serif" font-size="10.00">__attribute__</text>
</a>
</g>
</g>
<!-- Node47&#45;&gt;Node48 -->
<g id="edge38" class="edge">
<title>Node47&#45;&gt;Node48</title>
<path fill="none" stroke="midnightblue" d="M217.03,-504C246.38,-504 281.81,-504 309.94,-504"/>
<polygon fill="midnightblue" stroke="midnightblue" points="309.94,-507.5 319.94,-504 309.94,-500.5 309.94,-507.5"/>
</g>
<!-- Node49 -->
<g id="node36" class="node">
<title>Node49</title>
<g id="a_node36"><a xlink:href="../../d0/d54/group___k_n_s___c_f_g.html#ga3538adccf668070211abc09f59a68bce" target="_top" xlink:title="Get the Kineis radio configuration.">
<polygon fill="white" stroke="black" points="295,-456.5 295,-475.5 425,-475.5 425,-456.5 295,-456.5"/>
<text text-anchor="middle" x="360" y="-463.5" font-family="Helvetica,sans-Serif" font-size="10.00">KNS_CFG_getRadioInfo</text>
</a>
</g>
</g>
<!-- Node47&#45;&gt;Node49 -->
<g id="edge39" class="edge">
<title>Node47&#45;&gt;Node49</title>
<path fill="none" stroke="midnightblue" d="M209.96,-494.46C237.05,-489.29 270.71,-482.86 299.18,-477.42"/>
<polygon fill="midnightblue" stroke="midnightblue" points="299.85,-480.86 309.02,-475.54 298.54,-473.98 299.85,-480.86"/>
</g>
<!-- Node50 -->
<g id="node37" class="node">
<title>Node50</title>
<g id="a_node37"><a xlink:href="../../d0/d0f/group___m_g_r___a_t___c_m_d.html#gaa9d6835fa67d6e39b880e04688f7ece9" target="_top" xlink:title="Log array of uint8_t.">
<polygon fill="white" stroke="black" points="312,-418.5 312,-437.5 408,-437.5 408,-418.5 312,-418.5"/>
<text text-anchor="middle" x="360" y="-425.5" font-family="Helvetica,sans-Serif" font-size="10.00">MGR_LOG_array</text>
</a>
</g>
</g>
<!-- Node47&#45;&gt;Node50 -->
<g id="edge42" class="edge">
<title>Node47&#45;&gt;Node50</title>
<path fill="none" stroke="midnightblue" d="M217.37,-494.97C225.61,-492.43 233.74,-489.17 241,-485 261.17,-473.41 256.81,-458.56 277,-447 284.65,-442.62 293.24,-439.25 301.91,-436.66"/>
<polygon fill="midnightblue" stroke="midnightblue" points="302.93,-440.01 311.69,-434.05 301.13,-433.24 302.93,-440.01"/>
</g>
<!-- Node58 -->
<g id="node45" class="node">
<title>Node58</title>
<g id="a_node45"><a xlink:href="../../db/dca/group___m_g_r___l_p_m.html#gab9603672d9a4e59ebeaf71f704373173" target="_top" xlink:title="This initialize the callback client tab with NULL pointer.">
<polygon fill="white" stroke="black" points="317,-133.5 317,-152.5 403,-152.5 403,-133.5 317,-133.5"/>
<text text-anchor="middle" x="360" y="-140.5" font-family="Helvetica,sans-Serif" font-size="10.00">MGR_LPM_init</text>
</a>
</g>
</g>
<!-- Node57&#45;&gt;Node58 -->
<g id="edge50" class="edge">
<title>Node57&#45;&gt;Node58</title>
<path fill="none" stroke="midnightblue" d="M188.09,-126.68C218.74,-129.61 268.5,-134.36 306.45,-137.98"/>
<polygon fill="midnightblue" stroke="midnightblue" points="306.52,-141.51 316.81,-138.97 307.19,-134.54 306.52,-141.51"/>
</g>
<!-- Node59 -->
<g id="node46" class="node">
<title>Node59</title>
<g id="a_node46"><a xlink:href="../../db/dca/group___m_g_r___l_p_m.html#gab855de5c70e67980c2e838a6ba03a7a8" target="_top" xlink:title="This function adds a client in the client table.">
<polygon fill="white" stroke="black" points="291.5,-95.5 291.5,-114.5 428.5,-114.5 428.5,-95.5 291.5,-95.5"/>
<text text-anchor="middle" x="360" y="-102.5" font-family="Helvetica,sans-Serif" font-size="10.00">MGR_LPM_registerClient</text>
</a>
</g>
</g>
<!-- Node57&#45;&gt;Node59 -->
<g id="edge51" class="edge">
<title>Node57&#45;&gt;Node59</title>
<path fill="none" stroke="midnightblue" d="M188.09,-121.32C212.27,-119.01 248.33,-115.57 281.11,-112.44"/>
<polygon fill="midnightblue" stroke="midnightblue" points="281.54,-115.91 291.16,-111.48 280.87,-108.94 281.54,-115.91"/>
</g>
<!-- Node63&#45;&gt;Node2 -->
<g id="edge57" class="edge">
<title>Node63&#45;&gt;Node2</title>
<path fill="none" stroke="midnightblue" d="M183.46,-708.61C206.88,-717.96 244.03,-732.16 277,-742 287.08,-745.01 297.98,-747.83 308.43,-750.32"/>
<polygon fill="midnightblue" stroke="midnightblue" points="307.75,-753.76 318.28,-752.62 309.33,-746.94 307.75,-753.76"/>
</g>
</g>
</svg>
