<?xml version="1.0" encoding="UTF-8" standalone="no"?>
<!DOCTYPE svg PUBLIC "-//W3C//DTD SVG 1.1//EN"
 "http://www.w3.org/Graphics/SVG/1.1/DTD/svg11.dtd">
<!-- Generated by graphviz version 2.43.0 (0)
 -->
<!-- Title: Error_Handler Pages: 1 -->
<svg width="509pt" height="192pt"
 viewBox="0.00 0.00 509.00 192.00" xmlns="http://www.w3.org/2000/svg" xmlns:xlink="http://www.w3.org/1999/xlink">
<g id="graph0" class="graph" transform="scale(1 1) rotate(0) translate(4 188)">
<title>Error_Handler</title>
<polygon fill="white" stroke="transparent" points="-4,4 -4,-188 505,-188 505,4 -4,4"/>
<!-- Node1 -->
<g id="node1" class="node">
<title>Node1</title>
<g id="a_node1"><a xlink:title="This function is executed in case of error occurrence.">
<polygon fill="#bfbfbf" stroke="black" points="418,-76.5 418,-95.5 501,-95.5 501,-76.5 418,-76.5"/>
<text text-anchor="middle" x="459.5" y="-83.5" font-family="Helvetica,sans-Serif" font-size="10.00">Error_Handler</text>
</a>
</g>
</g>
<!-- Node2 -->
<g id="node2" class="node">
<title>Node2</title>
<g id="a_node2"><a xlink:href="../../d9/d2f/group___k_i_n_e_i_s___s_w___c_o_n_f.html#ga530a6753c266d92335600fbc8c47da6d" target="_top" xlink:title="Handle assert reported by Kineis stack,.">
<polygon fill="white" stroke="black" points="259.5,-164.5 259.5,-183.5 361.5,-183.5 361.5,-164.5 259.5,-164.5"/>
<text text-anchor="middle" x="310.5" y="-171.5" font-family="Helvetica,sans-Serif" font-size="10.00">kns_assert_failed</text>
</a>
</g>
</g>
<!-- Node1&#45;&gt;Node2 -->
<g id="edge1" class="edge">
<title>Node1&#45;&gt;Node2</title>
<path fill="none" stroke="midnightblue" d="M443.61,-103.48C429.33,-119.17 406.39,-141.72 382,-155 374.99,-158.82 367.15,-161.91 359.33,-164.4"/>
<polygon fill="midnightblue" stroke="midnightblue" points="446.6,-105.38 450.61,-95.57 441.36,-100.74 446.6,-105.38"/>
</g>
<!-- Node3 -->
<g id="node3" class="node">
<title>Node3</title>
<g id="a_node3"><a xlink:href="../../db/dca/group___m_g_r___l_p_m.html#gab502b89f35dcc87b365658836f69736e" target="_top" xlink:title="System Clock Configuration when exit from stop mode.">
<polygon fill="white" stroke="black" points="239,-115 239,-145 382,-145 382,-115 239,-115"/>
<text text-anchor="start" x="247" y="-133" font-family="Helvetica,sans-Serif" font-size="10.00">LPM_SystemClock_Config</text>
<text text-anchor="middle" x="310.5" y="-122" font-family="Helvetica,sans-Serif" font-size="10.00">_RestoreFromStop</text>
</a>
</g>
</g>
<!-- Node1&#45;&gt;Node3 -->
<g id="edge2" class="edge">
<title>Node1&#45;&gt;Node3</title>
<path fill="none" stroke="midnightblue" d="M416.89,-98.46C399.76,-103.58 379.77,-109.56 361.83,-114.93"/>
<polygon fill="midnightblue" stroke="midnightblue" points="418.03,-101.77 426.6,-95.55 416.02,-95.06 418.03,-101.77"/>
</g>
<!-- Node6 -->
<g id="node6" class="node">
<title>Node6</title>
<g id="a_node6"><a xlink:href="../../d0/d29/main_8c.html#a840291bc02cba5474a4cb46a9b9566fe" target="_top" xlink:title="The application entry point.">
<polygon fill="white" stroke="black" points="139,-38.5 139,-57.5 180,-57.5 180,-38.5 139,-38.5"/>
<text text-anchor="middle" x="159.5" y="-45.5" font-family="Helvetica,sans-Serif" font-size="10.00">main</text>
</a>
</g>
</g>
<!-- Node1&#45;&gt;Node6 -->
<g id="edge5" class="edge">
<title>Node1&#45;&gt;Node6</title>
<path fill="none" stroke="midnightblue" d="M407.8,-83.79C363.13,-81.32 296.44,-76.38 239,-67 218.66,-63.68 195.79,-57.91 180.01,-53.59"/>
<polygon fill="midnightblue" stroke="midnightblue" points="407.65,-87.29 417.82,-84.32 408.02,-80.29 407.65,-87.29"/>
</g>
<!-- Node7 -->
<g id="node7" class="node">
<title>Node7</title>
<g id="a_node7"><a xlink:href="../../d8/d5d/group___m_c_u___w_r_a_p_p_e_r_s.html#gaf68cb2253430ce4b7743a51d34430028" target="_top" xlink:title="Function used to start the timer for a specific delay.">
<polygon fill="white" stroke="black" points="265,-38.5 265,-57.5 356,-57.5 356,-38.5 265,-38.5"/>
<text text-anchor="middle" x="310.5" y="-45.5" font-family="Helvetica,sans-Serif" font-size="10.00">MCU_TIM_start</text>
</a>
</g>
</g>
<!-- Node1&#45;&gt;Node7 -->
<g id="edge6" class="edge">
<title>Node1&#45;&gt;Node7</title>
<path fill="none" stroke="midnightblue" d="M411.65,-73.89C391.17,-68.6 367.51,-62.48 348.33,-57.52"/>
<polygon fill="midnightblue" stroke="midnightblue" points="410.85,-77.3 421.41,-76.41 412.6,-70.52 410.85,-77.3"/>
</g>
<!-- Node8 -->
<g id="node8" class="node">
<title>Node8</title>
<g id="a_node8"><a xlink:href="../../d0/d29/main_8c.html#a70af21c671abfcc773614a9a4f63d920" target="_top" xlink:title="System Clock Configuration.">
<polygon fill="white" stroke="black" points="252,-0.5 252,-19.5 369,-19.5 369,-0.5 252,-0.5"/>
<text text-anchor="middle" x="310.5" y="-7.5" font-family="Helvetica,sans-Serif" font-size="10.00">SystemClock_Config</text>
</a>
</g>
</g>
<!-- Node1&#45;&gt;Node8 -->
<g id="edge7" class="edge">
<title>Node1&#45;&gt;Node8</title>
<path fill="none" stroke="midnightblue" d="M440.15,-69.18C425.41,-56.48 403.67,-39.52 382,-29 374.25,-25.24 365.64,-22.13 357.17,-19.6"/>
<polygon fill="midnightblue" stroke="midnightblue" points="438.15,-72.08 447.96,-76.07 442.78,-66.83 438.15,-72.08"/>
</g>
<!-- Node4 -->
<g id="node4" class="node">
<title>Node4</title>
<g id="a_node4"><a xlink:href="../../db/dca/group___m_g_r___l_p_m.html#ga2dfaa58a8d7f90840153f1f06542fd13" target="_top" xlink:title="System callback invoked by MGR_LPM at STOP mode exit.">
<polygon fill="white" stroke="black" points="116,-120.5 116,-139.5 203,-139.5 203,-120.5 116,-120.5"/>
<text text-anchor="middle" x="159.5" y="-127.5" font-family="Helvetica,sans-Serif" font-size="10.00">LPM_stop_exit</text>
</a>
</g>
</g>
<!-- Node3&#45;&gt;Node4 -->
<g id="edge3" class="edge">
<title>Node3&#45;&gt;Node4</title>
<path fill="none" stroke="midnightblue" d="M228.93,-130C220.09,-130 211.36,-130 203.26,-130"/>
<polygon fill="midnightblue" stroke="midnightblue" points="228.93,-133.5 238.93,-130 228.93,-126.5 228.93,-133.5"/>
</g>
<!-- Node5 -->
<g id="node5" class="node">
<title>Node5</title>
<g id="a_node5"><a xlink:href="../../db/dca/group___m_g_r___l_p_m.html#ga5e3c04e1820c16433ff591dde81e7449" target="_top" xlink:title=" ">
<polygon fill="white" stroke="black" points="0,-120.5 0,-139.5 80,-139.5 80,-120.5 0,-120.5"/>
<text text-anchor="middle" x="40" y="-127.5" font-family="Helvetica,sans-Serif" font-size="10.00">__attribute__</text>
</a>
</g>
</g>
<!-- Node4&#45;&gt;Node5 -->
<g id="edge4" class="edge">
<title>Node4&#45;&gt;Node5</title>
<path fill="none" stroke="midnightblue" d="M105.72,-130C97.07,-130 88.25,-130 80.01,-130"/>
<polygon fill="midnightblue" stroke="midnightblue" points="105.75,-133.5 115.75,-130 105.75,-126.5 105.75,-133.5"/>
</g>
<!-- Node8&#45;&gt;Node6 -->
<g id="edge8" class="edge">
<title>Node8&#45;&gt;Node6</title>
<path fill="none" stroke="midnightblue" d="M262.01,-22.11C234.37,-29.16 201,-37.67 180.26,-42.96"/>
<polygon fill="midnightblue" stroke="midnightblue" points="263.08,-25.45 271.9,-19.59 261.35,-18.67 263.08,-25.45"/>
</g>
</g>
</svg>
