<?xml version="1.0" encoding="UTF-8" standalone="no"?>
<!DOCTYPE svg PUBLIC "-//W3C//DTD SVG 1.1//EN"
 "http://www.w3.org/Graphics/SVG/1.1/DTD/svg11.dtd">
<!-- Generated by graphviz version 2.43.0 (0)
 -->
<!-- Title: Error_Handler Pages: 1 -->
<svg width="393pt" height="192pt"
 viewBox="0.00 0.00 393.00 192.00" xmlns="http://www.w3.org/2000/svg" xmlns:xlink="http://www.w3.org/1999/xlink">
<g id="graph0" class="graph" transform="scale(1 1) rotate(0) translate(4 188)">
<title>Error_Handler</title>
<polygon fill="white" stroke="transparent" points="-4,4 -4,-188 389,-188 389,4 -4,4"/>
<!-- Node1 -->
<g id="node1" class="node">
<title>Node1</title>
<g id="a_node1"><a xlink:title="This function is executed in case of error occurrence.">
<polygon fill="#bfbfbf" stroke="black" points="302,-76.5 302,-95.5 385,-95.5 385,-76.5 302,-76.5"/>
<text text-anchor="middle" x="343.5" y="-83.5" font-family="Helvetica,sans-Serif" font-size="10.00">Error_Handler</text>
</a>
</g>
</g>
<!-- Node2 -->
<g id="node2" class="node">
<title>Node2</title>
<g id="a_node2"><a xlink:href="../../d9/d2f/group___k_i_n_e_i_s___s_w___c_o_n_f.html#ga530a6753c266d92335600fbc8c47da6d" target="_top" xlink:title="Handle assert reported by Kineis stack,.">
<polygon fill="white" stroke="black" points="143.5,-164.5 143.5,-183.5 245.5,-183.5 245.5,-164.5 143.5,-164.5"/>
<text text-anchor="middle" x="194.5" y="-171.5" font-family="Helvetica,sans-Serif" font-size="10.00">kns_assert_failed</text>
</a>
</g>
</g>
<!-- Node1&#45;&gt;Node2 -->
<g id="edge1" class="edge">
<title>Node1&#45;&gt;Node2</title>
<path fill="none" stroke="midnightblue" d="M327.61,-103.48C313.33,-119.17 290.39,-141.72 266,-155 258.99,-158.82 251.15,-161.91 243.33,-164.4"/>
<polygon fill="midnightblue" stroke="midnightblue" points="330.6,-105.38 334.61,-95.57 325.36,-100.74 330.6,-105.38"/>
</g>
<!-- Node3 -->
<g id="node3" class="node">
<title>Node3</title>
<g id="a_node3"><a xlink:href="../../db/dca/group___m_g_r___l_p_m.html#gab502b89f35dcc87b365658836f69736e" target="_top" xlink:title="System Clock Configuration when exit from stop mode.">
<polygon fill="white" stroke="black" points="123,-115 123,-145 266,-145 266,-115 123,-115"/>
<text text-anchor="start" x="131" y="-133" font-family="Helvetica,sans-Serif" font-size="10.00">LPM_SystemClock_Config</text>
<text text-anchor="middle" x="194.5" y="-122" font-family="Helvetica,sans-Serif" font-size="10.00">_RestoreFromStop</text>
</a>
</g>
</g>
<!-- Node1&#45;&gt;Node3 -->
<g id="edge2" class="edge">
<title>Node1&#45;&gt;Node3</title>
<path fill="none" stroke="midnightblue" d="M300.89,-98.46C283.76,-103.58 263.77,-109.56 245.83,-114.93"/>
<polygon fill="midnightblue" stroke="midnightblue" points="302.03,-101.77 310.6,-95.55 300.02,-95.06 302.03,-101.77"/>
</g>
<!-- Node5 -->
<g id="node5" class="node">
<title>Node5</title>
<g id="a_node5"><a xlink:href="../../d0/d29/main_8c.html#a840291bc02cba5474a4cb46a9b9566fe" target="_top" xlink:title="The application entry point.">
<polygon fill="white" stroke="black" points="23,-38.5 23,-57.5 64,-57.5 64,-38.5 23,-38.5"/>
<text text-anchor="middle" x="43.5" y="-45.5" font-family="Helvetica,sans-Serif" font-size="10.00">main</text>
</a>
</g>
</g>
<!-- Node1&#45;&gt;Node5 -->
<g id="edge4" class="edge">
<title>Node1&#45;&gt;Node5</title>
<path fill="none" stroke="midnightblue" d="M291.8,-83.79C247.13,-81.32 180.44,-76.38 123,-67 102.66,-63.68 79.79,-57.91 64.01,-53.59"/>
<polygon fill="midnightblue" stroke="midnightblue" points="291.65,-87.29 301.82,-84.32 292.02,-80.29 291.65,-87.29"/>
</g>
<!-- Node6 -->
<g id="node6" class="node">
<title>Node6</title>
<g id="a_node6"><a xlink:href="../../d8/d5d/group___m_c_u___w_r_a_p_p_e_r_s.html#gaf68cb2253430ce4b7743a51d34430028" target="_top" xlink:title="Function used to start the timer for a specific delay.">
<polygon fill="white" stroke="black" points="149,-38.5 149,-57.5 240,-57.5 240,-38.5 149,-38.5"/>
<text text-anchor="middle" x="194.5" y="-45.5" font-family="Helvetica,sans-Serif" font-size="10.00">MCU_TIM_start</text>
</a>
</g>
</g>
<!-- Node1&#45;&gt;Node6 -->
<g id="edge5" class="edge">
<title>Node1&#45;&gt;Node6</title>
<path fill="none" stroke="midnightblue" d="M295.65,-73.89C275.17,-68.6 251.51,-62.48 232.33,-57.52"/>
<polygon fill="midnightblue" stroke="midnightblue" points="294.85,-77.3 305.41,-76.41 296.6,-70.52 294.85,-77.3"/>
</g>
<!-- Node7 -->
<g id="node7" class="node">
<title>Node7</title>
<g id="a_node7"><a xlink:href="../../d0/d29/main_8c.html#a70af21c671abfcc773614a9a4f63d920" target="_top" xlink:title="System Clock Configuration.">
<polygon fill="white" stroke="black" points="136,-0.5 136,-19.5 253,-19.5 253,-0.5 136,-0.5"/>
<text text-anchor="middle" x="194.5" y="-7.5" font-family="Helvetica,sans-Serif" font-size="10.00">SystemClock_Config</text>
</a>
</g>
</g>
<!-- Node1&#45;&gt;Node7 -->
<g id="edge6" class="edge">
<title>Node1&#45;&gt;Node7</title>
<path fill="none" stroke="midnightblue" d="M324.15,-69.18C309.41,-56.48 287.67,-39.52 266,-29 258.25,-25.24 249.64,-22.13 241.17,-19.6"/>
<polygon fill="midnightblue" stroke="midnightblue" points="322.15,-72.08 331.96,-76.07 326.78,-66.83 322.15,-72.08"/>
</g>
<!-- Node4 -->
<g id="node4" class="node">
<title>Node4</title>
<g id="a_node4"><a xlink:href="../../db/dca/group___m_g_r___l_p_m.html#ga2dfaa58a8d7f90840153f1f06542fd13" target="_top" xlink:title="System callback invoked by MGR_LPM at STOP mode exit.">
<polygon fill="white" stroke="black" points="0,-120.5 0,-139.5 87,-139.5 87,-120.5 0,-120.5"/>
<text text-anchor="middle" x="43.5" y="-127.5" font-family="Helvetica,sans-Serif" font-size="10.00">LPM_stop_exit</text>
</a>
</g>
</g>
<!-- Node3&#45;&gt;Node4 -->
<g id="edge3" class="edge">
<title>Node3&#45;&gt;Node4</title>
<path fill="none" stroke="midnightblue" d="M112.93,-130C104.09,-130 95.36,-130 87.26,-130"/>
<polygon fill="midnightblue" stroke="midnightblue" points="112.93,-133.5 122.93,-130 112.93,-126.5 112.93,-133.5"/>
</g>
<!-- Node7&#45;&gt;Node5 -->
<g id="edge7" class="edge">
<title>Node7&#45;&gt;Node5</title>
<path fill="none" stroke="midnightblue" d="M146.01,-22.11C118.37,-29.16 85,-37.67 64.26,-42.96"/>
<polygon fill="midnightblue" stroke="midnightblue" points="147.08,-25.45 155.9,-19.59 145.35,-18.67 147.08,-25.45"/>
</g>
</g>
</svg>
