<?xml version="1.0" encoding="UTF-8" standalone="no"?>
<!DOCTYPE svg PUBLIC "-//W3C//DTD SVG 1.1//EN"
 "http://www.w3.org/Graphics/SVG/1.1/DTD/svg11.dtd">
<!-- Generated by graphviz version 2.43.0 (0)
 -->
<!-- Title: Kineis/Lpm/Inc/mgr_lpm.h Pages: 1 -->
<svg width="600pt" height="184pt"
 viewBox="0.00 0.00 600.00 184.00" xmlns="http://www.w3.org/2000/svg" xmlns:xlink="http://www.w3.org/1999/xlink">
<g id="graph0" class="graph" transform="scale(1 1) rotate(0) translate(4 180)">
<title>Kineis/Lpm/Inc/mgr_lpm.h</title>
<polygon fill="white" stroke="transparent" points="-4,4 -4,-180 596,-180 596,4 -4,4"/>
<!-- Node1 -->
<g id="node1" class="node">
<title>Node1</title>
<g id="a_node1"><a xlink:title="low power mode manager is in charge to collect all low power needs from &#39;clients&#39; and setup the corre...">
<polygon fill="#bfbfbf" stroke="black" points="314.5,-145.5 314.5,-175.5 424.5,-175.5 424.5,-145.5 314.5,-145.5"/>
<text text-anchor="start" x="322.5" y="-163.5" font-family="Helvetica,sans-Serif" font-size="10.00">Kineis/Lpm/Inc/mgr</text>
<text text-anchor="middle" x="369.5" y="-152.5" font-family="Helvetica,sans-Serif" font-size="10.00">_lpm.h</text>
</a>
</g>
</g>
<!-- Node2 -->
<g id="node2" class="node">
<title>Node2</title>
<g id="a_node2"><a xlink:href="../../df/db7/lpm_8h.html" target="_top" xlink:title="This file contains some utilities and functions needed for a correct handling of LPM on the STM32WL55...">
<polygon fill="white" stroke="black" points="128,-84 128,-103 247,-103 247,-84 128,-84"/>
<text text-anchor="middle" x="187.5" y="-91" font-family="Helvetica,sans-Serif" font-size="10.00">Kineis/Lpm/Inc/lpm.h</text>
</a>
</g>
</g>
<!-- Node1&#45;&gt;Node2 -->
<g id="edge1" class="edge">
<title>Node1&#45;&gt;Node2</title>
<path fill="none" stroke="midnightblue" d="M320.35,-141.95C285,-129.32 238.88,-112.85 211.32,-103.01"/>
<polygon fill="midnightblue" stroke="midnightblue" points="319.41,-145.33 330.01,-145.4 321.77,-138.74 319.41,-145.33"/>
</g>
<!-- Node5 -->
<g id="node5" class="node">
<title>Node5</title>
<g id="a_node5"><a xlink:href="../../d5/db5/lpm_8c.html" target="_top" xlink:title="This file contains some utilities and functions needed for a correct handling of LPM on the STM32WL55...">
<polygon fill="white" stroke="black" points="260,-11.5 260,-30.5 379,-30.5 379,-11.5 260,-11.5"/>
<text text-anchor="middle" x="319.5" y="-18.5" font-family="Helvetica,sans-Serif" font-size="10.00">Kineis/Lpm/Src/lpm.c</text>
</a>
</g>
</g>
<!-- Node1&#45;&gt;Node5 -->
<g id="edge8" class="edge">
<title>Node1&#45;&gt;Node5</title>
<path fill="none" stroke="midnightblue" d="M333.38,-139.8C322.35,-131.81 311.55,-121.48 305.5,-109 292.69,-82.57 306.97,-46.85 314.91,-30.64"/>
<polygon fill="midnightblue" stroke="midnightblue" points="331.52,-142.78 341.78,-145.46 335.43,-136.97 331.52,-142.78"/>
</g>
<!-- Node6 -->
<g id="node6" class="node">
<title>Node6</title>
<g id="a_node6"><a xlink:href="../../df/da4/lpm__cli__kstk_8h.html" target="_top" xlink:title="Kineis stack&#39;s LPM client. It is implementing APIs needed to interface with the low power manager (MG...">
<polygon fill="white" stroke="black" points="314.5,-78.5 314.5,-108.5 424.5,-108.5 424.5,-78.5 314.5,-78.5"/>
<text text-anchor="start" x="322.5" y="-96.5" font-family="Helvetica,sans-Serif" font-size="10.00">Kineis/Lpm/Inc/lpm</text>
<text text-anchor="middle" x="369.5" y="-85.5" font-family="Helvetica,sans-Serif" font-size="10.00">_cli_kstk.h</text>
</a>
</g>
</g>
<!-- Node1&#45;&gt;Node6 -->
<g id="edge5" class="edge">
<title>Node1&#45;&gt;Node6</title>
<path fill="none" stroke="midnightblue" d="M369.5,-135.11C369.5,-126.15 369.5,-116.32 369.5,-108.58"/>
<polygon fill="midnightblue" stroke="midnightblue" points="366,-135.4 369.5,-145.4 373,-135.4 366,-135.4"/>
</g>
<!-- Node7 -->
<g id="node7" class="node">
<title>Node7</title>
<g id="a_node7"><a xlink:href="../../df/d53/lpm__cli__kstk_8c.html" target="_top" xlink:title="Kineis stack&#39;s LPM client. It is implementing APIs needed to interface with the low power manager (MG...">
<polygon fill="white" stroke="black" points="397.5,-6 397.5,-36 507.5,-36 507.5,-6 397.5,-6"/>
<text text-anchor="start" x="405.5" y="-24" font-family="Helvetica,sans-Serif" font-size="10.00">Kineis/Lpm/Src/lpm</text>
<text text-anchor="middle" x="452.5" y="-13" font-family="Helvetica,sans-Serif" font-size="10.00">_cli_kstk.c</text>
</a>
</g>
</g>
<!-- Node1&#45;&gt;Node7 -->
<g id="edge9" class="edge">
<title>Node1&#45;&gt;Node7</title>
<path fill="none" stroke="midnightblue" d="M403.34,-139.56C414.5,-131.41 425.96,-121.05 433.5,-109 447.76,-86.19 451.42,-54.2 452.29,-36.04"/>
<polygon fill="midnightblue" stroke="midnightblue" points="401.18,-136.8 394.93,-145.36 405.15,-142.56 401.18,-136.8"/>
</g>
<!-- Node8 -->
<g id="node8" class="node">
<title>Node8</title>
<g id="a_node8"><a xlink:href="../../dd/d8d/mgr__lpm_8c.html" target="_top" xlink:title="low power mode manager is in charge to collect all low power needs from &#39;clients&#39; and setup the corre...">
<polygon fill="white" stroke="black" points="481,-78.5 481,-108.5 592,-108.5 592,-78.5 481,-78.5"/>
<text text-anchor="start" x="489" y="-96.5" font-family="Helvetica,sans-Serif" font-size="10.00">Kineis/Lpm/Src/mgr</text>
<text text-anchor="middle" x="536.5" y="-85.5" font-family="Helvetica,sans-Serif" font-size="10.00">_lpm.c</text>
</a>
</g>
</g>
<!-- Node1&#45;&gt;Node8 -->
<g id="edge10" class="edge">
<title>Node1&#45;&gt;Node8</title>
<path fill="none" stroke="midnightblue" d="M415.28,-141.68C442.06,-131.26 475.4,-118.28 500.33,-108.58"/>
<polygon fill="midnightblue" stroke="midnightblue" points="413.79,-138.51 405.74,-145.4 416.33,-145.03 413.79,-138.51"/>
</g>
<!-- Node3 -->
<g id="node3" class="node">
<title>Node3</title>
<g id="a_node3"><a xlink:href="../../d0/d29/main_8c.html" target="_top" xlink:title=": Main program body">
<polygon fill="white" stroke="black" points="0,-11.5 0,-30.5 93,-30.5 93,-11.5 0,-11.5"/>
<text text-anchor="middle" x="46.5" y="-18.5" font-family="Helvetica,sans-Serif" font-size="10.00">Core/Src/main.c</text>
</a>
</g>
</g>
<!-- Node2&#45;&gt;Node3 -->
<g id="edge2" class="edge">
<title>Node2&#45;&gt;Node3</title>
<path fill="none" stroke="midnightblue" d="M161.5,-79.5C132.95,-65.23 87.95,-42.73 63.57,-30.53"/>
<polygon fill="midnightblue" stroke="midnightblue" points="159.98,-82.65 170.49,-84 163.11,-76.39 159.98,-82.65"/>
</g>
<!-- Node4 -->
<g id="node4" class="node">
<title>Node4</title>
<g id="a_node4"><a xlink:href="../../d1/dfd/mgr__at__cmd__list__general_8c.html" target="_top" xlink:title="subset of AT commands concerning general purpose (get ID, FW version, ...)">
<polygon fill="white" stroke="black" points="111.5,-0.5 111.5,-41.5 241.5,-41.5 241.5,-0.5 111.5,-0.5"/>
<text text-anchor="start" x="119.5" y="-29.5" font-family="Helvetica,sans-Serif" font-size="10.00">Kineis/App/Managers</text>
<text text-anchor="start" x="119.5" y="-18.5" font-family="Helvetica,sans-Serif" font-size="10.00">/MGR_AT_CMD/Src/mgr</text>
<text text-anchor="middle" x="176.5" y="-7.5" font-family="Helvetica,sans-Serif" font-size="10.00">_at_cmd_list_general.c</text>
</a>
</g>
</g>
<!-- Node2&#45;&gt;Node4 -->
<g id="edge3" class="edge">
<title>Node2&#45;&gt;Node4</title>
<path fill="none" stroke="midnightblue" d="M184.59,-73.85C183.04,-63.93 181.14,-51.73 179.57,-41.66"/>
<polygon fill="midnightblue" stroke="midnightblue" points="181.15,-74.51 186.15,-83.86 188.07,-73.44 181.15,-74.51"/>
</g>
<!-- Node2&#45;&gt;Node5 -->
<g id="edge4" class="edge">
<title>Node2&#45;&gt;Node5</title>
<path fill="none" stroke="midnightblue" d="M212.54,-79.12C239.3,-64.84 280.89,-42.62 303.52,-30.53"/>
<polygon fill="midnightblue" stroke="midnightblue" points="210.59,-76.2 203.42,-84 213.89,-82.37 210.59,-76.2"/>
</g>
<!-- Node6&#45;&gt;Node5 -->
<g id="edge6" class="edge">
<title>Node6&#45;&gt;Node5</title>
<path fill="none" stroke="midnightblue" d="M353.55,-70.01C344.13,-56.73 332.74,-40.66 325.81,-30.89"/>
<polygon fill="midnightblue" stroke="midnightblue" points="350.74,-72.1 359.38,-78.23 356.45,-68.05 350.74,-72.1"/>
</g>
<!-- Node6&#45;&gt;Node7 -->
<g id="edge7" class="edge">
<title>Node6&#45;&gt;Node7</title>
<path fill="none" stroke="midnightblue" d="M394.27,-71.46C407.76,-60 424.08,-46.14 436.01,-36"/>
<polygon fill="midnightblue" stroke="midnightblue" points="391.65,-69.09 386.3,-78.23 396.18,-74.43 391.65,-69.09"/>
</g>
</g>
</svg>
