<?xml version="1.0" encoding="UTF-8" standalone="no"?>
<!DOCTYPE svg PUBLIC "-//W3C//DTD SVG 1.1//EN"
 "http://www.w3.org/Graphics/SVG/1.1/DTD/svg11.dtd">
<!-- Generated by graphviz version 2.43.0 (0)
 -->
<!-- Title: KNS_MAC_appEvt_t Pages: 1 -->
<svg width="294pt" height="95pt"
 viewBox="0.00 0.00 293.50 95.00" xmlns="http://www.w3.org/2000/svg" xmlns:xlink="http://www.w3.org/1999/xlink">
<g id="graph0" class="graph" transform="scale(1 1) rotate(0) translate(4 91)">
<title>KNS_MAC_appEvt_t</title>
<polygon fill="white" stroke="transparent" points="-4,4 -4,-91 289.5,-91 289.5,4 -4,4"/>
<!-- Node1 -->
<g id="node1" class="node">
<title>Node1</title>
<g id="a_node1"><a xlink:title="Generic event structure with ID and context.">
<polygon fill="#bfbfbf" stroke="black" points="96,-0.5 96,-19.5 209,-19.5 209,-0.5 96,-0.5"/>
<text text-anchor="middle" x="152.5" y="-7.5" font-family="Helvetica,sans-Serif" font-size="10.00">KNS_MAC_appEvt_t</text>
</a>
</g>
</g>
<!-- Node2 -->
<g id="node2" class="node">
<title>Node2</title>
<g id="a_node2"><a xlink:href="../../d0/de9/struct_k_n_s___m_a_c__send__data__ctxt__t.html" target="_top" xlink:title="Event context structure containing usefull information for the APPlication to send data to Kineis.">
<polygon fill="white" stroke="black" points="0,-67.5 0,-86.5 153,-86.5 153,-67.5 0,-67.5"/>
<text text-anchor="middle" x="76.5" y="-74.5" font-family="Helvetica,sans-Serif" font-size="10.00">KNS_MAC_send_data_ctxt_t</text>
</a>
</g>
</g>
<!-- Node2&#45;&gt;Node1 -->
<g id="edge1" class="edge">
<title>Node2&#45;&gt;Node1</title>
<path fill="none" stroke="#9a32cd" stroke-dasharray="5,2" d="M94.37,-60.71C109.35,-47.91 130.18,-30.09 142.41,-19.63"/>
<polygon fill="#9a32cd" stroke="#9a32cd" points="92.07,-58.07 86.75,-67.23 96.62,-63.39 92.07,-58.07"/>
<text text-anchor="middle" x="144" y="-41" font-family="Helvetica,sans-Serif" font-size="10.00"> data_ctxt</text>
</g>
<!-- Node3 -->
<g id="node3" class="node">
<title>Node3</title>
<g id="a_node3"><a xlink:href="../../d1/d6d/struct_k_n_s___m_a_c__prfl_info__t.html" target="_top" xlink:title="structure describing current profil used by kineis stack MAC mayer">
<polygon fill="white" stroke="black" points="171.5,-67.5 171.5,-86.5 285.5,-86.5 285.5,-67.5 171.5,-67.5"/>
<text text-anchor="middle" x="228.5" y="-74.5" font-family="Helvetica,sans-Serif" font-size="10.00">KNS_MAC_prflInfo_t</text>
</a>
</g>
</g>
<!-- Node3&#45;&gt;Node1 -->
<g id="edge2" class="edge">
<title>Node3&#45;&gt;Node1</title>
<path fill="none" stroke="#9a32cd" stroke-dasharray="5,2" d="M210.63,-60.71C195.65,-47.91 174.82,-30.09 162.59,-19.63"/>
<polygon fill="#9a32cd" stroke="#9a32cd" points="208.38,-63.39 218.25,-67.23 212.93,-58.07 208.38,-63.39"/>
<text text-anchor="middle" x="227" y="-41" font-family="Helvetica,sans-Serif" font-size="10.00"> init_prfl_ctxt</text>
</g>
</g>
</svg>
