<?xml version="1.0" encoding="UTF-8" standalone="no"?>
<!DOCTYPE svg PUBLIC "-//W3C//DTD SVG 1.1//EN"
 "http://www.w3.org/Graphics/SVG/1.1/DTD/svg11.dtd">
<!-- Generated by graphviz version 2.43.0 (0)
 -->
<!-- Title: Kineis/Extdep/Mcu/Src/mcu_misc.c Pages: 1 -->
<svg width="325pt" height="207pt"
 viewBox="0.00 0.00 324.50 207.00" xmlns="http://www.w3.org/2000/svg" xmlns:xlink="http://www.w3.org/1999/xlink">
<g id="graph0" class="graph" transform="scale(1 1) rotate(0) translate(4 203)">
<title>Kineis/Extdep/Mcu/Src/mcu_misc.c</title>
<polygon fill="white" stroke="transparent" points="-4,4 -4,-203 320.5,-203 320.5,4 -4,4"/>
<!-- Node1 -->
<g id="node1" class="node">
<title>Node1</title>
<g id="a_node1"><a xlink:title="File to implement miscellaneous features for a specific design.">
<polygon fill="#bfbfbf" stroke="black" points="95.5,-168.5 95.5,-198.5 220.5,-198.5 220.5,-168.5 95.5,-168.5"/>
<text text-anchor="start" x="103.5" y="-186.5" font-family="Helvetica,sans-Serif" font-size="10.00">Kineis/Extdep/Mcu/Src</text>
<text text-anchor="middle" x="158" y="-175.5" font-family="Helvetica,sans-Serif" font-size="10.00">/mcu_misc.c</text>
</a>
</g>
</g>
<!-- Node2 -->
<g id="node2" class="node">
<title>Node2</title>
<g id="a_node2"><a xlink:title=" ">
<polygon fill="white" stroke="#bfbfbf" points="0,-112.5 0,-131.5 62,-131.5 62,-112.5 0,-112.5"/>
<text text-anchor="middle" x="31" y="-119.5" font-family="Helvetica,sans-Serif" font-size="10.00">stdbool.h</text>
</a>
</g>
</g>
<!-- Node1&#45;&gt;Node2 -->
<g id="edge1" class="edge">
<title>Node1&#45;&gt;Node2</title>
<path fill="none" stroke="midnightblue" d="M127.9,-168.4C106.88,-158.55 79.03,-145.5 58.58,-135.92"/>
<polygon fill="midnightblue" stroke="midnightblue" points="60.02,-132.73 49.48,-131.66 57.05,-139.07 60.02,-132.73"/>
</g>
<!-- Node3 -->
<g id="node3" class="node">
<title>Node3</title>
<g id="a_node3"><a xlink:href="../../dc/d0e/mcu__misc_8h.html" target="_top" xlink:title="MCU wrappers for miscellaneous features.">
<polygon fill="white" stroke="black" points="80.5,-112.5 80.5,-131.5 155.5,-131.5 155.5,-112.5 80.5,-112.5"/>
<text text-anchor="middle" x="118" y="-119.5" font-family="Helvetica,sans-Serif" font-size="10.00">mcu_misc.h</text>
</a>
</g>
</g>
<!-- Node1&#45;&gt;Node3 -->
<g id="edge2" class="edge">
<title>Node1&#45;&gt;Node3</title>
<path fill="none" stroke="midnightblue" d="M148.52,-168.4C142.83,-159.93 135.55,-149.1 129.52,-140.14"/>
<polygon fill="midnightblue" stroke="midnightblue" points="132.3,-138 123.82,-131.66 126.49,-141.91 132.3,-138"/>
</g>
<!-- Node6 -->
<g id="node6" class="node">
<title>Node6</title>
<g id="a_node6"><a xlink:title=" ">
<polygon fill="white" stroke="#bfbfbf" points="174,-112.5 174,-131.5 224,-131.5 224,-112.5 174,-112.5"/>
<text text-anchor="middle" x="199" y="-119.5" font-family="Helvetica,sans-Serif" font-size="10.00">main.h</text>
</a>
</g>
</g>
<!-- Node1&#45;&gt;Node6 -->
<g id="edge6" class="edge">
<title>Node1&#45;&gt;Node6</title>
<path fill="none" stroke="midnightblue" d="M167.72,-168.4C173.55,-159.93 181.02,-149.1 187.19,-140.14"/>
<polygon fill="midnightblue" stroke="midnightblue" points="190.24,-141.88 193.03,-131.66 184.48,-137.91 190.24,-141.88"/>
</g>
<!-- Node7 -->
<g id="node7" class="node">
<title>Node7</title>
<g id="a_node7"><a xlink:href="../../d2/d2e/mgr__log_8h.html" target="_top" xlink:title="logger main header file">
<polygon fill="white" stroke="black" points="242.5,-112.5 242.5,-131.5 307.5,-131.5 307.5,-112.5 242.5,-112.5"/>
<text text-anchor="middle" x="275" y="-119.5" font-family="Helvetica,sans-Serif" font-size="10.00">mgr_log.h</text>
</a>
</g>
</g>
<!-- Node1&#45;&gt;Node7 -->
<g id="edge7" class="edge">
<title>Node1&#45;&gt;Node7</title>
<path fill="none" stroke="midnightblue" d="M185.73,-168.4C204.83,-158.68 230.06,-145.86 248.82,-136.31"/>
<polygon fill="midnightblue" stroke="midnightblue" points="250.65,-139.31 257.98,-131.66 247.48,-133.07 250.65,-139.31"/>
</g>
<!-- Node4 -->
<g id="node4" class="node">
<title>Node4</title>
<g id="a_node4"><a xlink:title=" ">
<polygon fill="white" stroke="#bfbfbf" points="88.5,-0.5 88.5,-19.5 141.5,-19.5 141.5,-0.5 88.5,-0.5"/>
<text text-anchor="middle" x="115" y="-7.5" font-family="Helvetica,sans-Serif" font-size="10.00">stdint.h</text>
</a>
</g>
</g>
<!-- Node3&#45;&gt;Node4 -->
<g id="edge3" class="edge">
<title>Node3&#45;&gt;Node4</title>
<path fill="none" stroke="midnightblue" d="M113.89,-112.28C109.94,-103.38 104.26,-89.07 102,-76 99.28,-60.23 103.35,-42.41 107.64,-29.43"/>
<polygon fill="midnightblue" stroke="midnightblue" points="111.01,-30.4 111.15,-19.8 104.43,-28 111.01,-30.4"/>
</g>
<!-- Node5 -->
<g id="node5" class="node">
<title>Node5</title>
<g id="a_node5"><a xlink:href="../../d8/d85/kns__types_8h.html" target="_top" xlink:title="Kineis types definition.">
<polygon fill="white" stroke="black" points="110.5,-56.5 110.5,-75.5 185.5,-75.5 185.5,-56.5 110.5,-56.5"/>
<text text-anchor="middle" x="148" y="-63.5" font-family="Helvetica,sans-Serif" font-size="10.00">kns_types.h</text>
</a>
</g>
</g>
<!-- Node3&#45;&gt;Node5 -->
<g id="edge4" class="edge">
<title>Node3&#45;&gt;Node5</title>
<path fill="none" stroke="midnightblue" d="M122.95,-112.08C127.1,-104.61 133.15,-93.72 138.27,-84.52"/>
<polygon fill="midnightblue" stroke="midnightblue" points="141.34,-86.19 143.14,-75.75 135.22,-82.79 141.34,-86.19"/>
</g>
<!-- Node5&#45;&gt;Node4 -->
<g id="edge5" class="edge">
<title>Node5&#45;&gt;Node4</title>
<path fill="none" stroke="midnightblue" d="M142.55,-56.08C137.99,-48.61 131.33,-37.72 125.71,-28.52"/>
<polygon fill="midnightblue" stroke="midnightblue" points="128.55,-26.46 120.35,-19.75 122.58,-30.11 128.55,-26.46"/>
</g>
<!-- Node8 -->
<g id="node8" class="node">
<title>Node8</title>
<g id="a_node8"><a xlink:href="../../d9/d70/mgr__log__rtc_8h.html" target="_top" xlink:title=": Header for mgr_log_rtc.c file. This file contains log routine concerning RTC. Thus there is a depen...">
<polygon fill="white" stroke="black" points="233.5,-56.5 233.5,-75.5 316.5,-75.5 316.5,-56.5 233.5,-56.5"/>
<text text-anchor="middle" x="275" y="-63.5" font-family="Helvetica,sans-Serif" font-size="10.00">mgr_log_rtc.h</text>
</a>
</g>
</g>
<!-- Node7&#45;&gt;Node8 -->
<g id="edge8" class="edge">
<title>Node7&#45;&gt;Node8</title>
<path fill="none" stroke="midnightblue" d="M275,-112.08C275,-105.01 275,-94.86 275,-85.99"/>
<polygon fill="midnightblue" stroke="midnightblue" points="278.5,-85.75 275,-75.75 271.5,-85.75 278.5,-85.75"/>
</g>
</g>
</svg>
