<?xml version="1.0" encoding="UTF-8" standalone="no"?>
<!DOCTYPE svg PUBLIC "-//W3C//DTD SVG 1.1//EN"
 "http://www.w3.org/Graphics/SVG/1.1/DTD/svg11.dtd">
<!-- Generated by graphviz version 2.43.0 (0)
 -->
<!-- Title: Kineis/App/Kineis_os/KNS_Q/Src/kns_q_baremetal.c Pages: 1 -->
<svg width="380pt" height="319pt"
 viewBox="0.00 0.00 379.75 319.00" xmlns="http://www.w3.org/2000/svg" xmlns:xlink="http://www.w3.org/1999/xlink">
<g id="graph0" class="graph" transform="scale(1 1) rotate(0) translate(4 315)">
<title>Kineis/App/Kineis_os/KNS_Q/Src/kns_q_baremetal.c</title>
<polygon fill="white" stroke="transparent" points="-4,4 -4,-315 375.75,-315 375.75,4 -4,4"/>
<!-- Node1 -->
<g id="node1" class="node">
<title>Node1</title>
<g id="a_node1"><a xlink:title="Configuration of queues used in kineis_swr.">
<polygon fill="#bfbfbf" stroke="black" points="112.25,-280.5 112.25,-310.5 278.25,-310.5 278.25,-280.5 112.25,-280.5"/>
<text text-anchor="start" x="120.25" y="-298.5" font-family="Helvetica,sans-Serif" font-size="10.00">Kineis/App/Kineis_os</text>
<text text-anchor="middle" x="195.25" y="-287.5" font-family="Helvetica,sans-Serif" font-size="10.00">/KNS_Q/Src/kns_q_baremetal.c</text>
</a>
</g>
</g>
<!-- Node2 -->
<g id="node2" class="node">
<title>Node2</title>
<g id="a_node2"><a xlink:href="../../d2/d62/kns__cs_8h.html" target="_top" xlink:title="critical section handling for kineis stack.">
<polygon fill="white" stroke="black" points="60.75,-224.5 60.75,-243.5 119.75,-243.5 119.75,-224.5 60.75,-224.5"/>
<text text-anchor="middle" x="90.25" y="-231.5" font-family="Helvetica,sans-Serif" font-size="10.00">kns_cs.h</text>
</a>
</g>
</g>
<!-- Node1&#45;&gt;Node2 -->
<g id="edge1" class="edge">
<title>Node1&#45;&gt;Node2</title>
<path fill="none" stroke="midnightblue" d="M170.36,-280.4C153.53,-270.86 131.41,-258.32 114.68,-248.84"/>
<polygon fill="midnightblue" stroke="midnightblue" points="115.95,-245.54 105.53,-243.66 112.5,-251.63 115.95,-245.54"/>
</g>
<!-- Node3 -->
<g id="node3" class="node">
<title>Node3</title>
<g id="a_node3"><a xlink:href="../../d8/dd1/kns__q__conf_8h.html" target="_top" xlink:title="Configuration of queues used in kineis_sw.">
<polygon fill="white" stroke="black" points="190.25,-168.5 190.25,-187.5 270.25,-187.5 270.25,-168.5 190.25,-168.5"/>
<text text-anchor="middle" x="230.25" y="-175.5" font-family="Helvetica,sans-Serif" font-size="10.00">kns_q_conf.h</text>
</a>
</g>
</g>
<!-- Node1&#45;&gt;Node3 -->
<g id="edge2" class="edge">
<title>Node1&#45;&gt;Node3</title>
<path fill="none" stroke="midnightblue" d="M199.54,-280.34C205.87,-259.43 217.73,-220.31 224.71,-197.27"/>
<polygon fill="midnightblue" stroke="midnightblue" points="228.07,-198.25 227.62,-187.67 221.37,-196.22 228.07,-198.25"/>
</g>
<!-- Node9 -->
<g id="node9" class="node">
<title>Node9</title>
<g id="a_node9"><a xlink:href="../../d0/d84/kns__q_8h.html" target="_top" xlink:title="Configuration of queues used in kineis_swr.">
<polygon fill="white" stroke="black" points="138.25,-224.5 138.25,-243.5 192.25,-243.5 192.25,-224.5 138.25,-224.5"/>
<text text-anchor="middle" x="165.25" y="-231.5" font-family="Helvetica,sans-Serif" font-size="10.00">kns_q.h</text>
</a>
</g>
</g>
<!-- Node1&#45;&gt;Node9 -->
<g id="edge14" class="edge">
<title>Node1&#45;&gt;Node9</title>
<path fill="none" stroke="midnightblue" d="M188.14,-280.4C183.96,-272.11 178.64,-261.55 174.18,-252.71"/>
<polygon fill="midnightblue" stroke="midnightblue" points="177.24,-251.01 169.61,-243.66 170.99,-254.16 177.24,-251.01"/>
</g>
<!-- Node10 -->
<g id="node10" class="node">
<title>Node10</title>
<g id="a_node10"><a xlink:href="../../d2/d2e/mgr__log_8h.html" target="_top" xlink:title="logger main header file">
<polygon fill="white" stroke="black" points="277.75,-224.5 277.75,-243.5 342.75,-243.5 342.75,-224.5 277.75,-224.5"/>
<text text-anchor="middle" x="310.25" y="-231.5" font-family="Helvetica,sans-Serif" font-size="10.00">mgr_log.h</text>
</a>
</g>
</g>
<!-- Node1&#45;&gt;Node10 -->
<g id="edge19" class="edge">
<title>Node1&#45;&gt;Node10</title>
<path fill="none" stroke="midnightblue" d="M222.5,-280.4C241.28,-270.68 266.07,-257.86 284.52,-248.31"/>
<polygon fill="midnightblue" stroke="midnightblue" points="286.24,-251.36 293.51,-243.66 283.02,-245.14 286.24,-251.36"/>
</g>
<!-- Node4 -->
<g id="node4" class="node">
<title>Node4</title>
<g id="a_node4"><a xlink:title=" ">
<polygon fill="white" stroke="#bfbfbf" points="145.25,-56.5 145.25,-75.5 207.25,-75.5 207.25,-56.5 145.25,-56.5"/>
<text text-anchor="middle" x="176.25" y="-63.5" font-family="Helvetica,sans-Serif" font-size="10.00">stdbool.h</text>
</a>
</g>
</g>
<!-- Node3&#45;&gt;Node4 -->
<g id="edge3" class="edge">
<title>Node3&#45;&gt;Node4</title>
<path fill="none" stroke="midnightblue" d="M248.34,-168.43C270.77,-156.6 304.3,-134.2 289.25,-112 273.26,-88.42 242.74,-77.2 217.44,-71.85"/>
<polygon fill="midnightblue" stroke="midnightblue" points="217.81,-68.36 207.34,-69.96 216.52,-75.24 217.81,-68.36"/>
</g>
<!-- Node5 -->
<g id="node5" class="node">
<title>Node5</title>
<g id="a_node5"><a xlink:title=" ">
<polygon fill="white" stroke="#bfbfbf" points="63.75,-0.5 63.75,-19.5 116.75,-19.5 116.75,-0.5 63.75,-0.5"/>
<text text-anchor="middle" x="90.25" y="-7.5" font-family="Helvetica,sans-Serif" font-size="10.00">stdint.h</text>
</a>
</g>
</g>
<!-- Node3&#45;&gt;Node5 -->
<g id="edge4" class="edge">
<title>Node3&#45;&gt;Node5</title>
<path fill="none" stroke="midnightblue" d="M254.85,-168.43C280.87,-157.82 316.6,-137.94 304.25,-112 272.43,-45.2 179.47,-22.4 127.14,-14.76"/>
<polygon fill="midnightblue" stroke="midnightblue" points="127.32,-11.25 116.94,-13.38 126.38,-18.18 127.32,-11.25"/>
</g>
<!-- Node6 -->
<g id="node6" class="node">
<title>Node6</title>
<g id="a_node6"><a xlink:href="../../df/d64/kns__mac__evt_8h.html" target="_top" xlink:title=" ">
<polygon fill="white" stroke="black" points="190.25,-112.5 190.25,-131.5 280.25,-131.5 280.25,-112.5 190.25,-112.5"/>
<text text-anchor="middle" x="235.25" y="-119.5" font-family="Helvetica,sans-Serif" font-size="10.00">kns_mac_evt.h</text>
</a>
</g>
</g>
<!-- Node3&#45;&gt;Node6 -->
<g id="edge5" class="edge">
<title>Node3&#45;&gt;Node6</title>
<path fill="none" stroke="midnightblue" d="M231.07,-168.08C231.73,-161.01 232.67,-150.86 233.49,-141.99"/>
<polygon fill="midnightblue" stroke="midnightblue" points="237,-142.03 234.44,-131.75 230.03,-141.39 237,-142.03"/>
</g>
<!-- Node8 -->
<g id="node8" class="node">
<title>Node8</title>
<g id="a_node8"><a xlink:href="../../d7/d8a/kns__srvc__common_8h.html" target="_top" xlink:title="Common part of Kinéis service layer.">
<polygon fill="white" stroke="black" points="18.25,-112.5 18.25,-131.5 134.25,-131.5 134.25,-112.5 18.25,-112.5"/>
<text text-anchor="middle" x="76.25" y="-119.5" font-family="Helvetica,sans-Serif" font-size="10.00">kns_srvc_common.h</text>
</a>
</g>
</g>
<!-- Node3&#45;&gt;Node8 -->
<g id="edge10" class="edge">
<title>Node3&#45;&gt;Node8</title>
<path fill="none" stroke="midnightblue" d="M205.85,-168.44C180.05,-159.4 139.17,-145.06 110.23,-134.92"/>
<polygon fill="midnightblue" stroke="midnightblue" points="111.13,-131.52 100.54,-131.52 108.81,-138.13 111.13,-131.52"/>
</g>
<!-- Node6&#45;&gt;Node4 -->
<g id="edge6" class="edge">
<title>Node6&#45;&gt;Node4</title>
<path fill="none" stroke="midnightblue" d="M225.77,-112.32C217.05,-104.34 203.9,-92.31 193.35,-82.65"/>
<polygon fill="midnightblue" stroke="midnightblue" points="195.64,-80 185.9,-75.83 190.91,-85.17 195.64,-80"/>
</g>
<!-- Node6&#45;&gt;Node5 -->
<g id="edge7" class="edge">
<title>Node6&#45;&gt;Node5</title>
<path fill="none" stroke="midnightblue" d="M235.11,-112.2C234.41,-98.43 231.09,-71.74 216.25,-56 192.9,-31.24 155.01,-20.08 126.87,-15.07"/>
<polygon fill="midnightblue" stroke="midnightblue" points="127.41,-11.61 116.98,-13.48 126.3,-18.52 127.41,-11.61"/>
</g>
<!-- Node7 -->
<g id="node7" class="node">
<title>Node7</title>
<g id="a_node7"><a xlink:href="../../d8/d85/kns__types_8h.html" target="_top" xlink:title="Kineis types definition.">
<polygon fill="white" stroke="black" points="52.75,-56.5 52.75,-75.5 127.75,-75.5 127.75,-56.5 52.75,-56.5"/>
<text text-anchor="middle" x="90.25" y="-63.5" font-family="Helvetica,sans-Serif" font-size="10.00">kns_types.h</text>
</a>
</g>
</g>
<!-- Node6&#45;&gt;Node7 -->
<g id="edge8" class="edge">
<title>Node6&#45;&gt;Node7</title>
<path fill="none" stroke="midnightblue" d="M212.27,-112.44C188.09,-103.44 149.83,-89.19 122.6,-79.05"/>
<polygon fill="midnightblue" stroke="midnightblue" points="123.71,-75.73 113.12,-75.52 121.27,-82.29 123.71,-75.73"/>
</g>
<!-- Node7&#45;&gt;Node5 -->
<g id="edge9" class="edge">
<title>Node7&#45;&gt;Node5</title>
<path fill="none" stroke="midnightblue" d="M90.25,-56.08C90.25,-49.01 90.25,-38.86 90.25,-29.99"/>
<polygon fill="midnightblue" stroke="midnightblue" points="93.75,-29.75 90.25,-19.75 86.75,-29.75 93.75,-29.75"/>
</g>
<!-- Node8&#45;&gt;Node4 -->
<g id="edge11" class="edge">
<title>Node8&#45;&gt;Node4</title>
<path fill="none" stroke="midnightblue" d="M92.31,-112.32C108.21,-103.74 132.76,-90.49 151.21,-80.52"/>
<polygon fill="midnightblue" stroke="midnightblue" points="153.08,-83.49 160.22,-75.65 149.76,-77.33 153.08,-83.49"/>
</g>
<!-- Node8&#45;&gt;Node5 -->
<g id="edge12" class="edge">
<title>Node8&#45;&gt;Node5</title>
<path fill="none" stroke="midnightblue" d="M66.46,-112.34C53.81,-100.05 34.4,-76.72 43.25,-56 48.39,-43.95 58.53,-33.58 68.07,-25.84"/>
<polygon fill="midnightblue" stroke="midnightblue" points="70.29,-28.55 76.17,-19.74 66.08,-22.96 70.29,-28.55"/>
</g>
<!-- Node8&#45;&gt;Node7 -->
<g id="edge13" class="edge">
<title>Node8&#45;&gt;Node7</title>
<path fill="none" stroke="midnightblue" d="M78.56,-112.08C80.41,-104.93 83.08,-94.64 85.4,-85.69"/>
<polygon fill="midnightblue" stroke="midnightblue" points="88.86,-86.31 87.98,-75.75 82.08,-84.55 88.86,-86.31"/>
</g>
<!-- Node9&#45;&gt;Node3 -->
<g id="edge18" class="edge">
<title>Node9&#45;&gt;Node3</title>
<path fill="none" stroke="midnightblue" d="M175.69,-224.32C185.39,-216.26 200.06,-204.08 211.75,-194.37"/>
<polygon fill="midnightblue" stroke="midnightblue" points="214.16,-196.92 219.61,-187.83 209.69,-191.53 214.16,-196.92"/>
</g>
<!-- Node9&#45;&gt;Node4 -->
<g id="edge15" class="edge">
<title>Node9&#45;&gt;Node4</title>
<path fill="none" stroke="midnightblue" d="M165.84,-224.08C167.57,-197.95 172.66,-121.21 175.02,-85.58"/>
<polygon fill="midnightblue" stroke="midnightblue" points="178.51,-85.78 175.68,-75.57 171.53,-85.31 178.51,-85.78"/>
</g>
<!-- Node9&#45;&gt;Node5 -->
<g id="edge16" class="edge">
<title>Node9&#45;&gt;Node5</title>
<path fill="none" stroke="midnightblue" d="M138.06,-225.73C105.41,-216.62 53.06,-200.66 37.25,-188 14.34,-169.66 10.34,-160.21 2.25,-132 -10.53,-87.46 37.23,-46.24 67.37,-25.34"/>
<polygon fill="midnightblue" stroke="midnightblue" points="69.34,-28.23 75.7,-19.76 65.44,-22.41 69.34,-28.23"/>
</g>
<!-- Node9&#45;&gt;Node7 -->
<g id="edge17" class="edge">
<title>Node9&#45;&gt;Node7</title>
<path fill="none" stroke="midnightblue" d="M137.96,-224.53C101.02,-211.41 36.61,-182.31 9.25,-132 -3.62,-108.34 26.11,-90.16 53.11,-79.12"/>
<polygon fill="midnightblue" stroke="midnightblue" points="54.39,-82.37 62.47,-75.51 51.88,-75.84 54.39,-82.37"/>
</g>
<!-- Node11 -->
<g id="node11" class="node">
<title>Node11</title>
<g id="a_node11"><a xlink:href="../../d9/d70/mgr__log__rtc_8h.html" target="_top" xlink:title=": Header for mgr_log_rtc.c file. This file contains log routine concerning RTC. Thus there is a depen...">
<polygon fill="white" stroke="black" points="288.75,-168.5 288.75,-187.5 371.75,-187.5 371.75,-168.5 288.75,-168.5"/>
<text text-anchor="middle" x="330.25" y="-175.5" font-family="Helvetica,sans-Serif" font-size="10.00">mgr_log_rtc.h</text>
</a>
</g>
</g>
<!-- Node10&#45;&gt;Node11 -->
<g id="edge20" class="edge">
<title>Node10&#45;&gt;Node11</title>
<path fill="none" stroke="midnightblue" d="M313.55,-224.08C316.23,-216.85 320.1,-206.41 323.43,-197.4"/>
<polygon fill="midnightblue" stroke="midnightblue" points="326.82,-198.34 327.01,-187.75 320.25,-195.91 326.82,-198.34"/>
</g>
</g>
</svg>
