<?xml version="1.0" encoding="UTF-8" standalone="no"?>
<!DOCTYPE svg PUBLIC "-//W3C//DTD SVG 1.1//EN"
 "http://www.w3.org/Graphics/SVG/1.1/DTD/svg11.dtd">
<!-- Generated by graphviz version 2.43.0 (0)
 -->
<!-- Title: Kineis/Lpm/Inc/lpm_cli_kstk.h Pages: 1 -->
<svg width="256pt" height="106pt"
 viewBox="0.00 0.00 255.50 106.00" xmlns="http://www.w3.org/2000/svg" xmlns:xlink="http://www.w3.org/1999/xlink">
<g id="graph0" class="graph" transform="scale(1 1) rotate(0) translate(4 102)">
<title>Kineis/Lpm/Inc/lpm_cli_kstk.h</title>
<polygon fill="white" stroke="transparent" points="-4,4 -4,-102 251.5,-102 251.5,4 -4,4"/>
<!-- Node1 -->
<g id="node1" class="node">
<title>Node1</title>
<g id="a_node1"><a xlink:title="Kineis stack&#39;s LPM client. It is implementing APIs needed to interface with the low power manager (MG...">
<polygon fill="#bfbfbf" stroke="black" points="70.5,-67.5 70.5,-97.5 180.5,-97.5 180.5,-67.5 70.5,-67.5"/>
<text text-anchor="start" x="78.5" y="-85.5" font-family="Helvetica,sans-Serif" font-size="10.00">Kineis/Lpm/Inc/lpm</text>
<text text-anchor="middle" x="125.5" y="-74.5" font-family="Helvetica,sans-Serif" font-size="10.00">_cli_kstk.h</text>
</a>
</g>
</g>
<!-- Node2 -->
<g id="node2" class="node">
<title>Node2</title>
<g id="a_node2"><a xlink:href="../../d5/db5/lpm_8c.html" target="_top" xlink:title="This file contains some utilities and functions needed for a correct handling of LPM on the STM32WL55...">
<polygon fill="white" stroke="black" points="0,-6 0,-25 119,-25 119,-6 0,-6"/>
<text text-anchor="middle" x="59.5" y="-13" font-family="Helvetica,sans-Serif" font-size="10.00">Kineis/Lpm/Src/lpm.c</text>
</a>
</g>
</g>
<!-- Node1&#45;&gt;Node2 -->
<g id="edge1" class="edge">
<title>Node1&#45;&gt;Node2</title>
<path fill="none" stroke="midnightblue" d="M104.01,-60.34C91.89,-48.4 77.41,-34.14 68.33,-25.19"/>
<polygon fill="midnightblue" stroke="midnightblue" points="101.6,-62.87 111.18,-67.4 106.51,-57.89 101.6,-62.87"/>
</g>
<!-- Node3 -->
<g id="node3" class="node">
<title>Node3</title>
<g id="a_node3"><a xlink:href="../../df/d53/lpm__cli__kstk_8c.html" target="_top" xlink:title="Kineis stack&#39;s LPM client. It is implementing APIs needed to interface with the low power manager (MG...">
<polygon fill="white" stroke="black" points="137.5,-0.5 137.5,-30.5 247.5,-30.5 247.5,-0.5 137.5,-0.5"/>
<text text-anchor="start" x="145.5" y="-18.5" font-family="Helvetica,sans-Serif" font-size="10.00">Kineis/Lpm/Src/lpm</text>
<text text-anchor="middle" x="192.5" y="-7.5" font-family="Helvetica,sans-Serif" font-size="10.00">_cli_kstk.c</text>
</a>
</g>
</g>
<!-- Node1&#45;&gt;Node3 -->
<g id="edge2" class="edge">
<title>Node1&#45;&gt;Node3</title>
<path fill="none" stroke="midnightblue" d="M147.34,-60.31C157.39,-50.56 169.04,-39.26 177.99,-30.58"/>
<polygon fill="midnightblue" stroke="midnightblue" points="144.78,-57.92 140.04,-67.4 149.65,-62.94 144.78,-57.92"/>
</g>
</g>
</svg>
