<?xml version="1.0" encoding="UTF-8" standalone="no"?>
<!DOCTYPE svg PUBLIC "-//W3C//DTD SVG 1.1//EN"
 "http://www.w3.org/Graphics/SVG/1.1/DTD/svg11.dtd">
<!-- Generated by graphviz version 2.43.0 (0)
 -->
<!-- Title: Kineis/App/Managers/MGR_AT_CMD/Src/mgr_at_cmd_list_mac.c Pages: 1 -->
<!--zoomable 397 -->
<svg id="main" version="1.1" xmlns="http://www.w3.org/2000/svg" xmlns:xlink="http://www.w3.org/1999/xlink" xml:space="preserve" onload="init(evt)">
<style type="text/css"><![CDATA[
.edge:hover path { stroke: red; }
.edge:hover polygon { stroke: red; fill: red; }
]]></style>
<script type="text/javascript"><![CDATA[
var edges = document.getElementsByTagName('g');
if (edges && edges.length) {
  for (var i=0;i<edges.length;i++) {
    if (edges[i].id.substr(0,4)=='edge') {
      edges[i].setAttribute('class','edge');
    }
  }
}
]]></script>
        <defs>
                <circle id="rim" cx="0" cy="0" r="7"/>
                <circle id="rim2" cx="0" cy="0" r="3.5"/>
                <g id="zoomPlus">
                        <use xlink:href="#rim" fill="#404040">
                                <set attributeName="fill" to="#808080" begin="zoomplus.mouseover" end="zoomplus.mouseout"/>
                        </use>
                        <path d="M-4,0h8M0,-4v8" fill="none" stroke="white" stroke-width="1.5" pointer-events="none"/>
                </g>
                <g id="zoomMin">
                        <use xlink:href="#rim" fill="#404040">
                                <set attributeName="fill" to="#808080" begin="zoomminus.mouseover" end="zoomminus.mouseout"/>
                        </use>
                        <path d="M-4,0h8" fill="none" stroke="white" stroke-width="1.5" pointer-events="none"/>
                </g>
                <g id="dirArrow">
                        <path fill="none" stroke="white" stroke-width="1.5" d="M0,-3.0v7 M-2.5,-0.5L0,-3.0L2.5,-0.5"/>
                </g>
               <g id="resetDef">
                       <use xlink:href="#rim2" fill="#404040">
                               <set attributeName="fill" to="#808080" begin="reset.mouseover" end="reset.mouseout"/>
                       </use>
               </g>
        </defs>

<script type="text/javascript">
var viewWidth = 1098;
var viewHeight = 397;
var sectionId = 'dynsection-0';
</script>
<script xlink:href="../../svgpan.js"/>
<svg id="graph" class="graph">
<g id="viewport">
<title>Kineis/App/Managers/MGR_AT_CMD/Src/mgr_at_cmd_list_mac.c</title>
<polygon fill="white" stroke="transparent" points="-4,4 -4,-393 1094,-393 1094,4 -4,4"/>
<!-- Node1 -->
<g id="node1" class="node">
<title>Node1</title>
<g id="a_node1"><a xlink:title="subset of AT commands concerning Kinéis Medium Acces Channel (MAC).">
<polygon fill="#bfbfbf" stroke="black" points="371,-347.5 371,-388.5 501,-388.5 501,-347.5 371,-347.5"/>
<text text-anchor="start" x="379" y="-376.5" font-family="Helvetica,sans-Serif" font-size="10.00">Kineis/App/Managers</text>
<text text-anchor="start" x="379" y="-365.5" font-family="Helvetica,sans-Serif" font-size="10.00">/MGR_AT_CMD/Src/mgr</text>
<text text-anchor="middle" x="436" y="-354.5" font-family="Helvetica,sans-Serif" font-size="10.00">_at_cmd_list_mac.c</text>
</a>
</g>
</g>
<!-- Node2 -->
<g id="node2" class="node">
<title>Node2</title>
<g id="a_node2"><a xlink:title=" ">
<polygon fill="white" stroke="#bfbfbf" points="0,-286 0,-305 50,-305 50,-286 0,-286"/>
<text text-anchor="middle" x="25" y="-293" font-family="Helvetica,sans-Serif" font-size="10.00">stdio.h</text>
</a>
</g>
</g>
<!-- Node1&#45;&gt;Node2 -->
<g id="edge1" class="edge">
<title>Node1&#45;&gt;Node2</title>
<path fill="none" stroke="midnightblue" d="M370.67,-361.29C295.73,-353.79 169.61,-338.27 64,-311 61.18,-310.27 58.28,-309.41 55.4,-308.48"/>
<polygon fill="midnightblue" stroke="midnightblue" points="56.39,-305.12 45.8,-305.14 54.09,-311.73 56.39,-305.12"/>
</g>
<!-- Node3 -->
<g id="node3" class="node">
<title>Node3</title>
<g id="a_node3"><a xlink:title=" ">
<polygon fill="white" stroke="#bfbfbf" points="408,-112.5 408,-131.5 470,-131.5 470,-112.5 408,-112.5"/>
<text text-anchor="middle" x="439" y="-119.5" font-family="Helvetica,sans-Serif" font-size="10.00">stdbool.h</text>
</a>
</g>
</g>
<!-- Node1&#45;&gt;Node3 -->
<g id="edge2" class="edge">
<title>Node1&#45;&gt;Node3</title>
<path fill="none" stroke="midnightblue" d="M447.73,-347.27C453.24,-336.87 459.2,-323.66 462,-311 475.5,-249.84 456.18,-175.62 445.4,-141.63"/>
<polygon fill="midnightblue" stroke="midnightblue" points="448.59,-140.12 442.14,-131.72 441.94,-142.31 448.59,-140.12"/>
</g>
<!-- Node4 -->
<g id="node4" class="node">
<title>Node4</title>
<g id="a_node4"><a xlink:title=" ">
<polygon fill="white" stroke="#bfbfbf" points="106.5,-286 106.5,-305 159.5,-305 159.5,-286 106.5,-286"/>
<text text-anchor="middle" x="133" y="-293" font-family="Helvetica,sans-Serif" font-size="10.00">string.h</text>
</a>
</g>
</g>
<!-- Node1&#45;&gt;Node4 -->
<g id="edge3" class="edge">
<title>Node1&#45;&gt;Node4</title>
<path fill="none" stroke="midnightblue" d="M370.97,-356.92C316.16,-347.59 236.01,-331.99 168,-311 165.86,-310.34 163.66,-309.59 161.47,-308.8"/>
<polygon fill="midnightblue" stroke="midnightblue" points="162.61,-305.49 152.02,-305.13 160.07,-312.02 162.61,-305.49"/>
</g>
<!-- Node5 -->
<g id="node5" class="node">
<title>Node5</title>
<g id="a_node5"><a xlink:href="../../d4/d30/mcu__at__console_8h.html" target="_top" xlink:title="MCU wrapper for AT CMD console.">
<polygon fill="white" stroke="black" points="5,-168.5 5,-187.5 109,-187.5 109,-168.5 5,-168.5"/>
<text text-anchor="middle" x="57" y="-175.5" font-family="Helvetica,sans-Serif" font-size="10.00">mcu_at_console.h</text>
</a>
</g>
</g>
<!-- Node1&#45;&gt;Node5 -->
<g id="edge4" class="edge">
<title>Node1&#45;&gt;Node5</title>
<path fill="none" stroke="midnightblue" d="M370.78,-364.26C283.96,-359.3 136.74,-345.86 97,-311 63.95,-282 57.73,-226.69 56.86,-197.73"/>
<polygon fill="midnightblue" stroke="midnightblue" points="60.36,-197.68 56.74,-187.72 53.36,-197.76 60.36,-197.68"/>
</g>
<!-- Node7 -->
<g id="node7" class="node">
<title>Node7</title>
<g id="a_node7"><a xlink:href="../../de/de6/mgr__at__cmd__list__user__data_8h.html" target="_top" xlink:title="subset of AT commands concerning user data manipulation such as TX">
<polygon fill="white" stroke="black" points="329,-280.5 329,-310.5 453,-310.5 453,-280.5 329,-280.5"/>
<text text-anchor="start" x="337" y="-298.5" font-family="Helvetica,sans-Serif" font-size="10.00">mgr_at_cmd_list_user</text>
<text text-anchor="middle" x="391" y="-287.5" font-family="Helvetica,sans-Serif" font-size="10.00">_data.h</text>
</a>
</g>
</g>
<!-- Node1&#45;&gt;Node7 -->
<g id="edge7" class="edge">
<title>Node1&#45;&gt;Node7</title>
<path fill="none" stroke="midnightblue" d="M423.46,-347.36C417.93,-338.68 411.38,-328.42 405.62,-319.4"/>
<polygon fill="midnightblue" stroke="midnightblue" points="408.52,-317.44 400.19,-310.89 402.62,-321.2 408.52,-317.44"/>
</g>
<!-- Node13 -->
<g id="node13" class="node">
<title>Node13</title>
<g id="a_node13"><a xlink:href="../../d9/dc9/mgr__at__cmd__list__mac_8h.html" target="_top" xlink:title="subset of AT commands concerning Kinéis Medium Acces Channel (MAC).">
<polygon fill="white" stroke="black" points="177.5,-286 177.5,-305 310.5,-305 310.5,-286 177.5,-286"/>
<text text-anchor="middle" x="244" y="-293" font-family="Helvetica,sans-Serif" font-size="10.00">mgr_at_cmd_list_mac.h</text>
</a>
</g>
</g>
<!-- Node1&#45;&gt;Node13 -->
<g id="edge18" class="edge">
<title>Node1&#45;&gt;Node13</title>
<path fill="none" stroke="midnightblue" d="M382.77,-347.46C348.82,-334.99 305.9,-319.23 276.84,-308.56"/>
<polygon fill="midnightblue" stroke="midnightblue" points="277.78,-305.17 267.18,-305.01 275.37,-311.75 277.78,-305.17"/>
</g>
<!-- Node14 -->
<g id="node14" class="node">
<title>Node14</title>
<g id="a_node14"><a xlink:href="../../d0/d84/kns__q_8h.html" target="_top" xlink:title="Configuration of queues used in kineis_swr.">
<polygon fill="white" stroke="black" points="551,-286 551,-305 605,-305 605,-286 551,-286"/>
<text text-anchor="middle" x="578" y="-293" font-family="Helvetica,sans-Serif" font-size="10.00">kns_q.h</text>
</a>
</g>
</g>
<!-- Node1&#45;&gt;Node14 -->
<g id="edge20" class="edge">
<title>Node1&#45;&gt;Node14</title>
<path fill="none" stroke="midnightblue" d="M475.55,-347.36C499.75,-335.35 530.05,-320.3 551.4,-309.7"/>
<polygon fill="midnightblue" stroke="midnightblue" points="553.13,-312.76 560.53,-305.17 550.02,-306.49 553.13,-312.76"/>
</g>
<!-- Node19 -->
<g id="node19" class="node">
<title>Node19</title>
<g id="a_node19"><a xlink:href="../../d7/d1a/kns__mac_8h.html" target="_top" xlink:title="Main header file for MAC layer of Kineis stack.">
<polygon fill="white" stroke="black" points="782.5,-224.5 782.5,-243.5 851.5,-243.5 851.5,-224.5 782.5,-224.5"/>
<text text-anchor="middle" x="817" y="-231.5" font-family="Helvetica,sans-Serif" font-size="10.00">kns_mac.h</text>
</a>
</g>
</g>
<!-- Node1&#45;&gt;Node19 -->
<g id="edge38" class="edge">
<title>Node1&#45;&gt;Node19</title>
<path fill="none" stroke="midnightblue" d="M500.95,-347.48C534.8,-337.08 576.78,-323.81 614,-311 675.34,-289.88 746.12,-262.74 785.81,-247.27"/>
<polygon fill="midnightblue" stroke="midnightblue" points="787.17,-250.5 795.21,-243.6 784.62,-243.98 787.17,-250.5"/>
</g>
<!-- Node20 -->
<g id="node20" class="node">
<title>Node20</title>
<g id="a_node20"><a xlink:href="../../d2/d2e/mgr__log_8h.html" target="_top" xlink:title="logger main header file">
<polygon fill="white" stroke="black" points="902.5,-286 902.5,-305 967.5,-305 967.5,-286 902.5,-286"/>
<text text-anchor="middle" x="935" y="-293" font-family="Helvetica,sans-Serif" font-size="10.00">mgr_log.h</text>
</a>
</g>
</g>
<!-- Node1&#45;&gt;Node20 -->
<g id="edge41" class="edge">
<title>Node1&#45;&gt;Node20</title>
<path fill="none" stroke="midnightblue" d="M501.24,-357.78C604.94,-343.13 804.6,-314.92 892.12,-302.56"/>
<polygon fill="midnightblue" stroke="midnightblue" points="892.81,-306 902.22,-301.13 891.83,-299.06 892.81,-306"/>
</g>
<!-- Node22 -->
<g id="node22" class="node">
<title>Node22</title>
<g id="a_node22"><a xlink:href="../../d8/d77/kns__assert_8h.html" target="_top" xlink:title="ASSERT handling for kineis stack. Handle way to reset device if needed.">
<polygon fill="white" stroke="black" points="1012,-56.5 1012,-75.5 1090,-75.5 1090,-56.5 1012,-56.5"/>
<text text-anchor="middle" x="1051" y="-63.5" font-family="Helvetica,sans-Serif" font-size="10.00">kns_assert.h</text>
</a>
</g>
</g>
<!-- Node1&#45;&gt;Node22 -->
<g id="edge43" class="edge">
<title>Node1&#45;&gt;Node22</title>
<path fill="none" stroke="midnightblue" d="M501.22,-366.92C661.56,-364.97 1062,-348.71 1062,-235 1062,-235 1062,-235 1062,-177 1062,-144.79 1057.27,-107.53 1054.02,-85.69"/>
<polygon fill="midnightblue" stroke="midnightblue" points="1057.43,-84.87 1052.44,-75.53 1050.51,-85.95 1057.43,-84.87"/>
</g>
<!-- Node5&#45;&gt;Node3 -->
<g id="edge5" class="edge">
<title>Node5&#45;&gt;Node3</title>
<path fill="none" stroke="midnightblue" d="M109.31,-169.6C186.09,-158.75 327.72,-138.73 397.68,-128.84"/>
<polygon fill="midnightblue" stroke="midnightblue" points="398.45,-132.27 407.86,-127.4 397.47,-125.34 398.45,-132.27"/>
</g>
<!-- Node6 -->
<g id="node6" class="node">
<title>Node6</title>
<g id="a_node6"><a xlink:title=" ">
<polygon fill="white" stroke="#bfbfbf" points="650.5,-0.5 650.5,-19.5 703.5,-19.5 703.5,-0.5 650.5,-0.5"/>
<text text-anchor="middle" x="677" y="-7.5" font-family="Helvetica,sans-Serif" font-size="10.00">stdint.h</text>
</a>
</g>
</g>
<!-- Node5&#45;&gt;Node6 -->
<g id="edge6" class="edge">
<title>Node5&#45;&gt;Node6</title>
<path fill="none" stroke="midnightblue" d="M58.76,-168.36C63.95,-145.44 81.47,-82.99 123,-56 166.2,-27.92 522.94,-15.37 639.97,-11.98"/>
<polygon fill="midnightblue" stroke="midnightblue" points="640.32,-15.48 650.21,-11.69 640.12,-8.48 640.32,-15.48"/>
</g>
<!-- Node8 -->
<g id="node8" class="node">
<title>Node8</title>
<g id="a_node8"><a xlink:href="../../d8/d85/kns__types_8h.html" target="_top" xlink:title="Kineis types definition.">
<polygon fill="white" stroke="black" points="677.5,-56.5 677.5,-75.5 752.5,-75.5 752.5,-56.5 677.5,-56.5"/>
<text text-anchor="middle" x="715" y="-63.5" font-family="Helvetica,sans-Serif" font-size="10.00">kns_types.h</text>
</a>
</g>
</g>
<!-- Node7&#45;&gt;Node8 -->
<g id="edge8" class="edge">
<title>Node7&#45;&gt;Node8</title>
<path fill="none" stroke="midnightblue" d="M453.22,-290.33C502.68,-284.91 572.39,-272.49 627,-244 659.34,-227.13 668.76,-219.59 687,-188 705.89,-155.28 712.04,-110.65 714.04,-85.76"/>
<polygon fill="midnightblue" stroke="midnightblue" points="717.55,-85.75 714.71,-75.54 710.56,-85.29 717.55,-85.75"/>
</g>
<!-- Node9 -->
<g id="node9" class="node">
<title>Node9</title>
<g id="a_node9"><a xlink:href="../../d5/d58/mgr__at__cmd__common_8h.html" target="_top" xlink:title="header file for common part of the AT cmd manager">
<polygon fill="white" stroke="black" points="217,-224.5 217,-243.5 351,-243.5 351,-224.5 217,-224.5"/>
<text text-anchor="middle" x="284" y="-231.5" font-family="Helvetica,sans-Serif" font-size="10.00">mgr_at_cmd_common.h</text>
</a>
</g>
</g>
<!-- Node7&#45;&gt;Node9 -->
<g id="edge10" class="edge">
<title>Node7&#45;&gt;Node9</title>
<path fill="none" stroke="midnightblue" d="M365.64,-280.4C348.33,-270.77 325.52,-258.09 308.42,-248.58"/>
<polygon fill="midnightblue" stroke="midnightblue" points="310.01,-245.46 299.57,-243.66 306.61,-251.58 310.01,-245.46"/>
</g>
<!-- Node8&#45;&gt;Node6 -->
<g id="edge9" class="edge">
<title>Node8&#45;&gt;Node6</title>
<path fill="none" stroke="midnightblue" d="M708.73,-56.08C703.36,-48.46 695.48,-37.26 688.92,-27.94"/>
<polygon fill="midnightblue" stroke="midnightblue" points="691.78,-25.91 683.16,-19.75 686.05,-29.94 691.78,-25.91"/>
</g>
<!-- Node9&#45;&gt;Node3 -->
<g id="edge12" class="edge">
<title>Node9&#45;&gt;Node3</title>
<path fill="none" stroke="midnightblue" d="M301.21,-224.41C317.61,-215.95 342.73,-202.25 363,-188 384.81,-172.67 407.8,-152.34 422.71,-138.53"/>
<polygon fill="midnightblue" stroke="midnightblue" points="425.2,-140.99 430.1,-131.6 420.41,-135.89 425.2,-140.99"/>
</g>
<!-- Node9&#45;&gt;Node6 -->
<g id="edge11" class="edge">
<title>Node9&#45;&gt;Node6</title>
<path fill="none" stroke="midnightblue" d="M216.85,-225.3C193.71,-219.06 170.09,-207.89 156,-188 132.39,-154.67 186.72,-126.91 204,-112 239.38,-81.47 248.93,-71.55 293,-56 356.66,-33.54 557.35,-18.59 640.43,-13.22"/>
<polygon fill="midnightblue" stroke="midnightblue" points="640.67,-16.71 650.43,-12.58 640.23,-9.73 640.67,-16.71"/>
</g>
<!-- Node10 -->
<g id="node10" class="node">
<title>Node10</title>
<g id="a_node10"><a xlink:href="../../df/d36/strutil__lib_8h.html" target="_top" xlink:title="small utilities to manipulate strings">
<polygon fill="white" stroke="black" points="165.5,-168.5 165.5,-187.5 236.5,-187.5 236.5,-168.5 165.5,-168.5"/>
<text text-anchor="middle" x="201" y="-175.5" font-family="Helvetica,sans-Serif" font-size="10.00">strutil_lib.h</text>
</a>
</g>
</g>
<!-- Node9&#45;&gt;Node10 -->
<g id="edge13" class="edge">
<title>Node9&#45;&gt;Node10</title>
<path fill="none" stroke="midnightblue" d="M270.66,-224.32C257.84,-215.98 238.22,-203.21 223.06,-193.35"/>
<polygon fill="midnightblue" stroke="midnightblue" points="224.59,-190.17 214.3,-187.65 220.78,-196.04 224.59,-190.17"/>
</g>
<!-- Node12 -->
<g id="node12" class="node">
<title>Node12</title>
<g id="a_node12"><a xlink:href="../../d9/dc4/kineis__sw__conf_8h.html" target="_top" xlink:title="Kineis stack SW configurations depending on platform used.">
<polygon fill="white" stroke="black" points="254.5,-168.5 254.5,-187.5 353.5,-187.5 353.5,-168.5 254.5,-168.5"/>
<text text-anchor="middle" x="304" y="-175.5" font-family="Helvetica,sans-Serif" font-size="10.00">kineis_sw_conf.h</text>
</a>
</g>
</g>
<!-- Node9&#45;&gt;Node12 -->
<g id="edge17" class="edge">
<title>Node9&#45;&gt;Node12</title>
<path fill="none" stroke="midnightblue" d="M287.3,-224.08C289.98,-216.85 293.85,-206.41 297.19,-197.4"/>
<polygon fill="midnightblue" stroke="midnightblue" points="300.57,-198.34 300.76,-187.75 294,-195.91 300.57,-198.34"/>
</g>
<!-- Node10&#45;&gt;Node3 -->
<g id="edge15" class="edge">
<title>Node10&#45;&gt;Node3</title>
<path fill="none" stroke="midnightblue" d="M236.63,-168.92C279.79,-159.12 352.35,-142.66 397.85,-132.34"/>
<polygon fill="midnightblue" stroke="midnightblue" points="398.71,-135.73 407.69,-130.1 397.16,-128.9 398.71,-135.73"/>
</g>
<!-- Node10&#45;&gt;Node6 -->
<g id="edge14" class="edge">
<title>Node10&#45;&gt;Node6</title>
<path fill="none" stroke="midnightblue" d="M200.9,-168.43C201.24,-154.48 204.03,-126.94 220,-112 281.49,-54.49 542.89,-23.9 640.26,-14.34"/>
<polygon fill="midnightblue" stroke="midnightblue" points="640.88,-17.79 650.5,-13.35 640.21,-10.83 640.88,-17.79"/>
</g>
<!-- Node11 -->
<g id="node11" class="node">
<title>Node11</title>
<g id="a_node11"><a xlink:title=" ">
<polygon fill="white" stroke="#bfbfbf" points="229.5,-112.5 229.5,-131.5 282.5,-131.5 282.5,-112.5 229.5,-112.5"/>
<text text-anchor="middle" x="256" y="-119.5" font-family="Helvetica,sans-Serif" font-size="10.00">stdlib.h</text>
</a>
</g>
</g>
<!-- Node10&#45;&gt;Node11 -->
<g id="edge16" class="edge">
<title>Node10&#45;&gt;Node11</title>
<path fill="none" stroke="midnightblue" d="M210.08,-168.08C218.17,-160.14 230.2,-148.34 239.91,-138.8"/>
<polygon fill="midnightblue" stroke="midnightblue" points="242.4,-141.25 247.09,-131.75 237.5,-136.26 242.4,-141.25"/>
</g>
<!-- Node13&#45;&gt;Node9 -->
<g id="edge19" class="edge">
<title>Node13&#45;&gt;Node9</title>
<path fill="none" stroke="midnightblue" d="M249.73,-285.98C255.67,-277.14 265.12,-263.09 272.59,-251.98"/>
<polygon fill="midnightblue" stroke="midnightblue" points="275.61,-253.76 278.28,-243.51 269.8,-249.86 275.61,-253.76"/>
</g>
<!-- Node14&#45;&gt;Node3 -->
<g id="edge21" class="edge">
<title>Node14&#45;&gt;Node3</title>
<path fill="none" stroke="midnightblue" d="M568.96,-285.89C558.84,-276.09 542.14,-259.45 529,-244 498.75,-208.44 466.97,-163.71 450.47,-139.84"/>
<polygon fill="midnightblue" stroke="midnightblue" points="453.3,-137.77 444.75,-131.5 447.53,-141.73 453.3,-137.77"/>
</g>
<!-- Node14&#45;&gt;Node6 -->
<g id="edge22" class="edge">
<title>Node14&#45;&gt;Node6</title>
<path fill="none" stroke="midnightblue" d="M605.33,-295.43C658.26,-296.05 776.92,-291.5 861,-244 918.59,-211.46 935.74,-193.92 959,-132 996.92,-31.09 798.71,-14.11 713.97,-11.42"/>
<polygon fill="midnightblue" stroke="midnightblue" points="713.83,-7.91 703.74,-11.15 713.65,-14.91 713.83,-7.91"/>
</g>
<!-- Node14&#45;&gt;Node8 -->
<g id="edge23" class="edge">
<title>Node14&#45;&gt;Node8</title>
<path fill="none" stroke="midnightblue" d="M596.13,-285.87C600.62,-283.85 605.45,-281.77 610,-280 657.94,-261.36 689.81,-285.65 720,-244 754.68,-196.16 734.47,-120.39 722.24,-85.59"/>
<polygon fill="midnightblue" stroke="midnightblue" points="725.38,-83.98 718.63,-75.82 718.81,-86.41 725.38,-83.98"/>
</g>
<!-- Node15 -->
<g id="node15" class="node">
<title>Node15</title>
<g id="a_node15"><a xlink:href="../../d8/dd1/kns__q__conf_8h.html" target="_top" xlink:title="Configuration of queues used in kineis_sw.">
<polygon fill="white" stroke="black" points="538,-224.5 538,-243.5 618,-243.5 618,-224.5 538,-224.5"/>
<text text-anchor="middle" x="578" y="-231.5" font-family="Helvetica,sans-Serif" font-size="10.00">kns_q_conf.h</text>
</a>
</g>
</g>
<!-- Node14&#45;&gt;Node15 -->
<g id="edge24" class="edge">
<title>Node14&#45;&gt;Node15</title>
<path fill="none" stroke="midnightblue" d="M578,-285.98C578,-277.58 578,-264.48 578,-253.66"/>
<polygon fill="midnightblue" stroke="midnightblue" points="581.5,-253.51 578,-243.51 574.5,-253.51 581.5,-253.51"/>
</g>
<!-- Node15&#45;&gt;Node3 -->
<g id="edge25" class="edge">
<title>Node15&#45;&gt;Node3</title>
<path fill="none" stroke="midnightblue" d="M566.84,-224.43C555.13,-215.41 536.21,-200.79 520,-188 498.62,-171.13 474.28,-151.54 457.9,-138.31"/>
<polygon fill="midnightblue" stroke="midnightblue" points="459.68,-135.25 449.7,-131.68 455.27,-140.69 459.68,-135.25"/>
</g>
<!-- Node15&#45;&gt;Node6 -->
<g id="edge26" class="edge">
<title>Node15&#45;&gt;Node6</title>
<path fill="none" stroke="midnightblue" d="M570.49,-224.24C560.78,-211.81 545.94,-188.33 553,-168 574.16,-107.08 629.85,-51.94 658.86,-26.24"/>
<polygon fill="midnightblue" stroke="midnightblue" points="661.35,-28.71 666.61,-19.52 656.76,-23.43 661.35,-28.71"/>
</g>
<!-- Node16 -->
<g id="node16" class="node">
<title>Node16</title>
<g id="a_node16"><a xlink:href="../../df/d64/kns__mac__evt_8h.html" target="_top" xlink:title=" ">
<polygon fill="white" stroke="black" points="772,-168.5 772,-187.5 862,-187.5 862,-168.5 772,-168.5"/>
<text text-anchor="middle" x="817" y="-175.5" font-family="Helvetica,sans-Serif" font-size="10.00">kns_mac_evt.h</text>
</a>
</g>
</g>
<!-- Node15&#45;&gt;Node16 -->
<g id="edge27" class="edge">
<title>Node15&#45;&gt;Node16</title>
<path fill="none" stroke="midnightblue" d="M615.87,-224.44C657.48,-215.04 724.37,-199.93 769.47,-189.74"/>
<polygon fill="midnightblue" stroke="midnightblue" points="770.32,-193.13 779.31,-187.52 768.78,-186.31 770.32,-193.13"/>
</g>
<!-- Node18 -->
<g id="node18" class="node">
<title>Node18</title>
<g id="a_node18"><a xlink:href="../../d7/d8a/kns__srvc__common_8h.html" target="_top" xlink:title="Common part of Kinéis service layer.">
<polygon fill="white" stroke="black" points="562,-168.5 562,-187.5 678,-187.5 678,-168.5 562,-168.5"/>
<text text-anchor="middle" x="620" y="-175.5" font-family="Helvetica,sans-Serif" font-size="10.00">kns_srvc_common.h</text>
</a>
</g>
</g>
<!-- Node15&#45;&gt;Node18 -->
<g id="edge34" class="edge">
<title>Node15&#45;&gt;Node18</title>
<path fill="none" stroke="midnightblue" d="M584.94,-224.08C590.93,-216.38 599.75,-205.03 607.05,-195.65"/>
<polygon fill="midnightblue" stroke="midnightblue" points="609.82,-197.79 613.19,-187.75 604.29,-193.5 609.82,-197.79"/>
</g>
<!-- Node16&#45;&gt;Node3 -->
<g id="edge28" class="edge">
<title>Node16&#45;&gt;Node3</title>
<path fill="none" stroke="midnightblue" d="M771.78,-170.54C697.63,-159.95 551.32,-139.05 480.01,-128.86"/>
<polygon fill="midnightblue" stroke="midnightblue" points="480.44,-125.39 470.05,-127.44 479.45,-132.31 480.44,-125.39"/>
</g>
<!-- Node16&#45;&gt;Node6 -->
<g id="edge29" class="edge">
<title>Node16&#45;&gt;Node6</title>
<path fill="none" stroke="midnightblue" d="M815.11,-168.29C810.03,-146.76 794.27,-90.27 762,-56 748.41,-41.57 729.15,-30.85 712.4,-23.49"/>
<polygon fill="midnightblue" stroke="midnightblue" points="713.46,-20.15 702.89,-19.55 710.78,-26.61 713.46,-20.15"/>
</g>
<!-- Node16&#45;&gt;Node8 -->
<g id="edge30" class="edge">
<title>Node16&#45;&gt;Node8</title>
<path fill="none" stroke="midnightblue" d="M809,-168.37C791.94,-149.97 751.79,-106.67 729.88,-83.05"/>
<polygon fill="midnightblue" stroke="midnightblue" points="732.33,-80.54 722.97,-75.59 727.2,-85.3 732.33,-80.54"/>
</g>
<!-- Node17 -->
<g id="node17" class="node">
<title>Node17</title>
<g id="a_node17"><a xlink:href="../../d8/d4a/kns__mac__prfl__cfg_8h.html" target="_top" xlink:title="Header file describing the ser settings required to configure a MAC protocol.">
<polygon fill="white" stroke="black" points="838.5,-112.5 838.5,-131.5 949.5,-131.5 949.5,-112.5 838.5,-112.5"/>
<text text-anchor="middle" x="894" y="-119.5" font-family="Helvetica,sans-Serif" font-size="10.00">kns_mac_prfl_cfg.h</text>
</a>
</g>
</g>
<!-- Node16&#45;&gt;Node17 -->
<g id="edge31" class="edge">
<title>Node16&#45;&gt;Node17</title>
<path fill="none" stroke="midnightblue" d="M829.37,-168.32C841.16,-160.06 859.13,-147.45 873.14,-137.63"/>
<polygon fill="midnightblue" stroke="midnightblue" points="875.48,-140.26 881.66,-131.65 871.46,-134.53 875.48,-140.26"/>
</g>
<!-- Node17&#45;&gt;Node6 -->
<g id="edge32" class="edge">
<title>Node17&#45;&gt;Node6</title>
<path fill="none" stroke="midnightblue" d="M886.78,-112.08C875.03,-98.15 850.44,-71.23 824,-56 789.2,-35.95 744.52,-23.92 713.59,-17.41"/>
<polygon fill="midnightblue" stroke="midnightblue" points="714.16,-13.96 703.67,-15.41 712.78,-20.82 714.16,-13.96"/>
</g>
<!-- Node17&#45;&gt;Node8 -->
<g id="edge33" class="edge">
<title>Node17&#45;&gt;Node8</title>
<path fill="none" stroke="midnightblue" d="M865.64,-112.44C835.26,-103.28 786.89,-88.69 753.18,-78.52"/>
<polygon fill="midnightblue" stroke="midnightblue" points="753.82,-75.05 743.23,-75.52 751.79,-81.76 753.82,-75.05"/>
</g>
<!-- Node18&#45;&gt;Node3 -->
<g id="edge35" class="edge">
<title>Node18&#45;&gt;Node3</title>
<path fill="none" stroke="midnightblue" d="M591.32,-168.44C560.47,-159.24 511.27,-144.56 477.17,-134.39"/>
<polygon fill="midnightblue" stroke="midnightblue" points="478.13,-131.02 467.55,-131.52 476.13,-137.73 478.13,-131.02"/>
</g>
<!-- Node18&#45;&gt;Node6 -->
<g id="edge36" class="edge">
<title>Node18&#45;&gt;Node6</title>
<path fill="none" stroke="midnightblue" d="M623.06,-168.08C632.08,-141.83 658.61,-64.55 670.78,-29.12"/>
<polygon fill="midnightblue" stroke="midnightblue" points="674.12,-30.16 674.06,-19.57 667.5,-27.89 674.12,-30.16"/>
</g>
<!-- Node18&#45;&gt;Node8 -->
<g id="edge37" class="edge">
<title>Node18&#45;&gt;Node8</title>
<path fill="none" stroke="midnightblue" d="M627.45,-168.37C643.27,-150.05 680.41,-107.05 700.87,-83.36"/>
<polygon fill="midnightblue" stroke="midnightblue" points="703.69,-85.45 707.58,-75.59 698.4,-80.87 703.69,-85.45"/>
</g>
<!-- Node19&#45;&gt;Node16 -->
<g id="edge39" class="edge">
<title>Node19&#45;&gt;Node16</title>
<path fill="none" stroke="midnightblue" d="M817,-224.08C817,-217.01 817,-206.86 817,-197.99"/>
<polygon fill="midnightblue" stroke="midnightblue" points="820.5,-197.75 817,-187.75 813.5,-197.75 820.5,-197.75"/>
</g>
<!-- Node19&#45;&gt;Node17 -->
<g id="edge40" class="edge">
<title>Node19&#45;&gt;Node17</title>
<path fill="none" stroke="midnightblue" d="M831.25,-224.29C843.35,-216.23 860.4,-203.22 871,-188 880.72,-174.03 886.74,-155.53 890.17,-141.84"/>
<polygon fill="midnightblue" stroke="midnightblue" points="893.68,-142.2 892.47,-131.67 886.85,-140.65 893.68,-142.2"/>
</g>
<!-- Node21 -->
<g id="node21" class="node">
<title>Node21</title>
<g id="a_node21"><a xlink:href="../../d9/d70/mgr__log__rtc_8h.html" target="_top" xlink:title=": Header for mgr_log_rtc.c file. This file contains log routine concerning RTC. Thus there is a depen...">
<polygon fill="white" stroke="black" points="950.5,-224.5 950.5,-243.5 1033.5,-243.5 1033.5,-224.5 950.5,-224.5"/>
<text text-anchor="middle" x="992" y="-231.5" font-family="Helvetica,sans-Serif" font-size="10.00">mgr_log_rtc.h</text>
</a>
</g>
</g>
<!-- Node20&#45;&gt;Node21 -->
<g id="edge42" class="edge">
<title>Node20&#45;&gt;Node21</title>
<path fill="none" stroke="midnightblue" d="M943.17,-285.98C951.89,-276.87 965.9,-262.24 976.69,-250.98"/>
<polygon fill="midnightblue" stroke="midnightblue" points="979.46,-253.15 983.85,-243.51 974.4,-248.31 979.46,-253.15"/>
</g>
<!-- Node22&#45;&gt;Node6 -->
<g id="edge44" class="edge">
<title>Node22&#45;&gt;Node6</title>
<path fill="none" stroke="midnightblue" d="M1011.97,-58.99C1005.31,-57.98 998.46,-56.95 992,-56 891.42,-41.14 772.65,-24.39 713.83,-16.15"/>
<polygon fill="midnightblue" stroke="midnightblue" points="713.95,-12.63 703.56,-14.71 712.98,-19.56 713.95,-12.63"/>
</g>
</g>
</svg>
        <g id="navigator" transform="translate(0 0)" fill="#404254">
                <rect fill="#f2f5e9" fill-opacity="0.5" stroke="#606060" stroke-width=".5" x="0" y="0" width="60" height="60"/>
                <use id="zoomplus" xlink:href="#zoomPlus" x="17" y="9" onmousedown="handleZoom(evt,'in')"/>
                <use id="zoomminus" xlink:href="#zoomMin" x="42" y="9" onmousedown="handleZoom(evt,'out')"/>
                <use id="reset" xlink:href="#resetDef" x="30" y="36" onmousedown="handleReset()"/>
                <g id="arrowUp" xlink:href="#dirArrow" transform="translate(30 24)" onmousedown="handlePan(0,-1)">
                  <use xlink:href="#rim" fill="#404040">
                        <set attributeName="fill" to="#808080" begin="arrowUp.mouseover" end="arrowUp.mouseout"/>
                  </use>
                  <path fill="none" stroke="white" stroke-width="1.5" d="M0,-3.0v7 M-2.5,-0.5L0,-3.0L2.5,-0.5"/>
                </g>
                <g id="arrowRight" xlink:href="#dirArrow" transform="rotate(90) translate(36 -43)" onmousedown="handlePan(1,0)">
                  <use xlink:href="#rim" fill="#404040">
                        <set attributeName="fill" to="#808080" begin="arrowRight.mouseover" end="arrowRight.mouseout"/>
                  </use>
                  <path fill="none" stroke="white" stroke-width="1.5" d="M0,-3.0v7 M-2.5,-0.5L0,-3.0L2.5,-0.5"/>
                </g>
                <g id="arrowDown" xlink:href="#dirArrow" transform="rotate(180) translate(-30 -48)" onmousedown="handlePan(0,1)">
                  <use xlink:href="#rim" fill="#404040">
                        <set attributeName="fill" to="#808080" begin="arrowDown.mouseover" end="arrowDown.mouseout"/>
                  </use>
                  <path fill="none" stroke="white" stroke-width="1.5" d="M0,-3.0v7 M-2.5,-0.5L0,-3.0L2.5,-0.5"/>
                </g>
                <g id="arrowLeft" xlink:href="#dirArrow" transform="rotate(270) translate(-36 17)" onmousedown="handlePan(-1,0)">
                  <use xlink:href="#rim" fill="#404040">
                        <set attributeName="fill" to="#808080" begin="arrowLeft.mouseover" end="arrowLeft.mouseout"/>
                  </use>
                  <path fill="none" stroke="white" stroke-width="1.5" d="M0,-3.0v7 M-2.5,-0.5L0,-3.0L2.5,-0.5"/>
                </g>
        </g>
        <svg viewBox="0 0 15 15" width="100%" height="30px" preserveAspectRatio="xMaxYMin meet">
         <g id="arrow_out" transform="scale(0.3 0.3)">
          <a xlink:href="mgr__at__cmd__list__mac_8c__incl_org.svg" target="_base">
           <rect id="button" ry="5" rx="5" y="6" x="6" height="38" width="38"
                fill="#f2f5e9" fill-opacity="0.5" stroke="#606060" stroke-width="1.0"/>
           <path id="arrow"
             d="M 11.500037,31.436501 C 11.940474,20.09759 22.043105,11.32322 32.158766,21.979434 L 37.068811,17.246167 C 37.068811,17.246167 37.088388,32 37.088388,32 L 22.160133,31.978069 C 22.160133,31.978069 26.997745,27.140456 26.997745,27.140456 C 18.528582,18.264221 13.291696,25.230495 11.500037,31.436501 z"
             style="fill:#404040;"/>
          </a>
         </g>
        </svg>
</svg>
