<?xml version="1.0" encoding="UTF-8" standalone="no"?>
<!DOCTYPE svg PUBLIC "-//W3C//DTD SVG 1.1//EN"
 "http://www.w3.org/Graphics/SVG/1.1/DTD/svg11.dtd">
<!-- Generated by graphviz version 2.43.0 (0)
 -->
<!-- Title: sUserDataTxFifoElt_t Pages: 1 -->
<svg width="183pt" height="95pt"
 viewBox="0.00 0.00 183.00 95.00" xmlns="http://www.w3.org/2000/svg" xmlns:xlink="http://www.w3.org/1999/xlink">
<g id="graph0" class="graph" transform="scale(1 1) rotate(0) translate(4 91)">
<title>sUserDataTxFifoElt_t</title>
<polygon fill="white" stroke="transparent" points="-4,4 -4,-91 179,-91 179,4 -4,4"/>
<!-- Node1 -->
<g id="node1" class="node">
<title>Node1</title>
<g id="a_node1"><a xlink:title="structure defining one element of the TX fifo">
<polygon fill="#bfbfbf" stroke="black" points="0,-0.5 0,-19.5 119,-19.5 119,-0.5 0,-0.5"/>
<text text-anchor="middle" x="59.5" y="-7.5" font-family="Helvetica,sans-Serif" font-size="10.00">sUserDataTxFifoElt_t</text>
</a>
</g>
</g>
<!-- Node1&#45;&gt;Node1 -->
<g id="edge1" class="edge">
<title>Node1&#45;&gt;Node1</title>
<path fill="none" stroke="#9a32cd" stroke-dasharray="5,2" d="M129.48,-14.31C134.16,-13.31 137,-11.88 137,-10 137,-7 129.73,-5.12 119.29,-4.38"/>
<polygon fill="#9a32cd" stroke="#9a32cd" points="128.76,-10.87 119.29,-15.62 129.66,-17.81 128.76,-10.87"/>
<text text-anchor="middle" x="156" y="-7.5" font-family="Helvetica,sans-Serif" font-size="10.00"> spNext</text>
</g>
<!-- Node2 -->
<g id="node2" class="node">
<title>Node2</title>
<g id="a_node2"><a xlink:href="../../dc/dc4/unions_user_data_attribute__t.html" target="_top" xlink:title="structure containing USERDATA attribute">
<polygon fill="white" stroke="black" points="0,-67.5 0,-86.5 119,-86.5 119,-67.5 0,-67.5"/>
<text text-anchor="middle" x="59.5" y="-74.5" font-family="Helvetica,sans-Serif" font-size="10.00">sUserDataAttribute_t</text>
</a>
</g>
</g>
<!-- Node2&#45;&gt;Node1 -->
<g id="edge2" class="edge">
<title>Node2&#45;&gt;Node1</title>
<path fill="none" stroke="#9a32cd" stroke-dasharray="5,2" d="M59.5,-57.04C59.5,-44.67 59.5,-29.12 59.5,-19.63"/>
<polygon fill="#9a32cd" stroke="#9a32cd" points="56,-57.23 59.5,-67.23 63,-57.23 56,-57.23"/>
<text text-anchor="middle" x="76.5" y="-41" font-family="Helvetica,sans-Serif" font-size="10.00"> u8Attr</text>
</g>
</g>
</svg>
