<?xml version="1.0" encoding="UTF-8" standalone="no"?>
<!DOCTYPE svg PUBLIC "-//W3C//DTD SVG 1.1//EN"
 "http://www.w3.org/Graphics/SVG/1.1/DTD/svg11.dtd">
<!-- Generated by graphviz version 2.43.0 (0)
 -->
<!-- Title: Kineis/Lib/kns_mac_prfl_cfg.h Pages: 1 -->
<svg width="134pt" height="151pt"
 viewBox="0.00 0.00 133.50 151.00" xmlns="http://www.w3.org/2000/svg" xmlns:xlink="http://www.w3.org/1999/xlink">
<g id="graph0" class="graph" transform="scale(1 1) rotate(0) translate(4 147)">
<title>Kineis/Lib/kns_mac_prfl_cfg.h</title>
<polygon fill="white" stroke="transparent" points="-4,4 -4,-147 129.5,-147 129.5,4 -4,4"/>
<!-- Node1 -->
<g id="node1" class="node">
<title>Node1</title>
<g id="a_node1"><a xlink:title="Header file describing the ser settings required to configure a MAC protocol.">
<polygon fill="#bfbfbf" stroke="black" points="0,-112.5 0,-142.5 110,-142.5 110,-112.5 0,-112.5"/>
<text text-anchor="start" x="8" y="-130.5" font-family="Helvetica,sans-Serif" font-size="10.00">Kineis/Lib/kns_mac</text>
<text text-anchor="middle" x="55" y="-119.5" font-family="Helvetica,sans-Serif" font-size="10.00">_prfl_cfg.h</text>
</a>
</g>
</g>
<!-- Node2 -->
<g id="node2" class="node">
<title>Node2</title>
<g id="a_node2"><a xlink:title=" ">
<polygon fill="white" stroke="#bfbfbf" points="28.5,-0.5 28.5,-19.5 81.5,-19.5 81.5,-0.5 28.5,-0.5"/>
<text text-anchor="middle" x="55" y="-7.5" font-family="Helvetica,sans-Serif" font-size="10.00">stdint.h</text>
</a>
</g>
</g>
<!-- Node1&#45;&gt;Node2 -->
<g id="edge1" class="edge">
<title>Node1&#45;&gt;Node2</title>
<path fill="none" stroke="midnightblue" d="M49.62,-112.24C44.91,-98.04 39.23,-75.59 42,-56 43.27,-47.04 45.89,-37.37 48.45,-29.3"/>
<polygon fill="midnightblue" stroke="midnightblue" points="51.77,-30.4 51.66,-19.8 45.14,-28.16 51.77,-30.4"/>
</g>
<!-- Node3 -->
<g id="node3" class="node">
<title>Node3</title>
<g id="a_node3"><a xlink:href="../../d8/d85/kns__types_8h.html" target="_top" xlink:title="Kineis types definition.">
<polygon fill="white" stroke="black" points="50.5,-56.5 50.5,-75.5 125.5,-75.5 125.5,-56.5 50.5,-56.5"/>
<text text-anchor="middle" x="88" y="-63.5" font-family="Helvetica,sans-Serif" font-size="10.00">kns_types.h</text>
</a>
</g>
</g>
<!-- Node1&#45;&gt;Node3 -->
<g id="edge2" class="edge">
<title>Node1&#45;&gt;Node3</title>
<path fill="none" stroke="midnightblue" d="M62.82,-112.4C67.47,-104.02 73.4,-93.33 78.34,-84.42"/>
<polygon fill="midnightblue" stroke="midnightblue" points="81.41,-86.1 83.2,-75.66 75.29,-82.71 81.41,-86.1"/>
</g>
<!-- Node3&#45;&gt;Node2 -->
<g id="edge3" class="edge">
<title>Node3&#45;&gt;Node2</title>
<path fill="none" stroke="midnightblue" d="M82.55,-56.08C77.99,-48.61 71.33,-37.72 65.71,-28.52"/>
<polygon fill="midnightblue" stroke="midnightblue" points="68.55,-26.46 60.35,-19.75 62.58,-30.11 68.55,-26.46"/>
</g>
</g>
</svg>
