<?xml version="1.0" encoding="UTF-8" standalone="no"?>
<!DOCTYPE svg PUBLIC "-//W3C//DTD SVG 1.1//EN"
 "http://www.w3.org/Graphics/SVG/1.1/DTD/svg11.dtd">
<!-- Generated by graphviz version 2.43.0 (0)
 -->
<!-- Title: build_info.h Pages: 1 -->
<svg width="341pt" height="106pt"
 viewBox="0.00 0.00 340.50 106.00" xmlns="http://www.w3.org/2000/svg" xmlns:xlink="http://www.w3.org/1999/xlink">
<g id="graph0" class="graph" transform="scale(1 1) rotate(0) translate(4 102)">
<title>build_info.h</title>
<polygon fill="white" stroke="transparent" points="-4,4 -4,-102 336.5,-102 336.5,4 -4,4"/>
<!-- Node1 -->
<g id="node1" class="node">
<title>Node1</title>
<g id="a_node1"><a xlink:title="contains references to SW version information. Corresponding builf_info.c will be generated during bu...">
<polygon fill="#bfbfbf" stroke="black" points="110.5,-78.5 110.5,-97.5 184.5,-97.5 184.5,-78.5 110.5,-78.5"/>
<text text-anchor="middle" x="147.5" y="-85.5" font-family="Helvetica,sans-Serif" font-size="10.00">build_info.h</text>
</a>
</g>
</g>
<!-- Node2 -->
<g id="node2" class="node">
<title>Node2</title>
<g id="a_node2"><a xlink:href="../../d0/d29/main_8c.html" target="_top" xlink:title=": Main program body">
<polygon fill="white" stroke="black" points="0,-11.5 0,-30.5 93,-30.5 93,-11.5 0,-11.5"/>
<text text-anchor="middle" x="46.5" y="-18.5" font-family="Helvetica,sans-Serif" font-size="10.00">Core/Src/main.c</text>
</a>
</g>
</g>
<!-- Node1&#45;&gt;Node2 -->
<g id="edge1" class="edge">
<title>Node1&#45;&gt;Node2</title>
<path fill="none" stroke="midnightblue" d="M125.39,-72.77C105.39,-59.9 76.61,-41.38 59.91,-30.63"/>
<polygon fill="midnightblue" stroke="midnightblue" points="123.58,-75.77 133.88,-78.23 127.36,-69.88 123.58,-75.77"/>
</g>
<!-- Node3 -->
<g id="node3" class="node">
<title>Node3</title>
<g id="a_node3"><a xlink:href="../../de/d89/build__info_8c.html" target="_top" xlink:title=" ">
<polygon fill="white" stroke="black" points="111,-11.5 111,-30.5 184,-30.5 184,-11.5 111,-11.5"/>
<text text-anchor="middle" x="147.5" y="-18.5" font-family="Helvetica,sans-Serif" font-size="10.00">build_info.c</text>
</a>
</g>
</g>
<!-- Node1&#45;&gt;Node3 -->
<g id="edge2" class="edge">
<title>Node1&#45;&gt;Node3</title>
<path fill="none" stroke="midnightblue" d="M147.5,-68.04C147.5,-55.67 147.5,-40.12 147.5,-30.63"/>
<polygon fill="midnightblue" stroke="midnightblue" points="144,-68.23 147.5,-78.23 151,-68.23 144,-68.23"/>
</g>
<!-- Node4 -->
<g id="node4" class="node">
<title>Node4</title>
<g id="a_node4"><a xlink:href="../../d1/dfd/mgr__at__cmd__list__general_8c.html" target="_top" xlink:title="subset of AT commands concerning general purpose (get ID, FW version, ...)">
<polygon fill="white" stroke="black" points="202.5,-0.5 202.5,-41.5 332.5,-41.5 332.5,-0.5 202.5,-0.5"/>
<text text-anchor="start" x="210.5" y="-29.5" font-family="Helvetica,sans-Serif" font-size="10.00">Kineis/App/Managers</text>
<text text-anchor="start" x="210.5" y="-18.5" font-family="Helvetica,sans-Serif" font-size="10.00">/MGR_AT_CMD/Src/mgr</text>
<text text-anchor="middle" x="267.5" y="-7.5" font-family="Helvetica,sans-Serif" font-size="10.00">_at_cmd_list_general.c</text>
</a>
</g>
</g>
<!-- Node1&#45;&gt;Node4 -->
<g id="edge3" class="edge">
<title>Node1&#45;&gt;Node4</title>
<path fill="none" stroke="midnightblue" d="M172.5,-73.46C189.55,-64.22 212.4,-51.84 231.42,-41.54"/>
<polygon fill="midnightblue" stroke="midnightblue" points="170.81,-70.39 163.68,-78.23 174.14,-76.55 170.81,-70.39"/>
</g>
</g>
</svg>
