<?xml version="1.0" encoding="UTF-8" standalone="no"?>
<!DOCTYPE svg PUBLIC "-//W3C//DTD SVG 1.1//EN"
 "http://www.w3.org/Graphics/SVG/1.1/DTD/svg11.dtd">
<!-- Generated by graphviz version 2.43.0 (0)
 -->
<!-- Title: Kineis/Extdep/MGR_LOG/Src/mgr_log.c Pages: 1 -->
<svg width="416pt" height="151pt"
 viewBox="0.00 0.00 415.50 151.00" xmlns="http://www.w3.org/2000/svg" xmlns:xlink="http://www.w3.org/1999/xlink">
<g id="graph0" class="graph" transform="scale(1 1) rotate(0) translate(4 147)">
<title>Kineis/Extdep/MGR_LOG/Src/mgr_log.c</title>
<polygon fill="white" stroke="transparent" points="-4,4 -4,-147 411.5,-147 411.5,4 -4,4"/>
<!-- Node1 -->
<g id="node1" class="node">
<title>Node1</title>
<g id="a_node1"><a xlink:title="logger main file">
<polygon fill="#bfbfbf" stroke="black" points="103.5,-112.5 103.5,-142.5 238.5,-142.5 238.5,-112.5 103.5,-112.5"/>
<text text-anchor="start" x="111.5" y="-130.5" font-family="Helvetica,sans-Serif" font-size="10.00">Kineis/Extdep/MGR_LOG</text>
<text text-anchor="middle" x="171" y="-119.5" font-family="Helvetica,sans-Serif" font-size="10.00">/Src/mgr_log.c</text>
</a>
</g>
</g>
<!-- Node2 -->
<g id="node2" class="node">
<title>Node2</title>
<g id="a_node2"><a xlink:title=" ">
<polygon fill="white" stroke="#bfbfbf" points="0,-56.5 0,-75.5 56,-75.5 56,-56.5 0,-56.5"/>
<text text-anchor="middle" x="28" y="-63.5" font-family="Helvetica,sans-Serif" font-size="10.00">stdarg.h</text>
</a>
</g>
</g>
<!-- Node1&#45;&gt;Node2 -->
<g id="edge1" class="edge">
<title>Node1&#45;&gt;Node2</title>
<path fill="none" stroke="midnightblue" d="M137.11,-112.4C113.12,-102.42 81.23,-89.15 58.12,-79.53"/>
<polygon fill="midnightblue" stroke="midnightblue" points="59.39,-76.27 48.81,-75.66 56.7,-82.73 59.39,-76.27"/>
</g>
<!-- Node3 -->
<g id="node3" class="node">
<title>Node3</title>
<g id="a_node3"><a xlink:title=" ">
<polygon fill="white" stroke="#bfbfbf" points="74.5,-56.5 74.5,-75.5 127.5,-75.5 127.5,-56.5 74.5,-56.5"/>
<text text-anchor="middle" x="101" y="-63.5" font-family="Helvetica,sans-Serif" font-size="10.00">string.h</text>
</a>
</g>
</g>
<!-- Node1&#45;&gt;Node3 -->
<g id="edge2" class="edge">
<title>Node1&#45;&gt;Node3</title>
<path fill="none" stroke="midnightblue" d="M154.41,-112.4C143.71,-103.31 129.81,-91.49 118.87,-82.19"/>
<polygon fill="midnightblue" stroke="midnightblue" points="121.07,-79.47 111.19,-75.66 116.54,-84.8 121.07,-79.47"/>
</g>
<!-- Node4 -->
<g id="node4" class="node">
<title>Node4</title>
<g id="a_node4"><a xlink:title=" ">
<polygon fill="white" stroke="#bfbfbf" points="146,-56.5 146,-75.5 196,-75.5 196,-56.5 146,-56.5"/>
<text text-anchor="middle" x="171" y="-63.5" font-family="Helvetica,sans-Serif" font-size="10.00">stdio.h</text>
</a>
</g>
</g>
<!-- Node1&#45;&gt;Node4 -->
<g id="edge3" class="edge">
<title>Node1&#45;&gt;Node4</title>
<path fill="none" stroke="midnightblue" d="M171,-112.4C171,-104.47 171,-94.46 171,-85.86"/>
<polygon fill="midnightblue" stroke="midnightblue" points="174.5,-85.66 171,-75.66 167.5,-85.66 174.5,-85.66"/>
</g>
<!-- Node5 -->
<g id="node5" class="node">
<title>Node5</title>
<g id="a_node5"><a xlink:href="../../dc/d44/mgr__log__conf_8h.html" target="_top" xlink:title="template configuration for logging manager of kineis_sw libraries">
<polygon fill="white" stroke="black" points="214.5,-56.5 214.5,-75.5 305.5,-75.5 305.5,-56.5 214.5,-56.5"/>
<text text-anchor="middle" x="260" y="-63.5" font-family="Helvetica,sans-Serif" font-size="10.00">mgr_log_conf.h</text>
</a>
</g>
</g>
<!-- Node1&#45;&gt;Node5 -->
<g id="edge4" class="edge">
<title>Node1&#45;&gt;Node5</title>
<path fill="none" stroke="midnightblue" d="M192.09,-112.4C206.09,-103.04 224.41,-90.79 238.49,-81.38"/>
<polygon fill="midnightblue" stroke="midnightblue" points="240.68,-84.13 247.05,-75.66 236.79,-78.31 240.68,-84.13"/>
</g>
<!-- Node7 -->
<g id="node7" class="node">
<title>Node7</title>
<g id="a_node7"><a xlink:href="../../d2/d2e/mgr__log_8h.html" target="_top" xlink:title="logger main header file">
<polygon fill="white" stroke="black" points="330.5,-56.5 330.5,-75.5 395.5,-75.5 395.5,-56.5 330.5,-56.5"/>
<text text-anchor="middle" x="363" y="-63.5" font-family="Helvetica,sans-Serif" font-size="10.00">mgr_log.h</text>
</a>
</g>
</g>
<!-- Node1&#45;&gt;Node7 -->
<g id="edge6" class="edge">
<title>Node1&#45;&gt;Node7</title>
<path fill="none" stroke="midnightblue" d="M216.5,-112.4C249.82,-102.07 294.49,-88.23 325.71,-78.56"/>
<polygon fill="midnightblue" stroke="midnightblue" points="326.83,-81.87 335.34,-75.57 324.75,-75.19 326.83,-81.87"/>
</g>
<!-- Node6 -->
<g id="node6" class="node">
<title>Node6</title>
<g id="a_node6"><a xlink:title=" ">
<polygon fill="white" stroke="#bfbfbf" points="206,-0.5 206,-19.5 306,-19.5 306,-0.5 206,-0.5"/>
<text text-anchor="middle" x="256" y="-7.5" font-family="Helvetica,sans-Serif" font-size="10.00">stm32wlxx_hal.h</text>
</a>
</g>
</g>
<!-- Node5&#45;&gt;Node6 -->
<g id="edge5" class="edge">
<title>Node5&#45;&gt;Node6</title>
<path fill="none" stroke="midnightblue" d="M259.34,-56.08C258.82,-49.01 258.06,-38.86 257.41,-29.99"/>
<polygon fill="midnightblue" stroke="midnightblue" points="260.88,-29.47 256.65,-19.75 253.9,-29.98 260.88,-29.47"/>
</g>
<!-- Node8 -->
<g id="node8" class="node">
<title>Node8</title>
<g id="a_node8"><a xlink:href="../../d9/d70/mgr__log__rtc_8h.html" target="_top" xlink:title=": Header for mgr_log_rtc.c file. This file contains log routine concerning RTC. Thus there is a depen...">
<polygon fill="white" stroke="black" points="324.5,-0.5 324.5,-19.5 407.5,-19.5 407.5,-0.5 324.5,-0.5"/>
<text text-anchor="middle" x="366" y="-7.5" font-family="Helvetica,sans-Serif" font-size="10.00">mgr_log_rtc.h</text>
</a>
</g>
</g>
<!-- Node7&#45;&gt;Node8 -->
<g id="edge7" class="edge">
<title>Node7&#45;&gt;Node8</title>
<path fill="none" stroke="midnightblue" d="M363.5,-56.08C363.89,-49.01 364.45,-38.86 364.95,-29.99"/>
<polygon fill="midnightblue" stroke="midnightblue" points="368.45,-29.93 365.51,-19.75 361.46,-29.54 368.45,-29.93"/>
</g>
</g>
</svg>
