<?xml version="1.0" encoding="UTF-8" standalone="no"?>
<!DOCTYPE svg PUBLIC "-//W3C//DTD SVG 1.1//EN"
 "http://www.w3.org/Graphics/SVG/1.1/DTD/svg11.dtd">
<!-- Generated by graphviz version 2.43.0 (0)
 -->
<!-- Title: Kineis/Lib/kns_mac_evt.h Pages: 1 -->
<svg width="276pt" height="207pt"
 viewBox="0.00 0.00 275.50 207.00" xmlns="http://www.w3.org/2000/svg" xmlns:xlink="http://www.w3.org/1999/xlink">
<g id="graph0" class="graph" transform="scale(1 1) rotate(0) translate(4 203)">
<title>Kineis/Lib/kns_mac_evt.h</title>
<polygon fill="white" stroke="transparent" points="-4,4 -4,-203 271.5,-203 271.5,4 -4,4"/>
<!-- Node1 -->
<g id="node1" class="node">
<title>Node1</title>
<g id="a_node1"><a xlink:title=" ">
<polygon fill="#bfbfbf" stroke="black" points="54,-168.5 54,-198.5 164,-198.5 164,-168.5 54,-168.5"/>
<text text-anchor="start" x="62" y="-186.5" font-family="Helvetica,sans-Serif" font-size="10.00">Kineis/Lib/kns_mac</text>
<text text-anchor="middle" x="109" y="-175.5" font-family="Helvetica,sans-Serif" font-size="10.00">_evt.h</text>
</a>
</g>
</g>
<!-- Node2 -->
<g id="node2" class="node">
<title>Node2</title>
<g id="a_node2"><a xlink:title=" ">
<polygon fill="white" stroke="#bfbfbf" points="0,-112.5 0,-131.5 62,-131.5 62,-112.5 0,-112.5"/>
<text text-anchor="middle" x="31" y="-119.5" font-family="Helvetica,sans-Serif" font-size="10.00">stdbool.h</text>
</a>
</g>
</g>
<!-- Node1&#45;&gt;Node2 -->
<g id="edge1" class="edge">
<title>Node1&#45;&gt;Node2</title>
<path fill="none" stroke="midnightblue" d="M90.52,-168.4C78.48,-159.22 62.8,-147.26 50.56,-137.92"/>
<polygon fill="midnightblue" stroke="midnightblue" points="52.42,-134.94 42.35,-131.66 48.18,-140.51 52.42,-134.94"/>
</g>
<!-- Node3 -->
<g id="node3" class="node">
<title>Node3</title>
<g id="a_node3"><a xlink:title=" ">
<polygon fill="white" stroke="#bfbfbf" points="129.5,-0.5 129.5,-19.5 182.5,-19.5 182.5,-0.5 129.5,-0.5"/>
<text text-anchor="middle" x="156" y="-7.5" font-family="Helvetica,sans-Serif" font-size="10.00">stdint.h</text>
</a>
</g>
</g>
<!-- Node1&#45;&gt;Node3 -->
<g id="edge2" class="edge">
<title>Node1&#45;&gt;Node3</title>
<path fill="none" stroke="midnightblue" d="M105.49,-168.12C100.31,-143.86 92.87,-93.77 109,-56 114.15,-43.95 124.28,-33.58 133.83,-25.84"/>
<polygon fill="midnightblue" stroke="midnightblue" points="136.04,-28.55 141.92,-19.74 131.83,-22.96 136.04,-28.55"/>
</g>
<!-- Node4 -->
<g id="node4" class="node">
<title>Node4</title>
<g id="a_node4"><a xlink:href="../../d8/d85/kns__types_8h.html" target="_top" xlink:title="Kineis types definition.">
<polygon fill="white" stroke="black" points="118.5,-56.5 118.5,-75.5 193.5,-75.5 193.5,-56.5 118.5,-56.5"/>
<text text-anchor="middle" x="156" y="-63.5" font-family="Helvetica,sans-Serif" font-size="10.00">kns_types.h</text>
</a>
</g>
</g>
<!-- Node1&#45;&gt;Node4 -->
<g id="edge3" class="edge">
<title>Node1&#45;&gt;Node4</title>
<path fill="none" stroke="midnightblue" d="M114.76,-168.34C123.31,-147.34 139.33,-107.96 148.69,-84.96"/>
<polygon fill="midnightblue" stroke="midnightblue" points="151.94,-86.25 152.47,-75.67 145.46,-83.61 151.94,-86.25"/>
</g>
<!-- Node5 -->
<g id="node5" class="node">
<title>Node5</title>
<g id="a_node5"><a xlink:href="../../d8/d4a/kns__mac__prfl__cfg_8h.html" target="_top" xlink:title="Header file describing the ser settings required to configure a MAC protocol.">
<polygon fill="white" stroke="black" points="156.5,-112.5 156.5,-131.5 267.5,-131.5 267.5,-112.5 156.5,-112.5"/>
<text text-anchor="middle" x="212" y="-119.5" font-family="Helvetica,sans-Serif" font-size="10.00">kns_mac_prfl_cfg.h</text>
</a>
</g>
</g>
<!-- Node1&#45;&gt;Node5 -->
<g id="edge5" class="edge">
<title>Node1&#45;&gt;Node5</title>
<path fill="none" stroke="midnightblue" d="M133.41,-168.4C149.92,-158.86 171.62,-146.32 188.04,-136.84"/>
<polygon fill="midnightblue" stroke="midnightblue" points="190.1,-139.69 197.01,-131.66 186.6,-133.63 190.1,-139.69"/>
</g>
<!-- Node4&#45;&gt;Node3 -->
<g id="edge4" class="edge">
<title>Node4&#45;&gt;Node3</title>
<path fill="none" stroke="midnightblue" d="M156,-56.08C156,-49.01 156,-38.86 156,-29.99"/>
<polygon fill="midnightblue" stroke="midnightblue" points="159.5,-29.75 156,-19.75 152.5,-29.75 159.5,-29.75"/>
</g>
<!-- Node5&#45;&gt;Node3 -->
<g id="edge6" class="edge">
<title>Node5&#45;&gt;Node3</title>
<path fill="none" stroke="midnightblue" d="M212.36,-112.48C212.54,-99.54 211.49,-74.48 202,-56 196.06,-44.44 186.01,-34.09 176.82,-26.24"/>
<polygon fill="midnightblue" stroke="midnightblue" points="178.75,-23.3 168.77,-19.77 174.37,-28.76 178.75,-23.3"/>
</g>
<!-- Node5&#45;&gt;Node4 -->
<g id="edge7" class="edge">
<title>Node5&#45;&gt;Node4</title>
<path fill="none" stroke="midnightblue" d="M203,-112.32C194.81,-104.42 182.49,-92.55 172.53,-82.94"/>
<polygon fill="midnightblue" stroke="midnightblue" points="174.79,-80.26 165.16,-75.83 169.93,-85.29 174.79,-80.26"/>
</g>
</g>
</svg>
