<?xml version="1.0" encoding="UTF-8" standalone="no"?>
<!DOCTYPE svg PUBLIC "-//W3C//DTD SVG 1.1//EN"
 "http://www.w3.org/Graphics/SVG/1.1/DTD/svg11.dtd">
<!-- Generated by graphviz version 2.43.0 (0)
 -->
<!-- Title: Core/Src/main.c Pages: 1 -->
<!--zoomable 364 -->
<svg id="main" version="1.1" xmlns="http://www.w3.org/2000/svg" xmlns:xlink="http://www.w3.org/1999/xlink" xml:space="preserve" onload="init(evt)">
<style type="text/css"><![CDATA[
.edge:hover path { stroke: red; }
.edge:hover polygon { stroke: red; fill: red; }
]]></style>
<script type="text/javascript"><![CDATA[
var edges = document.getElementsByTagName('g');
if (edges && edges.length) {
  for (var i=0;i<edges.length;i++) {
    if (edges[i].id.substr(0,4)=='edge') {
      edges[i].setAttribute('class','edge');
    }
  }
}
]]></script>
        <defs>
                <circle id="rim" cx="0" cy="0" r="7"/>
                <circle id="rim2" cx="0" cy="0" r="3.5"/>
                <g id="zoomPlus">
                        <use xlink:href="#rim" fill="#404040">
                                <set attributeName="fill" to="#808080" begin="zoomplus.mouseover" end="zoomplus.mouseout"/>
                        </use>
                        <path d="M-4,0h8M0,-4v8" fill="none" stroke="white" stroke-width="1.5" pointer-events="none"/>
                </g>
                <g id="zoomMin">
                        <use xlink:href="#rim" fill="#404040">
                                <set attributeName="fill" to="#808080" begin="zoomminus.mouseover" end="zoomminus.mouseout"/>
                        </use>
                        <path d="M-4,0h8" fill="none" stroke="white" stroke-width="1.5" pointer-events="none"/>
                </g>
                <g id="dirArrow">
                        <path fill="none" stroke="white" stroke-width="1.5" d="M0,-3.0v7 M-2.5,-0.5L0,-3.0L2.5,-0.5"/>
                </g>
               <g id="resetDef">
                       <use xlink:href="#rim2" fill="#404040">
                               <set attributeName="fill" to="#808080" begin="reset.mouseover" end="reset.mouseout"/>
                       </use>
               </g>
        </defs>

<script type="text/javascript">
var viewWidth = 1206;
var viewHeight = 364;
var sectionId = 'dynsection-0';
</script>
<script xlink:href="../../svgpan.js"/>
<svg id="graph" class="graph">
<g id="viewport">
<title>Core/Src/main.c</title>
<polygon fill="white" stroke="transparent" points="-4,4 -4,-360 1201.5,-360 1201.5,4 -4,4"/>
<!-- Node1 -->
<g id="node1" class="node">
<title>Node1</title>
<g id="a_node1"><a xlink:title=": Main program body">
<polygon fill="#bfbfbf" stroke="black" points="469.5,-336.5 469.5,-355.5 562.5,-355.5 562.5,-336.5 469.5,-336.5"/>
<text text-anchor="middle" x="516" y="-343.5" font-family="Helvetica,sans-Serif" font-size="10.00">Core/Src/main.c</text>
</a>
</g>
</g>
<!-- Node2 -->
<g id="node2" class="node">
<title>Node2</title>
<g id="a_node2"><a xlink:title=" ">
<polygon fill="white" stroke="#bfbfbf" points="0,-280.5 0,-299.5 50,-299.5 50,-280.5 0,-280.5"/>
<text text-anchor="middle" x="25" y="-287.5" font-family="Helvetica,sans-Serif" font-size="10.00">main.h</text>
</a>
</g>
</g>
<!-- Node1&#45;&gt;Node2 -->
<g id="edge1" class="edge">
<title>Node1&#45;&gt;Node2</title>
<path fill="none" stroke="midnightblue" d="M469.28,-342.88C387.97,-338.65 215.12,-327.29 60.32,-299.96"/>
<polygon fill="midnightblue" stroke="midnightblue" points="60.61,-296.46 50.15,-298.14 59.38,-303.35 60.61,-296.46"/>
</g>
<!-- Node3 -->
<g id="node3" class="node">
<title>Node3</title>
<g id="a_node3"><a xlink:title=" ">
<polygon fill="white" stroke="#bfbfbf" points="68,-280.5 68,-299.5 118,-299.5 118,-280.5 68,-280.5"/>
<text text-anchor="middle" x="93" y="-287.5" font-family="Helvetica,sans-Serif" font-size="10.00">usart.h</text>
</a>
</g>
</g>
<!-- Node1&#45;&gt;Node3 -->
<g id="edge2" class="edge">
<title>Node1&#45;&gt;Node3</title>
<path fill="none" stroke="midnightblue" d="M469.27,-341.77C397.76,-336.36 256.8,-323.82 128.18,-299.98"/>
<polygon fill="midnightblue" stroke="midnightblue" points="128.63,-296.5 118.16,-298.09 127.34,-303.38 128.63,-296.5"/>
</g>
<!-- Node4 -->
<g id="node4" class="node">
<title>Node4</title>
<g id="a_node4"><a xlink:title=" ">
<polygon fill="white" stroke="#bfbfbf" points="136,-280.5 136,-299.5 174,-299.5 174,-280.5 136,-280.5"/>
<text text-anchor="middle" x="155" y="-287.5" font-family="Helvetica,sans-Serif" font-size="10.00">rtc.h</text>
</a>
</g>
</g>
<!-- Node1&#45;&gt;Node4 -->
<g id="edge3" class="edge">
<title>Node1&#45;&gt;Node4</title>
<path fill="none" stroke="midnightblue" d="M469.48,-341.33C406.65,-335.79 291.12,-323.6 184.15,-299.9"/>
<polygon fill="midnightblue" stroke="midnightblue" points="184.68,-296.44 174.16,-297.65 183.14,-303.26 184.68,-296.44"/>
</g>
<!-- Node5 -->
<g id="node5" class="node">
<title>Node5</title>
<g id="a_node5"><a xlink:title=" ">
<polygon fill="white" stroke="#bfbfbf" points="192,-280.5 192,-299.5 252,-299.5 252,-280.5 192,-280.5"/>
<text text-anchor="middle" x="222" y="-287.5" font-family="Helvetica,sans-Serif" font-size="10.00">subghz.h</text>
</a>
</g>
</g>
<!-- Node1&#45;&gt;Node5 -->
<g id="edge4" class="edge">
<title>Node1&#45;&gt;Node5</title>
<path fill="none" stroke="midnightblue" d="M469.33,-337.51C420.19,-329.47 340.35,-315.91 262.21,-300.17"/>
<polygon fill="midnightblue" stroke="midnightblue" points="262.7,-296.69 252.2,-298.13 261.3,-303.55 262.7,-296.69"/>
</g>
<!-- Node6 -->
<g id="node6" class="node">
<title>Node6</title>
<g id="a_node6"><a xlink:title=" ">
<polygon fill="white" stroke="#bfbfbf" points="270,-280.5 270,-299.5 312,-299.5 312,-280.5 270,-280.5"/>
<text text-anchor="middle" x="291" y="-287.5" font-family="Helvetica,sans-Serif" font-size="10.00">tim.h</text>
</a>
</g>
</g>
<!-- Node1&#45;&gt;Node6 -->
<g id="edge5" class="edge">
<title>Node1&#45;&gt;Node6</title>
<path fill="none" stroke="midnightblue" d="M475.48,-336.45C437.99,-328.36 380.52,-315.51 322.03,-300.15"/>
<polygon fill="midnightblue" stroke="midnightblue" points="322.82,-296.74 312.26,-297.56 321.03,-303.51 322.82,-296.74"/>
</g>
<!-- Node7 -->
<g id="node7" class="node">
<title>Node7</title>
<g id="a_node7"><a xlink:title=" ">
<polygon fill="white" stroke="#bfbfbf" points="330.5,-280.5 330.5,-299.5 377.5,-299.5 377.5,-280.5 330.5,-280.5"/>
<text text-anchor="middle" x="354" y="-287.5" font-family="Helvetica,sans-Serif" font-size="10.00">gpio.h</text>
</a>
</g>
</g>
<!-- Node1&#45;&gt;Node7 -->
<g id="edge6" class="edge">
<title>Node1&#45;&gt;Node7</title>
<path fill="none" stroke="midnightblue" d="M490.33,-336.44C462.52,-327.17 418.03,-312.34 387.48,-302.16"/>
<polygon fill="midnightblue" stroke="midnightblue" points="388.3,-298.74 377.7,-298.9 386.08,-305.38 388.3,-298.74"/>
</g>
<!-- Node8 -->
<g id="node8" class="node">
<title>Node8</title>
<g id="a_node8"><a xlink:title=" ">
<polygon fill="white" stroke="#bfbfbf" points="396,-280.5 396,-299.5 488,-299.5 488,-280.5 396,-280.5"/>
<text text-anchor="middle" x="442" y="-287.5" font-family="Helvetica,sans-Serif" font-size="10.00">stm32wlxx_it.h</text>
</a>
</g>
</g>
<!-- Node1&#45;&gt;Node8 -->
<g id="edge7" class="edge">
<title>Node1&#45;&gt;Node8</title>
<path fill="none" stroke="midnightblue" d="M504.11,-336.32C492.85,-328.11 475.71,-315.6 462.29,-305.81"/>
<polygon fill="midnightblue" stroke="midnightblue" points="464.25,-302.9 454.11,-299.83 460.12,-308.56 464.25,-302.9"/>
</g>
<!-- Node9 -->
<g id="node9" class="node">
<title>Node9</title>
<g id="a_node9"><a xlink:href="../../d0/dc7/build__info_8h.html" target="_top" xlink:title="contains references to SW version information. Corresponding builf_info.c will be generated during bu...">
<polygon fill="white" stroke="black" points="273,-168.5 273,-187.5 347,-187.5 347,-168.5 273,-168.5"/>
<text text-anchor="middle" x="310" y="-175.5" font-family="Helvetica,sans-Serif" font-size="10.00">build_info.h</text>
</a>
</g>
</g>
<!-- Node1&#45;&gt;Node9 -->
<g id="edge8" class="edge">
<title>Node1&#45;&gt;Node9</title>
<path fill="none" stroke="midnightblue" d="M516.01,-336.05C515.53,-322.07 512.49,-295.1 497,-280 452.22,-236.36 413.23,-278.38 361,-244 342.72,-231.97 328.11,-211.19 319.29,-196.36"/>
<polygon fill="midnightblue" stroke="midnightblue" points="322.33,-194.61 314.36,-187.63 316.23,-198.06 322.33,-194.61"/>
</g>
<!-- Node12 -->
<g id="node12" class="node">
<title>Node12</title>
<g id="a_node12"><a xlink:href="../../d0/d84/kns__q_8h.html" target="_top" xlink:title="Configuration of queues used in kineis_swr.">
<polygon fill="white" stroke="black" points="544,-280.5 544,-299.5 598,-299.5 598,-280.5 544,-280.5"/>
<text text-anchor="middle" x="571" y="-287.5" font-family="Helvetica,sans-Serif" font-size="10.00">kns_q.h</text>
</a>
</g>
</g>
<!-- Node1&#45;&gt;Node12 -->
<g id="edge11" class="edge">
<title>Node1&#45;&gt;Node12</title>
<path fill="none" stroke="midnightblue" d="M525.08,-336.08C533.17,-328.14 545.2,-316.34 554.91,-306.8"/>
<polygon fill="midnightblue" stroke="midnightblue" points="557.4,-309.25 562.09,-299.75 552.5,-304.26 557.4,-309.25"/>
</g>
<!-- Node18 -->
<g id="node18" class="node">
<title>Node18</title>
<g id="a_node18"><a xlink:href="../../d2/de2/kns__os_8h.html" target="_top" xlink:title="Minimalist baremetal OS to be used with Kineissoftware stack.">
<polygon fill="white" stroke="black" points="923.5,-168.5 923.5,-187.5 982.5,-187.5 982.5,-168.5 923.5,-168.5"/>
<text text-anchor="middle" x="953" y="-175.5" font-family="Helvetica,sans-Serif" font-size="10.00">kns_os.h</text>
</a>
</g>
</g>
<!-- Node1&#45;&gt;Node18 -->
<g id="edge30" class="edge">
<title>Node1&#45;&gt;Node18</title>
<path fill="none" stroke="midnightblue" d="M548.44,-336.45C579.25,-328.07 626.71,-314.48 667,-300 763.56,-265.31 874.61,-215.32 925.25,-191.96"/>
<polygon fill="midnightblue" stroke="midnightblue" points="926.94,-195.03 934.54,-187.65 924,-188.68 926.94,-195.03"/>
</g>
<!-- Node20 -->
<g id="node20" class="node">
<title>Node20</title>
<g id="a_node20"><a xlink:href="../../d4/dbe/mcu__tim_8h.html" target="_top" xlink:title="MCU wrappers for timer or non&#45;blocking delays used by Kineis stack.">
<polygon fill="white" stroke="black" points="1082,-112.5 1082,-131.5 1150,-131.5 1150,-112.5 1082,-112.5"/>
<text text-anchor="middle" x="1116" y="-119.5" font-family="Helvetica,sans-Serif" font-size="10.00">mcu_tim.h</text>
</a>
</g>
</g>
<!-- Node1&#45;&gt;Node20 -->
<g id="edge35" class="edge">
<title>Node1&#45;&gt;Node20</title>
<path fill="none" stroke="midnightblue" d="M560.1,-336.48C599.12,-328.5 657.41,-315.5 707,-300 836.9,-259.4 868.22,-244.56 992,-188 1027.52,-171.77 1067.3,-150.31 1092,-136.57"/>
<polygon fill="midnightblue" stroke="midnightblue" points="1093.97,-139.48 1100.99,-131.54 1090.56,-133.37 1093.97,-139.48"/>
</g>
<!-- Node21 -->
<g id="node21" class="node">
<title>Node21</title>
<g id="a_node21"><a xlink:href="../../d7/d1a/kns__mac_8h.html" target="_top" xlink:title="Main header file for MAC layer of Kineis stack.">
<polygon fill="white" stroke="black" points="713.5,-224.5 713.5,-243.5 782.5,-243.5 782.5,-224.5 713.5,-224.5"/>
<text text-anchor="middle" x="748" y="-231.5" font-family="Helvetica,sans-Serif" font-size="10.00">kns_mac.h</text>
</a>
</g>
</g>
<!-- Node1&#45;&gt;Node21 -->
<g id="edge38" class="edge">
<title>Node1&#45;&gt;Node21</title>
<path fill="none" stroke="midnightblue" d="M541.56,-336.4C565.57,-328.03 602.3,-314.49 633,-300 666.18,-284.35 702.79,-262.88 725.6,-248.97"/>
<polygon fill="midnightblue" stroke="midnightblue" points="727.5,-251.91 734.19,-243.69 723.84,-245.94 727.5,-251.91"/>
</g>
<!-- Node22 -->
<g id="node22" class="node">
<title>Node22</title>
<g id="a_node22"><a xlink:href="../../d2/d0e/kns__app_8h.html" target="_top" xlink:title="provide main application softwares using kineis sw satck">
<polygon fill="white" stroke="black" points="1039,-280.5 1039,-299.5 1105,-299.5 1105,-280.5 1039,-280.5"/>
<text text-anchor="middle" x="1072" y="-287.5" font-family="Helvetica,sans-Serif" font-size="10.00">kns_app.h</text>
</a>
</g>
</g>
<!-- Node1&#45;&gt;Node22 -->
<g id="edge41" class="edge">
<title>Node1&#45;&gt;Node22</title>
<path fill="none" stroke="midnightblue" d="M562.85,-342.45C652.76,-337.19 855.65,-323.64 1025,-300 1026.27,-299.82 1027.56,-299.63 1028.86,-299.43"/>
<polygon fill="midnightblue" stroke="midnightblue" points="1029.65,-302.85 1038.95,-297.76 1028.51,-295.95 1029.65,-302.85"/>
</g>
<!-- Node23 -->
<g id="node23" class="node">
<title>Node23</title>
<g id="a_node23"><a xlink:href="../../df/db7/lpm_8h.html" target="_top" xlink:title="This file contains some utilities and functions needed for a correct handling of LPM on the STM32WL55...">
<polygon fill="white" stroke="black" points="651,-224.5 651,-243.5 695,-243.5 695,-224.5 651,-224.5"/>
<text text-anchor="middle" x="673" y="-231.5" font-family="Helvetica,sans-Serif" font-size="10.00">lpm.h</text>
</a>
</g>
</g>
<!-- Node1&#45;&gt;Node23 -->
<g id="edge42" class="edge">
<title>Node1&#45;&gt;Node23</title>
<path fill="none" stroke="midnightblue" d="M538.05,-336.44C557.18,-328.48 585.17,-315.53 607,-300 626.75,-285.95 646.12,-265.91 658.71,-251.81"/>
<polygon fill="midnightblue" stroke="midnightblue" points="661.68,-253.73 665.62,-243.9 656.41,-249.13 661.68,-253.73"/>
</g>
<!-- Node25 -->
<g id="node25" class="node">
<title>Node25</title>
<g id="a_node25"><a xlink:href="../../d2/d2e/mgr__log_8h.html" target="_top" xlink:title="logger main header file">
<polygon fill="white" stroke="black" points="1123.5,-280.5 1123.5,-299.5 1188.5,-299.5 1188.5,-280.5 1123.5,-280.5"/>
<text text-anchor="middle" x="1156" y="-287.5" font-family="Helvetica,sans-Serif" font-size="10.00">mgr_log.h</text>
</a>
</g>
</g>
<!-- Node1&#45;&gt;Node25 -->
<g id="edge48" class="edge">
<title>Node1&#45;&gt;Node25</title>
<path fill="none" stroke="midnightblue" d="M562.76,-343.64C662.24,-340.29 902.31,-329.74 1113.05,-299.93"/>
<polygon fill="midnightblue" stroke="midnightblue" points="1113.66,-303.38 1123.06,-298.5 1112.67,-296.45 1113.66,-303.38"/>
</g>
<!-- Node10 -->
<g id="node10" class="node">
<title>Node10</title>
<g id="a_node10"><a xlink:title=" ">
<polygon fill="white" stroke="#bfbfbf" points="540,-112.5 540,-131.5 602,-131.5 602,-112.5 540,-112.5"/>
<text text-anchor="middle" x="571" y="-119.5" font-family="Helvetica,sans-Serif" font-size="10.00">stdbool.h</text>
</a>
</g>
</g>
<!-- Node9&#45;&gt;Node10 -->
<g id="edge9" class="edge">
<title>Node9&#45;&gt;Node10</title>
<path fill="none" stroke="midnightblue" d="M347.12,-169.32C395.44,-159.32 479.63,-141.9 529.86,-131.51"/>
<polygon fill="midnightblue" stroke="midnightblue" points="530.65,-134.92 539.73,-129.47 529.23,-128.07 530.65,-134.92"/>
</g>
<!-- Node11 -->
<g id="node11" class="node">
<title>Node11</title>
<g id="a_node11"><a xlink:title=" ">
<polygon fill="white" stroke="#bfbfbf" points="638.5,-0.5 638.5,-19.5 691.5,-19.5 691.5,-0.5 638.5,-0.5"/>
<text text-anchor="middle" x="665" y="-7.5" font-family="Helvetica,sans-Serif" font-size="10.00">stdint.h</text>
</a>
</g>
</g>
<!-- Node9&#45;&gt;Node11 -->
<g id="edge10" class="edge">
<title>Node9&#45;&gt;Node11</title>
<path fill="none" stroke="midnightblue" d="M313.62,-168.18C323.5,-145.36 353.26,-84.17 399,-56 436.77,-32.73 564.32,-19.26 628.08,-13.82"/>
<polygon fill="midnightblue" stroke="midnightblue" points="628.43,-17.31 638.11,-12.99 627.85,-10.33 628.43,-17.31"/>
</g>
<!-- Node12&#45;&gt;Node10 -->
<g id="edge12" class="edge">
<title>Node12&#45;&gt;Node10</title>
<path fill="none" stroke="midnightblue" d="M580.02,-280.34C588.07,-271.93 599.3,-258.36 604,-244 615.91,-207.61 595.88,-164.11 582.18,-140.44"/>
<polygon fill="midnightblue" stroke="midnightblue" points="584.98,-138.33 576.8,-131.6 579,-141.96 584.98,-138.33"/>
</g>
<!-- Node12&#45;&gt;Node11 -->
<g id="edge13" class="edge">
<title>Node12&#45;&gt;Node11</title>
<path fill="none" stroke="midnightblue" d="M543.82,-284.21C475.16,-271.51 297.8,-234.7 264,-188 258.79,-180.8 260.69,-176.25 264,-168 289.62,-104.1 309.94,-87.79 371,-56 415.13,-33.02 559.39,-19.14 628.05,-13.68"/>
<polygon fill="midnightblue" stroke="midnightblue" points="628.69,-17.14 638.39,-12.88 628.15,-10.16 628.69,-17.14"/>
</g>
<!-- Node13 -->
<g id="node13" class="node">
<title>Node13</title>
<g id="a_node13"><a xlink:href="../../d8/d85/kns__types_8h.html" target="_top" xlink:title="Kineis types definition.">
<polygon fill="white" stroke="black" points="663.5,-56.5 663.5,-75.5 738.5,-75.5 738.5,-56.5 663.5,-56.5"/>
<text text-anchor="middle" x="701" y="-63.5" font-family="Helvetica,sans-Serif" font-size="10.00">kns_types.h</text>
</a>
</g>
</g>
<!-- Node12&#45;&gt;Node13 -->
<g id="edge14" class="edge">
<title>Node12&#45;&gt;Node13</title>
<path fill="none" stroke="midnightblue" d="M544.37,-280.46C496.57,-263.56 403.72,-222.71 432,-168 472.88,-88.92 587.48,-71.01 653.16,-67.42"/>
<polygon fill="midnightblue" stroke="midnightblue" points="653.43,-70.91 663.26,-66.96 653.11,-63.92 653.43,-70.91"/>
</g>
<!-- Node14 -->
<g id="node14" class="node">
<title>Node14</title>
<g id="a_node14"><a xlink:href="../../d8/dd1/kns__q__conf_8h.html" target="_top" xlink:title="Configuration of queues used in kineis_sw.">
<polygon fill="white" stroke="black" points="515,-224.5 515,-243.5 595,-243.5 595,-224.5 515,-224.5"/>
<text text-anchor="middle" x="555" y="-231.5" font-family="Helvetica,sans-Serif" font-size="10.00">kns_q_conf.h</text>
</a>
</g>
</g>
<!-- Node12&#45;&gt;Node14 -->
<g id="edge16" class="edge">
<title>Node12&#45;&gt;Node14</title>
<path fill="none" stroke="midnightblue" d="M568.36,-280.08C566.21,-272.85 563.12,-262.41 560.45,-253.4"/>
<polygon fill="midnightblue" stroke="midnightblue" points="563.79,-252.34 557.59,-243.75 557.08,-254.33 563.79,-252.34"/>
</g>
<!-- Node13&#45;&gt;Node11 -->
<g id="edge15" class="edge">
<title>Node13&#45;&gt;Node11</title>
<path fill="none" stroke="midnightblue" d="M695.06,-56.08C690.02,-48.53 682.66,-37.49 676.49,-28.23"/>
<polygon fill="midnightblue" stroke="midnightblue" points="679.29,-26.13 670.83,-19.75 673.47,-30.01 679.29,-26.13"/>
</g>
<!-- Node14&#45;&gt;Node10 -->
<g id="edge17" class="edge">
<title>Node14&#45;&gt;Node10</title>
<path fill="none" stroke="midnightblue" d="M557.53,-224.46C560.09,-215.47 563.95,-200.87 566,-188 568.46,-172.61 569.72,-154.98 570.36,-141.96"/>
<polygon fill="midnightblue" stroke="midnightblue" points="573.86,-142.02 570.77,-131.88 566.86,-141.73 573.86,-142.02"/>
</g>
<!-- Node14&#45;&gt;Node11 -->
<g id="edge18" class="edge">
<title>Node14&#45;&gt;Node11</title>
<path fill="none" stroke="midnightblue" d="M514.86,-228.38C473.45,-221.55 416.86,-205.26 432,-168 458.15,-103.65 482.65,-93.69 541,-56 568,-38.56 602.67,-26.71 628.48,-19.57"/>
<polygon fill="midnightblue" stroke="midnightblue" points="629.49,-22.93 638.26,-16.98 627.69,-16.16 629.49,-22.93"/>
</g>
<!-- Node15 -->
<g id="node15" class="node">
<title>Node15</title>
<g id="a_node15"><a xlink:href="../../df/d64/kns__mac__evt_8h.html" target="_top" xlink:title=" ">
<polygon fill="white" stroke="black" points="689,-168.5 689,-187.5 779,-187.5 779,-168.5 689,-168.5"/>
<text text-anchor="middle" x="734" y="-175.5" font-family="Helvetica,sans-Serif" font-size="10.00">kns_mac_evt.h</text>
</a>
</g>
</g>
<!-- Node14&#45;&gt;Node15 -->
<g id="edge19" class="edge">
<title>Node14&#45;&gt;Node15</title>
<path fill="none" stroke="midnightblue" d="M583.36,-224.44C613.74,-215.28 662.11,-200.69 695.82,-190.52"/>
<polygon fill="midnightblue" stroke="midnightblue" points="697.21,-193.76 705.77,-187.52 695.18,-187.05 697.21,-193.76"/>
</g>
<!-- Node17 -->
<g id="node17" class="node">
<title>Node17</title>
<g id="a_node17"><a xlink:href="../../d7/d8a/kns__srvc__common_8h.html" target="_top" xlink:title="Common part of Kinéis service layer.">
<polygon fill="white" stroke="black" points="441,-168.5 441,-187.5 557,-187.5 557,-168.5 441,-168.5"/>
<text text-anchor="middle" x="499" y="-175.5" font-family="Helvetica,sans-Serif" font-size="10.00">kns_srvc_common.h</text>
</a>
</g>
</g>
<!-- Node14&#45;&gt;Node17 -->
<g id="edge26" class="edge">
<title>Node14&#45;&gt;Node17</title>
<path fill="none" stroke="midnightblue" d="M546,-224.32C537.81,-216.42 525.49,-204.55 515.53,-194.94"/>
<polygon fill="midnightblue" stroke="midnightblue" points="517.79,-192.26 508.16,-187.83 512.93,-197.29 517.79,-192.26"/>
</g>
<!-- Node15&#45;&gt;Node10 -->
<g id="edge20" class="edge">
<title>Node15&#45;&gt;Node10</title>
<path fill="none" stroke="midnightblue" d="M708.17,-168.44C680.75,-159.36 637.22,-144.94 606.57,-134.78"/>
<polygon fill="midnightblue" stroke="midnightblue" points="607.3,-131.34 596.71,-131.52 605.1,-137.98 607.3,-131.34"/>
</g>
<!-- Node15&#45;&gt;Node11 -->
<g id="edge21" class="edge">
<title>Node15&#45;&gt;Node11</title>
<path fill="none" stroke="midnightblue" d="M722.51,-168.25C711.9,-159.77 696.14,-146.16 685,-132 667.41,-109.64 661.12,-103.54 654,-76 649.97,-60.42 653.69,-42.34 657.86,-29.21"/>
<polygon fill="midnightblue" stroke="midnightblue" points="661.25,-30.11 661.3,-19.51 654.66,-27.76 661.25,-30.11"/>
</g>
<!-- Node15&#45;&gt;Node13 -->
<g id="edge22" class="edge">
<title>Node15&#45;&gt;Node13</title>
<path fill="none" stroke="midnightblue" d="M721.79,-168.24C711.65,-160.14 697.96,-147.11 692,-132 686.07,-116.95 689.49,-98.59 693.71,-85.23"/>
<polygon fill="midnightblue" stroke="midnightblue" points="697.03,-86.34 697.1,-75.74 690.44,-83.98 697.03,-86.34"/>
</g>
<!-- Node16 -->
<g id="node16" class="node">
<title>Node16</title>
<g id="a_node16"><a xlink:href="../../d8/d4a/kns__mac__prfl__cfg_8h.html" target="_top" xlink:title="Header file describing the ser settings required to configure a MAC protocol.">
<polygon fill="white" stroke="black" points="734.5,-112.5 734.5,-131.5 845.5,-131.5 845.5,-112.5 734.5,-112.5"/>
<text text-anchor="middle" x="790" y="-119.5" font-family="Helvetica,sans-Serif" font-size="10.00">kns_mac_prfl_cfg.h</text>
</a>
</g>
</g>
<!-- Node15&#45;&gt;Node16 -->
<g id="edge23" class="edge">
<title>Node15&#45;&gt;Node16</title>
<path fill="none" stroke="midnightblue" d="M743,-168.32C751.19,-160.42 763.51,-148.55 773.47,-138.94"/>
<polygon fill="midnightblue" stroke="midnightblue" points="776.07,-141.29 780.84,-131.83 771.21,-136.26 776.07,-141.29"/>
</g>
<!-- Node16&#45;&gt;Node11 -->
<g id="edge24" class="edge">
<title>Node16&#45;&gt;Node11</title>
<path fill="none" stroke="midnightblue" d="M786.06,-112.47C779.52,-99.06 765.32,-72.86 747,-56 732.22,-42.39 712.57,-31.43 696.22,-23.73"/>
<polygon fill="midnightblue" stroke="midnightblue" points="697.58,-20.5 687.03,-19.58 694.7,-26.88 697.58,-20.5"/>
</g>
<!-- Node16&#45;&gt;Node13 -->
<g id="edge25" class="edge">
<title>Node16&#45;&gt;Node13</title>
<path fill="none" stroke="midnightblue" d="M775.7,-112.32C761.82,-103.9 740.51,-90.97 724.2,-81.07"/>
<polygon fill="midnightblue" stroke="midnightblue" points="725.63,-77.85 715.26,-75.65 722,-83.83 725.63,-77.85"/>
</g>
<!-- Node17&#45;&gt;Node10 -->
<g id="edge27" class="edge">
<title>Node17&#45;&gt;Node10</title>
<path fill="none" stroke="midnightblue" d="M510.57,-168.32C521.42,-160.18 537.88,-147.84 550.88,-138.09"/>
<polygon fill="midnightblue" stroke="midnightblue" points="553.32,-140.63 559.22,-131.83 549.12,-135.03 553.32,-140.63"/>
</g>
<!-- Node17&#45;&gt;Node11 -->
<g id="edge28" class="edge">
<title>Node17&#45;&gt;Node11</title>
<path fill="none" stroke="midnightblue" d="M498.53,-168.21C498.25,-154.91 499.44,-129.4 511,-112 540.27,-67.94 596.03,-38.65 631.81,-23.43"/>
<polygon fill="midnightblue" stroke="midnightblue" points="633.42,-26.56 641.34,-19.52 630.76,-20.08 633.42,-26.56"/>
</g>
<!-- Node17&#45;&gt;Node13 -->
<g id="edge29" class="edge">
<title>Node17&#45;&gt;Node13</title>
<path fill="none" stroke="midnightblue" d="M500.81,-168.4C504.21,-154.42 512.9,-126.82 531,-112 565.55,-83.71 616.11,-73.06 653.11,-69.12"/>
<polygon fill="midnightblue" stroke="midnightblue" points="653.53,-72.6 663.16,-68.18 652.87,-65.63 653.53,-72.6"/>
</g>
<!-- Node18&#45;&gt;Node10 -->
<g id="edge31" class="edge">
<title>Node18&#45;&gt;Node10</title>
<path fill="none" stroke="midnightblue" d="M923.34,-172.81C855.79,-163.26 690.31,-139.87 612.6,-128.88"/>
<polygon fill="midnightblue" stroke="midnightblue" points="612.62,-125.35 602.23,-127.42 611.64,-132.28 612.62,-125.35"/>
</g>
<!-- Node18&#45;&gt;Node11 -->
<g id="edge32" class="edge">
<title>Node18&#45;&gt;Node11</title>
<path fill="none" stroke="midnightblue" d="M980.35,-168.43C1010.93,-157.4 1053.85,-136.69 1035,-112 994.12,-58.47 786.77,-26.47 701.6,-15.4"/>
<polygon fill="midnightblue" stroke="midnightblue" points="701.96,-11.92 691.6,-14.12 701.08,-18.86 701.96,-11.92"/>
</g>
<!-- Node18&#45;&gt;Node13 -->
<g id="edge33" class="edge">
<title>Node18&#45;&gt;Node13</title>
<path fill="none" stroke="midnightblue" d="M942.34,-168.46C924.85,-154.81 888.52,-127.98 854,-112 820.14,-96.33 779.53,-84.68 748.66,-77.17"/>
<polygon fill="midnightblue" stroke="midnightblue" points="749.12,-73.69 738.59,-74.78 747.51,-80.5 749.12,-73.69"/>
</g>
<!-- Node19 -->
<g id="node19" class="node">
<title>Node19</title>
<g id="a_node19"><a xlink:href="../../d6/d73/kns__os__conf_8h.html" target="_top" xlink:title="Configuration of task used with/in kineis_sw.">
<polygon fill="white" stroke="black" points="940.5,-112.5 940.5,-131.5 1025.5,-131.5 1025.5,-112.5 940.5,-112.5"/>
<text text-anchor="middle" x="983" y="-119.5" font-family="Helvetica,sans-Serif" font-size="10.00">kns_os_conf.h</text>
</a>
</g>
</g>
<!-- Node18&#45;&gt;Node19 -->
<g id="edge34" class="edge">
<title>Node18&#45;&gt;Node19</title>
<path fill="none" stroke="midnightblue" d="M957.95,-168.08C962.1,-160.61 968.15,-149.72 973.27,-140.52"/>
<polygon fill="midnightblue" stroke="midnightblue" points="976.34,-142.19 978.14,-131.75 970.22,-138.79 976.34,-142.19"/>
</g>
<!-- Node20&#45;&gt;Node11 -->
<g id="edge36" class="edge">
<title>Node20&#45;&gt;Node11</title>
<path fill="none" stroke="midnightblue" d="M1112.48,-112.47C1106.02,-98.05 1090.85,-69.17 1068,-56 1006.16,-20.35 789.41,-12.94 701.98,-11.4"/>
<polygon fill="midnightblue" stroke="midnightblue" points="701.79,-7.9 691.73,-11.24 701.68,-14.9 701.79,-7.9"/>
</g>
<!-- Node20&#45;&gt;Node13 -->
<g id="edge37" class="edge">
<title>Node20&#45;&gt;Node13</title>
<path fill="none" stroke="midnightblue" d="M1081.69,-116.54C1007.77,-106.92 833.37,-84.22 748.73,-73.21"/>
<polygon fill="midnightblue" stroke="midnightblue" points="748.99,-69.72 738.62,-71.9 748.09,-76.66 748.99,-69.72"/>
</g>
<!-- Node21&#45;&gt;Node15 -->
<g id="edge39" class="edge">
<title>Node21&#45;&gt;Node15</title>
<path fill="none" stroke="midnightblue" d="M745.69,-224.08C743.83,-216.93 741.16,-206.64 738.85,-197.69"/>
<polygon fill="midnightblue" stroke="midnightblue" points="742.17,-196.55 736.27,-187.75 735.39,-198.31 742.17,-196.55"/>
</g>
<!-- Node21&#45;&gt;Node16 -->
<g id="edge40" class="edge">
<title>Node21&#45;&gt;Node16</title>
<path fill="none" stroke="midnightblue" d="M782.52,-231.27C812.48,-227.73 854.21,-217.42 875,-188 891.35,-164.86 858.06,-146.23 828.47,-134.94"/>
<polygon fill="midnightblue" stroke="midnightblue" points="829.65,-131.64 819.06,-131.53 827.27,-138.23 829.65,-131.64"/>
</g>
<!-- Node23&#45;&gt;Node10 -->
<g id="edge43" class="edge">
<title>Node23&#45;&gt;Node10</title>
<path fill="none" stroke="midnightblue" d="M669.68,-224.2C664.34,-210.88 652.81,-185.35 637,-168 625.57,-155.46 610,-144.63 596.85,-136.74"/>
<polygon fill="midnightblue" stroke="midnightblue" points="598.21,-133.49 587.8,-131.53 594.72,-139.55 598.21,-133.49"/>
</g>
<!-- Node24 -->
<g id="node24" class="node">
<title>Node24</title>
<g id="a_node24"><a xlink:href="../../df/d63/mgr__lpm_8h.html" target="_top" xlink:title="low power mode manager is in charge to collect all low power needs from &#39;clients&#39; and setup the corre...">
<polygon fill="white" stroke="black" points="797.5,-168.5 797.5,-187.5 866.5,-187.5 866.5,-168.5 797.5,-168.5"/>
<text text-anchor="middle" x="832" y="-175.5" font-family="Helvetica,sans-Serif" font-size="10.00">mgr_lpm.h</text>
</a>
</g>
</g>
<!-- Node23&#45;&gt;Node24 -->
<g id="edge44" class="edge">
<title>Node23&#45;&gt;Node24</title>
<path fill="none" stroke="midnightblue" d="M695.11,-225.49C721.6,-216.5 766.28,-201.32 797.36,-190.76"/>
<polygon fill="midnightblue" stroke="midnightblue" points="798.59,-194.04 806.94,-187.51 796.34,-187.41 798.59,-194.04"/>
</g>
<!-- Node24&#45;&gt;Node10 -->
<g id="edge45" class="edge">
<title>Node24&#45;&gt;Node10</title>
<path fill="none" stroke="midnightblue" d="M797.34,-169.83C749.47,-159.93 663.26,-142.09 612.17,-131.52"/>
<polygon fill="midnightblue" stroke="midnightblue" points="612.63,-128.04 602.13,-129.44 611.21,-134.89 612.63,-128.04"/>
</g>
<!-- Node24&#45;&gt;Node11 -->
<g id="edge46" class="edge">
<title>Node24&#45;&gt;Node11</title>
<path fill="none" stroke="midnightblue" d="M839.34,-168.21C849.13,-155.36 864.12,-130.91 854,-112 823.48,-54.97 747.25,-28.82 701.47,-17.91"/>
<polygon fill="midnightblue" stroke="midnightblue" points="702.16,-14.48 691.63,-15.69 700.62,-21.31 702.16,-14.48"/>
</g>
<!-- Node24&#45;&gt;Node13 -->
<g id="edge47" class="edge">
<title>Node24&#45;&gt;Node13</title>
<path fill="none" stroke="midnightblue" d="M797.26,-170.01C774.03,-163.69 744.29,-152.17 725,-132 712.93,-119.38 706.83,-100.17 703.81,-85.9"/>
<polygon fill="midnightblue" stroke="midnightblue" points="707.2,-84.97 702,-75.74 700.31,-86.2 707.2,-84.97"/>
</g>
<!-- Node26 -->
<g id="node26" class="node">
<title>Node26</title>
<g id="a_node26"><a xlink:href="../../d9/d70/mgr__log__rtc_8h.html" target="_top" xlink:title=": Header for mgr_log_rtc.c file. This file contains log routine concerning RTC. Thus there is a depen...">
<polygon fill="white" stroke="black" points="1114.5,-224.5 1114.5,-243.5 1197.5,-243.5 1197.5,-224.5 1114.5,-224.5"/>
<text text-anchor="middle" x="1156" y="-231.5" font-family="Helvetica,sans-Serif" font-size="10.00">mgr_log_rtc.h</text>
</a>
</g>
</g>
<!-- Node25&#45;&gt;Node26 -->
<g id="edge49" class="edge">
<title>Node25&#45;&gt;Node26</title>
<path fill="none" stroke="midnightblue" d="M1156,-280.08C1156,-273.01 1156,-262.86 1156,-253.99"/>
<polygon fill="midnightblue" stroke="midnightblue" points="1159.5,-253.75 1156,-243.75 1152.5,-253.75 1159.5,-253.75"/>
</g>
</g>
</svg>
        <g id="navigator" transform="translate(0 0)" fill="#404254">
                <rect fill="#f2f5e9" fill-opacity="0.5" stroke="#606060" stroke-width=".5" x="0" y="0" width="60" height="60"/>
                <use id="zoomplus" xlink:href="#zoomPlus" x="17" y="9" onmousedown="handleZoom(evt,'in')"/>
                <use id="zoomminus" xlink:href="#zoomMin" x="42" y="9" onmousedown="handleZoom(evt,'out')"/>
                <use id="reset" xlink:href="#resetDef" x="30" y="36" onmousedown="handleReset()"/>
                <g id="arrowUp" xlink:href="#dirArrow" transform="translate(30 24)" onmousedown="handlePan(0,-1)">
                  <use xlink:href="#rim" fill="#404040">
                        <set attributeName="fill" to="#808080" begin="arrowUp.mouseover" end="arrowUp.mouseout"/>
                  </use>
                  <path fill="none" stroke="white" stroke-width="1.5" d="M0,-3.0v7 M-2.5,-0.5L0,-3.0L2.5,-0.5"/>
                </g>
                <g id="arrowRight" xlink:href="#dirArrow" transform="rotate(90) translate(36 -43)" onmousedown="handlePan(1,0)">
                  <use xlink:href="#rim" fill="#404040">
                        <set attributeName="fill" to="#808080" begin="arrowRight.mouseover" end="arrowRight.mouseout"/>
                  </use>
                  <path fill="none" stroke="white" stroke-width="1.5" d="M0,-3.0v7 M-2.5,-0.5L0,-3.0L2.5,-0.5"/>
                </g>
                <g id="arrowDown" xlink:href="#dirArrow" transform="rotate(180) translate(-30 -48)" onmousedown="handlePan(0,1)">
                  <use xlink:href="#rim" fill="#404040">
                        <set attributeName="fill" to="#808080" begin="arrowDown.mouseover" end="arrowDown.mouseout"/>
                  </use>
                  <path fill="none" stroke="white" stroke-width="1.5" d="M0,-3.0v7 M-2.5,-0.5L0,-3.0L2.5,-0.5"/>
                </g>
                <g id="arrowLeft" xlink:href="#dirArrow" transform="rotate(270) translate(-36 17)" onmousedown="handlePan(-1,0)">
                  <use xlink:href="#rim" fill="#404040">
                        <set attributeName="fill" to="#808080" begin="arrowLeft.mouseover" end="arrowLeft.mouseout"/>
                  </use>
                  <path fill="none" stroke="white" stroke-width="1.5" d="M0,-3.0v7 M-2.5,-0.5L0,-3.0L2.5,-0.5"/>
                </g>
        </g>
        <svg viewBox="0 0 15 15" width="100%" height="30px" preserveAspectRatio="xMaxYMin meet">
         <g id="arrow_out" transform="scale(0.3 0.3)">
          <a xlink:href="main_8c__incl_org.svg" target="_base">
           <rect id="button" ry="5" rx="5" y="6" x="6" height="38" width="38"
                fill="#f2f5e9" fill-opacity="0.5" stroke="#606060" stroke-width="1.0"/>
           <path id="arrow"
             d="M 11.500037,31.436501 C 11.940474,20.09759 22.043105,11.32322 32.158766,21.979434 L 37.068811,17.246167 C 37.068811,17.246167 37.088388,32 37.088388,32 L 22.160133,31.978069 C 22.160133,31.978069 26.997745,27.140456 26.997745,27.140456 C 18.528582,18.264221 13.291696,25.230495 11.500037,31.436501 z"
             style="fill:#404040;"/>
          </a>
         </g>
        </svg>
</svg>
