<?xml version="1.0" encoding="UTF-8" standalone="no"?>
<!DOCTYPE svg PUBLIC "-//W3C//DTD SVG 1.1//EN"
 "http://www.w3.org/Graphics/SVG/1.1/DTD/svg11.dtd">
<!-- Generated by graphviz version 2.43.0 (0)
 -->
<!-- Title: Core/Src/main.c Pages: 1 -->
<svg width="1158pt" height="308pt"
 viewBox="0.00 0.00 1157.50 308.00" xmlns="http://www.w3.org/2000/svg" xmlns:xlink="http://www.w3.org/1999/xlink">
<g id="graph0" class="graph" transform="scale(1 1) rotate(0) translate(4 304)">
<title>Core/Src/main.c</title>
<polygon fill="white" stroke="transparent" points="-4,4 -4,-304 1153.5,-304 1153.5,4 -4,4"/>
<!-- Node1 -->
<g id="node1" class="node">
<title>Node1</title>
<g id="a_node1"><a xlink:title=": Main program body">
<polygon fill="#bfbfbf" stroke="black" points="469.5,-280.5 469.5,-299.5 562.5,-299.5 562.5,-280.5 469.5,-280.5"/>
<text text-anchor="middle" x="516" y="-287.5" font-family="Helvetica,sans-Serif" font-size="10.00">Core/Src/main.c</text>
</a>
</g>
</g>
<!-- Node2 -->
<g id="node2" class="node">
<title>Node2</title>
<g id="a_node2"><a xlink:title=" ">
<polygon fill="white" stroke="#bfbfbf" points="0,-224.5 0,-243.5 50,-243.5 50,-224.5 0,-224.5"/>
<text text-anchor="middle" x="25" y="-231.5" font-family="Helvetica,sans-Serif" font-size="10.00">main.h</text>
</a>
</g>
</g>
<!-- Node1&#45;&gt;Node2 -->
<g id="edge1" class="edge">
<title>Node1&#45;&gt;Node2</title>
<path fill="none" stroke="midnightblue" d="M469.28,-286.88C387.97,-282.65 215.12,-271.29 60.32,-243.96"/>
<polygon fill="midnightblue" stroke="midnightblue" points="60.61,-240.46 50.15,-242.14 59.38,-247.35 60.61,-240.46"/>
</g>
<!-- Node3 -->
<g id="node3" class="node">
<title>Node3</title>
<g id="a_node3"><a xlink:title=" ">
<polygon fill="white" stroke="#bfbfbf" points="68,-224.5 68,-243.5 118,-243.5 118,-224.5 68,-224.5"/>
<text text-anchor="middle" x="93" y="-231.5" font-family="Helvetica,sans-Serif" font-size="10.00">usart.h</text>
</a>
</g>
</g>
<!-- Node1&#45;&gt;Node3 -->
<g id="edge2" class="edge">
<title>Node1&#45;&gt;Node3</title>
<path fill="none" stroke="midnightblue" d="M469.27,-285.77C397.76,-280.36 256.8,-267.82 128.18,-243.98"/>
<polygon fill="midnightblue" stroke="midnightblue" points="128.63,-240.5 118.16,-242.09 127.34,-247.38 128.63,-240.5"/>
</g>
<!-- Node4 -->
<g id="node4" class="node">
<title>Node4</title>
<g id="a_node4"><a xlink:title=" ">
<polygon fill="white" stroke="#bfbfbf" points="136,-224.5 136,-243.5 174,-243.5 174,-224.5 136,-224.5"/>
<text text-anchor="middle" x="155" y="-231.5" font-family="Helvetica,sans-Serif" font-size="10.00">rtc.h</text>
</a>
</g>
</g>
<!-- Node1&#45;&gt;Node4 -->
<g id="edge3" class="edge">
<title>Node1&#45;&gt;Node4</title>
<path fill="none" stroke="midnightblue" d="M469.48,-285.33C406.65,-279.79 291.12,-267.6 184.15,-243.9"/>
<polygon fill="midnightblue" stroke="midnightblue" points="184.68,-240.44 174.16,-241.65 183.14,-247.26 184.68,-240.44"/>
</g>
<!-- Node5 -->
<g id="node5" class="node">
<title>Node5</title>
<g id="a_node5"><a xlink:title=" ">
<polygon fill="white" stroke="#bfbfbf" points="192,-224.5 192,-243.5 252,-243.5 252,-224.5 192,-224.5"/>
<text text-anchor="middle" x="222" y="-231.5" font-family="Helvetica,sans-Serif" font-size="10.00">subghz.h</text>
</a>
</g>
</g>
<!-- Node1&#45;&gt;Node5 -->
<g id="edge4" class="edge">
<title>Node1&#45;&gt;Node5</title>
<path fill="none" stroke="midnightblue" d="M469.33,-281.51C420.19,-273.47 340.35,-259.91 262.21,-244.17"/>
<polygon fill="midnightblue" stroke="midnightblue" points="262.7,-240.69 252.2,-242.13 261.3,-247.55 262.7,-240.69"/>
</g>
<!-- Node6 -->
<g id="node6" class="node">
<title>Node6</title>
<g id="a_node6"><a xlink:title=" ">
<polygon fill="white" stroke="#bfbfbf" points="270,-224.5 270,-243.5 312,-243.5 312,-224.5 270,-224.5"/>
<text text-anchor="middle" x="291" y="-231.5" font-family="Helvetica,sans-Serif" font-size="10.00">tim.h</text>
</a>
</g>
</g>
<!-- Node1&#45;&gt;Node6 -->
<g id="edge5" class="edge">
<title>Node1&#45;&gt;Node6</title>
<path fill="none" stroke="midnightblue" d="M475.48,-280.45C437.99,-272.36 380.52,-259.51 322.03,-244.15"/>
<polygon fill="midnightblue" stroke="midnightblue" points="322.82,-240.74 312.26,-241.56 321.03,-247.51 322.82,-240.74"/>
</g>
<!-- Node7 -->
<g id="node7" class="node">
<title>Node7</title>
<g id="a_node7"><a xlink:title=" ">
<polygon fill="white" stroke="#bfbfbf" points="330.5,-224.5 330.5,-243.5 377.5,-243.5 377.5,-224.5 330.5,-224.5"/>
<text text-anchor="middle" x="354" y="-231.5" font-family="Helvetica,sans-Serif" font-size="10.00">gpio.h</text>
</a>
</g>
</g>
<!-- Node1&#45;&gt;Node7 -->
<g id="edge6" class="edge">
<title>Node1&#45;&gt;Node7</title>
<path fill="none" stroke="midnightblue" d="M490.33,-280.44C462.52,-271.17 418.03,-256.34 387.48,-246.16"/>
<polygon fill="midnightblue" stroke="midnightblue" points="388.3,-242.74 377.7,-242.9 386.08,-249.38 388.3,-242.74"/>
</g>
<!-- Node8 -->
<g id="node8" class="node">
<title>Node8</title>
<g id="a_node8"><a xlink:title=" ">
<polygon fill="white" stroke="#bfbfbf" points="396,-224.5 396,-243.5 488,-243.5 488,-224.5 396,-224.5"/>
<text text-anchor="middle" x="442" y="-231.5" font-family="Helvetica,sans-Serif" font-size="10.00">stm32wlxx_it.h</text>
</a>
</g>
</g>
<!-- Node1&#45;&gt;Node8 -->
<g id="edge7" class="edge">
<title>Node1&#45;&gt;Node8</title>
<path fill="none" stroke="midnightblue" d="M504.11,-280.32C492.85,-272.11 475.71,-259.6 462.29,-249.81"/>
<polygon fill="midnightblue" stroke="midnightblue" points="464.25,-246.9 454.11,-243.83 460.12,-252.56 464.25,-246.9"/>
</g>
<!-- Node9 -->
<g id="node9" class="node">
<title>Node9</title>
<g id="a_node9"><a xlink:href="../../d0/dc7/build__info_8h.html" target="_top" xlink:title="contains references to SW version information. Corresponding builf_info.c will be generated during bu...">
<polygon fill="white" stroke="black" points="1057,-112.5 1057,-131.5 1131,-131.5 1131,-112.5 1057,-112.5"/>
<text text-anchor="middle" x="1094" y="-119.5" font-family="Helvetica,sans-Serif" font-size="10.00">build_info.h</text>
</a>
</g>
</g>
<!-- Node1&#45;&gt;Node9 -->
<g id="edge8" class="edge">
<title>Node1&#45;&gt;Node9</title>
<path fill="none" stroke="midnightblue" d="M562.88,-284.49C618.67,-278.42 714.3,-265.79 794,-244 859.84,-226 873.69,-213.5 937,-188 981.45,-170.1 1032.69,-148.75 1064.22,-135.53"/>
<polygon fill="midnightblue" stroke="midnightblue" points="1065.86,-138.64 1073.73,-131.54 1063.15,-132.18 1065.86,-138.64"/>
</g>
<!-- Node12 -->
<g id="node12" class="node">
<title>Node12</title>
<g id="a_node12"><a xlink:href="../../d0/d84/kns__q_8h.html" target="_top" xlink:title="Configuration of queues used in kineis_swr.">
<polygon fill="white" stroke="black" points="544,-224.5 544,-243.5 598,-243.5 598,-224.5 544,-224.5"/>
<text text-anchor="middle" x="571" y="-231.5" font-family="Helvetica,sans-Serif" font-size="10.00">kns_q.h</text>
</a>
</g>
</g>
<!-- Node1&#45;&gt;Node12 -->
<g id="edge11" class="edge">
<title>Node1&#45;&gt;Node12</title>
<path fill="none" stroke="midnightblue" d="M525.08,-280.08C533.17,-272.14 545.2,-260.34 554.91,-250.8"/>
<polygon fill="midnightblue" stroke="midnightblue" points="557.4,-253.25 562.09,-243.75 552.5,-248.26 557.4,-253.25"/>
</g>
<!-- Node17 -->
<g id="node17" class="node">
<title>Node17</title>
<g id="a_node17"><a xlink:href="../../d2/de2/kns__os_8h.html" target="_top" xlink:title="Minimalist baremetal OS to be used with Kineissoftware stack.">
<polygon fill="white" stroke="black" points="979.5,-112.5 979.5,-131.5 1038.5,-131.5 1038.5,-112.5 979.5,-112.5"/>
<text text-anchor="middle" x="1009" y="-119.5" font-family="Helvetica,sans-Serif" font-size="10.00">kns_os.h</text>
</a>
</g>
</g>
<!-- Node1&#45;&gt;Node17 -->
<g id="edge27" class="edge">
<title>Node1&#45;&gt;Node17</title>
<path fill="none" stroke="midnightblue" d="M562.71,-282.1C637.63,-269.89 788.21,-240.69 906,-188 936.97,-174.15 969.57,-152.13 989.6,-137.62"/>
<polygon fill="midnightblue" stroke="midnightblue" points="991.89,-140.29 997.87,-131.54 987.74,-134.65 991.89,-140.29"/>
</g>
<!-- Node19 -->
<g id="node19" class="node">
<title>Node19</title>
<g id="a_node19"><a xlink:href="../../d4/dbe/mcu__tim_8h.html" target="_top" xlink:title="MCU wrappers for timer or non&#45;blocking delays used by Kineis stack.">
<polygon fill="white" stroke="black" points="281,-112.5 281,-131.5 349,-131.5 349,-112.5 281,-112.5"/>
<text text-anchor="middle" x="315" y="-119.5" font-family="Helvetica,sans-Serif" font-size="10.00">mcu_tim.h</text>
</a>
</g>
</g>
<!-- Node1&#45;&gt;Node19 -->
<g id="edge32" class="edge">
<title>Node1&#45;&gt;Node19</title>
<path fill="none" stroke="midnightblue" d="M515.83,-280.23C515.09,-266.5 511.72,-239.85 497,-224 466,-190.6 440.92,-209.97 401,-188 375.31,-173.86 348.85,-152.68 332.19,-138.37"/>
<polygon fill="midnightblue" stroke="midnightblue" points="334.26,-135.54 324.42,-131.59 329.65,-140.81 334.26,-135.54"/>
</g>
<!-- Node20 -->
<g id="node20" class="node">
<title>Node20</title>
<g id="a_node20"><a xlink:href="../../d7/d1a/kns__mac_8h.html" target="_top" xlink:title="Main header file for MAC layer of Kineis stack.">
<polygon fill="white" stroke="black" points="619.5,-168.5 619.5,-187.5 688.5,-187.5 688.5,-168.5 619.5,-168.5"/>
<text text-anchor="middle" x="654" y="-175.5" font-family="Helvetica,sans-Serif" font-size="10.00">kns_mac.h</text>
</a>
</g>
</g>
<!-- Node1&#45;&gt;Node20 -->
<g id="edge35" class="edge">
<title>Node1&#45;&gt;Node20</title>
<path fill="none" stroke="midnightblue" d="M541.08,-280.42C560.52,-272.92 587.35,-260.62 607,-244 622.9,-230.56 636.26,-210.65 644.62,-196.41"/>
<polygon fill="midnightblue" stroke="midnightblue" points="647.72,-198.04 649.58,-187.61 641.62,-194.6 647.72,-198.04"/>
</g>
<!-- Node22 -->
<g id="node22" class="node">
<title>Node22</title>
<g id="a_node22"><a xlink:href="../../d2/d0e/kns__app_8h.html" target="_top" xlink:title="provide main application softwares using kineis sw satck">
<polygon fill="white" stroke="black" points="991,-224.5 991,-243.5 1057,-243.5 1057,-224.5 991,-224.5"/>
<text text-anchor="middle" x="1024" y="-231.5" font-family="Helvetica,sans-Serif" font-size="10.00">kns_app.h</text>
</a>
</g>
</g>
<!-- Node1&#45;&gt;Node22 -->
<g id="edge40" class="edge">
<title>Node1&#45;&gt;Node22</title>
<path fill="none" stroke="midnightblue" d="M562.63,-285.87C646.04,-279.96 826.17,-265.76 977,-244 978.27,-243.82 979.56,-243.62 980.86,-243.42"/>
<polygon fill="midnightblue" stroke="midnightblue" points="981.66,-246.83 990.94,-241.73 980.5,-239.93 981.66,-246.83"/>
</g>
<!-- Node23 -->
<g id="node23" class="node">
<title>Node23</title>
<g id="a_node23"><a xlink:href="../../df/db7/lpm_8h.html" target="_top" xlink:title="This file contains some utilities and functions needed for a correct handling of LPM on the STM32WL55...">
<polygon fill="white" stroke="black" points="853,-168.5 853,-187.5 897,-187.5 897,-168.5 853,-168.5"/>
<text text-anchor="middle" x="875" y="-175.5" font-family="Helvetica,sans-Serif" font-size="10.00">lpm.h</text>
</a>
</g>
</g>
<!-- Node1&#45;&gt;Node23 -->
<g id="edge41" class="edge">
<title>Node1&#45;&gt;Node23</title>
<path fill="none" stroke="midnightblue" d="M543.87,-280.46C609.37,-260.39 772.82,-210.31 842.6,-188.93"/>
<polygon fill="midnightblue" stroke="midnightblue" points="844.04,-192.15 852.58,-185.87 841.99,-185.45 844.04,-192.15"/>
</g>
<!-- Node25 -->
<g id="node25" class="node">
<title>Node25</title>
<g id="a_node25"><a xlink:href="../../d2/d2e/mgr__log_8h.html" target="_top" xlink:title="logger main header file">
<polygon fill="white" stroke="black" points="1075.5,-224.5 1075.5,-243.5 1140.5,-243.5 1140.5,-224.5 1075.5,-224.5"/>
<text text-anchor="middle" x="1108" y="-231.5" font-family="Helvetica,sans-Serif" font-size="10.00">mgr_log.h</text>
</a>
</g>
</g>
<!-- Node1&#45;&gt;Node25 -->
<g id="edge47" class="edge">
<title>Node1&#45;&gt;Node25</title>
<path fill="none" stroke="midnightblue" d="M562.59,-287.22C656.04,-283.22 873.12,-271.72 1065.07,-243.94"/>
<polygon fill="midnightblue" stroke="midnightblue" points="1065.67,-247.39 1075.06,-242.48 1064.66,-240.47 1065.67,-247.39"/>
</g>
<!-- Node10 -->
<g id="node10" class="node">
<title>Node10</title>
<g id="a_node10"><a xlink:title=" ">
<polygon fill="white" stroke="#bfbfbf" points="795,-56.5 795,-75.5 857,-75.5 857,-56.5 795,-56.5"/>
<text text-anchor="middle" x="826" y="-63.5" font-family="Helvetica,sans-Serif" font-size="10.00">stdbool.h</text>
</a>
</g>
</g>
<!-- Node9&#45;&gt;Node10 -->
<g id="edge9" class="edge">
<title>Node9&#45;&gt;Node10</title>
<path fill="none" stroke="midnightblue" d="M1056.74,-113.49C1006.85,-103.44 918.65,-85.67 866.95,-75.25"/>
<polygon fill="midnightblue" stroke="midnightblue" points="867.61,-71.81 857.12,-73.27 866.23,-78.68 867.61,-71.81"/>
</g>
<!-- Node11 -->
<g id="node11" class="node">
<title>Node11</title>
<g id="a_node11"><a xlink:title=" ">
<polygon fill="white" stroke="#bfbfbf" points="548.5,-0.5 548.5,-19.5 601.5,-19.5 601.5,-0.5 548.5,-0.5"/>
<text text-anchor="middle" x="575" y="-7.5" font-family="Helvetica,sans-Serif" font-size="10.00">stdint.h</text>
</a>
</g>
</g>
<!-- Node9&#45;&gt;Node11 -->
<g id="edge10" class="edge">
<title>Node9&#45;&gt;Node11</title>
<path fill="none" stroke="midnightblue" d="M1092.32,-112.04C1089.07,-97.55 1080.47,-69.23 1061,-56 1024.07,-30.92 718.62,-16.64 611.75,-12.37"/>
<polygon fill="midnightblue" stroke="midnightblue" points="611.88,-8.87 601.75,-11.98 611.61,-15.87 611.88,-8.87"/>
</g>
<!-- Node12&#45;&gt;Node10 -->
<g id="edge12" class="edge">
<title>Node12&#45;&gt;Node10</title>
<path fill="none" stroke="midnightblue" d="M598.1,-227.93C644.7,-217.84 740.29,-190.93 795,-132 807.47,-118.57 815.83,-99.2 820.69,-85.1"/>
<polygon fill="midnightblue" stroke="midnightblue" points="824.04,-86.12 823.74,-75.53 817.37,-84 824.04,-86.12"/>
</g>
<!-- Node12&#45;&gt;Node11 -->
<g id="edge13" class="edge">
<title>Node12&#45;&gt;Node11</title>
<path fill="none" stroke="midnightblue" d="M543.81,-228.56C473.77,-216.5 290.34,-180.74 257,-132 251.98,-124.66 256.22,-120.85 257,-112 259.23,-86.82 248.84,-73.59 267,-56 305.01,-19.17 465.16,-12.36 538.29,-11.19"/>
<polygon fill="midnightblue" stroke="midnightblue" points="538.48,-14.68 548.43,-11.05 538.38,-7.69 538.48,-14.68"/>
</g>
<!-- Node13 -->
<g id="node13" class="node">
<title>Node13</title>
<g id="a_node13"><a xlink:href="../../d8/d85/kns__types_8h.html" target="_top" xlink:title="Kineis types definition.">
<polygon fill="white" stroke="black" points="570.5,-56.5 570.5,-75.5 645.5,-75.5 645.5,-56.5 570.5,-56.5"/>
<text text-anchor="middle" x="608" y="-63.5" font-family="Helvetica,sans-Serif" font-size="10.00">kns_types.h</text>
</a>
</g>
</g>
<!-- Node12&#45;&gt;Node13 -->
<g id="edge14" class="edge">
<title>Node12&#45;&gt;Node13</title>
<path fill="none" stroke="midnightblue" d="M543.77,-226.63C483.8,-211.38 349.27,-169.69 396,-112 416.23,-87.02 503.9,-75.34 559.97,-70.33"/>
<polygon fill="midnightblue" stroke="midnightblue" points="560.38,-73.81 570.05,-69.47 559.79,-66.84 560.38,-73.81"/>
</g>
<!-- Node14 -->
<g id="node14" class="node">
<title>Node14</title>
<g id="a_node14"><a xlink:href="../../d8/dd1/kns__q__conf_8h.html" target="_top" xlink:title="Configuration of queues used in kineis_sw.">
<polygon fill="white" stroke="black" points="521,-168.5 521,-187.5 601,-187.5 601,-168.5 521,-168.5"/>
<text text-anchor="middle" x="561" y="-175.5" font-family="Helvetica,sans-Serif" font-size="10.00">kns_q_conf.h</text>
</a>
</g>
</g>
<!-- Node12&#45;&gt;Node14 -->
<g id="edge16" class="edge">
<title>Node12&#45;&gt;Node14</title>
<path fill="none" stroke="midnightblue" d="M569.35,-224.08C568.02,-216.93 566.12,-206.64 564.46,-197.69"/>
<polygon fill="midnightblue" stroke="midnightblue" points="567.88,-196.95 562.62,-187.75 561,-198.22 567.88,-196.95"/>
</g>
<!-- Node13&#45;&gt;Node11 -->
<g id="edge15" class="edge">
<title>Node13&#45;&gt;Node11</title>
<path fill="none" stroke="midnightblue" d="M602.55,-56.08C597.99,-48.61 591.33,-37.72 585.71,-28.52"/>
<polygon fill="midnightblue" stroke="midnightblue" points="588.55,-26.46 580.35,-19.75 582.58,-30.11 588.55,-26.46"/>
</g>
<!-- Node14&#45;&gt;Node10 -->
<g id="edge17" class="edge">
<title>Node14&#45;&gt;Node10</title>
<path fill="none" stroke="midnightblue" d="M601.12,-169.66C657.17,-159.2 753.71,-140.34 768,-132 788.12,-120.26 805.03,-99.12 815.3,-84.13"/>
<polygon fill="midnightblue" stroke="midnightblue" points="818.25,-86.02 820.81,-75.74 812.4,-82.18 818.25,-86.02"/>
</g>
<!-- Node14&#45;&gt;Node11 -->
<g id="edge18" class="edge">
<title>Node14&#45;&gt;Node11</title>
<path fill="none" stroke="midnightblue" d="M520.95,-176.9C449.27,-175.77 303.58,-168.88 272,-132 195.56,-42.74 442.03,-18.68 538.22,-12.77"/>
<polygon fill="midnightblue" stroke="midnightblue" points="538.6,-16.26 548.38,-12.18 538.2,-9.27 538.6,-16.26"/>
</g>
<!-- Node15 -->
<g id="node15" class="node">
<title>Node15</title>
<g id="a_node15"><a xlink:href="../../df/d64/kns__mac__evt_8h.html" target="_top" xlink:title=" ">
<polygon fill="white" stroke="black" points="669,-112.5 669,-131.5 759,-131.5 759,-112.5 669,-112.5"/>
<text text-anchor="middle" x="714" y="-119.5" font-family="Helvetica,sans-Serif" font-size="10.00">kns_mac_evt.h</text>
</a>
</g>
</g>
<!-- Node14&#45;&gt;Node15 -->
<g id="edge19" class="edge">
<title>Node14&#45;&gt;Node15</title>
<path fill="none" stroke="midnightblue" d="M585.24,-168.44C610.87,-159.4 651.49,-145.06 680.24,-134.92"/>
<polygon fill="midnightblue" stroke="midnightblue" points="681.61,-138.15 689.87,-131.52 679.28,-131.54 681.61,-138.15"/>
</g>
<!-- Node16 -->
<g id="node16" class="node">
<title>Node16</title>
<g id="a_node16"><a xlink:href="../../d7/d8a/kns__srvc__common_8h.html" target="_top" xlink:title="Common part of Kinéis service layer.">
<polygon fill="white" stroke="black" points="405,-112.5 405,-131.5 521,-131.5 521,-112.5 405,-112.5"/>
<text text-anchor="middle" x="463" y="-119.5" font-family="Helvetica,sans-Serif" font-size="10.00">kns_srvc_common.h</text>
</a>
</g>
</g>
<!-- Node14&#45;&gt;Node16 -->
<g id="edge23" class="edge">
<title>Node14&#45;&gt;Node16</title>
<path fill="none" stroke="midnightblue" d="M545.25,-168.32C529.68,-159.74 505.62,-146.49 487.54,-136.52"/>
<polygon fill="midnightblue" stroke="midnightblue" points="489.15,-133.42 478.71,-131.65 485.78,-139.55 489.15,-133.42"/>
</g>
<!-- Node15&#45;&gt;Node10 -->
<g id="edge20" class="edge">
<title>Node15&#45;&gt;Node10</title>
<path fill="none" stroke="midnightblue" d="M731.99,-112.32C750.04,-103.62 778.05,-90.12 798.8,-80.11"/>
<polygon fill="midnightblue" stroke="midnightblue" points="800.56,-83.15 808.05,-75.65 797.52,-76.84 800.56,-83.15"/>
</g>
<!-- Node15&#45;&gt;Node11 -->
<g id="edge21" class="edge">
<title>Node15&#45;&gt;Node11</title>
<path fill="none" stroke="midnightblue" d="M707.34,-112.21C696.98,-98.91 675.88,-73.39 654,-56 638.24,-43.47 618.58,-32.26 602.81,-24.16"/>
<polygon fill="midnightblue" stroke="midnightblue" points="604.08,-20.88 593.57,-19.54 600.94,-27.14 604.08,-20.88"/>
</g>
<!-- Node15&#45;&gt;Node13 -->
<g id="edge22" class="edge">
<title>Node15&#45;&gt;Node13</title>
<path fill="none" stroke="midnightblue" d="M696.97,-112.32C679.97,-103.66 653.62,-90.24 634.01,-80.25"/>
<polygon fill="midnightblue" stroke="midnightblue" points="635.49,-77.08 624.99,-75.65 632.31,-83.31 635.49,-77.08"/>
</g>
<!-- Node16&#45;&gt;Node10 -->
<g id="edge24" class="edge">
<title>Node16&#45;&gt;Node10</title>
<path fill="none" stroke="midnightblue" d="M520.52,-112.44C593.99,-101.51 719.4,-82.86 784.31,-73.2"/>
<polygon fill="midnightblue" stroke="midnightblue" points="785.2,-76.61 794.57,-71.67 784.17,-69.68 785.2,-76.61"/>
</g>
<!-- Node16&#45;&gt;Node11 -->
<g id="edge25" class="edge">
<title>Node16&#45;&gt;Node11</title>
<path fill="none" stroke="midnightblue" d="M471.79,-112.37C490.6,-93.89 534.99,-50.29 558.97,-26.74"/>
<polygon fill="midnightblue" stroke="midnightblue" points="561.57,-29.1 566.25,-19.59 556.67,-24.1 561.57,-29.1"/>
</g>
<!-- Node16&#45;&gt;Node13 -->
<g id="edge26" class="edge">
<title>Node16&#45;&gt;Node13</title>
<path fill="none" stroke="midnightblue" d="M485.98,-112.44C510.16,-103.44 548.42,-89.19 575.65,-79.05"/>
<polygon fill="midnightblue" stroke="midnightblue" points="576.98,-82.29 585.13,-75.52 574.54,-75.73 576.98,-82.29"/>
</g>
<!-- Node17&#45;&gt;Node10 -->
<g id="edge28" class="edge">
<title>Node17&#45;&gt;Node10</title>
<path fill="none" stroke="midnightblue" d="M980,-112.44C948.82,-103.24 899.07,-88.56 864.59,-78.39"/>
<polygon fill="midnightblue" stroke="midnightblue" points="865.44,-74.99 854.86,-75.52 863.46,-81.7 865.44,-74.99"/>
</g>
<!-- Node17&#45;&gt;Node11 -->
<g id="edge29" class="edge">
<title>Node17&#45;&gt;Node11</title>
<path fill="none" stroke="midnightblue" d="M996.48,-112.42C975.09,-98.21 929.65,-69.96 887,-56 790.83,-24.52 670.82,-15.04 611.58,-12.2"/>
<polygon fill="midnightblue" stroke="midnightblue" points="611.73,-8.7 601.58,-11.76 611.42,-15.7 611.73,-8.7"/>
</g>
<!-- Node17&#45;&gt;Node13 -->
<g id="edge30" class="edge">
<title>Node17&#45;&gt;Node13</title>
<path fill="none" stroke="midnightblue" d="M979.19,-116.99C910.27,-107.71 739.46,-84.7 655.76,-73.43"/>
<polygon fill="midnightblue" stroke="midnightblue" points="656.14,-69.95 645.76,-72.08 655.2,-76.89 656.14,-69.95"/>
</g>
<!-- Node18 -->
<g id="node18" class="node">
<title>Node18</title>
<g id="a_node18"><a xlink:href="../../d6/d73/kns__os__conf_8h.html" target="_top" xlink:title="Configuration of task used with/in kineis_sw.">
<polygon fill="white" stroke="black" points="966.5,-56.5 966.5,-75.5 1051.5,-75.5 1051.5,-56.5 966.5,-56.5"/>
<text text-anchor="middle" x="1009" y="-63.5" font-family="Helvetica,sans-Serif" font-size="10.00">kns_os_conf.h</text>
</a>
</g>
</g>
<!-- Node17&#45;&gt;Node18 -->
<g id="edge31" class="edge">
<title>Node17&#45;&gt;Node18</title>
<path fill="none" stroke="midnightblue" d="M1009,-112.08C1009,-105.01 1009,-94.86 1009,-85.99"/>
<polygon fill="midnightblue" stroke="midnightblue" points="1012.5,-85.75 1009,-75.75 1005.5,-85.75 1012.5,-85.75"/>
</g>
<!-- Node19&#45;&gt;Node11 -->
<g id="edge33" class="edge">
<title>Node19&#45;&gt;Node11</title>
<path fill="none" stroke="midnightblue" d="M335.4,-112.37C381.16,-93.01 492.12,-46.06 545.44,-23.51"/>
<polygon fill="midnightblue" stroke="midnightblue" points="546.85,-26.71 554.69,-19.59 544.12,-20.26 546.85,-26.71"/>
</g>
<!-- Node19&#45;&gt;Node13 -->
<g id="edge34" class="edge">
<title>Node19&#45;&gt;Node13</title>
<path fill="none" stroke="midnightblue" d="M349.09,-114.59C353.76,-113.72 358.5,-112.84 363,-112 431.48,-99.29 510.76,-84.76 560.15,-75.74"/>
<polygon fill="midnightblue" stroke="midnightblue" points="561.01,-79.14 570.22,-73.89 559.75,-72.25 561.01,-79.14"/>
</g>
<!-- Node20&#45;&gt;Node15 -->
<g id="edge36" class="edge">
<title>Node20&#45;&gt;Node15</title>
<path fill="none" stroke="midnightblue" d="M663.64,-168.32C672.51,-160.34 685.87,-148.31 696.61,-138.65"/>
<polygon fill="midnightblue" stroke="midnightblue" points="699.09,-141.13 704.18,-131.83 694.41,-135.92 699.09,-141.13"/>
</g>
<!-- Node21 -->
<g id="node21" class="node">
<title>Node21</title>
<g id="a_node21"><a xlink:href="../../d8/d4a/kns__mac__prfl__cfg_8h.html" target="_top" xlink:title="Header file describing the ser settings required to configure a MAC protocol.">
<polygon fill="white" stroke="black" points="539.5,-112.5 539.5,-131.5 650.5,-131.5 650.5,-112.5 539.5,-112.5"/>
<text text-anchor="middle" x="595" y="-119.5" font-family="Helvetica,sans-Serif" font-size="10.00">kns_mac_prfl_cfg.h</text>
</a>
</g>
</g>
<!-- Node20&#45;&gt;Node21 -->
<g id="edge37" class="edge">
<title>Node20&#45;&gt;Node21</title>
<path fill="none" stroke="midnightblue" d="M644.52,-168.32C635.8,-160.34 622.66,-148.31 612.1,-138.65"/>
<polygon fill="midnightblue" stroke="midnightblue" points="614.39,-136 604.65,-131.83 609.67,-141.17 614.39,-136"/>
</g>
<!-- Node21&#45;&gt;Node11 -->
<g id="edge38" class="edge">
<title>Node21&#45;&gt;Node11</title>
<path fill="none" stroke="midnightblue" d="M585.71,-112.39C577.42,-104.02 565.86,-90.48 561,-76 555.79,-60.46 560.67,-42.15 566.05,-28.93"/>
<polygon fill="midnightblue" stroke="midnightblue" points="569.35,-30.13 570.28,-19.58 562.97,-27.24 569.35,-30.13"/>
</g>
<!-- Node21&#45;&gt;Node13 -->
<g id="edge39" class="edge">
<title>Node21&#45;&gt;Node13</title>
<path fill="none" stroke="midnightblue" d="M597.15,-112.08C598.87,-104.93 601.35,-94.64 603.5,-85.69"/>
<polygon fill="midnightblue" stroke="midnightblue" points="606.96,-86.29 605.89,-75.75 600.15,-84.65 606.96,-86.29"/>
</g>
<!-- Node23&#45;&gt;Node10 -->
<g id="edge42" class="edge">
<title>Node23&#45;&gt;Node10</title>
<path fill="none" stroke="midnightblue" d="M892.49,-168.38C914.17,-156.49 946.58,-134.03 932,-112 917.63,-90.29 890.45,-79.02 867.21,-73.19"/>
<polygon fill="midnightblue" stroke="midnightblue" points="867.73,-69.72 857.21,-70.94 866.2,-76.55 867.73,-69.72"/>
</g>
<!-- Node24 -->
<g id="node24" class="node">
<title>Node24</title>
<g id="a_node24"><a xlink:href="../../df/d63/mgr__lpm_8h.html" target="_top" xlink:title="low power mode manager is in charge to collect all low power needs from &#39;clients&#39; and setup the corre...">
<polygon fill="white" stroke="black" points="853.5,-112.5 853.5,-131.5 922.5,-131.5 922.5,-112.5 853.5,-112.5"/>
<text text-anchor="middle" x="888" y="-119.5" font-family="Helvetica,sans-Serif" font-size="10.00">mgr_lpm.h</text>
</a>
</g>
</g>
<!-- Node23&#45;&gt;Node24 -->
<g id="edge43" class="edge">
<title>Node23&#45;&gt;Node24</title>
<path fill="none" stroke="midnightblue" d="M877.15,-168.08C878.87,-160.93 881.35,-150.64 883.5,-141.69"/>
<polygon fill="midnightblue" stroke="midnightblue" points="886.96,-142.29 885.89,-131.75 880.15,-140.65 886.96,-142.29"/>
</g>
<!-- Node24&#45;&gt;Node10 -->
<g id="edge44" class="edge">
<title>Node24&#45;&gt;Node10</title>
<path fill="none" stroke="midnightblue" d="M878.04,-112.32C868.87,-104.34 855.06,-92.31 843.97,-82.65"/>
<polygon fill="midnightblue" stroke="midnightblue" points="845.98,-79.76 836.14,-75.83 841.38,-85.04 845.98,-79.76"/>
</g>
<!-- Node24&#45;&gt;Node11 -->
<g id="edge45" class="edge">
<title>Node24&#45;&gt;Node11</title>
<path fill="none" stroke="midnightblue" d="M887.77,-112.28C886.89,-98.11 882.96,-70.26 866,-56 828.12,-24.17 681.16,-14.75 611.73,-12.04"/>
<polygon fill="midnightblue" stroke="midnightblue" points="611.79,-8.54 601.67,-11.68 611.54,-15.54 611.79,-8.54"/>
</g>
<!-- Node24&#45;&gt;Node13 -->
<g id="edge46" class="edge">
<title>Node24&#45;&gt;Node13</title>
<path fill="none" stroke="midnightblue" d="M853.39,-114.32C803.66,-104.73 711.83,-87.03 655.7,-76.2"/>
<polygon fill="midnightblue" stroke="midnightblue" points="656.14,-72.72 645.66,-74.26 654.81,-79.59 656.14,-72.72"/>
</g>
<!-- Node26 -->
<g id="node26" class="node">
<title>Node26</title>
<g id="a_node26"><a xlink:href="../../d9/d70/mgr__log__rtc_8h.html" target="_top" xlink:title=": Header for mgr_log_rtc.c file. This file contains log routine concerning RTC. Thus there is a depen...">
<polygon fill="white" stroke="black" points="1066.5,-168.5 1066.5,-187.5 1149.5,-187.5 1149.5,-168.5 1066.5,-168.5"/>
<text text-anchor="middle" x="1108" y="-175.5" font-family="Helvetica,sans-Serif" font-size="10.00">mgr_log_rtc.h</text>
</a>
</g>
</g>
<!-- Node25&#45;&gt;Node26 -->
<g id="edge48" class="edge">
<title>Node25&#45;&gt;Node26</title>
<path fill="none" stroke="midnightblue" d="M1108,-224.08C1108,-217.01 1108,-206.86 1108,-197.99"/>
<polygon fill="midnightblue" stroke="midnightblue" points="1111.5,-197.75 1108,-187.75 1104.5,-197.75 1111.5,-197.75"/>
</g>
</g>
</svg>
