<?xml version="1.0" encoding="UTF-8" standalone="no"?>
<!DOCTYPE svg PUBLIC "-//W3C//DTD SVG 1.1//EN"
 "http://www.w3.org/Graphics/SVG/1.1/DTD/svg11.dtd">
<!-- Generated by graphviz version 2.43.0 (0)
 -->
<!-- Title: Kineis/App/Libs/USERDATA/Inc/user_data.h Pages: 1 -->
<svg width="154pt" height="95pt"
 viewBox="0.00 0.00 154.00 95.00" xmlns="http://www.w3.org/2000/svg" xmlns:xlink="http://www.w3.org/1999/xlink">
<g id="graph0" class="graph" transform="scale(1 1) rotate(0) translate(4 91)">
<title>Kineis/App/Libs/USERDATA/Inc/user_data.h</title>
<polygon fill="white" stroke="transparent" points="-4,4 -4,-91 150,-91 150,4 -4,4"/>
<!-- Node1 -->
<g id="node1" class="node">
<title>Node1</title>
<g id="a_node1"><a xlink:title="Library to handle user data to be be received or transmitted over the air through several networks (e...">
<polygon fill="#bfbfbf" stroke="black" points="0,-56.5 0,-86.5 146,-86.5 146,-56.5 0,-56.5"/>
<text text-anchor="start" x="8" y="-74.5" font-family="Helvetica,sans-Serif" font-size="10.00">Kineis/App/Libs/USERDATA</text>
<text text-anchor="middle" x="73" y="-63.5" font-family="Helvetica,sans-Serif" font-size="10.00">/Inc/user_data.h</text>
</a>
</g>
</g>
<!-- Node2 -->
<g id="node2" class="node">
<title>Node2</title>
<g id="a_node2"><a xlink:title=" ">
<polygon fill="white" stroke="#bfbfbf" points="4,-0.5 4,-19.5 66,-19.5 66,-0.5 4,-0.5"/>
<text text-anchor="middle" x="35" y="-7.5" font-family="Helvetica,sans-Serif" font-size="10.00">stdbool.h</text>
</a>
</g>
</g>
<!-- Node1&#45;&gt;Node2 -->
<g id="edge1" class="edge">
<title>Node1&#45;&gt;Node2</title>
<path fill="none" stroke="midnightblue" d="M63.99,-56.4C58.59,-47.93 51.67,-37.1 45.95,-28.14"/>
<polygon fill="midnightblue" stroke="midnightblue" points="48.86,-26.2 40.53,-19.66 42.96,-29.97 48.86,-26.2"/>
</g>
<!-- Node3 -->
<g id="node3" class="node">
<title>Node3</title>
<g id="a_node3"><a xlink:title=" ">
<polygon fill="white" stroke="#bfbfbf" points="84.5,-0.5 84.5,-19.5 137.5,-19.5 137.5,-0.5 84.5,-0.5"/>
<text text-anchor="middle" x="111" y="-7.5" font-family="Helvetica,sans-Serif" font-size="10.00">stdint.h</text>
</a>
</g>
</g>
<!-- Node1&#45;&gt;Node3 -->
<g id="edge2" class="edge">
<title>Node1&#45;&gt;Node3</title>
<path fill="none" stroke="midnightblue" d="M82.01,-56.4C87.41,-47.93 94.33,-37.1 100.05,-28.14"/>
<polygon fill="midnightblue" stroke="midnightblue" points="103.04,-29.97 105.47,-19.66 97.14,-26.2 103.04,-29.97"/>
</g>
</g>
</svg>
