<?xml version="1.0" encoding="UTF-8" standalone="no"?>
<!DOCTYPE svg PUBLIC "-//W3C//DTD SVG 1.1//EN"
 "http://www.w3.org/Graphics/SVG/1.1/DTD/svg11.dtd">
<!-- Generated by graphviz version 2.43.0 (0)
 -->
<!-- Title: Kineis/Lib/kns_srvc_common.h Pages: 1 -->
<svg width="1197pt" height="318pt"
 viewBox="0.00 0.00 1196.50 318.00" xmlns="http://www.w3.org/2000/svg" xmlns:xlink="http://www.w3.org/1999/xlink">
<g id="graph0" class="graph" transform="scale(1 1) rotate(0) translate(4 314)">
<title>Kineis/Lib/kns_srvc_common.h</title>
<polygon fill="white" stroke="transparent" points="-4,4 -4,-314 1192.5,-314 1192.5,4 -4,4"/>
<!-- Node1 -->
<g id="node1" class="node">
<title>Node1</title>
<g id="a_node1"><a xlink:title="Common part of Kinéis service layer.">
<polygon fill="#bfbfbf" stroke="black" points="392,-279.5 392,-309.5 502,-309.5 502,-279.5 392,-279.5"/>
<text text-anchor="start" x="400" y="-297.5" font-family="Helvetica,sans-Serif" font-size="10.00">Kineis/Lib/kns_srvc</text>
<text text-anchor="middle" x="447" y="-286.5" font-family="Helvetica,sans-Serif" font-size="10.00">_common.h</text>
</a>
</g>
</g>
<!-- Node2 -->
<g id="node2" class="node">
<title>Node2</title>
<g id="a_node2"><a xlink:href="../../d8/dd1/kns__q__conf_8h.html" target="_top" xlink:title="Configuration of queues used in kineis_sw.">
<polygon fill="white" stroke="black" points="392.5,-212.5 392.5,-242.5 501.5,-242.5 501.5,-212.5 392.5,-212.5"/>
<text text-anchor="start" x="400.5" y="-230.5" font-family="Helvetica,sans-Serif" font-size="10.00">Kineis/Extdep/Conf</text>
<text text-anchor="middle" x="447" y="-219.5" font-family="Helvetica,sans-Serif" font-size="10.00">/kns_q_conf.h</text>
</a>
</g>
</g>
<!-- Node1&#45;&gt;Node2 -->
<g id="edge1" class="edge">
<title>Node1&#45;&gt;Node2</title>
<path fill="none" stroke="midnightblue" d="M447,-269.11C447,-260.15 447,-250.32 447,-242.58"/>
<polygon fill="midnightblue" stroke="midnightblue" points="443.5,-269.4 447,-279.4 450.5,-269.4 443.5,-269.4"/>
</g>
<!-- Node3 -->
<g id="node3" class="node">
<title>Node3</title>
<g id="a_node3"><a xlink:href="../../d0/d84/kns__q_8h.html" target="_top" xlink:title="Configuration of queues used in kineis_swr.">
<polygon fill="white" stroke="black" points="530,-145.5 530,-175.5 648,-175.5 648,-145.5 530,-145.5"/>
<text text-anchor="start" x="538" y="-163.5" font-family="Helvetica,sans-Serif" font-size="10.00">Kineis/App/Kineis_os</text>
<text text-anchor="middle" x="589" y="-152.5" font-family="Helvetica,sans-Serif" font-size="10.00">/KNS_Q/Inc/kns_q.h</text>
</a>
</g>
</g>
<!-- Node2&#45;&gt;Node3 -->
<g id="edge2" class="edge">
<title>Node2&#45;&gt;Node3</title>
<path fill="none" stroke="midnightblue" d="M487.13,-208.13C509.69,-197.8 537.42,-185.11 558.25,-175.58"/>
<polygon fill="midnightblue" stroke="midnightblue" points="485.45,-205.05 477.81,-212.4 488.36,-211.42 485.45,-205.05"/>
</g>
<!-- Node5 -->
<g id="node5" class="node">
<title>Node5</title>
<g id="a_node5"><a xlink:href="../../d0/d08/kns__q__baremetal_8c.html" target="_top" xlink:title="Configuration of queues used in kineis_swr.">
<polygon fill="white" stroke="black" points="0,-73 0,-103 166,-103 166,-73 0,-73"/>
<text text-anchor="start" x="8" y="-91" font-family="Helvetica,sans-Serif" font-size="10.00">Kineis/App/Kineis_os</text>
<text text-anchor="middle" x="83" y="-80" font-family="Helvetica,sans-Serif" font-size="10.00">/KNS_Q/Src/kns_q_baremetal.c</text>
</a>
</g>
</g>
<!-- Node2&#45;&gt;Node5 -->
<g id="edge12" class="edge">
<title>Node2&#45;&gt;Node5</title>
<path fill="none" stroke="midnightblue" d="M400.32,-208.87C327.17,-181.24 187,-128.29 120.19,-103.05"/>
<polygon fill="midnightblue" stroke="midnightblue" points="399.16,-212.17 409.76,-212.43 401.64,-205.62 399.16,-212.17"/>
</g>
<!-- Node7 -->
<g id="node7" class="node">
<title>Node7</title>
<g id="a_node7"><a xlink:href="../../d5/d11/kns__q__cmsis__os2_8c.html" target="_top" xlink:title=" ">
<polygon fill="white" stroke="black" points="184.5,-73 184.5,-103 351.5,-103 351.5,-73 184.5,-73"/>
<text text-anchor="start" x="192.5" y="-91" font-family="Helvetica,sans-Serif" font-size="10.00">Kineis/App/Kineis_os</text>
<text text-anchor="middle" x="268" y="-80" font-family="Helvetica,sans-Serif" font-size="10.00">/KNS_Q/Src/kns_q_cmsis_os2.c</text>
</a>
</g>
</g>
<!-- Node2&#45;&gt;Node7 -->
<g id="edge13" class="edge">
<title>Node2&#45;&gt;Node7</title>
<path fill="none" stroke="midnightblue" d="M420.25,-205.95C383.44,-177.68 318.15,-127.52 286.38,-103.12"/>
<polygon fill="midnightblue" stroke="midnightblue" points="418.46,-208.99 428.52,-212.3 422.72,-203.44 418.46,-208.99"/>
</g>
<!-- Node8 -->
<g id="node8" class="node">
<title>Node8</title>
<g id="a_node8"><a xlink:href="../../d2/d9c/kns__q__freertos_8c.html" target="_top" xlink:title="Configuration of queues used in kineis_swr.">
<polygon fill="white" stroke="black" points="370,-73 370,-103 524,-103 524,-73 370,-73"/>
<text text-anchor="start" x="378" y="-91" font-family="Helvetica,sans-Serif" font-size="10.00">Kineis/App/Kineis_os</text>
<text text-anchor="middle" x="447" y="-80" font-family="Helvetica,sans-Serif" font-size="10.00">/KNS_Q/Src/kns_q_freertos.c</text>
</a>
</g>
</g>
<!-- Node2&#45;&gt;Node8 -->
<g id="edge14" class="edge">
<title>Node2&#45;&gt;Node8</title>
<path fill="none" stroke="midnightblue" d="M447,-202.29C447,-173.61 447,-126.78 447,-103.33"/>
<polygon fill="midnightblue" stroke="midnightblue" points="443.5,-202.3 447,-212.3 450.5,-202.3 443.5,-202.3"/>
</g>
<!-- Node11 -->
<g id="node11" class="node">
<title>Node11</title>
<g id="a_node11"><a xlink:href="../../d2/dae/kns__q__conf_8c.html" target="_top" xlink:title="Configuration of queues used in kineis_swr.">
<polygon fill="white" stroke="black" points="1079.5,-73 1079.5,-103 1188.5,-103 1188.5,-73 1079.5,-73"/>
<text text-anchor="start" x="1087.5" y="-91" font-family="Helvetica,sans-Serif" font-size="10.00">Kineis/Extdep/Conf</text>
<text text-anchor="middle" x="1134" y="-80" font-family="Helvetica,sans-Serif" font-size="10.00">/kns_q_conf.c</text>
</a>
</g>
</g>
<!-- Node2&#45;&gt;Node11 -->
<g id="edge15" class="edge">
<title>Node2&#45;&gt;Node11</title>
<path fill="none" stroke="midnightblue" d="M511.69,-216.97C625.64,-199.6 869.17,-159.84 1071,-109 1077.9,-107.26 1085.15,-105.19 1092.18,-103.05"/>
<polygon fill="midnightblue" stroke="midnightblue" points="511.1,-213.52 501.74,-218.48 512.15,-220.44 511.1,-213.52"/>
</g>
<!-- Node4 -->
<g id="node4" class="node">
<title>Node4</title>
<g id="a_node4"><a xlink:href="../../d0/d29/main_8c.html" target="_top" xlink:title=": Main program body">
<polygon fill="white" stroke="black" points="542.5,-78.5 542.5,-97.5 635.5,-97.5 635.5,-78.5 542.5,-78.5"/>
<text text-anchor="middle" x="589" y="-85.5" font-family="Helvetica,sans-Serif" font-size="10.00">Core/Src/main.c</text>
</a>
</g>
</g>
<!-- Node3&#45;&gt;Node4 -->
<g id="edge3" class="edge">
<title>Node3&#45;&gt;Node4</title>
<path fill="none" stroke="midnightblue" d="M589,-135.09C589,-122.21 589,-107.2 589,-97.89"/>
<polygon fill="midnightblue" stroke="midnightblue" points="585.5,-135.23 589,-145.23 592.5,-135.23 585.5,-135.23"/>
</g>
<!-- Node3&#45;&gt;Node5 -->
<g id="edge4" class="edge">
<title>Node3&#45;&gt;Node5</title>
<path fill="none" stroke="midnightblue" d="M519.79,-153.04C437.35,-144.88 295.62,-129.42 175,-109 164.85,-107.28 154.12,-105.2 143.72,-103.03"/>
<polygon fill="midnightblue" stroke="midnightblue" points="519.5,-156.53 529.79,-154.02 520.18,-149.56 519.5,-156.53"/>
</g>
<!-- Node3&#45;&gt;Node7 -->
<g id="edge6" class="edge">
<title>Node3&#45;&gt;Node7</title>
<path fill="none" stroke="midnightblue" d="M519.95,-144.33C464.15,-132.08 386.22,-114.96 331.86,-103.02"/>
<polygon fill="midnightblue" stroke="midnightblue" points="519.23,-147.76 529.75,-146.49 520.73,-140.92 519.23,-147.76"/>
</g>
<!-- Node3&#45;&gt;Node8 -->
<g id="edge7" class="edge">
<title>Node3&#45;&gt;Node8</title>
<path fill="none" stroke="midnightblue" d="M551.48,-140.87C527.61,-129.02 497.2,-113.92 475.35,-103.07"/>
<polygon fill="midnightblue" stroke="midnightblue" points="550.09,-144.09 560.61,-145.4 553.21,-137.82 550.09,-144.09"/>
</g>
<!-- Node9 -->
<g id="node9" class="node">
<title>Node9</title>
<g id="a_node9"><a xlink:href="../../d4/d0d/kns__app_8c.html" target="_top" xlink:title=" ">
<polygon fill="white" stroke="black" points="654,-78.5 654,-97.5 774,-97.5 774,-78.5 654,-78.5"/>
<text text-anchor="middle" x="714" y="-85.5" font-family="Helvetica,sans-Serif" font-size="10.00">Kineis/App/kns_app.c</text>
</a>
</g>
</g>
<!-- Node3&#45;&gt;Node9 -->
<g id="edge8" class="edge">
<title>Node3&#45;&gt;Node9</title>
<path fill="none" stroke="midnightblue" d="M622.75,-140.47C647.56,-126.47 680.1,-108.12 698.87,-97.53"/>
<polygon fill="midnightblue" stroke="midnightblue" points="620.99,-137.44 614,-145.4 624.42,-143.54 620.99,-137.44"/>
</g>
<!-- Node10 -->
<g id="node10" class="node">
<title>Node10</title>
<g id="a_node10"><a xlink:href="../../d8/d11/mgr__at__cmd__list__user__data_8c.html" target="_top" xlink:title="subset of AT commands concerning user data manipulation such as TX">
<polygon fill="white" stroke="black" points="792,-67.5 792,-108.5 932,-108.5 932,-67.5 792,-67.5"/>
<text text-anchor="start" x="800" y="-96.5" font-family="Helvetica,sans-Serif" font-size="10.00">Kineis/App/Managers</text>
<text text-anchor="start" x="800" y="-85.5" font-family="Helvetica,sans-Serif" font-size="10.00">/MGR_AT_CMD/Src/mgr</text>
<text text-anchor="middle" x="862" y="-74.5" font-family="Helvetica,sans-Serif" font-size="10.00">_at_cmd_list_user_data.c</text>
</a>
</g>
</g>
<!-- Node3&#45;&gt;Node10 -->
<g id="edge9" class="edge">
<title>Node3&#45;&gt;Node10</title>
<path fill="none" stroke="midnightblue" d="M653.02,-142.97C694.65,-132.22 748.95,-118.19 791.77,-107.14"/>
<polygon fill="midnightblue" stroke="midnightblue" points="652.07,-139.6 643.26,-145.49 653.82,-146.38 652.07,-139.6"/>
</g>
<!-- Node3&#45;&gt;Node11 -->
<g id="edge10" class="edge">
<title>Node3&#45;&gt;Node11</title>
<path fill="none" stroke="midnightblue" d="M658.48,-156.65C752.77,-151.78 926.12,-139.26 1071,-109 1078.53,-107.43 1086.43,-105.31 1093.99,-103.04"/>
<polygon fill="midnightblue" stroke="midnightblue" points="658.02,-153.17 648.21,-157.17 658.37,-160.16 658.02,-153.17"/>
</g>
<!-- Node12 -->
<g id="node12" class="node">
<title>Node12</title>
<g id="a_node12"><a xlink:href="../../dd/d8d/mgr__lpm_8c.html" target="_top" xlink:title="low power mode manager is in charge to collect all low power needs from &#39;clients&#39; and setup the corre...">
<polygon fill="white" stroke="black" points="950.5,-73 950.5,-103 1061.5,-103 1061.5,-73 950.5,-73"/>
<text text-anchor="start" x="958.5" y="-91" font-family="Helvetica,sans-Serif" font-size="10.00">Kineis/Lpm/Src/mgr</text>
<text text-anchor="middle" x="1006" y="-80" font-family="Helvetica,sans-Serif" font-size="10.00">_lpm.c</text>
</a>
</g>
</g>
<!-- Node3&#45;&gt;Node12 -->
<g id="edge11" class="edge">
<title>Node3&#45;&gt;Node12</title>
<path fill="none" stroke="midnightblue" d="M658.27,-152.79C729.68,-145.12 843.96,-130.75 941,-109 948.37,-107.35 956.12,-105.27 963.6,-103.09"/>
<polygon fill="midnightblue" stroke="midnightblue" points="657.63,-149.34 648.05,-153.87 658.37,-156.3 657.63,-149.34"/>
</g>
<!-- Node6 -->
<g id="node6" class="node">
<title>Node6</title>
<g id="a_node6"><a xlink:href="../../d7/d30/kns__q_8c.html" target="_top" xlink:title="Configuration of queues used in kineis_swr.">
<polygon fill="white" stroke="black" points="24,-0.5 24,-30.5 142,-30.5 142,-0.5 24,-0.5"/>
<text text-anchor="start" x="32" y="-18.5" font-family="Helvetica,sans-Serif" font-size="10.00">Kineis/App/Kineis_os</text>
<text text-anchor="middle" x="83" y="-7.5" font-family="Helvetica,sans-Serif" font-size="10.00">/KNS_Q/Src/kns_q.c</text>
</a>
</g>
</g>
<!-- Node5&#45;&gt;Node6 -->
<g id="edge5" class="edge">
<title>Node5&#45;&gt;Node6</title>
<path fill="none" stroke="midnightblue" d="M83,-62.73C83,-52.07 83,-39.91 83,-30.75"/>
<polygon fill="midnightblue" stroke="midnightblue" points="79.5,-62.73 83,-72.73 86.5,-62.73 79.5,-62.73"/>
</g>
</g>
</svg>
