<?xml version="1.0" encoding="UTF-8" standalone="no"?>
<!DOCTYPE svg PUBLIC "-//W3C//DTD SVG 1.1//EN"
 "http://www.w3.org/Graphics/SVG/1.1/DTD/svg11.dtd">
<!-- Generated by graphviz version 2.43.0 (0)
 -->
<!-- Title: Kineis/Lib/kns_srvc_common.h Pages: 1 -->
<svg width="1345pt" height="318pt"
 viewBox="0.00 0.00 1344.50 318.00" xmlns="http://www.w3.org/2000/svg" xmlns:xlink="http://www.w3.org/1999/xlink">
<g id="graph0" class="graph" transform="scale(1 1) rotate(0) translate(4 314)">
<title>Kineis/Lib/kns_srvc_common.h</title>
<polygon fill="white" stroke="transparent" points="-4,4 -4,-314 1340.5,-314 1340.5,4 -4,4"/>
<!-- Node1 -->
<g id="node1" class="node">
<title>Node1</title>
<g id="a_node1"><a xlink:title="Common part of Kinéis service layer.">
<polygon fill="#bfbfbf" stroke="black" points="392,-279.5 392,-309.5 502,-309.5 502,-279.5 392,-279.5"/>
<text text-anchor="start" x="400" y="-297.5" font-family="Helvetica,sans-Serif" font-size="10.00">Kineis/Lib/kns_srvc</text>
<text text-anchor="middle" x="447" y="-286.5" font-family="Helvetica,sans-Serif" font-size="10.00">_common.h</text>
</a>
</g>
</g>
<!-- Node2 -->
<g id="node2" class="node">
<title>Node2</title>
<g id="a_node2"><a xlink:href="../../d8/dd1/kns__q__conf_8h.html" target="_top" xlink:title="Configuration of queues used in kineis_sw.">
<polygon fill="white" stroke="black" points="392.5,-212.5 392.5,-242.5 501.5,-242.5 501.5,-212.5 392.5,-212.5"/>
<text text-anchor="start" x="400.5" y="-230.5" font-family="Helvetica,sans-Serif" font-size="10.00">Kineis/Extdep/Conf</text>
<text text-anchor="middle" x="447" y="-219.5" font-family="Helvetica,sans-Serif" font-size="10.00">/kns_q_conf.h</text>
</a>
</g>
</g>
<!-- Node1&#45;&gt;Node2 -->
<g id="edge1" class="edge">
<title>Node1&#45;&gt;Node2</title>
<path fill="none" stroke="midnightblue" d="M447,-269.11C447,-260.15 447,-250.32 447,-242.58"/>
<polygon fill="midnightblue" stroke="midnightblue" points="443.5,-269.4 447,-279.4 450.5,-269.4 443.5,-269.4"/>
</g>
<!-- Node3 -->
<g id="node3" class="node">
<title>Node3</title>
<g id="a_node3"><a xlink:href="../../d0/d84/kns__q_8h.html" target="_top" xlink:title="Configuration of queues used in kineis_swr.">
<polygon fill="white" stroke="black" points="624,-145.5 624,-175.5 742,-175.5 742,-145.5 624,-145.5"/>
<text text-anchor="start" x="632" y="-163.5" font-family="Helvetica,sans-Serif" font-size="10.00">Kineis/App/Kineis_os</text>
<text text-anchor="middle" x="683" y="-152.5" font-family="Helvetica,sans-Serif" font-size="10.00">/KNS_Q/Inc/kns_q.h</text>
</a>
</g>
</g>
<!-- Node2&#45;&gt;Node3 -->
<g id="edge2" class="edge">
<title>Node2&#45;&gt;Node3</title>
<path fill="none" stroke="midnightblue" d="M507.94,-209.71C546.35,-199.14 595.37,-185.63 631.77,-175.61"/>
<polygon fill="midnightblue" stroke="midnightblue" points="506.63,-206.45 497.92,-212.48 508.49,-213.19 506.63,-206.45"/>
</g>
<!-- Node5 -->
<g id="node5" class="node">
<title>Node5</title>
<g id="a_node5"><a xlink:href="../../d0/d08/kns__q__baremetal_8c.html" target="_top" xlink:title="Configuration of queues used in kineis_swr.">
<polygon fill="white" stroke="black" points="0,-73 0,-103 166,-103 166,-73 0,-73"/>
<text text-anchor="start" x="8" y="-91" font-family="Helvetica,sans-Serif" font-size="10.00">Kineis/App/Kineis_os</text>
<text text-anchor="middle" x="83" y="-80" font-family="Helvetica,sans-Serif" font-size="10.00">/KNS_Q/Src/kns_q_baremetal.c</text>
</a>
</g>
</g>
<!-- Node2&#45;&gt;Node5 -->
<g id="edge13" class="edge">
<title>Node2&#45;&gt;Node5</title>
<path fill="none" stroke="midnightblue" d="M400.32,-208.87C327.17,-181.24 187,-128.29 120.19,-103.05"/>
<polygon fill="midnightblue" stroke="midnightblue" points="399.16,-212.17 409.76,-212.43 401.64,-205.62 399.16,-212.17"/>
</g>
<!-- Node7 -->
<g id="node7" class="node">
<title>Node7</title>
<g id="a_node7"><a xlink:href="../../d5/d11/kns__q__cmsis__os2_8c.html" target="_top" xlink:title=" ">
<polygon fill="white" stroke="black" points="184.5,-73 184.5,-103 351.5,-103 351.5,-73 184.5,-73"/>
<text text-anchor="start" x="192.5" y="-91" font-family="Helvetica,sans-Serif" font-size="10.00">Kineis/App/Kineis_os</text>
<text text-anchor="middle" x="268" y="-80" font-family="Helvetica,sans-Serif" font-size="10.00">/KNS_Q/Src/kns_q_cmsis_os2.c</text>
</a>
</g>
</g>
<!-- Node2&#45;&gt;Node7 -->
<g id="edge14" class="edge">
<title>Node2&#45;&gt;Node7</title>
<path fill="none" stroke="midnightblue" d="M420.25,-205.95C383.44,-177.68 318.15,-127.52 286.38,-103.12"/>
<polygon fill="midnightblue" stroke="midnightblue" points="418.46,-208.99 428.52,-212.3 422.72,-203.44 418.46,-208.99"/>
</g>
<!-- Node8 -->
<g id="node8" class="node">
<title>Node8</title>
<g id="a_node8"><a xlink:href="../../d2/d9c/kns__q__freertos_8c.html" target="_top" xlink:title="Configuration of queues used in kineis_swr.">
<polygon fill="white" stroke="black" points="370,-73 370,-103 524,-103 524,-73 370,-73"/>
<text text-anchor="start" x="378" y="-91" font-family="Helvetica,sans-Serif" font-size="10.00">Kineis/App/Kineis_os</text>
<text text-anchor="middle" x="447" y="-80" font-family="Helvetica,sans-Serif" font-size="10.00">/KNS_Q/Src/kns_q_freertos.c</text>
</a>
</g>
</g>
<!-- Node2&#45;&gt;Node8 -->
<g id="edge15" class="edge">
<title>Node2&#45;&gt;Node8</title>
<path fill="none" stroke="midnightblue" d="M447,-202.29C447,-173.61 447,-126.78 447,-103.33"/>
<polygon fill="midnightblue" stroke="midnightblue" points="443.5,-202.3 447,-212.3 450.5,-202.3 443.5,-202.3"/>
</g>
<!-- Node12 -->
<g id="node12" class="node">
<title>Node12</title>
<g id="a_node12"><a xlink:href="../../d2/dae/kns__q__conf_8c.html" target="_top" xlink:title="Configuration of queues used in kineis_swr.">
<polygon fill="white" stroke="black" points="1227.5,-73 1227.5,-103 1336.5,-103 1336.5,-73 1227.5,-73"/>
<text text-anchor="start" x="1235.5" y="-91" font-family="Helvetica,sans-Serif" font-size="10.00">Kineis/Extdep/Conf</text>
<text text-anchor="middle" x="1282" y="-80" font-family="Helvetica,sans-Serif" font-size="10.00">/kns_q_conf.c</text>
</a>
</g>
</g>
<!-- Node2&#45;&gt;Node12 -->
<g id="edge16" class="edge">
<title>Node2&#45;&gt;Node12</title>
<path fill="none" stroke="midnightblue" d="M511.8,-219.98C645.18,-205.84 959.56,-168.71 1218,-109 1225.26,-107.32 1232.89,-105.23 1240.25,-103.04"/>
<polygon fill="midnightblue" stroke="midnightblue" points="511.33,-216.52 501.75,-221.04 512.06,-223.48 511.33,-216.52"/>
</g>
<!-- Node4 -->
<g id="node4" class="node">
<title>Node4</title>
<g id="a_node4"><a xlink:href="../../d0/d29/main_8c.html" target="_top" xlink:title=": Main program body">
<polygon fill="white" stroke="black" points="977.5,-78.5 977.5,-97.5 1070.5,-97.5 1070.5,-78.5 977.5,-78.5"/>
<text text-anchor="middle" x="1024" y="-85.5" font-family="Helvetica,sans-Serif" font-size="10.00">Core/Src/main.c</text>
</a>
</g>
</g>
<!-- Node3&#45;&gt;Node4 -->
<g id="edge3" class="edge">
<title>Node3&#45;&gt;Node4</title>
<path fill="none" stroke="midnightblue" d="M752.48,-150.68C810.86,-142.46 896.18,-128.51 969,-109 980.48,-105.92 992.96,-101.48 1003.12,-97.56"/>
<polygon fill="midnightblue" stroke="midnightblue" points="751.69,-147.26 742.26,-152.1 752.65,-154.19 751.69,-147.26"/>
</g>
<!-- Node3&#45;&gt;Node5 -->
<g id="edge4" class="edge">
<title>Node3&#45;&gt;Node5</title>
<path fill="none" stroke="midnightblue" d="M613.58,-155.14C515.46,-148.4 330.79,-133.59 175,-109 164.51,-107.34 153.41,-105.24 142.69,-103.02"/>
<polygon fill="midnightblue" stroke="midnightblue" points="613.45,-158.64 623.67,-155.82 613.93,-151.65 613.45,-158.64"/>
</g>
<!-- Node3&#45;&gt;Node7 -->
<g id="edge6" class="edge">
<title>Node3&#45;&gt;Node7</title>
<path fill="none" stroke="midnightblue" d="M613.6,-149.77C548.26,-140.33 447.74,-125.12 361,-109 351.26,-107.19 340.97,-105.13 330.94,-103.04"/>
<polygon fill="midnightblue" stroke="midnightblue" points="613.38,-153.27 623.78,-151.23 614.38,-146.34 613.38,-153.27"/>
</g>
<!-- Node3&#45;&gt;Node8 -->
<g id="edge7" class="edge">
<title>Node3&#45;&gt;Node8</title>
<path fill="none" stroke="midnightblue" d="M626.39,-142.59C586,-130.52 532.31,-114.48 494.22,-103.11"/>
<polygon fill="midnightblue" stroke="midnightblue" points="625.51,-145.98 636.09,-145.49 627.51,-139.27 625.51,-145.98"/>
</g>
<!-- Node9 -->
<g id="node9" class="node">
<title>Node9</title>
<g id="a_node9"><a xlink:href="../../d4/d0d/kns__app_8c.html" target="_top" xlink:title=" ">
<polygon fill="white" stroke="black" points="1089,-78.5 1089,-97.5 1209,-97.5 1209,-78.5 1089,-78.5"/>
<text text-anchor="middle" x="1149" y="-85.5" font-family="Helvetica,sans-Serif" font-size="10.00">Kineis/App/kns_app.c</text>
</a>
</g>
</g>
<!-- Node3&#45;&gt;Node9 -->
<g id="edge8" class="edge">
<title>Node3&#45;&gt;Node9</title>
<path fill="none" stroke="midnightblue" d="M752.73,-153.94C832.44,-146.82 966.55,-132.51 1080,-109 1094.41,-106.01 1110.2,-101.53 1123.03,-97.57"/>
<polygon fill="midnightblue" stroke="midnightblue" points="751.98,-150.49 742.33,-154.85 752.6,-157.46 751.98,-150.49"/>
</g>
<!-- Node10 -->
<g id="node10" class="node">
<title>Node10</title>
<g id="a_node10"><a xlink:href="../../d1/de0/mgr__at__cmd__list__mac_8c.html" target="_top" xlink:title="subset of AT commands concerning Kinéis Medium Acces Channel (MAC).">
<polygon fill="white" stroke="black" points="542,-67.5 542,-108.5 672,-108.5 672,-67.5 542,-67.5"/>
<text text-anchor="start" x="550" y="-96.5" font-family="Helvetica,sans-Serif" font-size="10.00">Kineis/App/Managers</text>
<text text-anchor="start" x="550" y="-85.5" font-family="Helvetica,sans-Serif" font-size="10.00">/MGR_AT_CMD/Src/mgr</text>
<text text-anchor="middle" x="607" y="-74.5" font-family="Helvetica,sans-Serif" font-size="10.00">_at_cmd_list_mac.c</text>
</a>
</g>
</g>
<!-- Node3&#45;&gt;Node10 -->
<g id="edge9" class="edge">
<title>Node3&#45;&gt;Node10</title>
<path fill="none" stroke="midnightblue" d="M660.23,-138.38C650.04,-128.93 638.1,-117.85 628.12,-108.59"/>
<polygon fill="midnightblue" stroke="midnightblue" points="657.91,-141 667.62,-145.23 662.67,-135.87 657.91,-141"/>
</g>
<!-- Node11 -->
<g id="node11" class="node">
<title>Node11</title>
<g id="a_node11"><a xlink:href="../../d8/d11/mgr__at__cmd__list__user__data_8c.html" target="_top" xlink:title="subset of AT commands concerning user data manipulation such as TX">
<polygon fill="white" stroke="black" points="690,-67.5 690,-108.5 830,-108.5 830,-67.5 690,-67.5"/>
<text text-anchor="start" x="698" y="-96.5" font-family="Helvetica,sans-Serif" font-size="10.00">Kineis/App/Managers</text>
<text text-anchor="start" x="698" y="-85.5" font-family="Helvetica,sans-Serif" font-size="10.00">/MGR_AT_CMD/Src/mgr</text>
<text text-anchor="middle" x="760" y="-74.5" font-family="Helvetica,sans-Serif" font-size="10.00">_at_cmd_list_user_data.c</text>
</a>
</g>
</g>
<!-- Node3&#45;&gt;Node11 -->
<g id="edge10" class="edge">
<title>Node3&#45;&gt;Node11</title>
<path fill="none" stroke="midnightblue" d="M706.07,-138.38C716.39,-128.93 728.49,-117.85 738.61,-108.59"/>
<polygon fill="midnightblue" stroke="midnightblue" points="703.59,-135.9 698.58,-145.23 708.32,-141.06 703.59,-135.9"/>
</g>
<!-- Node3&#45;&gt;Node12 -->
<g id="edge11" class="edge">
<title>Node3&#45;&gt;Node12</title>
<path fill="none" stroke="midnightblue" d="M752.4,-157.57C855.08,-153.67 1053.09,-142.17 1218,-109 1225.65,-107.46 1233.67,-105.36 1241.36,-103.09"/>
<polygon fill="midnightblue" stroke="midnightblue" points="752.03,-154.08 742.17,-157.94 752.29,-161.07 752.03,-154.08"/>
</g>
<!-- Node13 -->
<g id="node13" class="node">
<title>Node13</title>
<g id="a_node13"><a xlink:href="../../dd/d8d/mgr__lpm_8c.html" target="_top" xlink:title="low power mode manager is in charge to collect all low power needs from &#39;clients&#39; and setup the corre...">
<polygon fill="white" stroke="black" points="848.5,-73 848.5,-103 959.5,-103 959.5,-73 848.5,-73"/>
<text text-anchor="start" x="856.5" y="-91" font-family="Helvetica,sans-Serif" font-size="10.00">Kineis/Lpm/Src/mgr</text>
<text text-anchor="middle" x="904" y="-80" font-family="Helvetica,sans-Serif" font-size="10.00">_lpm.c</text>
</a>
</g>
</g>
<!-- Node3&#45;&gt;Node13 -->
<g id="edge12" class="edge">
<title>Node3&#45;&gt;Node13</title>
<path fill="none" stroke="midnightblue" d="M736.73,-142.36C774.47,-130.32 824.34,-114.41 859.78,-103.11"/>
<polygon fill="midnightblue" stroke="midnightblue" points="735.39,-139.11 726.93,-145.49 737.52,-145.78 735.39,-139.11"/>
</g>
<!-- Node6 -->
<g id="node6" class="node">
<title>Node6</title>
<g id="a_node6"><a xlink:href="../../d7/d30/kns__q_8c.html" target="_top" xlink:title="Configuration of queues used in kineis_swr.">
<polygon fill="white" stroke="black" points="24,-0.5 24,-30.5 142,-30.5 142,-0.5 24,-0.5"/>
<text text-anchor="start" x="32" y="-18.5" font-family="Helvetica,sans-Serif" font-size="10.00">Kineis/App/Kineis_os</text>
<text text-anchor="middle" x="83" y="-7.5" font-family="Helvetica,sans-Serif" font-size="10.00">/KNS_Q/Src/kns_q.c</text>
</a>
</g>
</g>
<!-- Node5&#45;&gt;Node6 -->
<g id="edge5" class="edge">
<title>Node5&#45;&gt;Node6</title>
<path fill="none" stroke="midnightblue" d="M83,-62.73C83,-52.07 83,-39.91 83,-30.75"/>
<polygon fill="midnightblue" stroke="midnightblue" points="79.5,-62.73 83,-72.73 86.5,-62.73 79.5,-62.73"/>
</g>
</g>
</svg>
