<?xml version="1.0" encoding="UTF-8" standalone="no"?>
<!DOCTYPE svg PUBLIC "-//W3C//DTD SVG 1.1//EN"
 "http://www.w3.org/Graphics/SVG/1.1/DTD/svg11.dtd">
<!-- Generated by graphviz version 2.43.0 (0)
 -->
<!-- Title: Kineis/App/Managers/MGR_AT_CMD/Src/mgr_at_cmd_list_user_data.c Pages: 1 -->
<!--zoomable 341 -->
<svg id="main" version="1.1" xmlns="http://www.w3.org/2000/svg" xmlns:xlink="http://www.w3.org/1999/xlink" xml:space="preserve" onload="init(evt)">
<style type="text/css"><![CDATA[
.edge:hover path { stroke: red; }
.edge:hover polygon { stroke: red; fill: red; }
]]></style>
<script type="text/javascript"><![CDATA[
var edges = document.getElementsByTagName('g');
if (edges && edges.length) {
  for (var i=0;i<edges.length;i++) {
    if (edges[i].id.substr(0,4)=='edge') {
      edges[i].setAttribute('class','edge');
    }
  }
}
]]></script>
        <defs>
                <circle id="rim" cx="0" cy="0" r="7"/>
                <circle id="rim2" cx="0" cy="0" r="3.5"/>
                <g id="zoomPlus">
                        <use xlink:href="#rim" fill="#404040">
                                <set attributeName="fill" to="#808080" begin="zoomplus.mouseover" end="zoomplus.mouseout"/>
                        </use>
                        <path d="M-4,0h8M0,-4v8" fill="none" stroke="white" stroke-width="1.5" pointer-events="none"/>
                </g>
                <g id="zoomMin">
                        <use xlink:href="#rim" fill="#404040">
                                <set attributeName="fill" to="#808080" begin="zoomminus.mouseover" end="zoomminus.mouseout"/>
                        </use>
                        <path d="M-4,0h8" fill="none" stroke="white" stroke-width="1.5" pointer-events="none"/>
                </g>
                <g id="dirArrow">
                        <path fill="none" stroke="white" stroke-width="1.5" d="M0,-3.0v7 M-2.5,-0.5L0,-3.0L2.5,-0.5"/>
                </g>
               <g id="resetDef">
                       <use xlink:href="#rim2" fill="#404040">
                               <set attributeName="fill" to="#808080" begin="reset.mouseover" end="reset.mouseout"/>
                       </use>
               </g>
        </defs>

<script type="text/javascript">
var viewWidth = 1014;
var viewHeight = 341;
var sectionId = 'dynsection-0';
</script>
<script xlink:href="../../svgpan.js"/>
<svg id="graph" class="graph">
<g id="viewport">
<title>Kineis/App/Managers/MGR_AT_CMD/Src/mgr_at_cmd_list_user_data.c</title>
<polygon fill="white" stroke="transparent" points="-4,4 -4,-337 1010,-337 1010,4 -4,4"/>
<!-- Node1 -->
<g id="node1" class="node">
<title>Node1</title>
<g id="a_node1"><a xlink:title="subset of AT commands concerning user data manipulation such as TX">
<polygon fill="#bfbfbf" stroke="black" points="302,-291.5 302,-332.5 442,-332.5 442,-291.5 302,-291.5"/>
<text text-anchor="start" x="310" y="-320.5" font-family="Helvetica,sans-Serif" font-size="10.00">Kineis/App/Managers</text>
<text text-anchor="start" x="310" y="-309.5" font-family="Helvetica,sans-Serif" font-size="10.00">/MGR_AT_CMD/Src/mgr</text>
<text text-anchor="middle" x="372" y="-298.5" font-family="Helvetica,sans-Serif" font-size="10.00">_at_cmd_list_user_data.c</text>
</a>
</g>
</g>
<!-- Node2 -->
<g id="node2" class="node">
<title>Node2</title>
<g id="a_node2"><a xlink:title=" ">
<polygon fill="white" stroke="#bfbfbf" points="0,-230 0,-249 50,-249 50,-230 0,-230"/>
<text text-anchor="middle" x="25" y="-237" font-family="Helvetica,sans-Serif" font-size="10.00">stdio.h</text>
</a>
</g>
</g>
<!-- Node1&#45;&gt;Node2 -->
<g id="edge1" class="edge">
<title>Node1&#45;&gt;Node2</title>
<path fill="none" stroke="midnightblue" d="M301.95,-303.08C237.81,-294.74 140.73,-279.39 59,-255 56.85,-254.36 54.66,-253.62 52.47,-252.83"/>
<polygon fill="midnightblue" stroke="midnightblue" points="53.66,-249.54 43.07,-249.1 51.08,-256.04 53.66,-249.54"/>
</g>
<!-- Node3 -->
<g id="node3" class="node">
<title>Node3</title>
<g id="a_node3"><a xlink:title=" ">
<polygon fill="white" stroke="#bfbfbf" points="68.5,-230 68.5,-249 121.5,-249 121.5,-230 68.5,-230"/>
<text text-anchor="middle" x="95" y="-237" font-family="Helvetica,sans-Serif" font-size="10.00">string.h</text>
</a>
</g>
</g>
<!-- Node1&#45;&gt;Node3 -->
<g id="edge2" class="edge">
<title>Node1&#45;&gt;Node3</title>
<path fill="none" stroke="midnightblue" d="M301.78,-296.4C254.57,-286.08 191.14,-271.24 136,-255 133.22,-254.18 130.34,-253.28 127.47,-252.34"/>
<polygon fill="midnightblue" stroke="midnightblue" points="128.44,-248.97 117.84,-249.07 126.18,-255.6 128.44,-248.97"/>
</g>
<!-- Node4 -->
<g id="node4" class="node">
<title>Node4</title>
<g id="a_node4"><a xlink:href="../../d8/d85/kns__types_8h.html" target="_top" xlink:title="Kineis types definition.">
<polygon fill="white" stroke="black" points="188.5,-56.5 188.5,-75.5 263.5,-75.5 263.5,-56.5 188.5,-56.5"/>
<text text-anchor="middle" x="226" y="-63.5" font-family="Helvetica,sans-Serif" font-size="10.00">kns_types.h</text>
</a>
</g>
</g>
<!-- Node1&#45;&gt;Node4 -->
<g id="edge3" class="edge">
<title>Node1&#45;&gt;Node4</title>
<path fill="none" stroke="midnightblue" d="M305.69,-291.37C257.66,-273.18 196.54,-240.8 169,-188 149.61,-150.82 185.94,-105.88 209.03,-82.64"/>
<polygon fill="midnightblue" stroke="midnightblue" points="211.51,-85.1 216.25,-75.62 206.64,-80.08 211.51,-85.1"/>
</g>
<!-- Node6 -->
<g id="node6" class="node">
<title>Node6</title>
<g id="a_node6"><a xlink:href="../../d3/d6a/user__data_8h.html" target="_top" xlink:title="Library to handle user data to be be received or transmitted over the air through several networks (e...">
<polygon fill="white" stroke="black" points="932,-112.5 932,-131.5 1006,-131.5 1006,-112.5 932,-112.5"/>
<text text-anchor="middle" x="969" y="-119.5" font-family="Helvetica,sans-Serif" font-size="10.00">user_data.h</text>
</a>
</g>
</g>
<!-- Node1&#45;&gt;Node6 -->
<g id="edge5" class="edge">
<title>Node1&#45;&gt;Node6</title>
<path fill="none" stroke="midnightblue" d="M442.1,-304.33C507.64,-296.78 607.65,-281.88 691,-255 775.56,-227.72 790.62,-205.87 871,-168 894.47,-156.94 921.25,-144.67 940.88,-135.74"/>
<polygon fill="midnightblue" stroke="midnightblue" points="942.51,-138.84 950.16,-131.52 939.61,-132.47 942.51,-138.84"/>
</g>
<!-- Node8 -->
<g id="node8" class="node">
<title>Node8</title>
<g id="a_node8"><a xlink:href="../../de/de6/mgr__at__cmd__list__user__data_8h.html" target="_top" xlink:title="subset of AT commands concerning user data manipulation such as TX">
<polygon fill="white" stroke="black" points="417,-224.5 417,-254.5 541,-254.5 541,-224.5 417,-224.5"/>
<text text-anchor="start" x="425" y="-242.5" font-family="Helvetica,sans-Serif" font-size="10.00">mgr_at_cmd_list_user</text>
<text text-anchor="middle" x="479" y="-231.5" font-family="Helvetica,sans-Serif" font-size="10.00">_data.h</text>
</a>
</g>
</g>
<!-- Node1&#45;&gt;Node8 -->
<g id="edge8" class="edge">
<title>Node1&#45;&gt;Node8</title>
<path fill="none" stroke="midnightblue" d="M401.81,-291.36C416.45,-281.71 434.07,-270.11 448.77,-260.42"/>
<polygon fill="midnightblue" stroke="midnightblue" points="451.07,-263.09 457.49,-254.67 447.22,-257.25 451.07,-263.09"/>
</g>
<!-- Node12 -->
<g id="node12" class="node">
<title>Node12</title>
<g id="a_node12"><a xlink:href="../../d9/dc4/kineis__sw__conf_8h.html" target="_top" xlink:title="Kineis stack SW configurations depending on platform used.">
<polygon fill="white" stroke="black" points="814.5,-112.5 814.5,-131.5 913.5,-131.5 913.5,-112.5 814.5,-112.5"/>
<text text-anchor="middle" x="864" y="-119.5" font-family="Helvetica,sans-Serif" font-size="10.00">kineis_sw_conf.h</text>
</a>
</g>
</g>
<!-- Node1&#45;&gt;Node12 -->
<g id="edge38" class="edge">
<title>Node1&#45;&gt;Node12</title>
<path fill="none" stroke="midnightblue" d="M442.37,-300.75C529.46,-285.83 680.16,-252.57 794,-188 816.43,-175.28 837.43,-154.03 850.47,-139.31"/>
<polygon fill="midnightblue" stroke="midnightblue" points="853.31,-141.37 857.18,-131.51 848.01,-136.81 853.31,-141.37"/>
</g>
<!-- Node13 -->
<g id="node13" class="node">
<title>Node13</title>
<g id="a_node13"><a xlink:href="../../d0/d84/kns__q_8h.html" target="_top" xlink:title="Configuration of queues used in kineis_swr.">
<polygon fill="white" stroke="black" points="345,-230 345,-249 399,-249 399,-230 345,-230"/>
<text text-anchor="middle" x="372" y="-237" font-family="Helvetica,sans-Serif" font-size="10.00">kns_q.h</text>
</a>
</g>
</g>
<!-- Node1&#45;&gt;Node13 -->
<g id="edge18" class="edge">
<title>Node1&#45;&gt;Node13</title>
<path fill="none" stroke="midnightblue" d="M372,-291.36C372,-281.3 372,-269.1 372,-259.18"/>
<polygon fill="midnightblue" stroke="midnightblue" points="375.5,-259.17 372,-249.17 368.5,-259.17 375.5,-259.17"/>
</g>
<!-- Node17 -->
<g id="node17" class="node">
<title>Node17</title>
<g id="a_node17"><a xlink:href="../../d7/d1a/kns__mac_8h.html" target="_top" xlink:title="Main header file for MAC layer of Kineis stack.">
<polygon fill="white" stroke="black" points="178.5,-168.5 178.5,-187.5 247.5,-187.5 247.5,-168.5 178.5,-168.5"/>
<text text-anchor="middle" x="213" y="-175.5" font-family="Helvetica,sans-Serif" font-size="10.00">kns_mac.h</text>
</a>
</g>
</g>
<!-- Node1&#45;&gt;Node17 -->
<g id="edge33" class="edge">
<title>Node1&#45;&gt;Node17</title>
<path fill="none" stroke="midnightblue" d="M348.2,-291.24C316.32,-264.78 260.44,-218.38 231.52,-194.37"/>
<polygon fill="midnightblue" stroke="midnightblue" points="233.39,-191.38 223.46,-187.69 228.92,-196.77 233.39,-191.38"/>
</g>
<!-- Node19 -->
<g id="node19" class="node">
<title>Node19</title>
<g id="a_node19"><a xlink:href="../../d2/d2e/mgr__log_8h.html" target="_top" xlink:title="logger main header file">
<polygon fill="white" stroke="black" points="884.5,-230 884.5,-249 949.5,-249 949.5,-230 884.5,-230"/>
<text text-anchor="middle" x="917" y="-237" font-family="Helvetica,sans-Serif" font-size="10.00">mgr_log.h</text>
</a>
</g>
</g>
<!-- Node1&#45;&gt;Node19 -->
<g id="edge39" class="edge">
<title>Node1&#45;&gt;Node19</title>
<path fill="none" stroke="midnightblue" d="M442.34,-306.54C538.47,-299.64 715.98,-284.05 865,-255 869.75,-254.07 874.7,-252.93 879.58,-251.7"/>
<polygon fill="midnightblue" stroke="midnightblue" points="880.64,-255.04 889.4,-249.07 878.83,-248.27 880.64,-255.04"/>
</g>
<!-- Node5 -->
<g id="node5" class="node">
<title>Node5</title>
<g id="a_node5"><a xlink:title=" ">
<polygon fill="white" stroke="#bfbfbf" points="431.5,-0.5 431.5,-19.5 484.5,-19.5 484.5,-0.5 431.5,-0.5"/>
<text text-anchor="middle" x="458" y="-7.5" font-family="Helvetica,sans-Serif" font-size="10.00">stdint.h</text>
</a>
</g>
</g>
<!-- Node4&#45;&gt;Node5 -->
<g id="edge4" class="edge">
<title>Node4&#45;&gt;Node5</title>
<path fill="none" stroke="midnightblue" d="M262.76,-56.44C306.17,-46.34 377.94,-29.63 421.32,-19.54"/>
<polygon fill="midnightblue" stroke="midnightblue" points="422.23,-22.92 431.18,-17.24 420.64,-16.1 422.23,-22.92"/>
</g>
<!-- Node6&#45;&gt;Node5 -->
<g id="edge7" class="edge">
<title>Node6&#45;&gt;Node5</title>
<path fill="none" stroke="midnightblue" d="M950.71,-112.31C920.2,-98.19 856.67,-70.41 800,-56 691.09,-28.31 558.09,-17.03 494.83,-12.99"/>
<polygon fill="midnightblue" stroke="midnightblue" points="494.77,-9.48 484.57,-12.36 494.34,-16.46 494.77,-9.48"/>
</g>
<!-- Node7 -->
<g id="node7" class="node">
<title>Node7</title>
<g id="a_node7"><a xlink:title=" ">
<polygon fill="white" stroke="#bfbfbf" points="579,-56.5 579,-75.5 641,-75.5 641,-56.5 579,-56.5"/>
<text text-anchor="middle" x="610" y="-63.5" font-family="Helvetica,sans-Serif" font-size="10.00">stdbool.h</text>
</a>
</g>
</g>
<!-- Node6&#45;&gt;Node7 -->
<g id="edge6" class="edge">
<title>Node6&#45;&gt;Node7</title>
<path fill="none" stroke="midnightblue" d="M931.88,-113.53C928.88,-112.99 925.89,-112.47 923,-112 805.41,-92.76 772.22,-97.2 651.4,-76.11"/>
<polygon fill="midnightblue" stroke="midnightblue" points="651.85,-72.64 641.39,-74.34 650.63,-79.53 651.85,-72.64"/>
</g>
<!-- Node8&#45;&gt;Node4 -->
<g id="edge9" class="edge">
<title>Node8&#45;&gt;Node4</title>
<path fill="none" stroke="midnightblue" d="M437.82,-224.47C378.06,-203.35 271.53,-162.61 245,-132 233.82,-119.1 229.21,-99.93 227.31,-85.74"/>
<polygon fill="midnightblue" stroke="midnightblue" points="230.78,-85.25 226.3,-75.65 223.82,-85.95 230.78,-85.25"/>
</g>
<!-- Node9 -->
<g id="node9" class="node">
<title>Node9</title>
<g id="a_node9"><a xlink:href="../../d5/d58/mgr__at__cmd__common_8h.html" target="_top" xlink:title="header file for common part of the AT cmd manager">
<polygon fill="white" stroke="black" points="651,-168.5 651,-187.5 785,-187.5 785,-168.5 651,-168.5"/>
<text text-anchor="middle" x="718" y="-175.5" font-family="Helvetica,sans-Serif" font-size="10.00">mgr_at_cmd_common.h</text>
</a>
</g>
</g>
<!-- Node8&#45;&gt;Node9 -->
<g id="edge10" class="edge">
<title>Node8&#45;&gt;Node9</title>
<path fill="none" stroke="midnightblue" d="M535.34,-224.47C577.65,-213.94 634.79,-199.72 673.82,-190"/>
<polygon fill="midnightblue" stroke="midnightblue" points="674.97,-193.32 683.83,-187.51 673.28,-186.53 674.97,-193.32"/>
</g>
<!-- Node9&#45;&gt;Node5 -->
<g id="edge11" class="edge">
<title>Node9&#45;&gt;Node5</title>
<path fill="none" stroke="midnightblue" d="M732.37,-168.33C743.88,-160.47 759.19,-147.72 766,-132 780.25,-99.11 767.75,-77.41 739,-56 701.01,-27.71 562.29,-16.55 495.04,-12.73"/>
<polygon fill="midnightblue" stroke="midnightblue" points="495.07,-9.23 484.89,-12.18 494.69,-16.22 495.07,-9.23"/>
</g>
<!-- Node9&#45;&gt;Node7 -->
<g id="edge12" class="edge">
<title>Node9&#45;&gt;Node7</title>
<path fill="none" stroke="midnightblue" d="M709.53,-168.37C691.39,-149.89 648.58,-106.29 625.46,-82.74"/>
<polygon fill="midnightblue" stroke="midnightblue" points="627.94,-80.28 618.44,-75.59 622.94,-85.18 627.94,-80.28"/>
</g>
<!-- Node10 -->
<g id="node10" class="node">
<title>Node10</title>
<g id="a_node10"><a xlink:href="../../df/d36/strutil__lib_8h.html" target="_top" xlink:title="small utilities to manipulate strings">
<polygon fill="white" stroke="black" points="686.5,-112.5 686.5,-131.5 757.5,-131.5 757.5,-112.5 686.5,-112.5"/>
<text text-anchor="middle" x="722" y="-119.5" font-family="Helvetica,sans-Serif" font-size="10.00">strutil_lib.h</text>
</a>
</g>
</g>
<!-- Node9&#45;&gt;Node10 -->
<g id="edge13" class="edge">
<title>Node9&#45;&gt;Node10</title>
<path fill="none" stroke="midnightblue" d="M718.66,-168.08C719.18,-161.01 719.94,-150.86 720.59,-141.99"/>
<polygon fill="midnightblue" stroke="midnightblue" points="724.1,-141.98 721.35,-131.75 717.12,-141.47 724.1,-141.98"/>
</g>
<!-- Node9&#45;&gt;Node12 -->
<g id="edge17" class="edge">
<title>Node9&#45;&gt;Node12</title>
<path fill="none" stroke="midnightblue" d="M741.13,-168.44C765.48,-159.44 804.01,-145.19 831.42,-135.05"/>
<polygon fill="midnightblue" stroke="midnightblue" points="832.81,-138.27 840.97,-131.52 830.38,-131.7 832.81,-138.27"/>
</g>
<!-- Node10&#45;&gt;Node5 -->
<g id="edge14" class="edge">
<title>Node10&#45;&gt;Node5</title>
<path fill="none" stroke="midnightblue" d="M725.01,-112.21C729.12,-98.45 734.51,-71.77 721,-56 692.24,-22.43 560.16,-13.9 494.82,-11.74"/>
<polygon fill="midnightblue" stroke="midnightblue" points="494.66,-8.23 484.56,-11.43 494.45,-15.23 494.66,-8.23"/>
</g>
<!-- Node10&#45;&gt;Node7 -->
<g id="edge15" class="edge">
<title>Node10&#45;&gt;Node7</title>
<path fill="none" stroke="midnightblue" d="M704.01,-112.32C685.96,-103.62 657.95,-90.12 637.2,-80.11"/>
<polygon fill="midnightblue" stroke="midnightblue" points="638.48,-76.84 627.95,-75.65 635.44,-83.15 638.48,-76.84"/>
</g>
<!-- Node11 -->
<g id="node11" class="node">
<title>Node11</title>
<g id="a_node11"><a xlink:title=" ">
<polygon fill="white" stroke="#bfbfbf" points="659.5,-56.5 659.5,-75.5 712.5,-75.5 712.5,-56.5 659.5,-56.5"/>
<text text-anchor="middle" x="686" y="-63.5" font-family="Helvetica,sans-Serif" font-size="10.00">stdlib.h</text>
</a>
</g>
</g>
<!-- Node10&#45;&gt;Node11 -->
<g id="edge16" class="edge">
<title>Node10&#45;&gt;Node11</title>
<path fill="none" stroke="midnightblue" d="M716.06,-112.08C711.02,-104.53 703.66,-93.49 697.49,-84.23"/>
<polygon fill="midnightblue" stroke="midnightblue" points="700.29,-82.13 691.83,-75.75 694.47,-86.01 700.29,-82.13"/>
</g>
<!-- Node13&#45;&gt;Node4 -->
<g id="edge21" class="edge">
<title>Node13&#45;&gt;Node4</title>
<path fill="none" stroke="midnightblue" d="M357.55,-229.96C319.73,-207.46 220.15,-147.22 212,-132 204.09,-117.24 209.64,-98.34 215.93,-84.73"/>
<polygon fill="midnightblue" stroke="midnightblue" points="219.21,-86 220.68,-75.51 212.99,-82.8 219.21,-86"/>
</g>
<!-- Node13&#45;&gt;Node5 -->
<g id="edge20" class="edge">
<title>Node13&#45;&gt;Node5</title>
<path fill="none" stroke="midnightblue" d="M372.02,-229.89C372.35,-208.96 374.81,-154.07 391,-112 403.58,-79.3 428.14,-46.41 443.77,-27.41"/>
<polygon fill="midnightblue" stroke="midnightblue" points="446.49,-29.62 450.25,-19.71 441.14,-25.11 446.49,-29.62"/>
</g>
<!-- Node13&#45;&gt;Node7 -->
<g id="edge19" class="edge">
<title>Node13&#45;&gt;Node7</title>
<path fill="none" stroke="midnightblue" d="M392.89,-229.94C397.83,-227.96 403.09,-225.88 408,-224 489.69,-192.71 527.81,-200.67 582,-132 592.93,-118.15 600.41,-99.38 604.87,-85.57"/>
<polygon fill="midnightblue" stroke="midnightblue" points="608.29,-86.34 607.81,-75.75 601.59,-84.33 608.29,-86.34"/>
</g>
<!-- Node14 -->
<g id="node14" class="node">
<title>Node14</title>
<g id="a_node14"><a xlink:href="../../d8/dd1/kns__q__conf_8h.html" target="_top" xlink:title="Configuration of queues used in kineis_sw.">
<polygon fill="white" stroke="black" points="418,-168.5 418,-187.5 498,-187.5 498,-168.5 418,-168.5"/>
<text text-anchor="middle" x="458" y="-175.5" font-family="Helvetica,sans-Serif" font-size="10.00">kns_q_conf.h</text>
</a>
</g>
</g>
<!-- Node13&#45;&gt;Node14 -->
<g id="edge22" class="edge">
<title>Node13&#45;&gt;Node14</title>
<path fill="none" stroke="midnightblue" d="M384.32,-229.98C398.12,-220.43 420.7,-204.81 437.23,-193.37"/>
<polygon fill="midnightblue" stroke="midnightblue" points="439.47,-196.08 445.7,-187.51 435.49,-190.32 439.47,-196.08"/>
</g>
<!-- Node14&#45;&gt;Node5 -->
<g id="edge24" class="edge">
<title>Node14&#45;&gt;Node5</title>
<path fill="none" stroke="midnightblue" d="M480.79,-168.47C496.33,-161.32 515.71,-149.44 525,-132 529.18,-124.16 527.57,-120.51 525,-112 514.89,-78.46 489.59,-45.82 473.13,-27.1"/>
<polygon fill="midnightblue" stroke="midnightblue" points="475.59,-24.6 466.28,-19.53 470.39,-29.29 475.59,-24.6"/>
</g>
<!-- Node14&#45;&gt;Node7 -->
<g id="edge23" class="edge">
<title>Node14&#45;&gt;Node7</title>
<path fill="none" stroke="midnightblue" d="M485.79,-168.5C507,-161.1 536.18,-148.91 558,-132 575.07,-118.76 589.94,-98.82 599.35,-84.52"/>
<polygon fill="midnightblue" stroke="midnightblue" points="602.57,-85.99 604.96,-75.67 596.65,-82.24 602.57,-85.99"/>
</g>
<!-- Node15 -->
<g id="node15" class="node">
<title>Node15</title>
<g id="a_node15"><a xlink:href="../../df/d64/kns__mac__evt_8h.html" target="_top" xlink:title=" ">
<polygon fill="white" stroke="black" points="254,-112.5 254,-131.5 344,-131.5 344,-112.5 254,-112.5"/>
<text text-anchor="middle" x="299" y="-119.5" font-family="Helvetica,sans-Serif" font-size="10.00">kns_mac_evt.h</text>
</a>
</g>
</g>
<!-- Node14&#45;&gt;Node15 -->
<g id="edge25" class="edge">
<title>Node14&#45;&gt;Node15</title>
<path fill="none" stroke="midnightblue" d="M432.81,-168.44C406.06,-159.36 363.6,-144.94 333.69,-134.78"/>
<polygon fill="midnightblue" stroke="midnightblue" points="334.67,-131.42 324.08,-131.52 332.42,-138.05 334.67,-131.42"/>
</g>
<!-- Node16 -->
<g id="node16" class="node">
<title>Node16</title>
<g id="a_node16"><a xlink:href="../../d7/d8a/kns__srvc__common_8h.html" target="_top" xlink:title="Common part of Kinéis service layer.">
<polygon fill="white" stroke="black" points="400,-112.5 400,-131.5 516,-131.5 516,-112.5 400,-112.5"/>
<text text-anchor="middle" x="458" y="-119.5" font-family="Helvetica,sans-Serif" font-size="10.00">kns_srvc_common.h</text>
</a>
</g>
</g>
<!-- Node14&#45;&gt;Node16 -->
<g id="edge29" class="edge">
<title>Node14&#45;&gt;Node16</title>
<path fill="none" stroke="midnightblue" d="M458,-168.08C458,-161.01 458,-150.86 458,-141.99"/>
<polygon fill="midnightblue" stroke="midnightblue" points="461.5,-141.75 458,-131.75 454.5,-141.75 461.5,-141.75"/>
</g>
<!-- Node15&#45;&gt;Node4 -->
<g id="edge28" class="edge">
<title>Node15&#45;&gt;Node4</title>
<path fill="none" stroke="midnightblue" d="M287.27,-112.32C276.16,-104.11 259.26,-91.6 246.02,-81.81"/>
<polygon fill="midnightblue" stroke="midnightblue" points="248.06,-78.97 237.94,-75.83 243.9,-84.59 248.06,-78.97"/>
</g>
<!-- Node15&#45;&gt;Node5 -->
<g id="edge27" class="edge">
<title>Node15&#45;&gt;Node5</title>
<path fill="none" stroke="midnightblue" d="M304.99,-112.38C314.76,-98.85 335.31,-72.48 358,-56 377.37,-41.93 401.84,-30.82 421.73,-23.16"/>
<polygon fill="midnightblue" stroke="midnightblue" points="423.21,-26.35 431.36,-19.58 420.77,-19.78 423.21,-26.35"/>
</g>
<!-- Node15&#45;&gt;Node7 -->
<g id="edge26" class="edge">
<title>Node15&#45;&gt;Node7</title>
<path fill="none" stroke="midnightblue" d="M344.22,-113.15C404.61,-102.66 510.73,-84.24 568.93,-74.13"/>
<polygon fill="midnightblue" stroke="midnightblue" points="569.62,-77.56 578.88,-72.4 568.43,-70.67 569.62,-77.56"/>
</g>
<!-- Node16&#45;&gt;Node4 -->
<g id="edge32" class="edge">
<title>Node16&#45;&gt;Node4</title>
<path fill="none" stroke="midnightblue" d="M421.24,-112.44C380.94,-103.06 316.19,-87.99 272.42,-77.8"/>
<polygon fill="midnightblue" stroke="midnightblue" points="273.12,-74.37 262.59,-75.52 271.54,-81.19 273.12,-74.37"/>
</g>
<!-- Node16&#45;&gt;Node5 -->
<g id="edge31" class="edge">
<title>Node16&#45;&gt;Node5</title>
<path fill="none" stroke="midnightblue" d="M458,-112.37C458,-94.62 458,-53.67 458,-29.6"/>
<polygon fill="midnightblue" stroke="midnightblue" points="461.5,-29.59 458,-19.59 454.5,-29.59 461.5,-29.59"/>
</g>
<!-- Node16&#45;&gt;Node7 -->
<g id="edge30" class="edge">
<title>Node16&#45;&gt;Node7</title>
<path fill="none" stroke="midnightblue" d="M482.08,-112.44C507.54,-103.4 547.89,-89.06 576.46,-78.92"/>
<polygon fill="midnightblue" stroke="midnightblue" points="577.78,-82.16 586.03,-75.52 575.43,-75.57 577.78,-82.16"/>
</g>
<!-- Node17&#45;&gt;Node15 -->
<g id="edge34" class="edge">
<title>Node17&#45;&gt;Node15</title>
<path fill="none" stroke="midnightblue" d="M226.82,-168.32C240.23,-159.9 260.82,-146.97 276.59,-137.07"/>
<polygon fill="midnightblue" stroke="midnightblue" points="278.61,-139.94 285.22,-131.65 274.89,-134.01 278.61,-139.94"/>
</g>
<!-- Node18 -->
<g id="node18" class="node">
<title>Node18</title>
<g id="a_node18"><a xlink:href="../../d8/d4a/kns__mac__prfl__cfg_8h.html" target="_top" xlink:title="Header file describing the ser settings required to configure a MAC protocol.">
<polygon fill="white" stroke="black" points="10.5,-112.5 10.5,-131.5 121.5,-131.5 121.5,-112.5 10.5,-112.5"/>
<text text-anchor="middle" x="66" y="-119.5" font-family="Helvetica,sans-Serif" font-size="10.00">kns_mac_prfl_cfg.h</text>
</a>
</g>
</g>
<!-- Node17&#45;&gt;Node18 -->
<g id="edge35" class="edge">
<title>Node17&#45;&gt;Node18</title>
<path fill="none" stroke="midnightblue" d="M189.71,-168.44C165.19,-159.44 126.4,-145.19 98.8,-135.05"/>
<polygon fill="midnightblue" stroke="midnightblue" points="99.78,-131.68 89.18,-131.52 97.36,-138.25 99.78,-131.68"/>
</g>
<!-- Node18&#45;&gt;Node4 -->
<g id="edge37" class="edge">
<title>Node18&#45;&gt;Node4</title>
<path fill="none" stroke="midnightblue" d="M91.35,-112.44C118.27,-103.36 161,-88.94 191.09,-78.78"/>
<polygon fill="midnightblue" stroke="midnightblue" points="192.41,-82.03 200.77,-75.52 190.17,-75.4 192.41,-82.03"/>
</g>
<!-- Node18&#45;&gt;Node5 -->
<g id="edge36" class="edge">
<title>Node18&#45;&gt;Node5</title>
<path fill="none" stroke="midnightblue" d="M77.51,-112.46C97.2,-98.31 139.11,-70.15 179,-56 262.45,-26.39 366.89,-16.17 421.26,-12.71"/>
<polygon fill="midnightblue" stroke="midnightblue" points="421.67,-16.19 431.45,-12.1 421.26,-9.2 421.67,-16.19"/>
</g>
<!-- Node20 -->
<g id="node20" class="node">
<title>Node20</title>
<g id="a_node20"><a xlink:href="../../d9/d70/mgr__log__rtc_8h.html" target="_top" xlink:title=": Header for mgr_log_rtc.c file. This file contains log routine concerning RTC. Thus there is a depen...">
<polygon fill="white" stroke="black" points="879.5,-168.5 879.5,-187.5 962.5,-187.5 962.5,-168.5 879.5,-168.5"/>
<text text-anchor="middle" x="921" y="-175.5" font-family="Helvetica,sans-Serif" font-size="10.00">mgr_log_rtc.h</text>
</a>
</g>
</g>
<!-- Node19&#45;&gt;Node20 -->
<g id="edge40" class="edge">
<title>Node19&#45;&gt;Node20</title>
<path fill="none" stroke="midnightblue" d="M917.57,-229.98C918.14,-221.58 919.02,-208.48 919.75,-197.66"/>
<polygon fill="midnightblue" stroke="midnightblue" points="923.25,-197.72 920.43,-187.51 916.26,-197.25 923.25,-197.72"/>
</g>
</g>
</svg>
        <g id="navigator" transform="translate(0 0)" fill="#404254">
                <rect fill="#f2f5e9" fill-opacity="0.5" stroke="#606060" stroke-width=".5" x="0" y="0" width="60" height="60"/>
                <use id="zoomplus" xlink:href="#zoomPlus" x="17" y="9" onmousedown="handleZoom(evt,'in')"/>
                <use id="zoomminus" xlink:href="#zoomMin" x="42" y="9" onmousedown="handleZoom(evt,'out')"/>
                <use id="reset" xlink:href="#resetDef" x="30" y="36" onmousedown="handleReset()"/>
                <g id="arrowUp" xlink:href="#dirArrow" transform="translate(30 24)" onmousedown="handlePan(0,-1)">
                  <use xlink:href="#rim" fill="#404040">
                        <set attributeName="fill" to="#808080" begin="arrowUp.mouseover" end="arrowUp.mouseout"/>
                  </use>
                  <path fill="none" stroke="white" stroke-width="1.5" d="M0,-3.0v7 M-2.5,-0.5L0,-3.0L2.5,-0.5"/>
                </g>
                <g id="arrowRight" xlink:href="#dirArrow" transform="rotate(90) translate(36 -43)" onmousedown="handlePan(1,0)">
                  <use xlink:href="#rim" fill="#404040">
                        <set attributeName="fill" to="#808080" begin="arrowRight.mouseover" end="arrowRight.mouseout"/>
                  </use>
                  <path fill="none" stroke="white" stroke-width="1.5" d="M0,-3.0v7 M-2.5,-0.5L0,-3.0L2.5,-0.5"/>
                </g>
                <g id="arrowDown" xlink:href="#dirArrow" transform="rotate(180) translate(-30 -48)" onmousedown="handlePan(0,1)">
                  <use xlink:href="#rim" fill="#404040">
                        <set attributeName="fill" to="#808080" begin="arrowDown.mouseover" end="arrowDown.mouseout"/>
                  </use>
                  <path fill="none" stroke="white" stroke-width="1.5" d="M0,-3.0v7 M-2.5,-0.5L0,-3.0L2.5,-0.5"/>
                </g>
                <g id="arrowLeft" xlink:href="#dirArrow" transform="rotate(270) translate(-36 17)" onmousedown="handlePan(-1,0)">
                  <use xlink:href="#rim" fill="#404040">
                        <set attributeName="fill" to="#808080" begin="arrowLeft.mouseover" end="arrowLeft.mouseout"/>
                  </use>
                  <path fill="none" stroke="white" stroke-width="1.5" d="M0,-3.0v7 M-2.5,-0.5L0,-3.0L2.5,-0.5"/>
                </g>
        </g>
        <svg viewBox="0 0 15 15" width="100%" height="30px" preserveAspectRatio="xMaxYMin meet">
         <g id="arrow_out" transform="scale(0.3 0.3)">
          <a xlink:href="mgr__at__cmd__list__user__data_8c__incl_org.svg" target="_base">
           <rect id="button" ry="5" rx="5" y="6" x="6" height="38" width="38"
                fill="#f2f5e9" fill-opacity="0.5" stroke="#606060" stroke-width="1.0"/>
           <path id="arrow"
             d="M 11.500037,31.436501 C 11.940474,20.09759 22.043105,11.32322 32.158766,21.979434 L 37.068811,17.246167 C 37.068811,17.246167 37.088388,32 37.088388,32 L 22.160133,31.978069 C 22.160133,31.978069 26.997745,27.140456 26.997745,27.140456 C 18.528582,18.264221 13.291696,25.230495 11.500037,31.436501 z"
             style="fill:#404040;"/>
          </a>
         </g>
        </svg>
</svg>
