<?xml version="1.0" encoding="UTF-8" standalone="no"?>
<!DOCTYPE svg PUBLIC "-//W3C//DTD SVG 1.1//EN"
 "http://www.w3.org/Graphics/SVG/1.1/DTD/svg11.dtd">
<!-- Generated by graphviz version 2.43.0 (0)
 -->
<!-- Title: Kineis/App/Managers/MGR_AT_CMD/Src/mgr_at_cmd_list_user_data.c Pages: 1 -->
<!--zoomable 397 -->
<svg id="main" version="1.1" xmlns="http://www.w3.org/2000/svg" xmlns:xlink="http://www.w3.org/1999/xlink" xml:space="preserve" onload="init(evt)">
<style type="text/css"><![CDATA[
.edge:hover path { stroke: red; }
.edge:hover polygon { stroke: red; fill: red; }
]]></style>
<script type="text/javascript"><![CDATA[
var edges = document.getElementsByTagName('g');
if (edges && edges.length) {
  for (var i=0;i<edges.length;i++) {
    if (edges[i].id.substr(0,4)=='edge') {
      edges[i].setAttribute('class','edge');
    }
  }
}
]]></script>
        <defs>
                <circle id="rim" cx="0" cy="0" r="7"/>
                <circle id="rim2" cx="0" cy="0" r="3.5"/>
                <g id="zoomPlus">
                        <use xlink:href="#rim" fill="#404040">
                                <set attributeName="fill" to="#808080" begin="zoomplus.mouseover" end="zoomplus.mouseout"/>
                        </use>
                        <path d="M-4,0h8M0,-4v8" fill="none" stroke="white" stroke-width="1.5" pointer-events="none"/>
                </g>
                <g id="zoomMin">
                        <use xlink:href="#rim" fill="#404040">
                                <set attributeName="fill" to="#808080" begin="zoomminus.mouseover" end="zoomminus.mouseout"/>
                        </use>
                        <path d="M-4,0h8" fill="none" stroke="white" stroke-width="1.5" pointer-events="none"/>
                </g>
                <g id="dirArrow">
                        <path fill="none" stroke="white" stroke-width="1.5" d="M0,-3.0v7 M-2.5,-0.5L0,-3.0L2.5,-0.5"/>
                </g>
               <g id="resetDef">
                       <use xlink:href="#rim2" fill="#404040">
                               <set attributeName="fill" to="#808080" begin="reset.mouseover" end="reset.mouseout"/>
                       </use>
               </g>
        </defs>

<script type="text/javascript">
var viewWidth = 1074;
var viewHeight = 397;
var sectionId = 'dynsection-0';
</script>
<script xlink:href="../../svgpan.js"/>
<svg id="graph" class="graph">
<g id="viewport">
<title>Kineis/App/Managers/MGR_AT_CMD/Src/mgr_at_cmd_list_user_data.c</title>
<polygon fill="white" stroke="transparent" points="-4,4 -4,-393 1069.5,-393 1069.5,4 -4,4"/>
<!-- Node1 -->
<g id="node1" class="node">
<title>Node1</title>
<g id="a_node1"><a xlink:title="subset of AT commands concerning user data manipulation such as TX">
<polygon fill="#bfbfbf" stroke="black" points="278,-347.5 278,-388.5 418,-388.5 418,-347.5 278,-347.5"/>
<text text-anchor="start" x="286" y="-376.5" font-family="Helvetica,sans-Serif" font-size="10.00">Kineis/App/Managers</text>
<text text-anchor="start" x="286" y="-365.5" font-family="Helvetica,sans-Serif" font-size="10.00">/MGR_AT_CMD/Src/mgr</text>
<text text-anchor="middle" x="348" y="-354.5" font-family="Helvetica,sans-Serif" font-size="10.00">_at_cmd_list_user_data.c</text>
</a>
</g>
</g>
<!-- Node2 -->
<g id="node2" class="node">
<title>Node2</title>
<g id="a_node2"><a xlink:title=" ">
<polygon fill="white" stroke="#bfbfbf" points="8,-286 8,-305 58,-305 58,-286 8,-286"/>
<text text-anchor="middle" x="33" y="-293" font-family="Helvetica,sans-Serif" font-size="10.00">stdio.h</text>
</a>
</g>
</g>
<!-- Node1&#45;&gt;Node2 -->
<g id="edge1" class="edge">
<title>Node1&#45;&gt;Node2</title>
<path fill="none" stroke="midnightblue" d="M277.72,-357.12C220.26,-348.07 137.33,-332.75 67,-311 64.86,-310.34 62.67,-309.59 60.48,-308.78"/>
<polygon fill="midnightblue" stroke="midnightblue" points="61.68,-305.49 51.09,-305.03 59.08,-311.99 61.68,-305.49"/>
</g>
<!-- Node3 -->
<g id="node3" class="node">
<title>Node3</title>
<g id="a_node3"><a xlink:title=" ">
<polygon fill="white" stroke="#bfbfbf" points="76.5,-286 76.5,-305 129.5,-305 129.5,-286 76.5,-286"/>
<text text-anchor="middle" x="103" y="-293" font-family="Helvetica,sans-Serif" font-size="10.00">string.h</text>
</a>
</g>
</g>
<!-- Node1&#45;&gt;Node3 -->
<g id="edge2" class="edge">
<title>Node1&#45;&gt;Node3</title>
<path fill="none" stroke="midnightblue" d="M277.77,-349.06C238.26,-338.63 188.16,-324.85 144,-311 141.39,-310.18 138.69,-309.3 135.99,-308.4"/>
<polygon fill="midnightblue" stroke="midnightblue" points="136.91,-305.01 126.32,-305.07 134.64,-311.63 136.91,-305.01"/>
</g>
<!-- Node4 -->
<g id="node4" class="node">
<title>Node4</title>
<g id="a_node4"><a xlink:href="../../d8/d85/kns__types_8h.html" target="_top" xlink:title="Kineis types definition.">
<polygon fill="white" stroke="black" points="634.5,-56.5 634.5,-75.5 709.5,-75.5 709.5,-56.5 634.5,-56.5"/>
<text text-anchor="middle" x="672" y="-63.5" font-family="Helvetica,sans-Serif" font-size="10.00">kns_types.h</text>
</a>
</g>
</g>
<!-- Node1&#45;&gt;Node4 -->
<g id="edge3" class="edge">
<title>Node1&#45;&gt;Node4</title>
<path fill="none" stroke="midnightblue" d="M418.23,-356.08C523.5,-337.7 710,-296.46 710,-235 710,-235 710,-235 710,-177 710,-142.81 693.4,-105.76 682.14,-84.57"/>
<polygon fill="midnightblue" stroke="midnightblue" points="685.18,-82.83 677.28,-75.77 679.05,-86.22 685.18,-82.83"/>
</g>
<!-- Node6 -->
<g id="node6" class="node">
<title>Node6</title>
<g id="a_node6"><a xlink:href="../../d3/d6a/user__data_8h.html" target="_top" xlink:title="Library to handle user data to be be received or transmitted over the air through several networks (e...">
<polygon fill="white" stroke="black" points="0,-168.5 0,-187.5 74,-187.5 74,-168.5 0,-168.5"/>
<text text-anchor="middle" x="37" y="-175.5" font-family="Helvetica,sans-Serif" font-size="10.00">user_data.h</text>
</a>
</g>
</g>
<!-- Node1&#45;&gt;Node6 -->
<g id="edge5" class="edge">
<title>Node1&#45;&gt;Node6</title>
<path fill="none" stroke="midnightblue" d="M277.67,-349.02C248.49,-339.94 214.99,-327.33 187,-311 130.79,-278.2 76.42,-222.59 51.37,-195.21"/>
<polygon fill="midnightblue" stroke="midnightblue" points="53.86,-192.76 44.57,-187.68 48.67,-197.45 53.86,-192.76"/>
</g>
<!-- Node8 -->
<g id="node8" class="node">
<title>Node8</title>
<g id="a_node8"><a xlink:href="../../de/de6/mgr__at__cmd__list__user__data_8h.html" target="_top" xlink:title="subset of AT commands concerning user data manipulation such as TX">
<polygon fill="white" stroke="black" points="196,-280.5 196,-310.5 320,-310.5 320,-280.5 196,-280.5"/>
<text text-anchor="start" x="204" y="-298.5" font-family="Helvetica,sans-Serif" font-size="10.00">mgr_at_cmd_list_user</text>
<text text-anchor="middle" x="258" y="-287.5" font-family="Helvetica,sans-Serif" font-size="10.00">_data.h</text>
</a>
</g>
</g>
<!-- Node1&#45;&gt;Node8 -->
<g id="edge8" class="edge">
<title>Node1&#45;&gt;Node8</title>
<path fill="none" stroke="midnightblue" d="M322.93,-347.36C310.84,-337.89 296.35,-326.54 284.13,-316.97"/>
<polygon fill="midnightblue" stroke="midnightblue" points="286.12,-314.08 276.09,-310.67 281.8,-319.59 286.12,-314.08"/>
</g>
<!-- Node12 -->
<g id="node12" class="node">
<title>Node12</title>
<g id="a_node12"><a xlink:href="../../d9/dc4/kineis__sw__conf_8h.html" target="_top" xlink:title="Kineis stack SW configurations depending on platform used.">
<polygon fill="white" stroke="black" points="258.5,-168.5 258.5,-187.5 357.5,-187.5 357.5,-168.5 258.5,-168.5"/>
<text text-anchor="middle" x="308" y="-175.5" font-family="Helvetica,sans-Serif" font-size="10.00">kineis_sw_conf.h</text>
</a>
</g>
</g>
<!-- Node1&#45;&gt;Node12 -->
<g id="edge39" class="edge">
<title>Node1&#45;&gt;Node12</title>
<path fill="none" stroke="midnightblue" d="M347.27,-347.18C345.81,-319.21 341.51,-266.79 329,-224 326.25,-214.59 321.8,-204.65 317.7,-196.52"/>
<polygon fill="midnightblue" stroke="midnightblue" points="320.78,-194.86 313.01,-187.65 314.59,-198.13 320.78,-194.86"/>
</g>
<!-- Node13 -->
<g id="node13" class="node">
<title>Node13</title>
<g id="a_node13"><a xlink:href="../../d0/d84/kns__q_8h.html" target="_top" xlink:title="Configuration of queues used in kineis_swr.">
<polygon fill="white" stroke="black" points="511,-286 511,-305 565,-305 565,-286 511,-286"/>
<text text-anchor="middle" x="538" y="-293" font-family="Helvetica,sans-Serif" font-size="10.00">kns_q.h</text>
</a>
</g>
</g>
<!-- Node1&#45;&gt;Node13 -->
<g id="edge18" class="edge">
<title>Node1&#45;&gt;Node13</title>
<path fill="none" stroke="midnightblue" d="M400.67,-347.46C434.27,-334.99 476.75,-319.23 505.5,-308.56"/>
<polygon fill="midnightblue" stroke="midnightblue" points="506.9,-311.77 515.06,-305.01 504.46,-305.21 506.9,-311.77"/>
</g>
<!-- Node18 -->
<g id="node18" class="node">
<title>Node18</title>
<g id="a_node18"><a xlink:href="../../d7/d1a/kns__mac_8h.html" target="_top" xlink:title="Main header file for MAC layer of Kineis stack.">
<polygon fill="white" stroke="black" points="748.5,-224.5 748.5,-243.5 817.5,-243.5 817.5,-224.5 748.5,-224.5"/>
<text text-anchor="middle" x="783" y="-231.5" font-family="Helvetica,sans-Serif" font-size="10.00">kns_mac.h</text>
</a>
</g>
</g>
<!-- Node1&#45;&gt;Node18 -->
<g id="edge36" class="edge">
<title>Node1&#45;&gt;Node18</title>
<path fill="none" stroke="midnightblue" d="M418.12,-362.77C512.23,-356.06 673.44,-340.57 724,-311 747.25,-297.4 764.62,-270.78 774.29,-252.94"/>
<polygon fill="midnightblue" stroke="midnightblue" points="777.51,-254.33 778.97,-243.84 771.28,-251.13 777.51,-254.33"/>
</g>
<!-- Node19 -->
<g id="node19" class="node">
<title>Node19</title>
<g id="a_node19"><a xlink:href="../../d2/d2e/mgr__log_8h.html" target="_top" xlink:title="logger main header file">
<polygon fill="white" stroke="black" points="892.5,-286 892.5,-305 957.5,-305 957.5,-286 892.5,-286"/>
<text text-anchor="middle" x="925" y="-293" font-family="Helvetica,sans-Serif" font-size="10.00">mgr_log.h</text>
</a>
</g>
</g>
<!-- Node1&#45;&gt;Node19 -->
<g id="edge40" class="edge">
<title>Node1&#45;&gt;Node19</title>
<path fill="none" stroke="midnightblue" d="M418.17,-358.43C539.16,-343.64 783.49,-313.79 882.2,-301.73"/>
<polygon fill="midnightblue" stroke="midnightblue" points="882.89,-305.17 892.39,-300.48 882.04,-298.22 882.89,-305.17"/>
</g>
<!-- Node5 -->
<g id="node5" class="node">
<title>Node5</title>
<g id="a_node5"><a xlink:title=" ">
<polygon fill="white" stroke="#bfbfbf" points="569.5,-0.5 569.5,-19.5 622.5,-19.5 622.5,-0.5 569.5,-0.5"/>
<text text-anchor="middle" x="596" y="-7.5" font-family="Helvetica,sans-Serif" font-size="10.00">stdint.h</text>
</a>
</g>
</g>
<!-- Node4&#45;&gt;Node5 -->
<g id="edge4" class="edge">
<title>Node4&#45;&gt;Node5</title>
<path fill="none" stroke="midnightblue" d="M659.79,-56.32C648.22,-48.11 630.62,-35.6 616.84,-25.81"/>
<polygon fill="midnightblue" stroke="midnightblue" points="618.61,-22.77 608.43,-19.83 614.56,-28.48 618.61,-22.77"/>
</g>
<!-- Node6&#45;&gt;Node5 -->
<g id="edge7" class="edge">
<title>Node6&#45;&gt;Node5</title>
<path fill="none" stroke="midnightblue" d="M37.7,-168.45C40.06,-145.76 49.87,-83.81 88,-56 125.86,-28.39 448.5,-15.67 559.03,-12.1"/>
<polygon fill="midnightblue" stroke="midnightblue" points="559.46,-15.58 569.35,-11.77 559.24,-8.59 559.46,-15.58"/>
</g>
<!-- Node7 -->
<g id="node7" class="node">
<title>Node7</title>
<g id="a_node7"><a xlink:title=" ">
<polygon fill="white" stroke="#bfbfbf" points="355,-112.5 355,-131.5 417,-131.5 417,-112.5 355,-112.5"/>
<text text-anchor="middle" x="386" y="-119.5" font-family="Helvetica,sans-Serif" font-size="10.00">stdbool.h</text>
</a>
</g>
</g>
<!-- Node6&#45;&gt;Node7 -->
<g id="edge6" class="edge">
<title>Node6&#45;&gt;Node7</title>
<path fill="none" stroke="midnightblue" d="M74.02,-171.27C139.76,-161.1 276.41,-139.96 344.94,-129.35"/>
<polygon fill="midnightblue" stroke="midnightblue" points="345.59,-132.79 354.94,-127.81 344.52,-125.88 345.59,-132.79"/>
</g>
<!-- Node8&#45;&gt;Node4 -->
<g id="edge9" class="edge">
<title>Node8&#45;&gt;Node4</title>
<path fill="none" stroke="midnightblue" d="M320.21,-291.78C403.56,-287 545.79,-274.53 587,-244 640.37,-204.46 661.74,-122.57 668.9,-85.71"/>
<polygon fill="midnightblue" stroke="midnightblue" points="672.36,-86.27 670.69,-75.81 665.47,-85.03 672.36,-86.27"/>
</g>
<!-- Node9 -->
<g id="node9" class="node">
<title>Node9</title>
<g id="a_node9"><a xlink:href="../../d5/d58/mgr__at__cmd__common_8h.html" target="_top" xlink:title="header file for common part of the AT cmd manager">
<polygon fill="white" stroke="black" points="186,-224.5 186,-243.5 320,-243.5 320,-224.5 186,-224.5"/>
<text text-anchor="middle" x="253" y="-231.5" font-family="Helvetica,sans-Serif" font-size="10.00">mgr_at_cmd_common.h</text>
</a>
</g>
</g>
<!-- Node8&#45;&gt;Node9 -->
<g id="edge10" class="edge">
<title>Node8&#45;&gt;Node9</title>
<path fill="none" stroke="midnightblue" d="M256.82,-280.4C256.15,-272.47 255.31,-262.46 254.58,-253.86"/>
<polygon fill="midnightblue" stroke="midnightblue" points="258.05,-253.33 253.73,-243.66 251.08,-253.92 258.05,-253.33"/>
</g>
<!-- Node9&#45;&gt;Node5 -->
<g id="edge11" class="edge">
<title>Node9&#45;&gt;Node5</title>
<path fill="none" stroke="midnightblue" d="M185.88,-226.34C161.37,-220.28 136.01,-208.97 121,-188 97.25,-154.81 151.21,-127.43 169,-112 204.02,-81.63 213.44,-71.87 257,-56 361.68,-17.87 495.03,-11.46 558.79,-10.76"/>
<polygon fill="midnightblue" stroke="midnightblue" points="559.16,-14.25 569.13,-10.69 559.11,-7.25 559.16,-14.25"/>
</g>
<!-- Node9&#45;&gt;Node7 -->
<g id="edge12" class="edge">
<title>Node9&#45;&gt;Node7</title>
<path fill="none" stroke="midnightblue" d="M249.33,-224.47C244.2,-211.06 236.8,-184.85 249,-168 270.63,-138.12 312.75,-127.73 344.6,-124.29"/>
<polygon fill="midnightblue" stroke="midnightblue" points="345.31,-127.74 354.97,-123.37 344.7,-120.77 345.31,-127.74"/>
</g>
<!-- Node10 -->
<g id="node10" class="node">
<title>Node10</title>
<g id="a_node10"><a xlink:href="../../df/d36/strutil__lib_8h.html" target="_top" xlink:title="small utilities to manipulate strings">
<polygon fill="white" stroke="black" points="130.5,-168.5 130.5,-187.5 201.5,-187.5 201.5,-168.5 130.5,-168.5"/>
<text text-anchor="middle" x="166" y="-175.5" font-family="Helvetica,sans-Serif" font-size="10.00">strutil_lib.h</text>
</a>
</g>
</g>
<!-- Node9&#45;&gt;Node10 -->
<g id="edge13" class="edge">
<title>Node9&#45;&gt;Node10</title>
<path fill="none" stroke="midnightblue" d="M239.02,-224.32C225.45,-215.9 204.62,-202.97 188.68,-193.07"/>
<polygon fill="midnightblue" stroke="midnightblue" points="190.29,-189.95 179.94,-187.65 186.59,-195.9 190.29,-189.95"/>
</g>
<!-- Node9&#45;&gt;Node12 -->
<g id="edge17" class="edge">
<title>Node9&#45;&gt;Node12</title>
<path fill="none" stroke="midnightblue" d="M262.08,-224.08C270.17,-216.14 282.2,-204.34 291.91,-194.8"/>
<polygon fill="midnightblue" stroke="midnightblue" points="294.4,-197.25 299.09,-187.75 289.5,-192.26 294.4,-197.25"/>
</g>
<!-- Node10&#45;&gt;Node5 -->
<g id="edge14" class="edge">
<title>Node10&#45;&gt;Node5</title>
<path fill="none" stroke="midnightblue" d="M165.94,-168.47C166.33,-154.58 169.21,-127.12 185,-112 239.24,-60.06 468.89,-26.67 559.26,-15.32"/>
<polygon fill="midnightblue" stroke="midnightblue" points="559.82,-18.78 569.32,-14.08 558.96,-11.83 559.82,-18.78"/>
</g>
<!-- Node10&#45;&gt;Node7 -->
<g id="edge15" class="edge">
<title>Node10&#45;&gt;Node7</title>
<path fill="none" stroke="midnightblue" d="M200.86,-168.44C240.04,-158.83 303.57,-143.23 345.07,-133.05"/>
<polygon fill="midnightblue" stroke="midnightblue" points="345.98,-136.43 354.86,-130.64 344.31,-129.63 345.98,-136.43"/>
</g>
<!-- Node11 -->
<g id="node11" class="node">
<title>Node11</title>
<g id="a_node11"><a xlink:title=" ">
<polygon fill="white" stroke="#bfbfbf" points="194.5,-112.5 194.5,-131.5 247.5,-131.5 247.5,-112.5 194.5,-112.5"/>
<text text-anchor="middle" x="221" y="-119.5" font-family="Helvetica,sans-Serif" font-size="10.00">stdlib.h</text>
</a>
</g>
</g>
<!-- Node10&#45;&gt;Node11 -->
<g id="edge16" class="edge">
<title>Node10&#45;&gt;Node11</title>
<path fill="none" stroke="midnightblue" d="M175.08,-168.08C183.17,-160.14 195.2,-148.34 204.91,-138.8"/>
<polygon fill="midnightblue" stroke="midnightblue" points="207.4,-141.25 212.09,-131.75 202.5,-136.26 207.4,-141.25"/>
</g>
<!-- Node13&#45;&gt;Node4 -->
<g id="edge21" class="edge">
<title>Node13&#45;&gt;Node4</title>
<path fill="none" stroke="midnightblue" d="M565.33,-289.69C590.97,-283.66 628.24,-270.68 648,-244 683.32,-196.32 679.25,-121.01 674.94,-86.03"/>
<polygon fill="midnightblue" stroke="midnightblue" points="678.36,-85.24 673.52,-75.81 671.43,-86.2 678.36,-85.24"/>
</g>
<!-- Node13&#45;&gt;Node5 -->
<g id="edge20" class="edge">
<title>Node13&#45;&gt;Node5</title>
<path fill="none" stroke="midnightblue" d="M565.29,-292.85C657.84,-286.52 954,-259.95 954,-179 954,-179 954,-179 954,-121 954,-54.31 724.15,-23.87 632.79,-14.4"/>
<polygon fill="midnightblue" stroke="midnightblue" points="632.92,-10.9 622.62,-13.38 632.21,-17.86 632.92,-10.9"/>
</g>
<!-- Node13&#45;&gt;Node7 -->
<g id="edge19" class="edge">
<title>Node13&#45;&gt;Node7</title>
<path fill="none" stroke="midnightblue" d="M525.17,-285.9C501.26,-269.34 449.39,-230.87 417,-188 406.18,-173.67 397.74,-154.97 392.42,-141.3"/>
<polygon fill="midnightblue" stroke="midnightblue" points="395.59,-139.77 388.83,-131.6 389.02,-142.2 395.59,-139.77"/>
</g>
<!-- Node14 -->
<g id="node14" class="node">
<title>Node14</title>
<g id="a_node14"><a xlink:href="../../d8/dd1/kns__q__conf_8h.html" target="_top" xlink:title="Configuration of queues used in kineis_sw.">
<polygon fill="white" stroke="black" points="498,-224.5 498,-243.5 578,-243.5 578,-224.5 498,-224.5"/>
<text text-anchor="middle" x="538" y="-231.5" font-family="Helvetica,sans-Serif" font-size="10.00">kns_q_conf.h</text>
</a>
</g>
</g>
<!-- Node13&#45;&gt;Node14 -->
<g id="edge22" class="edge">
<title>Node13&#45;&gt;Node14</title>
<path fill="none" stroke="midnightblue" d="M538,-285.98C538,-277.58 538,-264.48 538,-253.66"/>
<polygon fill="midnightblue" stroke="midnightblue" points="541.5,-253.51 538,-243.51 534.5,-253.51 541.5,-253.51"/>
</g>
<!-- Node14&#45;&gt;Node5 -->
<g id="edge24" class="edge">
<title>Node14&#45;&gt;Node5</title>
<path fill="none" stroke="midnightblue" d="M548.61,-224.21C557.82,-215.92 570.65,-202.6 577,-188 600.39,-134.26 599.55,-63.01 597.55,-29.68"/>
<polygon fill="midnightblue" stroke="midnightblue" points="601.03,-29.29 596.83,-19.56 594.05,-29.79 601.03,-29.29"/>
</g>
<!-- Node14&#45;&gt;Node7 -->
<g id="edge23" class="edge">
<title>Node14&#45;&gt;Node7</title>
<path fill="none" stroke="midnightblue" d="M513.05,-224.42C492.94,-216.77 464.56,-204.27 443,-188 424.92,-174.35 408.34,-154.2 397.79,-139.96"/>
<polygon fill="midnightblue" stroke="midnightblue" points="400.44,-137.66 391.76,-131.58 394.76,-141.75 400.44,-137.66"/>
</g>
<!-- Node15 -->
<g id="node15" class="node">
<title>Node15</title>
<g id="a_node15"><a xlink:href="../../df/d64/kns__mac__evt_8h.html" target="_top" xlink:title=" ">
<polygon fill="white" stroke="black" points="738,-168.5 738,-187.5 828,-187.5 828,-168.5 738,-168.5"/>
<text text-anchor="middle" x="783" y="-175.5" font-family="Helvetica,sans-Serif" font-size="10.00">kns_mac_evt.h</text>
</a>
</g>
</g>
<!-- Node14&#45;&gt;Node15 -->
<g id="edge25" class="edge">
<title>Node14&#45;&gt;Node15</title>
<path fill="none" stroke="midnightblue" d="M576.82,-224.44C619.56,-215.02 688.33,-199.87 734.57,-189.68"/>
<polygon fill="midnightblue" stroke="midnightblue" points="735.35,-193.09 744.36,-187.52 733.84,-186.25 735.35,-193.09"/>
</g>
<!-- Node17 -->
<g id="node17" class="node">
<title>Node17</title>
<g id="a_node17"><a xlink:href="../../d7/d8a/kns__srvc__common_8h.html" target="_top" xlink:title="Common part of Kinéis service layer.">
<polygon fill="white" stroke="black" points="452,-168.5 452,-187.5 568,-187.5 568,-168.5 452,-168.5"/>
<text text-anchor="middle" x="510" y="-175.5" font-family="Helvetica,sans-Serif" font-size="10.00">kns_srvc_common.h</text>
</a>
</g>
</g>
<!-- Node14&#45;&gt;Node17 -->
<g id="edge32" class="edge">
<title>Node14&#45;&gt;Node17</title>
<path fill="none" stroke="midnightblue" d="M533.38,-224.08C529.54,-216.69 523.98,-205.95 519.24,-196.81"/>
<polygon fill="midnightblue" stroke="midnightblue" points="522.25,-195.02 514.54,-187.75 516.03,-198.24 522.25,-195.02"/>
</g>
<!-- Node15&#45;&gt;Node4 -->
<g id="edge28" class="edge">
<title>Node15&#45;&gt;Node4</title>
<path fill="none" stroke="midnightblue" d="M775.68,-168.28C764.82,-155.52 743.63,-131.17 724,-112 713.32,-101.57 700.68,-90.6 690.53,-82.1"/>
<polygon fill="midnightblue" stroke="midnightblue" points="692.62,-79.29 682.69,-75.61 688.16,-84.68 692.62,-79.29"/>
</g>
<!-- Node15&#45;&gt;Node5 -->
<g id="edge27" class="edge">
<title>Node15&#45;&gt;Node5</title>
<path fill="none" stroke="midnightblue" d="M780.76,-168.32C774.67,-146.35 755.71,-88.03 719,-56 694.57,-34.68 659.2,-23.15 632.66,-17.12"/>
<polygon fill="midnightblue" stroke="midnightblue" points="633.1,-13.64 622.6,-15 631.66,-20.49 633.1,-13.64"/>
</g>
<!-- Node15&#45;&gt;Node7 -->
<g id="edge26" class="edge">
<title>Node15&#45;&gt;Node7</title>
<path fill="none" stroke="midnightblue" d="M737.85,-170.86C660.11,-160.28 502.15,-138.8 427.22,-128.61"/>
<polygon fill="midnightblue" stroke="midnightblue" points="427.59,-125.13 417.21,-127.25 426.65,-132.06 427.59,-125.13"/>
</g>
<!-- Node16 -->
<g id="node16" class="node">
<title>Node16</title>
<g id="a_node16"><a xlink:href="../../d8/d4a/kns__mac__prfl__cfg_8h.html" target="_top" xlink:title="Header file describing the ser settings required to configure a MAC protocol.">
<polygon fill="white" stroke="black" points="814.5,-112.5 814.5,-131.5 925.5,-131.5 925.5,-112.5 814.5,-112.5"/>
<text text-anchor="middle" x="870" y="-119.5" font-family="Helvetica,sans-Serif" font-size="10.00">kns_mac_prfl_cfg.h</text>
</a>
</g>
</g>
<!-- Node15&#45;&gt;Node16 -->
<g id="edge29" class="edge">
<title>Node15&#45;&gt;Node16</title>
<path fill="none" stroke="midnightblue" d="M796.98,-168.32C810.55,-159.9 831.38,-146.97 847.32,-137.07"/>
<polygon fill="midnightblue" stroke="midnightblue" points="849.41,-139.9 856.06,-131.65 845.71,-133.95 849.41,-139.9"/>
</g>
<!-- Node16&#45;&gt;Node4 -->
<g id="edge31" class="edge">
<title>Node16&#45;&gt;Node4</title>
<path fill="none" stroke="midnightblue" d="M838.63,-112.44C804.74,-103.2 750.6,-88.44 713.28,-78.26"/>
<polygon fill="midnightblue" stroke="midnightblue" points="713.8,-74.77 703.23,-75.52 711.95,-81.52 713.8,-74.77"/>
</g>
<!-- Node16&#45;&gt;Node5 -->
<g id="edge30" class="edge">
<title>Node16&#45;&gt;Node5</title>
<path fill="none" stroke="midnightblue" d="M863.29,-112.29C851.89,-98.14 827.32,-70.32 800,-56 746.1,-27.75 675.23,-17.2 632.78,-13.29"/>
<polygon fill="midnightblue" stroke="midnightblue" points="632.89,-9.78 622.63,-12.43 632.3,-16.76 632.89,-9.78"/>
</g>
<!-- Node17&#45;&gt;Node4 -->
<g id="edge35" class="edge">
<title>Node17&#45;&gt;Node4</title>
<path fill="none" stroke="midnightblue" d="M522.71,-168.37C550.51,-149.49 616.94,-104.38 651.03,-81.24"/>
<polygon fill="midnightblue" stroke="midnightblue" points="653.04,-84.1 659.35,-75.59 649.11,-78.31 653.04,-84.1"/>
</g>
<!-- Node17&#45;&gt;Node5 -->
<g id="edge34" class="edge">
<title>Node17&#45;&gt;Node5</title>
<path fill="none" stroke="midnightblue" d="M514.62,-168.08C528.28,-141.72 568.61,-63.88 586.85,-28.66"/>
<polygon fill="midnightblue" stroke="midnightblue" points="590.07,-30.06 591.56,-19.57 583.85,-26.84 590.07,-30.06"/>
</g>
<!-- Node17&#45;&gt;Node7 -->
<g id="edge33" class="edge">
<title>Node17&#45;&gt;Node7</title>
<path fill="none" stroke="midnightblue" d="M490.35,-168.44C470.04,-159.6 438.1,-145.69 414.9,-135.59"/>
<polygon fill="midnightblue" stroke="midnightblue" points="416.12,-132.3 405.56,-131.52 413.33,-138.72 416.12,-132.3"/>
</g>
<!-- Node18&#45;&gt;Node15 -->
<g id="edge37" class="edge">
<title>Node18&#45;&gt;Node15</title>
<path fill="none" stroke="midnightblue" d="M783,-224.08C783,-217.01 783,-206.86 783,-197.99"/>
<polygon fill="midnightblue" stroke="midnightblue" points="786.5,-197.75 783,-187.75 779.5,-197.75 786.5,-197.75"/>
</g>
<!-- Node18&#45;&gt;Node16 -->
<g id="edge38" class="edge">
<title>Node18&#45;&gt;Node16</title>
<path fill="none" stroke="midnightblue" d="M796.31,-224.26C808.12,-216 825.29,-202.7 837,-188 848.44,-173.65 857.51,-154.69 863.22,-140.96"/>
<polygon fill="midnightblue" stroke="midnightblue" points="866.49,-142.22 866.92,-131.64 859.98,-139.64 866.49,-142.22"/>
</g>
<!-- Node20 -->
<g id="node20" class="node">
<title>Node20</title>
<g id="a_node20"><a xlink:href="../../d9/d70/mgr__log__rtc_8h.html" target="_top" xlink:title=": Header for mgr_log_rtc.c file. This file contains log routine concerning RTC. Thus there is a depen...">
<polygon fill="white" stroke="black" points="982.5,-224.5 982.5,-243.5 1065.5,-243.5 1065.5,-224.5 982.5,-224.5"/>
<text text-anchor="middle" x="1024" y="-231.5" font-family="Helvetica,sans-Serif" font-size="10.00">mgr_log_rtc.h</text>
</a>
</g>
</g>
<!-- Node19&#45;&gt;Node20 -->
<g id="edge41" class="edge">
<title>Node19&#45;&gt;Node20</title>
<path fill="none" stroke="midnightblue" d="M939.18,-285.98C955.36,-276.25 982.03,-260.23 1001.14,-248.74"/>
<polygon fill="midnightblue" stroke="midnightblue" points="1003.07,-251.66 1009.84,-243.51 999.47,-245.66 1003.07,-251.66"/>
</g>
</g>
</svg>
        <g id="navigator" transform="translate(0 0)" fill="#404254">
                <rect fill="#f2f5e9" fill-opacity="0.5" stroke="#606060" stroke-width=".5" x="0" y="0" width="60" height="60"/>
                <use id="zoomplus" xlink:href="#zoomPlus" x="17" y="9" onmousedown="handleZoom(evt,'in')"/>
                <use id="zoomminus" xlink:href="#zoomMin" x="42" y="9" onmousedown="handleZoom(evt,'out')"/>
                <use id="reset" xlink:href="#resetDef" x="30" y="36" onmousedown="handleReset()"/>
                <g id="arrowUp" xlink:href="#dirArrow" transform="translate(30 24)" onmousedown="handlePan(0,-1)">
                  <use xlink:href="#rim" fill="#404040">
                        <set attributeName="fill" to="#808080" begin="arrowUp.mouseover" end="arrowUp.mouseout"/>
                  </use>
                  <path fill="none" stroke="white" stroke-width="1.5" d="M0,-3.0v7 M-2.5,-0.5L0,-3.0L2.5,-0.5"/>
                </g>
                <g id="arrowRight" xlink:href="#dirArrow" transform="rotate(90) translate(36 -43)" onmousedown="handlePan(1,0)">
                  <use xlink:href="#rim" fill="#404040">
                        <set attributeName="fill" to="#808080" begin="arrowRight.mouseover" end="arrowRight.mouseout"/>
                  </use>
                  <path fill="none" stroke="white" stroke-width="1.5" d="M0,-3.0v7 M-2.5,-0.5L0,-3.0L2.5,-0.5"/>
                </g>
                <g id="arrowDown" xlink:href="#dirArrow" transform="rotate(180) translate(-30 -48)" onmousedown="handlePan(0,1)">
                  <use xlink:href="#rim" fill="#404040">
                        <set attributeName="fill" to="#808080" begin="arrowDown.mouseover" end="arrowDown.mouseout"/>
                  </use>
                  <path fill="none" stroke="white" stroke-width="1.5" d="M0,-3.0v7 M-2.5,-0.5L0,-3.0L2.5,-0.5"/>
                </g>
                <g id="arrowLeft" xlink:href="#dirArrow" transform="rotate(270) translate(-36 17)" onmousedown="handlePan(-1,0)">
                  <use xlink:href="#rim" fill="#404040">
                        <set attributeName="fill" to="#808080" begin="arrowLeft.mouseover" end="arrowLeft.mouseout"/>
                  </use>
                  <path fill="none" stroke="white" stroke-width="1.5" d="M0,-3.0v7 M-2.5,-0.5L0,-3.0L2.5,-0.5"/>
                </g>
        </g>
        <svg viewBox="0 0 15 15" width="100%" height="30px" preserveAspectRatio="xMaxYMin meet">
         <g id="arrow_out" transform="scale(0.3 0.3)">
          <a xlink:href="mgr__at__cmd__list__user__data_8c__incl_org.svg" target="_base">
           <rect id="button" ry="5" rx="5" y="6" x="6" height="38" width="38"
                fill="#f2f5e9" fill-opacity="0.5" stroke="#606060" stroke-width="1.0"/>
           <path id="arrow"
             d="M 11.500037,31.436501 C 11.940474,20.09759 22.043105,11.32322 32.158766,21.979434 L 37.068811,17.246167 C 37.068811,17.246167 37.088388,32 37.088388,32 L 22.160133,31.978069 C 22.160133,31.978069 26.997745,27.140456 26.997745,27.140456 C 18.528582,18.264221 13.291696,25.230495 11.500037,31.436501 z"
             style="fill:#404040;"/>
          </a>
         </g>
        </svg>
</svg>
