<?xml version="1.0" encoding="UTF-8" standalone="no"?>
<!DOCTYPE svg PUBLIC "-//W3C//DTD SVG 1.1//EN"
 "http://www.w3.org/Graphics/SVG/1.1/DTD/svg11.dtd">
<!-- Generated by graphviz version 2.43.0 (0)
 -->
<!-- Title: Kineis/Appconf/kns_os_conf.h Pages: 1 -->
<svg width="242pt" height="173pt"
 viewBox="0.00 0.00 241.50 173.00" xmlns="http://www.w3.org/2000/svg" xmlns:xlink="http://www.w3.org/1999/xlink">
<g id="graph0" class="graph" transform="scale(1 1) rotate(0) translate(4 169)">
<title>Kineis/Appconf/kns_os_conf.h</title>
<polygon fill="white" stroke="transparent" points="-4,4 -4,-169 237.5,-169 237.5,4 -4,4"/>
<!-- Node1 -->
<g id="node1" class="node">
<title>Node1</title>
<g id="a_node1"><a xlink:title="Configuration of task used with/in kineis_sw.">
<polygon fill="#bfbfbf" stroke="black" points="54.5,-134.5 54.5,-164.5 164.5,-164.5 164.5,-134.5 54.5,-134.5"/>
<text text-anchor="start" x="62.5" y="-152.5" font-family="Helvetica,sans-Serif" font-size="10.00">Kineis/Appconf/kns</text>
<text text-anchor="middle" x="109.5" y="-141.5" font-family="Helvetica,sans-Serif" font-size="10.00">_os_conf.h</text>
</a>
</g>
</g>
<!-- Node2 -->
<g id="node2" class="node">
<title>Node2</title>
<g id="a_node2"><a xlink:href="../../d2/de2/kns__os_8h.html" target="_top" xlink:title="Minimalist baremetal OS to be used with Kineissoftware stack.">
<polygon fill="white" stroke="black" points="48.5,-67.5 48.5,-97.5 170.5,-97.5 170.5,-67.5 48.5,-67.5"/>
<text text-anchor="start" x="56.5" y="-85.5" font-family="Helvetica,sans-Serif" font-size="10.00">Kineis/App/Kineis_os</text>
<text text-anchor="middle" x="109.5" y="-74.5" font-family="Helvetica,sans-Serif" font-size="10.00">/KNS_OS/Inc/kns_os.h</text>
</a>
</g>
</g>
<!-- Node1&#45;&gt;Node2 -->
<g id="edge1" class="edge">
<title>Node1&#45;&gt;Node2</title>
<path fill="none" stroke="midnightblue" d="M109.5,-124.11C109.5,-115.15 109.5,-105.32 109.5,-97.58"/>
<polygon fill="midnightblue" stroke="midnightblue" points="106,-124.4 109.5,-134.4 113,-124.4 106,-124.4"/>
</g>
<!-- Node3 -->
<g id="node3" class="node">
<title>Node3</title>
<g id="a_node3"><a xlink:href="../../d0/d29/main_8c.html" target="_top" xlink:title=": Main program body">
<polygon fill="white" stroke="black" points="0,-6 0,-25 93,-25 93,-6 0,-6"/>
<text text-anchor="middle" x="46.5" y="-13" font-family="Helvetica,sans-Serif" font-size="10.00">Core/Src/main.c</text>
</a>
</g>
</g>
<!-- Node2&#45;&gt;Node3 -->
<g id="edge2" class="edge">
<title>Node2&#45;&gt;Node3</title>
<path fill="none" stroke="midnightblue" d="M88.66,-60C77.16,-48.13 63.51,-34.05 54.93,-25.19"/>
<polygon fill="midnightblue" stroke="midnightblue" points="86.36,-62.65 95.83,-67.4 91.38,-57.78 86.36,-62.65"/>
</g>
<!-- Node4 -->
<g id="node4" class="node">
<title>Node4</title>
<g id="a_node4"><a xlink:href="../../d4/d95/kns__os_8c.html" target="_top" xlink:title="Minimalist baremetal OS to be used with Kineis software stack.">
<polygon fill="white" stroke="black" points="111.5,-0.5 111.5,-30.5 233.5,-30.5 233.5,-0.5 111.5,-0.5"/>
<text text-anchor="start" x="119.5" y="-18.5" font-family="Helvetica,sans-Serif" font-size="10.00">Kineis/App/Kineis_os</text>
<text text-anchor="middle" x="172.5" y="-7.5" font-family="Helvetica,sans-Serif" font-size="10.00">/KNS_OS/Src/kns_os.c</text>
</a>
</g>
</g>
<!-- Node2&#45;&gt;Node4 -->
<g id="edge3" class="edge">
<title>Node2&#45;&gt;Node4</title>
<path fill="none" stroke="midnightblue" d="M130.31,-60.02C139.7,-50.34 150.52,-39.17 158.86,-30.58"/>
<polygon fill="midnightblue" stroke="midnightblue" points="127.62,-57.78 123.17,-67.4 132.64,-62.65 127.62,-57.78"/>
</g>
</g>
</svg>
