<?xml version="1.0" encoding="UTF-8" standalone="no"?>
<!DOCTYPE svg PUBLIC "-//W3C//DTD SVG 1.1//EN"
 "http://www.w3.org/Graphics/SVG/1.1/DTD/svg11.dtd">
<!-- Generated by graphviz version 2.43.0 (0)
 -->
<!-- Title: Kineis/Lpm/Src/mgr_lpm.c Pages: 1 -->
<svg width="446pt" height="319pt"
 viewBox="0.00 0.00 445.50 319.00" xmlns="http://www.w3.org/2000/svg" xmlns:xlink="http://www.w3.org/1999/xlink">
<g id="graph0" class="graph" transform="scale(1 1) rotate(0) translate(4 315)">
<title>Kineis/Lpm/Src/mgr_lpm.c</title>
<polygon fill="white" stroke="transparent" points="-4,4 -4,-315 441.5,-315 441.5,4 -4,4"/>
<!-- Node1 -->
<g id="node1" class="node">
<title>Node1</title>
<g id="a_node1"><a xlink:title="low power mode manager is in charge to collect all low power needs from &#39;clients&#39; and setup the corre...">
<polygon fill="#bfbfbf" stroke="black" points="140.5,-280.5 140.5,-310.5 251.5,-310.5 251.5,-280.5 140.5,-280.5"/>
<text text-anchor="start" x="148.5" y="-298.5" font-family="Helvetica,sans-Serif" font-size="10.00">Kineis/Lpm/Src/mgr</text>
<text text-anchor="middle" x="196" y="-287.5" font-family="Helvetica,sans-Serif" font-size="10.00">_lpm.c</text>
</a>
</g>
</g>
<!-- Node2 -->
<g id="node2" class="node">
<title>Node2</title>
<g id="a_node2"><a xlink:title=" ">
<polygon fill="white" stroke="#bfbfbf" points="0,-224.5 0,-243.5 56,-243.5 56,-224.5 0,-224.5"/>
<text text-anchor="middle" x="28" y="-231.5" font-family="Helvetica,sans-Serif" font-size="10.00">stddef.h</text>
</a>
</g>
</g>
<!-- Node1&#45;&gt;Node2 -->
<g id="edge1" class="edge">
<title>Node1&#45;&gt;Node2</title>
<path fill="none" stroke="midnightblue" d="M156.19,-280.4C127.5,-270.24 89.19,-256.67 61.94,-247.02"/>
<polygon fill="midnightblue" stroke="midnightblue" points="63.04,-243.7 52.45,-243.66 60.7,-250.3 63.04,-243.7"/>
</g>
<!-- Node3 -->
<g id="node3" class="node">
<title>Node3</title>
<g id="a_node3"><a xlink:href="../../df/d63/mgr__lpm_8h.html" target="_top" xlink:title="low power mode manager is in charge to collect all low power needs from &#39;clients&#39; and setup the corre...">
<polygon fill="white" stroke="black" points="368.5,-112.5 368.5,-131.5 437.5,-131.5 437.5,-112.5 368.5,-112.5"/>
<text text-anchor="middle" x="403" y="-119.5" font-family="Helvetica,sans-Serif" font-size="10.00">mgr_lpm.h</text>
</a>
</g>
</g>
<!-- Node1&#45;&gt;Node3 -->
<g id="edge2" class="edge">
<title>Node1&#45;&gt;Node3</title>
<path fill="none" stroke="midnightblue" d="M251.84,-291.06C288.49,-285.94 335.02,-273.57 365,-244 393,-216.39 400.42,-168.42 402.36,-141.93"/>
<polygon fill="midnightblue" stroke="midnightblue" points="405.86,-141.89 402.9,-131.72 398.87,-141.52 405.86,-141.89"/>
</g>
<!-- Node7 -->
<g id="node7" class="node">
<title>Node7</title>
<g id="a_node7"><a xlink:href="../../d9/dc4/kineis__sw__conf_8h.html" target="_top" xlink:title="Kineis stack SW configurations depending on platform used.">
<polygon fill="white" stroke="black" points="146.5,-224.5 146.5,-243.5 245.5,-243.5 245.5,-224.5 146.5,-224.5"/>
<text text-anchor="middle" x="196" y="-231.5" font-family="Helvetica,sans-Serif" font-size="10.00">kineis_sw_conf.h</text>
</a>
</g>
</g>
<!-- Node1&#45;&gt;Node7 -->
<g id="edge7" class="edge">
<title>Node1&#45;&gt;Node7</title>
<path fill="none" stroke="midnightblue" d="M196,-280.4C196,-272.47 196,-262.46 196,-253.86"/>
<polygon fill="midnightblue" stroke="midnightblue" points="199.5,-253.66 196,-243.66 192.5,-253.66 199.5,-253.66"/>
</g>
<!-- Node8 -->
<g id="node8" class="node">
<title>Node8</title>
<g id="a_node8"><a xlink:href="../../d5/d04/kns__app__conf_8h.html" target="_top" xlink:title="Kineis Application configurations depending on platform used.">
<polygon fill="white" stroke="black" points="264,-224.5 264,-243.5 356,-243.5 356,-224.5 264,-224.5"/>
<text text-anchor="middle" x="310" y="-231.5" font-family="Helvetica,sans-Serif" font-size="10.00">kns_app_conf.h</text>
</a>
</g>
</g>
<!-- Node1&#45;&gt;Node8 -->
<g id="edge8" class="edge">
<title>Node1&#45;&gt;Node8</title>
<path fill="none" stroke="midnightblue" d="M223.02,-280.4C241.63,-270.68 266.21,-257.86 284.49,-248.31"/>
<polygon fill="midnightblue" stroke="midnightblue" points="286.17,-251.39 293.41,-243.66 282.93,-245.18 286.17,-251.39"/>
</g>
<!-- Node9 -->
<g id="node9" class="node">
<title>Node9</title>
<g id="a_node9"><a xlink:href="../../d0/d84/kns__q_8h.html" target="_top" xlink:title="Configuration of queues used in kineis_swr.">
<polygon fill="white" stroke="black" points="74,-224.5 74,-243.5 128,-243.5 128,-224.5 74,-224.5"/>
<text text-anchor="middle" x="101" y="-231.5" font-family="Helvetica,sans-Serif" font-size="10.00">kns_q.h</text>
</a>
</g>
</g>
<!-- Node1&#45;&gt;Node9 -->
<g id="edge9" class="edge">
<title>Node1&#45;&gt;Node9</title>
<path fill="none" stroke="midnightblue" d="M173.49,-280.4C158.4,-270.95 138.61,-258.56 123.53,-249.11"/>
<polygon fill="midnightblue" stroke="midnightblue" points="125.16,-246 114.82,-243.66 121.44,-251.93 125.16,-246"/>
</g>
<!-- Node4 -->
<g id="node4" class="node">
<title>Node4</title>
<g id="a_node4"><a xlink:title=" ">
<polygon fill="white" stroke="#bfbfbf" points="271,-56.5 271,-75.5 333,-75.5 333,-56.5 271,-56.5"/>
<text text-anchor="middle" x="302" y="-63.5" font-family="Helvetica,sans-Serif" font-size="10.00">stdbool.h</text>
</a>
</g>
</g>
<!-- Node3&#45;&gt;Node4 -->
<g id="edge3" class="edge">
<title>Node3&#45;&gt;Node4</title>
<path fill="none" stroke="midnightblue" d="M386.77,-112.32C370.65,-103.7 345.7,-90.36 327.04,-80.39"/>
<polygon fill="midnightblue" stroke="midnightblue" points="328.66,-77.28 318.19,-75.65 325.36,-83.46 328.66,-77.28"/>
</g>
<!-- Node5 -->
<g id="node5" class="node">
<title>Node5</title>
<g id="a_node5"><a xlink:title=" ">
<polygon fill="white" stroke="#bfbfbf" points="90.5,-0.5 90.5,-19.5 143.5,-19.5 143.5,-0.5 90.5,-0.5"/>
<text text-anchor="middle" x="117" y="-7.5" font-family="Helvetica,sans-Serif" font-size="10.00">stdint.h</text>
</a>
</g>
</g>
<!-- Node3&#45;&gt;Node5 -->
<g id="edge4" class="edge">
<title>Node3&#45;&gt;Node5</title>
<path fill="none" stroke="midnightblue" d="M397.46,-112.21C387.96,-97.96 367.16,-69.98 342,-56 281.92,-22.61 200.6,-13.79 153.98,-11.58"/>
<polygon fill="midnightblue" stroke="midnightblue" points="153.87,-8.08 143.74,-11.18 153.6,-15.07 153.87,-8.08"/>
</g>
<!-- Node6 -->
<g id="node6" class="node">
<title>Node6</title>
<g id="a_node6"><a xlink:href="../../d8/d85/kns__types_8h.html" target="_top" xlink:title="Kineis types definition.">
<polygon fill="white" stroke="black" points="112.5,-56.5 112.5,-75.5 187.5,-75.5 187.5,-56.5 112.5,-56.5"/>
<text text-anchor="middle" x="150" y="-63.5" font-family="Helvetica,sans-Serif" font-size="10.00">kns_types.h</text>
</a>
</g>
</g>
<!-- Node3&#45;&gt;Node6 -->
<g id="edge5" class="edge">
<title>Node3&#45;&gt;Node6</title>
<path fill="none" stroke="midnightblue" d="M368.35,-113.6C324.04,-104.15 247.1,-87.72 197.39,-77.11"/>
<polygon fill="midnightblue" stroke="midnightblue" points="198.03,-73.67 187.52,-75.01 196.57,-80.52 198.03,-73.67"/>
</g>
<!-- Node6&#45;&gt;Node5 -->
<g id="edge6" class="edge">
<title>Node6&#45;&gt;Node5</title>
<path fill="none" stroke="midnightblue" d="M144.55,-56.08C139.99,-48.61 133.33,-37.72 127.71,-28.52"/>
<polygon fill="midnightblue" stroke="midnightblue" points="130.55,-26.46 122.35,-19.75 124.58,-30.11 130.55,-26.46"/>
</g>
<!-- Node9&#45;&gt;Node4 -->
<g id="edge10" class="edge">
<title>Node9&#45;&gt;Node4</title>
<path fill="none" stroke="midnightblue" d="M125.38,-224.48C174.57,-206.74 282.75,-164.77 303,-132 311.52,-118.21 310.17,-99.44 307.34,-85.61"/>
<polygon fill="midnightblue" stroke="midnightblue" points="310.7,-84.64 304.91,-75.77 303.91,-86.32 310.7,-84.64"/>
</g>
<!-- Node9&#45;&gt;Node5 -->
<g id="edge11" class="edge">
<title>Node9&#45;&gt;Node5</title>
<path fill="none" stroke="midnightblue" d="M81.14,-224.43C66.46,-217 47.29,-204.79 37,-188 19.25,-159.04 21.43,-145.11 29,-112 35.15,-85.06 38.36,-77.27 56,-56 66.17,-43.73 80.38,-33 92.52,-25.09"/>
<polygon fill="midnightblue" stroke="midnightblue" points="94.66,-27.88 101.3,-19.62 90.96,-21.94 94.66,-27.88"/>
</g>
<!-- Node9&#45;&gt;Node6 -->
<g id="edge12" class="edge">
<title>Node9&#45;&gt;Node6</title>
<path fill="none" stroke="midnightblue" d="M87.56,-224.34C76.25,-216.31 60.58,-203.31 52,-188 35.31,-158.23 22.02,-140.37 41,-112 54.78,-91.4 79.91,-80.22 102.57,-74.15"/>
<polygon fill="midnightblue" stroke="midnightblue" points="103.52,-77.53 112.42,-71.79 101.88,-70.72 103.52,-77.53"/>
</g>
<!-- Node10 -->
<g id="node10" class="node">
<title>Node10</title>
<g id="a_node10"><a xlink:href="../../d8/dd1/kns__q__conf_8h.html" target="_top" xlink:title="Configuration of queues used in kineis_sw.">
<polygon fill="white" stroke="black" points="61,-168.5 61,-187.5 141,-187.5 141,-168.5 61,-168.5"/>
<text text-anchor="middle" x="101" y="-175.5" font-family="Helvetica,sans-Serif" font-size="10.00">kns_q_conf.h</text>
</a>
</g>
</g>
<!-- Node9&#45;&gt;Node10 -->
<g id="edge13" class="edge">
<title>Node9&#45;&gt;Node10</title>
<path fill="none" stroke="midnightblue" d="M101,-224.08C101,-217.01 101,-206.86 101,-197.99"/>
<polygon fill="midnightblue" stroke="midnightblue" points="104.5,-197.75 101,-187.75 97.5,-197.75 104.5,-197.75"/>
</g>
<!-- Node10&#45;&gt;Node4 -->
<g id="edge14" class="edge">
<title>Node10&#45;&gt;Node4</title>
<path fill="none" stroke="midnightblue" d="M141.23,-171.78C188.46,-164.87 262.91,-151.26 283,-132 295.45,-120.06 299.87,-100.44 301.38,-85.88"/>
<polygon fill="midnightblue" stroke="midnightblue" points="304.89,-85.73 302.06,-75.53 297.91,-85.28 304.89,-85.73"/>
</g>
<!-- Node10&#45;&gt;Node5 -->
<g id="edge15" class="edge">
<title>Node10&#45;&gt;Node5</title>
<path fill="none" stroke="midnightblue" d="M81.7,-168.48C67.57,-161.08 49.44,-148.89 41,-132 37.02,-124.05 38.18,-120.43 41,-112 52.63,-77.22 81.46,-44.8 100.08,-26.49"/>
<polygon fill="midnightblue" stroke="midnightblue" points="102.55,-28.98 107.36,-19.54 97.71,-23.92 102.55,-28.98"/>
</g>
<!-- Node11 -->
<g id="node11" class="node">
<title>Node11</title>
<g id="a_node11"><a xlink:href="../../df/d64/kns__mac__evt_8h.html" target="_top" xlink:title=" ">
<polygon fill="white" stroke="black" points="50,-112.5 50,-131.5 140,-131.5 140,-112.5 50,-112.5"/>
<text text-anchor="middle" x="95" y="-119.5" font-family="Helvetica,sans-Serif" font-size="10.00">kns_mac_evt.h</text>
</a>
</g>
</g>
<!-- Node10&#45;&gt;Node11 -->
<g id="edge16" class="edge">
<title>Node10&#45;&gt;Node11</title>
<path fill="none" stroke="midnightblue" d="M100.01,-168.08C99.21,-160.93 98.07,-150.64 97.08,-141.69"/>
<polygon fill="midnightblue" stroke="midnightblue" points="100.56,-141.3 95.97,-131.75 93.6,-142.08 100.56,-141.3"/>
</g>
<!-- Node12 -->
<g id="node12" class="node">
<title>Node12</title>
<g id="a_node12"><a xlink:href="../../d7/d8a/kns__srvc__common_8h.html" target="_top" xlink:title="Common part of Kinéis service layer.">
<polygon fill="white" stroke="black" points="158,-112.5 158,-131.5 274,-131.5 274,-112.5 158,-112.5"/>
<text text-anchor="middle" x="216" y="-119.5" font-family="Helvetica,sans-Serif" font-size="10.00">kns_srvc_common.h</text>
</a>
</g>
</g>
<!-- Node10&#45;&gt;Node12 -->
<g id="edge20" class="edge">
<title>Node10&#45;&gt;Node12</title>
<path fill="none" stroke="midnightblue" d="M119.22,-168.44C137.9,-159.68 167.16,-145.94 188.62,-135.86"/>
<polygon fill="midnightblue" stroke="midnightblue" points="190.3,-138.93 197.86,-131.52 187.32,-132.6 190.3,-138.93"/>
</g>
<!-- Node11&#45;&gt;Node4 -->
<g id="edge17" class="edge">
<title>Node11&#45;&gt;Node4</title>
<path fill="none" stroke="midnightblue" d="M127.8,-112.44C163.8,-103.05 221.66,-87.96 260.72,-77.77"/>
<polygon fill="midnightblue" stroke="midnightblue" points="261.92,-81.07 270.71,-75.16 260.15,-74.3 261.92,-81.07"/>
</g>
<!-- Node11&#45;&gt;Node5 -->
<g id="edge18" class="edge">
<title>Node11&#45;&gt;Node5</title>
<path fill="none" stroke="midnightblue" d="M95.59,-112.08C96.54,-99.48 98.74,-75.79 103,-56 104.94,-46.99 107.88,-37.2 110.57,-29.05"/>
<polygon fill="midnightblue" stroke="midnightblue" points="113.91,-30.1 113.85,-19.5 107.29,-27.82 113.91,-30.1"/>
</g>
<!-- Node11&#45;&gt;Node6 -->
<g id="edge19" class="edge">
<title>Node11&#45;&gt;Node6</title>
<path fill="none" stroke="midnightblue" d="M104.08,-112.08C112.17,-104.14 124.2,-92.34 133.91,-82.8"/>
<polygon fill="midnightblue" stroke="midnightblue" points="136.4,-85.25 141.09,-75.75 131.5,-80.26 136.4,-85.25"/>
</g>
<!-- Node12&#45;&gt;Node4 -->
<g id="edge21" class="edge">
<title>Node12&#45;&gt;Node4</title>
<path fill="none" stroke="midnightblue" d="M229.82,-112.32C243.23,-103.9 263.82,-90.97 279.59,-81.07"/>
<polygon fill="midnightblue" stroke="midnightblue" points="281.61,-83.94 288.22,-75.65 277.89,-78.01 281.61,-83.94"/>
</g>
<!-- Node12&#45;&gt;Node5 -->
<g id="edge22" class="edge">
<title>Node12&#45;&gt;Node5</title>
<path fill="none" stroke="midnightblue" d="M215.37,-112.49C213.98,-99.11 209.59,-72.95 196,-56 184.47,-41.62 167.02,-31 151.46,-23.69"/>
<polygon fill="midnightblue" stroke="midnightblue" points="152.64,-20.39 142.08,-19.57 149.82,-26.8 152.64,-20.39"/>
</g>
<!-- Node12&#45;&gt;Node6 -->
<g id="edge23" class="edge">
<title>Node12&#45;&gt;Node6</title>
<path fill="none" stroke="midnightblue" d="M205.4,-112.32C195.54,-104.26 180.65,-92.08 168.78,-82.37"/>
<polygon fill="midnightblue" stroke="midnightblue" points="170.75,-79.46 160.8,-75.83 166.32,-84.88 170.75,-79.46"/>
</g>
</g>
</svg>
