<?xml version="1.0" encoding="UTF-8" standalone="no"?>
<!DOCTYPE svg PUBLIC "-//W3C//DTD SVG 1.1//EN"
 "http://www.w3.org/Graphics/SVG/1.1/DTD/svg11.dtd">
<!-- Generated by graphviz version 2.43.0 (0)
 -->
<!-- Title: Kineis/Lpm/Src/mgr_lpm.c Pages: 1 -->
<!--zoomable 375 -->
<svg id="main" version="1.1" xmlns="http://www.w3.org/2000/svg" xmlns:xlink="http://www.w3.org/1999/xlink" xml:space="preserve" onload="init(evt)">
<style type="text/css"><![CDATA[
.edge:hover path { stroke: red; }
.edge:hover polygon { stroke: red; fill: red; }
]]></style>
<script type="text/javascript"><![CDATA[
var edges = document.getElementsByTagName('g');
if (edges && edges.length) {
  for (var i=0;i<edges.length;i++) {
    if (edges[i].id.substr(0,4)=='edge') {
      edges[i].setAttribute('class','edge');
    }
  }
}
]]></script>
        <defs>
                <circle id="rim" cx="0" cy="0" r="7"/>
                <circle id="rim2" cx="0" cy="0" r="3.5"/>
                <g id="zoomPlus">
                        <use xlink:href="#rim" fill="#404040">
                                <set attributeName="fill" to="#808080" begin="zoomplus.mouseover" end="zoomplus.mouseout"/>
                        </use>
                        <path d="M-4,0h8M0,-4v8" fill="none" stroke="white" stroke-width="1.5" pointer-events="none"/>
                </g>
                <g id="zoomMin">
                        <use xlink:href="#rim" fill="#404040">
                                <set attributeName="fill" to="#808080" begin="zoomminus.mouseover" end="zoomminus.mouseout"/>
                        </use>
                        <path d="M-4,0h8" fill="none" stroke="white" stroke-width="1.5" pointer-events="none"/>
                </g>
                <g id="dirArrow">
                        <path fill="none" stroke="white" stroke-width="1.5" d="M0,-3.0v7 M-2.5,-0.5L0,-3.0L2.5,-0.5"/>
                </g>
               <g id="resetDef">
                       <use xlink:href="#rim2" fill="#404040">
                               <set attributeName="fill" to="#808080" begin="reset.mouseover" end="reset.mouseout"/>
                       </use>
               </g>
        </defs>

<script type="text/javascript">
var viewWidth = 701;
var viewHeight = 375;
var sectionId = 'dynsection-0';
</script>
<script xlink:href="../../svgpan.js"/>
<svg id="graph" class="graph">
<g id="viewport">
<title>Kineis/Lpm/Src/mgr_lpm.c</title>
<polygon fill="white" stroke="transparent" points="-4,4 -4,-371 696.99,-371 696.99,4 -4,4"/>
<!-- Node1 -->
<g id="node1" class="node">
<title>Node1</title>
<g id="a_node1"><a xlink:title="low power mode manager is in charge to collect all low power needs from &#39;clients&#39; and setup the corre...">
<polygon fill="#bfbfbf" stroke="black" points="106.5,-336.5 106.5,-366.5 217.5,-366.5 217.5,-336.5 106.5,-336.5"/>
<text text-anchor="start" x="114.5" y="-354.5" font-family="Helvetica,sans-Serif" font-size="10.00">Kineis/Lpm/Src/mgr</text>
<text text-anchor="middle" x="162" y="-343.5" font-family="Helvetica,sans-Serif" font-size="10.00">_lpm.c</text>
</a>
</g>
</g>
<!-- Node2 -->
<g id="node2" class="node">
<title>Node2</title>
<g id="a_node2"><a xlink:title=" ">
<polygon fill="white" stroke="#bfbfbf" points="0,-280.5 0,-299.5 56,-299.5 56,-280.5 0,-280.5"/>
<text text-anchor="middle" x="28" y="-287.5" font-family="Helvetica,sans-Serif" font-size="10.00">stddef.h</text>
</a>
</g>
</g>
<!-- Node1&#45;&gt;Node2 -->
<g id="edge1" class="edge">
<title>Node1&#45;&gt;Node2</title>
<path fill="none" stroke="midnightblue" d="M130.24,-336.4C107.96,-326.51 78.41,-313.38 56.81,-303.79"/>
<polygon fill="midnightblue" stroke="midnightblue" points="58.06,-300.52 47.5,-299.66 55.22,-306.91 58.06,-300.52"/>
</g>
<!-- Node3 -->
<g id="node3" class="node">
<title>Node3</title>
<g id="a_node3"><a xlink:href="../../df/d63/mgr__lpm_8h.html" target="_top" xlink:title="low power mode manager is in charge to collect all low power needs from &#39;clients&#39; and setup the corre...">
<polygon fill="white" stroke="black" points="231.5,-168.5 231.5,-187.5 300.5,-187.5 300.5,-168.5 231.5,-168.5"/>
<text text-anchor="middle" x="266" y="-175.5" font-family="Helvetica,sans-Serif" font-size="10.00">mgr_lpm.h</text>
</a>
</g>
</g>
<!-- Node1&#45;&gt;Node3 -->
<g id="edge2" class="edge">
<title>Node1&#45;&gt;Node3</title>
<path fill="none" stroke="midnightblue" d="M136.08,-336.33C115.13,-322.9 90.97,-301.61 103,-280 129.2,-232.94 187.39,-205.02 226.67,-190.85"/>
<polygon fill="midnightblue" stroke="midnightblue" points="227.91,-194.12 236.21,-187.54 225.62,-187.51 227.91,-194.12"/>
</g>
<!-- Node7 -->
<g id="node7" class="node">
<title>Node7</title>
<g id="a_node7"><a xlink:href="../../d9/dc4/kineis__sw__conf_8h.html" target="_top" xlink:title="Kineis stack SW configurations depending on platform used.">
<polygon fill="white" stroke="black" points="112.5,-280.5 112.5,-299.5 211.5,-299.5 211.5,-280.5 112.5,-280.5"/>
<text text-anchor="middle" x="162" y="-287.5" font-family="Helvetica,sans-Serif" font-size="10.00">kineis_sw_conf.h</text>
</a>
</g>
</g>
<!-- Node1&#45;&gt;Node7 -->
<g id="edge7" class="edge">
<title>Node1&#45;&gt;Node7</title>
<path fill="none" stroke="midnightblue" d="M162,-336.4C162,-328.47 162,-318.46 162,-309.86"/>
<polygon fill="midnightblue" stroke="midnightblue" points="165.5,-309.66 162,-299.66 158.5,-309.66 165.5,-309.66"/>
</g>
<!-- Node8 -->
<g id="node8" class="node">
<title>Node8</title>
<g id="a_node8"><a xlink:href="../../d5/d04/kns__app__conf_8h.html" target="_top" xlink:title="Kineis Application configurations depending on platform used.">
<polygon fill="white" stroke="black" points="230,-280.5 230,-299.5 322,-299.5 322,-280.5 230,-280.5"/>
<text text-anchor="middle" x="276" y="-287.5" font-family="Helvetica,sans-Serif" font-size="10.00">kns_app_conf.h</text>
</a>
</g>
</g>
<!-- Node1&#45;&gt;Node8 -->
<g id="edge8" class="edge">
<title>Node1&#45;&gt;Node8</title>
<path fill="none" stroke="midnightblue" d="M189.02,-336.4C207.63,-326.68 232.21,-313.86 250.49,-304.31"/>
<polygon fill="midnightblue" stroke="midnightblue" points="252.17,-307.39 259.41,-299.66 248.93,-301.18 252.17,-307.39"/>
</g>
<!-- Node9 -->
<g id="node9" class="node">
<title>Node9</title>
<g id="a_node9"><a xlink:href="../../d0/d84/kns__q_8h.html" target="_top" xlink:title="Configuration of queues used in kineis_swr.">
<polygon fill="white" stroke="black" points="340,-280.5 340,-299.5 394,-299.5 394,-280.5 340,-280.5"/>
<text text-anchor="middle" x="367" y="-287.5" font-family="Helvetica,sans-Serif" font-size="10.00">kns_q.h</text>
</a>
</g>
</g>
<!-- Node1&#45;&gt;Node9 -->
<g id="edge9" class="edge">
<title>Node1&#45;&gt;Node9</title>
<path fill="none" stroke="midnightblue" d="M210.32,-336.47C246.9,-325.86 296.4,-311.49 329.9,-301.77"/>
<polygon fill="midnightblue" stroke="midnightblue" points="331.12,-305.06 339.75,-298.91 329.17,-298.33 331.12,-305.06"/>
</g>
<!-- Node4 -->
<g id="node4" class="node">
<title>Node4</title>
<g id="a_node4"><a xlink:title=" ">
<polygon fill="white" stroke="#bfbfbf" points="357,-112.5 357,-131.5 419,-131.5 419,-112.5 357,-112.5"/>
<text text-anchor="middle" x="388" y="-119.5" font-family="Helvetica,sans-Serif" font-size="10.00">stdbool.h</text>
</a>
</g>
</g>
<!-- Node3&#45;&gt;Node4 -->
<g id="edge3" class="edge">
<title>Node3&#45;&gt;Node4</title>
<path fill="none" stroke="midnightblue" d="M285.33,-168.44C305.32,-159.6 336.74,-145.69 359.56,-135.59"/>
<polygon fill="midnightblue" stroke="midnightblue" points="361.03,-138.76 368.76,-131.52 358.2,-132.36 361.03,-138.76"/>
</g>
<!-- Node5 -->
<g id="node5" class="node">
<title>Node5</title>
<g id="a_node5"><a xlink:title=" ">
<polygon fill="white" stroke="#bfbfbf" points="458.5,-0.5 458.5,-19.5 511.5,-19.5 511.5,-0.5 458.5,-0.5"/>
<text text-anchor="middle" x="485" y="-7.5" font-family="Helvetica,sans-Serif" font-size="10.00">stdint.h</text>
</a>
</g>
</g>
<!-- Node3&#45;&gt;Node5 -->
<g id="edge4" class="edge">
<title>Node3&#45;&gt;Node5</title>
<path fill="none" stroke="midnightblue" d="M267.97,-168.19C271.3,-154.88 279.07,-129.34 293,-112 333.27,-61.88 405.21,-33.69 448.67,-20.47"/>
<polygon fill="midnightblue" stroke="midnightblue" points="449.67,-23.83 458.28,-17.65 447.7,-17.11 449.67,-23.83"/>
</g>
<!-- Node6 -->
<g id="node6" class="node">
<title>Node6</title>
<g id="a_node6"><a xlink:href="../../d8/d85/kns__types_8h.html" target="_top" xlink:title="Kineis types definition.">
<polygon fill="white" stroke="black" points="381.5,-56.5 381.5,-75.5 456.5,-75.5 456.5,-56.5 381.5,-56.5"/>
<text text-anchor="middle" x="419" y="-63.5" font-family="Helvetica,sans-Serif" font-size="10.00">kns_types.h</text>
</a>
</g>
</g>
<!-- Node3&#45;&gt;Node6 -->
<g id="edge5" class="edge">
<title>Node3&#45;&gt;Node6</title>
<path fill="none" stroke="midnightblue" d="M270.6,-168.28C278.19,-154.62 294.56,-128.08 315,-112 333.87,-97.16 358.38,-86.24 378.87,-78.88"/>
<polygon fill="midnightblue" stroke="midnightblue" points="380.24,-82.11 388.56,-75.55 377.96,-75.49 380.24,-82.11"/>
</g>
<!-- Node6&#45;&gt;Node5 -->
<g id="edge6" class="edge">
<title>Node6&#45;&gt;Node5</title>
<path fill="none" stroke="midnightblue" d="M429.6,-56.32C439.46,-48.26 454.35,-36.08 466.22,-26.37"/>
<polygon fill="midnightblue" stroke="midnightblue" points="468.68,-28.88 474.2,-19.83 464.25,-23.46 468.68,-28.88"/>
</g>
<!-- Node9&#45;&gt;Node4 -->
<g id="edge10" class="edge">
<title>Node9&#45;&gt;Node4</title>
<path fill="none" stroke="midnightblue" d="M368.13,-280.08C371.43,-253.95 381.14,-177.21 385.65,-141.58"/>
<polygon fill="midnightblue" stroke="midnightblue" points="389.13,-141.93 386.92,-131.57 382.19,-141.05 389.13,-141.93"/>
</g>
<!-- Node9&#45;&gt;Node5 -->
<g id="edge11" class="edge">
<title>Node9&#45;&gt;Node5</title>
<path fill="none" stroke="midnightblue" d="M346.89,-280.43C303.1,-261.14 203,-213.28 203,-179 203,-179 203,-179 203,-121 203,-68.93 372,-31.56 448.34,-17.33"/>
<polygon fill="midnightblue" stroke="midnightblue" points="449.26,-20.72 458.47,-15.48 448,-13.83 449.26,-20.72"/>
</g>
<!-- Node9&#45;&gt;Node6 -->
<g id="edge12" class="edge">
<title>Node9&#45;&gt;Node6</title>
<path fill="none" stroke="midnightblue" d="M362.71,-280.2C350.17,-253.12 316.42,-169.41 348,-112 355.89,-97.66 370.49,-87.25 384.4,-80.08"/>
<polygon fill="midnightblue" stroke="midnightblue" points="386.29,-83.06 393.84,-75.62 383.3,-76.73 386.29,-83.06"/>
</g>
<!-- Node10 -->
<g id="node10" class="node">
<title>Node10</title>
<g id="a_node10"><a xlink:href="../../d8/dd1/kns__q__conf_8h.html" target="_top" xlink:title="Configuration of queues used in kineis_sw.">
<polygon fill="white" stroke="black" points="451,-224.5 451,-243.5 531,-243.5 531,-224.5 451,-224.5"/>
<text text-anchor="middle" x="491" y="-231.5" font-family="Helvetica,sans-Serif" font-size="10.00">kns_q_conf.h</text>
</a>
</g>
</g>
<!-- Node9&#45;&gt;Node10 -->
<g id="edge13" class="edge">
<title>Node9&#45;&gt;Node10</title>
<path fill="none" stroke="midnightblue" d="M386.65,-280.44C406.96,-271.6 438.9,-257.69 462.1,-247.59"/>
<polygon fill="midnightblue" stroke="midnightblue" points="463.67,-250.72 471.44,-243.52 460.88,-244.3 463.67,-250.72"/>
</g>
<!-- Node10&#45;&gt;Node4 -->
<g id="edge14" class="edge">
<title>Node10&#45;&gt;Node4</title>
<path fill="none" stroke="midnightblue" d="M473.65,-224.37C459.05,-216.44 438.31,-203.59 424,-188 411.35,-174.22 401.48,-155.19 395.3,-141.28"/>
<polygon fill="midnightblue" stroke="midnightblue" points="398.42,-139.67 391.31,-131.82 391.97,-142.39 398.42,-139.67"/>
</g>
<!-- Node10&#45;&gt;Node5 -->
<g id="edge15" class="edge">
<title>Node10&#45;&gt;Node5</title>
<path fill="none" stroke="midnightblue" d="M531.35,-232.87C570.37,-230.62 628.89,-221.33 666,-188 692.07,-164.58 698.81,-144.99 687,-112 676.14,-81.68 667.91,-73.7 641,-56 604.56,-32.02 555.17,-20.59 521.8,-15.3"/>
<polygon fill="midnightblue" stroke="midnightblue" points="521.97,-11.78 511.57,-13.79 520.95,-18.71 521.97,-11.78"/>
</g>
<!-- Node11 -->
<g id="node11" class="node">
<title>Node11</title>
<g id="a_node11"><a xlink:href="../../df/d64/kns__mac__evt_8h.html" target="_top" xlink:title=" ">
<polygon fill="white" stroke="black" points="567,-168.5 567,-187.5 657,-187.5 657,-168.5 567,-168.5"/>
<text text-anchor="middle" x="612" y="-175.5" font-family="Helvetica,sans-Serif" font-size="10.00">kns_mac_evt.h</text>
</a>
</g>
</g>
<!-- Node10&#45;&gt;Node11 -->
<g id="edge16" class="edge">
<title>Node10&#45;&gt;Node11</title>
<path fill="none" stroke="midnightblue" d="M510.17,-224.44C529.91,-215.64 560.89,-201.81 583.49,-191.72"/>
<polygon fill="midnightblue" stroke="midnightblue" points="585.21,-194.79 592.92,-187.52 582.36,-188.4 585.21,-194.79"/>
</g>
<!-- Node13 -->
<g id="node13" class="node">
<title>Node13</title>
<g id="a_node13"><a xlink:href="../../d7/d8a/kns__srvc__common_8h.html" target="_top" xlink:title="Common part of Kinéis service layer.">
<polygon fill="white" stroke="black" points="433,-168.5 433,-187.5 549,-187.5 549,-168.5 433,-168.5"/>
<text text-anchor="middle" x="491" y="-175.5" font-family="Helvetica,sans-Serif" font-size="10.00">kns_srvc_common.h</text>
</a>
</g>
</g>
<!-- Node10&#45;&gt;Node13 -->
<g id="edge23" class="edge">
<title>Node10&#45;&gt;Node13</title>
<path fill="none" stroke="midnightblue" d="M491,-224.08C491,-217.01 491,-206.86 491,-197.99"/>
<polygon fill="midnightblue" stroke="midnightblue" points="494.5,-197.75 491,-187.75 487.5,-197.75 494.5,-197.75"/>
</g>
<!-- Node11&#45;&gt;Node4 -->
<g id="edge17" class="edge">
<title>Node11&#45;&gt;Node4</title>
<path fill="none" stroke="midnightblue" d="M576.51,-168.44C536.5,-158.8 471.56,-143.14 429.31,-132.96"/>
<polygon fill="midnightblue" stroke="midnightblue" points="429.89,-129.5 419.35,-130.56 428.25,-136.3 429.89,-129.5"/>
</g>
<!-- Node11&#45;&gt;Node5 -->
<g id="edge18" class="edge">
<title>Node11&#45;&gt;Node5</title>
<path fill="none" stroke="midnightblue" d="M630.74,-168.33C653.05,-156.73 685.69,-134.95 672,-112 639.47,-57.46 566.17,-30.61 521.61,-18.86"/>
<polygon fill="midnightblue" stroke="midnightblue" points="522.31,-15.43 511.76,-16.39 520.6,-22.22 522.31,-15.43"/>
</g>
<!-- Node11&#45;&gt;Node6 -->
<g id="edge19" class="edge">
<title>Node11&#45;&gt;Node6</title>
<path fill="none" stroke="midnightblue" d="M596.86,-168.37C563.45,-149.33 483.24,-103.62 442.95,-80.65"/>
<polygon fill="midnightblue" stroke="midnightblue" points="444.5,-77.5 434.07,-75.59 441.03,-83.58 444.5,-77.5"/>
</g>
<!-- Node12 -->
<g id="node12" class="node">
<title>Node12</title>
<g id="a_node12"><a xlink:href="../../d8/d4a/kns__mac__prfl__cfg_8h.html" target="_top" xlink:title="Header file describing the ser settings required to configure a MAC protocol.">
<polygon fill="white" stroke="black" points="551.5,-112.5 551.5,-131.5 662.5,-131.5 662.5,-112.5 551.5,-112.5"/>
<text text-anchor="middle" x="607" y="-119.5" font-family="Helvetica,sans-Serif" font-size="10.00">kns_mac_prfl_cfg.h</text>
</a>
</g>
</g>
<!-- Node11&#45;&gt;Node12 -->
<g id="edge20" class="edge">
<title>Node11&#45;&gt;Node12</title>
<path fill="none" stroke="midnightblue" d="M611.17,-168.08C610.52,-161.01 609.58,-150.86 608.76,-141.99"/>
<polygon fill="midnightblue" stroke="midnightblue" points="612.22,-141.39 607.81,-131.75 605.25,-142.03 612.22,-141.39"/>
</g>
<!-- Node12&#45;&gt;Node5 -->
<g id="edge21" class="edge">
<title>Node12&#45;&gt;Node5</title>
<path fill="none" stroke="midnightblue" d="M597.43,-112.37C576.85,-93.81 528.16,-49.91 502.12,-26.44"/>
<polygon fill="midnightblue" stroke="midnightblue" points="504.3,-23.69 494.53,-19.59 499.61,-28.89 504.3,-23.69"/>
</g>
<!-- Node12&#45;&gt;Node6 -->
<g id="edge22" class="edge">
<title>Node12&#45;&gt;Node6</title>
<path fill="none" stroke="midnightblue" d="M577.21,-112.44C545.17,-103.24 494.07,-88.56 458.65,-78.39"/>
<polygon fill="midnightblue" stroke="midnightblue" points="459.23,-74.91 448.65,-75.52 457.29,-81.64 459.23,-74.91"/>
</g>
<!-- Node13&#45;&gt;Node4 -->
<g id="edge24" class="edge">
<title>Node13&#45;&gt;Node4</title>
<path fill="none" stroke="midnightblue" d="M474.45,-168.32C458.01,-159.7 432.57,-146.36 413.53,-136.39"/>
<polygon fill="midnightblue" stroke="midnightblue" points="414.99,-133.2 404.51,-131.65 411.74,-139.4 414.99,-133.2"/>
</g>
<!-- Node13&#45;&gt;Node5 -->
<g id="edge25" class="edge">
<title>Node13&#45;&gt;Node5</title>
<path fill="none" stroke="midnightblue" d="M490.68,-168.08C489.73,-141.95 486.96,-65.21 485.67,-29.58"/>
<polygon fill="midnightblue" stroke="midnightblue" points="489.17,-29.44 485.31,-19.57 482.17,-29.69 489.17,-29.44"/>
</g>
<!-- Node13&#45;&gt;Node6 -->
<g id="edge26" class="edge">
<title>Node13&#45;&gt;Node6</title>
<path fill="none" stroke="midnightblue" d="M485.35,-168.37C473.47,-150.22 445.71,-107.8 430.12,-83.99"/>
<polygon fill="midnightblue" stroke="midnightblue" points="433.03,-82.04 424.62,-75.59 427.17,-85.88 433.03,-82.04"/>
</g>
</g>
</svg>
        <g id="navigator" transform="translate(0 0)" fill="#404254">
                <rect fill="#f2f5e9" fill-opacity="0.5" stroke="#606060" stroke-width=".5" x="0" y="0" width="60" height="60"/>
                <use id="zoomplus" xlink:href="#zoomPlus" x="17" y="9" onmousedown="handleZoom(evt,'in')"/>
                <use id="zoomminus" xlink:href="#zoomMin" x="42" y="9" onmousedown="handleZoom(evt,'out')"/>
                <use id="reset" xlink:href="#resetDef" x="30" y="36" onmousedown="handleReset()"/>
                <g id="arrowUp" xlink:href="#dirArrow" transform="translate(30 24)" onmousedown="handlePan(0,-1)">
                  <use xlink:href="#rim" fill="#404040">
                        <set attributeName="fill" to="#808080" begin="arrowUp.mouseover" end="arrowUp.mouseout"/>
                  </use>
                  <path fill="none" stroke="white" stroke-width="1.5" d="M0,-3.0v7 M-2.5,-0.5L0,-3.0L2.5,-0.5"/>
                </g>
                <g id="arrowRight" xlink:href="#dirArrow" transform="rotate(90) translate(36 -43)" onmousedown="handlePan(1,0)">
                  <use xlink:href="#rim" fill="#404040">
                        <set attributeName="fill" to="#808080" begin="arrowRight.mouseover" end="arrowRight.mouseout"/>
                  </use>
                  <path fill="none" stroke="white" stroke-width="1.5" d="M0,-3.0v7 M-2.5,-0.5L0,-3.0L2.5,-0.5"/>
                </g>
                <g id="arrowDown" xlink:href="#dirArrow" transform="rotate(180) translate(-30 -48)" onmousedown="handlePan(0,1)">
                  <use xlink:href="#rim" fill="#404040">
                        <set attributeName="fill" to="#808080" begin="arrowDown.mouseover" end="arrowDown.mouseout"/>
                  </use>
                  <path fill="none" stroke="white" stroke-width="1.5" d="M0,-3.0v7 M-2.5,-0.5L0,-3.0L2.5,-0.5"/>
                </g>
                <g id="arrowLeft" xlink:href="#dirArrow" transform="rotate(270) translate(-36 17)" onmousedown="handlePan(-1,0)">
                  <use xlink:href="#rim" fill="#404040">
                        <set attributeName="fill" to="#808080" begin="arrowLeft.mouseover" end="arrowLeft.mouseout"/>
                  </use>
                  <path fill="none" stroke="white" stroke-width="1.5" d="M0,-3.0v7 M-2.5,-0.5L0,-3.0L2.5,-0.5"/>
                </g>
        </g>
        <svg viewBox="0 0 15 15" width="100%" height="30px" preserveAspectRatio="xMaxYMin meet">
         <g id="arrow_out" transform="scale(0.3 0.3)">
          <a xlink:href="mgr__lpm_8c__incl_org.svg" target="_base">
           <rect id="button" ry="5" rx="5" y="6" x="6" height="38" width="38"
                fill="#f2f5e9" fill-opacity="0.5" stroke="#606060" stroke-width="1.0"/>
           <path id="arrow"
             d="M 11.500037,31.436501 C 11.940474,20.09759 22.043105,11.32322 32.158766,21.979434 L 37.068811,17.246167 C 37.068811,17.246167 37.088388,32 37.088388,32 L 22.160133,31.978069 C 22.160133,31.978069 26.997745,27.140456 26.997745,27.140456 C 18.528582,18.264221 13.291696,25.230495 11.500037,31.436501 z"
             style="fill:#404040;"/>
          </a>
         </g>
        </svg>
</svg>
