<?xml version="1.0" encoding="UTF-8" standalone="no"?>
<!DOCTYPE svg PUBLIC "-//W3C//DTD SVG 1.1//EN"
 "http://www.w3.org/Graphics/SVG/1.1/DTD/svg11.dtd">
<!-- Generated by graphviz version 2.43.0 (0)
 -->
<!-- Title: Kineis/App/Kineis_os/KNS_OS/Inc/kns_os.h Pages: 1 -->
<svg width="305pt" height="151pt"
 viewBox="0.00 0.00 304.50 151.00" xmlns="http://www.w3.org/2000/svg" xmlns:xlink="http://www.w3.org/1999/xlink">
<g id="graph0" class="graph" transform="scale(1 1) rotate(0) translate(4 147)">
<title>Kineis/App/Kineis_os/KNS_OS/Inc/kns_os.h</title>
<polygon fill="white" stroke="transparent" points="-4,4 -4,-147 300.5,-147 300.5,4 -4,4"/>
<!-- Node1 -->
<g id="node1" class="node">
<title>Node1</title>
<g id="a_node1"><a xlink:title="Minimalist baremetal OS to be used with Kineissoftware stack.">
<polygon fill="#bfbfbf" stroke="black" points="62,-112.5 62,-142.5 184,-142.5 184,-112.5 62,-112.5"/>
<text text-anchor="start" x="70" y="-130.5" font-family="Helvetica,sans-Serif" font-size="10.00">Kineis/App/Kineis_os</text>
<text text-anchor="middle" x="123" y="-119.5" font-family="Helvetica,sans-Serif" font-size="10.00">/KNS_OS/Inc/kns_os.h</text>
</a>
</g>
</g>
<!-- Node2 -->
<g id="node2" class="node">
<title>Node2</title>
<g id="a_node2"><a xlink:title=" ">
<polygon fill="white" stroke="#bfbfbf" points="0,-56.5 0,-75.5 62,-75.5 62,-56.5 0,-56.5"/>
<text text-anchor="middle" x="31" y="-63.5" font-family="Helvetica,sans-Serif" font-size="10.00">stdbool.h</text>
</a>
</g>
</g>
<!-- Node1&#45;&gt;Node2 -->
<g id="edge1" class="edge">
<title>Node1&#45;&gt;Node2</title>
<path fill="none" stroke="midnightblue" d="M101.2,-112.4C86.59,-102.95 67.43,-90.56 52.82,-81.11"/>
<polygon fill="midnightblue" stroke="midnightblue" points="54.68,-78.15 44.39,-75.66 50.88,-84.03 54.68,-78.15"/>
</g>
<!-- Node3 -->
<g id="node3" class="node">
<title>Node3</title>
<g id="a_node3"><a xlink:title=" ">
<polygon fill="white" stroke="#bfbfbf" points="96.5,-0.5 96.5,-19.5 149.5,-19.5 149.5,-0.5 96.5,-0.5"/>
<text text-anchor="middle" x="123" y="-7.5" font-family="Helvetica,sans-Serif" font-size="10.00">stdint.h</text>
</a>
</g>
</g>
<!-- Node1&#45;&gt;Node3 -->
<g id="edge2" class="edge">
<title>Node1&#45;&gt;Node3</title>
<path fill="none" stroke="midnightblue" d="M117.62,-112.24C112.91,-98.04 107.23,-75.59 110,-56 111.27,-47.04 113.89,-37.37 116.45,-29.3"/>
<polygon fill="midnightblue" stroke="midnightblue" points="119.77,-30.4 119.66,-19.8 113.14,-28.16 119.77,-30.4"/>
</g>
<!-- Node4 -->
<g id="node4" class="node">
<title>Node4</title>
<g id="a_node4"><a xlink:href="../../d8/d85/kns__types_8h.html" target="_top" xlink:title="Kineis types definition.">
<polygon fill="white" stroke="black" points="118.5,-56.5 118.5,-75.5 193.5,-75.5 193.5,-56.5 118.5,-56.5"/>
<text text-anchor="middle" x="156" y="-63.5" font-family="Helvetica,sans-Serif" font-size="10.00">kns_types.h</text>
</a>
</g>
</g>
<!-- Node1&#45;&gt;Node4 -->
<g id="edge3" class="edge">
<title>Node1&#45;&gt;Node4</title>
<path fill="none" stroke="midnightblue" d="M130.82,-112.4C135.47,-104.02 141.4,-93.33 146.34,-84.42"/>
<polygon fill="midnightblue" stroke="midnightblue" points="149.41,-86.1 151.2,-75.66 143.29,-82.71 149.41,-86.1"/>
</g>
<!-- Node5 -->
<g id="node5" class="node">
<title>Node5</title>
<g id="a_node5"><a xlink:href="../../d6/d73/kns__os__conf_8h.html" target="_top" xlink:title="Configuration of task used with/in kineis_sw.">
<polygon fill="white" stroke="black" points="211.5,-56.5 211.5,-75.5 296.5,-75.5 296.5,-56.5 211.5,-56.5"/>
<text text-anchor="middle" x="254" y="-63.5" font-family="Helvetica,sans-Serif" font-size="10.00">kns_os_conf.h</text>
</a>
</g>
</g>
<!-- Node1&#45;&gt;Node5 -->
<g id="edge5" class="edge">
<title>Node1&#45;&gt;Node5</title>
<path fill="none" stroke="midnightblue" d="M154.05,-112.4C175.73,-102.55 204.46,-89.5 225.55,-79.92"/>
<polygon fill="midnightblue" stroke="midnightblue" points="227.28,-82.98 234.94,-75.66 224.39,-76.61 227.28,-82.98"/>
</g>
<!-- Node4&#45;&gt;Node3 -->
<g id="edge4" class="edge">
<title>Node4&#45;&gt;Node3</title>
<path fill="none" stroke="midnightblue" d="M150.55,-56.08C145.99,-48.61 139.33,-37.72 133.71,-28.52"/>
<polygon fill="midnightblue" stroke="midnightblue" points="136.55,-26.46 128.35,-19.75 130.58,-30.11 136.55,-26.46"/>
</g>
</g>
</svg>
