<?xml version="1.0" encoding="UTF-8" standalone="no"?>
<!DOCTYPE svg PUBLIC "-//W3C//DTD SVG 1.1//EN"
 "http://www.w3.org/Graphics/SVG/1.1/DTD/svg11.dtd">
<!-- Generated by graphviz version 2.43.0 (0)
 -->
<!-- Title: Kineis/App/Managers/MGR_AT_CMD/Src/mgr_at_cmd_list.c Pages: 1 -->
<!--zoomable 285 -->
<svg id="main" version="1.1" xmlns="http://www.w3.org/2000/svg" xmlns:xlink="http://www.w3.org/1999/xlink" xml:space="preserve" onload="init(evt)">
<style type="text/css"><![CDATA[
.edge:hover path { stroke: red; }
.edge:hover polygon { stroke: red; fill: red; }
]]></style>
<script type="text/javascript"><![CDATA[
var edges = document.getElementsByTagName('g');
if (edges && edges.length) {
  for (var i=0;i<edges.length;i++) {
    if (edges[i].id.substr(0,4)=='edge') {
      edges[i].setAttribute('class','edge');
    }
  }
}
]]></script>
        <defs>
                <circle id="rim" cx="0" cy="0" r="7"/>
                <circle id="rim2" cx="0" cy="0" r="3.5"/>
                <g id="zoomPlus">
                        <use xlink:href="#rim" fill="#404040">
                                <set attributeName="fill" to="#808080" begin="zoomplus.mouseover" end="zoomplus.mouseout"/>
                        </use>
                        <path d="M-4,0h8M0,-4v8" fill="none" stroke="white" stroke-width="1.5" pointer-events="none"/>
                </g>
                <g id="zoomMin">
                        <use xlink:href="#rim" fill="#404040">
                                <set attributeName="fill" to="#808080" begin="zoomminus.mouseover" end="zoomminus.mouseout"/>
                        </use>
                        <path d="M-4,0h8" fill="none" stroke="white" stroke-width="1.5" pointer-events="none"/>
                </g>
                <g id="dirArrow">
                        <path fill="none" stroke="white" stroke-width="1.5" d="M0,-3.0v7 M-2.5,-0.5L0,-3.0L2.5,-0.5"/>
                </g>
               <g id="resetDef">
                       <use xlink:href="#rim2" fill="#404040">
                               <set attributeName="fill" to="#808080" begin="reset.mouseover" end="reset.mouseout"/>
                       </use>
               </g>
        </defs>

<script type="text/javascript">
var viewWidth = 840;
var viewHeight = 285;
var sectionId = 'dynsection-0';
</script>
<script xlink:href="../../svgpan.js"/>
<svg id="graph" class="graph">
<g id="viewport">
<title>Kineis/App/Managers/MGR_AT_CMD/Src/mgr_at_cmd_list.c</title>
<polygon fill="white" stroke="transparent" points="-4,4 -4,-281 835.52,-281 835.52,4 -4,4"/>
<!-- Node1 -->
<g id="node1" class="node">
<title>Node1</title>
<g id="a_node1"><a xlink:title="AT commands list main file.">
<polygon fill="#bfbfbf" stroke="black" points="293.02,-235.5 293.02,-276.5 423.02,-276.5 423.02,-235.5 293.02,-235.5"/>
<text text-anchor="start" x="301.02" y="-264.5" font-family="Helvetica,sans-Serif" font-size="10.00">Kineis/App/Managers</text>
<text text-anchor="start" x="301.02" y="-253.5" font-family="Helvetica,sans-Serif" font-size="10.00">/MGR_AT_CMD/Src/mgr</text>
<text text-anchor="middle" x="358.02" y="-242.5" font-family="Helvetica,sans-Serif" font-size="10.00">_at_cmd_list.c</text>
</a>
</g>
</g>
<!-- Node2 -->
<g id="node2" class="node">
<title>Node2</title>
<g id="a_node2"><a xlink:href="../../d5/d58/mgr__at__cmd__common_8h.html" target="_top" xlink:title="header file for common part of the AT cmd manager">
<polygon fill="white" stroke="black" points="291.02,-112.5 291.02,-131.5 425.02,-131.5 425.02,-112.5 291.02,-112.5"/>
<text text-anchor="middle" x="358.02" y="-119.5" font-family="Helvetica,sans-Serif" font-size="10.00">mgr_at_cmd_common.h</text>
</a>
</g>
</g>
<!-- Node1&#45;&gt;Node2 -->
<g id="edge1" class="edge">
<title>Node1&#45;&gt;Node2</title>
<path fill="none" stroke="midnightblue" d="M358.02,-235.24C358.02,-210.03 358.02,-166.74 358.02,-141.93"/>
<polygon fill="midnightblue" stroke="midnightblue" points="361.52,-141.69 358.02,-131.69 354.52,-141.69 361.52,-141.69"/>
</g>
<!-- Node8 -->
<g id="node8" class="node">
<title>Node8</title>
<g id="a_node8"><a xlink:href="../../df/d01/mgr__at__cmd__list_8h.html" target="_top" xlink:title="AT commands list header file.">
<polygon fill="white" stroke="black" points="70.52,-56.5 70.52,-75.5 177.52,-75.5 177.52,-56.5 70.52,-56.5"/>
<text text-anchor="middle" x="124.02" y="-63.5" font-family="Helvetica,sans-Serif" font-size="10.00">mgr_at_cmd_list.h</text>
</a>
</g>
</g>
<!-- Node1&#45;&gt;Node8 -->
<g id="edge9" class="edge">
<title>Node1&#45;&gt;Node8</title>
<path fill="none" stroke="midnightblue" d="M292.9,-254.19C202.4,-251.52 45.63,-240.81 10.02,-199 -27.12,-155.41 52.83,-104.18 97.14,-80.39"/>
<polygon fill="midnightblue" stroke="midnightblue" points="99.02,-83.36 106.26,-75.61 95.77,-77.16 99.02,-83.36"/>
</g>
<!-- Node9 -->
<g id="node9" class="node">
<title>Node9</title>
<g id="a_node9"><a xlink:href="../../d4/ddf/mgr__at__cmd__list__general_8h.html" target="_top" xlink:title="subset of AT commands concerning general purpose (get ID, FW version, ...)">
<polygon fill="white" stroke="black" points="385.52,-174 385.52,-193 534.52,-193 534.52,-174 385.52,-174"/>
<text text-anchor="middle" x="460.02" y="-181" font-family="Helvetica,sans-Serif" font-size="10.00">mgr_at_cmd_list_general.h</text>
</a>
</g>
</g>
<!-- Node1&#45;&gt;Node9 -->
<g id="edge12" class="edge">
<title>Node1&#45;&gt;Node9</title>
<path fill="none" stroke="midnightblue" d="M386.43,-235.36C403.18,-223.78 424.01,-209.39 439.23,-198.87"/>
<polygon fill="midnightblue" stroke="midnightblue" points="441.23,-201.74 447.47,-193.17 437.25,-195.98 441.23,-201.74"/>
</g>
<!-- Node10 -->
<g id="node10" class="node">
<title>Node10</title>
<g id="a_node10"><a xlink:href="../../de/de6/mgr__at__cmd__list__user__data_8h.html" target="_top" xlink:title="subset of AT commands concerning user data manipulation such as TX">
<polygon fill="white" stroke="black" points="552.02,-168.5 552.02,-198.5 676.02,-198.5 676.02,-168.5 552.02,-168.5"/>
<text text-anchor="start" x="560.02" y="-186.5" font-family="Helvetica,sans-Serif" font-size="10.00">mgr_at_cmd_list_user</text>
<text text-anchor="middle" x="614.02" y="-175.5" font-family="Helvetica,sans-Serif" font-size="10.00">_data.h</text>
</a>
</g>
</g>
<!-- Node1&#45;&gt;Node10 -->
<g id="edge14" class="edge">
<title>Node1&#45;&gt;Node10</title>
<path fill="none" stroke="midnightblue" d="M423.28,-237.03C463.29,-226.01 514.17,-212 553.32,-201.22"/>
<polygon fill="midnightblue" stroke="midnightblue" points="554.29,-204.58 563,-198.55 552.43,-197.83 554.29,-204.58"/>
</g>
<!-- Node12 -->
<g id="node12" class="node">
<title>Node12</title>
<g id="a_node12"><a xlink:href="../../da/da4/mgr__at__cmd__list__previpass_8h.html" target="_top" xlink:title="subset of AT commands concerning satellite PASS predictions, usefull for Medium Acces">
<polygon fill="white" stroke="black" points="19.52,-174 19.52,-193 178.52,-193 178.52,-174 19.52,-174"/>
<text text-anchor="middle" x="99.02" y="-181" font-family="Helvetica,sans-Serif" font-size="10.00">mgr_at_cmd_list_previpass.h</text>
</a>
</g>
</g>
<!-- Node1&#45;&gt;Node12 -->
<g id="edge18" class="edge">
<title>Node1&#45;&gt;Node12</title>
<path fill="none" stroke="midnightblue" d="M293,-237.3C244.96,-224.23 181.03,-206.82 139.95,-195.64"/>
<polygon fill="midnightblue" stroke="midnightblue" points="140.84,-192.26 130.27,-193.01 139,-199.01 140.84,-192.26"/>
</g>
<!-- Node13 -->
<g id="node13" class="node">
<title>Node13</title>
<g id="a_node13"><a xlink:href="../../d9/dc9/mgr__at__cmd__list__mac_8h.html" target="_top" xlink:title="subset of AT commands concerning Kinéis Medium Acces Channel (MAC).">
<polygon fill="white" stroke="black" points="196.52,-174 196.52,-193 329.52,-193 329.52,-174 196.52,-174"/>
<text text-anchor="middle" x="263.02" y="-181" font-family="Helvetica,sans-Serif" font-size="10.00">mgr_at_cmd_list_mac.h</text>
</a>
</g>
</g>
<!-- Node1&#45;&gt;Node13 -->
<g id="edge20" class="edge">
<title>Node1&#45;&gt;Node13</title>
<path fill="none" stroke="midnightblue" d="M331.56,-235.36C316.1,-223.89 296.91,-209.65 282.78,-199.16"/>
<polygon fill="midnightblue" stroke="midnightblue" points="284.82,-196.32 274.71,-193.17 280.65,-201.94 284.82,-196.32"/>
</g>
<!-- Node14 -->
<g id="node14" class="node">
<title>Node14</title>
<g id="a_node14"><a xlink:href="../../d3/d95/mgr__at__cmd__list__certif_8h.html" target="_top" xlink:title="subset of AT commands concerning specifics for certification">
<polygon fill="white" stroke="black" points="694.52,-174 694.52,-193 831.52,-193 831.52,-174 694.52,-174"/>
<text text-anchor="middle" x="763.02" y="-181" font-family="Helvetica,sans-Serif" font-size="10.00">mgr_at_cmd_list_certif.h</text>
</a>
</g>
</g>
<!-- Node1&#45;&gt;Node14 -->
<g id="edge22" class="edge">
<title>Node1&#45;&gt;Node14</title>
<path fill="none" stroke="midnightblue" d="M423.21,-244.12C489.24,-233.02 594.3,-215.2 685.02,-199 692.37,-197.69 700.11,-196.28 707.74,-194.88"/>
<polygon fill="midnightblue" stroke="midnightblue" points="708.47,-198.3 717.67,-193.04 707.2,-191.42 708.47,-198.3"/>
</g>
<!-- Node3 -->
<g id="node3" class="node">
<title>Node3</title>
<g id="a_node3"><a xlink:title=" ">
<polygon fill="white" stroke="#bfbfbf" points="424.52,-0.5 424.52,-19.5 477.52,-19.5 477.52,-0.5 424.52,-0.5"/>
<text text-anchor="middle" x="451.02" y="-7.5" font-family="Helvetica,sans-Serif" font-size="10.00">stdint.h</text>
</a>
</g>
</g>
<!-- Node2&#45;&gt;Node3 -->
<g id="edge2" class="edge">
<title>Node2&#45;&gt;Node3</title>
<path fill="none" stroke="midnightblue" d="M380.89,-112.41C397.37,-105.1 418.93,-93.06 432.02,-76 442.3,-62.6 447.02,-43.78 449.19,-29.84"/>
<polygon fill="midnightblue" stroke="midnightblue" points="452.66,-30.26 450.44,-19.9 445.72,-29.38 452.66,-30.26"/>
</g>
<!-- Node4 -->
<g id="node4" class="node">
<title>Node4</title>
<g id="a_node4"><a xlink:title=" ">
<polygon fill="white" stroke="#bfbfbf" points="175.02,-0.5 175.02,-19.5 237.02,-19.5 237.02,-0.5 175.02,-0.5"/>
<text text-anchor="middle" x="206.02" y="-7.5" font-family="Helvetica,sans-Serif" font-size="10.00">stdbool.h</text>
</a>
</g>
</g>
<!-- Node2&#45;&gt;Node4 -->
<g id="edge3" class="edge">
<title>Node2&#45;&gt;Node4</title>
<path fill="none" stroke="midnightblue" d="M295.01,-112.5C270.25,-106.18 243.41,-95.18 225.02,-76 213.2,-63.68 208.68,-44.43 206.97,-30.07"/>
<polygon fill="midnightblue" stroke="midnightblue" points="210.44,-29.51 206.13,-19.83 203.46,-30.08 210.44,-29.51"/>
</g>
<!-- Node5 -->
<g id="node5" class="node">
<title>Node5</title>
<g id="a_node5"><a xlink:href="../../df/d36/strutil__lib_8h.html" target="_top" xlink:title="small utilities to manipulate strings">
<polygon fill="white" stroke="black" points="351.52,-56.5 351.52,-75.5 422.52,-75.5 422.52,-56.5 351.52,-56.5"/>
<text text-anchor="middle" x="387.02" y="-63.5" font-family="Helvetica,sans-Serif" font-size="10.00">strutil_lib.h</text>
</a>
</g>
</g>
<!-- Node2&#45;&gt;Node5 -->
<g id="edge4" class="edge">
<title>Node2&#45;&gt;Node5</title>
<path fill="none" stroke="midnightblue" d="M362.81,-112.08C366.78,-104.69 372.54,-93.95 377.45,-84.81"/>
<polygon fill="midnightblue" stroke="midnightblue" points="380.67,-86.22 382.32,-75.75 374.5,-82.91 380.67,-86.22"/>
</g>
<!-- Node7 -->
<g id="node7" class="node">
<title>Node7</title>
<g id="a_node7"><a xlink:href="../../d9/dc4/kineis__sw__conf_8h.html" target="_top" xlink:title="Kineis stack SW configurations depending on platform used.">
<polygon fill="white" stroke="black" points="234.52,-56.5 234.52,-75.5 333.52,-75.5 333.52,-56.5 234.52,-56.5"/>
<text text-anchor="middle" x="284.02" y="-63.5" font-family="Helvetica,sans-Serif" font-size="10.00">kineis_sw_conf.h</text>
</a>
</g>
</g>
<!-- Node2&#45;&gt;Node7 -->
<g id="edge8" class="edge">
<title>Node2&#45;&gt;Node7</title>
<path fill="none" stroke="midnightblue" d="M346.13,-112.32C334.87,-104.11 317.73,-91.6 304.31,-81.81"/>
<polygon fill="midnightblue" stroke="midnightblue" points="306.26,-78.9 296.12,-75.83 302.14,-84.56 306.26,-78.9"/>
</g>
<!-- Node5&#45;&gt;Node3 -->
<g id="edge5" class="edge">
<title>Node5&#45;&gt;Node3</title>
<path fill="none" stroke="midnightblue" d="M397.3,-56.32C406.85,-48.26 421.3,-36.08 432.8,-26.37"/>
<polygon fill="midnightblue" stroke="midnightblue" points="435.16,-28.96 440.55,-19.83 430.65,-23.61 435.16,-28.96"/>
</g>
<!-- Node5&#45;&gt;Node4 -->
<g id="edge6" class="edge">
<title>Node5&#45;&gt;Node4</title>
<path fill="none" stroke="midnightblue" d="M358.34,-56.44C327.49,-47.24 278.29,-32.56 244.19,-22.39"/>
<polygon fill="midnightblue" stroke="midnightblue" points="245.15,-19.02 234.56,-19.52 243.15,-25.73 245.15,-19.02"/>
</g>
<!-- Node6 -->
<g id="node6" class="node">
<title>Node6</title>
<g id="a_node6"><a xlink:title=" ">
<polygon fill="white" stroke="#bfbfbf" points="353.52,-0.5 353.52,-19.5 406.52,-19.5 406.52,-0.5 353.52,-0.5"/>
<text text-anchor="middle" x="380.02" y="-7.5" font-family="Helvetica,sans-Serif" font-size="10.00">stdlib.h</text>
</a>
</g>
</g>
<!-- Node5&#45;&gt;Node6 -->
<g id="edge7" class="edge">
<title>Node5&#45;&gt;Node6</title>
<path fill="none" stroke="midnightblue" d="M385.86,-56.08C384.93,-48.93 383.6,-38.64 382.44,-29.69"/>
<polygon fill="midnightblue" stroke="midnightblue" points="385.91,-29.22 381.15,-19.75 378.97,-30.12 385.91,-29.22"/>
</g>
<!-- Node8&#45;&gt;Node3 -->
<g id="edge10" class="edge">
<title>Node8&#45;&gt;Node3</title>
<path fill="none" stroke="midnightblue" d="M177.58,-58.36C234.24,-50.98 326.4,-37.94 414.45,-20.17"/>
<polygon fill="midnightblue" stroke="midnightblue" points="415.23,-23.58 424.33,-18.15 413.83,-16.72 415.23,-23.58"/>
</g>
<!-- Node8&#45;&gt;Node4 -->
<g id="edge11" class="edge">
<title>Node8&#45;&gt;Node4</title>
<path fill="none" stroke="midnightblue" d="M137.19,-56.32C149.86,-47.98 169.25,-35.21 184.22,-25.35"/>
<polygon fill="midnightblue" stroke="midnightblue" points="186.45,-28.08 192.88,-19.65 182.6,-22.23 186.45,-28.08"/>
</g>
<!-- Node9&#45;&gt;Node2 -->
<g id="edge13" class="edge">
<title>Node9&#45;&gt;Node2</title>
<path fill="none" stroke="midnightblue" d="M445.4,-173.98C428.66,-164.21 401.01,-148.08 381.3,-136.58"/>
<polygon fill="midnightblue" stroke="midnightblue" points="383.01,-133.52 372.6,-131.51 379.48,-139.57 383.01,-133.52"/>
</g>
<!-- Node10&#45;&gt;Node2 -->
<g id="edge17" class="edge">
<title>Node10&#45;&gt;Node2</title>
<path fill="none" stroke="midnightblue" d="M553.67,-168.47C508.06,-157.87 446.37,-143.53 404.54,-133.81"/>
<polygon fill="midnightblue" stroke="midnightblue" points="405.15,-130.36 394.62,-131.51 403.56,-137.18 405.15,-130.36"/>
</g>
<!-- Node11 -->
<g id="node11" class="node">
<title>Node11</title>
<g id="a_node11"><a xlink:href="../../d8/d85/kns__types_8h.html" target="_top" xlink:title="Kineis types definition.">
<polygon fill="white" stroke="black" points="489.52,-112.5 489.52,-131.5 564.52,-131.5 564.52,-112.5 489.52,-112.5"/>
<text text-anchor="middle" x="527.02" y="-119.5" font-family="Helvetica,sans-Serif" font-size="10.00">kns_types.h</text>
</a>
</g>
</g>
<!-- Node10&#45;&gt;Node11 -->
<g id="edge15" class="edge">
<title>Node10&#45;&gt;Node11</title>
<path fill="none" stroke="midnightblue" d="M593.4,-168.4C579.72,-159.04 561.81,-146.79 548.04,-137.38"/>
<polygon fill="midnightblue" stroke="midnightblue" points="549.91,-134.41 539.68,-131.66 545.96,-140.19 549.91,-134.41"/>
</g>
<!-- Node11&#45;&gt;Node3 -->
<g id="edge16" class="edge">
<title>Node11&#45;&gt;Node3</title>
<path fill="none" stroke="midnightblue" d="M521.05,-112.37C508.51,-94.22 479.21,-51.8 462.76,-27.99"/>
<polygon fill="midnightblue" stroke="midnightblue" points="465.52,-25.83 456.95,-19.59 459.76,-29.81 465.52,-25.83"/>
</g>
<!-- Node12&#45;&gt;Node2 -->
<g id="edge19" class="edge">
<title>Node12&#45;&gt;Node2</title>
<path fill="none" stroke="midnightblue" d="M136.13,-173.98C182.19,-163.39 260.79,-145.34 311.02,-133.8"/>
<polygon fill="midnightblue" stroke="midnightblue" points="312.02,-137.16 320.98,-131.51 310.45,-130.34 312.02,-137.16"/>
</g>
<!-- Node13&#45;&gt;Node2 -->
<g id="edge21" class="edge">
<title>Node13&#45;&gt;Node2</title>
<path fill="none" stroke="midnightblue" d="M276.63,-173.98C292.08,-164.3 317.51,-148.37 335.83,-136.89"/>
<polygon fill="midnightblue" stroke="midnightblue" points="337.81,-139.78 344.43,-131.51 334.1,-133.85 337.81,-139.78"/>
</g>
</g>
</svg>
        <g id="navigator" transform="translate(0 0)" fill="#404254">
                <rect fill="#f2f5e9" fill-opacity="0.5" stroke="#606060" stroke-width=".5" x="0" y="0" width="60" height="60"/>
                <use id="zoomplus" xlink:href="#zoomPlus" x="17" y="9" onmousedown="handleZoom(evt,'in')"/>
                <use id="zoomminus" xlink:href="#zoomMin" x="42" y="9" onmousedown="handleZoom(evt,'out')"/>
                <use id="reset" xlink:href="#resetDef" x="30" y="36" onmousedown="handleReset()"/>
                <g id="arrowUp" xlink:href="#dirArrow" transform="translate(30 24)" onmousedown="handlePan(0,-1)">
                  <use xlink:href="#rim" fill="#404040">
                        <set attributeName="fill" to="#808080" begin="arrowUp.mouseover" end="arrowUp.mouseout"/>
                  </use>
                  <path fill="none" stroke="white" stroke-width="1.5" d="M0,-3.0v7 M-2.5,-0.5L0,-3.0L2.5,-0.5"/>
                </g>
                <g id="arrowRight" xlink:href="#dirArrow" transform="rotate(90) translate(36 -43)" onmousedown="handlePan(1,0)">
                  <use xlink:href="#rim" fill="#404040">
                        <set attributeName="fill" to="#808080" begin="arrowRight.mouseover" end="arrowRight.mouseout"/>
                  </use>
                  <path fill="none" stroke="white" stroke-width="1.5" d="M0,-3.0v7 M-2.5,-0.5L0,-3.0L2.5,-0.5"/>
                </g>
                <g id="arrowDown" xlink:href="#dirArrow" transform="rotate(180) translate(-30 -48)" onmousedown="handlePan(0,1)">
                  <use xlink:href="#rim" fill="#404040">
                        <set attributeName="fill" to="#808080" begin="arrowDown.mouseover" end="arrowDown.mouseout"/>
                  </use>
                  <path fill="none" stroke="white" stroke-width="1.5" d="M0,-3.0v7 M-2.5,-0.5L0,-3.0L2.5,-0.5"/>
                </g>
                <g id="arrowLeft" xlink:href="#dirArrow" transform="rotate(270) translate(-36 17)" onmousedown="handlePan(-1,0)">
                  <use xlink:href="#rim" fill="#404040">
                        <set attributeName="fill" to="#808080" begin="arrowLeft.mouseover" end="arrowLeft.mouseout"/>
                  </use>
                  <path fill="none" stroke="white" stroke-width="1.5" d="M0,-3.0v7 M-2.5,-0.5L0,-3.0L2.5,-0.5"/>
                </g>
        </g>
        <svg viewBox="0 0 15 15" width="100%" height="30px" preserveAspectRatio="xMaxYMin meet">
         <g id="arrow_out" transform="scale(0.3 0.3)">
          <a xlink:href="mgr__at__cmd__list_8c__incl_org.svg" target="_base">
           <rect id="button" ry="5" rx="5" y="6" x="6" height="38" width="38"
                fill="#f2f5e9" fill-opacity="0.5" stroke="#606060" stroke-width="1.0"/>
           <path id="arrow"
             d="M 11.500037,31.436501 C 11.940474,20.09759 22.043105,11.32322 32.158766,21.979434 L 37.068811,17.246167 C 37.068811,17.246167 37.088388,32 37.088388,32 L 22.160133,31.978069 C 22.160133,31.978069 26.997745,27.140456 26.997745,27.140456 C 18.528582,18.264221 13.291696,25.230495 11.500037,31.436501 z"
             style="fill:#404040;"/>
          </a>
         </g>
        </svg>
</svg>
