<?xml version="1.0" encoding="UTF-8" standalone="no"?>
<!DOCTYPE svg PUBLIC "-//W3C//DTD SVG 1.1//EN"
 "http://www.w3.org/Graphics/SVG/1.1/DTD/svg11.dtd">
<!-- Generated by graphviz version 2.43.0 (0)
 -->
<!-- Title: Kineis/App/Libs/USERDATA/Src/user_data.c Pages: 1 -->
<svg width="457pt" height="151pt"
 viewBox="0.00 0.00 456.88 151.00" xmlns="http://www.w3.org/2000/svg" xmlns:xlink="http://www.w3.org/1999/xlink">
<g id="graph0" class="graph" transform="scale(1 1) rotate(0) translate(4 147)">
<title>Kineis/App/Libs/USERDATA/Src/user_data.c</title>
<polygon fill="white" stroke="transparent" points="-4,4 -4,-147 452.88,-147 452.88,4 -4,4"/>
<!-- Node1 -->
<g id="node1" class="node">
<title>Node1</title>
<g id="a_node1"><a xlink:title="Library to handle user data to be be received or transmitted over the air.">
<polygon fill="#bfbfbf" stroke="black" points="86.38,-112.5 86.38,-142.5 232.38,-142.5 232.38,-112.5 86.38,-112.5"/>
<text text-anchor="start" x="94.38" y="-130.5" font-family="Helvetica,sans-Serif" font-size="10.00">Kineis/App/Libs/USERDATA</text>
<text text-anchor="middle" x="159.38" y="-119.5" font-family="Helvetica,sans-Serif" font-size="10.00">/Src/user_data.c</text>
</a>
</g>
</g>
<!-- Node2 -->
<g id="node2" class="node">
<title>Node2</title>
<g id="a_node2"><a xlink:title=" ">
<polygon fill="white" stroke="#bfbfbf" points="25.38,-0.5 25.38,-19.5 87.38,-19.5 87.38,-0.5 25.38,-0.5"/>
<text text-anchor="middle" x="56.38" y="-7.5" font-family="Helvetica,sans-Serif" font-size="10.00">stdbool.h</text>
</a>
</g>
</g>
<!-- Node1&#45;&gt;Node2 -->
<g id="edge1" class="edge">
<title>Node1&#45;&gt;Node2</title>
<path fill="none" stroke="midnightblue" d="M86.31,-121.14C55.86,-114.87 23.25,-102 4.38,-76 -8.72,-57.95 12.88,-38.03 32.1,-25.07"/>
<polygon fill="midnightblue" stroke="midnightblue" points="34.08,-27.95 40.63,-19.63 30.32,-22.05 34.08,-27.95"/>
</g>
<!-- Node3 -->
<g id="node3" class="node">
<title>Node3</title>
<g id="a_node3"><a xlink:title=" ">
<polygon fill="white" stroke="#bfbfbf" points="13.38,-56.5 13.38,-75.5 69.38,-75.5 69.38,-56.5 13.38,-56.5"/>
<text text-anchor="middle" x="41.38" y="-63.5" font-family="Helvetica,sans-Serif" font-size="10.00">stddef.h</text>
</a>
</g>
</g>
<!-- Node1&#45;&gt;Node3 -->
<g id="edge2" class="edge">
<title>Node1&#45;&gt;Node3</title>
<path fill="none" stroke="midnightblue" d="M131.42,-112.4C112.06,-102.64 86.48,-89.74 67.53,-80.18"/>
<polygon fill="midnightblue" stroke="midnightblue" points="69.06,-77.04 58.55,-75.66 65.91,-83.29 69.06,-77.04"/>
</g>
<!-- Node4 -->
<g id="node4" class="node">
<title>Node4</title>
<g id="a_node4"><a xlink:href="../../d2/d62/kns__cs_8h.html" target="_top" xlink:title="critical section handling for kineis stack.">
<polygon fill="white" stroke="black" points="87.88,-56.5 87.88,-75.5 146.88,-75.5 146.88,-56.5 87.88,-56.5"/>
<text text-anchor="middle" x="117.38" y="-63.5" font-family="Helvetica,sans-Serif" font-size="10.00">kns_cs.h</text>
</a>
</g>
</g>
<!-- Node1&#45;&gt;Node4 -->
<g id="edge3" class="edge">
<title>Node1&#45;&gt;Node4</title>
<path fill="none" stroke="midnightblue" d="M149.43,-112.4C143.39,-103.84 135.64,-92.87 129.28,-83.86"/>
<polygon fill="midnightblue" stroke="midnightblue" points="132.12,-81.81 123.49,-75.66 126.4,-85.85 132.12,-81.81"/>
</g>
<!-- Node5 -->
<g id="node5" class="node">
<title>Node5</title>
<g id="a_node5"><a xlink:href="../../d3/d6a/user__data_8h.html" target="_top" xlink:title="Library to handle user data to be be received or transmitted over the air through several networks (e...">
<polygon fill="white" stroke="black" points="165.38,-56.5 165.38,-75.5 239.38,-75.5 239.38,-56.5 165.38,-56.5"/>
<text text-anchor="middle" x="202.38" y="-63.5" font-family="Helvetica,sans-Serif" font-size="10.00">user_data.h</text>
</a>
</g>
</g>
<!-- Node1&#45;&gt;Node5 -->
<g id="edge4" class="edge">
<title>Node1&#45;&gt;Node5</title>
<path fill="none" stroke="midnightblue" d="M169.57,-112.4C175.76,-103.84 183.69,-92.87 190.2,-83.86"/>
<polygon fill="midnightblue" stroke="midnightblue" points="193.11,-85.81 196.13,-75.66 187.43,-81.71 193.11,-85.81"/>
</g>
<!-- Node7 -->
<g id="node7" class="node">
<title>Node7</title>
<g id="a_node7"><a xlink:href="../../d9/dc4/kineis__sw__conf_8h.html" target="_top" xlink:title="Kineis stack SW configurations depending on platform used.">
<polygon fill="white" stroke="black" points="257.88,-56.5 257.88,-75.5 356.88,-75.5 356.88,-56.5 257.88,-56.5"/>
<text text-anchor="middle" x="307.38" y="-63.5" font-family="Helvetica,sans-Serif" font-size="10.00">kineis_sw_conf.h</text>
</a>
</g>
</g>
<!-- Node1&#45;&gt;Node7 -->
<g id="edge7" class="edge">
<title>Node1&#45;&gt;Node7</title>
<path fill="none" stroke="midnightblue" d="M194.46,-112.4C219.4,-102.37 252.59,-89.03 276.53,-79.4"/>
<polygon fill="midnightblue" stroke="midnightblue" points="277.87,-82.64 285.85,-75.66 275.26,-76.14 277.87,-82.64"/>
</g>
<!-- Node8 -->
<g id="node8" class="node">
<title>Node8</title>
<g id="a_node8"><a xlink:href="../../d2/d2e/mgr__log_8h.html" target="_top" xlink:title="logger main header file">
<polygon fill="white" stroke="black" points="374.88,-56.5 374.88,-75.5 439.88,-75.5 439.88,-56.5 374.88,-56.5"/>
<text text-anchor="middle" x="407.38" y="-63.5" font-family="Helvetica,sans-Serif" font-size="10.00">mgr_log.h</text>
</a>
</g>
</g>
<!-- Node1&#45;&gt;Node8 -->
<g id="edge8" class="edge">
<title>Node1&#45;&gt;Node8</title>
<path fill="none" stroke="midnightblue" d="M217.84,-112.47C262.99,-101.64 324.41,-86.91 364.94,-77.18"/>
<polygon fill="midnightblue" stroke="midnightblue" points="365.86,-80.56 374.77,-74.82 364.23,-73.75 365.86,-80.56"/>
</g>
<!-- Node5&#45;&gt;Node2 -->
<g id="edge5" class="edge">
<title>Node5&#45;&gt;Node2</title>
<path fill="none" stroke="midnightblue" d="M179.25,-56.44C154.9,-47.44 116.38,-33.19 88.96,-23.05"/>
<polygon fill="midnightblue" stroke="midnightblue" points="90,-19.7 79.41,-19.52 87.57,-26.27 90,-19.7"/>
</g>
<!-- Node6 -->
<g id="node6" class="node">
<title>Node6</title>
<g id="a_node6"><a xlink:title=" ">
<polygon fill="white" stroke="#bfbfbf" points="175.88,-0.5 175.88,-19.5 228.88,-19.5 228.88,-0.5 175.88,-0.5"/>
<text text-anchor="middle" x="202.38" y="-7.5" font-family="Helvetica,sans-Serif" font-size="10.00">stdint.h</text>
</a>
</g>
</g>
<!-- Node5&#45;&gt;Node6 -->
<g id="edge6" class="edge">
<title>Node5&#45;&gt;Node6</title>
<path fill="none" stroke="midnightblue" d="M202.38,-56.08C202.38,-49.01 202.38,-38.86 202.38,-29.99"/>
<polygon fill="midnightblue" stroke="midnightblue" points="205.88,-29.75 202.38,-19.75 198.88,-29.75 205.88,-29.75"/>
</g>
<!-- Node9 -->
<g id="node9" class="node">
<title>Node9</title>
<g id="a_node9"><a xlink:href="../../d9/d70/mgr__log__rtc_8h.html" target="_top" xlink:title=": Header for mgr_log_rtc.c file. This file contains log routine concerning RTC. Thus there is a depen...">
<polygon fill="white" stroke="black" points="365.88,-0.5 365.88,-19.5 448.88,-19.5 448.88,-0.5 365.88,-0.5"/>
<text text-anchor="middle" x="407.38" y="-7.5" font-family="Helvetica,sans-Serif" font-size="10.00">mgr_log_rtc.h</text>
</a>
</g>
</g>
<!-- Node8&#45;&gt;Node9 -->
<g id="edge9" class="edge">
<title>Node8&#45;&gt;Node9</title>
<path fill="none" stroke="midnightblue" d="M407.38,-56.08C407.38,-49.01 407.38,-38.86 407.38,-29.99"/>
<polygon fill="midnightblue" stroke="midnightblue" points="410.88,-29.75 407.38,-19.75 403.88,-29.75 410.88,-29.75"/>
</g>
</g>
</svg>
