<?xml version="1.0" encoding="UTF-8" standalone="no"?>
<!DOCTYPE svg PUBLIC "-//W3C//DTD SVG 1.1//EN"
 "http://www.w3.org/Graphics/SVG/1.1/DTD/svg11.dtd">
<!-- Generated by graphviz version 2.43.0 (0)
 -->
<!-- Title: Kineis/Extdep/Mcu/Inc/mcu_nvm.h Pages: 1 -->
<svg width="141pt" height="151pt"
 viewBox="0.00 0.00 140.50 151.00" xmlns="http://www.w3.org/2000/svg" xmlns:xlink="http://www.w3.org/1999/xlink">
<g id="graph0" class="graph" transform="scale(1 1) rotate(0) translate(4 147)">
<title>Kineis/Extdep/Mcu/Inc/mcu_nvm.h</title>
<polygon fill="white" stroke="transparent" points="-4,4 -4,-147 136.5,-147 136.5,4 -4,4"/>
<!-- Node1 -->
<g id="node1" class="node">
<title>Node1</title>
<g id="a_node1"><a xlink:title="MCU wrappers for Non volatile memory management.">
<polygon fill="#bfbfbf" stroke="black" points="0,-112.5 0,-142.5 124,-142.5 124,-112.5 0,-112.5"/>
<text text-anchor="start" x="8" y="-130.5" font-family="Helvetica,sans-Serif" font-size="10.00">Kineis/Extdep/Mcu/Inc</text>
<text text-anchor="middle" x="62" y="-119.5" font-family="Helvetica,sans-Serif" font-size="10.00">/mcu_nvm.h</text>
</a>
</g>
</g>
<!-- Node2 -->
<g id="node2" class="node">
<title>Node2</title>
<g id="a_node2"><a xlink:title=" ">
<polygon fill="white" stroke="#bfbfbf" points="35.5,-0.5 35.5,-19.5 88.5,-19.5 88.5,-0.5 35.5,-0.5"/>
<text text-anchor="middle" x="62" y="-7.5" font-family="Helvetica,sans-Serif" font-size="10.00">stdint.h</text>
</a>
</g>
</g>
<!-- Node1&#45;&gt;Node2 -->
<g id="edge1" class="edge">
<title>Node1&#45;&gt;Node2</title>
<path fill="none" stroke="midnightblue" d="M56.62,-112.24C51.91,-98.04 46.23,-75.59 49,-56 50.27,-47.04 52.89,-37.37 55.45,-29.3"/>
<polygon fill="midnightblue" stroke="midnightblue" points="58.77,-30.4 58.66,-19.8 52.14,-28.16 58.77,-30.4"/>
</g>
<!-- Node3 -->
<g id="node3" class="node">
<title>Node3</title>
<g id="a_node3"><a xlink:href="../../d8/d85/kns__types_8h.html" target="_top" xlink:title="Kineis types definition.">
<polygon fill="white" stroke="black" points="57.5,-56.5 57.5,-75.5 132.5,-75.5 132.5,-56.5 57.5,-56.5"/>
<text text-anchor="middle" x="95" y="-63.5" font-family="Helvetica,sans-Serif" font-size="10.00">kns_types.h</text>
</a>
</g>
</g>
<!-- Node1&#45;&gt;Node3 -->
<g id="edge2" class="edge">
<title>Node1&#45;&gt;Node3</title>
<path fill="none" stroke="midnightblue" d="M69.82,-112.4C74.47,-104.02 80.4,-93.33 85.34,-84.42"/>
<polygon fill="midnightblue" stroke="midnightblue" points="88.41,-86.1 90.2,-75.66 82.29,-82.71 88.41,-86.1"/>
</g>
<!-- Node3&#45;&gt;Node2 -->
<g id="edge3" class="edge">
<title>Node3&#45;&gt;Node2</title>
<path fill="none" stroke="midnightblue" d="M89.55,-56.08C84.99,-48.61 78.33,-37.72 72.71,-28.52"/>
<polygon fill="midnightblue" stroke="midnightblue" points="75.55,-26.46 67.35,-19.75 69.58,-30.11 75.55,-26.46"/>
</g>
</g>
</svg>
