<?xml version="1.0" encoding="UTF-8" standalone="no"?>
<!DOCTYPE svg PUBLIC "-//W3C//DTD SVG 1.1//EN"
 "http://www.w3.org/Graphics/SVG/1.1/DTD/svg11.dtd">
<!-- Generated by graphviz version 2.43.0 (0)
 -->
<!-- Title: Kineis/Lpm/Inc/lpm.h Pages: 1 -->
<svg width="203pt" height="196pt"
 viewBox="0.00 0.00 202.50 196.00" xmlns="http://www.w3.org/2000/svg" xmlns:xlink="http://www.w3.org/1999/xlink">
<g id="graph0" class="graph" transform="scale(1 1) rotate(0) translate(4 192)">
<title>Kineis/Lpm/Inc/lpm.h</title>
<polygon fill="white" stroke="transparent" points="-4,4 -4,-192 198.5,-192 198.5,4 -4,4"/>
<!-- Node1 -->
<g id="node1" class="node">
<title>Node1</title>
<g id="a_node1"><a xlink:title="This file contains some utilities and functions needed for a correct handling of LPM on the STM32WL55...">
<polygon fill="#bfbfbf" stroke="black" points="0.5,-168.5 0.5,-187.5 119.5,-187.5 119.5,-168.5 0.5,-168.5"/>
<text text-anchor="middle" x="60" y="-175.5" font-family="Helvetica,sans-Serif" font-size="10.00">Kineis/Lpm/Inc/lpm.h</text>
</a>
</g>
</g>
<!-- Node2 -->
<g id="node2" class="node">
<title>Node2</title>
<g id="a_node2"><a xlink:title=" ">
<polygon fill="white" stroke="#bfbfbf" points="0,-56.5 0,-75.5 62,-75.5 62,-56.5 0,-56.5"/>
<text text-anchor="middle" x="31" y="-63.5" font-family="Helvetica,sans-Serif" font-size="10.00">stdbool.h</text>
</a>
</g>
</g>
<!-- Node1&#45;&gt;Node2 -->
<g id="edge1" class="edge">
<title>Node1&#45;&gt;Node2</title>
<path fill="none" stroke="midnightblue" d="M57.69,-168.38C55.26,-159.32 51.34,-144.66 48,-132 43.9,-116.47 39.29,-98.85 35.91,-85.87"/>
<polygon fill="midnightblue" stroke="midnightblue" points="39.2,-84.63 33.3,-75.83 32.43,-86.39 39.2,-84.63"/>
</g>
<!-- Node3 -->
<g id="node3" class="node">
<title>Node3</title>
<g id="a_node3"><a xlink:href="../../df/d63/mgr__lpm_8h.html" target="_top" xlink:title="low power mode manager is in charge to collect all low power needs from &#39;clients&#39; and setup the corre...">
<polygon fill="white" stroke="black" points="57.5,-112.5 57.5,-131.5 126.5,-131.5 126.5,-112.5 57.5,-112.5"/>
<text text-anchor="middle" x="92" y="-119.5" font-family="Helvetica,sans-Serif" font-size="10.00">mgr_lpm.h</text>
</a>
</g>
</g>
<!-- Node1&#45;&gt;Node3 -->
<g id="edge2" class="edge">
<title>Node1&#45;&gt;Node3</title>
<path fill="none" stroke="midnightblue" d="M65.28,-168.08C69.71,-160.61 76.16,-149.72 81.62,-140.52"/>
<polygon fill="midnightblue" stroke="midnightblue" points="84.73,-142.14 86.81,-131.75 78.71,-138.57 84.73,-142.14"/>
</g>
<!-- Node3&#45;&gt;Node2 -->
<g id="edge3" class="edge">
<title>Node3&#45;&gt;Node2</title>
<path fill="none" stroke="midnightblue" d="M82.2,-112.32C73.18,-104.34 59.59,-92.31 48.68,-82.65"/>
<polygon fill="midnightblue" stroke="midnightblue" points="50.79,-79.84 40.98,-75.83 46.15,-85.08 50.79,-79.84"/>
</g>
<!-- Node4 -->
<g id="node4" class="node">
<title>Node4</title>
<g id="a_node4"><a xlink:title=" ">
<polygon fill="white" stroke="#bfbfbf" points="97.5,-0.5 97.5,-19.5 150.5,-19.5 150.5,-0.5 97.5,-0.5"/>
<text text-anchor="middle" x="124" y="-7.5" font-family="Helvetica,sans-Serif" font-size="10.00">stdint.h</text>
</a>
</g>
</g>
<!-- Node3&#45;&gt;Node4 -->
<g id="edge4" class="edge">
<title>Node3&#45;&gt;Node4</title>
<path fill="none" stroke="midnightblue" d="M94.51,-112.37C99.7,-94.54 111.7,-53.3 118.68,-29.27"/>
<polygon fill="midnightblue" stroke="midnightblue" points="122.07,-30.17 121.5,-19.59 115.35,-28.22 122.07,-30.17"/>
</g>
<!-- Node5 -->
<g id="node5" class="node">
<title>Node5</title>
<g id="a_node5"><a xlink:href="../../d8/d85/kns__types_8h.html" target="_top" xlink:title="Kineis types definition.">
<polygon fill="white" stroke="black" points="119.5,-56.5 119.5,-75.5 194.5,-75.5 194.5,-56.5 119.5,-56.5"/>
<text text-anchor="middle" x="157" y="-63.5" font-family="Helvetica,sans-Serif" font-size="10.00">kns_types.h</text>
</a>
</g>
</g>
<!-- Node3&#45;&gt;Node5 -->
<g id="edge5" class="edge">
<title>Node3&#45;&gt;Node5</title>
<path fill="none" stroke="midnightblue" d="M102.44,-112.32C112.15,-104.26 126.82,-92.08 138.5,-82.37"/>
<polygon fill="midnightblue" stroke="midnightblue" points="140.91,-84.92 146.37,-75.83 136.44,-79.53 140.91,-84.92"/>
</g>
<!-- Node5&#45;&gt;Node4 -->
<g id="edge6" class="edge">
<title>Node5&#45;&gt;Node4</title>
<path fill="none" stroke="midnightblue" d="M151.55,-56.08C146.99,-48.61 140.33,-37.72 134.71,-28.52"/>
<polygon fill="midnightblue" stroke="midnightblue" points="137.55,-26.46 129.35,-19.75 131.58,-30.11 137.55,-26.46"/>
</g>
</g>
</svg>
