<?xml version="1.0" encoding="UTF-8" standalone="no"?>
<!DOCTYPE svg PUBLIC "-//W3C//DTD SVG 1.1//EN"
 "http://www.w3.org/Graphics/SVG/1.1/DTD/svg11.dtd">
<!-- Generated by graphviz version 2.43.0 (0)
 -->
<!-- Title: sUserDataTxFifo_t Pages: 1 -->
<svg width="183pt" height="162pt"
 viewBox="0.00 0.00 183.00 162.00" xmlns="http://www.w3.org/2000/svg" xmlns:xlink="http://www.w3.org/1999/xlink">
<g id="graph0" class="graph" transform="scale(1 1) rotate(0) translate(4 158)">
<title>sUserDataTxFifo_t</title>
<polygon fill="white" stroke="transparent" points="-4,4 -4,-158 179,-158 179,4 -4,4"/>
<!-- Node1 -->
<g id="node1" class="node">
<title>Node1</title>
<g id="a_node1"><a xlink:title=" ">
<polygon fill="#bfbfbf" stroke="black" points="6.5,-0.5 6.5,-19.5 112.5,-19.5 112.5,-0.5 6.5,-0.5"/>
<text text-anchor="middle" x="59.5" y="-7.5" font-family="Helvetica,sans-Serif" font-size="10.00">sUserDataTxFifo_t</text>
</a>
</g>
</g>
<!-- Node2 -->
<g id="node2" class="node">
<title>Node2</title>
<g id="a_node2"><a xlink:href="../../d8/d33/structs_user_data_tx_fifo_elt__t.html" target="_top" xlink:title="structure defining one element of the TX fifo">
<polygon fill="white" stroke="black" points="0,-67.5 0,-86.5 119,-86.5 119,-67.5 0,-67.5"/>
<text text-anchor="middle" x="59.5" y="-74.5" font-family="Helvetica,sans-Serif" font-size="10.00">sUserDataTxFifoElt_t</text>
</a>
</g>
</g>
<!-- Node2&#45;&gt;Node1 -->
<g id="edge1" class="edge">
<title>Node2&#45;&gt;Node1</title>
<path fill="none" stroke="#9a32cd" stroke-dasharray="5,2" d="M59.5,-57.04C59.5,-44.67 59.5,-29.12 59.5,-19.63"/>
<polygon fill="#9a32cd" stroke="#9a32cd" points="56,-57.23 59.5,-67.23 63,-57.23 56,-57.23"/>
<text text-anchor="middle" x="77" y="-41" font-family="Helvetica,sans-Serif" font-size="10.00"> spFirst</text>
</g>
<!-- Node2&#45;&gt;Node2 -->
<g id="edge2" class="edge">
<title>Node2&#45;&gt;Node2</title>
<path fill="none" stroke="#9a32cd" stroke-dasharray="5,2" d="M129.48,-81.31C134.16,-80.31 137,-78.88 137,-77 137,-74 129.73,-72.12 119.29,-71.38"/>
<polygon fill="#9a32cd" stroke="#9a32cd" points="128.76,-77.87 119.29,-82.62 129.66,-84.81 128.76,-77.87"/>
<text text-anchor="middle" x="156" y="-74.5" font-family="Helvetica,sans-Serif" font-size="10.00"> spNext</text>
</g>
<!-- Node3 -->
<g id="node3" class="node">
<title>Node3</title>
<g id="a_node3"><a xlink:href="../../dc/dc4/unions_user_data_attribute__t.html" target="_top" xlink:title="structure containing USERDATA attribute">
<polygon fill="white" stroke="black" points="0,-134.5 0,-153.5 119,-153.5 119,-134.5 0,-134.5"/>
<text text-anchor="middle" x="59.5" y="-141.5" font-family="Helvetica,sans-Serif" font-size="10.00">sUserDataAttribute_t</text>
</a>
</g>
</g>
<!-- Node3&#45;&gt;Node2 -->
<g id="edge3" class="edge">
<title>Node3&#45;&gt;Node2</title>
<path fill="none" stroke="#9a32cd" stroke-dasharray="5,2" d="M59.5,-124.04C59.5,-111.67 59.5,-96.12 59.5,-86.63"/>
<polygon fill="#9a32cd" stroke="#9a32cd" points="56,-124.23 59.5,-134.23 63,-124.23 56,-124.23"/>
<text text-anchor="middle" x="76.5" y="-108" font-family="Helvetica,sans-Serif" font-size="10.00"> u8Attr</text>
</g>
</g>
</svg>
