<?xml version="1.0" encoding="UTF-8" standalone="no"?>
<!DOCTYPE svg PUBLIC "-//W3C//DTD SVG 1.1//EN"
 "http://www.w3.org/Graphics/SVG/1.1/DTD/svg11.dtd">
<!-- Generated by graphviz version 2.43.0 (0)
 -->
<!-- Title: Kineis/Extdep/Mcu/Src/mcu_aes.c Pages: 1 -->
<svg width="459pt" height="151pt"
 viewBox="0.00 0.00 459.43 151.00" xmlns="http://www.w3.org/2000/svg" xmlns:xlink="http://www.w3.org/1999/xlink">
<g id="graph0" class="graph" transform="scale(1 1) rotate(0) translate(4 147)">
<title>Kineis/Extdep/Mcu/Src/mcu_aes.c</title>
<polygon fill="white" stroke="transparent" points="-4,4 -4,-147 455.43,-147 455.43,4 -4,4"/>
<!-- Node1 -->
<g id="node1" class="node">
<title>Node1</title>
<g id="a_node1"><a xlink:title="MCU wrapper for encryption/decryption wrappers utilities.">
<polygon fill="#bfbfbf" stroke="black" points="121.43,-112.5 121.43,-142.5 246.43,-142.5 246.43,-112.5 121.43,-112.5"/>
<text text-anchor="start" x="129.43" y="-130.5" font-family="Helvetica,sans-Serif" font-size="10.00">Kineis/Extdep/Mcu/Src</text>
<text text-anchor="middle" x="183.93" y="-119.5" font-family="Helvetica,sans-Serif" font-size="10.00">/mcu_aes.c</text>
</a>
</g>
</g>
<!-- Node2 -->
<g id="node2" class="node">
<title>Node2</title>
<g id="a_node2"><a xlink:title=" ">
<polygon fill="white" stroke="#bfbfbf" points="277.43,-0.5 277.43,-19.5 330.43,-19.5 330.43,-0.5 277.43,-0.5"/>
<text text-anchor="middle" x="303.93" y="-7.5" font-family="Helvetica,sans-Serif" font-size="10.00">stdint.h</text>
</a>
</g>
</g>
<!-- Node1&#45;&gt;Node2 -->
<g id="edge1" class="edge">
<title>Node1&#45;&gt;Node2</title>
<path fill="none" stroke="midnightblue" d="M121.39,-121.81C57.85,-114.7 -26.56,-97.31 8.93,-56 41.76,-17.78 195.01,-11.66 266.73,-10.93"/>
<polygon fill="midnightblue" stroke="midnightblue" points="267.13,-14.42 277.1,-10.85 267.08,-7.42 267.13,-14.42"/>
</g>
<!-- Node3 -->
<g id="node3" class="node">
<title>Node3</title>
<g id="a_node3"><a xlink:title=" ">
<polygon fill="white" stroke="#bfbfbf" points="17.93,-56.5 17.93,-75.5 67.93,-75.5 67.93,-56.5 17.93,-56.5"/>
<text text-anchor="middle" x="42.93" y="-63.5" font-family="Helvetica,sans-Serif" font-size="10.00">stdio.h</text>
</a>
</g>
</g>
<!-- Node1&#45;&gt;Node3 -->
<g id="edge2" class="edge">
<title>Node1&#45;&gt;Node3</title>
<path fill="none" stroke="midnightblue" d="M150.51,-112.4C126.96,-102.46 95.69,-89.26 72.93,-79.66"/>
<polygon fill="midnightblue" stroke="midnightblue" points="74.02,-76.32 63.44,-75.66 71.29,-82.77 74.02,-76.32"/>
</g>
<!-- Node4 -->
<g id="node4" class="node">
<title>Node4</title>
<g id="a_node4"><a xlink:title=" ">
<polygon fill="white" stroke="#bfbfbf" points="86.43,-56.5 86.43,-75.5 139.43,-75.5 139.43,-56.5 86.43,-56.5"/>
<text text-anchor="middle" x="112.93" y="-63.5" font-family="Helvetica,sans-Serif" font-size="10.00">stdlib.h</text>
</a>
</g>
</g>
<!-- Node1&#45;&gt;Node4 -->
<g id="edge3" class="edge">
<title>Node1&#45;&gt;Node4</title>
<path fill="none" stroke="midnightblue" d="M167.1,-112.4C156.25,-103.31 142.15,-91.49 131.05,-82.19"/>
<polygon fill="midnightblue" stroke="midnightblue" points="133.17,-79.4 123.26,-75.66 128.67,-84.76 133.17,-79.4"/>
</g>
<!-- Node5 -->
<g id="node5" class="node">
<title>Node5</title>
<g id="a_node5"><a xlink:title=" ">
<polygon fill="white" stroke="#bfbfbf" points="157.43,-56.5 157.43,-75.5 210.43,-75.5 210.43,-56.5 157.43,-56.5"/>
<text text-anchor="middle" x="183.93" y="-63.5" font-family="Helvetica,sans-Serif" font-size="10.00">string.h</text>
</a>
</g>
</g>
<!-- Node1&#45;&gt;Node5 -->
<g id="edge4" class="edge">
<title>Node1&#45;&gt;Node5</title>
<path fill="none" stroke="midnightblue" d="M183.93,-112.4C183.93,-104.47 183.93,-94.46 183.93,-85.86"/>
<polygon fill="midnightblue" stroke="midnightblue" points="187.43,-85.66 183.93,-75.66 180.43,-85.66 187.43,-85.66"/>
</g>
<!-- Node6 -->
<g id="node6" class="node">
<title>Node6</title>
<g id="a_node6"><a xlink:href="../../d8/d85/kns__types_8h.html" target="_top" xlink:title="Kineis types definition.">
<polygon fill="white" stroke="black" points="228.43,-56.5 228.43,-75.5 303.43,-75.5 303.43,-56.5 228.43,-56.5"/>
<text text-anchor="middle" x="265.93" y="-63.5" font-family="Helvetica,sans-Serif" font-size="10.00">kns_types.h</text>
</a>
</g>
</g>
<!-- Node1&#45;&gt;Node6 -->
<g id="edge5" class="edge">
<title>Node1&#45;&gt;Node6</title>
<path fill="none" stroke="midnightblue" d="M203.36,-112.4C216.13,-103.13 232.81,-91.03 245.74,-81.65"/>
<polygon fill="midnightblue" stroke="midnightblue" points="247.96,-84.36 253.99,-75.66 243.84,-78.7 247.96,-84.36"/>
</g>
<!-- Node7 -->
<g id="node7" class="node">
<title>Node7</title>
<g id="a_node7"><a xlink:href="../../db/dcb/aes_8h.html" target="_top" xlink:title=" ">
<polygon fill="white" stroke="black" points="321.43,-56.5 321.43,-75.5 364.43,-75.5 364.43,-56.5 321.43,-56.5"/>
<text text-anchor="middle" x="342.93" y="-63.5" font-family="Helvetica,sans-Serif" font-size="10.00">aes.h</text>
</a>
</g>
</g>
<!-- Node1&#45;&gt;Node7 -->
<g id="edge7" class="edge">
<title>Node1&#45;&gt;Node7</title>
<path fill="none" stroke="midnightblue" d="M221.61,-112.4C249.01,-102.15 285.68,-88.42 311.5,-78.76"/>
<polygon fill="midnightblue" stroke="midnightblue" points="313.03,-81.92 321.17,-75.14 310.58,-75.37 313.03,-81.92"/>
</g>
<!-- Node8 -->
<g id="node8" class="node">
<title>Node8</title>
<g id="a_node8"><a xlink:href="../../df/dbf/mcu__aes_8h.html" target="_top" xlink:title="MCU wrapper for encryption/decryption wrappers utilities.">
<polygon fill="white" stroke="black" points="382.43,-56.5 382.43,-75.5 451.43,-75.5 451.43,-56.5 382.43,-56.5"/>
<text text-anchor="middle" x="416.93" y="-63.5" font-family="Helvetica,sans-Serif" font-size="10.00">mcu_aes.h</text>
</a>
</g>
</g>
<!-- Node1&#45;&gt;Node8 -->
<g id="edge9" class="edge">
<title>Node1&#45;&gt;Node8</title>
<path fill="none" stroke="midnightblue" d="M238.85,-112.47C280.1,-101.94 335.8,-87.72 373.86,-78"/>
<polygon fill="midnightblue" stroke="midnightblue" points="374.79,-81.37 383.61,-75.51 373.06,-74.59 374.79,-81.37"/>
</g>
<!-- Node6&#45;&gt;Node2 -->
<g id="edge6" class="edge">
<title>Node6&#45;&gt;Node2</title>
<path fill="none" stroke="midnightblue" d="M272.2,-56.08C277.57,-48.46 285.44,-37.26 292,-27.94"/>
<polygon fill="midnightblue" stroke="midnightblue" points="294.87,-29.94 297.77,-19.75 289.15,-25.91 294.87,-29.94"/>
</g>
<!-- Node7&#45;&gt;Node2 -->
<g id="edge8" class="edge">
<title>Node7&#45;&gt;Node2</title>
<path fill="none" stroke="midnightblue" d="M336.48,-56.08C330.98,-48.46 322.89,-37.26 316.16,-27.94"/>
<polygon fill="midnightblue" stroke="midnightblue" points="318.94,-25.81 310.25,-19.75 313.26,-29.91 318.94,-25.81"/>
</g>
<!-- Node8&#45;&gt;Node2 -->
<g id="edge10" class="edge">
<title>Node8&#45;&gt;Node2</title>
<path fill="none" stroke="midnightblue" d="M399.02,-56.44C380.67,-47.68 351.92,-33.94 330.83,-23.86"/>
<polygon fill="midnightblue" stroke="midnightblue" points="332.28,-20.67 321.75,-19.52 329.26,-26.99 332.28,-20.67"/>
</g>
</g>
</svg>
