<?xml version="1.0" encoding="UTF-8" standalone="no"?>
<!DOCTYPE svg PUBLIC "-//W3C//DTD SVG 1.1//EN"
 "http://www.w3.org/Graphics/SVG/1.1/DTD/svg11.dtd">
<!-- Generated by graphviz version 2.43.0 (0)
 -->
<!-- Title: bMGR_AT_CMD_ATXRP_cmd Pages: 1 -->
<svg width="547pt" height="104pt"
 viewBox="0.00 0.00 547.00 104.00" xmlns="http://www.w3.org/2000/svg" xmlns:xlink="http://www.w3.org/1999/xlink">
<g id="graph0" class="graph" transform="scale(1 1) rotate(0) translate(4 100)">
<title>bMGR_AT_CMD_ATXRP_cmd</title>
<polygon fill="white" stroke="transparent" points="-4,4 -4,-100 543,-100 543,4 -4,4"/>
<!-- Node1 -->
<g id="node1" class="node">
<title>Node1</title>
<g id="a_node1"><a xlink:title="Process AT command &quot;AT+ATXRP&quot; get/set the repetition number and the period between 2 transmissions.">
<polygon fill="#bfbfbf" stroke="black" points="0,-38.5 0,-57.5 156,-57.5 156,-38.5 0,-38.5"/>
<text text-anchor="middle" x="78" y="-45.5" font-family="Helvetica,sans-Serif" font-size="10.00">bMGR_AT_CMD_ATXRP_cmd</text>
</a>
</g>
</g>
<!-- Node2 -->
<g id="node2" class="node">
<title>Node2</title>
<g id="a_node2"><a xlink:href="../../d0/d0f/group___m_g_r___a_t___c_m_d.html#ga3d564aff9653e8bdc572d189093f1acc" target="_top" xlink:title="Log in debug interface a failed message.">
<polygon fill="white" stroke="black" points="197.5,-76.5 197.5,-95.5 359.5,-95.5 359.5,-76.5 197.5,-76.5"/>
<text text-anchor="middle" x="278.5" y="-83.5" font-family="Helvetica,sans-Serif" font-size="10.00">bMGR_AT_CMD_logFailedMsg</text>
</a>
</g>
</g>
<!-- Node1&#45;&gt;Node2 -->
<g id="edge1" class="edge">
<title>Node1&#45;&gt;Node2</title>
<path fill="none" stroke="midnightblue" d="M128.83,-57.54C155.73,-62.69 189.14,-69.08 217.46,-74.51"/>
<polygon fill="midnightblue" stroke="midnightblue" points="217.17,-78.01 227.65,-76.46 218.48,-71.14 217.17,-78.01"/>
</g>
<!-- Node3 -->
<g id="node3" class="node">
<title>Node3</title>
<g id="a_node3"><a xlink:href="../../d8/d62/group___m_c_u___a_p_p___w_r_a_p_p_e_r_s.html#gae14ee3e1d2a9b459c0d89c451a4bc470" target="_top" xlink:title="Send AT CMD response to console.">
<polygon fill="white" stroke="black" points="401,-38.5 401,-57.5 539,-57.5 539,-38.5 401,-38.5"/>
<text text-anchor="middle" x="470" y="-45.5" font-family="Helvetica,sans-Serif" font-size="10.00">MCU_AT_CONSOLE_send</text>
</a>
</g>
</g>
<!-- Node1&#45;&gt;Node3 -->
<g id="edge5" class="edge">
<title>Node1&#45;&gt;Node3</title>
<path fill="none" stroke="midnightblue" d="M156.05,-48C223.94,-48 322.37,-48 390.64,-48"/>
<polygon fill="midnightblue" stroke="midnightblue" points="390.91,-51.5 400.91,-48 390.91,-44.5 390.91,-51.5"/>
</g>
<!-- Node4 -->
<g id="node4" class="node">
<title>Node4</title>
<g id="a_node4"><a xlink:href="../../d0/d0f/group___m_g_r___a_t___c_m_d.html#gabef580da46cf82ca74ba3e5217cf3ffa" target="_top" xlink:title=": Log in debug interface a succeed message">
<polygon fill="white" stroke="black" points="192,-0.5 192,-19.5 365,-19.5 365,-0.5 192,-0.5"/>
<text text-anchor="middle" x="278.5" y="-7.5" font-family="Helvetica,sans-Serif" font-size="10.00">bMGR_AT_CMD_logSucceedMsg</text>
</a>
</g>
</g>
<!-- Node1&#45;&gt;Node4 -->
<g id="edge3" class="edge">
<title>Node1&#45;&gt;Node4</title>
<path fill="none" stroke="midnightblue" d="M128.83,-38.46C155.73,-33.31 189.14,-26.92 217.46,-21.49"/>
<polygon fill="midnightblue" stroke="midnightblue" points="218.48,-24.86 227.65,-19.54 217.17,-17.99 218.48,-24.86"/>
</g>
<!-- Node2&#45;&gt;Node3 -->
<g id="edge2" class="edge">
<title>Node2&#45;&gt;Node3</title>
<path fill="none" stroke="midnightblue" d="M327.32,-76.41C352.89,-71.28 384.56,-64.93 411.47,-59.54"/>
<polygon fill="midnightblue" stroke="midnightblue" points="412.41,-62.92 421.53,-57.52 411.03,-56.05 412.41,-62.92"/>
</g>
<!-- Node4&#45;&gt;Node3 -->
<g id="edge4" class="edge">
<title>Node4&#45;&gt;Node3</title>
<path fill="none" stroke="midnightblue" d="M327.32,-19.59C352.89,-24.72 384.56,-31.07 411.47,-36.46"/>
<polygon fill="midnightblue" stroke="midnightblue" points="411.03,-39.95 421.53,-38.48 412.41,-33.08 411.03,-39.95"/>
</g>
</g>
</svg>
