<?xml version="1.0" encoding="UTF-8" standalone="no"?>
<!DOCTYPE svg PUBLIC "-//W3C//DTD SVG 1.1//EN"
 "http://www.w3.org/Graphics/SVG/1.1/DTD/svg11.dtd">
<!-- Generated by graphviz version 2.43.0 (0)
 -->
<!-- Title: MGR_AT_CMD_macEvtProcess Pages: 1 -->
<svg width="761pt" height="398pt"
 viewBox="0.00 0.00 761.00 398.00" xmlns="http://www.w3.org/2000/svg" xmlns:xlink="http://www.w3.org/1999/xlink">
<g id="graph0" class="graph" transform="scale(1 1) rotate(0) translate(4 394)">
<title>MGR_AT_CMD_macEvtProcess</title>
<polygon fill="white" stroke="transparent" points="-4,4 -4,-394 757,-394 757,4 -4,4"/>
<!-- Node1 -->
<g id="node1" class="node">
<title>Node1</title>
<g id="a_node1"><a xlink:title="Fct used to retreive and process event coming from kineis stack as answers to AT commands.">
<polygon fill="#bfbfbf" stroke="black" points="0,-171.5 0,-190.5 166,-190.5 166,-171.5 0,-171.5"/>
<text text-anchor="middle" x="83" y="-178.5" font-family="Helvetica,sans-Serif" font-size="10.00">MGR_AT_CMD_macEvtProcess</text>
</a>
</g>
</g>
<!-- Node2 -->
<g id="node2" class="node">
<title>Node2</title>
<g id="a_node2"><a xlink:href="../../d0/d0f/group___m_g_r___a_t___c_m_d.html#ga3d564aff9653e8bdc572d189093f1acc" target="_top" xlink:title="Log in debug interface a failed message.">
<polygon fill="white" stroke="black" points="411.5,-244.5 411.5,-263.5 573.5,-263.5 573.5,-244.5 411.5,-244.5"/>
<text text-anchor="middle" x="492.5" y="-251.5" font-family="Helvetica,sans-Serif" font-size="10.00">bMGR_AT_CMD_logFailedMsg</text>
</a>
</g>
</g>
<!-- Node1&#45;&gt;Node2 -->
<g id="edge1" class="edge">
<title>Node1&#45;&gt;Node2</title>
<path fill="none" stroke="midnightblue" d="M94.32,-190.67C113.64,-208.02 157.35,-243.87 202,-257 277.9,-279.33 369.9,-273.06 429.52,-264.93"/>
<polygon fill="midnightblue" stroke="midnightblue" points="430.12,-268.38 439.53,-263.5 429.13,-261.45 430.12,-268.38"/>
</g>
<!-- Node4 -->
<g id="node4" class="node">
<title>Node4</title>
<g id="a_node4"><a xlink:href="../../d0/d0f/group___m_g_r___a_t___c_m_d.html#gabef580da46cf82ca74ba3e5217cf3ffa" target="_top" xlink:title=": Log in debug interface a succeed message">
<polygon fill="white" stroke="black" points="406,-370.5 406,-389.5 579,-389.5 579,-370.5 406,-370.5"/>
<text text-anchor="middle" x="492.5" y="-377.5" font-family="Helvetica,sans-Serif" font-size="10.00">bMGR_AT_CMD_logSucceedMsg</text>
</a>
</g>
</g>
<!-- Node1&#45;&gt;Node4 -->
<g id="edge3" class="edge">
<title>Node1&#45;&gt;Node4</title>
<path fill="none" stroke="midnightblue" d="M88.4,-190.88C101.31,-218.6 141.96,-297.35 202,-333 260.25,-367.59 336.16,-378.92 395.63,-381.82"/>
<polygon fill="midnightblue" stroke="midnightblue" points="395.64,-385.33 405.78,-382.25 395.93,-378.33 395.64,-385.33"/>
</g>
<!-- Node5 -->
<g id="node5" class="node">
<title>Node5</title>
<g id="a_node5"><a xlink:href="../../d0/d0f/group___m_g_r___a_t___c_m_d.html#gae5c3c3791220ed4687558e8681648a0d" target="_top" xlink:title=": This function writes in UART the response of specific command">
<polygon fill="white" stroke="black" points="202,-304.5 202,-323.5 370,-323.5 370,-304.5 202,-304.5"/>
<text text-anchor="middle" x="286" y="-311.5" font-family="Helvetica,sans-Serif" font-size="10.00">bMGR_AT_CMD_sendResponse</text>
</a>
</g>
</g>
<!-- Node1&#45;&gt;Node5 -->
<g id="edge5" class="edge">
<title>Node1&#45;&gt;Node5</title>
<path fill="none" stroke="midnightblue" d="M91.76,-190.75C109.17,-211.99 153.66,-262.73 202,-290 210.06,-294.55 219.05,-298.3 228.07,-301.37"/>
<polygon fill="midnightblue" stroke="midnightblue" points="227.22,-304.77 237.81,-304.44 229.32,-298.09 227.22,-304.77"/>
</g>
<!-- Node7 -->
<g id="node7" class="node">
<title>Node7</title>
<g id="a_node7"><a xlink:href="../../d8/d11/mgr__at__cmd__list__user__data_8c.html#ga3cafca118878601afaac95a1b3dc75af" target="_top" xlink:title="This function converts kineis stack status into AT cmd error code.">
<polygon fill="white" stroke="black" points="224.5,-228.5 224.5,-247.5 347.5,-247.5 347.5,-228.5 224.5,-228.5"/>
<text text-anchor="middle" x="286" y="-235.5" font-family="Helvetica,sans-Serif" font-size="10.00">convKnsStatusToAtErr</text>
</a>
</g>
</g>
<!-- Node1&#45;&gt;Node7 -->
<g id="edge9" class="edge">
<title>Node1&#45;&gt;Node7</title>
<path fill="none" stroke="midnightblue" d="M111.45,-190.59C135.24,-198.71 170.66,-210.39 202,-219 211,-221.47 220.61,-223.88 229.99,-226.11"/>
<polygon fill="midnightblue" stroke="midnightblue" points="229.49,-229.59 240.02,-228.45 231.08,-222.77 229.49,-229.59"/>
</g>
<!-- Node8 -->
<g id="node8" class="node">
<title>Node8</title>
<g id="a_node8"><a xlink:href="../../d1/ddb/group___k_n_s___q.html#ga200d86f8adcbe9365bcec0cc085c91c0" target="_top" xlink:title="This function is used to pop next element from a queue.">
<polygon fill="white" stroke="black" points="249.5,-190.5 249.5,-209.5 322.5,-209.5 322.5,-190.5 249.5,-190.5"/>
<text text-anchor="middle" x="286" y="-197.5" font-family="Helvetica,sans-Serif" font-size="10.00">KNS_Q_pop</text>
</a>
</g>
</g>
<!-- Node1&#45;&gt;Node8 -->
<g id="edge10" class="edge">
<title>Node1&#45;&gt;Node8</title>
<path fill="none" stroke="midnightblue" d="M166.04,-188.76C190.95,-191.11 217.43,-193.61 239.06,-195.66"/>
<polygon fill="midnightblue" stroke="midnightblue" points="238.98,-199.17 249.26,-196.62 239.64,-192.2 238.98,-199.17"/>
</g>
<!-- Node9 -->
<g id="node9" class="node">
<title>Node9</title>
<g id="a_node9"><a xlink:href="../../d0/d0f/group___m_g_r___a_t___c_m_d.html#gacc929e5b70f2d6fefaa89d8aabf18773" target="_top" xlink:title="Set/clear a GPIO around transmission.">
<polygon fill="white" stroke="black" points="249,-152.5 249,-171.5 323,-171.5 323,-152.5 249,-152.5"/>
<text text-anchor="middle" x="286" y="-159.5" font-family="Helvetica,sans-Serif" font-size="10.00">Set_TX_LED</text>
</a>
</g>
</g>
<!-- Node1&#45;&gt;Node9 -->
<g id="edge11" class="edge">
<title>Node1&#45;&gt;Node9</title>
<path fill="none" stroke="midnightblue" d="M166.04,-173.24C190.77,-170.91 217.03,-168.43 238.57,-166.39"/>
<polygon fill="midnightblue" stroke="midnightblue" points="239.12,-169.85 248.74,-165.43 238.46,-162.88 239.12,-169.85"/>
</g>
<!-- Node10 -->
<g id="node10" class="node">
<title>Node10</title>
<g id="a_node10"><a xlink:href="../../db/d4f/group___u_s_e_r___d_a_t_a.html#ga7bf3cf40b0f5041d24a722e26347c83d" target="_top" xlink:title="get first element which contains the expected payload">
<polygon fill="white" stroke="black" points="206.5,-114.5 206.5,-133.5 365.5,-133.5 365.5,-114.5 206.5,-114.5"/>
<text text-anchor="middle" x="286" y="-121.5" font-family="Helvetica,sans-Serif" font-size="10.00">USERDATA_txFifoFindPayload</text>
</a>
</g>
</g>
<!-- Node1&#45;&gt;Node10 -->
<g id="edge12" class="edge">
<title>Node1&#45;&gt;Node10</title>
<path fill="none" stroke="midnightblue" d="M111.45,-171.41C135.24,-163.29 170.66,-151.61 202,-143 211,-140.53 220.61,-138.12 229.99,-135.89"/>
<polygon fill="midnightblue" stroke="midnightblue" points="231.08,-139.23 240.02,-133.55 229.49,-132.41 231.08,-139.23"/>
</g>
<!-- Node11 -->
<g id="node11" class="node">
<title>Node11</title>
<g id="a_node11"><a xlink:href="../../db/d4f/group___u_s_e_r___d_a_t_a.html#ga029850e8ca80a3be9b099582f5c7488a" target="_top" xlink:title="flush TX fifo">
<polygon fill="white" stroke="black" points="222.5,-76.5 222.5,-95.5 349.5,-95.5 349.5,-76.5 222.5,-76.5"/>
<text text-anchor="middle" x="286" y="-83.5" font-family="Helvetica,sans-Serif" font-size="10.00">USERDATA_txFifoFlush</text>
</a>
</g>
</g>
<!-- Node1&#45;&gt;Node11 -->
<g id="edge13" class="edge">
<title>Node1&#45;&gt;Node11</title>
<path fill="none" stroke="midnightblue" d="M95.94,-171.27C116.4,-155.09 160.01,-122.69 202,-105 207.9,-102.51 214.18,-100.33 220.54,-98.41"/>
<polygon fill="midnightblue" stroke="midnightblue" points="221.88,-101.67 230.56,-95.6 219.99,-94.93 221.88,-101.67"/>
</g>
<!-- Node16 -->
<g id="node16" class="node">
<title>Node16</title>
<g id="a_node16"><a xlink:href="../../db/d4f/group___u_s_e_r___d_a_t_a.html#gac0082e264a11102f05874ef9f0609e26" target="_top" xlink:title="get first element of the TX Fifo">
<polygon fill="white" stroke="black" points="217,-0.5 217,-19.5 355,-19.5 355,-0.5 217,-0.5"/>
<text text-anchor="middle" x="286" y="-7.5" font-family="Helvetica,sans-Serif" font-size="10.00">USERDATA_txFifoGetFirst</text>
</a>
</g>
</g>
<!-- Node1&#45;&gt;Node16 -->
<g id="edge20" class="edge">
<title>Node1&#45;&gt;Node16</title>
<path fill="none" stroke="midnightblue" d="M88.52,-171.31C101.74,-144.1 143.14,-66.55 202,-29 205.34,-26.87 208.89,-24.98 212.57,-23.3"/>
<polygon fill="midnightblue" stroke="midnightblue" points="213.96,-26.51 221.94,-19.54 211.35,-20.01 213.96,-26.51"/>
</g>
<!-- Node17 -->
<g id="node17" class="node">
<title>Node17</title>
<g id="a_node17"><a xlink:href="../../db/d4f/group___u_s_e_r___d_a_t_a.html#ga4d20835dbc4b21f645ff55eed7d93216" target="_top" xlink:title="Delete an element from the TX fifo.">
<polygon fill="white" stroke="black" points="209,-38.5 209,-57.5 363,-57.5 363,-38.5 209,-38.5"/>
<text text-anchor="middle" x="286" y="-45.5" font-family="Helvetica,sans-Serif" font-size="10.00">USERDATA_txFifoRemoveElt</text>
</a>
</g>
</g>
<!-- Node1&#45;&gt;Node17 -->
<g id="edge21" class="edge">
<title>Node1&#45;&gt;Node17</title>
<path fill="none" stroke="midnightblue" d="M91.03,-171.25C107.63,-149 151.66,-94.28 202,-67 206.24,-64.7 210.76,-62.68 215.4,-60.9"/>
<polygon fill="midnightblue" stroke="midnightblue" points="216.74,-64.14 225.07,-57.58 214.47,-57.52 216.74,-64.14"/>
</g>
<!-- Node3 -->
<g id="node3" class="node">
<title>Node3</title>
<g id="a_node3"><a xlink:href="../../d8/d62/group___m_c_u___a_p_p___w_r_a_p_p_e_r_s.html#gae14ee3e1d2a9b459c0d89c451a4bc470" target="_top" xlink:title="Send AT CMD response to console.">
<polygon fill="white" stroke="black" points="615,-304.5 615,-323.5 753,-323.5 753,-304.5 615,-304.5"/>
<text text-anchor="middle" x="684" y="-311.5" font-family="Helvetica,sans-Serif" font-size="10.00">MCU_AT_CONSOLE_send</text>
</a>
</g>
</g>
<!-- Node2&#45;&gt;Node3 -->
<g id="edge2" class="edge">
<title>Node2&#45;&gt;Node3</title>
<path fill="none" stroke="midnightblue" d="M529.42,-263.57C544.75,-267.79 562.82,-272.93 579,-278 601.77,-285.13 627.08,-293.87 647.03,-300.96"/>
<polygon fill="midnightblue" stroke="midnightblue" points="646.05,-304.32 656.64,-304.39 648.4,-297.73 646.05,-304.32"/>
</g>
<!-- Node4&#45;&gt;Node3 -->
<g id="edge4" class="edge">
<title>Node4&#45;&gt;Node3</title>
<path fill="none" stroke="midnightblue" d="M544.61,-370.45C556.05,-367.81 568.04,-364.65 579,-361 605.78,-352.08 634.95,-338.54 655.57,-328.27"/>
<polygon fill="midnightblue" stroke="midnightblue" points="657.33,-331.31 664.68,-323.68 654.17,-325.06 657.33,-331.31"/>
</g>
<!-- Node5&#45;&gt;Node3 -->
<g id="edge6" class="edge">
<title>Node5&#45;&gt;Node3</title>
<path fill="none" stroke="midnightblue" d="M370.22,-312.42C382.23,-312.25 394.43,-312.1 406,-312 482.89,-311.35 502.11,-311.26 579,-312 587.31,-312.08 595.99,-312.2 604.64,-312.33"/>
<polygon fill="midnightblue" stroke="midnightblue" points="604.7,-315.83 614.75,-312.5 604.81,-308.83 604.7,-315.83"/>
</g>
<!-- Node6 -->
<g id="node6" class="node">
<title>Node6</title>
<g id="a_node6"><a xlink:href="../../d8/d62/group___m_c_u___a_p_p___w_r_a_p_p_e_r_s.html#gaf6858a5591eaf9e21e59a15188ff6f13" target="_top" xlink:title="Write content of a binary data buffer as AT cmd response.">
<polygon fill="white" stroke="black" points="423.5,-321 423.5,-351 561.5,-351 561.5,-321 423.5,-321"/>
<text text-anchor="start" x="431.5" y="-339" font-family="Helvetica,sans-Serif" font-size="10.00">MCU_AT_CONSOLE_send</text>
<text text-anchor="middle" x="492.5" y="-328" font-family="Helvetica,sans-Serif" font-size="10.00">_dataBuf</text>
</a>
</g>
</g>
<!-- Node5&#45;&gt;Node6 -->
<g id="edge7" class="edge">
<title>Node5&#45;&gt;Node6</title>
<path fill="none" stroke="midnightblue" d="M370.18,-322.95C384.42,-324.48 399.16,-326.07 413.27,-327.58"/>
<polygon fill="midnightblue" stroke="midnightblue" points="413.09,-331.08 423.4,-328.67 413.84,-324.12 413.09,-331.08"/>
</g>
<!-- Node6&#45;&gt;Node3 -->
<g id="edge8" class="edge">
<title>Node6&#45;&gt;Node3</title>
<path fill="none" stroke="midnightblue" d="M561.65,-328.09C575.56,-326.47 590.31,-324.76 604.56,-323.11"/>
<polygon fill="midnightblue" stroke="midnightblue" points="605.29,-326.55 614.82,-321.92 604.49,-319.59 605.29,-326.55"/>
</g>
<!-- Node12 -->
<g id="node12" class="node">
<title>Node12</title>
<g id="a_node12"><a xlink:href="../../d9/d2f/group___k_i_n_e_i_s___s_w___c_o_n_f.html#ga858c122b744e5d185b5abac307aae807" target="_top" xlink:title="Enter critical section.">
<polygon fill="white" stroke="black" points="641,-124.5 641,-143.5 727,-143.5 727,-124.5 641,-124.5"/>
<text text-anchor="middle" x="684" y="-131.5" font-family="Helvetica,sans-Serif" font-size="10.00">KNS_CS_enter</text>
</a>
</g>
</g>
<!-- Node11&#45;&gt;Node12 -->
<g id="edge14" class="edge">
<title>Node11&#45;&gt;Node12</title>
<path fill="none" stroke="midnightblue" d="M347.97,-95.57C355.65,-98.03 363.2,-101.12 370,-105 390.2,-116.53 384.63,-133.81 406,-143 483.4,-176.29 584.51,-159.83 640.68,-146.1"/>
<polygon fill="midnightblue" stroke="midnightblue" points="641.8,-149.43 650.63,-143.58 640.08,-142.64 641.8,-149.43"/>
</g>
<!-- Node13 -->
<g id="node13" class="node">
<title>Node13</title>
<g id="a_node13"><a xlink:href="../../d9/d2f/group___k_i_n_e_i_s___s_w___c_o_n_f.html#ga58b477bfcd987dcd7b733b98ab692fdc" target="_top" xlink:title="Exit critical section.">
<polygon fill="white" stroke="black" points="644.5,-57.5 644.5,-76.5 723.5,-76.5 723.5,-57.5 644.5,-57.5"/>
<text text-anchor="middle" x="684" y="-64.5" font-family="Helvetica,sans-Serif" font-size="10.00">KNS_CS_exit</text>
</a>
</g>
</g>
<!-- Node11&#45;&gt;Node13 -->
<g id="edge15" class="edge">
<title>Node11&#45;&gt;Node13</title>
<path fill="none" stroke="midnightblue" d="M349.75,-82.99C428.74,-79.2 562.74,-72.77 634.39,-69.33"/>
<polygon fill="midnightblue" stroke="midnightblue" points="634.67,-72.82 644.5,-68.85 634.34,-65.83 634.67,-72.82"/>
</g>
<!-- Node14 -->
<g id="node14" class="node">
<title>Node14</title>
<g id="a_node14"><a xlink:href="../../db/d4f/group___u_s_e_r___d_a_t_a.html#ga7c272898faf1448391a80b578d9acf45" target="_top" xlink:title="count number of elements in TX fifo">
<polygon fill="white" stroke="black" points="419.5,-114.5 419.5,-133.5 565.5,-133.5 565.5,-114.5 419.5,-114.5"/>
<text text-anchor="middle" x="492.5" y="-121.5" font-family="Helvetica,sans-Serif" font-size="10.00">USERDATA_txFifoGetCount</text>
</a>
</g>
</g>
<!-- Node11&#45;&gt;Node14 -->
<g id="edge16" class="edge">
<title>Node11&#45;&gt;Node14</title>
<path fill="none" stroke="midnightblue" d="M338.34,-95.54C366.17,-100.71 400.77,-107.14 430.03,-112.58"/>
<polygon fill="midnightblue" stroke="midnightblue" points="429.67,-116.07 440.14,-114.46 430.95,-109.19 429.67,-116.07"/>
</g>
<!-- Node15 -->
<g id="node15" class="node">
<title>Node15</title>
<g id="a_node15"><a xlink:href="../../db/d4f/group___u_s_e_r___d_a_t_a.html#gafba02bd8b2e6ebad0b2f38b72e40ec21" target="_top" xlink:title="Log content of the TX fifo.">
<polygon fill="white" stroke="black" points="433.5,-38.5 433.5,-57.5 551.5,-57.5 551.5,-38.5 433.5,-38.5"/>
<text text-anchor="middle" x="492.5" y="-45.5" font-family="Helvetica,sans-Serif" font-size="10.00">USERDATA_txFifoLog</text>
</a>
</g>
</g>
<!-- Node11&#45;&gt;Node15 -->
<g id="edge17" class="edge">
<title>Node11&#45;&gt;Node15</title>
<path fill="none" stroke="midnightblue" d="M338.34,-76.46C366.17,-71.29 400.77,-64.86 430.03,-59.42"/>
<polygon fill="midnightblue" stroke="midnightblue" points="430.95,-62.81 440.14,-57.54 429.67,-55.93 430.95,-62.81"/>
</g>
<!-- Node15&#45;&gt;Node12 -->
<g id="edge18" class="edge">
<title>Node15&#45;&gt;Node12</title>
<path fill="none" stroke="midnightblue" d="M514.5,-57.53C548.08,-72.77 614.01,-102.69 652.69,-120.24"/>
<polygon fill="midnightblue" stroke="midnightblue" points="651.35,-123.48 661.9,-124.43 654.24,-117.11 651.35,-123.48"/>
</g>
<!-- Node15&#45;&gt;Node13 -->
<g id="edge19" class="edge">
<title>Node15&#45;&gt;Node13</title>
<path fill="none" stroke="midnightblue" d="M551.64,-53.83C578.13,-56.49 609.13,-59.59 634.36,-62.12"/>
<polygon fill="midnightblue" stroke="midnightblue" points="634.13,-65.62 644.43,-63.13 634.83,-58.65 634.13,-65.62"/>
</g>
<!-- Node17&#45;&gt;Node15 -->
<g id="edge23" class="edge">
<title>Node17&#45;&gt;Node15</title>
<path fill="none" stroke="midnightblue" d="M363.15,-48C382.79,-48 403.8,-48 423.02,-48"/>
<polygon fill="midnightblue" stroke="midnightblue" points="423.19,-51.5 433.19,-48 423.19,-44.5 423.19,-51.5"/>
</g>
<!-- Node18 -->
<g id="node18" class="node">
<title>Node18</title>
<g id="a_node18"><a xlink:href="../../db/d4f/group___u_s_e_r___d_a_t_a.html#ga532418c0e3adad36946ba9d346a163f4" target="_top" xlink:title="check the element is pointing on a valid address, i.e. one from sUserDataTxFifoBuf buffer">
<polygon fill="white" stroke="black" points="425.5,-0.5 425.5,-19.5 559.5,-19.5 559.5,-0.5 425.5,-0.5"/>
<text text-anchor="middle" x="492.5" y="-7.5" font-family="Helvetica,sans-Serif" font-size="10.00">USERDATA_txFifoIsInBuf</text>
</a>
</g>
</g>
<!-- Node17&#45;&gt;Node18 -->
<g id="edge22" class="edge">
<title>Node17&#45;&gt;Node18</title>
<path fill="none" stroke="midnightblue" d="M338.34,-38.46C366.17,-33.29 400.77,-26.86 430.03,-21.42"/>
<polygon fill="midnightblue" stroke="midnightblue" points="430.95,-24.81 440.14,-19.54 429.67,-17.93 430.95,-24.81"/>
</g>
</g>
</svg>
