<?xml version="1.0" encoding="UTF-8" standalone="no"?>
<!DOCTYPE svg PUBLIC "-//W3C//DTD SVG 1.1//EN"
 "http://www.w3.org/Graphics/SVG/1.1/DTD/svg11.dtd">
<!-- Generated by graphviz version 2.43.0 (0)
 -->
<!-- Title: bMGR_AT_CMD_logSucceedMsg Pages: 1 -->
<!--zoomable 382 -->
<svg id="main" version="1.1" xmlns="http://www.w3.org/2000/svg" xmlns:xlink="http://www.w3.org/1999/xlink" xml:space="preserve" onload="init(evt)">
<style type="text/css"><![CDATA[
.edge:hover path { stroke: red; }
.edge:hover polygon { stroke: red; fill: red; }
]]></style>
<script type="text/javascript"><![CDATA[
var edges = document.getElementsByTagName('g');
if (edges && edges.length) {
  for (var i=0;i<edges.length;i++) {
    if (edges[i].id.substr(0,4)=='edge') {
      edges[i].setAttribute('class','edge');
    }
  }
}
]]></script>
        <defs>
                <circle id="rim" cx="0" cy="0" r="7"/>
                <circle id="rim2" cx="0" cy="0" r="3.5"/>
                <g id="zoomPlus">
                        <use xlink:href="#rim" fill="#404040">
                                <set attributeName="fill" to="#808080" begin="zoomplus.mouseover" end="zoomplus.mouseout"/>
                        </use>
                        <path d="M-4,0h8M0,-4v8" fill="none" stroke="white" stroke-width="1.5" pointer-events="none"/>
                </g>
                <g id="zoomMin">
                        <use xlink:href="#rim" fill="#404040">
                                <set attributeName="fill" to="#808080" begin="zoomminus.mouseover" end="zoomminus.mouseout"/>
                        </use>
                        <path d="M-4,0h8" fill="none" stroke="white" stroke-width="1.5" pointer-events="none"/>
                </g>
                <g id="dirArrow">
                        <path fill="none" stroke="white" stroke-width="1.5" d="M0,-3.0v7 M-2.5,-0.5L0,-3.0L2.5,-0.5"/>
                </g>
               <g id="resetDef">
                       <use xlink:href="#rim2" fill="#404040">
                               <set attributeName="fill" to="#808080" begin="reset.mouseover" end="reset.mouseout"/>
                       </use>
               </g>
        </defs>

<script type="text/javascript">
var viewWidth = 661;
var viewHeight = 382;
var sectionId = 'dynsection-10';
</script>
<script xlink:href="../../svgpan.js"/>
<svg id="graph" class="graph">
<g id="viewport">
<title>bMGR_AT_CMD_logSucceedMsg</title>
<polygon fill="white" stroke="transparent" points="-4,4 -4,-378 657,-378 657,4 -4,4"/>
<!-- Node1 -->
<g id="node1" class="node">
<title>Node1</title>
<g id="a_node1"><a xlink:title=": Log in debug interface a succeed message">
<polygon fill="#bfbfbf" stroke="black" points="480,-174.5 480,-193.5 653,-193.5 653,-174.5 480,-174.5"/>
<text text-anchor="middle" x="566.5" y="-181.5" font-family="Helvetica,sans-Serif" font-size="10.00">bMGR_AT_CMD_logSucceedMsg</text>
</a>
</g>
</g>
<!-- Node2 -->
<g id="node2" class="node">
<title>Node2</title>
<g id="a_node2"><a xlink:href="../../d0/d0f/group___m_g_r___a_t___c_m_d.html#ga292621f6d8d6617d0f06907bae52a96f" target="_top" xlink:title="Process AT command &quot;AT+ATXRP&quot; get/set the repetition number and the period between 2 transmissions.">
<polygon fill="white" stroke="black" points="270.5,-354.5 270.5,-373.5 426.5,-373.5 426.5,-354.5 270.5,-354.5"/>
<text text-anchor="middle" x="348.5" y="-361.5" font-family="Helvetica,sans-Serif" font-size="10.00">bMGR_AT_CMD_ATXRP_cmd</text>
</a>
</g>
</g>
<!-- Node1&#45;&gt;Node2 -->
<g id="edge1" class="edge">
<title>Node1&#45;&gt;Node2</title>
<path fill="none" stroke="midnightblue" d="M556.99,-202.86C540.48,-237.13 500.68,-309.35 444,-345 437.91,-348.83 431.2,-351.91 424.25,-354.38"/>
<polygon fill="midnightblue" stroke="midnightblue" points="560.29,-204.07 561.36,-193.53 553.95,-201.1 560.29,-204.07"/>
</g>
<!-- Node3 -->
<g id="node3" class="node">
<title>Node3</title>
<g id="a_node3"><a xlink:href="../../d0/d0f/group___m_g_r___a_t___c_m_d.html#gafccf5cd6468be2c39af4c4c599d48ef8" target="_top" xlink:title="Process AT command &quot;AT+CW&quot;.">
<polygon fill="white" stroke="black" points="77,-38.5 77,-57.5 217,-57.5 217,-38.5 77,-38.5"/>
<text text-anchor="middle" x="147" y="-45.5" font-family="Helvetica,sans-Serif" font-size="10.00">bMGR_AT_CMD_CW_cmd</text>
</a>
</g>
</g>
<!-- Node1&#45;&gt;Node3 -->
<g id="edge2" class="edge">
<title>Node1&#45;&gt;Node3</title>
<path fill="none" stroke="midnightblue" d="M553.29,-165.93C533.82,-138.83 492.9,-88.56 444,-67 371.56,-35.06 279.36,-34.63 217.27,-39.38"/>
<polygon fill="midnightblue" stroke="midnightblue" points="550.66,-168.28 559.26,-174.46 556.4,-164.26 550.66,-168.28"/>
</g>
<!-- Node4 -->
<g id="node4" class="node">
<title>Node4</title>
<g id="a_node4"><a xlink:href="../../d0/d0f/group___m_g_r___a_t___c_m_d.html#gaed4723249aba7dbe8e17c74eed648f4b" target="_top" xlink:title=" ">
<polygon fill="white" stroke="black" points="276.5,-278.5 276.5,-297.5 420.5,-297.5 420.5,-278.5 276.5,-278.5"/>
<text text-anchor="middle" x="348.5" y="-285.5" font-family="Helvetica,sans-Serif" font-size="10.00">bMGR_AT_CMD_LPM_cmd</text>
</a>
</g>
</g>
<!-- Node1&#45;&gt;Node4 -->
<g id="edge3" class="edge">
<title>Node1&#45;&gt;Node4</title>
<path fill="none" stroke="midnightblue" d="M547.3,-200.42C524.73,-219.85 484.29,-251.75 444,-269 434.92,-272.89 425.01,-275.99 415.13,-278.46"/>
<polygon fill="midnightblue" stroke="midnightblue" points="549.82,-202.86 555.04,-193.63 545.21,-197.59 549.82,-202.86"/>
</g>
<!-- Node5 -->
<g id="node5" class="node">
<title>Node5</title>
<g id="a_node5"><a xlink:href="../../d0/d0f/group___m_g_r___a_t___c_m_d.html#gad504c930c0c0222576334c21940e245e" target="_top" xlink:title=" ">
<polygon fill="white" stroke="black" points="274.5,-240.5 274.5,-259.5 422.5,-259.5 422.5,-240.5 274.5,-240.5"/>
<text text-anchor="middle" x="348.5" y="-247.5" font-family="Helvetica,sans-Serif" font-size="10.00">bMGR_AT_CMD_PING_cmd</text>
</a>
</g>
</g>
<!-- Node1&#45;&gt;Node5 -->
<g id="edge4" class="edge">
<title>Node1&#45;&gt;Node5</title>
<path fill="none" stroke="midnightblue" d="M534.05,-197.43C509.78,-207.42 475.2,-220.85 444,-230 430.48,-233.96 415.66,-237.48 401.85,-240.41"/>
<polygon fill="midnightblue" stroke="midnightblue" points="535.57,-200.59 543.46,-193.52 532.88,-194.13 535.57,-200.59"/>
</g>
<!-- Node6 -->
<g id="node6" class="node">
<title>Node6</title>
<g id="a_node6"><a xlink:href="../../d0/d0f/group___m_g_r___a_t___c_m_d.html#gafa3e80f7aedfa74c8d16d0202a3f4f07" target="_top" xlink:title="Process AT command &quot;AT+PREPASS_EN&quot; Enabling/disabling PREVIPASS (sat pass prediction) computation,...">
<polygon fill="white" stroke="black" points="278,-191 278,-221 419,-221 419,-191 278,-191"/>
<text text-anchor="start" x="286" y="-209" font-family="Helvetica,sans-Serif" font-size="10.00">bMGR_AT_CMD_PREPASS</text>
<text text-anchor="middle" x="348.5" y="-198" font-family="Helvetica,sans-Serif" font-size="10.00">_EN_cmd</text>
</a>
</g>
</g>
<!-- Node1&#45;&gt;Node6 -->
<g id="edge5" class="edge">
<title>Node1&#45;&gt;Node6</title>
<path fill="none" stroke="midnightblue" d="M469.83,-193.74C452.77,-195.48 435.28,-197.26 419.12,-198.91"/>
<polygon fill="midnightblue" stroke="midnightblue" points="470.23,-197.22 479.82,-192.73 469.52,-190.26 470.23,-197.22"/>
</g>
<!-- Node7 -->
<g id="node7" class="node">
<title>Node7</title>
<g id="a_node7"><a xlink:href="../../d0/d0f/group___m_g_r___a_t___c_m_d.html#gaf2dc4b8c03924fc01641182032c31ba5" target="_top" xlink:title=" ">
<polygon fill="white" stroke="black" points="269.5,-152.5 269.5,-171.5 427.5,-171.5 427.5,-152.5 269.5,-152.5"/>
<text text-anchor="middle" x="348.5" y="-159.5" font-family="Helvetica,sans-Serif" font-size="10.00">bMGR_AT_CMD_RCONF_cmd</text>
</a>
</g>
</g>
<!-- Node1&#45;&gt;Node7 -->
<g id="edge6" class="edge">
<title>Node1&#45;&gt;Node7</title>
<path fill="none" stroke="midnightblue" d="M469.67,-174.24C455.64,-172.81 441.33,-171.35 427.71,-169.97"/>
<polygon fill="midnightblue" stroke="midnightblue" points="469.52,-177.74 479.82,-175.27 470.23,-170.78 469.52,-177.74"/>
</g>
<!-- Node8 -->
<g id="node8" class="node">
<title>Node8</title>
<g id="a_node8"><a xlink:href="../../d0/d0f/group___m_g_r___a_t___c_m_d.html#ga02e2a055602cf05cffff4e57ef414e50" target="_top" xlink:title=" ">
<polygon fill="white" stroke="black" points="253.5,-114.5 253.5,-133.5 443.5,-133.5 443.5,-114.5 253.5,-114.5"/>
<text text-anchor="middle" x="348.5" y="-121.5" font-family="Helvetica,sans-Serif" font-size="10.00">bMGR_AT_CMD_SAVE_RCONF_cmd</text>
</a>
</g>
</g>
<!-- Node1&#45;&gt;Node8 -->
<g id="edge7" class="edge">
<title>Node1&#45;&gt;Node8</title>
<path fill="none" stroke="midnightblue" d="M530.76,-170.97C506.66,-162.25 473.67,-150.95 444,-143 430.91,-139.49 416.64,-136.3 403.25,-133.58"/>
<polygon fill="midnightblue" stroke="midnightblue" points="529.59,-174.27 540.19,-174.41 532,-167.69 529.59,-174.27"/>
</g>
<!-- Node9 -->
<g id="node9" class="node">
<title>Node9</title>
<g id="a_node9"><a xlink:href="../../d0/d0f/group___m_g_r___a_t___c_m_d.html#ga166c0300322bd71368b25fe8c351eb9b" target="_top" xlink:title=" ">
<polygon fill="white" stroke="black" points="270,-76.5 270,-95.5 427,-95.5 427,-76.5 270,-76.5"/>
<text text-anchor="middle" x="348.5" y="-83.5" font-family="Helvetica,sans-Serif" font-size="10.00">bMGR_AT_CMD_UDATE_cmd</text>
</a>
</g>
</g>
<!-- Node1&#45;&gt;Node9 -->
<g id="edge8" class="edge">
<title>Node1&#45;&gt;Node9</title>
<path fill="none" stroke="midnightblue" d="M546,-167.94C523.04,-149.86 483.04,-120.93 444,-105 434.47,-101.11 424.07,-97.99 413.76,-95.5"/>
<polygon fill="midnightblue" stroke="midnightblue" points="543.94,-170.77 553.94,-174.29 548.32,-165.31 543.94,-170.77"/>
</g>
<!-- Node10 -->
<g id="node10" class="node">
<title>Node10</title>
<g id="a_node10"><a xlink:href="../../d0/d0f/group___m_g_r___a_t___c_m_d.html#ga1a39b3c9cd76d50537a8bc42087ed46f" target="_top" xlink:title="Fct used to retreive and process event coming from kineis stack as answers to AT commands.">
<polygon fill="white" stroke="black" points="265.5,-316.5 265.5,-335.5 431.5,-335.5 431.5,-316.5 265.5,-316.5"/>
<text text-anchor="middle" x="348.5" y="-323.5" font-family="Helvetica,sans-Serif" font-size="10.00">MGR_AT_CMD_macEvtProcess</text>
</a>
</g>
</g>
<!-- Node1&#45;&gt;Node10 -->
<g id="edge9" class="edge">
<title>Node1&#45;&gt;Node10</title>
<path fill="none" stroke="midnightblue" d="M553.38,-201.81C533.78,-229.11 492.41,-280.87 444,-307 436.78,-310.9 428.87,-314 420.79,-316.46"/>
<polygon fill="midnightblue" stroke="midnightblue" points="556.29,-203.76 559.17,-193.56 550.56,-199.74 556.29,-203.76"/>
</g>
<!-- Node13 -->
<g id="node13" class="node">
<title>Node13</title>
<g id="a_node13"><a xlink:href="../../d0/d0f/group___m_g_r___a_t___c_m_d.html#ga60486b23c6850d01bbb1e29875cd24f4" target="_top" xlink:title="Send random TX data as per RF configuration.">
<polygon fill="white" stroke="black" points="253,-0.5 253,-19.5 444,-19.5 444,-0.5 253,-0.5"/>
<text text-anchor="middle" x="348.5" y="-7.5" font-family="Helvetica,sans-Serif" font-size="10.00">MGR_AT_CMD_sendRandomTxData</text>
</a>
</g>
</g>
<!-- Node1&#45;&gt;Node13 -->
<g id="edge12" class="edge">
<title>Node1&#45;&gt;Node13</title>
<path fill="none" stroke="midnightblue" d="M555.71,-165.32C537.93,-133.29 497.21,-68.05 444,-34 434.16,-27.7 422.76,-23.06 411.36,-19.63"/>
<polygon fill="midnightblue" stroke="midnightblue" points="552.64,-166.99 560.48,-174.12 558.79,-163.66 552.64,-166.99"/>
</g>
<!-- Node11 -->
<g id="node11" class="node">
<title>Node11</title>
<g id="a_node11"><a xlink:href="../../dd/d41/group___k_n_s___a_p_p.html#ga06543de003a98e82570c572ce5e1240c" target="_top" xlink:title="This fct is the application expected to run in front of the GUI.">
<polygon fill="white" stroke="black" points="93.5,-316.5 93.5,-335.5 200.5,-335.5 200.5,-316.5 93.5,-316.5"/>
<text text-anchor="middle" x="147" y="-323.5" font-family="Helvetica,sans-Serif" font-size="10.00">KNS_APP_gui_loop</text>
</a>
</g>
</g>
<!-- Node10&#45;&gt;Node11 -->
<g id="edge10" class="edge">
<title>Node10&#45;&gt;Node11</title>
<path fill="none" stroke="midnightblue" d="M255.41,-326C236.6,-326 217.44,-326 200.6,-326"/>
<polygon fill="midnightblue" stroke="midnightblue" points="255.49,-329.5 265.49,-326 255.49,-322.5 255.49,-329.5"/>
</g>
<!-- Node12 -->
<g id="node12" class="node">
<title>Node12</title>
<g id="a_node12"><a xlink:href="../../d0/d29/main_8c.html#a840291bc02cba5474a4cb46a9b9566fe" target="_top" xlink:title="The application entry point.">
<polygon fill="white" stroke="black" points="0,-316.5 0,-335.5 41,-335.5 41,-316.5 0,-316.5"/>
<text text-anchor="middle" x="20.5" y="-323.5" font-family="Helvetica,sans-Serif" font-size="10.00">main</text>
</a>
</g>
</g>
<!-- Node11&#45;&gt;Node12 -->
<g id="edge11" class="edge">
<title>Node11&#45;&gt;Node12</title>
<path fill="none" stroke="midnightblue" d="M83.2,-326C67.93,-326 52.7,-326 41.2,-326"/>
<polygon fill="midnightblue" stroke="midnightblue" points="83.2,-329.5 93.2,-326 83.2,-322.5 83.2,-329.5"/>
</g>
<!-- Node13&#45;&gt;Node3 -->
<g id="edge13" class="edge">
<title>Node13&#45;&gt;Node3</title>
<path fill="none" stroke="midnightblue" d="M287.55,-21.42C259.01,-26.86 225.26,-33.28 198.11,-38.46"/>
<polygon fill="midnightblue" stroke="midnightblue" points="288.25,-24.85 297.42,-19.54 286.94,-17.97 288.25,-24.85"/>
</g>
<!-- Node14 -->
<g id="node14" class="node">
<title>Node14</title>
<g id="a_node14"><a xlink:href="../../d0/d0f/group___m_g_r___a_t___c_m_d.html#gafccb1dfaf28ab371bebd814a3abaa57c" target="_top" xlink:title="Callback function notifying end of TX processing in case of modulated wave.">
<polygon fill="white" stroke="black" points="101,-0.5 101,-19.5 193,-19.5 193,-0.5 101,-0.5"/>
<text text-anchor="middle" x="147" y="-7.5" font-family="Helvetica,sans-Serif" font-size="10.00">eoAtMW_isr_cb</text>
</a>
</g>
</g>
<!-- Node13&#45;&gt;Node14 -->
<g id="edge14" class="edge">
<title>Node13&#45;&gt;Node14</title>
<path fill="none" stroke="midnightblue" d="M242.47,-3.26C225.07,-3.31 207.89,-3.64 193.05,-4.25"/>
<polygon fill="midnightblue" stroke="midnightblue" points="242.72,-6.76 252.72,-3.26 242.72,0.24 242.72,-6.76"/>
</g>
<!-- Node14&#45;&gt;Node13 -->
<g id="edge15" class="edge">
<title>Node14&#45;&gt;Node13</title>
<path fill="none" stroke="midnightblue" d="M203.37,-16.12C218.71,-16.58 235.81,-16.79 252.72,-16.74"/>
<polygon fill="midnightblue" stroke="midnightblue" points="203.17,-12.61 193.05,-15.75 202.92,-19.6 203.17,-12.61"/>
</g>
</g>
</svg>
        <g id="navigator" transform="translate(0 0)" fill="#404254">
                <rect fill="#f2f5e9" fill-opacity="0.5" stroke="#606060" stroke-width=".5" x="0" y="0" width="60" height="60"/>
                <use id="zoomplus" xlink:href="#zoomPlus" x="17" y="9" onmousedown="handleZoom(evt,'in')"/>
                <use id="zoomminus" xlink:href="#zoomMin" x="42" y="9" onmousedown="handleZoom(evt,'out')"/>
                <use id="reset" xlink:href="#resetDef" x="30" y="36" onmousedown="handleReset()"/>
                <g id="arrowUp" xlink:href="#dirArrow" transform="translate(30 24)" onmousedown="handlePan(0,-1)">
                  <use xlink:href="#rim" fill="#404040">
                        <set attributeName="fill" to="#808080" begin="arrowUp.mouseover" end="arrowUp.mouseout"/>
                  </use>
                  <path fill="none" stroke="white" stroke-width="1.5" d="M0,-3.0v7 M-2.5,-0.5L0,-3.0L2.5,-0.5"/>
                </g>
                <g id="arrowRight" xlink:href="#dirArrow" transform="rotate(90) translate(36 -43)" onmousedown="handlePan(1,0)">
                  <use xlink:href="#rim" fill="#404040">
                        <set attributeName="fill" to="#808080" begin="arrowRight.mouseover" end="arrowRight.mouseout"/>
                  </use>
                  <path fill="none" stroke="white" stroke-width="1.5" d="M0,-3.0v7 M-2.5,-0.5L0,-3.0L2.5,-0.5"/>
                </g>
                <g id="arrowDown" xlink:href="#dirArrow" transform="rotate(180) translate(-30 -48)" onmousedown="handlePan(0,1)">
                  <use xlink:href="#rim" fill="#404040">
                        <set attributeName="fill" to="#808080" begin="arrowDown.mouseover" end="arrowDown.mouseout"/>
                  </use>
                  <path fill="none" stroke="white" stroke-width="1.5" d="M0,-3.0v7 M-2.5,-0.5L0,-3.0L2.5,-0.5"/>
                </g>
                <g id="arrowLeft" xlink:href="#dirArrow" transform="rotate(270) translate(-36 17)" onmousedown="handlePan(-1,0)">
                  <use xlink:href="#rim" fill="#404040">
                        <set attributeName="fill" to="#808080" begin="arrowLeft.mouseover" end="arrowLeft.mouseout"/>
                  </use>
                  <path fill="none" stroke="white" stroke-width="1.5" d="M0,-3.0v7 M-2.5,-0.5L0,-3.0L2.5,-0.5"/>
                </g>
        </g>
        <svg viewBox="0 0 15 15" width="100%" height="30px" preserveAspectRatio="xMaxYMin meet">
         <g id="arrow_out" transform="scale(0.3 0.3)">
          <a xlink:href="group___m_g_r___a_t___c_m_d_gabef580da46cf82ca74ba3e5217cf3ffa_icgraph_org.svg" target="_base">
           <rect id="button" ry="5" rx="5" y="6" x="6" height="38" width="38"
                fill="#f2f5e9" fill-opacity="0.5" stroke="#606060" stroke-width="1.0"/>
           <path id="arrow"
             d="M 11.500037,31.436501 C 11.940474,20.09759 22.043105,11.32322 32.158766,21.979434 L 37.068811,17.246167 C 37.068811,17.246167 37.088388,32 37.088388,32 L 22.160133,31.978069 C 22.160133,31.978069 26.997745,27.140456 26.997745,27.140456 C 18.528582,18.264221 13.291696,25.230495 11.500037,31.436501 z"
             style="fill:#404040;"/>
          </a>
         </g>
        </svg>
</svg>
