<?xml version="1.0" encoding="UTF-8" standalone="no"?>
<!DOCTYPE svg PUBLIC "-//W3C//DTD SVG 1.1//EN"
 "http://www.w3.org/Graphics/SVG/1.1/DTD/svg11.dtd">
<!-- Generated by graphviz version 2.43.0 (0)
 -->
<!-- Title: eoAtMW_isr_cb Pages: 1 -->
<svg width="503pt" height="28pt"
 viewBox="0.00 0.00 503.00 28.00" xmlns="http://www.w3.org/2000/svg" xmlns:xlink="http://www.w3.org/1999/xlink">
<g id="graph0" class="graph" transform="scale(1 1) rotate(0) translate(4 24)">
<title>eoAtMW_isr_cb</title>
<polygon fill="white" stroke="transparent" points="-4,4 -4,-24 499,-24 499,4 -4,4"/>
<!-- Node1 -->
<g id="node1" class="node">
<title>Node1</title>
<g id="a_node1"><a xlink:title="Callback function notifying end of TX processing in case of modulated wave.">
<polygon fill="#bfbfbf" stroke="black" points="403,-0.5 403,-19.5 495,-19.5 495,-0.5 403,-0.5"/>
<text text-anchor="middle" x="449" y="-7.5" font-family="Helvetica,sans-Serif" font-size="10.00">eoAtMW_isr_cb</text>
</a>
</g>
</g>
<!-- Node2 -->
<g id="node2" class="node">
<title>Node2</title>
<g id="a_node2"><a xlink:href="../../d0/d0f/group___m_g_r___a_t___c_m_d.html#ga60486b23c6850d01bbb1e29875cd24f4" target="_top" xlink:title="Send random TX data as per RF configuration.">
<polygon fill="white" stroke="black" points="176,-0.5 176,-19.5 367,-19.5 367,-0.5 176,-0.5"/>
<text text-anchor="middle" x="271.5" y="-7.5" font-family="Helvetica,sans-Serif" font-size="10.00">MGR_AT_CMD_sendRandomTxData</text>
</a>
</g>
</g>
<!-- Node1&#45;&gt;Node2 -->
<g id="edge1" class="edge">
<title>Node1&#45;&gt;Node2</title>
<path fill="none" stroke="midnightblue" d="M392.66,-3.68C384.44,-3.45 375.78,-3.31 367.03,-3.27"/>
<polygon fill="midnightblue" stroke="midnightblue" points="392.69,-7.18 402.8,-4.01 392.93,-0.18 392.69,-7.18"/>
</g>
<!-- Node2&#45;&gt;Node1 -->
<g id="edge3" class="edge">
<title>Node2&#45;&gt;Node1</title>
<path fill="none" stroke="midnightblue" d="M377.17,-16.64C386.09,-16.52 394.76,-16.3 402.8,-15.99"/>
<polygon fill="midnightblue" stroke="midnightblue" points="376.99,-13.14 367.03,-16.73 377.06,-20.14 376.99,-13.14"/>
</g>
<!-- Node3 -->
<g id="node3" class="node">
<title>Node3</title>
<g id="a_node3"><a xlink:href="../../d0/d0f/group___m_g_r___a_t___c_m_d.html#gafccf5cd6468be2c39af4c4c599d48ef8" target="_top" xlink:title="Process AT command &quot;AT+CW&quot;.">
<polygon fill="white" stroke="black" points="0,-0.5 0,-19.5 140,-19.5 140,-0.5 0,-0.5"/>
<text text-anchor="middle" x="70" y="-7.5" font-family="Helvetica,sans-Serif" font-size="10.00">bMGR_AT_CMD_CW_cmd</text>
</a>
</g>
</g>
<!-- Node2&#45;&gt;Node3 -->
<g id="edge2" class="edge">
<title>Node2&#45;&gt;Node3</title>
<path fill="none" stroke="midnightblue" d="M165.61,-10C157.02,-10 148.47,-10 140.23,-10"/>
<polygon fill="midnightblue" stroke="midnightblue" points="165.72,-13.5 175.72,-10 165.72,-6.5 165.72,-13.5"/>
</g>
</g>
</svg>
