<?xml version="1.0" encoding="UTF-8" standalone="no"?>
<!DOCTYPE svg PUBLIC "-//W3C//DTD SVG 1.1//EN"
 "http://www.w3.org/Graphics/SVG/1.1/DTD/svg11.dtd">
<!-- Generated by graphviz version 2.43.0 (0)
 -->
<!-- Title: bMGR_AT_CMD_RCONF_cmd Pages: 1 -->
<svg width="580pt" height="268pt"
 viewBox="0.00 0.00 580.00 267.50" xmlns="http://www.w3.org/2000/svg" xmlns:xlink="http://www.w3.org/1999/xlink">
<g id="graph0" class="graph" transform="scale(1 1) rotate(0) translate(4 263.5)">
<title>bMGR_AT_CMD_RCONF_cmd</title>
<polygon fill="white" stroke="transparent" points="-4,4 -4,-263.5 576,-263.5 576,4 -4,4"/>
<!-- Node1 -->
<g id="node1" class="node">
<title>Node1</title>
<g id="a_node1"><a xlink:title=" ">
<polygon fill="#bfbfbf" stroke="black" points="0,-126 0,-145 158,-145 158,-126 0,-126"/>
<text text-anchor="middle" x="79" y="-133" font-family="Helvetica,sans-Serif" font-size="10.00">bMGR_AT_CMD_RCONF_cmd</text>
</a>
</g>
</g>
<!-- Node2 -->
<g id="node2" class="node">
<title>Node2</title>
<g id="a_node2"><a xlink:href="../../d0/d0f/group___m_g_r___a_t___c_m_d.html#ga3d564aff9653e8bdc572d189093f1acc" target="_top" xlink:title="Log in debug interface a failed message.">
<polygon fill="white" stroke="black" points="199.5,-240 199.5,-259 361.5,-259 361.5,-240 199.5,-240"/>
<text text-anchor="middle" x="280.5" y="-247" font-family="Helvetica,sans-Serif" font-size="10.00">bMGR_AT_CMD_logFailedMsg</text>
</a>
</g>
</g>
<!-- Node1&#45;&gt;Node2 -->
<g id="edge1" class="edge">
<title>Node1&#45;&gt;Node2</title>
<path fill="none" stroke="midnightblue" d="M89.43,-145.16C107.86,-163.48 150.63,-203.42 194,-225.5 202.96,-230.06 212.91,-233.86 222.76,-236.99"/>
<polygon fill="midnightblue" stroke="midnightblue" points="221.96,-240.4 232.54,-239.89 223.95,-233.69 221.96,-240.4"/>
</g>
<!-- Node3 -->
<g id="node3" class="node">
<title>Node3</title>
<g id="a_node3"><a xlink:href="../../d8/d62/group___m_c_u___a_p_p___w_r_a_p_p_e_r_s.html#gae14ee3e1d2a9b459c0d89c451a4bc470" target="_top" xlink:title="Send AT CMD response to console.">
<polygon fill="white" stroke="black" points="418.5,-202 418.5,-221 556.5,-221 556.5,-202 418.5,-202"/>
<text text-anchor="middle" x="487.5" y="-209" font-family="Helvetica,sans-Serif" font-size="10.00">MCU_AT_CONSOLE_send</text>
</a>
</g>
</g>
<!-- Node1&#45;&gt;Node3 -->
<g id="edge7" class="edge">
<title>Node1&#45;&gt;Node3</title>
<path fill="none" stroke="midnightblue" d="M94.36,-145.06C115.26,-158.41 155.77,-182.15 194,-192.5 264.81,-211.66 348.63,-215.27 408.35,-214.76"/>
<polygon fill="midnightblue" stroke="midnightblue" points="408.51,-218.26 418.46,-214.63 408.42,-211.26 408.51,-218.26"/>
</g>
<!-- Node4 -->
<g id="node4" class="node">
<title>Node4</title>
<g id="a_node4"><a xlink:href="../../d0/d0f/group___m_g_r___a_t___c_m_d.html#gabef580da46cf82ca74ba3e5217cf3ffa" target="_top" xlink:title=": Log in debug interface a succeed message">
<polygon fill="white" stroke="black" points="194,-164 194,-183 367,-183 367,-164 194,-164"/>
<text text-anchor="middle" x="280.5" y="-171" font-family="Helvetica,sans-Serif" font-size="10.00">bMGR_AT_CMD_logSucceedMsg</text>
</a>
</g>
</g>
<!-- Node1&#45;&gt;Node4 -->
<g id="edge3" class="edge">
<title>Node1&#45;&gt;Node4</title>
<path fill="none" stroke="midnightblue" d="M130.08,-145.04C157.24,-150.21 190.99,-156.64 219.53,-162.08"/>
<polygon fill="midnightblue" stroke="midnightblue" points="218.92,-165.52 229.39,-163.96 220.23,-158.65 218.92,-165.52"/>
</g>
<!-- Node5 -->
<g id="node5" class="node">
<title>Node5</title>
<g id="a_node5"><a xlink:href="../../d0/d54/group___k_n_s___c_f_g.html#ga3538adccf668070211abc09f59a68bce" target="_top" xlink:title="Get the Kineis radio configuration.">
<polygon fill="white" stroke="black" points="215.5,-126 215.5,-145 345.5,-145 345.5,-126 215.5,-126"/>
<text text-anchor="middle" x="280.5" y="-133" font-family="Helvetica,sans-Serif" font-size="10.00">KNS_CFG_getRadioInfo</text>
</a>
</g>
</g>
<!-- Node1&#45;&gt;Node5 -->
<g id="edge5" class="edge">
<title>Node1&#45;&gt;Node5</title>
<path fill="none" stroke="midnightblue" d="M158.28,-135.5C173.62,-135.5 189.68,-135.5 204.9,-135.5"/>
<polygon fill="midnightblue" stroke="midnightblue" points="205.28,-139 215.28,-135.5 205.28,-132 205.28,-139"/>
</g>
<!-- Node6 -->
<g id="node6" class="node">
<title>Node6</title>
<g id="a_node6"><a xlink:href="../../d0/d54/group___k_n_s___c_f_g.html#ga3045904d2f0c927a31b43bf05f98210f" target="_top" xlink:title="Set the Kineis radio configuration.">
<polygon fill="white" stroke="black" points="216,-88 216,-107 345,-107 345,-88 216,-88"/>
<text text-anchor="middle" x="280.5" y="-95" font-family="Helvetica,sans-Serif" font-size="10.00">KNS_CFG_setRadioInfo</text>
</a>
</g>
</g>
<!-- Node1&#45;&gt;Node6 -->
<g id="edge6" class="edge">
<title>Node1&#45;&gt;Node6</title>
<path fill="none" stroke="midnightblue" d="M130.08,-125.96C157.24,-120.79 190.99,-114.36 219.53,-108.92"/>
<polygon fill="midnightblue" stroke="midnightblue" points="220.23,-112.35 229.39,-107.04 218.92,-105.48 220.23,-112.35"/>
</g>
<!-- Node7 -->
<g id="node7" class="node">
<title>Node7</title>
<g id="a_node7"><a xlink:href="../../d8/d5d/group___m_c_u___w_r_a_p_p_e_r_s.html#ga95d4a2d8c0093ea39858e44e40f9bed9" target="_top" xlink:title="get HW settings of the platform concerning RF">
<polygon fill="white" stroke="black" points="202,-50 202,-69 359,-69 359,-50 202,-50"/>
<text text-anchor="middle" x="280.5" y="-57" font-family="Helvetica,sans-Serif" font-size="10.00">MCU_MISC_getSettingsHwRf</text>
</a>
</g>
</g>
<!-- Node1&#45;&gt;Node7 -->
<g id="edge8" class="edge">
<title>Node1&#45;&gt;Node7</title>
<path fill="none" stroke="midnightblue" d="M96.06,-125.88C117.64,-113.33 157.51,-91.46 194,-78.5 201.36,-75.89 209.2,-73.56 217.04,-71.51"/>
<polygon fill="midnightblue" stroke="midnightblue" points="218.07,-74.86 226.93,-69.05 216.38,-68.06 218.07,-74.86"/>
</g>
<!-- Node8 -->
<g id="node8" class="node">
<title>Node8</title>
<g id="a_node8"><a xlink:href="../../d0/d0f/group___m_g_r___a_t___c_m_d.html#ga474b262632007c7cdccc1c36d53d3d00" target="_top" xlink:title=": convert the input form ASCII to binary.">
<polygon fill="white" stroke="black" points="195.5,-0.5 195.5,-30.5 365.5,-30.5 365.5,-0.5 195.5,-0.5"/>
<text text-anchor="start" x="203.5" y="-18.5" font-family="Helvetica,sans-Serif" font-size="10.00">u16MGR_AT_CMD_convertAscii</text>
<text text-anchor="middle" x="280.5" y="-7.5" font-family="Helvetica,sans-Serif" font-size="10.00">Binary</text>
</a>
</g>
</g>
<!-- Node1&#45;&gt;Node8 -->
<g id="edge9" class="edge">
<title>Node1&#45;&gt;Node8</title>
<path fill="none" stroke="midnightblue" d="M88.78,-125.91C106.73,-106.88 149.66,-64.13 194,-40.5 198.21,-38.25 202.66,-36.19 207.21,-34.29"/>
<polygon fill="midnightblue" stroke="midnightblue" points="208.61,-37.5 216.67,-30.62 206.08,-30.97 208.61,-37.5"/>
</g>
<!-- Node2&#45;&gt;Node3 -->
<g id="edge2" class="edge">
<title>Node2&#45;&gt;Node3</title>
<path fill="none" stroke="midnightblue" d="M332.97,-239.96C360.87,-234.79 395.55,-228.36 424.88,-222.92"/>
<polygon fill="midnightblue" stroke="midnightblue" points="425.82,-226.31 435.01,-221.04 424.54,-219.43 425.82,-226.31"/>
</g>
<!-- Node4&#45;&gt;Node3 -->
<g id="edge4" class="edge">
<title>Node4&#45;&gt;Node3</title>
<path fill="none" stroke="midnightblue" d="M332.97,-183.04C360.87,-188.21 395.55,-194.64 424.88,-200.08"/>
<polygon fill="midnightblue" stroke="midnightblue" points="424.54,-203.57 435.01,-201.96 425.82,-196.69 424.54,-203.57"/>
</g>
<!-- Node9 -->
<g id="node9" class="node">
<title>Node9</title>
<g id="a_node9"><a xlink:href="../../d8/da3/group___s_t_r_u_t_i_l_s.html#ga84065a55b8ebeb12a5e2a8e8ce2833fb" target="_top" xlink:title="convert an hexadecimal ASCII digit to a 4bits integer">
<polygon fill="white" stroke="black" points="403,-6 403,-25 572,-25 572,-6 403,-6"/>
<text text-anchor="middle" x="487.5" y="-13" font-family="Helvetica,sans-Serif" font-size="10.00">u8UTIL_convertCharToHex4bits</text>
</a>
</g>
</g>
<!-- Node8&#45;&gt;Node9 -->
<g id="edge10" class="edge">
<title>Node8&#45;&gt;Node9</title>
<path fill="none" stroke="midnightblue" d="M365.77,-15.5C374.68,-15.5 383.77,-15.5 392.78,-15.5"/>
<polygon fill="midnightblue" stroke="midnightblue" points="392.89,-19 402.89,-15.5 392.89,-12 392.89,-19"/>
</g>
</g>
</svg>
