<?xml version="1.0" encoding="UTF-8" standalone="no"?>
<!DOCTYPE svg PUBLIC "-//W3C//DTD SVG 1.1//EN"
 "http://www.w3.org/Graphics/SVG/1.1/DTD/svg11.dtd">
<!-- Generated by graphviz version 2.43.0 (0)
 -->
<!-- Title: MGR_AT_CMD_start Pages: 1 -->
<svg width="644pt" height="66pt"
 viewBox="0.00 0.00 644.00 66.00" xmlns="http://www.w3.org/2000/svg" xmlns:xlink="http://www.w3.org/1999/xlink">
<g id="graph0" class="graph" transform="scale(1 1) rotate(0) translate(4 62)">
<title>MGR_AT_CMD_start</title>
<polygon fill="white" stroke="transparent" points="-4,4 -4,-62 640,-62 640,4 -4,4"/>
<!-- Node1 -->
<g id="node1" class="node">
<title>Node1</title>
<g id="a_node1"><a xlink:title="main API used to start AT command Manager">
<polygon fill="#bfbfbf" stroke="black" points="0,-19.5 0,-38.5 114,-38.5 114,-19.5 0,-19.5"/>
<text text-anchor="middle" x="57" y="-26.5" font-family="Helvetica,sans-Serif" font-size="10.00">MGR_AT_CMD_start</text>
</a>
</g>
</g>
<!-- Node2 -->
<g id="node2" class="node">
<title>Node2</title>
<g id="a_node2"><a xlink:href="../../d8/d62/group___m_c_u___a_p_p___w_r_a_p_p_e_r_s.html#ga74be300679e0b76678c55d7c8b609e6a" target="_top" xlink:title="Start AT CMD console for AT cmd reception.">
<polygon fill="white" stroke="black" points="157.5,-38.5 157.5,-57.5 309.5,-57.5 309.5,-38.5 157.5,-38.5"/>
<text text-anchor="middle" x="233.5" y="-45.5" font-family="Helvetica,sans-Serif" font-size="10.00">MCU_AT_CONSOLE_register</text>
</a>
</g>
</g>
<!-- Node1&#45;&gt;Node2 -->
<g id="edge1" class="edge">
<title>Node1&#45;&gt;Node2</title>
<path fill="none" stroke="midnightblue" d="M114.17,-35.12C124.7,-36.26 135.92,-37.48 147.1,-38.7"/>
<polygon fill="midnightblue" stroke="midnightblue" points="147.02,-42.21 157.34,-39.82 147.77,-35.25 147.02,-42.21"/>
</g>
<!-- Node5 -->
<g id="node5" class="node">
<title>Node5</title>
<g id="a_node5"><a xlink:href="../../d0/d0f/group___m_g_r___a_t___c_m_d.html#ga8a8d9cacd2053d0c96e923fc183ac4ad" target="_top" xlink:title="API used to extract the latest AT cmds from the incoming received data stream.">
<polygon fill="white" stroke="black" points="150,-0.5 150,-19.5 317,-19.5 317,-0.5 150,-0.5"/>
<text text-anchor="middle" x="233.5" y="-7.5" font-family="Helvetica,sans-Serif" font-size="10.00">MGR_AT_CMD_parseStreamCb</text>
</a>
</g>
</g>
<!-- Node1&#45;&gt;Node5 -->
<g id="edge4" class="edge">
<title>Node1&#45;&gt;Node5</title>
<path fill="none" stroke="midnightblue" d="M114.17,-22.88C122.34,-21.99 130.92,-21.06 139.57,-20.12"/>
<polygon fill="midnightblue" stroke="midnightblue" points="140.19,-23.57 149.75,-19.01 139.43,-16.61 140.19,-23.57"/>
</g>
<!-- Node3 -->
<g id="node3" class="node">
<title>Node3</title>
<g id="a_node3"><a xlink:href="../../d8/d62/group___m_c_u___a_p_p___w_r_a_p_p_e_r_s.html#ga2fbcd5790071dab1b10a9196607692b8" target="_top" xlink:title="Enable and start RX interrupt from UART.">
<polygon fill="white" stroke="black" points="353,-38.5 353,-57.5 490,-57.5 490,-38.5 353,-38.5"/>
<text text-anchor="middle" x="421.5" y="-45.5" font-family="Helvetica,sans-Serif" font-size="10.00">KINEIS_UART_StartRx_IT</text>
</a>
</g>
</g>
<!-- Node2&#45;&gt;Node3 -->
<g id="edge2" class="edge">
<title>Node2&#45;&gt;Node3</title>
<path fill="none" stroke="midnightblue" d="M309.62,-48C320.58,-48 331.88,-48 342.89,-48"/>
<polygon fill="midnightblue" stroke="midnightblue" points="342.9,-51.5 352.9,-48 342.9,-44.5 342.9,-51.5"/>
</g>
<!-- Node4 -->
<g id="node4" class="node">
<title>Node4</title>
<g id="a_node4"><a xlink:href="../../d8/d62/group___m_c_u___a_p_p___w_r_a_p_p_e_r_s.html#gaeda0953e4ffe9aae0475009c1d221944" target="_top" xlink:title="RX interrupt handler for 7 or 8 bits data word length .">
<polygon fill="white" stroke="black" points="526,-38.5 526,-57.5 636,-57.5 636,-38.5 526,-38.5"/>
<text text-anchor="middle" x="581" y="-45.5" font-family="Helvetica,sans-Serif" font-size="10.00">KINEIS_RxISR_8BIT</text>
</a>
</g>
</g>
<!-- Node3&#45;&gt;Node4 -->
<g id="edge3" class="edge">
<title>Node3&#45;&gt;Node4</title>
<path fill="none" stroke="midnightblue" d="M490.21,-48C498.63,-48 507.21,-48 515.58,-48"/>
<polygon fill="midnightblue" stroke="midnightblue" points="515.65,-51.5 525.65,-48 515.65,-44.5 515.65,-51.5"/>
</g>
</g>
</svg>
