<?xml version="1.0" encoding="UTF-8" standalone="no"?>
<!DOCTYPE svg PUBLIC "-//W3C//DTD SVG 1.1//EN"
 "http://www.w3.org/Graphics/SVG/1.1/DTD/svg11.dtd">
<!-- Generated by graphviz version 2.43.0 (0)
 -->
<!-- Title: MGR_LOG_array Pages: 1 -->
<svg width="507pt" height="104pt"
 viewBox="0.00 0.00 507.00 104.00" xmlns="http://www.w3.org/2000/svg" xmlns:xlink="http://www.w3.org/1999/xlink">
<g id="graph0" class="graph" transform="scale(1 1) rotate(0) translate(4 100)">
<title>MGR_LOG_array</title>
<polygon fill="white" stroke="transparent" points="-4,4 -4,-100 503,-100 503,4 -4,4"/>
<!-- Node1 -->
<g id="node1" class="node">
<title>Node1</title>
<g id="a_node1"><a xlink:title="Log array of uint8_t.">
<polygon fill="#bfbfbf" stroke="black" points="403,-38.5 403,-57.5 499,-57.5 499,-38.5 403,-38.5"/>
<text text-anchor="middle" x="451" y="-45.5" font-family="Helvetica,sans-Serif" font-size="10.00">MGR_LOG_array</text>
</a>
</g>
</g>
<!-- Node2 -->
<g id="node2" class="node">
<title>Node2</title>
<g id="a_node2"><a xlink:href="../../dd/d41/group___k_n_s___a_p_p.html#ga7dcd894e8e120e17325f7801d136d938" target="_top" xlink:title="This fct is a very basic standalone application.">
<polygon fill="white" stroke="black" points="213.5,-66.5 213.5,-85.5 329.5,-85.5 329.5,-66.5 213.5,-66.5"/>
<text text-anchor="middle" x="271.5" y="-73.5" font-family="Helvetica,sans-Serif" font-size="10.00">KNS_APP_stdln_loop</text>
</a>
</g>
</g>
<!-- Node1&#45;&gt;Node2 -->
<g id="edge1" class="edge">
<title>Node1&#45;&gt;Node2</title>
<path fill="none" stroke="midnightblue" d="M392.88,-57.01C372.64,-60.2 349.88,-63.79 329.64,-66.99"/>
<polygon fill="midnightblue" stroke="midnightblue" points="393.57,-60.45 402.9,-55.43 392.48,-53.53 393.57,-60.45"/>
</g>
<!-- Node4 -->
<g id="node4" class="node">
<title>Node4</title>
<g id="a_node4"><a xlink:href="../../d0/d0f/group___m_g_r___a_t___c_m_d.html#ga60486b23c6850d01bbb1e29875cd24f4" target="_top" xlink:title="Send random TX data as per RF configuration.">
<polygon fill="white" stroke="black" points="176,-19.5 176,-38.5 367,-38.5 367,-19.5 176,-19.5"/>
<text text-anchor="middle" x="271.5" y="-26.5" font-family="Helvetica,sans-Serif" font-size="10.00">MGR_AT_CMD_sendRandomTxData</text>
</a>
</g>
</g>
<!-- Node1&#45;&gt;Node4 -->
<g id="edge3" class="edge">
<title>Node1&#45;&gt;Node4</title>
<path fill="none" stroke="midnightblue" d="M392.7,-41.87C382.67,-40.79 372.02,-39.65 361.37,-38.51"/>
<polygon fill="midnightblue" stroke="midnightblue" points="392.58,-45.37 402.9,-42.96 393.33,-38.41 392.58,-45.37"/>
</g>
<!-- Node3 -->
<g id="node3" class="node">
<title>Node3</title>
<g id="a_node3"><a xlink:href="../../d0/d29/main_8c.html#a840291bc02cba5474a4cb46a9b9566fe" target="_top" xlink:title="The application entry point.">
<polygon fill="white" stroke="black" points="49.5,-76.5 49.5,-95.5 90.5,-95.5 90.5,-76.5 49.5,-76.5"/>
<text text-anchor="middle" x="70" y="-83.5" font-family="Helvetica,sans-Serif" font-size="10.00">main</text>
</a>
</g>
</g>
<!-- Node2&#45;&gt;Node3 -->
<g id="edge2" class="edge">
<title>Node2&#45;&gt;Node3</title>
<path fill="none" stroke="midnightblue" d="M203.22,-79.37C163.76,-81.35 116.69,-83.71 90.7,-85.01"/>
<polygon fill="midnightblue" stroke="midnightblue" points="203.52,-82.86 213.33,-78.87 203.17,-75.87 203.52,-82.86"/>
</g>
<!-- Node5 -->
<g id="node5" class="node">
<title>Node5</title>
<g id="a_node5"><a xlink:href="../../d0/d0f/group___m_g_r___a_t___c_m_d.html#gafccf5cd6468be2c39af4c4c599d48ef8" target="_top" xlink:title="Process AT command &quot;AT+CW&quot;.">
<polygon fill="white" stroke="black" points="0,-38.5 0,-57.5 140,-57.5 140,-38.5 0,-38.5"/>
<text text-anchor="middle" x="70" y="-45.5" font-family="Helvetica,sans-Serif" font-size="10.00">bMGR_AT_CMD_CW_cmd</text>
</a>
</g>
</g>
<!-- Node4&#45;&gt;Node5 -->
<g id="edge4" class="edge">
<title>Node4&#45;&gt;Node5</title>
<path fill="none" stroke="midnightblue" d="M165.61,-38.99C157.02,-39.81 148.47,-40.62 140.23,-41.41"/>
<polygon fill="midnightblue" stroke="midnightblue" points="166.09,-42.46 175.72,-38.03 165.43,-35.49 166.09,-42.46"/>
</g>
<!-- Node6 -->
<g id="node6" class="node">
<title>Node6</title>
<g id="a_node6"><a xlink:href="../../d0/d0f/group___m_g_r___a_t___c_m_d.html#gafccb1dfaf28ab371bebd814a3abaa57c" target="_top" xlink:title="Callback function notifying end of TX processing in case of modulated wave.">
<polygon fill="white" stroke="black" points="24,-0.5 24,-19.5 116,-19.5 116,-0.5 24,-0.5"/>
<text text-anchor="middle" x="70" y="-7.5" font-family="Helvetica,sans-Serif" font-size="10.00">eoAtMW_isr_cb</text>
</a>
</g>
</g>
<!-- Node4&#45;&gt;Node6 -->
<g id="edge5" class="edge">
<title>Node4&#45;&gt;Node6</title>
<path fill="none" stroke="midnightblue" d="M219.15,-18.12C187.28,-14 146.73,-10.21 116.1,-8.54"/>
<polygon fill="midnightblue" stroke="midnightblue" points="218.79,-21.6 229.16,-19.47 219.72,-14.67 218.79,-21.6"/>
</g>
<!-- Node6&#45;&gt;Node4 -->
<g id="edge6" class="edge">
<title>Node6&#45;&gt;Node4</title>
<path fill="none" stroke="midnightblue" d="M122.6,-20.91C138.88,-23.01 157.41,-25.03 175.72,-26.72"/>
<polygon fill="midnightblue" stroke="midnightblue" points="122.62,-17.38 112.25,-19.52 121.69,-24.32 122.62,-17.38"/>
</g>
</g>
</svg>
