<?xml version="1.0" encoding="UTF-8" standalone="no"?>
<!DOCTYPE svg PUBLIC "-//W3C//DTD SVG 1.1//EN"
 "http://www.w3.org/Graphics/SVG/1.1/DTD/svg11.dtd">
<!-- Generated by graphviz version 2.43.0 (0)
 -->
<!-- Title: bMGR_AT_CMD_SAVE_RCONF_cmd Pages: 1 -->
<svg width="581pt" height="104pt"
 viewBox="0.00 0.00 581.00 104.00" xmlns="http://www.w3.org/2000/svg" xmlns:xlink="http://www.w3.org/1999/xlink">
<g id="graph0" class="graph" transform="scale(1 1) rotate(0) translate(4 100)">
<title>bMGR_AT_CMD_SAVE_RCONF_cmd</title>
<polygon fill="white" stroke="transparent" points="-4,4 -4,-100 577,-100 577,4 -4,4"/>
<!-- Node1 -->
<g id="node1" class="node">
<title>Node1</title>
<g id="a_node1"><a xlink:title=" ">
<polygon fill="#bfbfbf" stroke="black" points="0,-38.5 0,-57.5 190,-57.5 190,-38.5 0,-38.5"/>
<text text-anchor="middle" x="95" y="-45.5" font-family="Helvetica,sans-Serif" font-size="10.00">bMGR_AT_CMD_SAVE_RCONF_cmd</text>
</a>
</g>
</g>
<!-- Node2 -->
<g id="node2" class="node">
<title>Node2</title>
<g id="a_node2"><a xlink:href="../../d0/d0f/group___m_g_r___a_t___c_m_d.html#ga3d564aff9653e8bdc572d189093f1acc" target="_top" xlink:title="Log in debug interface a failed message.">
<polygon fill="white" stroke="black" points="231.5,-76.5 231.5,-95.5 393.5,-95.5 393.5,-76.5 231.5,-76.5"/>
<text text-anchor="middle" x="312.5" y="-83.5" font-family="Helvetica,sans-Serif" font-size="10.00">bMGR_AT_CMD_logFailedMsg</text>
</a>
</g>
</g>
<!-- Node1&#45;&gt;Node2 -->
<g id="edge1" class="edge">
<title>Node1&#45;&gt;Node2</title>
<path fill="none" stroke="midnightblue" d="M150.1,-57.54C179.56,-62.73 216.21,-69.2 247.13,-74.65"/>
<polygon fill="midnightblue" stroke="midnightblue" points="246.92,-78.17 257.38,-76.46 248.14,-71.27 246.92,-78.17"/>
</g>
<!-- Node4 -->
<g id="node4" class="node">
<title>Node4</title>
<g id="a_node4"><a xlink:href="../../d0/d0f/group___m_g_r___a_t___c_m_d.html#gabef580da46cf82ca74ba3e5217cf3ffa" target="_top" xlink:title=": Log in debug interface a succeed message">
<polygon fill="white" stroke="black" points="226,-38.5 226,-57.5 399,-57.5 399,-38.5 226,-38.5"/>
<text text-anchor="middle" x="312.5" y="-45.5" font-family="Helvetica,sans-Serif" font-size="10.00">bMGR_AT_CMD_logSucceedMsg</text>
</a>
</g>
</g>
<!-- Node1&#45;&gt;Node4 -->
<g id="edge3" class="edge">
<title>Node1&#45;&gt;Node4</title>
<path fill="none" stroke="midnightblue" d="M190.21,-48C198.66,-48 207.23,-48 215.7,-48"/>
<polygon fill="midnightblue" stroke="midnightblue" points="215.96,-51.5 225.96,-48 215.96,-44.5 215.96,-51.5"/>
</g>
<!-- Node5 -->
<g id="node5" class="node">
<title>Node5</title>
<g id="a_node5"><a xlink:href="../../d0/d54/group___k_n_s___c_f_g.html#ga43b5f37cff9213792d8c7e8b683d9f25" target="_top" xlink:title="Save the Kineis radio configuration into Flash.">
<polygon fill="white" stroke="black" points="244,-0.5 244,-19.5 381,-19.5 381,-0.5 244,-0.5"/>
<text text-anchor="middle" x="312.5" y="-7.5" font-family="Helvetica,sans-Serif" font-size="10.00">KNS_CFG_saveRadioInfo</text>
</a>
</g>
</g>
<!-- Node1&#45;&gt;Node5 -->
<g id="edge5" class="edge">
<title>Node1&#45;&gt;Node5</title>
<path fill="none" stroke="midnightblue" d="M150.1,-38.46C179.56,-33.27 216.21,-26.8 247.13,-21.35"/>
<polygon fill="midnightblue" stroke="midnightblue" points="248.14,-24.73 257.38,-19.54 246.92,-17.83 248.14,-24.73"/>
</g>
<!-- Node3 -->
<g id="node3" class="node">
<title>Node3</title>
<g id="a_node3"><a xlink:href="../../d8/d62/group___m_c_u___a_p_p___w_r_a_p_p_e_r_s.html#gae14ee3e1d2a9b459c0d89c451a4bc470" target="_top" xlink:title="Send AT CMD response to console.">
<polygon fill="white" stroke="black" points="435,-57.5 435,-76.5 573,-76.5 573,-57.5 435,-57.5"/>
<text text-anchor="middle" x="504" y="-64.5" font-family="Helvetica,sans-Serif" font-size="10.00">MCU_AT_CONSOLE_send</text>
</a>
</g>
</g>
<!-- Node2&#45;&gt;Node3 -->
<g id="edge2" class="edge">
<title>Node2&#45;&gt;Node3</title>
<path fill="none" stroke="midnightblue" d="M393.59,-77.97C403.89,-76.94 414.43,-75.88 424.71,-74.85"/>
<polygon fill="midnightblue" stroke="midnightblue" points="425.27,-78.31 434.87,-73.83 424.58,-71.35 425.27,-78.31"/>
</g>
<!-- Node4&#45;&gt;Node3 -->
<g id="edge4" class="edge">
<title>Node4&#45;&gt;Node3</title>
<path fill="none" stroke="midnightblue" d="M399.1,-56.58C407.61,-57.44 416.22,-58.3 424.64,-59.14"/>
<polygon fill="midnightblue" stroke="midnightblue" points="424.52,-62.65 434.82,-60.16 425.22,-55.68 424.52,-62.65"/>
</g>
</g>
</svg>
