<?xml version="1.0" encoding="UTF-8" standalone="no"?>
<!DOCTYPE svg PUBLIC "-//W3C//DTD SVG 1.1//EN"
 "http://www.w3.org/Graphics/SVG/1.1/DTD/svg11.dtd">
<!-- Generated by graphviz version 2.43.0 (0)
 -->
<!-- Title: bMGR_AT_CMD_CW_cmd Pages: 1 -->
<!--zoomable 522 -->
<svg id="main" version="1.1" xmlns="http://www.w3.org/2000/svg" xmlns:xlink="http://www.w3.org/1999/xlink" xml:space="preserve" onload="init(evt)">
<style type="text/css"><![CDATA[
.edge:hover path { stroke: red; }
.edge:hover polygon { stroke: red; fill: red; }
]]></style>
<script type="text/javascript"><![CDATA[
var edges = document.getElementsByTagName('g');
if (edges && edges.length) {
  for (var i=0;i<edges.length;i++) {
    if (edges[i].id.substr(0,4)=='edge') {
      edges[i].setAttribute('class','edge');
    }
  }
}
]]></script>
        <defs>
                <circle id="rim" cx="0" cy="0" r="7"/>
                <circle id="rim2" cx="0" cy="0" r="3.5"/>
                <g id="zoomPlus">
                        <use xlink:href="#rim" fill="#404040">
                                <set attributeName="fill" to="#808080" begin="zoomplus.mouseover" end="zoomplus.mouseout"/>
                        </use>
                        <path d="M-4,0h8M0,-4v8" fill="none" stroke="white" stroke-width="1.5" pointer-events="none"/>
                </g>
                <g id="zoomMin">
                        <use xlink:href="#rim" fill="#404040">
                                <set attributeName="fill" to="#808080" begin="zoomminus.mouseover" end="zoomminus.mouseout"/>
                        </use>
                        <path d="M-4,0h8" fill="none" stroke="white" stroke-width="1.5" pointer-events="none"/>
                </g>
                <g id="dirArrow">
                        <path fill="none" stroke="white" stroke-width="1.5" d="M0,-3.0v7 M-2.5,-0.5L0,-3.0L2.5,-0.5"/>
                </g>
               <g id="resetDef">
                       <use xlink:href="#rim2" fill="#404040">
                               <set attributeName="fill" to="#808080" begin="reset.mouseover" end="reset.mouseout"/>
                       </use>
               </g>
        </defs>

<script type="text/javascript">
var viewWidth = 758;
var viewHeight = 522;
var sectionId = 'dynsection-1';
</script>
<script xlink:href="../../svgpan.js"/>
<svg id="graph" class="graph">
<g id="viewport">
<title>bMGR_AT_CMD_CW_cmd</title>
<polygon fill="white" stroke="transparent" points="-4,4 -4,-518 754,-518 754,4 -4,4"/>
<!-- Node1 -->
<g id="node1" class="node">
<title>Node1</title>
<g id="a_node1"><a xlink:title="Process AT command &quot;AT+CW&quot;.">
<polygon fill="#bfbfbf" stroke="black" points="0,-304.5 0,-323.5 140,-323.5 140,-304.5 0,-304.5"/>
<text text-anchor="middle" x="70" y="-311.5" font-family="Helvetica,sans-Serif" font-size="10.00">bMGR_AT_CMD_CW_cmd</text>
</a>
</g>
</g>
<!-- Node2 -->
<g id="node2" class="node">
<title>Node2</title>
<g id="a_node2"><a xlink:href="../../d0/d0f/group___m_g_r___a_t___c_m_d.html#ga3d564aff9653e8bdc572d189093f1acc" target="_top" xlink:title="Log in debug interface a failed message.">
<polygon fill="white" stroke="black" points="408.5,-456.5 408.5,-475.5 570.5,-475.5 570.5,-456.5 408.5,-456.5"/>
<text text-anchor="middle" x="489.5" y="-463.5" font-family="Helvetica,sans-Serif" font-size="10.00">bMGR_AT_CMD_logFailedMsg</text>
</a>
</g>
</g>
<!-- Node1&#45;&gt;Node2 -->
<g id="edge1" class="edge">
<title>Node1&#45;&gt;Node2</title>
<path fill="none" stroke="midnightblue" d="M82.89,-323.59C101.63,-338.29 139.68,-366.43 176,-383 255.74,-419.39 354.47,-442.27 419.35,-454.58"/>
<polygon fill="midnightblue" stroke="midnightblue" points="419,-458.07 429.47,-456.46 420.28,-451.19 419,-458.07"/>
</g>
<!-- Node4 -->
<g id="node4" class="node">
<title>Node4</title>
<g id="a_node4"><a xlink:href="../../d0/d0f/group___m_g_r___a_t___c_m_d.html#gabef580da46cf82ca74ba3e5217cf3ffa" target="_top" xlink:title=": Log in debug interface a succeed message">
<polygon fill="white" stroke="black" points="403,-494.5 403,-513.5 576,-513.5 576,-494.5 403,-494.5"/>
<text text-anchor="middle" x="489.5" y="-501.5" font-family="Helvetica,sans-Serif" font-size="10.00">bMGR_AT_CMD_logSucceedMsg</text>
</a>
</g>
</g>
<!-- Node1&#45;&gt;Node4 -->
<g id="edge3" class="edge">
<title>Node1&#45;&gt;Node4</title>
<path fill="none" stroke="midnightblue" d="M77.05,-323.6C91.39,-345.52 129.72,-399.5 176,-427 242.23,-466.35 327.76,-485.65 392.6,-495.08"/>
<polygon fill="midnightblue" stroke="midnightblue" points="392.43,-498.59 402.82,-496.51 393.4,-491.66 392.43,-498.59"/>
</g>
<!-- Node5 -->
<g id="node5" class="node">
<title>Node5</title>
<g id="a_node5"><a xlink:href="../../d0/d0f/group___m_g_r___a_t___c_m_d.html#ga3cafca118878601afaac95a1b3dc75af" target="_top" xlink:title="This function converts kineis stack status into AT cmd error code.">
<polygon fill="white" stroke="black" points="428,-418.5 428,-437.5 551,-437.5 551,-418.5 428,-418.5"/>
<text text-anchor="middle" x="489.5" y="-425.5" font-family="Helvetica,sans-Serif" font-size="10.00">convKnsStatusToAtErr</text>
</a>
</g>
</g>
<!-- Node1&#45;&gt;Node5 -->
<g id="edge5" class="edge">
<title>Node1&#45;&gt;Node5</title>
<path fill="none" stroke="midnightblue" d="M105.88,-323.52C181.4,-344.14 359.97,-392.9 443.7,-415.77"/>
<polygon fill="midnightblue" stroke="midnightblue" points="442.86,-419.17 453.43,-418.42 444.7,-412.41 442.86,-419.17"/>
</g>
<!-- Node6 -->
<g id="node6" class="node">
<title>Node6</title>
<g id="a_node6"><a xlink:href="../../d7/d3a/group___k_n_s___r_f.html#ga4d708d28e77ccbd85afd3efe8242e2ff" target="_top" xlink:title="This function starts aborting the current TX RF processing.">
<polygon fill="white" stroke="black" points="435,-76.5 435,-95.5 544,-95.5 544,-76.5 435,-76.5"/>
<text text-anchor="middle" x="489.5" y="-83.5" font-family="Helvetica,sans-Serif" font-size="10.00">KNS_RFTX_abortRf</text>
</a>
</g>
</g>
<!-- Node1&#45;&gt;Node6 -->
<g id="edge6" class="edge">
<title>Node1&#45;&gt;Node6</title>
<path fill="none" stroke="midnightblue" d="M82.82,-304.39C124.13,-271.28 266.95,-160.97 403,-105 409.94,-102.14 417.39,-99.68 424.88,-97.57"/>
<polygon fill="midnightblue" stroke="midnightblue" points="425.94,-100.91 434.72,-94.99 424.16,-94.14 425.94,-100.91"/>
</g>
<!-- Node7 -->
<g id="node7" class="node">
<title>Node7</title>
<g id="a_node7"><a xlink:href="../../d7/d3a/group___k_n_s___r_f.html#ga52c7f4638ef321b41724a0fc88498d06" target="_top" xlink:title="This function powers off the LDO for the KNS_RF TX part. cb is called when done.">
<polygon fill="white" stroke="black" points="622,-342.5 622,-361.5 740,-361.5 740,-342.5 622,-342.5"/>
<text text-anchor="middle" x="681" y="-349.5" font-family="Helvetica,sans-Serif" font-size="10.00">KNS_RFTX_powerOff</text>
</a>
</g>
</g>
<!-- Node1&#45;&gt;Node7 -->
<g id="edge7" class="edge">
<title>Node1&#45;&gt;Node7</title>
<path fill="none" stroke="midnightblue" d="M73.16,-304.45C80.88,-272.59 110.24,-169.1 176,-119 247.3,-64.68 502.55,-15.62 576,-67 665.66,-129.73 678.29,-278.35 679.86,-332.13"/>
<polygon fill="midnightblue" stroke="midnightblue" points="676.37,-332.44 680.06,-342.37 683.37,-332.31 676.37,-332.44"/>
</g>
<!-- Node8 -->
<g id="node8" class="node">
<title>Node8</title>
<g id="a_node8"><a xlink:href="../../d0/d0f/group___m_g_r___a_t___c_m_d.html#ga93e0ba86dd0dff06dc8b957213e34b58" target="_top" xlink:title="API used to check there is some AT command in internal fifo.">
<polygon fill="white" stroke="black" points="197,-0.5 197,-19.5 346,-19.5 346,-0.5 197,-0.5"/>
<text text-anchor="middle" x="271.5" y="-7.5" font-family="Helvetica,sans-Serif" font-size="10.00">MGR_AT_CMD_isPendingAt</text>
</a>
</g>
</g>
<!-- Node1&#45;&gt;Node8 -->
<g id="edge8" class="edge">
<title>Node1&#45;&gt;Node8</title>
<path fill="none" stroke="midnightblue" d="M71.54,-304.29C74.3,-264.29 90.34,-110.72 176,-34 180.44,-30.02 185.45,-26.68 190.79,-23.88"/>
<polygon fill="midnightblue" stroke="midnightblue" points="192.39,-27 200.04,-19.67 189.49,-20.63 192.39,-27"/>
</g>
<!-- Node9 -->
<g id="node9" class="node">
<title>Node9</title>
<g id="a_node9"><a xlink:href="../../d0/d0f/group___m_g_r___a_t___c_m_d.html#ga60486b23c6850d01bbb1e29875cd24f4" target="_top" xlink:title="Send random TX data as per RF configuration.">
<polygon fill="white" stroke="black" points="176,-304.5 176,-323.5 367,-323.5 367,-304.5 176,-304.5"/>
<text text-anchor="middle" x="271.5" y="-311.5" font-family="Helvetica,sans-Serif" font-size="10.00">MGR_AT_CMD_sendRandomTxData</text>
</a>
</g>
</g>
<!-- Node1&#45;&gt;Node9 -->
<g id="edge9" class="edge">
<title>Node1&#45;&gt;Node9</title>
<path fill="none" stroke="midnightblue" d="M140.22,-314C148.47,-314 157.03,-314 165.64,-314"/>
<polygon fill="midnightblue" stroke="midnightblue" points="165.75,-317.5 175.75,-314 165.75,-310.5 165.75,-317.5"/>
</g>
<!-- Node3 -->
<g id="node3" class="node">
<title>Node3</title>
<g id="a_node3"><a xlink:href="../../d8/d62/group___m_c_u___a_p_p___w_r_a_p_p_e_r_s.html#gae14ee3e1d2a9b459c0d89c451a4bc470" target="_top" xlink:title="Send AT CMD response to console.">
<polygon fill="white" stroke="black" points="612,-475.5 612,-494.5 750,-494.5 750,-475.5 612,-475.5"/>
<text text-anchor="middle" x="681" y="-482.5" font-family="Helvetica,sans-Serif" font-size="10.00">MCU_AT_CONSOLE_send</text>
</a>
</g>
</g>
<!-- Node2&#45;&gt;Node3 -->
<g id="edge2" class="edge">
<title>Node2&#45;&gt;Node3</title>
<path fill="none" stroke="midnightblue" d="M570.59,-474.03C580.89,-475.06 591.43,-476.12 601.71,-477.15"/>
<polygon fill="midnightblue" stroke="midnightblue" points="601.58,-480.65 611.87,-478.17 602.27,-473.69 601.58,-480.65"/>
</g>
<!-- Node4&#45;&gt;Node3 -->
<g id="edge4" class="edge">
<title>Node4&#45;&gt;Node3</title>
<path fill="none" stroke="midnightblue" d="M576.1,-495.42C584.61,-494.56 593.22,-493.7 601.64,-492.86"/>
<polygon fill="midnightblue" stroke="midnightblue" points="602.22,-496.32 611.82,-491.84 601.52,-489.35 602.22,-496.32"/>
</g>
<!-- Node9&#45;&gt;Node2 -->
<g id="edge10" class="edge">
<title>Node9&#45;&gt;Node2</title>
<path fill="none" stroke="midnightblue" d="M278.82,-323.54C295.74,-348.25 344.74,-414.66 403,-447 407.18,-449.32 411.63,-451.36 416.21,-453.15"/>
<polygon fill="midnightblue" stroke="midnightblue" points="415.17,-456.49 425.77,-456.48 417.48,-449.89 415.17,-456.49"/>
</g>
<!-- Node9&#45;&gt;Node4 -->
<g id="edge11" class="edge">
<title>Node9&#45;&gt;Node4</title>
<path fill="none" stroke="midnightblue" d="M276.83,-323.64C290.57,-353.07 336.29,-442.36 403,-485 406.2,-487.04 409.59,-488.87 413.1,-490.5"/>
<polygon fill="midnightblue" stroke="midnightblue" points="412.05,-493.85 422.63,-494.38 414.69,-487.37 412.05,-493.85"/>
</g>
<!-- Node9&#45;&gt;Node5 -->
<g id="edge12" class="edge">
<title>Node9&#45;&gt;Node5</title>
<path fill="none" stroke="midnightblue" d="M287.81,-323.51C306.71,-335.37 339.71,-356.48 367,-376 383.49,-387.79 384.9,-394.87 403,-404 412.08,-408.58 422.17,-412.4 432.13,-415.54"/>
<polygon fill="midnightblue" stroke="midnightblue" points="431.43,-418.98 442.01,-418.46 433.41,-412.27 431.43,-418.98"/>
</g>
<!-- Node9&#45;&gt;Node6 -->
<g id="edge16" class="edge">
<title>Node9&#45;&gt;Node6</title>
<path fill="none" stroke="midnightblue" d="M281.92,-304.23C300.29,-284.78 341.31,-239.27 367,-195 388.62,-157.74 370.17,-132.9 403,-105 409.34,-99.61 416.88,-95.65 424.82,-92.77"/>
<polygon fill="midnightblue" stroke="midnightblue" points="426.1,-96.04 434.64,-89.76 424.05,-89.34 426.1,-96.04"/>
</g>
<!-- Node9&#45;&gt;Node7 -->
<g id="edge17" class="edge">
<title>Node9&#45;&gt;Node7</title>
<path fill="none" stroke="midnightblue" d="M288.66,-323.68C312.62,-337.42 359.44,-361.9 403,-371 480.96,-387.28 573.67,-374.63 629.61,-363.62"/>
<polygon fill="midnightblue" stroke="midnightblue" points="630.52,-367 639.62,-361.59 629.12,-360.14 630.52,-367"/>
</g>
<!-- Node10 -->
<g id="node10" class="node">
<title>Node10</title>
<g id="a_node10"><a xlink:href="../../d0/d0f/group___m_g_r___a_t___c_m_d.html#gafccb1dfaf28ab371bebd814a3abaa57c" target="_top" xlink:title="Callback function notifying end of TX processing in case of modulated wave.">
<polygon fill="white" stroke="black" points="443.5,-342.5 443.5,-361.5 535.5,-361.5 535.5,-342.5 443.5,-342.5"/>
<text text-anchor="middle" x="489.5" y="-349.5" font-family="Helvetica,sans-Serif" font-size="10.00">eoAtMW_isr_cb</text>
</a>
</g>
</g>
<!-- Node9&#45;&gt;Node10 -->
<g id="edge13" class="edge">
<title>Node9&#45;&gt;Node10</title>
<path fill="none" stroke="midnightblue" d="M364.73,-323.54C395.09,-328.63 427.16,-334.75 451.04,-340.15"/>
<polygon fill="midnightblue" stroke="midnightblue" points="450.54,-343.63 461.07,-342.5 452.13,-336.81 450.54,-343.63"/>
</g>
<!-- Node11 -->
<g id="node11" class="node">
<title>Node11</title>
<g id="a_node11"><a xlink:href="../../d7/d3a/group___k_n_s___r_f.html#ga0b871589a9702968087c3cb5d42d3382" target="_top" xlink:title="This function powers on the LDO for the KNS_RF TX part.">
<polygon fill="white" stroke="black" points="431.5,-114.5 431.5,-133.5 547.5,-133.5 547.5,-114.5 431.5,-114.5"/>
<text text-anchor="middle" x="489.5" y="-121.5" font-family="Helvetica,sans-Serif" font-size="10.00">KNS_RFTX_powerOn</text>
</a>
</g>
</g>
<!-- Node9&#45;&gt;Node11 -->
<g id="edge18" class="edge">
<title>Node9&#45;&gt;Node11</title>
<path fill="none" stroke="midnightblue" d="M280.56,-304.3C297.16,-284.22 336.19,-236.53 367,-195 383.75,-172.43 379.67,-158.68 403,-143 408.68,-139.18 415.01,-136.12 421.58,-133.66"/>
<polygon fill="midnightblue" stroke="midnightblue" points="422.91,-136.91 431.33,-130.48 420.74,-130.25 422.91,-136.91"/>
</g>
<!-- Node12 -->
<g id="node12" class="node">
<title>Node12</title>
<g id="a_node12"><a xlink:href="../../d7/d3a/group___k_n_s___r_f.html#ga602a906128ed6586ef9de06a800aa52b" target="_top" xlink:title="This function loads the bitstream to send with the radio.">
<polygon fill="white" stroke="black" points="417.5,-304.5 417.5,-323.5 561.5,-323.5 561.5,-304.5 417.5,-304.5"/>
<text text-anchor="middle" x="489.5" y="-311.5" font-family="Helvetica,sans-Serif" font-size="10.00">KNS_RFTX_pushBitstream</text>
</a>
</g>
</g>
<!-- Node9&#45;&gt;Node12 -->
<g id="edge19" class="edge">
<title>Node9&#45;&gt;Node12</title>
<path fill="none" stroke="midnightblue" d="M367.24,-314C380.48,-314 393.99,-314 406.95,-314"/>
<polygon fill="midnightblue" stroke="midnightblue" points="407.22,-317.5 417.22,-314 407.22,-310.5 407.22,-317.5"/>
</g>
<!-- Node13 -->
<g id="node13" class="node">
<title>Node13</title>
<g id="a_node13"><a xlink:href="../../d7/d3a/group___k_n_s___r_f.html#ga34294206ef3097155fa358116d413a39" target="_top" xlink:title="This function fills the internal TX configuration structure for all TX RF parameters.">
<polygon fill="white" stroke="black" points="437.5,-266.5 437.5,-285.5 541.5,-285.5 541.5,-266.5 437.5,-266.5"/>
<text text-anchor="middle" x="489.5" y="-273.5" font-family="Helvetica,sans-Serif" font-size="10.00">KNS_RFTX_setCfg</text>
</a>
</g>
</g>
<!-- Node9&#45;&gt;Node13 -->
<g id="edge20" class="edge">
<title>Node9&#45;&gt;Node13</title>
<path fill="none" stroke="midnightblue" d="M326.73,-304.46C357.29,-299.08 395.56,-292.35 427.2,-286.78"/>
<polygon fill="midnightblue" stroke="midnightblue" points="427.98,-290.2 437.22,-285.02 426.77,-283.31 427.98,-290.2"/>
</g>
<!-- Node14 -->
<g id="node14" class="node">
<title>Node14</title>
<g id="a_node14"><a xlink:href="../../d7/d3a/group___k_n_s___r_f.html#ga8389adb73a411a65a9ae68a6ff0815a8" target="_top" xlink:title="This function starts the transmission immediately of the bitstream set into the tx buffer during the ...">
<polygon fill="white" stroke="black" points="415,-228.5 415,-247.5 564,-247.5 564,-228.5 415,-228.5"/>
<text text-anchor="middle" x="489.5" y="-235.5" font-family="Helvetica,sans-Serif" font-size="10.00">KNS_RFTX_startImmediate</text>
</a>
</g>
</g>
<!-- Node9&#45;&gt;Node14 -->
<g id="edge21" class="edge">
<title>Node9&#45;&gt;Node14</title>
<path fill="none" stroke="midnightblue" d="M291.5,-304.31C316.51,-291.88 362.1,-270.34 403,-257 411,-254.39 419.54,-252.02 428.01,-249.91"/>
<polygon fill="midnightblue" stroke="midnightblue" points="428.97,-253.28 437.88,-247.55 427.34,-246.47 428.97,-253.28"/>
</g>
<!-- Node15 -->
<g id="node15" class="node">
<title>Node15</title>
<g id="a_node15"><a xlink:href="../../d7/d3a/group___k_n_s___r_f.html#gaa259215b78a757967e3a30b5c30120df" target="_top" xlink:title="This function switch on the TCXO for the right time and callback is called when tcxo is considered re...">
<polygon fill="white" stroke="black" points="422,-190.5 422,-209.5 557,-209.5 557,-190.5 422,-190.5"/>
<text text-anchor="middle" x="489.5" y="-197.5" font-family="Helvetica,sans-Serif" font-size="10.00">KNS_RFTX_tcxoWarmup</text>
</a>
</g>
</g>
<!-- Node9&#45;&gt;Node15 -->
<g id="edge22" class="edge">
<title>Node9&#45;&gt;Node15</title>
<path fill="none" stroke="midnightblue" d="M282.71,-304.22C303.55,-284.83 353.19,-241.48 403,-219 408.64,-216.45 414.65,-214.24 420.76,-212.31"/>
<polygon fill="midnightblue" stroke="midnightblue" points="421.79,-215.66 430.42,-209.51 419.84,-208.93 421.79,-215.66"/>
</g>
<!-- Node16 -->
<g id="node16" class="node">
<title>Node16</title>
<g id="a_node16"><a xlink:href="../../d0/d0f/group___m_g_r___a_t___c_m_d.html#gafe57cb4db4c278d9f302a4d5b41e3025" target="_top" xlink:title="Log array of uint8_t.">
<polygon fill="white" stroke="black" points="441.5,-152.5 441.5,-171.5 537.5,-171.5 537.5,-152.5 441.5,-152.5"/>
<text text-anchor="middle" x="489.5" y="-159.5" font-family="Helvetica,sans-Serif" font-size="10.00">MGR_LOG_array</text>
</a>
</g>
</g>
<!-- Node9&#45;&gt;Node16 -->
<g id="edge23" class="edge">
<title>Node9&#45;&gt;Node16</title>
<path fill="none" stroke="midnightblue" d="M278.82,-304.46C295.74,-279.75 344.74,-213.34 403,-181 411.77,-176.13 421.71,-172.51 431.62,-169.81"/>
<polygon fill="midnightblue" stroke="midnightblue" points="432.59,-173.18 441.48,-167.42 430.93,-166.38 432.59,-173.18"/>
</g>
<!-- Node10&#45;&gt;Node7 -->
<g id="edge14" class="edge">
<title>Node10&#45;&gt;Node7</title>
<path fill="none" stroke="midnightblue" d="M535.89,-352C558.51,-352 586.33,-352 611.47,-352"/>
<polygon fill="midnightblue" stroke="midnightblue" points="611.69,-355.5 621.69,-352 611.69,-348.5 611.69,-355.5"/>
</g>
<!-- Node10&#45;&gt;Node9 -->
<g id="edge15" class="edge">
<title>Node10&#45;&gt;Node9</title>
<path fill="none" stroke="midnightblue" d="M443.11,-349.63C403.66,-344.31 347.19,-334.26 310.19,-325.9"/>
<polygon fill="midnightblue" stroke="midnightblue" points="310.83,-322.46 300.3,-323.59 309.24,-329.27 310.83,-322.46"/>
</g>
</g>
</svg>
        <g id="navigator" transform="translate(0 0)" fill="#404254">
                <rect fill="#f2f5e9" fill-opacity="0.5" stroke="#606060" stroke-width=".5" x="0" y="0" width="60" height="60"/>
                <use id="zoomplus" xlink:href="#zoomPlus" x="17" y="9" onmousedown="handleZoom(evt,'in')"/>
                <use id="zoomminus" xlink:href="#zoomMin" x="42" y="9" onmousedown="handleZoom(evt,'out')"/>
                <use id="reset" xlink:href="#resetDef" x="30" y="36" onmousedown="handleReset()"/>
                <g id="arrowUp" xlink:href="#dirArrow" transform="translate(30 24)" onmousedown="handlePan(0,-1)">
                  <use xlink:href="#rim" fill="#404040">
                        <set attributeName="fill" to="#808080" begin="arrowUp.mouseover" end="arrowUp.mouseout"/>
                  </use>
                  <path fill="none" stroke="white" stroke-width="1.5" d="M0,-3.0v7 M-2.5,-0.5L0,-3.0L2.5,-0.5"/>
                </g>
                <g id="arrowRight" xlink:href="#dirArrow" transform="rotate(90) translate(36 -43)" onmousedown="handlePan(1,0)">
                  <use xlink:href="#rim" fill="#404040">
                        <set attributeName="fill" to="#808080" begin="arrowRight.mouseover" end="arrowRight.mouseout"/>
                  </use>
                  <path fill="none" stroke="white" stroke-width="1.5" d="M0,-3.0v7 M-2.5,-0.5L0,-3.0L2.5,-0.5"/>
                </g>
                <g id="arrowDown" xlink:href="#dirArrow" transform="rotate(180) translate(-30 -48)" onmousedown="handlePan(0,1)">
                  <use xlink:href="#rim" fill="#404040">
                        <set attributeName="fill" to="#808080" begin="arrowDown.mouseover" end="arrowDown.mouseout"/>
                  </use>
                  <path fill="none" stroke="white" stroke-width="1.5" d="M0,-3.0v7 M-2.5,-0.5L0,-3.0L2.5,-0.5"/>
                </g>
                <g id="arrowLeft" xlink:href="#dirArrow" transform="rotate(270) translate(-36 17)" onmousedown="handlePan(-1,0)">
                  <use xlink:href="#rim" fill="#404040">
                        <set attributeName="fill" to="#808080" begin="arrowLeft.mouseover" end="arrowLeft.mouseout"/>
                  </use>
                  <path fill="none" stroke="white" stroke-width="1.5" d="M0,-3.0v7 M-2.5,-0.5L0,-3.0L2.5,-0.5"/>
                </g>
        </g>
        <svg viewBox="0 0 15 15" width="100%" height="30px" preserveAspectRatio="xMaxYMin meet">
         <g id="arrow_out" transform="scale(0.3 0.3)">
          <a xlink:href="group___m_g_r___a_t___c_m_d_gafccf5cd6468be2c39af4c4c599d48ef8_cgraph_org.svg" target="_base">
           <rect id="button" ry="5" rx="5" y="6" x="6" height="38" width="38"
                fill="#f2f5e9" fill-opacity="0.5" stroke="#606060" stroke-width="1.0"/>
           <path id="arrow"
             d="M 11.500037,31.436501 C 11.940474,20.09759 22.043105,11.32322 32.158766,21.979434 L 37.068811,17.246167 C 37.068811,17.246167 37.088388,32 37.088388,32 L 22.160133,31.978069 C 22.160133,31.978069 26.997745,27.140456 26.997745,27.140456 C 18.528582,18.264221 13.291696,25.230495 11.500037,31.436501 z"
             style="fill:#404040;"/>
          </a>
         </g>
        </svg>
</svg>
