<?xml version="1.0" encoding="UTF-8" standalone="no"?>
<!DOCTYPE svg PUBLIC "-//W3C//DTD SVG 1.1//EN"
 "http://www.w3.org/Graphics/SVG/1.1/DTD/svg11.dtd">
<!-- Generated by graphviz version 2.43.0 (0)
 -->
<!-- Title: bMGR_AT_CMD_PING_cmd Pages: 1 -->
<svg width="539pt" height="66pt"
 viewBox="0.00 0.00 539.00 66.00" xmlns="http://www.w3.org/2000/svg" xmlns:xlink="http://www.w3.org/1999/xlink">
<g id="graph0" class="graph" transform="scale(1 1) rotate(0) translate(4 62)">
<title>bMGR_AT_CMD_PING_cmd</title>
<polygon fill="white" stroke="transparent" points="-4,4 -4,-62 535,-62 535,4 -4,4"/>
<!-- Node1 -->
<g id="node1" class="node">
<title>Node1</title>
<g id="a_node1"><a xlink:title=" ">
<polygon fill="#bfbfbf" stroke="black" points="0,-19.5 0,-38.5 148,-38.5 148,-19.5 0,-19.5"/>
<text text-anchor="middle" x="74" y="-26.5" font-family="Helvetica,sans-Serif" font-size="10.00">bMGR_AT_CMD_PING_cmd</text>
</a>
</g>
</g>
<!-- Node2 -->
<g id="node2" class="node">
<title>Node2</title>
<g id="a_node2"><a xlink:href="../../d0/d0f/group___m_g_r___a_t___c_m_d.html#ga3d564aff9653e8bdc572d189093f1acc" target="_top" xlink:title="Log in debug interface a failed message.">
<polygon fill="white" stroke="black" points="189.5,-38.5 189.5,-57.5 351.5,-57.5 351.5,-38.5 189.5,-38.5"/>
<text text-anchor="middle" x="270.5" y="-45.5" font-family="Helvetica,sans-Serif" font-size="10.00">bMGR_AT_CMD_logFailedMsg</text>
</a>
</g>
</g>
<!-- Node1&#45;&gt;Node2 -->
<g id="edge1" class="edge">
<title>Node1&#45;&gt;Node2</title>
<path fill="none" stroke="midnightblue" d="M148.25,-36.16C158.46,-37.15 169.03,-38.19 179.5,-39.21"/>
<polygon fill="midnightblue" stroke="midnightblue" points="179.18,-42.69 189.48,-40.18 179.87,-35.73 179.18,-42.69"/>
</g>
<!-- Node4 -->
<g id="node4" class="node">
<title>Node4</title>
<g id="a_node4"><a xlink:href="../../d0/d0f/group___m_g_r___a_t___c_m_d.html#gabef580da46cf82ca74ba3e5217cf3ffa" target="_top" xlink:title=": Log in debug interface a succeed message">
<polygon fill="white" stroke="black" points="184,-0.5 184,-19.5 357,-19.5 357,-0.5 184,-0.5"/>
<text text-anchor="middle" x="270.5" y="-7.5" font-family="Helvetica,sans-Serif" font-size="10.00">bMGR_AT_CMD_logSucceedMsg</text>
</a>
</g>
</g>
<!-- Node1&#45;&gt;Node4 -->
<g id="edge3" class="edge">
<title>Node1&#45;&gt;Node4</title>
<path fill="none" stroke="midnightblue" d="M148.25,-21.84C156.61,-21.03 165.23,-20.19 173.82,-19.35"/>
<polygon fill="midnightblue" stroke="midnightblue" points="174.27,-22.82 183.89,-18.36 173.59,-15.85 174.27,-22.82"/>
</g>
<!-- Node3 -->
<g id="node3" class="node">
<title>Node3</title>
<g id="a_node3"><a xlink:href="../../d8/d62/group___m_c_u___a_p_p___w_r_a_p_p_e_r_s.html#gae14ee3e1d2a9b459c0d89c451a4bc470" target="_top" xlink:title="Send AT CMD response to console.">
<polygon fill="white" stroke="black" points="393,-19.5 393,-38.5 531,-38.5 531,-19.5 393,-19.5"/>
<text text-anchor="middle" x="462" y="-26.5" font-family="Helvetica,sans-Serif" font-size="10.00">MCU_AT_CONSOLE_send</text>
</a>
</g>
</g>
<!-- Node2&#45;&gt;Node3 -->
<g id="edge2" class="edge">
<title>Node2&#45;&gt;Node3</title>
<path fill="none" stroke="midnightblue" d="M351.59,-39.97C361.89,-38.94 372.43,-37.88 382.71,-36.85"/>
<polygon fill="midnightblue" stroke="midnightblue" points="383.27,-40.31 392.87,-35.83 382.58,-33.35 383.27,-40.31"/>
</g>
<!-- Node4&#45;&gt;Node3 -->
<g id="edge4" class="edge">
<title>Node4&#45;&gt;Node3</title>
<path fill="none" stroke="midnightblue" d="M357.1,-18.58C365.61,-19.44 374.22,-20.3 382.64,-21.14"/>
<polygon fill="midnightblue" stroke="midnightblue" points="382.52,-24.65 392.82,-22.16 383.22,-17.68 382.52,-24.65"/>
</g>
</g>
</svg>
