<?xml version="1.0" encoding="UTF-8" standalone="no"?>
<!DOCTYPE svg PUBLIC "-//W3C//DTD SVG 1.1//EN"
 "http://www.w3.org/Graphics/SVG/1.1/DTD/svg11.dtd">
<!-- Generated by graphviz version 2.43.0 (0)
 -->
<!-- Title: bMGR_AT_CMD_logFailedMsg Pages: 1 -->
<svg width="650pt" height="648pt"
 viewBox="0.00 0.00 650.00 648.00" xmlns="http://www.w3.org/2000/svg" xmlns:xlink="http://www.w3.org/1999/xlink">
<g id="graph0" class="graph" transform="scale(1 1) rotate(0) translate(4 644)">
<title>bMGR_AT_CMD_logFailedMsg</title>
<polygon fill="white" stroke="transparent" points="-4,4 -4,-644 646,-644 646,4 -4,4"/>
<!-- Node1 -->
<g id="node1" class="node">
<title>Node1</title>
<g id="a_node1"><a xlink:title="Log in debug interface a failed message.">
<polygon fill="#bfbfbf" stroke="black" points="480,-316.5 480,-335.5 642,-335.5 642,-316.5 480,-316.5"/>
<text text-anchor="middle" x="561" y="-323.5" font-family="Helvetica,sans-Serif" font-size="10.00">bMGR_AT_CMD_logFailedMsg</text>
</a>
</g>
</g>
<!-- Node2 -->
<g id="node2" class="node">
<title>Node2</title>
<g id="a_node2"><a xlink:href="../../d0/d0f/group___m_g_r___a_t___c_m_d.html#ga204fad5fbc19a59d6c9a498aad156fc5" target="_top" xlink:title=" ">
<polygon fill="white" stroke="black" points="272.5,-620.5 272.5,-639.5 424.5,-639.5 424.5,-620.5 272.5,-620.5"/>
<text text-anchor="middle" x="348.5" y="-627.5" font-family="Helvetica,sans-Serif" font-size="10.00">bMGR_AT_CMD_ADDR_cmd</text>
</a>
</g>
</g>
<!-- Node1&#45;&gt;Node2 -->
<g id="edge1" class="edge">
<title>Node1&#45;&gt;Node2</title>
<path fill="none" stroke="midnightblue" d="M557.83,-345.81C551.11,-397.09 525.93,-535.09 444,-606 436.7,-612.31 427.97,-617.01 418.81,-620.49"/>
<polygon fill="midnightblue" stroke="midnightblue" points="561.32,-346.08 559.05,-335.73 554.37,-345.24 561.32,-346.08"/>
</g>
<!-- Node3 -->
<g id="node3" class="node">
<title>Node3</title>
<g id="a_node3"><a xlink:href="../../d0/d0f/group___m_g_r___a_t___c_m_d.html#gafccf5cd6468be2c39af4c4c599d48ef8" target="_top" xlink:title="Process AT command &quot;AT+CW&quot;.">
<polygon fill="white" stroke="black" points="77,-38.5 77,-57.5 217,-57.5 217,-38.5 77,-38.5"/>
<text text-anchor="middle" x="147" y="-45.5" font-family="Helvetica,sans-Serif" font-size="10.00">bMGR_AT_CMD_CW_cmd</text>
</a>
</g>
</g>
<!-- Node1&#45;&gt;Node3 -->
<g id="edge2" class="edge">
<title>Node1&#45;&gt;Node3</title>
<path fill="none" stroke="midnightblue" d="M557.9,-306.14C551.45,-256.07 526.98,-124.61 444,-67 408.63,-42.44 293.13,-41.86 217.31,-44.41"/>
<polygon fill="midnightblue" stroke="midnightblue" points="554.45,-306.76 559.1,-316.28 561.4,-305.94 554.45,-306.76"/>
</g>
<!-- Node4 -->
<g id="node4" class="node">
<title>Node4</title>
<g id="a_node4"><a xlink:href="../../d0/d0f/group___m_g_r___a_t___c_m_d.html#gaaa6dc2a43b7e21084f52c8591674d534" target="_top" xlink:title=" ">
<polygon fill="white" stroke="black" points="278.5,-544.5 278.5,-563.5 418.5,-563.5 418.5,-544.5 278.5,-544.5"/>
<text text-anchor="middle" x="348.5" y="-551.5" font-family="Helvetica,sans-Serif" font-size="10.00">bMGR_AT_CMD_FW_cmd</text>
</a>
</g>
</g>
<!-- Node1&#45;&gt;Node4 -->
<g id="edge3" class="edge">
<title>Node1&#45;&gt;Node4</title>
<path fill="none" stroke="midnightblue" d="M555.1,-345.68C543.54,-387.72 510.43,-486.44 444,-535 436.43,-540.53 427.66,-544.55 418.56,-547.46"/>
<polygon fill="midnightblue" stroke="midnightblue" points="558.53,-346.4 557.69,-335.84 551.76,-344.62 558.53,-346.4"/>
</g>
<!-- Node5 -->
<g id="node5" class="node">
<title>Node5</title>
<g id="a_node5"><a xlink:href="../../d0/d0f/group___m_g_r___a_t___c_m_d.html#gaaa9bdf10c9ac69ef778eea22f8225343" target="_top" xlink:title="Handle new TX data, this is the core function of AT+TX cmd.">
<polygon fill="white" stroke="black" points="254.5,-506.5 254.5,-525.5 442.5,-525.5 442.5,-506.5 254.5,-506.5"/>
<text text-anchor="middle" x="348.5" y="-513.5" font-family="Helvetica,sans-Serif" font-size="10.00">bMGR_AT_CMD_handleNewTxData</text>
</a>
</g>
</g>
<!-- Node1&#45;&gt;Node5 -->
<g id="edge4" class="edge">
<title>Node1&#45;&gt;Node5</title>
<path fill="none" stroke="midnightblue" d="M552.85,-345.03C538.29,-380.98 501.65,-458.69 444,-497 438.29,-500.8 431.98,-503.87 425.41,-506.34"/>
<polygon fill="midnightblue" stroke="midnightblue" points="556.12,-346.28 556.51,-335.69 549.6,-343.72 556.12,-346.28"/>
</g>
<!-- Node6 -->
<g id="node6" class="node">
<title>Node6</title>
<g id="a_node6"><a xlink:href="../../d0/d0f/group___m_g_r___a_t___c_m_d.html#ga0a4332fc4f8bad99c421588fe542a2bd" target="_top" xlink:title="Process AT command &quot;AT+TX&quot; send user data.">
<polygon fill="white" stroke="black" points="78.5,-544.5 78.5,-563.5 215.5,-563.5 215.5,-544.5 78.5,-544.5"/>
<text text-anchor="middle" x="147" y="-551.5" font-family="Helvetica,sans-Serif" font-size="10.00">bMGR_AT_CMD_TX_cmd</text>
</a>
</g>
</g>
<!-- Node1&#45;&gt;Node6 -->
<g id="edge14" class="edge">
<title>Node1&#45;&gt;Node6</title>
<path fill="none" stroke="midnightblue" d="M557.7,-345.92C550.84,-394.94 525.64,-521.15 444,-573 356.19,-628.77 222.66,-584.7 170.23,-563.62"/>
<polygon fill="midnightblue" stroke="midnightblue" points="561.21,-346.07 559.01,-335.7 554.27,-345.17 561.21,-346.07"/>
</g>
<!-- Node7 -->
<g id="node7" class="node">
<title>Node7</title>
<g id="a_node7"><a xlink:href="../../d0/d0f/group___m_g_r___a_t___c_m_d.html#gaf81cad313cfb0badce0d5d0af319fbdc" target="_top" xlink:title=" ">
<polygon fill="white" stroke="black" points="281.5,-430.5 281.5,-449.5 415.5,-449.5 415.5,-430.5 281.5,-430.5"/>
<text text-anchor="middle" x="348.5" y="-437.5" font-family="Helvetica,sans-Serif" font-size="10.00">bMGR_AT_CMD_ID_cmd</text>
</a>
</g>
</g>
<!-- Node1&#45;&gt;Node7 -->
<g id="edge6" class="edge">
<title>Node1&#45;&gt;Node7</title>
<path fill="none" stroke="midnightblue" d="M544.45,-343.11C523.72,-364.78 484.89,-401.64 444,-421 435.15,-425.19 425.41,-428.46 415.65,-431.01"/>
<polygon fill="midnightblue" stroke="midnightblue" points="547.19,-345.3 551.47,-335.61 542.08,-340.51 547.19,-345.3"/>
</g>
<!-- Node8 -->
<g id="node8" class="node">
<title>Node8</title>
<g id="a_node8"><a xlink:href="../../d0/d0f/group___m_g_r___a_t___c_m_d.html#gacc6b6479b50b0c5aed24b2e62448bde0" target="_top" xlink:title="Process AT command &quot;AT+KMAC&quot; get/set the Kineis MAC profile.">
<polygon fill="white" stroke="black" points="272,-392.5 272,-411.5 425,-411.5 425,-392.5 272,-392.5"/>
<text text-anchor="middle" x="348.5" y="-399.5" font-family="Helvetica,sans-Serif" font-size="10.00">bMGR_AT_CMD_KMAC_cmd</text>
</a>
</g>
</g>
<!-- Node1&#45;&gt;Node8 -->
<g id="edge7" class="edge">
<title>Node1&#45;&gt;Node8</title>
<path fill="none" stroke="midnightblue" d="M534.93,-340.69C511.96,-353.56 476.68,-371.9 444,-383 432.91,-386.77 420.82,-389.9 409.1,-392.45"/>
<polygon fill="midnightblue" stroke="midnightblue" points="536.71,-343.7 543.68,-335.71 533.25,-337.61 536.71,-343.7"/>
</g>
<!-- Node9 -->
<g id="node9" class="node">
<title>Node9</title>
<g id="a_node9"><a xlink:href="../../d0/d0f/group___m_g_r___a_t___c_m_d.html#gaed4723249aba7dbe8e17c74eed648f4b" target="_top" xlink:title=" ">
<polygon fill="white" stroke="black" points="276.5,-354.5 276.5,-373.5 420.5,-373.5 420.5,-354.5 276.5,-354.5"/>
<text text-anchor="middle" x="348.5" y="-361.5" font-family="Helvetica,sans-Serif" font-size="10.00">bMGR_AT_CMD_LPM_cmd</text>
</a>
</g>
</g>
<!-- Node1&#45;&gt;Node9 -->
<g id="edge8" class="edge">
<title>Node1&#45;&gt;Node9</title>
<path fill="none" stroke="midnightblue" d="M497.14,-337.35C466.94,-342.8 431.15,-349.26 402.37,-354.46"/>
<polygon fill="midnightblue" stroke="midnightblue" points="497.93,-340.76 507.15,-335.54 496.69,-333.87 497.93,-340.76"/>
</g>
<!-- Node10 -->
<g id="node10" class="node">
<title>Node10</title>
<g id="a_node10"><a xlink:href="../../d0/d0f/group___m_g_r___a_t___c_m_d.html#gad504c930c0c0222576334c21940e245e" target="_top" xlink:title=" ">
<polygon fill="white" stroke="black" points="274.5,-316.5 274.5,-335.5 422.5,-335.5 422.5,-316.5 274.5,-316.5"/>
<text text-anchor="middle" x="348.5" y="-323.5" font-family="Helvetica,sans-Serif" font-size="10.00">bMGR_AT_CMD_PING_cmd</text>
</a>
</g>
</g>
<!-- Node1&#45;&gt;Node10 -->
<g id="edge9" class="edge">
<title>Node1&#45;&gt;Node10</title>
<path fill="none" stroke="midnightblue" d="M469.58,-326C453.87,-326 437.72,-326 422.55,-326"/>
<polygon fill="midnightblue" stroke="midnightblue" points="469.82,-329.5 479.82,-326 469.82,-322.5 469.82,-329.5"/>
</g>
<!-- Node11 -->
<g id="node11" class="node">
<title>Node11</title>
<g id="a_node11"><a xlink:href="../../d0/d0f/group___m_g_r___a_t___c_m_d.html#gafa3e80f7aedfa74c8d16d0202a3f4f07" target="_top" xlink:title="Process AT command &quot;AT+PREPASS_EN&quot; Enabling/disabling PREVIPASS (sat pass prediction) computation,...">
<polygon fill="white" stroke="black" points="278,-267 278,-297 419,-297 419,-267 278,-267"/>
<text text-anchor="start" x="286" y="-285" font-family="Helvetica,sans-Serif" font-size="10.00">bMGR_AT_CMD_PREPASS</text>
<text text-anchor="middle" x="348.5" y="-274" font-family="Helvetica,sans-Serif" font-size="10.00">_EN_cmd</text>
</a>
</g>
</g>
<!-- Node1&#45;&gt;Node11 -->
<g id="edge10" class="edge">
<title>Node1&#45;&gt;Node11</title>
<path fill="none" stroke="midnightblue" d="M504.23,-314.34C478.12,-308.89 446.76,-302.33 419.11,-296.55"/>
<polygon fill="midnightblue" stroke="midnightblue" points="503.82,-317.83 514.32,-316.45 505.25,-310.98 503.82,-317.83"/>
</g>
<!-- Node12 -->
<g id="node12" class="node">
<title>Node12</title>
<g id="a_node12"><a xlink:href="../../d0/d0f/group___m_g_r___a_t___c_m_d.html#gaf2dc4b8c03924fc01641182032c31ba5" target="_top" xlink:title=" ">
<polygon fill="white" stroke="black" points="269.5,-228.5 269.5,-247.5 427.5,-247.5 427.5,-228.5 269.5,-228.5"/>
<text text-anchor="middle" x="348.5" y="-235.5" font-family="Helvetica,sans-Serif" font-size="10.00">bMGR_AT_CMD_RCONF_cmd</text>
</a>
</g>
</g>
<!-- Node1&#45;&gt;Node12 -->
<g id="edge11" class="edge">
<title>Node1&#45;&gt;Node12</title>
<path fill="none" stroke="midnightblue" d="M538.78,-310.36C516.34,-294.56 479.36,-270.62 444,-257 434.01,-253.15 423.1,-250.04 412.37,-247.54"/>
<polygon fill="midnightblue" stroke="midnightblue" points="537.01,-313.4 547.18,-316.37 541.09,-307.71 537.01,-313.4"/>
</g>
<!-- Node13 -->
<g id="node13" class="node">
<title>Node13</title>
<g id="a_node13"><a xlink:href="../../d0/d0f/group___m_g_r___a_t___c_m_d.html#ga02e2a055602cf05cffff4e57ef414e50" target="_top" xlink:title=" ">
<polygon fill="white" stroke="black" points="253.5,-190.5 253.5,-209.5 443.5,-209.5 443.5,-190.5 253.5,-190.5"/>
<text text-anchor="middle" x="348.5" y="-197.5" font-family="Helvetica,sans-Serif" font-size="10.00">bMGR_AT_CMD_SAVE_RCONF_cmd</text>
</a>
</g>
</g>
<!-- Node1&#45;&gt;Node13 -->
<g id="edge12" class="edge">
<title>Node1&#45;&gt;Node13</title>
<path fill="none" stroke="midnightblue" d="M546.4,-308.48C526.61,-284.3 487.47,-241.18 444,-219 436.4,-215.12 428.07,-212.03 419.62,-209.58"/>
<polygon fill="midnightblue" stroke="midnightblue" points="543.8,-310.84 552.78,-316.45 549.27,-306.46 543.8,-310.84"/>
</g>
<!-- Node14 -->
<g id="node14" class="node">
<title>Node14</title>
<g id="a_node14"><a xlink:href="../../d0/d0f/group___m_g_r___a_t___c_m_d.html#ga35554beb51f6f25a760a6d2bb76f7ee8" target="_top" xlink:title=" ">
<polygon fill="white" stroke="black" points="280,-152.5 280,-171.5 417,-171.5 417,-152.5 280,-152.5"/>
<text text-anchor="middle" x="348.5" y="-159.5" font-family="Helvetica,sans-Serif" font-size="10.00">bMGR_AT_CMD_SN_cmd</text>
</a>
</g>
</g>
<!-- Node1&#45;&gt;Node14 -->
<g id="edge13" class="edge">
<title>Node1&#45;&gt;Node14</title>
<path fill="none" stroke="midnightblue" d="M550.67,-307.26C533.93,-275.74 495.67,-212.48 444,-181 435.85,-176.04 426.65,-172.34 417.26,-169.6"/>
<polygon fill="midnightblue" stroke="midnightblue" points="547.64,-309.02 555.33,-316.3 553.85,-305.81 547.64,-309.02"/>
</g>
<!-- Node15 -->
<g id="node15" class="node">
<title>Node15</title>
<g id="a_node15"><a xlink:href="../../d0/d0f/group___m_g_r___a_t___c_m_d.html#gafa261eed6f61302c724f74b963bae320" target="_top" xlink:title=" ">
<polygon fill="white" stroke="black" points="265,-114.5 265,-133.5 432,-133.5 432,-114.5 265,-114.5"/>
<text text-anchor="middle" x="348.5" y="-121.5" font-family="Helvetica,sans-Serif" font-size="10.00">bMGR_AT_CMD_VERSION_cmd</text>
</a>
</g>
</g>
<!-- Node1&#45;&gt;Node15 -->
<g id="edge15" class="edge">
<title>Node1&#45;&gt;Node15</title>
<path fill="none" stroke="midnightblue" d="M553.44,-306.19C539.7,-268 504.1,-184.3 444,-143 438.48,-139.21 432.38,-136.14 426.02,-133.66"/>
<polygon fill="midnightblue" stroke="midnightblue" points="550.29,-307.79 556.87,-316.09 556.9,-305.49 550.29,-307.79"/>
</g>
<!-- Node16 -->
<g id="node16" class="node">
<title>Node16</title>
<g id="a_node16"><a xlink:href="../../d0/d0f/group___m_g_r___a_t___c_m_d.html#ga9cef55cf869d8f8c3eaf6a49ca61b5d2" target="_top" xlink:title="Decode and exectue AT cmd if valid.">
<polygon fill="white" stroke="black" points="280,-76.5 280,-95.5 417,-95.5 417,-76.5 280,-76.5"/>
<text text-anchor="middle" x="348.5" y="-83.5" font-family="Helvetica,sans-Serif" font-size="10.00">MGR_AT_CMD_decodeAt</text>
</a>
</g>
</g>
<!-- Node1&#45;&gt;Node16 -->
<g id="edge16" class="edge">
<title>Node1&#45;&gt;Node16</title>
<path fill="none" stroke="midnightblue" d="M555.67,-306.11C545.03,-262.22 513.23,-156.86 444,-105 436.1,-99.08 426.82,-94.88 417.22,-91.92"/>
<polygon fill="midnightblue" stroke="midnightblue" points="552.32,-307.15 557.98,-316.1 559.14,-305.57 552.32,-307.15"/>
</g>
<!-- Node19 -->
<g id="node19" class="node">
<title>Node19</title>
<g id="a_node19"><a xlink:href="../../d0/d0f/group___m_g_r___a_t___c_m_d.html#ga1a39b3c9cd76d50537a8bc42087ed46f" target="_top" xlink:title="Fct used to retreive and process event coming from kineis stack as answers to AT commands.">
<polygon fill="white" stroke="black" points="265.5,-468.5 265.5,-487.5 431.5,-487.5 431.5,-468.5 265.5,-468.5"/>
<text text-anchor="middle" x="348.5" y="-475.5" font-family="Helvetica,sans-Serif" font-size="10.00">MGR_AT_CMD_macEvtProcess</text>
</a>
</g>
</g>
<!-- Node1&#45;&gt;Node19 -->
<g id="edge19" class="edge">
<title>Node1&#45;&gt;Node19</title>
<path fill="none" stroke="midnightblue" d="M549.52,-344.41C531.8,-373.71 493.04,-430.53 444,-459 437.34,-462.86 430.03,-465.95 422.5,-468.42"/>
<polygon fill="midnightblue" stroke="midnightblue" points="552.64,-346 554.7,-335.61 546.61,-342.45 552.64,-346"/>
</g>
<!-- Node20 -->
<g id="node20" class="node">
<title>Node20</title>
<g id="a_node20"><a xlink:href="../../d0/d0f/group___m_g_r___a_t___c_m_d.html#ga60486b23c6850d01bbb1e29875cd24f4" target="_top" xlink:title="Send random TX data as per RF configuration.">
<polygon fill="white" stroke="black" points="253,-0.5 253,-19.5 444,-19.5 444,-0.5 253,-0.5"/>
<text text-anchor="middle" x="348.5" y="-7.5" font-family="Helvetica,sans-Serif" font-size="10.00">MGR_AT_CMD_sendRandomTxData</text>
</a>
</g>
</g>
<!-- Node1&#45;&gt;Node20 -->
<g id="edge21" class="edge">
<title>Node1&#45;&gt;Node20</title>
<path fill="none" stroke="midnightblue" d="M558.23,-306.41C552.39,-253.85 528.96,-108.62 444,-34 436.88,-27.74 428.35,-23.08 419.37,-19.6"/>
<polygon fill="midnightblue" stroke="midnightblue" points="554.75,-306.83 559.25,-316.42 561.71,-306.12 554.75,-306.83"/>
</g>
<!-- Node5&#45;&gt;Node6 -->
<g id="edge5" class="edge">
<title>Node5&#45;&gt;Node6</title>
<path fill="none" stroke="midnightblue" d="M287.55,-527.42C259.01,-532.86 225.26,-539.28 198.11,-544.46"/>
<polygon fill="midnightblue" stroke="midnightblue" points="288.25,-530.85 297.42,-525.54 286.94,-523.97 288.25,-530.85"/>
</g>
<!-- Node17 -->
<g id="node17" class="node">
<title>Node17</title>
<g id="a_node17"><a xlink:href="../../dd/d41/group___k_n_s___a_p_p.html#ga06543de003a98e82570c572ce5e1240c" target="_top" xlink:title="This fct is the application expected to run in front of the GUI.">
<polygon fill="white" stroke="black" points="93.5,-272.5 93.5,-291.5 200.5,-291.5 200.5,-272.5 93.5,-272.5"/>
<text text-anchor="middle" x="147" y="-279.5" font-family="Helvetica,sans-Serif" font-size="10.00">KNS_APP_gui_loop</text>
</a>
</g>
</g>
<!-- Node16&#45;&gt;Node17 -->
<g id="edge17" class="edge">
<title>Node16&#45;&gt;Node17</title>
<path fill="none" stroke="midnightblue" d="M269.94,-95.85C263.94,-98.31 258.2,-101.32 253,-105 190.92,-149.03 159.46,-242.32 150.64,-272.42"/>
<polygon fill="midnightblue" stroke="midnightblue" points="271.31,-99.08 279.56,-92.44 268.97,-92.49 271.31,-99.08"/>
</g>
<!-- Node18 -->
<g id="node18" class="node">
<title>Node18</title>
<g id="a_node18"><a xlink:href="../../d0/d29/main_8c.html#a840291bc02cba5474a4cb46a9b9566fe" target="_top" xlink:title="The application entry point.">
<polygon fill="white" stroke="black" points="0,-272.5 0,-291.5 41,-291.5 41,-272.5 0,-272.5"/>
<text text-anchor="middle" x="20.5" y="-279.5" font-family="Helvetica,sans-Serif" font-size="10.00">main</text>
</a>
</g>
</g>
<!-- Node17&#45;&gt;Node18 -->
<g id="edge18" class="edge">
<title>Node17&#45;&gt;Node18</title>
<path fill="none" stroke="midnightblue" d="M83.2,-282C67.93,-282 52.7,-282 41.2,-282"/>
<polygon fill="midnightblue" stroke="midnightblue" points="83.2,-285.5 93.2,-282 83.2,-278.5 83.2,-285.5"/>
</g>
<!-- Node19&#45;&gt;Node17 -->
<g id="edge20" class="edge">
<title>Node19&#45;&gt;Node17</title>
<path fill="none" stroke="midnightblue" d="M261.1,-464C258.29,-462.49 255.58,-460.83 253,-459 190.92,-414.97 159.46,-321.68 150.64,-291.58"/>
<polygon fill="midnightblue" stroke="midnightblue" points="259.84,-467.28 270.39,-468.33 262.8,-460.93 259.84,-467.28"/>
</g>
<!-- Node20&#45;&gt;Node3 -->
<g id="edge22" class="edge">
<title>Node20&#45;&gt;Node3</title>
<path fill="none" stroke="midnightblue" d="M287.55,-21.42C259.01,-26.86 225.26,-33.28 198.11,-38.46"/>
<polygon fill="midnightblue" stroke="midnightblue" points="288.25,-24.85 297.42,-19.54 286.94,-17.97 288.25,-24.85"/>
</g>
<!-- Node21 -->
<g id="node21" class="node">
<title>Node21</title>
<g id="a_node21"><a xlink:href="../../d0/d0f/group___m_g_r___a_t___c_m_d.html#gafccb1dfaf28ab371bebd814a3abaa57c" target="_top" xlink:title="Callback function notifying end of TX processing in case of modulated wave.">
<polygon fill="white" stroke="black" points="101,-0.5 101,-19.5 193,-19.5 193,-0.5 101,-0.5"/>
<text text-anchor="middle" x="147" y="-7.5" font-family="Helvetica,sans-Serif" font-size="10.00">eoAtMW_isr_cb</text>
</a>
</g>
</g>
<!-- Node20&#45;&gt;Node21 -->
<g id="edge23" class="edge">
<title>Node20&#45;&gt;Node21</title>
<path fill="none" stroke="midnightblue" d="M242.47,-3.26C225.07,-3.31 207.89,-3.64 193.05,-4.25"/>
<polygon fill="midnightblue" stroke="midnightblue" points="242.72,-6.76 252.72,-3.26 242.72,0.24 242.72,-6.76"/>
</g>
<!-- Node21&#45;&gt;Node20 -->
<g id="edge24" class="edge">
<title>Node21&#45;&gt;Node20</title>
<path fill="none" stroke="midnightblue" d="M203.37,-16.12C218.71,-16.58 235.81,-16.79 252.72,-16.74"/>
<polygon fill="midnightblue" stroke="midnightblue" points="203.17,-12.61 193.05,-15.75 202.92,-19.6 203.17,-12.61"/>
</g>
</g>
</svg>
