<?xml version="1.0" encoding="UTF-8" standalone="no"?>
<!DOCTYPE svg PUBLIC "-//W3C//DTD SVG 1.1//EN"
 "http://www.w3.org/Graphics/SVG/1.1/DTD/svg11.dtd">
<!-- Generated by graphviz version 2.43.0 (0)
 -->
<!-- Title: MGR_AT_CMD_macEvtProcess Pages: 1 -->
<!--zoomable 332 -->
<svg id="main" version="1.1" xmlns="http://www.w3.org/2000/svg" xmlns:xlink="http://www.w3.org/1999/xlink" xml:space="preserve" onload="init(evt)">
<style type="text/css"><![CDATA[
.edge:hover path { stroke: red; }
.edge:hover polygon { stroke: red; fill: red; }
]]></style>
<script type="text/javascript"><![CDATA[
var edges = document.getElementsByTagName('g');
if (edges && edges.length) {
  for (var i=0;i<edges.length;i++) {
    if (edges[i].id.substr(0,4)=='edge') {
      edges[i].setAttribute('class','edge');
    }
  }
}
]]></script>
        <defs>
                <circle id="rim" cx="0" cy="0" r="7"/>
                <circle id="rim2" cx="0" cy="0" r="3.5"/>
                <g id="zoomPlus">
                        <use xlink:href="#rim" fill="#404040">
                                <set attributeName="fill" to="#808080" begin="zoomplus.mouseover" end="zoomplus.mouseout"/>
                        </use>
                        <path d="M-4,0h8M0,-4v8" fill="none" stroke="white" stroke-width="1.5" pointer-events="none"/>
                </g>
                <g id="zoomMin">
                        <use xlink:href="#rim" fill="#404040">
                                <set attributeName="fill" to="#808080" begin="zoomminus.mouseover" end="zoomminus.mouseout"/>
                        </use>
                        <path d="M-4,0h8" fill="none" stroke="white" stroke-width="1.5" pointer-events="none"/>
                </g>
                <g id="dirArrow">
                        <path fill="none" stroke="white" stroke-width="1.5" d="M0,-3.0v7 M-2.5,-0.5L0,-3.0L2.5,-0.5"/>
                </g>
               <g id="resetDef">
                       <use xlink:href="#rim2" fill="#404040">
                               <set attributeName="fill" to="#808080" begin="reset.mouseover" end="reset.mouseout"/>
                       </use>
               </g>
        </defs>

<script type="text/javascript">
var viewWidth = 761;
var viewHeight = 332;
var sectionId = 'dynsection-30';
</script>
<script xlink:href="../../svgpan.js"/>
<svg id="graph" class="graph">
<g id="viewport">
<title>MGR_AT_CMD_macEvtProcess</title>
<polygon fill="white" stroke="transparent" points="-4,4 -4,-328 757,-328 757,4 -4,4"/>
<!-- Node1 -->
<g id="node1" class="node">
<title>Node1</title>
<g id="a_node1"><a xlink:title="Fct used to retreive and process event coming from kineis stack as answers to AT commands.">
<polygon fill="#bfbfbf" stroke="black" points="0,-171.5 0,-190.5 166,-190.5 166,-171.5 0,-171.5"/>
<text text-anchor="middle" x="83" y="-178.5" font-family="Helvetica,sans-Serif" font-size="10.00">MGR_AT_CMD_macEvtProcess</text>
</a>
</g>
</g>
<!-- Node2 -->
<g id="node2" class="node">
<title>Node2</title>
<g id="a_node2"><a xlink:href="../../d0/d0f/group___m_g_r___a_t___c_m_d.html#ga3d564aff9653e8bdc572d189093f1acc" target="_top" xlink:title="Log in debug interface a failed message.">
<polygon fill="white" stroke="black" points="411.5,-304.5 411.5,-323.5 573.5,-323.5 573.5,-304.5 411.5,-304.5"/>
<text text-anchor="middle" x="492.5" y="-311.5" font-family="Helvetica,sans-Serif" font-size="10.00">bMGR_AT_CMD_logFailedMsg</text>
</a>
</g>
</g>
<!-- Node1&#45;&gt;Node2 -->
<g id="edge1" class="edge">
<title>Node1&#45;&gt;Node2</title>
<path fill="none" stroke="midnightblue" d="M91.59,-190.73C108.69,-211.81 152.57,-261.53 202,-283 264.89,-310.32 342.42,-317.39 401.41,-318"/>
<polygon fill="midnightblue" stroke="midnightblue" points="401.44,-321.5 411.46,-318.04 401.48,-314.5 401.44,-321.5"/>
</g>
<!-- Node4 -->
<g id="node4" class="node">
<title>Node4</title>
<g id="a_node4"><a xlink:href="../../d0/d0f/group___m_g_r___a_t___c_m_d.html#gabef580da46cf82ca74ba3e5217cf3ffa" target="_top" xlink:title=": Log in debug interface a succeed message">
<polygon fill="white" stroke="black" points="406,-266.5 406,-285.5 579,-285.5 579,-266.5 406,-266.5"/>
<text text-anchor="middle" x="492.5" y="-273.5" font-family="Helvetica,sans-Serif" font-size="10.00">bMGR_AT_CMD_logSucceedMsg</text>
</a>
</g>
</g>
<!-- Node1&#45;&gt;Node4 -->
<g id="edge3" class="edge">
<title>Node1&#45;&gt;Node4</title>
<path fill="none" stroke="midnightblue" d="M94.72,-190.66C114.33,-207.65 158.04,-242.49 202,-257 264.27,-277.56 338.07,-282.12 395.57,-281.64"/>
<polygon fill="midnightblue" stroke="midnightblue" points="395.8,-285.14 405.75,-281.5 395.7,-278.14 395.8,-285.14"/>
</g>
<!-- Node5 -->
<g id="node5" class="node">
<title>Node5</title>
<g id="a_node5"><a xlink:href="../../d0/d0f/group___m_g_r___a_t___c_m_d.html#gae5c3c3791220ed4687558e8681648a0d" target="_top" xlink:title=": This function writes in UART the response of specific command">
<polygon fill="white" stroke="black" points="202,-228.5 202,-247.5 370,-247.5 370,-228.5 202,-228.5"/>
<text text-anchor="middle" x="286" y="-235.5" font-family="Helvetica,sans-Serif" font-size="10.00">bMGR_AT_CMD_sendResponse</text>
</a>
</g>
</g>
<!-- Node1&#45;&gt;Node5 -->
<g id="edge5" class="edge">
<title>Node1&#45;&gt;Node5</title>
<path fill="none" stroke="midnightblue" d="M111.45,-190.59C135.24,-198.71 170.66,-210.39 202,-219 211,-221.47 220.61,-223.88 229.99,-226.11"/>
<polygon fill="midnightblue" stroke="midnightblue" points="229.49,-229.59 240.02,-228.45 231.08,-222.77 229.49,-229.59"/>
</g>
<!-- Node7 -->
<g id="node7" class="node">
<title>Node7</title>
<g id="a_node7"><a xlink:href="../../d1/ddb/group___k_n_s___q.html#ga200d86f8adcbe9365bcec0cc085c91c0" target="_top" xlink:title="This function is used to pop next element from a queue.">
<polygon fill="white" stroke="black" points="249.5,-190.5 249.5,-209.5 322.5,-209.5 322.5,-190.5 249.5,-190.5"/>
<text text-anchor="middle" x="286" y="-197.5" font-family="Helvetica,sans-Serif" font-size="10.00">KNS_Q_pop</text>
</a>
</g>
</g>
<!-- Node1&#45;&gt;Node7 -->
<g id="edge9" class="edge">
<title>Node1&#45;&gt;Node7</title>
<path fill="none" stroke="midnightblue" d="M166.04,-188.76C190.95,-191.11 217.43,-193.61 239.06,-195.66"/>
<polygon fill="midnightblue" stroke="midnightblue" points="238.98,-199.17 249.26,-196.62 239.64,-192.2 238.98,-199.17"/>
</g>
<!-- Node8 -->
<g id="node8" class="node">
<title>Node8</title>
<g id="a_node8"><a xlink:href="../../d0/d0f/group___m_g_r___a_t___c_m_d.html#gacc929e5b70f2d6fefaa89d8aabf18773" target="_top" xlink:title="Set/clear a GPIO around transmission.">
<polygon fill="white" stroke="black" points="249,-152.5 249,-171.5 323,-171.5 323,-152.5 249,-152.5"/>
<text text-anchor="middle" x="286" y="-159.5" font-family="Helvetica,sans-Serif" font-size="10.00">Set_TX_LED</text>
</a>
</g>
</g>
<!-- Node1&#45;&gt;Node8 -->
<g id="edge10" class="edge">
<title>Node1&#45;&gt;Node8</title>
<path fill="none" stroke="midnightblue" d="M166.04,-173.24C190.77,-170.91 217.03,-168.43 238.57,-166.39"/>
<polygon fill="midnightblue" stroke="midnightblue" points="239.12,-169.85 248.74,-165.43 238.46,-162.88 239.12,-169.85"/>
</g>
<!-- Node9 -->
<g id="node9" class="node">
<title>Node9</title>
<g id="a_node9"><a xlink:href="../../db/d4f/group___u_s_e_r___d_a_t_a.html#ga7bf3cf40b0f5041d24a722e26347c83d" target="_top" xlink:title="get first element which contains the expected payload">
<polygon fill="white" stroke="black" points="206.5,-114.5 206.5,-133.5 365.5,-133.5 365.5,-114.5 206.5,-114.5"/>
<text text-anchor="middle" x="286" y="-121.5" font-family="Helvetica,sans-Serif" font-size="10.00">USERDATA_txFifoFindPayload</text>
</a>
</g>
</g>
<!-- Node1&#45;&gt;Node9 -->
<g id="edge11" class="edge">
<title>Node1&#45;&gt;Node9</title>
<path fill="none" stroke="midnightblue" d="M111.45,-171.41C135.24,-163.29 170.66,-151.61 202,-143 211,-140.53 220.61,-138.12 229.99,-135.89"/>
<polygon fill="midnightblue" stroke="midnightblue" points="231.08,-139.23 240.02,-133.55 229.49,-132.41 231.08,-139.23"/>
</g>
<!-- Node10 -->
<g id="node10" class="node">
<title>Node10</title>
<g id="a_node10"><a xlink:href="../../db/d4f/group___u_s_e_r___d_a_t_a.html#gac0082e264a11102f05874ef9f0609e26" target="_top" xlink:title="get first element of the TX Fifo">
<polygon fill="white" stroke="black" points="217,-76.5 217,-95.5 355,-95.5 355,-76.5 217,-76.5"/>
<text text-anchor="middle" x="286" y="-83.5" font-family="Helvetica,sans-Serif" font-size="10.00">USERDATA_txFifoGetFirst</text>
</a>
</g>
</g>
<!-- Node1&#45;&gt;Node10 -->
<g id="edge12" class="edge">
<title>Node1&#45;&gt;Node10</title>
<path fill="none" stroke="midnightblue" d="M95.94,-171.27C116.4,-155.09 160.01,-122.69 202,-105 207.9,-102.51 214.18,-100.33 220.54,-98.41"/>
<polygon fill="midnightblue" stroke="midnightblue" points="221.88,-101.67 230.56,-95.6 219.99,-94.93 221.88,-101.67"/>
</g>
<!-- Node11 -->
<g id="node11" class="node">
<title>Node11</title>
<g id="a_node11"><a xlink:href="../../db/d4f/group___u_s_e_r___d_a_t_a.html#ga4d20835dbc4b21f645ff55eed7d93216" target="_top" xlink:title="Delete an element from the TX fifo.">
<polygon fill="white" stroke="black" points="209,-38.5 209,-57.5 363,-57.5 363,-38.5 209,-38.5"/>
<text text-anchor="middle" x="286" y="-45.5" font-family="Helvetica,sans-Serif" font-size="10.00">USERDATA_txFifoRemoveElt</text>
</a>
</g>
</g>
<!-- Node1&#45;&gt;Node11 -->
<g id="edge13" class="edge">
<title>Node1&#45;&gt;Node11</title>
<path fill="none" stroke="midnightblue" d="M91.03,-171.25C107.63,-149 151.66,-94.28 202,-67 206.24,-64.7 210.76,-62.68 215.4,-60.9"/>
<polygon fill="midnightblue" stroke="midnightblue" points="216.74,-64.14 225.07,-57.58 214.47,-57.52 216.74,-64.14"/>
</g>
<!-- Node3 -->
<g id="node3" class="node">
<title>Node3</title>
<g id="a_node3"><a xlink:href="../../d8/d62/group___m_c_u___a_p_p___w_r_a_p_p_e_r_s.html#gae14ee3e1d2a9b459c0d89c451a4bc470" target="_top" xlink:title="Send AT CMD response to console.">
<polygon fill="white" stroke="black" points="615,-247.5 615,-266.5 753,-266.5 753,-247.5 615,-247.5"/>
<text text-anchor="middle" x="684" y="-254.5" font-family="Helvetica,sans-Serif" font-size="10.00">MCU_AT_CONSOLE_send</text>
</a>
</g>
</g>
<!-- Node2&#45;&gt;Node3 -->
<g id="edge2" class="edge">
<title>Node2&#45;&gt;Node3</title>
<path fill="none" stroke="midnightblue" d="M541.72,-304.45C553.96,-301.71 567.03,-298.5 579,-295 603.1,-287.95 629.68,-278.2 649.94,-270.34"/>
<polygon fill="midnightblue" stroke="midnightblue" points="651.31,-273.57 659.34,-266.66 648.75,-267.05 651.31,-273.57"/>
</g>
<!-- Node4&#45;&gt;Node3 -->
<g id="edge4" class="edge">
<title>Node4&#45;&gt;Node3</title>
<path fill="none" stroke="midnightblue" d="M579.1,-267.42C587.61,-266.56 596.22,-265.7 604.64,-264.86"/>
<polygon fill="midnightblue" stroke="midnightblue" points="605.22,-268.32 614.82,-263.84 604.52,-261.35 605.22,-268.32"/>
</g>
<!-- Node5&#45;&gt;Node3 -->
<g id="edge6" class="edge">
<title>Node5&#45;&gt;Node3</title>
<path fill="none" stroke="midnightblue" d="M370.01,-241.98C439.15,-245.3 536.92,-249.99 604.71,-253.24"/>
<polygon fill="midnightblue" stroke="midnightblue" points="604.75,-256.75 614.9,-253.73 605.08,-249.76 604.75,-256.75"/>
</g>
<!-- Node6 -->
<g id="node6" class="node">
<title>Node6</title>
<g id="a_node6"><a xlink:href="../../d8/d62/group___m_c_u___a_p_p___w_r_a_p_p_e_r_s.html#gaf6858a5591eaf9e21e59a15188ff6f13" target="_top" xlink:title="Write content of a binary data buffer as AT cmd response.">
<polygon fill="white" stroke="black" points="423.5,-179 423.5,-209 561.5,-209 561.5,-179 423.5,-179"/>
<text text-anchor="start" x="431.5" y="-197" font-family="Helvetica,sans-Serif" font-size="10.00">MCU_AT_CONSOLE_send</text>
<text text-anchor="middle" x="492.5" y="-186" font-family="Helvetica,sans-Serif" font-size="10.00">_dataBuf</text>
</a>
</g>
</g>
<!-- Node5&#45;&gt;Node6 -->
<g id="edge7" class="edge">
<title>Node5&#45;&gt;Node6</title>
<path fill="none" stroke="midnightblue" d="M331.37,-228.45C355.33,-223.3 385.61,-216.78 413.37,-210.81"/>
<polygon fill="midnightblue" stroke="midnightblue" points="414.43,-214.16 423.47,-208.64 412.96,-207.32 414.43,-214.16"/>
</g>
<!-- Node6&#45;&gt;Node3 -->
<g id="edge8" class="edge">
<title>Node6&#45;&gt;Node3</title>
<path fill="none" stroke="midnightblue" d="M538.89,-209.09C571.06,-219.78 613.76,-233.98 644.31,-244.14"/>
<polygon fill="midnightblue" stroke="midnightblue" points="643.58,-247.58 654.18,-247.42 645.79,-240.94 643.58,-247.58"/>
</g>
<!-- Node12 -->
<g id="node12" class="node">
<title>Node12</title>
<g id="a_node12"><a xlink:href="../../db/d4f/group___u_s_e_r___d_a_t_a.html#ga532418c0e3adad36946ba9d346a163f4" target="_top" xlink:title="check the element is pointing on a valid address, i.e. one from sUserDataTxFifoBuf buffer">
<polygon fill="white" stroke="black" points="425.5,-57.5 425.5,-76.5 559.5,-76.5 559.5,-57.5 425.5,-57.5"/>
<text text-anchor="middle" x="492.5" y="-64.5" font-family="Helvetica,sans-Serif" font-size="10.00">USERDATA_txFifoIsInBuf</text>
</a>
</g>
</g>
<!-- Node11&#45;&gt;Node12 -->
<g id="edge14" class="edge">
<title>Node11&#45;&gt;Node12</title>
<path fill="none" stroke="midnightblue" d="M363.15,-55.07C380.08,-56.65 398.03,-58.32 414.97,-59.89"/>
<polygon fill="midnightblue" stroke="midnightblue" points="415.09,-63.42 425.37,-60.86 415.74,-56.45 415.09,-63.42"/>
</g>
<!-- Node13 -->
<g id="node13" class="node">
<title>Node13</title>
<g id="a_node13"><a xlink:href="../../db/d4f/group___u_s_e_r___d_a_t_a.html#gafba02bd8b2e6ebad0b2f38b72e40ec21" target="_top" xlink:title="Log content of the TX fifo.">
<polygon fill="white" stroke="black" points="433.5,-19.5 433.5,-38.5 551.5,-38.5 551.5,-19.5 433.5,-19.5"/>
<text text-anchor="middle" x="492.5" y="-26.5" font-family="Helvetica,sans-Serif" font-size="10.00">USERDATA_txFifoLog</text>
</a>
</g>
</g>
<!-- Node11&#45;&gt;Node13 -->
<g id="edge15" class="edge">
<title>Node11&#45;&gt;Node13</title>
<path fill="none" stroke="midnightblue" d="M363.15,-40.93C382.79,-39.1 403.8,-37.15 423.02,-35.36"/>
<polygon fill="midnightblue" stroke="midnightblue" points="423.56,-38.83 433.19,-34.42 422.91,-31.86 423.56,-38.83"/>
</g>
<!-- Node14 -->
<g id="node14" class="node">
<title>Node14</title>
<g id="a_node14"><a xlink:href="../../d9/d2f/group___k_i_n_e_i_s___s_w___c_o_n_f.html#ga858c122b744e5d185b5abac307aae807" target="_top" xlink:title="Enter critical section.">
<polygon fill="white" stroke="black" points="641,-38.5 641,-57.5 727,-57.5 727,-38.5 641,-38.5"/>
<text text-anchor="middle" x="684" y="-45.5" font-family="Helvetica,sans-Serif" font-size="10.00">KNS_CS_enter</text>
</a>
</g>
</g>
<!-- Node13&#45;&gt;Node14 -->
<g id="edge16" class="edge">
<title>Node13&#45;&gt;Node14</title>
<path fill="none" stroke="midnightblue" d="M551.64,-34.83C576.87,-37.36 606.19,-40.3 630.72,-42.76"/>
<polygon fill="midnightblue" stroke="midnightblue" points="630.61,-46.27 640.91,-43.78 631.31,-39.3 630.61,-46.27"/>
</g>
<!-- Node15 -->
<g id="node15" class="node">
<title>Node15</title>
<g id="a_node15"><a xlink:href="../../d9/d2f/group___k_i_n_e_i_s___s_w___c_o_n_f.html#ga58b477bfcd987dcd7b733b98ab692fdc" target="_top" xlink:title="Exit critical section.">
<polygon fill="white" stroke="black" points="644.5,-0.5 644.5,-19.5 723.5,-19.5 723.5,-0.5 644.5,-0.5"/>
<text text-anchor="middle" x="684" y="-7.5" font-family="Helvetica,sans-Serif" font-size="10.00">KNS_CS_exit</text>
</a>
</g>
</g>
<!-- Node13&#45;&gt;Node15 -->
<g id="edge17" class="edge">
<title>Node13&#45;&gt;Node15</title>
<path fill="none" stroke="midnightblue" d="M551.64,-23.17C578.13,-20.51 609.13,-17.41 634.36,-14.88"/>
<polygon fill="midnightblue" stroke="midnightblue" points="634.83,-18.35 644.43,-13.87 634.13,-11.38 634.83,-18.35"/>
</g>
</g>
</svg>
        <g id="navigator" transform="translate(0 0)" fill="#404254">
                <rect fill="#f2f5e9" fill-opacity="0.5" stroke="#606060" stroke-width=".5" x="0" y="0" width="60" height="60"/>
                <use id="zoomplus" xlink:href="#zoomPlus" x="17" y="9" onmousedown="handleZoom(evt,'in')"/>
                <use id="zoomminus" xlink:href="#zoomMin" x="42" y="9" onmousedown="handleZoom(evt,'out')"/>
                <use id="reset" xlink:href="#resetDef" x="30" y="36" onmousedown="handleReset()"/>
                <g id="arrowUp" xlink:href="#dirArrow" transform="translate(30 24)" onmousedown="handlePan(0,-1)">
                  <use xlink:href="#rim" fill="#404040">
                        <set attributeName="fill" to="#808080" begin="arrowUp.mouseover" end="arrowUp.mouseout"/>
                  </use>
                  <path fill="none" stroke="white" stroke-width="1.5" d="M0,-3.0v7 M-2.5,-0.5L0,-3.0L2.5,-0.5"/>
                </g>
                <g id="arrowRight" xlink:href="#dirArrow" transform="rotate(90) translate(36 -43)" onmousedown="handlePan(1,0)">
                  <use xlink:href="#rim" fill="#404040">
                        <set attributeName="fill" to="#808080" begin="arrowRight.mouseover" end="arrowRight.mouseout"/>
                  </use>
                  <path fill="none" stroke="white" stroke-width="1.5" d="M0,-3.0v7 M-2.5,-0.5L0,-3.0L2.5,-0.5"/>
                </g>
                <g id="arrowDown" xlink:href="#dirArrow" transform="rotate(180) translate(-30 -48)" onmousedown="handlePan(0,1)">
                  <use xlink:href="#rim" fill="#404040">
                        <set attributeName="fill" to="#808080" begin="arrowDown.mouseover" end="arrowDown.mouseout"/>
                  </use>
                  <path fill="none" stroke="white" stroke-width="1.5" d="M0,-3.0v7 M-2.5,-0.5L0,-3.0L2.5,-0.5"/>
                </g>
                <g id="arrowLeft" xlink:href="#dirArrow" transform="rotate(270) translate(-36 17)" onmousedown="handlePan(-1,0)">
                  <use xlink:href="#rim" fill="#404040">
                        <set attributeName="fill" to="#808080" begin="arrowLeft.mouseover" end="arrowLeft.mouseout"/>
                  </use>
                  <path fill="none" stroke="white" stroke-width="1.5" d="M0,-3.0v7 M-2.5,-0.5L0,-3.0L2.5,-0.5"/>
                </g>
        </g>
        <svg viewBox="0 0 15 15" width="100%" height="30px" preserveAspectRatio="xMaxYMin meet">
         <g id="arrow_out" transform="scale(0.3 0.3)">
          <a xlink:href="group___m_g_r___a_t___c_m_d_ga1a39b3c9cd76d50537a8bc42087ed46f_cgraph_org.svg" target="_base">
           <rect id="button" ry="5" rx="5" y="6" x="6" height="38" width="38"
                fill="#f2f5e9" fill-opacity="0.5" stroke="#606060" stroke-width="1.0"/>
           <path id="arrow"
             d="M 11.500037,31.436501 C 11.940474,20.09759 22.043105,11.32322 32.158766,21.979434 L 37.068811,17.246167 C 37.068811,17.246167 37.088388,32 37.088388,32 L 22.160133,31.978069 C 22.160133,31.978069 26.997745,27.140456 26.997745,27.140456 C 18.528582,18.264221 13.291696,25.230495 11.500037,31.436501 z"
             style="fill:#404040;"/>
          </a>
         </g>
        </svg>
</svg>
