<?xml version="1.0" encoding="UTF-8" standalone="no"?>
<!DOCTYPE svg PUBLIC "-//W3C//DTD SVG 1.1//EN"
 "http://www.w3.org/Graphics/SVG/1.1/DTD/svg11.dtd">
<!-- Generated by graphviz version 2.43.0 (0)
 -->
<!-- Title: MGR_AT_CMD_sendRandomTxData Pages: 1 -->
<!--zoomable 446 -->
<svg id="main" version="1.1" xmlns="http://www.w3.org/2000/svg" xmlns:xlink="http://www.w3.org/1999/xlink" xml:space="preserve" onload="init(evt)">
<style type="text/css"><![CDATA[
.edge:hover path { stroke: red; }
.edge:hover polygon { stroke: red; fill: red; }
]]></style>
<script type="text/javascript"><![CDATA[
var edges = document.getElementsByTagName('g');
if (edges && edges.length) {
  for (var i=0;i<edges.length;i++) {
    if (edges[i].id.substr(0,4)=='edge') {
      edges[i].setAttribute('class','edge');
    }
  }
}
]]></script>
        <defs>
                <circle id="rim" cx="0" cy="0" r="7"/>
                <circle id="rim2" cx="0" cy="0" r="3.5"/>
                <g id="zoomPlus">
                        <use xlink:href="#rim" fill="#404040">
                                <set attributeName="fill" to="#808080" begin="zoomplus.mouseover" end="zoomplus.mouseout"/>
                        </use>
                        <path d="M-4,0h8M0,-4v8" fill="none" stroke="white" stroke-width="1.5" pointer-events="none"/>
                </g>
                <g id="zoomMin">
                        <use xlink:href="#rim" fill="#404040">
                                <set attributeName="fill" to="#808080" begin="zoomminus.mouseover" end="zoomminus.mouseout"/>
                        </use>
                        <path d="M-4,0h8" fill="none" stroke="white" stroke-width="1.5" pointer-events="none"/>
                </g>
                <g id="dirArrow">
                        <path fill="none" stroke="white" stroke-width="1.5" d="M0,-3.0v7 M-2.5,-0.5L0,-3.0L2.5,-0.5"/>
                </g>
               <g id="resetDef">
                       <use xlink:href="#rim2" fill="#404040">
                               <set attributeName="fill" to="#808080" begin="reset.mouseover" end="reset.mouseout"/>
                       </use>
               </g>
        </defs>

<script type="text/javascript">
var viewWidth = 582;
var viewHeight = 446;
var sectionId = 'dynsection-34';
</script>
<script xlink:href="../../svgpan.js"/>
<svg id="graph" class="graph">
<g id="viewport">
<title>MGR_AT_CMD_sendRandomTxData</title>
<polygon fill="white" stroke="transparent" points="-4,4 -4,-442 578,-442 578,4 -4,4"/>
<!-- Node1 -->
<g id="node1" class="node">
<title>Node1</title>
<g id="a_node1"><a xlink:title="Send random TX data as per RF configuration.">
<polygon fill="#bfbfbf" stroke="black" points="0,-228.5 0,-247.5 191,-247.5 191,-228.5 0,-228.5"/>
<text text-anchor="middle" x="95.5" y="-235.5" font-family="Helvetica,sans-Serif" font-size="10.00">MGR_AT_CMD_sendRandomTxData</text>
</a>
</g>
</g>
<!-- Node2 -->
<g id="node2" class="node">
<title>Node2</title>
<g id="a_node2"><a xlink:href="../../d0/d0f/group___m_g_r___a_t___c_m_d.html#ga3d564aff9653e8bdc572d189093f1acc" target="_top" xlink:title="Log in debug interface a failed message.">
<polygon fill="white" stroke="black" points="232.5,-418.5 232.5,-437.5 394.5,-437.5 394.5,-418.5 232.5,-418.5"/>
<text text-anchor="middle" x="313.5" y="-425.5" font-family="Helvetica,sans-Serif" font-size="10.00">bMGR_AT_CMD_logFailedMsg</text>
</a>
</g>
</g>
<!-- Node1&#45;&gt;Node2 -->
<g id="edge1" class="edge">
<title>Node1&#45;&gt;Node2</title>
<path fill="none" stroke="midnightblue" d="M100.83,-247.64C114.57,-277.07 160.29,-366.36 227,-409 230.2,-411.04 233.59,-412.87 237.1,-414.5"/>
<polygon fill="midnightblue" stroke="midnightblue" points="236.05,-417.85 246.63,-418.38 238.69,-411.37 236.05,-417.85"/>
</g>
<!-- Node4 -->
<g id="node4" class="node">
<title>Node4</title>
<g id="a_node4"><a xlink:href="../../d0/d0f/group___m_g_r___a_t___c_m_d.html#gabef580da46cf82ca74ba3e5217cf3ffa" target="_top" xlink:title=": Log in debug interface a succeed message">
<polygon fill="white" stroke="black" points="227,-380.5 227,-399.5 400,-399.5 400,-380.5 227,-380.5"/>
<text text-anchor="middle" x="313.5" y="-387.5" font-family="Helvetica,sans-Serif" font-size="10.00">bMGR_AT_CMD_logSucceedMsg</text>
</a>
</g>
</g>
<!-- Node1&#45;&gt;Node4 -->
<g id="edge3" class="edge">
<title>Node1&#45;&gt;Node4</title>
<path fill="none" stroke="midnightblue" d="M102.82,-247.54C119.74,-272.25 168.74,-338.66 227,-371 231.18,-373.32 235.63,-375.36 240.21,-377.15"/>
<polygon fill="midnightblue" stroke="midnightblue" points="239.17,-380.49 249.77,-380.48 241.48,-373.89 239.17,-380.49"/>
</g>
<!-- Node5 -->
<g id="node5" class="node">
<title>Node5</title>
<g id="a_node5"><a xlink:href="../../d0/d0f/group___m_g_r___a_t___c_m_d.html#ga3cafca118878601afaac95a1b3dc75af" target="_top" xlink:title="This function converts kineis stack status into AT cmd error code.">
<polygon fill="white" stroke="black" points="252,-342.5 252,-361.5 375,-361.5 375,-342.5 252,-342.5"/>
<text text-anchor="middle" x="313.5" y="-349.5" font-family="Helvetica,sans-Serif" font-size="10.00">convKnsStatusToAtErr</text>
</a>
</g>
</g>
<!-- Node1&#45;&gt;Node5 -->
<g id="edge5" class="edge">
<title>Node1&#45;&gt;Node5</title>
<path fill="none" stroke="midnightblue" d="M106.71,-247.78C127.55,-267.17 177.19,-310.52 227,-333 232.64,-335.55 238.65,-337.76 244.76,-339.69"/>
<polygon fill="midnightblue" stroke="midnightblue" points="243.84,-343.07 254.42,-342.49 245.79,-336.34 243.84,-343.07"/>
</g>
<!-- Node6 -->
<g id="node6" class="node">
<title>Node6</title>
<g id="a_node6"><a xlink:href="../../d0/d0f/group___m_g_r___a_t___c_m_d.html#gafccb1dfaf28ab371bebd814a3abaa57c" target="_top" xlink:title="Callback function notifying end of TX processing in case of modulated wave.">
<polygon fill="white" stroke="black" points="267.5,-304.5 267.5,-323.5 359.5,-323.5 359.5,-304.5 267.5,-304.5"/>
<text text-anchor="middle" x="313.5" y="-311.5" font-family="Helvetica,sans-Serif" font-size="10.00">eoAtMW_isr_cb</text>
</a>
</g>
</g>
<!-- Node1&#45;&gt;Node6 -->
<g id="edge6" class="edge">
<title>Node1&#45;&gt;Node6</title>
<path fill="none" stroke="midnightblue" d="M136.65,-247.54C162.25,-256.97 196.28,-270.6 227,-281 247.8,-288.04 271.92,-294.68 289.23,-300.73"/>
<polygon fill="midnightblue" stroke="midnightblue" points="288.45,-304.17 299.04,-304.42 290.91,-297.62 288.45,-304.17"/>
</g>
<!-- Node7 -->
<g id="node7" class="node">
<title>Node7</title>
<g id="a_node7"><a xlink:href="../../d7/d3a/group___k_n_s___r_f.html#ga033aa6b275db02f80da176ff8d61283e" target="_top" xlink:title="This function powers off the LDO for the KNS_RF. cb is called when done.">
<polygon fill="white" stroke="black" points="452.5,-285.5 452.5,-304.5 557.5,-304.5 557.5,-285.5 452.5,-285.5"/>
<text text-anchor="middle" x="505" y="-292.5" font-family="Helvetica,sans-Serif" font-size="10.00">KNS_RF_PowerOff</text>
</a>
</g>
</g>
<!-- Node1&#45;&gt;Node7 -->
<g id="edge10" class="edge">
<title>Node1&#45;&gt;Node7</title>
<path fill="none" stroke="midnightblue" d="M161.2,-247.53C182.19,-250.59 205.58,-253.97 227,-257 300.98,-267.46 386.13,-279.08 442.28,-286.68"/>
<polygon fill="midnightblue" stroke="midnightblue" points="442.04,-290.18 452.42,-288.05 442.98,-283.24 442.04,-290.18"/>
</g>
<!-- Node8 -->
<g id="node8" class="node">
<title>Node8</title>
<g id="a_node8"><a xlink:href="../../d7/d3a/group___k_n_s___r_f.html#gaa84375c34c9507c0cbab963f506dad5b" target="_top" xlink:title="This function starts aborting the current RF processing (TX, SAT_detect, RX, ...)">
<polygon fill="white" stroke="black" points="265.5,-228.5 265.5,-247.5 361.5,-247.5 361.5,-228.5 265.5,-228.5"/>
<text text-anchor="middle" x="313.5" y="-235.5" font-family="Helvetica,sans-Serif" font-size="10.00">KNS_RF_abortRf</text>
</a>
</g>
</g>
<!-- Node1&#45;&gt;Node8 -->
<g id="edge9" class="edge">
<title>Node1&#45;&gt;Node8</title>
<path fill="none" stroke="midnightblue" d="M191.24,-238C212.96,-238 235.4,-238 254.98,-238"/>
<polygon fill="midnightblue" stroke="midnightblue" points="255.24,-241.5 265.24,-238 255.24,-234.5 255.24,-241.5"/>
</g>
<!-- Node9 -->
<g id="node9" class="node">
<title>Node9</title>
<g id="a_node9"><a xlink:href="../../d7/d3a/group___k_n_s___r_f.html#ga836ae8de400c6a3eade149163f525d77" target="_top" xlink:title="This function powers on the LDO for the KNS_RF.">
<polygon fill="white" stroke="black" points="261.5,-190.5 261.5,-209.5 365.5,-209.5 365.5,-190.5 261.5,-190.5"/>
<text text-anchor="middle" x="313.5" y="-197.5" font-family="Helvetica,sans-Serif" font-size="10.00">KNS_RF_PowerOn</text>
</a>
</g>
</g>
<!-- Node1&#45;&gt;Node9 -->
<g id="edge11" class="edge">
<title>Node1&#45;&gt;Node9</title>
<path fill="none" stroke="midnightblue" d="M150.73,-228.46C181.29,-223.08 219.56,-216.35 251.2,-210.78"/>
<polygon fill="midnightblue" stroke="midnightblue" points="251.98,-214.2 261.22,-209.02 250.77,-207.31 251.98,-214.2"/>
</g>
<!-- Node10 -->
<g id="node10" class="node">
<title>Node10</title>
<g id="a_node10"><a xlink:href="../../d7/d3a/group___k_n_s___r_f.html#ga27a155fef00030187c03c6b68e01b7e4" target="_top" xlink:title="This function loads the bitstream to send with the radio.">
<polygon fill="white" stroke="black" points="248,-152.5 248,-171.5 379,-171.5 379,-152.5 248,-152.5"/>
<text text-anchor="middle" x="313.5" y="-159.5" font-family="Helvetica,sans-Serif" font-size="10.00">KNS_RF_pushBitstream</text>
</a>
</g>
</g>
<!-- Node1&#45;&gt;Node10 -->
<g id="edge12" class="edge">
<title>Node1&#45;&gt;Node10</title>
<path fill="none" stroke="midnightblue" d="M115.5,-228.31C140.51,-215.88 186.1,-194.34 227,-181 235,-178.39 243.54,-176.02 252.01,-173.91"/>
<polygon fill="midnightblue" stroke="midnightblue" points="252.97,-177.28 261.88,-171.55 251.34,-170.47 252.97,-177.28"/>
</g>
<!-- Node11 -->
<g id="node11" class="node">
<title>Node11</title>
<g id="a_node11"><a xlink:href="../../d7/d3a/group___k_n_s___r_f.html#gafb94c39480f1dddf5589fc6683547605" target="_top" xlink:title="This function fills the internal TX configuration structure for all TX RF parameters.">
<polygon fill="white" stroke="black" points="261.5,-114.5 261.5,-133.5 365.5,-133.5 365.5,-114.5 261.5,-114.5"/>
<text text-anchor="middle" x="313.5" y="-121.5" font-family="Helvetica,sans-Serif" font-size="10.00">KNS_RF_setTxCfg</text>
</a>
</g>
</g>
<!-- Node1&#45;&gt;Node11 -->
<g id="edge13" class="edge">
<title>Node1&#45;&gt;Node11</title>
<path fill="none" stroke="midnightblue" d="M106.71,-228.22C127.55,-208.83 177.19,-165.48 227,-143 234.67,-139.54 243.02,-136.69 251.4,-134.34"/>
<polygon fill="midnightblue" stroke="midnightblue" points="252.39,-137.7 261.2,-131.81 250.65,-130.92 252.39,-137.7"/>
</g>
<!-- Node12 -->
<g id="node12" class="node">
<title>Node12</title>
<g id="a_node12"><a xlink:href="../../d7/d3a/group___k_n_s___r_f.html#gaf1ef01cc0838db2d7da3fd45d011a547" target="_top" xlink:title="This function starts the transmission immediately of the bitstream set into the tx buffer during the ...">
<polygon fill="white" stroke="black" points="239.5,-76.5 239.5,-95.5 387.5,-95.5 387.5,-76.5 239.5,-76.5"/>
<text text-anchor="middle" x="313.5" y="-83.5" font-family="Helvetica,sans-Serif" font-size="10.00">KNS_RF_startImmediateTx</text>
</a>
</g>
</g>
<!-- Node1&#45;&gt;Node12 -->
<g id="edge14" class="edge">
<title>Node1&#45;&gt;Node12</title>
<path fill="none" stroke="midnightblue" d="M102.82,-228.46C119.74,-203.75 168.74,-137.34 227,-105 231.18,-102.68 235.63,-100.64 240.21,-98.85"/>
<polygon fill="midnightblue" stroke="midnightblue" points="241.48,-102.11 249.77,-95.52 239.17,-95.51 241.48,-102.11"/>
</g>
<!-- Node13 -->
<g id="node13" class="node">
<title>Node13</title>
<g id="a_node13"><a xlink:href="../../d7/d3a/group___k_n_s___r_f.html#ga1ef284f0eb6b7fb2c6ed9bbb05a8cff5" target="_top" xlink:title="This function switch on the tcxo for the right time and callback is called when tcxo is considered re...">
<polygon fill="white" stroke="black" points="252.5,-38.5 252.5,-57.5 374.5,-57.5 374.5,-38.5 252.5,-38.5"/>
<text text-anchor="middle" x="313.5" y="-45.5" font-family="Helvetica,sans-Serif" font-size="10.00">KNS_RF_tcxoWarmup</text>
</a>
</g>
</g>
<!-- Node1&#45;&gt;Node13 -->
<g id="edge15" class="edge">
<title>Node1&#45;&gt;Node13</title>
<path fill="none" stroke="midnightblue" d="M100.83,-228.36C114.57,-198.93 160.29,-109.64 227,-67 231.92,-63.85 237.3,-61.22 242.87,-59.02"/>
<polygon fill="midnightblue" stroke="midnightblue" points="244.11,-62.3 252.41,-55.72 241.81,-55.69 244.11,-62.3"/>
</g>
<!-- Node14 -->
<g id="node14" class="node">
<title>Node14</title>
<g id="a_node14"><a xlink:href="../../d0/d0f/group___m_g_r___a_t___c_m_d.html#gaa9d6835fa67d6e39b880e04688f7ece9" target="_top" xlink:title="Log array of uint8_t.">
<polygon fill="white" stroke="black" points="265.5,-0.5 265.5,-19.5 361.5,-19.5 361.5,-0.5 265.5,-0.5"/>
<text text-anchor="middle" x="313.5" y="-7.5" font-family="Helvetica,sans-Serif" font-size="10.00">MGR_LOG_array</text>
</a>
</g>
</g>
<!-- Node1&#45;&gt;Node14 -->
<g id="edge16" class="edge">
<title>Node1&#45;&gt;Node14</title>
<path fill="none" stroke="midnightblue" d="M99.54,-228.2C110.52,-194.46 151.57,-82.36 227,-29 235.47,-23.01 245.49,-18.86 255.64,-16"/>
<polygon fill="midnightblue" stroke="midnightblue" points="256.48,-19.4 265.37,-13.64 254.82,-12.6 256.48,-19.4"/>
</g>
<!-- Node3 -->
<g id="node3" class="node">
<title>Node3</title>
<g id="a_node3"><a xlink:href="../../d8/d62/group___m_c_u___a_p_p___w_r_a_p_p_e_r_s.html#gae14ee3e1d2a9b459c0d89c451a4bc470" target="_top" xlink:title="Send AT CMD response to console.">
<polygon fill="white" stroke="black" points="436,-399.5 436,-418.5 574,-418.5 574,-399.5 436,-399.5"/>
<text text-anchor="middle" x="505" y="-406.5" font-family="Helvetica,sans-Serif" font-size="10.00">MCU_AT_CONSOLE_send</text>
</a>
</g>
</g>
<!-- Node2&#45;&gt;Node3 -->
<g id="edge2" class="edge">
<title>Node2&#45;&gt;Node3</title>
<path fill="none" stroke="midnightblue" d="M394.59,-419.97C404.89,-418.94 415.43,-417.88 425.71,-416.85"/>
<polygon fill="midnightblue" stroke="midnightblue" points="426.27,-420.31 435.87,-415.83 425.58,-413.35 426.27,-420.31"/>
</g>
<!-- Node4&#45;&gt;Node3 -->
<g id="edge4" class="edge">
<title>Node4&#45;&gt;Node3</title>
<path fill="none" stroke="midnightblue" d="M400.1,-398.58C408.61,-399.44 417.22,-400.3 425.64,-401.14"/>
<polygon fill="midnightblue" stroke="midnightblue" points="425.52,-404.65 435.82,-402.16 426.22,-397.68 425.52,-404.65"/>
</g>
<!-- Node6&#45;&gt;Node1 -->
<g id="edge8" class="edge">
<title>Node6&#45;&gt;Node1</title>
<path fill="none" stroke="midnightblue" d="M267.41,-310.92C254.29,-307.64 240,-303.4 227,-299 187.03,-285.47 141.47,-266.47 116.14,-252.8"/>
<polygon fill="midnightblue" stroke="midnightblue" points="117.6,-249.6 107.18,-247.67 114.12,-255.68 117.6,-249.6"/>
</g>
<!-- Node6&#45;&gt;Node7 -->
<g id="edge7" class="edge">
<title>Node6&#45;&gt;Node7</title>
<path fill="none" stroke="midnightblue" d="M359.89,-309.45C384.55,-306.98 415.4,-303.88 442.23,-301.19"/>
<polygon fill="midnightblue" stroke="midnightblue" points="442.69,-304.67 452.29,-300.18 441.99,-297.7 442.69,-304.67"/>
</g>
</g>
</svg>
        <g id="navigator" transform="translate(0 0)" fill="#404254">
                <rect fill="#f2f5e9" fill-opacity="0.5" stroke="#606060" stroke-width=".5" x="0" y="0" width="60" height="60"/>
                <use id="zoomplus" xlink:href="#zoomPlus" x="17" y="9" onmousedown="handleZoom(evt,'in')"/>
                <use id="zoomminus" xlink:href="#zoomMin" x="42" y="9" onmousedown="handleZoom(evt,'out')"/>
                <use id="reset" xlink:href="#resetDef" x="30" y="36" onmousedown="handleReset()"/>
                <g id="arrowUp" xlink:href="#dirArrow" transform="translate(30 24)" onmousedown="handlePan(0,-1)">
                  <use xlink:href="#rim" fill="#404040">
                        <set attributeName="fill" to="#808080" begin="arrowUp.mouseover" end="arrowUp.mouseout"/>
                  </use>
                  <path fill="none" stroke="white" stroke-width="1.5" d="M0,-3.0v7 M-2.5,-0.5L0,-3.0L2.5,-0.5"/>
                </g>
                <g id="arrowRight" xlink:href="#dirArrow" transform="rotate(90) translate(36 -43)" onmousedown="handlePan(1,0)">
                  <use xlink:href="#rim" fill="#404040">
                        <set attributeName="fill" to="#808080" begin="arrowRight.mouseover" end="arrowRight.mouseout"/>
                  </use>
                  <path fill="none" stroke="white" stroke-width="1.5" d="M0,-3.0v7 M-2.5,-0.5L0,-3.0L2.5,-0.5"/>
                </g>
                <g id="arrowDown" xlink:href="#dirArrow" transform="rotate(180) translate(-30 -48)" onmousedown="handlePan(0,1)">
                  <use xlink:href="#rim" fill="#404040">
                        <set attributeName="fill" to="#808080" begin="arrowDown.mouseover" end="arrowDown.mouseout"/>
                  </use>
                  <path fill="none" stroke="white" stroke-width="1.5" d="M0,-3.0v7 M-2.5,-0.5L0,-3.0L2.5,-0.5"/>
                </g>
                <g id="arrowLeft" xlink:href="#dirArrow" transform="rotate(270) translate(-36 17)" onmousedown="handlePan(-1,0)">
                  <use xlink:href="#rim" fill="#404040">
                        <set attributeName="fill" to="#808080" begin="arrowLeft.mouseover" end="arrowLeft.mouseout"/>
                  </use>
                  <path fill="none" stroke="white" stroke-width="1.5" d="M0,-3.0v7 M-2.5,-0.5L0,-3.0L2.5,-0.5"/>
                </g>
        </g>
        <svg viewBox="0 0 15 15" width="100%" height="30px" preserveAspectRatio="xMaxYMin meet">
         <g id="arrow_out" transform="scale(0.3 0.3)">
          <a xlink:href="group___m_g_r___a_t___c_m_d_ga60486b23c6850d01bbb1e29875cd24f4_cgraph_org.svg" target="_base">
           <rect id="button" ry="5" rx="5" y="6" x="6" height="38" width="38"
                fill="#f2f5e9" fill-opacity="0.5" stroke="#606060" stroke-width="1.0"/>
           <path id="arrow"
             d="M 11.500037,31.436501 C 11.940474,20.09759 22.043105,11.32322 32.158766,21.979434 L 37.068811,17.246167 C 37.068811,17.246167 37.088388,32 37.088388,32 L 22.160133,31.978069 C 22.160133,31.978069 26.997745,27.140456 26.997745,27.140456 C 18.528582,18.264221 13.291696,25.230495 11.500037,31.436501 z"
             style="fill:#404040;"/>
          </a>
         </g>
        </svg>
</svg>
