<?xml version="1.0" encoding="UTF-8" standalone="no"?>
<!DOCTYPE svg PUBLIC "-//W3C//DTD SVG 1.1//EN"
 "http://www.w3.org/Graphics/SVG/1.1/DTD/svg11.dtd">
<!-- Generated by graphviz version 2.43.0 (0)
 -->
<!-- Title: eoAtMW_isr_cb Pages: 1 -->
<svg width="710pt" height="408pt"
 viewBox="0.00 0.00 710.00 408.00" xmlns="http://www.w3.org/2000/svg" xmlns:xlink="http://www.w3.org/1999/xlink">
<g id="graph0" class="graph" transform="scale(1 1) rotate(0) translate(4 404)">
<title>eoAtMW_isr_cb</title>
<polygon fill="white" stroke="transparent" points="-4,4 -4,-404 706,-404 706,4 -4,4"/>
<!-- Node1 -->
<g id="node1" class="node">
<title>Node1</title>
<g id="a_node1"><a xlink:title="Callback function notifying end of TX processing in case of modulated wave.">
<polygon fill="#bfbfbf" stroke="black" points="0,-209.5 0,-228.5 92,-228.5 92,-209.5 0,-209.5"/>
<text text-anchor="middle" x="46" y="-216.5" font-family="Helvetica,sans-Serif" font-size="10.00">eoAtMW_isr_cb</text>
</a>
</g>
</g>
<!-- Node2 -->
<g id="node2" class="node">
<title>Node2</title>
<g id="a_node2"><a xlink:href="../../d7/d3a/group___k_n_s___r_f.html#ga52c7f4638ef321b41724a0fc88498d06" target="_top" xlink:title="This function powers off the LDO for the KNS_RF TX part. cb is called when done.">
<polygon fill="white" stroke="black" points="382.5,-380.5 382.5,-399.5 500.5,-399.5 500.5,-380.5 382.5,-380.5"/>
<text text-anchor="middle" x="441.5" y="-387.5" font-family="Helvetica,sans-Serif" font-size="10.00">KNS_RFTX_powerOff</text>
</a>
</g>
</g>
<!-- Node1&#45;&gt;Node2 -->
<g id="edge1" class="edge">
<title>Node1&#45;&gt;Node2</title>
<path fill="none" stroke="midnightblue" d="M63.09,-228.68C107.8,-255.21 238.01,-329.81 355,-371 362.36,-373.59 370.21,-375.91 378.05,-377.96"/>
<polygon fill="midnightblue" stroke="midnightblue" points="377.39,-381.4 387.94,-380.41 379.08,-374.6 377.39,-381.4"/>
</g>
<!-- Node3 -->
<g id="node3" class="node">
<title>Node3</title>
<g id="a_node3"><a xlink:href="../../d0/d0f/group___m_g_r___a_t___c_m_d.html#ga60486b23c6850d01bbb1e29875cd24f4" target="_top" xlink:title="Send random TX data as per RF configuration.">
<polygon fill="white" stroke="black" points="128,-209.5 128,-228.5 319,-228.5 319,-209.5 128,-209.5"/>
<text text-anchor="middle" x="223.5" y="-216.5" font-family="Helvetica,sans-Serif" font-size="10.00">MGR_AT_CMD_sendRandomTxData</text>
</a>
</g>
</g>
<!-- Node1&#45;&gt;Node3 -->
<g id="edge2" class="edge">
<title>Node1&#45;&gt;Node3</title>
<path fill="none" stroke="midnightblue" d="M92.2,-213.01C100.24,-212.7 108.91,-212.48 117.83,-212.36"/>
<polygon fill="midnightblue" stroke="midnightblue" points="118.01,-215.86 127.97,-212.27 117.94,-208.86 118.01,-215.86"/>
</g>
<!-- Node3&#45;&gt;Node1 -->
<g id="edge8" class="edge">
<title>Node3&#45;&gt;Node1</title>
<path fill="none" stroke="midnightblue" d="M127.97,-225.73C119.22,-225.69 110.56,-225.55 102.34,-225.32"/>
<polygon fill="midnightblue" stroke="midnightblue" points="102.31,-221.82 92.2,-224.99 102.07,-228.82 102.31,-221.82"/>
</g>
<!-- Node3&#45;&gt;Node2 -->
<g id="edge10" class="edge">
<title>Node3&#45;&gt;Node2</title>
<path fill="none" stroke="midnightblue" d="M236.59,-228.59C255.66,-244.1 293.18,-276.27 319,-309 338.74,-334.02 329.29,-352.18 355,-371 360.23,-374.83 366.1,-377.91 372.24,-380.39"/>
<polygon fill="midnightblue" stroke="midnightblue" points="371.46,-383.82 382.06,-383.8 373.76,-377.21 371.46,-383.82"/>
</g>
<!-- Node4 -->
<g id="node4" class="node">
<title>Node4</title>
<g id="a_node4"><a xlink:href="../../d0/d0f/group___m_g_r___a_t___c_m_d.html#ga3d564aff9653e8bdc572d189093f1acc" target="_top" xlink:title="Log in debug interface a failed message.">
<polygon fill="white" stroke="black" points="360.5,-342.5 360.5,-361.5 522.5,-361.5 522.5,-342.5 360.5,-342.5"/>
<text text-anchor="middle" x="441.5" y="-349.5" font-family="Helvetica,sans-Serif" font-size="10.00">bMGR_AT_CMD_logFailedMsg</text>
</a>
</g>
</g>
<!-- Node3&#45;&gt;Node4 -->
<g id="edge3" class="edge">
<title>Node3&#45;&gt;Node4</title>
<path fill="none" stroke="midnightblue" d="M234.33,-228.75C259.7,-253.72 327.35,-319.01 355,-333 359.83,-335.45 364.98,-337.58 370.25,-339.44"/>
<polygon fill="midnightblue" stroke="midnightblue" points="369.26,-342.79 379.85,-342.5 371.39,-336.13 369.26,-342.79"/>
</g>
<!-- Node6 -->
<g id="node6" class="node">
<title>Node6</title>
<g id="a_node6"><a xlink:href="../../d0/d0f/group___m_g_r___a_t___c_m_d.html#gabef580da46cf82ca74ba3e5217cf3ffa" target="_top" xlink:title=": Log in debug interface a succeed message">
<polygon fill="white" stroke="black" points="355,-304.5 355,-323.5 528,-323.5 528,-304.5 355,-304.5"/>
<text text-anchor="middle" x="441.5" y="-311.5" font-family="Helvetica,sans-Serif" font-size="10.00">bMGR_AT_CMD_logSucceedMsg</text>
</a>
</g>
</g>
<!-- Node3&#45;&gt;Node6 -->
<g id="edge5" class="edge">
<title>Node3&#45;&gt;Node6</title>
<path fill="none" stroke="midnightblue" d="M237.88,-228.69C260.76,-244.82 309.34,-277.13 355,-295 361.62,-297.59 368.67,-299.87 375.78,-301.86"/>
<polygon fill="midnightblue" stroke="midnightblue" points="374.91,-305.25 385.47,-304.41 376.69,-298.48 374.91,-305.25"/>
</g>
<!-- Node7 -->
<g id="node7" class="node">
<title>Node7</title>
<g id="a_node7"><a xlink:href="../../d0/d0f/group___m_g_r___a_t___c_m_d.html#ga3cafca118878601afaac95a1b3dc75af" target="_top" xlink:title="This function converts kineis stack status into AT cmd error code.">
<polygon fill="white" stroke="black" points="380,-266.5 380,-285.5 503,-285.5 503,-266.5 380,-266.5"/>
<text text-anchor="middle" x="441.5" y="-273.5" font-family="Helvetica,sans-Serif" font-size="10.00">convKnsStatusToAtErr</text>
</a>
</g>
</g>
<!-- Node3&#45;&gt;Node7 -->
<g id="edge7" class="edge">
<title>Node3&#45;&gt;Node7</title>
<path fill="none" stroke="midnightblue" d="M255.2,-228.55C281.54,-236.6 320.6,-248.18 355,-257 364.72,-259.49 375.11,-261.96 385.18,-264.26"/>
<polygon fill="midnightblue" stroke="midnightblue" points="384.59,-267.71 395.11,-266.49 386.12,-260.88 384.59,-267.71"/>
</g>
<!-- Node8 -->
<g id="node8" class="node">
<title>Node8</title>
<g id="a_node8"><a xlink:href="../../d7/d3a/group___k_n_s___r_f.html#ga4d708d28e77ccbd85afd3efe8242e2ff" target="_top" xlink:title="This function starts aborting the current TX RF processing.">
<polygon fill="white" stroke="black" points="387,-228.5 387,-247.5 496,-247.5 496,-228.5 387,-228.5"/>
<text text-anchor="middle" x="441.5" y="-235.5" font-family="Helvetica,sans-Serif" font-size="10.00">KNS_RFTX_abortRf</text>
</a>
</g>
</g>
<!-- Node3&#45;&gt;Node8 -->
<g id="edge9" class="edge">
<title>Node3&#45;&gt;Node8</title>
<path fill="none" stroke="midnightblue" d="M319.24,-227.33C338.66,-229.04 358.66,-230.8 376.68,-232.39"/>
<polygon fill="midnightblue" stroke="midnightblue" points="376.49,-235.88 386.76,-233.27 377.1,-228.91 376.49,-235.88"/>
</g>
<!-- Node9 -->
<g id="node9" class="node">
<title>Node9</title>
<g id="a_node9"><a xlink:href="../../d7/d3a/group___k_n_s___r_f.html#ga0b871589a9702968087c3cb5d42d3382" target="_top" xlink:title="This function powers on the LDO for the KNS_RF TX part.">
<polygon fill="white" stroke="black" points="383.5,-190.5 383.5,-209.5 499.5,-209.5 499.5,-190.5 383.5,-190.5"/>
<text text-anchor="middle" x="441.5" y="-197.5" font-family="Helvetica,sans-Serif" font-size="10.00">KNS_RFTX_powerOn</text>
</a>
</g>
</g>
<!-- Node3&#45;&gt;Node9 -->
<g id="edge11" class="edge">
<title>Node3&#45;&gt;Node9</title>
<path fill="none" stroke="midnightblue" d="M319.24,-210.67C337.36,-209.07 355.98,-207.43 373.03,-205.94"/>
<polygon fill="midnightblue" stroke="midnightblue" points="373.76,-209.38 383.42,-205.02 373.15,-202.41 373.76,-209.38"/>
</g>
<!-- Node10 -->
<g id="node10" class="node">
<title>Node10</title>
<g id="a_node10"><a xlink:href="../../d7/d3a/group___k_n_s___r_f.html#ga602a906128ed6586ef9de06a800aa52b" target="_top" xlink:title="This function loads the bitstream to send with the radio.">
<polygon fill="white" stroke="black" points="369.5,-152.5 369.5,-171.5 513.5,-171.5 513.5,-152.5 369.5,-152.5"/>
<text text-anchor="middle" x="441.5" y="-159.5" font-family="Helvetica,sans-Serif" font-size="10.00">KNS_RFTX_pushBitstream</text>
</a>
</g>
</g>
<!-- Node3&#45;&gt;Node10 -->
<g id="edge12" class="edge">
<title>Node3&#45;&gt;Node10</title>
<path fill="none" stroke="midnightblue" d="M255.2,-209.45C281.54,-201.4 320.6,-189.82 355,-181 364.72,-178.51 375.11,-176.04 385.18,-173.74"/>
<polygon fill="midnightblue" stroke="midnightblue" points="386.12,-177.12 395.11,-171.51 384.59,-170.29 386.12,-177.12"/>
</g>
<!-- Node11 -->
<g id="node11" class="node">
<title>Node11</title>
<g id="a_node11"><a xlink:href="../../d7/d3a/group___k_n_s___r_f.html#ga34294206ef3097155fa358116d413a39" target="_top" xlink:title="This function fills the internal TX configuration structure for all TX RF parameters.">
<polygon fill="white" stroke="black" points="389.5,-114.5 389.5,-133.5 493.5,-133.5 493.5,-114.5 389.5,-114.5"/>
<text text-anchor="middle" x="441.5" y="-121.5" font-family="Helvetica,sans-Serif" font-size="10.00">KNS_RFTX_setCfg</text>
</a>
</g>
</g>
<!-- Node3&#45;&gt;Node11 -->
<g id="edge13" class="edge">
<title>Node3&#45;&gt;Node11</title>
<path fill="none" stroke="midnightblue" d="M237.88,-209.31C260.76,-193.18 309.34,-160.87 355,-143 362.74,-139.97 371.06,-137.37 379.38,-135.15"/>
<polygon fill="midnightblue" stroke="midnightblue" points="380.24,-138.55 389.09,-132.72 378.54,-131.76 380.24,-138.55"/>
</g>
<!-- Node12 -->
<g id="node12" class="node">
<title>Node12</title>
<g id="a_node12"><a xlink:href="../../d7/d3a/group___k_n_s___r_f.html#ga8389adb73a411a65a9ae68a6ff0815a8" target="_top" xlink:title="This function starts the transmission immediately of the bitstream set into the tx buffer during the ...">
<polygon fill="white" stroke="black" points="367,-76.5 367,-95.5 516,-95.5 516,-76.5 367,-76.5"/>
<text text-anchor="middle" x="441.5" y="-83.5" font-family="Helvetica,sans-Serif" font-size="10.00">KNS_RFTX_startImmediate</text>
</a>
</g>
</g>
<!-- Node3&#45;&gt;Node12 -->
<g id="edge14" class="edge">
<title>Node3&#45;&gt;Node12</title>
<path fill="none" stroke="midnightblue" d="M232.51,-209.25C251.37,-187.01 301.04,-132.3 355,-105 359.83,-102.55 364.98,-100.42 370.25,-98.56"/>
<polygon fill="midnightblue" stroke="midnightblue" points="371.39,-101.87 379.85,-95.5 369.26,-95.21 371.39,-101.87"/>
</g>
<!-- Node13 -->
<g id="node13" class="node">
<title>Node13</title>
<g id="a_node13"><a xlink:href="../../d7/d3a/group___k_n_s___r_f.html#gaa259215b78a757967e3a30b5c30120df" target="_top" xlink:title="This function switch on the TCXO for the right time and callback is called when tcxo is considered re...">
<polygon fill="white" stroke="black" points="374,-38.5 374,-57.5 509,-57.5 509,-38.5 374,-38.5"/>
<text text-anchor="middle" x="441.5" y="-45.5" font-family="Helvetica,sans-Serif" font-size="10.00">KNS_RFTX_tcxoWarmup</text>
</a>
</g>
</g>
<!-- Node3&#45;&gt;Node13 -->
<g id="edge15" class="edge">
<title>Node3&#45;&gt;Node13</title>
<path fill="none" stroke="midnightblue" d="M229.78,-209.29C245.13,-182.03 292.65,-104.37 355,-67 358.67,-64.8 362.56,-62.86 366.59,-61.14"/>
<polygon fill="midnightblue" stroke="midnightblue" points="368.06,-64.32 376.18,-57.52 365.59,-57.77 368.06,-64.32"/>
</g>
<!-- Node14 -->
<g id="node14" class="node">
<title>Node14</title>
<g id="a_node14"><a xlink:href="../../d0/d0f/group___m_g_r___a_t___c_m_d.html#gaa9d6835fa67d6e39b880e04688f7ece9" target="_top" xlink:title="Log array of uint8_t.">
<polygon fill="white" stroke="black" points="393.5,-0.5 393.5,-19.5 489.5,-19.5 489.5,-0.5 393.5,-0.5"/>
<text text-anchor="middle" x="441.5" y="-7.5" font-family="Helvetica,sans-Serif" font-size="10.00">MGR_LOG_array</text>
</a>
</g>
</g>
<!-- Node3&#45;&gt;Node14 -->
<g id="edge16" class="edge">
<title>Node3&#45;&gt;Node14</title>
<path fill="none" stroke="midnightblue" d="M228.15,-209.2C240.52,-177.49 284.02,-76.92 355,-29 363.41,-23.32 373.25,-19.31 383.2,-16.49"/>
<polygon fill="midnightblue" stroke="midnightblue" points="384.26,-19.83 393.14,-14.04 382.59,-13.03 384.26,-19.83"/>
</g>
<!-- Node5 -->
<g id="node5" class="node">
<title>Node5</title>
<g id="a_node5"><a xlink:href="../../d8/d62/group___m_c_u___a_p_p___w_r_a_p_p_e_r_s.html#gae14ee3e1d2a9b459c0d89c451a4bc470" target="_top" xlink:title="Send AT CMD response to console.">
<polygon fill="white" stroke="black" points="564,-323.5 564,-342.5 702,-342.5 702,-323.5 564,-323.5"/>
<text text-anchor="middle" x="633" y="-330.5" font-family="Helvetica,sans-Serif" font-size="10.00">MCU_AT_CONSOLE_send</text>
</a>
</g>
</g>
<!-- Node4&#45;&gt;Node5 -->
<g id="edge4" class="edge">
<title>Node4&#45;&gt;Node5</title>
<path fill="none" stroke="midnightblue" d="M522.59,-343.97C532.89,-342.94 543.43,-341.88 553.71,-340.85"/>
<polygon fill="midnightblue" stroke="midnightblue" points="554.27,-344.31 563.87,-339.83 553.58,-337.35 554.27,-344.31"/>
</g>
<!-- Node6&#45;&gt;Node5 -->
<g id="edge6" class="edge">
<title>Node6&#45;&gt;Node5</title>
<path fill="none" stroke="midnightblue" d="M528.1,-322.58C536.61,-323.44 545.22,-324.3 553.64,-325.14"/>
<polygon fill="midnightblue" stroke="midnightblue" points="553.52,-328.65 563.82,-326.16 554.22,-321.68 553.52,-328.65"/>
</g>
</g>
</svg>
