<?xml version="1.0" encoding="UTF-8" standalone="no"?>
<!DOCTYPE svg PUBLIC "-//W3C//DTD SVG 1.1//EN"
 "http://www.w3.org/Graphics/SVG/1.1/DTD/svg11.dtd">
<!-- Generated by graphviz version 2.43.0 (0)
 -->
<!-- Title: bMGR_AT_CMD_ADDR_cmd Pages: 1 -->
<svg width="532pt" height="104pt"
 viewBox="0.00 0.00 532.00 104.00" xmlns="http://www.w3.org/2000/svg" xmlns:xlink="http://www.w3.org/1999/xlink">
<g id="graph0" class="graph" transform="scale(1 1) rotate(0) translate(4 100)">
<title>bMGR_AT_CMD_ADDR_cmd</title>
<polygon fill="white" stroke="transparent" points="-4,4 -4,-100 528,-100 528,4 -4,4"/>
<!-- Node1 -->
<g id="node1" class="node">
<title>Node1</title>
<g id="a_node1"><a xlink:title=" ">
<polygon fill="#bfbfbf" stroke="black" points="0,-38.5 0,-57.5 152,-57.5 152,-38.5 0,-38.5"/>
<text text-anchor="middle" x="76" y="-45.5" font-family="Helvetica,sans-Serif" font-size="10.00">bMGR_AT_CMD_ADDR_cmd</text>
</a>
</g>
</g>
<!-- Node2 -->
<g id="node2" class="node">
<title>Node2</title>
<g id="a_node2"><a xlink:href="../../d0/d0f/group___m_g_r___a_t___c_m_d.html#ga3d564aff9653e8bdc572d189093f1acc" target="_top" xlink:title="Log in debug interface a failed message.">
<polygon fill="white" stroke="black" points="188,-76.5 188,-95.5 350,-95.5 350,-76.5 188,-76.5"/>
<text text-anchor="middle" x="269" y="-83.5" font-family="Helvetica,sans-Serif" font-size="10.00">bMGR_AT_CMD_logFailedMsg</text>
</a>
</g>
</g>
<!-- Node1&#45;&gt;Node2 -->
<g id="edge1" class="edge">
<title>Node1&#45;&gt;Node2</title>
<path fill="none" stroke="midnightblue" d="M125.2,-57.59C150.97,-62.72 182.89,-69.07 210.01,-74.46"/>
<polygon fill="midnightblue" stroke="midnightblue" points="209.66,-77.96 220.15,-76.48 211.02,-71.1 209.66,-77.96"/>
</g>
<!-- Node3 -->
<g id="node3" class="node">
<title>Node3</title>
<g id="a_node3"><a xlink:href="../../d8/d62/group___m_c_u___a_p_p___w_r_a_p_p_e_r_s.html#gae14ee3e1d2a9b459c0d89c451a4bc470" target="_top" xlink:title="Send AT CMD response to console.">
<polygon fill="white" stroke="black" points="386,-57.5 386,-76.5 524,-76.5 524,-57.5 386,-57.5"/>
<text text-anchor="middle" x="455" y="-64.5" font-family="Helvetica,sans-Serif" font-size="10.00">MCU_AT_CONSOLE_send</text>
</a>
</g>
</g>
<!-- Node1&#45;&gt;Node3 -->
<g id="edge4" class="edge">
<title>Node1&#45;&gt;Node3</title>
<path fill="none" stroke="midnightblue" d="M152.39,-51.8C217.04,-55.06 309.88,-59.74 375.44,-63.04"/>
<polygon fill="midnightblue" stroke="midnightblue" points="375.55,-66.55 385.72,-63.56 375.91,-59.56 375.55,-66.55"/>
</g>
<!-- Node4 -->
<g id="node4" class="node">
<title>Node4</title>
<g id="a_node4"><a xlink:href="../../d0/d54/group___k_n_s___c_f_g.html#ga98f37cf0ac9c0588306e99ce62e3adac" target="_top" xlink:title="Get the Kineis device address.">
<polygon fill="white" stroke="black" points="216,-0.5 216,-19.5 322,-19.5 322,-0.5 216,-0.5"/>
<text text-anchor="middle" x="269" y="-7.5" font-family="Helvetica,sans-Serif" font-size="10.00">KNS_CFG_getAddr</text>
</a>
</g>
</g>
<!-- Node1&#45;&gt;Node4 -->
<g id="edge3" class="edge">
<title>Node1&#45;&gt;Node4</title>
<path fill="none" stroke="midnightblue" d="M125.2,-38.41C150.97,-33.28 182.89,-26.93 210.01,-21.54"/>
<polygon fill="midnightblue" stroke="midnightblue" points="211.02,-24.9 220.15,-19.52 209.66,-18.04 211.02,-24.9"/>
</g>
<!-- Node2&#45;&gt;Node3 -->
<g id="edge2" class="edge">
<title>Node2&#45;&gt;Node3</title>
<path fill="none" stroke="midnightblue" d="M350.17,-77.72C358.64,-76.85 367.24,-75.96 375.69,-75.09"/>
<polygon fill="midnightblue" stroke="midnightblue" points="376.31,-78.54 385.9,-74.03 375.59,-71.58 376.31,-78.54"/>
</g>
</g>
</svg>
