<?xml version="1.0" encoding="UTF-8" standalone="no"?>
<!DOCTYPE svg PUBLIC "-//W3C//DTD SVG 1.1//EN"
 "http://www.w3.org/Graphics/SVG/1.1/DTD/svg11.dtd">
<!-- Generated by graphviz version 2.43.0 (0)
 -->
<!-- Title: bMGR_AT_CMD_KMAC_cmd Pages: 1 -->
<svg width="572pt" height="192pt"
 viewBox="0.00 0.00 572.00 191.50" xmlns="http://www.w3.org/2000/svg" xmlns:xlink="http://www.w3.org/1999/xlink">
<g id="graph0" class="graph" transform="scale(1 1) rotate(0) translate(4 187.5)">
<title>bMGR_AT_CMD_KMAC_cmd</title>
<polygon fill="white" stroke="transparent" points="-4,4 -4,-187.5 568,-187.5 568,4 -4,4"/>
<!-- Node1 -->
<g id="node1" class="node">
<title>Node1</title>
<g id="a_node1"><a xlink:title="Process AT command &quot;AT+KMAC&quot; get/set the Kineis MAC profile.">
<polygon fill="#bfbfbf" stroke="black" points="0,-88 0,-107 153,-107 153,-88 0,-88"/>
<text text-anchor="middle" x="76.5" y="-95" font-family="Helvetica,sans-Serif" font-size="10.00">bMGR_AT_CMD_KMAC_cmd</text>
</a>
</g>
</g>
<!-- Node2 -->
<g id="node2" class="node">
<title>Node2</title>
<g id="a_node2"><a xlink:href="../../d0/d0f/group___m_g_r___a_t___c_m_d.html#ga3d564aff9653e8bdc572d189093f1acc" target="_top" xlink:title="Log in debug interface a failed message.">
<polygon fill="white" stroke="black" points="193,-164 193,-183 355,-183 355,-164 193,-164"/>
<text text-anchor="middle" x="274" y="-171" font-family="Helvetica,sans-Serif" font-size="10.00">bMGR_AT_CMD_logFailedMsg</text>
</a>
</g>
</g>
<!-- Node1&#45;&gt;Node2 -->
<g id="edge1" class="edge">
<title>Node1&#45;&gt;Node2</title>
<path fill="none" stroke="midnightblue" d="M95.66,-107.06C117.42,-118.26 155.18,-136.87 189,-149.5 200.54,-153.81 213.22,-157.8 225.15,-161.24"/>
<polygon fill="midnightblue" stroke="midnightblue" points="224.38,-164.66 234.95,-164 226.28,-157.92 224.38,-164.66"/>
</g>
<!-- Node3 -->
<g id="node3" class="node">
<title>Node3</title>
<g id="a_node3"><a xlink:href="../../d8/d62/group___m_c_u___a_p_p___w_r_a_p_p_e_r_s.html#gae14ee3e1d2a9b459c0d89c451a4bc470" target="_top" xlink:title="Send AT CMD response to console.">
<polygon fill="white" stroke="black" points="410.5,-145 410.5,-164 548.5,-164 548.5,-145 410.5,-145"/>
<text text-anchor="middle" x="479.5" y="-152" font-family="Helvetica,sans-Serif" font-size="10.00">MCU_AT_CONSOLE_send</text>
</a>
</g>
</g>
<!-- Node1&#45;&gt;Node3 -->
<g id="edge5" class="edge">
<title>Node1&#45;&gt;Node3</title>
<path fill="none" stroke="midnightblue" d="M130.75,-107C149.17,-110.17 169.97,-113.63 189,-116.5 260.28,-127.25 341.71,-137.78 400.01,-145.02"/>
<polygon fill="midnightblue" stroke="midnightblue" points="399.9,-148.53 410.25,-146.29 400.76,-141.59 399.9,-148.53"/>
</g>
<!-- Node4 -->
<g id="node4" class="node">
<title>Node4</title>
<g id="a_node4"><a xlink:href="../../df/dbc/group___k_n_s___m_a_c.html#ga98ce77ebaea4371a0845ef7b4e916763" target="_top" xlink:title="Get current MAC profile info.">
<polygon fill="white" stroke="black" points="213.5,-88 213.5,-107 334.5,-107 334.5,-88 213.5,-88"/>
<text text-anchor="middle" x="274" y="-95" font-family="Helvetica,sans-Serif" font-size="10.00">KNS_MAC_getPrflInfo</text>
</a>
</g>
</g>
<!-- Node1&#45;&gt;Node4 -->
<g id="edge3" class="edge">
<title>Node1&#45;&gt;Node4</title>
<path fill="none" stroke="midnightblue" d="M153.09,-97.5C169.48,-97.5 186.75,-97.5 202.92,-97.5"/>
<polygon fill="midnightblue" stroke="midnightblue" points="203.37,-101 213.37,-97.5 203.37,-94 203.37,-101"/>
</g>
<!-- Node5 -->
<g id="node5" class="node">
<title>Node5</title>
<g id="a_node5"><a xlink:href="../../d1/ddb/group___k_n_s___q.html#gac9a2be7939be73c32fd7eefb0d3ab3b3" target="_top" xlink:title="This function is used to push an element into a queue.">
<polygon fill="white" stroke="black" points="235,-50 235,-69 313,-69 313,-50 235,-50"/>
<text text-anchor="middle" x="274" y="-57" font-family="Helvetica,sans-Serif" font-size="10.00">KNS_Q_push</text>
</a>
</g>
</g>
<!-- Node1&#45;&gt;Node5 -->
<g id="edge4" class="edge">
<title>Node1&#45;&gt;Node5</title>
<path fill="none" stroke="midnightblue" d="M126.58,-87.96C156.63,-82.12 194.92,-74.68 224.8,-68.87"/>
<polygon fill="midnightblue" stroke="midnightblue" points="225.85,-72.23 235,-66.89 224.51,-65.36 225.85,-72.23"/>
</g>
<!-- Node6 -->
<g id="node6" class="node">
<title>Node6</title>
<g id="a_node6"><a xlink:href="../../d0/d0f/group___m_g_r___a_t___c_m_d.html#ga474b262632007c7cdccc1c36d53d3d00" target="_top" xlink:title=": convert the input form ASCII to binary.">
<polygon fill="white" stroke="black" points="189,-0.5 189,-30.5 359,-30.5 359,-0.5 189,-0.5"/>
<text text-anchor="start" x="197" y="-18.5" font-family="Helvetica,sans-Serif" font-size="10.00">u16MGR_AT_CMD_convertAscii</text>
<text text-anchor="middle" x="274" y="-7.5" font-family="Helvetica,sans-Serif" font-size="10.00">Binary</text>
</a>
</g>
</g>
<!-- Node1&#45;&gt;Node6 -->
<g id="edge6" class="edge">
<title>Node1&#45;&gt;Node6</title>
<path fill="none" stroke="midnightblue" d="M94.05,-87.82C115.44,-75.6 154.08,-54.48 189,-40.5 194.84,-38.16 200.98,-35.93 207.18,-33.82"/>
<polygon fill="midnightblue" stroke="midnightblue" points="208.52,-37.07 216.93,-30.63 206.34,-30.42 208.52,-37.07"/>
</g>
<!-- Node2&#45;&gt;Node3 -->
<g id="edge2" class="edge">
<title>Node2&#45;&gt;Node3</title>
<path fill="none" stroke="midnightblue" d="M355.14,-166.02C369.96,-164.63 385.42,-163.19 400.18,-161.81"/>
<polygon fill="midnightblue" stroke="midnightblue" points="400.65,-165.28 410.28,-160.87 400,-158.31 400.65,-165.28"/>
</g>
<!-- Node7 -->
<g id="node7" class="node">
<title>Node7</title>
<g id="a_node7"><a xlink:href="../../d8/da3/group___s_t_r_u_t_i_l_s.html#ga84065a55b8ebeb12a5e2a8e8ce2833fb" target="_top" xlink:title="convert an hexadecimal ASCII digit to a 4bits integer">
<polygon fill="white" stroke="black" points="395,-6 395,-25 564,-25 564,-6 395,-6"/>
<text text-anchor="middle" x="479.5" y="-13" font-family="Helvetica,sans-Serif" font-size="10.00">u8UTIL_convertCharToHex4bits</text>
</a>
</g>
</g>
<!-- Node6&#45;&gt;Node7 -->
<g id="edge7" class="edge">
<title>Node6&#45;&gt;Node7</title>
<path fill="none" stroke="midnightblue" d="M359.24,-15.5C367.73,-15.5 376.38,-15.5 384.96,-15.5"/>
<polygon fill="midnightblue" stroke="midnightblue" points="384.98,-19 394.98,-15.5 384.98,-12 384.98,-19"/>
</g>
</g>
</svg>
