<?xml version="1.0" encoding="UTF-8" standalone="no"?>
<!DOCTYPE svg PUBLIC "-//W3C//DTD SVG 1.1//EN"
 "http://www.w3.org/Graphics/SVG/1.1/DTD/svg11.dtd">
<!-- Generated by graphviz version 2.43.0 (0)
 -->
<!-- Title: bMGR_AT_CMD_TX_cmd Pages: 1 -->
<!--zoomable 258 -->
<svg id="main" version="1.1" xmlns="http://www.w3.org/2000/svg" xmlns:xlink="http://www.w3.org/1999/xlink" xml:space="preserve" onload="init(evt)">
<style type="text/css"><![CDATA[
.edge:hover path { stroke: red; }
.edge:hover polygon { stroke: red; fill: red; }
]]></style>
<script type="text/javascript"><![CDATA[
var edges = document.getElementsByTagName('g');
if (edges && edges.length) {
  for (var i=0;i<edges.length;i++) {
    if (edges[i].id.substr(0,4)=='edge') {
      edges[i].setAttribute('class','edge');
    }
  }
}
]]></script>
        <defs>
                <circle id="rim" cx="0" cy="0" r="7"/>
                <circle id="rim2" cx="0" cy="0" r="3.5"/>
                <g id="zoomPlus">
                        <use xlink:href="#rim" fill="#404040">
                                <set attributeName="fill" to="#808080" begin="zoomplus.mouseover" end="zoomplus.mouseout"/>
                        </use>
                        <path d="M-4,0h8M0,-4v8" fill="none" stroke="white" stroke-width="1.5" pointer-events="none"/>
                </g>
                <g id="zoomMin">
                        <use xlink:href="#rim" fill="#404040">
                                <set attributeName="fill" to="#808080" begin="zoomminus.mouseover" end="zoomminus.mouseout"/>
                        </use>
                        <path d="M-4,0h8" fill="none" stroke="white" stroke-width="1.5" pointer-events="none"/>
                </g>
                <g id="dirArrow">
                        <path fill="none" stroke="white" stroke-width="1.5" d="M0,-3.0v7 M-2.5,-0.5L0,-3.0L2.5,-0.5"/>
                </g>
               <g id="resetDef">
                       <use xlink:href="#rim2" fill="#404040">
                               <set attributeName="fill" to="#808080" begin="reset.mouseover" end="reset.mouseout"/>
                       </use>
               </g>
        </defs>

<script type="text/javascript">
var viewWidth = 950;
var viewHeight = 258;
var sectionId = 'dynsection-19';
</script>
<script xlink:href="../../svgpan.js"/>
<svg id="graph" class="graph">
<g id="viewport">
<title>bMGR_AT_CMD_TX_cmd</title>
<polygon fill="white" stroke="transparent" points="-4,4 -4,-254 946,-254 946,4 -4,4"/>
<!-- Node1 -->
<g id="node1" class="node">
<title>Node1</title>
<g id="a_node1"><a xlink:title="Process AT command &quot;AT+TX&quot; send user data.">
<polygon fill="#bfbfbf" stroke="black" points="0,-189.5 0,-208.5 137,-208.5 137,-189.5 0,-189.5"/>
<text text-anchor="middle" x="68.5" y="-196.5" font-family="Helvetica,sans-Serif" font-size="10.00">bMGR_AT_CMD_TX_cmd</text>
</a>
</g>
</g>
<!-- Node2 -->
<g id="node2" class="node">
<title>Node2</title>
<g id="a_node2"><a xlink:href="../../d0/d0f/group___m_g_r___a_t___c_m_d.html#gaaa9bdf10c9ac69ef778eea22f8225343" target="_top" xlink:title="Handle new TX data, this is the core function of AT+TX cmd.">
<polygon fill="white" stroke="black" points="173,-170.5 173,-189.5 361,-189.5 361,-170.5 173,-170.5"/>
<text text-anchor="middle" x="267" y="-177.5" font-family="Helvetica,sans-Serif" font-size="10.00">bMGR_AT_CMD_handleNewTxData</text>
</a>
</g>
</g>
<!-- Node1&#45;&gt;Node2 -->
<g id="edge1" class="edge">
<title>Node1&#45;&gt;Node2</title>
<path fill="none" stroke="midnightblue" d="M137.12,-192.46C145.42,-191.66 154.04,-190.83 162.72,-189.99"/>
<polygon fill="midnightblue" stroke="midnightblue" points="163.29,-193.45 172.91,-189 162.62,-186.48 163.29,-193.45"/>
</g>
<!-- Node3 -->
<g id="node3" class="node">
<title>Node3</title>
<g id="a_node3"><a xlink:href="../../d0/d0f/group___m_g_r___a_t___c_m_d.html#ga3d564aff9653e8bdc572d189093f1acc" target="_top" xlink:title="Log in debug interface a failed message.">
<polygon fill="white" stroke="black" points="401,-230.5 401,-249.5 563,-249.5 563,-230.5 401,-230.5"/>
<text text-anchor="middle" x="482" y="-237.5" font-family="Helvetica,sans-Serif" font-size="10.00">bMGR_AT_CMD_logFailedMsg</text>
</a>
</g>
</g>
<!-- Node1&#45;&gt;Node3 -->
<g id="edge16" class="edge">
<title>Node1&#45;&gt;Node3</title>
<path fill="none" stroke="midnightblue" d="M137.45,-205.77C206.71,-212.67 314.51,-223.41 390.86,-231.02"/>
<polygon fill="midnightblue" stroke="midnightblue" points="390.65,-234.52 400.95,-232.02 391.35,-227.55 390.65,-234.52"/>
</g>
<!-- Node2&#45;&gt;Node3 -->
<g id="edge2" class="edge">
<title>Node2&#45;&gt;Node3</title>
<path fill="none" stroke="midnightblue" d="M295.73,-189.57C321.71,-198.36 361.73,-211.43 397,-221 406.21,-223.5 416.05,-225.93 425.63,-228.18"/>
<polygon fill="midnightblue" stroke="midnightblue" points="424.96,-231.62 435.49,-230.45 426.53,-224.8 424.96,-231.62"/>
</g>
<!-- Node5 -->
<g id="node5" class="node">
<title>Node5</title>
<g id="a_node5"><a xlink:href="../../d1/ddb/group___k_n_s___q.html#gac9a2be7939be73c32fd7eefb0d3ab3b3" target="_top" xlink:title="This function is used to push an element into a queue.">
<polygon fill="white" stroke="black" points="443,-192.5 443,-211.5 521,-211.5 521,-192.5 443,-192.5"/>
<text text-anchor="middle" x="482" y="-199.5" font-family="Helvetica,sans-Serif" font-size="10.00">KNS_Q_push</text>
</a>
</g>
</g>
<!-- Node2&#45;&gt;Node5 -->
<g id="edge4" class="edge">
<title>Node2&#45;&gt;Node5</title>
<path fill="none" stroke="midnightblue" d="M360.19,-189.52C385.21,-192.11 411.31,-194.8 432.82,-197.02"/>
<polygon fill="midnightblue" stroke="midnightblue" points="432.68,-200.53 442.99,-198.07 433.4,-193.56 432.68,-200.53"/>
</g>
<!-- Node6 -->
<g id="node6" class="node">
<title>Node6</title>
<g id="a_node6"><a xlink:href="../../d0/d0f/group___m_g_r___a_t___c_m_d.html#ga474b262632007c7cdccc1c36d53d3d00" target="_top" xlink:title=": convert the input form ASCII to binary.">
<polygon fill="white" stroke="black" points="397,-143 397,-173 567,-173 567,-143 397,-143"/>
<text text-anchor="start" x="405" y="-161" font-family="Helvetica,sans-Serif" font-size="10.00">u16MGR_AT_CMD_convertAscii</text>
<text text-anchor="middle" x="482" y="-150" font-family="Helvetica,sans-Serif" font-size="10.00">Binary</text>
</a>
</g>
</g>
<!-- Node2&#45;&gt;Node6 -->
<g id="edge5" class="edge">
<title>Node2&#45;&gt;Node6</title>
<path fill="none" stroke="midnightblue" d="M360.19,-170.48C368.91,-169.58 377.77,-168.66 386.52,-167.76"/>
<polygon fill="midnightblue" stroke="midnightblue" points="387.14,-171.21 396.73,-166.7 386.42,-164.25 387.14,-171.21"/>
</g>
<!-- Node8 -->
<g id="node8" class="node">
<title>Node8</title>
<g id="a_node8"><a xlink:href="../../db/d4f/group___u_s_e_r___d_a_t_a.html#ga9dc3ef3b0eec939e8a61b25e0a107cbe" target="_top" xlink:title="Add element in TX fifo.">
<polygon fill="white" stroke="black" points="416,-66.5 416,-85.5 548,-85.5 548,-66.5 416,-66.5"/>
<text text-anchor="middle" x="482" y="-73.5" font-family="Helvetica,sans-Serif" font-size="10.00">USERDATA_txFifoAddElt</text>
</a>
</g>
</g>
<!-- Node2&#45;&gt;Node8 -->
<g id="edge7" class="edge">
<title>Node2&#45;&gt;Node8</title>
<path fill="none" stroke="midnightblue" d="M279.61,-170.22C301.26,-152.51 349.87,-115.07 397,-95 402.87,-92.5 409.11,-90.31 415.45,-88.39"/>
<polygon fill="midnightblue" stroke="midnightblue" points="416.74,-91.66 425.43,-85.59 414.86,-84.92 416.74,-91.66"/>
</g>
<!-- Node14 -->
<g id="node14" class="node">
<title>Node14</title>
<g id="a_node14"><a xlink:href="../../db/d4f/group___u_s_e_r___d_a_t_a.html#gacb676464a4de1543fa3e55314f740110" target="_top" xlink:title="Get an element from memory pool in a way to push it later.">
<polygon fill="white" stroke="black" points="405.5,-104.5 405.5,-123.5 558.5,-123.5 558.5,-104.5 405.5,-104.5"/>
<text text-anchor="middle" x="482" y="-111.5" font-family="Helvetica,sans-Serif" font-size="10.00">USERDATA_txFifoReserveElt</text>
</a>
</g>
</g>
<!-- Node2&#45;&gt;Node14 -->
<g id="edge14" class="edge">
<title>Node2&#45;&gt;Node14</title>
<path fill="none" stroke="midnightblue" d="M292.47,-170.38C318.22,-160.46 360.07,-144.95 397,-134 406.59,-131.16 416.9,-128.44 426.88,-125.97"/>
<polygon fill="midnightblue" stroke="midnightblue" points="427.83,-129.34 436.73,-123.59 426.19,-122.54 427.83,-129.34"/>
</g>
<!-- Node4 -->
<g id="node4" class="node">
<title>Node4</title>
<g id="a_node4"><a xlink:href="../../d8/d62/group___m_c_u___a_p_p___w_r_a_p_p_e_r_s.html#gae14ee3e1d2a9b459c0d89c451a4bc470" target="_top" xlink:title="Send AT CMD response to console.">
<polygon fill="white" stroke="black" points="618.5,-230.5 618.5,-249.5 756.5,-249.5 756.5,-230.5 618.5,-230.5"/>
<text text-anchor="middle" x="687.5" y="-237.5" font-family="Helvetica,sans-Serif" font-size="10.00">MCU_AT_CONSOLE_send</text>
</a>
</g>
</g>
<!-- Node3&#45;&gt;Node4 -->
<g id="edge3" class="edge">
<title>Node3&#45;&gt;Node4</title>
<path fill="none" stroke="midnightblue" d="M563.14,-240C577.96,-240 593.42,-240 608.18,-240"/>
<polygon fill="midnightblue" stroke="midnightblue" points="608.28,-243.5 618.28,-240 608.28,-236.5 608.28,-243.5"/>
</g>
<!-- Node7 -->
<g id="node7" class="node">
<title>Node7</title>
<g id="a_node7"><a xlink:href="../../d8/da3/group___s_t_r_u_t_i_l_s.html#ga84065a55b8ebeb12a5e2a8e8ce2833fb" target="_top" xlink:title="convert an hexadecimal ASCII digit to a 4bits integer">
<polygon fill="white" stroke="black" points="603,-148.5 603,-167.5 772,-167.5 772,-148.5 603,-148.5"/>
<text text-anchor="middle" x="687.5" y="-155.5" font-family="Helvetica,sans-Serif" font-size="10.00">u8UTIL_convertCharToHex4bits</text>
</a>
</g>
</g>
<!-- Node6&#45;&gt;Node7 -->
<g id="edge6" class="edge">
<title>Node6&#45;&gt;Node7</title>
<path fill="none" stroke="midnightblue" d="M567.24,-158C575.73,-158 584.38,-158 592.96,-158"/>
<polygon fill="midnightblue" stroke="midnightblue" points="592.98,-161.5 602.98,-158 592.98,-154.5 592.98,-161.5"/>
</g>
<!-- Node9 -->
<g id="node9" class="node">
<title>Node9</title>
<g id="a_node9"><a xlink:href="../../db/d4f/group___u_s_e_r___d_a_t_a.html#ga2c1ea014de9c2ba244dc6605a6edce59" target="_top" xlink:title="check element is part of the TX fifo or not">
<polygon fill="white" stroke="black" points="613.5,-104.5 613.5,-123.5 761.5,-123.5 761.5,-104.5 613.5,-104.5"/>
<text text-anchor="middle" x="687.5" y="-111.5" font-family="Helvetica,sans-Serif" font-size="10.00">USERDATA_txFifoIsEltInFifo</text>
</a>
</g>
</g>
<!-- Node8&#45;&gt;Node9 -->
<g id="edge8" class="edge">
<title>Node8&#45;&gt;Node9</title>
<path fill="none" stroke="midnightblue" d="M534.09,-85.54C561.79,-90.71 596.21,-97.14 625.33,-102.58"/>
<polygon fill="midnightblue" stroke="midnightblue" points="624.92,-106.06 635.39,-104.46 626.2,-99.18 624.92,-106.06"/>
</g>
<!-- Node10 -->
<g id="node10" class="node">
<title>Node10</title>
<g id="a_node10"><a xlink:href="../../db/d4f/group___u_s_e_r___d_a_t_a.html#ga532418c0e3adad36946ba9d346a163f4" target="_top" xlink:title="check the element is pointing on a valid address, i.e. one from sUserDataTxFifoBuf buffer">
<polygon fill="white" stroke="black" points="808,-95.5 808,-114.5 942,-114.5 942,-95.5 808,-95.5"/>
<text text-anchor="middle" x="875" y="-102.5" font-family="Helvetica,sans-Serif" font-size="10.00">USERDATA_txFifoIsInBuf</text>
</a>
</g>
</g>
<!-- Node8&#45;&gt;Node10 -->
<g id="edge10" class="edge">
<title>Node8&#45;&gt;Node10</title>
<path fill="none" stroke="midnightblue" d="M548.18,-79.69C606.78,-83.14 695.2,-88.71 772,-95 780.35,-95.68 789.08,-96.45 797.76,-97.26"/>
<polygon fill="midnightblue" stroke="midnightblue" points="797.63,-100.76 807.91,-98.21 798.28,-93.79 797.63,-100.76"/>
</g>
<!-- Node11 -->
<g id="node11" class="node">
<title>Node11</title>
<g id="a_node11"><a xlink:href="../../db/d4f/group___u_s_e_r___d_a_t_a.html#gafba02bd8b2e6ebad0b2f38b72e40ec21" target="_top" xlink:title="Log content of the TX fifo.">
<polygon fill="white" stroke="black" points="628.5,-28.5 628.5,-47.5 746.5,-47.5 746.5,-28.5 628.5,-28.5"/>
<text text-anchor="middle" x="687.5" y="-35.5" font-family="Helvetica,sans-Serif" font-size="10.00">USERDATA_txFifoLog</text>
</a>
</g>
</g>
<!-- Node8&#45;&gt;Node11 -->
<g id="edge11" class="edge">
<title>Node8&#45;&gt;Node11</title>
<path fill="none" stroke="midnightblue" d="M534.09,-66.46C561.79,-61.29 596.21,-54.86 625.33,-49.42"/>
<polygon fill="midnightblue" stroke="midnightblue" points="626.2,-52.82 635.39,-47.54 624.92,-45.94 626.2,-52.82"/>
</g>
<!-- Node9&#45;&gt;Node10 -->
<g id="edge9" class="edge">
<title>Node9&#45;&gt;Node10</title>
<path fill="none" stroke="midnightblue" d="M761.55,-110.46C773.51,-109.88 785.93,-109.27 797.96,-108.69"/>
<polygon fill="midnightblue" stroke="midnightblue" points="798.14,-112.18 807.95,-108.2 797.8,-105.19 798.14,-112.18"/>
</g>
<!-- Node12 -->
<g id="node12" class="node">
<title>Node12</title>
<g id="a_node12"><a xlink:href="../../d9/d2f/group___k_i_n_e_i_s___s_w___c_o_n_f.html#ga858c122b744e5d185b5abac307aae807" target="_top" xlink:title="Enter critical section.">
<polygon fill="white" stroke="black" points="832,-38.5 832,-57.5 918,-57.5 918,-38.5 832,-38.5"/>
<text text-anchor="middle" x="875" y="-45.5" font-family="Helvetica,sans-Serif" font-size="10.00">KNS_CS_enter</text>
</a>
</g>
</g>
<!-- Node11&#45;&gt;Node12 -->
<g id="edge12" class="edge">
<title>Node11&#45;&gt;Node12</title>
<path fill="none" stroke="midnightblue" d="M746.68,-41.14C770.75,-42.43 798.44,-43.93 821.83,-45.19"/>
<polygon fill="midnightblue" stroke="midnightblue" points="821.74,-48.69 831.91,-45.73 822.11,-41.7 821.74,-48.69"/>
</g>
<!-- Node13 -->
<g id="node13" class="node">
<title>Node13</title>
<g id="a_node13"><a xlink:href="../../d9/d2f/group___k_i_n_e_i_s___s_w___c_o_n_f.html#ga58b477bfcd987dcd7b733b98ab692fdc" target="_top" xlink:title="Exit critical section.">
<polygon fill="white" stroke="black" points="835.5,-0.5 835.5,-19.5 914.5,-19.5 914.5,-0.5 835.5,-0.5"/>
<text text-anchor="middle" x="875" y="-7.5" font-family="Helvetica,sans-Serif" font-size="10.00">KNS_CS_exit</text>
</a>
</g>
</g>
<!-- Node11&#45;&gt;Node13 -->
<g id="edge13" class="edge">
<title>Node11&#45;&gt;Node13</title>
<path fill="none" stroke="midnightblue" d="M746.68,-29.22C771.97,-25.4 801.26,-20.98 825.37,-17.34"/>
<polygon fill="midnightblue" stroke="midnightblue" points="825.99,-20.79 835.35,-15.83 824.94,-13.87 825.99,-20.79"/>
</g>
<!-- Node14&#45;&gt;Node9 -->
<g id="edge15" class="edge">
<title>Node14&#45;&gt;Node9</title>
<path fill="none" stroke="midnightblue" d="M558.78,-114C573.28,-114 588.54,-114 603.27,-114"/>
<polygon fill="midnightblue" stroke="midnightblue" points="603.36,-117.5 613.36,-114 603.36,-110.5 603.36,-117.5"/>
</g>
</g>
</svg>
        <g id="navigator" transform="translate(0 0)" fill="#404254">
                <rect fill="#f2f5e9" fill-opacity="0.5" stroke="#606060" stroke-width=".5" x="0" y="0" width="60" height="60"/>
                <use id="zoomplus" xlink:href="#zoomPlus" x="17" y="9" onmousedown="handleZoom(evt,'in')"/>
                <use id="zoomminus" xlink:href="#zoomMin" x="42" y="9" onmousedown="handleZoom(evt,'out')"/>
                <use id="reset" xlink:href="#resetDef" x="30" y="36" onmousedown="handleReset()"/>
                <g id="arrowUp" xlink:href="#dirArrow" transform="translate(30 24)" onmousedown="handlePan(0,-1)">
                  <use xlink:href="#rim" fill="#404040">
                        <set attributeName="fill" to="#808080" begin="arrowUp.mouseover" end="arrowUp.mouseout"/>
                  </use>
                  <path fill="none" stroke="white" stroke-width="1.5" d="M0,-3.0v7 M-2.5,-0.5L0,-3.0L2.5,-0.5"/>
                </g>
                <g id="arrowRight" xlink:href="#dirArrow" transform="rotate(90) translate(36 -43)" onmousedown="handlePan(1,0)">
                  <use xlink:href="#rim" fill="#404040">
                        <set attributeName="fill" to="#808080" begin="arrowRight.mouseover" end="arrowRight.mouseout"/>
                  </use>
                  <path fill="none" stroke="white" stroke-width="1.5" d="M0,-3.0v7 M-2.5,-0.5L0,-3.0L2.5,-0.5"/>
                </g>
                <g id="arrowDown" xlink:href="#dirArrow" transform="rotate(180) translate(-30 -48)" onmousedown="handlePan(0,1)">
                  <use xlink:href="#rim" fill="#404040">
                        <set attributeName="fill" to="#808080" begin="arrowDown.mouseover" end="arrowDown.mouseout"/>
                  </use>
                  <path fill="none" stroke="white" stroke-width="1.5" d="M0,-3.0v7 M-2.5,-0.5L0,-3.0L2.5,-0.5"/>
                </g>
                <g id="arrowLeft" xlink:href="#dirArrow" transform="rotate(270) translate(-36 17)" onmousedown="handlePan(-1,0)">
                  <use xlink:href="#rim" fill="#404040">
                        <set attributeName="fill" to="#808080" begin="arrowLeft.mouseover" end="arrowLeft.mouseout"/>
                  </use>
                  <path fill="none" stroke="white" stroke-width="1.5" d="M0,-3.0v7 M-2.5,-0.5L0,-3.0L2.5,-0.5"/>
                </g>
        </g>
        <svg viewBox="0 0 15 15" width="100%" height="30px" preserveAspectRatio="xMaxYMin meet">
         <g id="arrow_out" transform="scale(0.3 0.3)">
          <a xlink:href="group___m_g_r___a_t___c_m_d_ga0a4332fc4f8bad99c421588fe542a2bd_cgraph_org.svg" target="_base">
           <rect id="button" ry="5" rx="5" y="6" x="6" height="38" width="38"
                fill="#f2f5e9" fill-opacity="0.5" stroke="#606060" stroke-width="1.0"/>
           <path id="arrow"
             d="M 11.500037,31.436501 C 11.940474,20.09759 22.043105,11.32322 32.158766,21.979434 L 37.068811,17.246167 C 37.068811,17.246167 37.088388,32 37.088388,32 L 22.160133,31.978069 C 22.160133,31.978069 26.997745,27.140456 26.997745,27.140456 C 18.528582,18.264221 13.291696,25.230495 11.500037,31.436501 z"
             style="fill:#404040;"/>
          </a>
         </g>
        </svg>
</svg>
