<?xml version="1.0" encoding="UTF-8" standalone="no"?>
<!DOCTYPE svg PUBLIC "-//W3C//DTD SVG 1.1//EN"
 "http://www.w3.org/Graphics/SVG/1.1/DTD/svg11.dtd">
<!-- Generated by graphviz version 2.43.0 (0)
 -->
<!-- Title: MGR_AT_CMD_decodeAt Pages: 1 -->
<svg width="517pt" height="66pt"
 viewBox="0.00 0.00 517.00 66.00" xmlns="http://www.w3.org/2000/svg" xmlns:xlink="http://www.w3.org/1999/xlink">
<g id="graph0" class="graph" transform="scale(1 1) rotate(0) translate(4 62)">
<title>MGR_AT_CMD_decodeAt</title>
<polygon fill="white" stroke="transparent" points="-4,4 -4,-62 513,-62 513,4 -4,4"/>
<!-- Node1 -->
<g id="node1" class="node">
<title>Node1</title>
<g id="a_node1"><a xlink:title="Decode and exectue AT cmd if valid.">
<polygon fill="#bfbfbf" stroke="black" points="0,-19.5 0,-38.5 137,-38.5 137,-19.5 0,-19.5"/>
<text text-anchor="middle" x="68.5" y="-26.5" font-family="Helvetica,sans-Serif" font-size="10.00">MGR_AT_CMD_decodeAt</text>
</a>
</g>
</g>
<!-- Node2 -->
<g id="node2" class="node">
<title>Node2</title>
<g id="a_node2"><a xlink:href="../../d0/d0f/group___m_g_r___a_t___c_m_d.html#ga3d564aff9653e8bdc572d189093f1acc" target="_top" xlink:title="Log in debug interface a failed message.">
<polygon fill="white" stroke="black" points="173,-38.5 173,-57.5 335,-57.5 335,-38.5 173,-38.5"/>
<text text-anchor="middle" x="254" y="-45.5" font-family="Helvetica,sans-Serif" font-size="10.00">bMGR_AT_CMD_logFailedMsg</text>
</a>
</g>
</g>
<!-- Node1&#45;&gt;Node2 -->
<g id="edge1" class="edge">
<title>Node1&#45;&gt;Node2</title>
<path fill="none" stroke="midnightblue" d="M137.05,-35.99C145.42,-36.86 154.08,-37.76 162.73,-38.65"/>
<polygon fill="midnightblue" stroke="midnightblue" points="162.54,-42.15 172.85,-39.7 163.26,-35.19 162.54,-42.15"/>
</g>
<!-- Node4 -->
<g id="node4" class="node">
<title>Node4</title>
<g id="a_node4"><a xlink:href="../../d0/d0f/group___m_g_r___a_t___c_m_d.html#ga00f586ef524b455b8324900358922b2b" target="_top" xlink:title="Identifies AT command and its type (AT+XYZ=... or AT+XYZ=? or AT+XYZ? mode)">
<polygon fill="white" stroke="black" points="184,-0.5 184,-19.5 324,-19.5 324,-0.5 184,-0.5"/>
<text text-anchor="middle" x="254" y="-7.5" font-family="Helvetica,sans-Serif" font-size="10.00">MGR_AT_CMD_getAtType</text>
</a>
</g>
</g>
<!-- Node1&#45;&gt;Node4 -->
<g id="edge3" class="edge">
<title>Node1&#45;&gt;Node4</title>
<path fill="none" stroke="midnightblue" d="M137.05,-22.01C148.94,-20.77 161.42,-19.48 173.61,-18.22"/>
<polygon fill="midnightblue" stroke="midnightblue" points="174.17,-21.68 183.75,-17.17 173.45,-14.72 174.17,-21.68"/>
</g>
<!-- Node3 -->
<g id="node3" class="node">
<title>Node3</title>
<g id="a_node3"><a xlink:href="../../d8/d62/group___m_c_u___a_p_p___w_r_a_p_p_e_r_s.html#gae14ee3e1d2a9b459c0d89c451a4bc470" target="_top" xlink:title="Send AT CMD response to console.">
<polygon fill="white" stroke="black" points="371,-38.5 371,-57.5 509,-57.5 509,-38.5 371,-38.5"/>
<text text-anchor="middle" x="440" y="-45.5" font-family="Helvetica,sans-Serif" font-size="10.00">MCU_AT_CONSOLE_send</text>
</a>
</g>
</g>
<!-- Node2&#45;&gt;Node3 -->
<g id="edge2" class="edge">
<title>Node2&#45;&gt;Node3</title>
<path fill="none" stroke="midnightblue" d="M335.17,-48C343.64,-48 352.24,-48 360.69,-48"/>
<polygon fill="midnightblue" stroke="midnightblue" points="360.9,-51.5 370.9,-48 360.9,-44.5 360.9,-51.5"/>
</g>
<!-- Node5 -->
<g id="node5" class="node">
<title>Node5</title>
<g id="a_node5"><a xlink:href="../../d8/da3/group___s_t_r_u_t_i_l_s.html#gae730bd1326c8ae1ceefe014b119ad407" target="_top" xlink:title="Compare 2 strings.">
<polygon fill="white" stroke="black" points="398.5,-0.5 398.5,-19.5 481.5,-19.5 481.5,-0.5 398.5,-0.5"/>
<text text-anchor="middle" x="440" y="-7.5" font-family="Helvetica,sans-Serif" font-size="10.00">bUTIL_strcmp</text>
</a>
</g>
</g>
<!-- Node4&#45;&gt;Node5 -->
<g id="edge4" class="edge">
<title>Node4&#45;&gt;Node5</title>
<path fill="none" stroke="midnightblue" d="M324.04,-10C345.4,-10 368.53,-10 388.4,-10"/>
<polygon fill="midnightblue" stroke="midnightblue" points="388.47,-13.5 398.47,-10 388.47,-6.5 388.47,-13.5"/>
</g>
</g>
</svg>
