<?xml version="1.0" encoding="UTF-8" standalone="no"?>
<!DOCTYPE svg PUBLIC "-//W3C//DTD SVG 1.1//EN"
 "http://www.w3.org/Graphics/SVG/1.1/DTD/svg11.dtd">
<!-- Generated by graphviz version 2.43.0 (0)
 -->
<!-- Title: bMGR_AT_CMD_SN_cmd Pages: 1 -->
<svg width="517pt" height="104pt"
 viewBox="0.00 0.00 517.00 104.00" xmlns="http://www.w3.org/2000/svg" xmlns:xlink="http://www.w3.org/1999/xlink">
<g id="graph0" class="graph" transform="scale(1 1) rotate(0) translate(4 100)">
<title>bMGR_AT_CMD_SN_cmd</title>
<polygon fill="white" stroke="transparent" points="-4,4 -4,-100 513,-100 513,4 -4,4"/>
<!-- Node1 -->
<g id="node1" class="node">
<title>Node1</title>
<g id="a_node1"><a xlink:title=" ">
<polygon fill="#bfbfbf" stroke="black" points="0,-38.5 0,-57.5 137,-57.5 137,-38.5 0,-38.5"/>
<text text-anchor="middle" x="68.5" y="-45.5" font-family="Helvetica,sans-Serif" font-size="10.00">bMGR_AT_CMD_SN_cmd</text>
</a>
</g>
</g>
<!-- Node2 -->
<g id="node2" class="node">
<title>Node2</title>
<g id="a_node2"><a xlink:href="../../d0/d0f/group___m_g_r___a_t___c_m_d.html#ga3d564aff9653e8bdc572d189093f1acc" target="_top" xlink:title="Log in debug interface a failed message.">
<polygon fill="white" stroke="black" points="173,-76.5 173,-95.5 335,-95.5 335,-76.5 173,-76.5"/>
<text text-anchor="middle" x="254" y="-83.5" font-family="Helvetica,sans-Serif" font-size="10.00">bMGR_AT_CMD_logFailedMsg</text>
</a>
</g>
</g>
<!-- Node1&#45;&gt;Node2 -->
<g id="edge1" class="edge">
<title>Node1&#45;&gt;Node2</title>
<path fill="none" stroke="midnightblue" d="M115.8,-57.59C140.46,-62.69 170.96,-69.01 196.94,-74.39"/>
<polygon fill="midnightblue" stroke="midnightblue" points="196.53,-77.88 207.03,-76.48 197.95,-71.02 196.53,-77.88"/>
</g>
<!-- Node3 -->
<g id="node3" class="node">
<title>Node3</title>
<g id="a_node3"><a xlink:href="../../d8/d62/group___m_c_u___a_p_p___w_r_a_p_p_e_r_s.html#gae14ee3e1d2a9b459c0d89c451a4bc470" target="_top" xlink:title="Send AT CMD response to console.">
<polygon fill="white" stroke="black" points="371,-57.5 371,-76.5 509,-76.5 509,-57.5 371,-57.5"/>
<text text-anchor="middle" x="440" y="-64.5" font-family="Helvetica,sans-Serif" font-size="10.00">MCU_AT_CONSOLE_send</text>
</a>
</g>
</g>
<!-- Node1&#45;&gt;Node3 -->
<g id="edge4" class="edge">
<title>Node1&#45;&gt;Node3</title>
<path fill="none" stroke="midnightblue" d="M137.27,-51.48C200.26,-54.72 294.06,-59.55 360.33,-62.95"/>
<polygon fill="midnightblue" stroke="midnightblue" points="360.55,-66.47 370.72,-63.49 360.91,-59.48 360.55,-66.47"/>
</g>
<!-- Node4 -->
<g id="node4" class="node">
<title>Node4</title>
<g id="a_node4"><a xlink:href="../../d0/d54/group___k_n_s___c_f_g.html#ga5f9f5ba51f7cbb4126cadb63c138ffdc" target="_top" xlink:title="Get the device serial number.">
<polygon fill="white" stroke="black" points="205.5,-0.5 205.5,-19.5 302.5,-19.5 302.5,-0.5 205.5,-0.5"/>
<text text-anchor="middle" x="254" y="-7.5" font-family="Helvetica,sans-Serif" font-size="10.00">KNS_CFG_getSN</text>
</a>
</g>
</g>
<!-- Node1&#45;&gt;Node4 -->
<g id="edge3" class="edge">
<title>Node1&#45;&gt;Node4</title>
<path fill="none" stroke="midnightblue" d="M115.8,-38.41C140.46,-33.31 170.96,-26.99 196.94,-21.61"/>
<polygon fill="midnightblue" stroke="midnightblue" points="197.95,-24.98 207.03,-19.52 196.53,-18.12 197.95,-24.98"/>
</g>
<!-- Node2&#45;&gt;Node3 -->
<g id="edge2" class="edge">
<title>Node2&#45;&gt;Node3</title>
<path fill="none" stroke="midnightblue" d="M335.17,-77.72C343.64,-76.85 352.24,-75.96 360.69,-75.09"/>
<polygon fill="midnightblue" stroke="midnightblue" points="361.31,-78.54 370.9,-74.03 360.59,-71.58 361.31,-78.54"/>
</g>
</g>
</svg>
