<?xml version="1.0" encoding="UTF-8" standalone="no"?>
<!DOCTYPE svg PUBLIC "-//W3C//DTD SVG 1.1//EN"
 "http://www.w3.org/Graphics/SVG/1.1/DTD/svg11.dtd">
<!-- Generated by graphviz version 2.43.0 (0)
 -->
<!-- Title: bMGR_AT_CMD_handleNewTxData Pages: 1 -->
<svg width="777pt" height="258pt"
 viewBox="0.00 0.00 777.00 258.00" xmlns="http://www.w3.org/2000/svg" xmlns:xlink="http://www.w3.org/1999/xlink">
<g id="graph0" class="graph" transform="scale(1 1) rotate(0) translate(4 254)">
<title>bMGR_AT_CMD_handleNewTxData</title>
<polygon fill="white" stroke="transparent" points="-4,4 -4,-254 773,-254 773,4 -4,4"/>
<!-- Node1 -->
<g id="node1" class="node">
<title>Node1</title>
<g id="a_node1"><a xlink:title="Handle new TX data, this is the core function of AT+TX cmd.">
<polygon fill="#bfbfbf" stroke="black" points="0,-148.5 0,-167.5 188,-167.5 188,-148.5 0,-148.5"/>
<text text-anchor="middle" x="94" y="-155.5" font-family="Helvetica,sans-Serif" font-size="10.00">bMGR_AT_CMD_handleNewTxData</text>
</a>
</g>
</g>
<!-- Node2 -->
<g id="node2" class="node">
<title>Node2</title>
<g id="a_node2"><a xlink:href="../../d0/d0f/group___m_g_r___a_t___c_m_d.html#ga3d564aff9653e8bdc572d189093f1acc" target="_top" xlink:title="Log in debug interface a failed message.">
<polygon fill="white" stroke="black" points="228,-230.5 228,-249.5 390,-249.5 390,-230.5 228,-230.5"/>
<text text-anchor="middle" x="309" y="-237.5" font-family="Helvetica,sans-Serif" font-size="10.00">bMGR_AT_CMD_logFailedMsg</text>
</a>
</g>
</g>
<!-- Node1&#45;&gt;Node2 -->
<g id="edge1" class="edge">
<title>Node1&#45;&gt;Node2</title>
<path fill="none" stroke="midnightblue" d="M111.57,-167.65C135.61,-181.29 181.92,-206.19 224,-221 231.34,-223.58 239.16,-225.9 246.98,-227.95"/>
<polygon fill="midnightblue" stroke="midnightblue" points="246.27,-231.39 256.82,-230.41 247.97,-224.59 246.27,-231.39"/>
</g>
<!-- Node4 -->
<g id="node4" class="node">
<title>Node4</title>
<g id="a_node4"><a xlink:href="../../d1/ddb/group___k_n_s___q.html#gac9a2be7939be73c32fd7eefb0d3ab3b3" target="_top" xlink:title="This function is used to push an element into a queue.">
<polygon fill="white" stroke="black" points="270,-192.5 270,-211.5 348,-211.5 348,-192.5 270,-192.5"/>
<text text-anchor="middle" x="309" y="-199.5" font-family="Helvetica,sans-Serif" font-size="10.00">KNS_Q_push</text>
</a>
</g>
</g>
<!-- Node1&#45;&gt;Node4 -->
<g id="edge3" class="edge">
<title>Node1&#45;&gt;Node4</title>
<path fill="none" stroke="midnightblue" d="M141.22,-167.55C176.19,-174.77 224.08,-184.66 259.58,-192"/>
<polygon fill="midnightblue" stroke="midnightblue" points="259.2,-195.49 269.7,-194.09 260.62,-188.64 259.2,-195.49"/>
</g>
<!-- Node5 -->
<g id="node5" class="node">
<title>Node5</title>
<g id="a_node5"><a xlink:href="../../d0/d0f/group___m_g_r___a_t___c_m_d.html#ga474b262632007c7cdccc1c36d53d3d00" target="_top" xlink:title=": convert the input form ASCII to binary.">
<polygon fill="white" stroke="black" points="224,-143 224,-173 394,-173 394,-143 224,-143"/>
<text text-anchor="start" x="232" y="-161" font-family="Helvetica,sans-Serif" font-size="10.00">u16MGR_AT_CMD_convertAscii</text>
<text text-anchor="middle" x="309" y="-150" font-family="Helvetica,sans-Serif" font-size="10.00">Binary</text>
</a>
</g>
</g>
<!-- Node1&#45;&gt;Node5 -->
<g id="edge4" class="edge">
<title>Node1&#45;&gt;Node5</title>
<path fill="none" stroke="midnightblue" d="M188.12,-158C196.55,-158 205.1,-158 213.55,-158"/>
<polygon fill="midnightblue" stroke="midnightblue" points="213.79,-161.5 223.79,-158 213.79,-154.5 213.79,-161.5"/>
</g>
<!-- Node7 -->
<g id="node7" class="node">
<title>Node7</title>
<g id="a_node7"><a xlink:href="../../db/d4f/group___u_s_e_r___d_a_t_a.html#ga9dc3ef3b0eec939e8a61b25e0a107cbe" target="_top" xlink:title="Add element in TX fifo.">
<polygon fill="white" stroke="black" points="243,-66.5 243,-85.5 375,-85.5 375,-66.5 243,-66.5"/>
<text text-anchor="middle" x="309" y="-73.5" font-family="Helvetica,sans-Serif" font-size="10.00">USERDATA_txFifoAddElt</text>
</a>
</g>
</g>
<!-- Node1&#45;&gt;Node7 -->
<g id="edge6" class="edge">
<title>Node1&#45;&gt;Node7</title>
<path fill="none" stroke="midnightblue" d="M111.57,-148.35C135.61,-134.71 181.92,-109.81 224,-95 231.34,-92.42 239.16,-90.1 246.98,-88.05"/>
<polygon fill="midnightblue" stroke="midnightblue" points="247.97,-91.41 256.82,-85.59 246.27,-84.61 247.97,-91.41"/>
</g>
<!-- Node13 -->
<g id="node13" class="node">
<title>Node13</title>
<g id="a_node13"><a xlink:href="../../db/d4f/group___u_s_e_r___d_a_t_a.html#gacb676464a4de1543fa3e55314f740110" target="_top" xlink:title="Get an element from memory pool in a way to push it later.">
<polygon fill="white" stroke="black" points="232.5,-104.5 232.5,-123.5 385.5,-123.5 385.5,-104.5 232.5,-104.5"/>
<text text-anchor="middle" x="309" y="-111.5" font-family="Helvetica,sans-Serif" font-size="10.00">USERDATA_txFifoReserveElt</text>
</a>
</g>
</g>
<!-- Node1&#45;&gt;Node13 -->
<g id="edge13" class="edge">
<title>Node1&#45;&gt;Node13</title>
<path fill="none" stroke="midnightblue" d="M141.22,-148.45C173.74,-141.74 217.43,-132.71 251.94,-125.58"/>
<polygon fill="midnightblue" stroke="midnightblue" points="252.79,-128.98 261.87,-123.53 251.37,-122.12 252.79,-128.98"/>
</g>
<!-- Node3 -->
<g id="node3" class="node">
<title>Node3</title>
<g id="a_node3"><a xlink:href="../../d8/d62/group___m_c_u___a_p_p___w_r_a_p_p_e_r_s.html#gae14ee3e1d2a9b459c0d89c451a4bc470" target="_top" xlink:title="Send AT CMD response to console.">
<polygon fill="white" stroke="black" points="445.5,-230.5 445.5,-249.5 583.5,-249.5 583.5,-230.5 445.5,-230.5"/>
<text text-anchor="middle" x="514.5" y="-237.5" font-family="Helvetica,sans-Serif" font-size="10.00">MCU_AT_CONSOLE_send</text>
</a>
</g>
</g>
<!-- Node2&#45;&gt;Node3 -->
<g id="edge2" class="edge">
<title>Node2&#45;&gt;Node3</title>
<path fill="none" stroke="midnightblue" d="M390.14,-240C404.96,-240 420.42,-240 435.18,-240"/>
<polygon fill="midnightblue" stroke="midnightblue" points="435.28,-243.5 445.28,-240 435.28,-236.5 435.28,-243.5"/>
</g>
<!-- Node6 -->
<g id="node6" class="node">
<title>Node6</title>
<g id="a_node6"><a xlink:href="../../d8/da3/group___s_t_r_u_t_i_l_s.html#ga84065a55b8ebeb12a5e2a8e8ce2833fb" target="_top" xlink:title="convert an hexadecimal ASCII digit to a 4bits integer">
<polygon fill="white" stroke="black" points="430,-148.5 430,-167.5 599,-167.5 599,-148.5 430,-148.5"/>
<text text-anchor="middle" x="514.5" y="-155.5" font-family="Helvetica,sans-Serif" font-size="10.00">u8UTIL_convertCharToHex4bits</text>
</a>
</g>
</g>
<!-- Node5&#45;&gt;Node6 -->
<g id="edge5" class="edge">
<title>Node5&#45;&gt;Node6</title>
<path fill="none" stroke="midnightblue" d="M394.24,-158C402.73,-158 411.38,-158 419.96,-158"/>
<polygon fill="midnightblue" stroke="midnightblue" points="419.98,-161.5 429.98,-158 419.98,-154.5 419.98,-161.5"/>
</g>
<!-- Node8 -->
<g id="node8" class="node">
<title>Node8</title>
<g id="a_node8"><a xlink:href="../../db/d4f/group___u_s_e_r___d_a_t_a.html#ga2c1ea014de9c2ba244dc6605a6edce59" target="_top" xlink:title="check element is part of the TX fifo or not">
<polygon fill="white" stroke="black" points="440.5,-104.5 440.5,-123.5 588.5,-123.5 588.5,-104.5 440.5,-104.5"/>
<text text-anchor="middle" x="514.5" y="-111.5" font-family="Helvetica,sans-Serif" font-size="10.00">USERDATA_txFifoIsEltInFifo</text>
</a>
</g>
</g>
<!-- Node7&#45;&gt;Node8 -->
<g id="edge7" class="edge">
<title>Node7&#45;&gt;Node8</title>
<path fill="none" stroke="midnightblue" d="M361.09,-85.54C388.79,-90.71 423.21,-97.14 452.33,-102.58"/>
<polygon fill="midnightblue" stroke="midnightblue" points="451.92,-106.06 462.39,-104.46 453.2,-99.18 451.92,-106.06"/>
</g>
<!-- Node9 -->
<g id="node9" class="node">
<title>Node9</title>
<g id="a_node9"><a xlink:href="../../db/d4f/group___u_s_e_r___d_a_t_a.html#ga532418c0e3adad36946ba9d346a163f4" target="_top" xlink:title="check the element is pointing on a valid address, i.e. one from sUserDataTxFifoBuf buffer">
<polygon fill="white" stroke="black" points="635,-95.5 635,-114.5 769,-114.5 769,-95.5 635,-95.5"/>
<text text-anchor="middle" x="702" y="-102.5" font-family="Helvetica,sans-Serif" font-size="10.00">USERDATA_txFifoIsInBuf</text>
</a>
</g>
</g>
<!-- Node7&#45;&gt;Node9 -->
<g id="edge9" class="edge">
<title>Node7&#45;&gt;Node9</title>
<path fill="none" stroke="midnightblue" d="M375.18,-79.69C433.78,-83.14 522.2,-88.71 599,-95 607.35,-95.68 616.08,-96.45 624.76,-97.26"/>
<polygon fill="midnightblue" stroke="midnightblue" points="624.63,-100.76 634.91,-98.21 625.28,-93.79 624.63,-100.76"/>
</g>
<!-- Node10 -->
<g id="node10" class="node">
<title>Node10</title>
<g id="a_node10"><a xlink:href="../../db/d4f/group___u_s_e_r___d_a_t_a.html#gafba02bd8b2e6ebad0b2f38b72e40ec21" target="_top" xlink:title="Log content of the TX fifo.">
<polygon fill="white" stroke="black" points="455.5,-28.5 455.5,-47.5 573.5,-47.5 573.5,-28.5 455.5,-28.5"/>
<text text-anchor="middle" x="514.5" y="-35.5" font-family="Helvetica,sans-Serif" font-size="10.00">USERDATA_txFifoLog</text>
</a>
</g>
</g>
<!-- Node7&#45;&gt;Node10 -->
<g id="edge10" class="edge">
<title>Node7&#45;&gt;Node10</title>
<path fill="none" stroke="midnightblue" d="M361.09,-66.46C388.79,-61.29 423.21,-54.86 452.33,-49.42"/>
<polygon fill="midnightblue" stroke="midnightblue" points="453.2,-52.82 462.39,-47.54 451.92,-45.94 453.2,-52.82"/>
</g>
<!-- Node8&#45;&gt;Node9 -->
<g id="edge8" class="edge">
<title>Node8&#45;&gt;Node9</title>
<path fill="none" stroke="midnightblue" d="M588.55,-110.46C600.51,-109.88 612.93,-109.27 624.96,-108.69"/>
<polygon fill="midnightblue" stroke="midnightblue" points="625.14,-112.18 634.95,-108.2 624.8,-105.19 625.14,-112.18"/>
</g>
<!-- Node11 -->
<g id="node11" class="node">
<title>Node11</title>
<g id="a_node11"><a xlink:href="../../d9/d2f/group___k_i_n_e_i_s___s_w___c_o_n_f.html#ga858c122b744e5d185b5abac307aae807" target="_top" xlink:title="Enter critical section.">
<polygon fill="white" stroke="black" points="659,-38.5 659,-57.5 745,-57.5 745,-38.5 659,-38.5"/>
<text text-anchor="middle" x="702" y="-45.5" font-family="Helvetica,sans-Serif" font-size="10.00">KNS_CS_enter</text>
</a>
</g>
</g>
<!-- Node10&#45;&gt;Node11 -->
<g id="edge11" class="edge">
<title>Node10&#45;&gt;Node11</title>
<path fill="none" stroke="midnightblue" d="M573.68,-41.14C597.75,-42.43 625.44,-43.93 648.83,-45.19"/>
<polygon fill="midnightblue" stroke="midnightblue" points="648.74,-48.69 658.91,-45.73 649.11,-41.7 648.74,-48.69"/>
</g>
<!-- Node12 -->
<g id="node12" class="node">
<title>Node12</title>
<g id="a_node12"><a xlink:href="../../d9/d2f/group___k_i_n_e_i_s___s_w___c_o_n_f.html#ga58b477bfcd987dcd7b733b98ab692fdc" target="_top" xlink:title="Exit critical section.">
<polygon fill="white" stroke="black" points="662.5,-0.5 662.5,-19.5 741.5,-19.5 741.5,-0.5 662.5,-0.5"/>
<text text-anchor="middle" x="702" y="-7.5" font-family="Helvetica,sans-Serif" font-size="10.00">KNS_CS_exit</text>
</a>
</g>
</g>
<!-- Node10&#45;&gt;Node12 -->
<g id="edge12" class="edge">
<title>Node10&#45;&gt;Node12</title>
<path fill="none" stroke="midnightblue" d="M573.68,-29.22C598.97,-25.4 628.26,-20.98 652.37,-17.34"/>
<polygon fill="midnightblue" stroke="midnightblue" points="652.99,-20.79 662.35,-15.83 651.94,-13.87 652.99,-20.79"/>
</g>
<!-- Node13&#45;&gt;Node8 -->
<g id="edge14" class="edge">
<title>Node13&#45;&gt;Node8</title>
<path fill="none" stroke="midnightblue" d="M385.78,-114C400.28,-114 415.54,-114 430.27,-114"/>
<polygon fill="midnightblue" stroke="midnightblue" points="430.36,-117.5 440.36,-114 430.36,-110.5 430.36,-117.5"/>
</g>
</g>
</svg>
