<?xml version="1.0" encoding="UTF-8" standalone="no"?>
<!DOCTYPE svg PUBLIC "-//W3C//DTD SVG 1.1//EN"
 "http://www.w3.org/Graphics/SVG/1.1/DTD/svg11.dtd">
<!-- Generated by graphviz version 2.43.0 (0)
 -->
<!-- Title: MGR_AT_CMD_macEvtProcess Pages: 1 -->
<svg width="761pt" height="370pt"
 viewBox="0.00 0.00 761.00 370.00" xmlns="http://www.w3.org/2000/svg" xmlns:xlink="http://www.w3.org/1999/xlink">
<g id="graph0" class="graph" transform="scale(1 1) rotate(0) translate(4 366)">
<title>MGR_AT_CMD_macEvtProcess</title>
<polygon fill="white" stroke="transparent" points="-4,4 -4,-366 757,-366 757,4 -4,4"/>
<!-- Node1 -->
<g id="node1" class="node">
<title>Node1</title>
<g id="a_node1"><a xlink:title="Fct used to retreive and process event coming from kineis stack as answers to AT commands.">
<polygon fill="#bfbfbf" stroke="black" points="0,-152.5 0,-171.5 166,-171.5 166,-152.5 0,-152.5"/>
<text text-anchor="middle" x="83" y="-159.5" font-family="Helvetica,sans-Serif" font-size="10.00">MGR_AT_CMD_macEvtProcess</text>
</a>
</g>
</g>
<!-- Node2 -->
<g id="node2" class="node">
<title>Node2</title>
<g id="a_node2"><a xlink:href="../../d0/d0f/group___m_g_r___a_t___c_m_d.html#ga3d564aff9653e8bdc572d189093f1acc" target="_top" xlink:title="Log in debug interface a failed message.">
<polygon fill="white" stroke="black" points="411.5,-216.5 411.5,-235.5 573.5,-235.5 573.5,-216.5 411.5,-216.5"/>
<text text-anchor="middle" x="492.5" y="-223.5" font-family="Helvetica,sans-Serif" font-size="10.00">bMGR_AT_CMD_logFailedMsg</text>
</a>
</g>
</g>
<!-- Node1&#45;&gt;Node2 -->
<g id="edge1" class="edge">
<title>Node1&#45;&gt;Node2</title>
<path fill="none" stroke="midnightblue" d="M98.5,-171.55C120.03,-185.11 162.19,-209.38 202,-219 267.35,-234.79 343.42,-235.99 401.18,-233.54"/>
<polygon fill="midnightblue" stroke="midnightblue" points="401.55,-237.03 411.38,-233.06 401.22,-230.04 401.55,-237.03"/>
</g>
<!-- Node4 -->
<g id="node4" class="node">
<title>Node4</title>
<g id="a_node4"><a xlink:href="../../d0/d0f/group___m_g_r___a_t___c_m_d.html#gabef580da46cf82ca74ba3e5217cf3ffa" target="_top" xlink:title=": Log in debug interface a succeed message">
<polygon fill="white" stroke="black" points="406,-342.5 406,-361.5 579,-361.5 579,-342.5 406,-342.5"/>
<text text-anchor="middle" x="492.5" y="-349.5" font-family="Helvetica,sans-Serif" font-size="10.00">bMGR_AT_CMD_logSucceedMsg</text>
</a>
</g>
</g>
<!-- Node1&#45;&gt;Node4 -->
<g id="edge3" class="edge">
<title>Node1&#45;&gt;Node4</title>
<path fill="none" stroke="midnightblue" d="M89.43,-171.62C104.03,-196.54 146.81,-263.42 202,-295 260.95,-328.73 336.48,-342.81 395.62,-348.55"/>
<polygon fill="midnightblue" stroke="midnightblue" points="395.44,-352.05 405.71,-349.46 396.07,-345.08 395.44,-352.05"/>
</g>
<!-- Node5 -->
<g id="node5" class="node">
<title>Node5</title>
<g id="a_node5"><a xlink:href="../../d0/d0f/group___m_g_r___a_t___c_m_d.html#gae5c3c3791220ed4687558e8681648a0d" target="_top" xlink:title=": This function writes in UART the response of specific command">
<polygon fill="white" stroke="black" points="202,-266.5 202,-285.5 370,-285.5 370,-266.5 202,-266.5"/>
<text text-anchor="middle" x="286" y="-273.5" font-family="Helvetica,sans-Serif" font-size="10.00">bMGR_AT_CMD_sendResponse</text>
</a>
</g>
</g>
<!-- Node1&#45;&gt;Node5 -->
<g id="edge5" class="edge">
<title>Node1&#45;&gt;Node5</title>
<path fill="none" stroke="midnightblue" d="M93.85,-171.61C113.07,-189.84 157.59,-229.63 202,-252 211.04,-256.55 221.09,-260.38 230.98,-263.53"/>
<polygon fill="midnightblue" stroke="midnightblue" points="230.19,-266.95 240.77,-266.47 232.2,-260.25 230.19,-266.95"/>
</g>
<!-- Node7 -->
<g id="node7" class="node">
<title>Node7</title>
<g id="a_node7"><a xlink:href="../../d1/ddb/group___k_n_s___q.html#ga200d86f8adcbe9365bcec0cc085c91c0" target="_top" xlink:title="This function is used to pop next element from a queue.">
<polygon fill="white" stroke="black" points="249.5,-190.5 249.5,-209.5 322.5,-209.5 322.5,-190.5 249.5,-190.5"/>
<text text-anchor="middle" x="286" y="-197.5" font-family="Helvetica,sans-Serif" font-size="10.00">KNS_Q_pop</text>
</a>
</g>
</g>
<!-- Node1&#45;&gt;Node7 -->
<g id="edge9" class="edge">
<title>Node1&#45;&gt;Node7</title>
<path fill="none" stroke="midnightblue" d="M134.46,-171.54C166.64,-177.62 208.01,-185.44 239.23,-191.35"/>
<polygon fill="midnightblue" stroke="midnightblue" points="238.93,-194.85 249.41,-193.27 240.23,-187.97 238.93,-194.85"/>
</g>
<!-- Node8 -->
<g id="node8" class="node">
<title>Node8</title>
<g id="a_node8"><a xlink:href="../../d0/d0f/group___m_g_r___a_t___c_m_d.html#gacc929e5b70f2d6fefaa89d8aabf18773" target="_top" xlink:title="Set/clear a GPIO around transmission.">
<polygon fill="white" stroke="black" points="249,-152.5 249,-171.5 323,-171.5 323,-152.5 249,-152.5"/>
<text text-anchor="middle" x="286" y="-159.5" font-family="Helvetica,sans-Serif" font-size="10.00">Set_TX_LED</text>
</a>
</g>
</g>
<!-- Node1&#45;&gt;Node8 -->
<g id="edge10" class="edge">
<title>Node1&#45;&gt;Node8</title>
<path fill="none" stroke="midnightblue" d="M166.04,-162C190.77,-162 217.03,-162 238.57,-162"/>
<polygon fill="midnightblue" stroke="midnightblue" points="238.74,-165.5 248.74,-162 238.74,-158.5 238.74,-165.5"/>
</g>
<!-- Node9 -->
<g id="node9" class="node">
<title>Node9</title>
<g id="a_node9"><a xlink:href="../../db/d4f/group___u_s_e_r___d_a_t_a.html#ga7bf3cf40b0f5041d24a722e26347c83d" target="_top" xlink:title="get first element which contains the expected payload">
<polygon fill="white" stroke="black" points="206.5,-114.5 206.5,-133.5 365.5,-133.5 365.5,-114.5 206.5,-114.5"/>
<text text-anchor="middle" x="286" y="-121.5" font-family="Helvetica,sans-Serif" font-size="10.00">USERDATA_txFifoFindPayload</text>
</a>
</g>
</g>
<!-- Node1&#45;&gt;Node9 -->
<g id="edge11" class="edge">
<title>Node1&#45;&gt;Node9</title>
<path fill="none" stroke="midnightblue" d="M134.46,-152.46C161.82,-147.29 195.82,-140.86 224.58,-135.42"/>
<polygon fill="midnightblue" stroke="midnightblue" points="225.34,-138.84 234.52,-133.54 224.04,-131.96 225.34,-138.84"/>
</g>
<!-- Node10 -->
<g id="node10" class="node">
<title>Node10</title>
<g id="a_node10"><a xlink:href="../../db/d4f/group___u_s_e_r___d_a_t_a.html#ga029850e8ca80a3be9b099582f5c7488a" target="_top" xlink:title="flush TX fifo">
<polygon fill="white" stroke="black" points="222.5,-76.5 222.5,-95.5 349.5,-95.5 349.5,-76.5 222.5,-76.5"/>
<text text-anchor="middle" x="286" y="-83.5" font-family="Helvetica,sans-Serif" font-size="10.00">USERDATA_txFifoFlush</text>
</a>
</g>
</g>
<!-- Node1&#45;&gt;Node10 -->
<g id="edge12" class="edge">
<title>Node1&#45;&gt;Node10</title>
<path fill="none" stroke="midnightblue" d="M100.68,-152.45C123.09,-139.98 164.43,-118.18 202,-105 209.36,-102.42 217.2,-100.09 225.03,-98.03"/>
<polygon fill="midnightblue" stroke="midnightblue" points="226.04,-101.39 234.89,-95.56 224.34,-94.6 226.04,-101.39"/>
</g>
<!-- Node15 -->
<g id="node15" class="node">
<title>Node15</title>
<g id="a_node15"><a xlink:href="../../db/d4f/group___u_s_e_r___d_a_t_a.html#gac0082e264a11102f05874ef9f0609e26" target="_top" xlink:title="get first element of the TX Fifo">
<polygon fill="white" stroke="black" points="217,-0.5 217,-19.5 355,-19.5 355,-0.5 217,-0.5"/>
<text text-anchor="middle" x="286" y="-7.5" font-family="Helvetica,sans-Serif" font-size="10.00">USERDATA_txFifoGetFirst</text>
</a>
</g>
</g>
<!-- Node1&#45;&gt;Node15 -->
<g id="edge19" class="edge">
<title>Node1&#45;&gt;Node15</title>
<path fill="none" stroke="midnightblue" d="M89.49,-152.47C104.22,-127.79 147.3,-61.42 202,-29 205.65,-26.84 209.52,-24.92 213.52,-23.22"/>
<polygon fill="midnightblue" stroke="midnightblue" points="214.92,-26.44 223.05,-19.64 212.45,-19.89 214.92,-26.44"/>
</g>
<!-- Node16 -->
<g id="node16" class="node">
<title>Node16</title>
<g id="a_node16"><a xlink:href="../../db/d4f/group___u_s_e_r___d_a_t_a.html#ga4d20835dbc4b21f645ff55eed7d93216" target="_top" xlink:title="Delete an element from the TX fifo.">
<polygon fill="white" stroke="black" points="209,-38.5 209,-57.5 363,-57.5 363,-38.5 209,-38.5"/>
<text text-anchor="middle" x="286" y="-45.5" font-family="Helvetica,sans-Serif" font-size="10.00">USERDATA_txFifoRemoveElt</text>
</a>
</g>
</g>
<!-- Node1&#45;&gt;Node16 -->
<g id="edge20" class="edge">
<title>Node1&#45;&gt;Node16</title>
<path fill="none" stroke="midnightblue" d="M92.76,-152.5C111.09,-133.23 155.62,-89.49 202,-67 206.99,-64.58 212.3,-62.46 217.72,-60.61"/>
<polygon fill="midnightblue" stroke="midnightblue" points="219.06,-63.86 227.58,-57.55 216.99,-57.17 219.06,-63.86"/>
</g>
<!-- Node3 -->
<g id="node3" class="node">
<title>Node3</title>
<g id="a_node3"><a xlink:href="../../d8/d62/group___m_c_u___a_p_p___w_r_a_p_p_e_r_s.html#gae14ee3e1d2a9b459c0d89c451a4bc470" target="_top" xlink:title="Send AT CMD response to console.">
<polygon fill="white" stroke="black" points="615,-276.5 615,-295.5 753,-295.5 753,-276.5 615,-276.5"/>
<text text-anchor="middle" x="684" y="-283.5" font-family="Helvetica,sans-Serif" font-size="10.00">MCU_AT_CONSOLE_send</text>
</a>
</g>
</g>
<!-- Node2&#45;&gt;Node3 -->
<g id="edge2" class="edge">
<title>Node2&#45;&gt;Node3</title>
<path fill="none" stroke="midnightblue" d="M529.42,-235.57C544.75,-239.79 562.82,-244.93 579,-250 601.77,-257.13 627.08,-265.87 647.03,-272.96"/>
<polygon fill="midnightblue" stroke="midnightblue" points="646.05,-276.32 656.64,-276.39 648.4,-269.73 646.05,-276.32"/>
</g>
<!-- Node4&#45;&gt;Node3 -->
<g id="edge4" class="edge">
<title>Node4&#45;&gt;Node3</title>
<path fill="none" stroke="midnightblue" d="M544.61,-342.45C556.05,-339.81 568.04,-336.65 579,-333 605.78,-324.08 634.95,-310.54 655.57,-300.27"/>
<polygon fill="midnightblue" stroke="midnightblue" points="657.33,-303.31 664.68,-295.68 654.17,-297.06 657.33,-303.31"/>
</g>
<!-- Node5&#45;&gt;Node3 -->
<g id="edge6" class="edge">
<title>Node5&#45;&gt;Node3</title>
<path fill="none" stroke="midnightblue" d="M370.01,-278.1C439.15,-279.84 536.92,-282.31 604.71,-284.02"/>
<polygon fill="midnightblue" stroke="midnightblue" points="604.82,-287.53 614.9,-284.28 605,-280.53 604.82,-287.53"/>
</g>
<!-- Node6 -->
<g id="node6" class="node">
<title>Node6</title>
<g id="a_node6"><a xlink:href="../../d8/d62/group___m_c_u___a_p_p___w_r_a_p_p_e_r_s.html#gaf6858a5591eaf9e21e59a15188ff6f13" target="_top" xlink:title="Write content of a binary data buffer as AT cmd response.">
<polygon fill="white" stroke="black" points="423.5,-293 423.5,-323 561.5,-323 561.5,-293 423.5,-293"/>
<text text-anchor="start" x="431.5" y="-311" font-family="Helvetica,sans-Serif" font-size="10.00">MCU_AT_CONSOLE_send</text>
<text text-anchor="middle" x="492.5" y="-300" font-family="Helvetica,sans-Serif" font-size="10.00">_dataBuf</text>
</a>
</g>
</g>
<!-- Node5&#45;&gt;Node6 -->
<g id="edge7" class="edge">
<title>Node5&#45;&gt;Node6</title>
<path fill="none" stroke="midnightblue" d="M347.8,-285.51C368.33,-288.73 391.55,-292.36 413.24,-295.75"/>
<polygon fill="midnightblue" stroke="midnightblue" points="412.99,-299.26 423.41,-297.35 414.07,-292.34 412.99,-299.26"/>
</g>
<!-- Node6&#45;&gt;Node3 -->
<g id="edge8" class="edge">
<title>Node6&#45;&gt;Node3</title>
<path fill="none" stroke="midnightblue" d="M561.65,-300.09C575.56,-298.47 590.31,-296.76 604.56,-295.11"/>
<polygon fill="midnightblue" stroke="midnightblue" points="605.29,-298.55 614.82,-293.92 604.49,-291.59 605.29,-298.55"/>
</g>
<!-- Node11 -->
<g id="node11" class="node">
<title>Node11</title>
<g id="a_node11"><a xlink:href="../../d9/d2f/group___k_i_n_e_i_s___s_w___c_o_n_f.html#ga858c122b744e5d185b5abac307aae807" target="_top" xlink:title="Enter critical section.">
<polygon fill="white" stroke="black" points="641,-133.5 641,-152.5 727,-152.5 727,-133.5 641,-133.5"/>
<text text-anchor="middle" x="684" y="-140.5" font-family="Helvetica,sans-Serif" font-size="10.00">KNS_CS_enter</text>
</a>
</g>
</g>
<!-- Node10&#45;&gt;Node11 -->
<g id="edge13" class="edge">
<title>Node10&#45;&gt;Node11</title>
<path fill="none" stroke="midnightblue" d="M347.97,-95.57C355.65,-98.03 363.2,-101.12 370,-105 390.2,-116.53 384.63,-133.81 406,-143 479.97,-174.82 575.69,-165.01 633.05,-154.42"/>
<polygon fill="midnightblue" stroke="midnightblue" points="633.8,-157.84 642.96,-152.51 632.47,-150.97 633.8,-157.84"/>
</g>
<!-- Node12 -->
<g id="node12" class="node">
<title>Node12</title>
<g id="a_node12"><a xlink:href="../../d9/d2f/group___k_i_n_e_i_s___s_w___c_o_n_f.html#ga58b477bfcd987dcd7b733b98ab692fdc" target="_top" xlink:title="Exit critical section.">
<polygon fill="white" stroke="black" points="644.5,-57.5 644.5,-76.5 723.5,-76.5 723.5,-57.5 644.5,-57.5"/>
<text text-anchor="middle" x="684" y="-64.5" font-family="Helvetica,sans-Serif" font-size="10.00">KNS_CS_exit</text>
</a>
</g>
</g>
<!-- Node10&#45;&gt;Node12 -->
<g id="edge14" class="edge">
<title>Node10&#45;&gt;Node12</title>
<path fill="none" stroke="midnightblue" d="M349.75,-82.99C428.74,-79.2 562.74,-72.77 634.39,-69.33"/>
<polygon fill="midnightblue" stroke="midnightblue" points="634.67,-72.82 644.5,-68.85 634.34,-65.83 634.67,-72.82"/>
</g>
<!-- Node13 -->
<g id="node13" class="node">
<title>Node13</title>
<g id="a_node13"><a xlink:href="../../db/d4f/group___u_s_e_r___d_a_t_a.html#ga7c272898faf1448391a80b578d9acf45" target="_top" xlink:title="count number of elements in TX fifo">
<polygon fill="white" stroke="black" points="419.5,-114.5 419.5,-133.5 565.5,-133.5 565.5,-114.5 419.5,-114.5"/>
<text text-anchor="middle" x="492.5" y="-121.5" font-family="Helvetica,sans-Serif" font-size="10.00">USERDATA_txFifoGetCount</text>
</a>
</g>
</g>
<!-- Node10&#45;&gt;Node13 -->
<g id="edge15" class="edge">
<title>Node10&#45;&gt;Node13</title>
<path fill="none" stroke="midnightblue" d="M338.34,-95.54C366.17,-100.71 400.77,-107.14 430.03,-112.58"/>
<polygon fill="midnightblue" stroke="midnightblue" points="429.67,-116.07 440.14,-114.46 430.95,-109.19 429.67,-116.07"/>
</g>
<!-- Node14 -->
<g id="node14" class="node">
<title>Node14</title>
<g id="a_node14"><a xlink:href="../../db/d4f/group___u_s_e_r___d_a_t_a.html#gafba02bd8b2e6ebad0b2f38b72e40ec21" target="_top" xlink:title="Log content of the TX fifo.">
<polygon fill="white" stroke="black" points="433.5,-38.5 433.5,-57.5 551.5,-57.5 551.5,-38.5 433.5,-38.5"/>
<text text-anchor="middle" x="492.5" y="-45.5" font-family="Helvetica,sans-Serif" font-size="10.00">USERDATA_txFifoLog</text>
</a>
</g>
</g>
<!-- Node10&#45;&gt;Node14 -->
<g id="edge16" class="edge">
<title>Node10&#45;&gt;Node14</title>
<path fill="none" stroke="midnightblue" d="M338.34,-76.46C366.17,-71.29 400.77,-64.86 430.03,-59.42"/>
<polygon fill="midnightblue" stroke="midnightblue" points="430.95,-62.81 440.14,-57.54 429.67,-55.93 430.95,-62.81"/>
</g>
<!-- Node14&#45;&gt;Node11 -->
<g id="edge17" class="edge">
<title>Node14&#45;&gt;Node11</title>
<path fill="none" stroke="midnightblue" d="M512.71,-57.63C546.28,-74.46 615.75,-109.29 654.79,-128.86"/>
<polygon fill="midnightblue" stroke="midnightblue" points="653.51,-132.13 664.02,-133.48 656.65,-125.87 653.51,-132.13"/>
</g>
<!-- Node14&#45;&gt;Node12 -->
<g id="edge18" class="edge">
<title>Node14&#45;&gt;Node12</title>
<path fill="none" stroke="midnightblue" d="M551.64,-53.83C578.13,-56.49 609.13,-59.59 634.36,-62.12"/>
<polygon fill="midnightblue" stroke="midnightblue" points="634.13,-65.62 644.43,-63.13 634.83,-58.65 634.13,-65.62"/>
</g>
<!-- Node16&#45;&gt;Node14 -->
<g id="edge22" class="edge">
<title>Node16&#45;&gt;Node14</title>
<path fill="none" stroke="midnightblue" d="M363.15,-48C382.79,-48 403.8,-48 423.02,-48"/>
<polygon fill="midnightblue" stroke="midnightblue" points="423.19,-51.5 433.19,-48 423.19,-44.5 423.19,-51.5"/>
</g>
<!-- Node17 -->
<g id="node17" class="node">
<title>Node17</title>
<g id="a_node17"><a xlink:href="../../db/d4f/group___u_s_e_r___d_a_t_a.html#ga532418c0e3adad36946ba9d346a163f4" target="_top" xlink:title="check the element is pointing on a valid address, i.e. one from sUserDataTxFifoBuf buffer">
<polygon fill="white" stroke="black" points="425.5,-0.5 425.5,-19.5 559.5,-19.5 559.5,-0.5 425.5,-0.5"/>
<text text-anchor="middle" x="492.5" y="-7.5" font-family="Helvetica,sans-Serif" font-size="10.00">USERDATA_txFifoIsInBuf</text>
</a>
</g>
</g>
<!-- Node16&#45;&gt;Node17 -->
<g id="edge21" class="edge">
<title>Node16&#45;&gt;Node17</title>
<path fill="none" stroke="midnightblue" d="M338.34,-38.46C366.17,-33.29 400.77,-26.86 430.03,-21.42"/>
<polygon fill="midnightblue" stroke="midnightblue" points="430.95,-24.81 440.14,-19.54 429.67,-17.93 430.95,-24.81"/>
</g>
</g>
</svg>
