<?xml version="1.0" encoding="UTF-8" standalone="no"?>
<!DOCTYPE svg PUBLIC "-//W3C//DTD SVG 1.1//EN"
 "http://www.w3.org/Graphics/SVG/1.1/DTD/svg11.dtd">
<!-- Generated by graphviz version 2.43.0 (0)
 -->
<!-- Title: bMGR_AT_CMD_sendResponse Pages: 1 -->
<svg width="524pt" height="56pt"
 viewBox="0.00 0.00 524.00 55.50" xmlns="http://www.w3.org/2000/svg" xmlns:xlink="http://www.w3.org/1999/xlink">
<g id="graph0" class="graph" transform="scale(1 1) rotate(0) translate(4 51.5)">
<title>bMGR_AT_CMD_sendResponse</title>
<polygon fill="white" stroke="transparent" points="-4,4 -4,-51.5 520,-51.5 520,4 -4,4"/>
<!-- Node1 -->
<g id="node1" class="node">
<title>Node1</title>
<g id="a_node1"><a xlink:title=": This function writes in UART the response of specific command">
<polygon fill="#bfbfbf" stroke="black" points="0,-28 0,-47 168,-47 168,-28 0,-28"/>
<text text-anchor="middle" x="84" y="-35" font-family="Helvetica,sans-Serif" font-size="10.00">bMGR_AT_CMD_sendResponse</text>
</a>
</g>
</g>
<!-- Node2 -->
<g id="node2" class="node">
<title>Node2</title>
<g id="a_node2"><a xlink:href="../../d8/d62/group___m_c_u___a_p_p___w_r_a_p_p_e_r_s.html#gae14ee3e1d2a9b459c0d89c451a4bc470" target="_top" xlink:title="Send AT CMD response to console.">
<polygon fill="white" stroke="black" points="378,-28 378,-47 516,-47 516,-28 378,-28"/>
<text text-anchor="middle" x="447" y="-35" font-family="Helvetica,sans-Serif" font-size="10.00">MCU_AT_CONSOLE_send</text>
</a>
</g>
</g>
<!-- Node1&#45;&gt;Node2 -->
<g id="edge1" class="edge">
<title>Node1&#45;&gt;Node2</title>
<path fill="none" stroke="midnightblue" d="M168.22,-39.87C180.22,-40.13 192.43,-40.35 204,-40.5 265.33,-41.27 280.67,-41.38 342,-40.5 350.31,-40.38 358.99,-40.21 367.64,-40"/>
<polygon fill="midnightblue" stroke="midnightblue" points="367.85,-43.5 377.76,-39.75 367.67,-36.5 367.85,-43.5"/>
</g>
<!-- Node3 -->
<g id="node3" class="node">
<title>Node3</title>
<g id="a_node3"><a xlink:href="../../d8/d62/group___m_c_u___a_p_p___w_r_a_p_p_e_r_s.html#gaf6858a5591eaf9e21e59a15188ff6f13" target="_top" xlink:title="Write content of a binary data buffer as AT cmd response.">
<polygon fill="white" stroke="black" points="204,-0.5 204,-30.5 342,-30.5 342,-0.5 204,-0.5"/>
<text text-anchor="start" x="212" y="-18.5" font-family="Helvetica,sans-Serif" font-size="10.00">MCU_AT_CONSOLE_send</text>
<text text-anchor="middle" x="273" y="-7.5" font-family="Helvetica,sans-Serif" font-size="10.00">_dataBuf</text>
</a>
</g>
</g>
<!-- Node1&#45;&gt;Node3 -->
<g id="edge2" class="edge">
<title>Node1&#45;&gt;Node3</title>
<path fill="none" stroke="midnightblue" d="M165.93,-27.98C175.11,-26.9 184.46,-25.8 193.6,-24.72"/>
<polygon fill="midnightblue" stroke="midnightblue" points="194.3,-28.16 203.83,-23.52 193.49,-21.21 194.3,-28.16"/>
</g>
<!-- Node3&#45;&gt;Node2 -->
<g id="edge3" class="edge">
<title>Node3&#45;&gt;Node2</title>
<path fill="none" stroke="midnightblue" d="M342.47,-24.26C350.73,-25.31 359.22,-26.4 367.6,-27.47"/>
<polygon fill="midnightblue" stroke="midnightblue" points="367.4,-30.97 377.76,-28.77 368.29,-24.03 367.4,-30.97"/>
</g>
</g>
</svg>
