<?xml version="1.0" encoding="UTF-8" standalone="no"?>
<!DOCTYPE svg PUBLIC "-//W3C//DTD SVG 1.1//EN"
 "http://www.w3.org/Graphics/SVG/1.1/DTD/svg11.dtd">
<!-- Generated by graphviz version 2.43.0 (0)
 -->
<!-- Title: bMGR_AT_CMD_UDATE_cmd Pages: 1 -->
<svg width="548pt" height="28pt"
 viewBox="0.00 0.00 548.00 28.00" xmlns="http://www.w3.org/2000/svg" xmlns:xlink="http://www.w3.org/1999/xlink">
<g id="graph0" class="graph" transform="scale(1 1) rotate(0) translate(4 24)">
<title>bMGR_AT_CMD_UDATE_cmd</title>
<polygon fill="white" stroke="transparent" points="-4,4 -4,-24 544,-24 544,4 -4,4"/>
<!-- Node1 -->
<g id="node1" class="node">
<title>Node1</title>
<g id="a_node1"><a xlink:title=" ">
<polygon fill="#bfbfbf" stroke="black" points="0,-0.5 0,-19.5 157,-19.5 157,-0.5 0,-0.5"/>
<text text-anchor="middle" x="78.5" y="-7.5" font-family="Helvetica,sans-Serif" font-size="10.00">bMGR_AT_CMD_UDATE_cmd</text>
</a>
</g>
</g>
<!-- Node2 -->
<g id="node2" class="node">
<title>Node2</title>
<g id="a_node2"><a xlink:href="../../d0/d0f/group___m_g_r___a_t___c_m_d.html#gabef580da46cf82ca74ba3e5217cf3ffa" target="_top" xlink:title=": Log in debug interface a succeed message">
<polygon fill="white" stroke="black" points="193,-0.5 193,-19.5 366,-19.5 366,-0.5 193,-0.5"/>
<text text-anchor="middle" x="279.5" y="-7.5" font-family="Helvetica,sans-Serif" font-size="10.00">bMGR_AT_CMD_logSucceedMsg</text>
</a>
</g>
</g>
<!-- Node1&#45;&gt;Node2 -->
<g id="edge1" class="edge">
<title>Node1&#45;&gt;Node2</title>
<path fill="none" stroke="midnightblue" d="M157.01,-10C165.48,-10 174.18,-10 182.83,-10"/>
<polygon fill="midnightblue" stroke="midnightblue" points="182.96,-13.5 192.96,-10 182.96,-6.5 182.96,-13.5"/>
</g>
<!-- Node3 -->
<g id="node3" class="node">
<title>Node3</title>
<g id="a_node3"><a xlink:href="../../d8/d62/group___m_c_u___a_p_p___w_r_a_p_p_e_r_s.html#gae14ee3e1d2a9b459c0d89c451a4bc470" target="_top" xlink:title="Send AT CMD response to console.">
<polygon fill="white" stroke="black" points="402,-0.5 402,-19.5 540,-19.5 540,-0.5 402,-0.5"/>
<text text-anchor="middle" x="471" y="-7.5" font-family="Helvetica,sans-Serif" font-size="10.00">MCU_AT_CONSOLE_send</text>
</a>
</g>
</g>
<!-- Node2&#45;&gt;Node3 -->
<g id="edge2" class="edge">
<title>Node2&#45;&gt;Node3</title>
<path fill="none" stroke="midnightblue" d="M366.1,-10C374.61,-10 383.22,-10 391.64,-10"/>
<polygon fill="midnightblue" stroke="midnightblue" points="391.82,-13.5 401.82,-10 391.82,-6.5 391.82,-13.5"/>
</g>
</g>
</svg>
