<?xml version="1.0" encoding="UTF-8" standalone="no"?>
<!DOCTYPE svg PUBLIC "-//W3C//DTD SVG 1.1//EN"
 "http://www.w3.org/Graphics/SVG/1.1/DTD/svg11.dtd">
<!-- Generated by graphviz version 2.43.0 (0)
 -->
<!-- Title: Kineis/Extdep/MGR_LOG/Src/mgr_log_rtc.c Pages: 1 -->
<svg width="290pt" height="151pt"
 viewBox="0.00 0.00 290.00 151.00" xmlns="http://www.w3.org/2000/svg" xmlns:xlink="http://www.w3.org/1999/xlink">
<g id="graph0" class="graph" transform="scale(1 1) rotate(0) translate(4 147)">
<title>Kineis/Extdep/MGR_LOG/Src/mgr_log_rtc.c</title>
<polygon fill="white" stroke="transparent" points="-4,4 -4,-147 286,-147 286,4 -4,4"/>
<!-- Node1 -->
<g id="node1" class="node">
<title>Node1</title>
<g id="a_node1"><a xlink:title="This file contains log routine concerning RTC. There is a dependency on HAL RTC.">
<polygon fill="#bfbfbf" stroke="black" points="63.5,-112.5 63.5,-142.5 198.5,-142.5 198.5,-112.5 63.5,-112.5"/>
<text text-anchor="start" x="71.5" y="-130.5" font-family="Helvetica,sans-Serif" font-size="10.00">Kineis/Extdep/MGR_LOG</text>
<text text-anchor="middle" x="131" y="-119.5" font-family="Helvetica,sans-Serif" font-size="10.00">/Src/mgr_log_rtc.c</text>
</a>
</g>
</g>
<!-- Node2 -->
<g id="node2" class="node">
<title>Node2</title>
<g id="a_node2"><a xlink:title=" ">
<polygon fill="white" stroke="#bfbfbf" points="0,-56.5 0,-75.5 50,-75.5 50,-56.5 0,-56.5"/>
<text text-anchor="middle" x="25" y="-63.5" font-family="Helvetica,sans-Serif" font-size="10.00">stdio.h</text>
</a>
</g>
</g>
<!-- Node1&#45;&gt;Node2 -->
<g id="edge1" class="edge">
<title>Node1&#45;&gt;Node2</title>
<path fill="none" stroke="midnightblue" d="M105.88,-112.4C88.73,-102.77 66.14,-90.09 49.19,-80.58"/>
<polygon fill="midnightblue" stroke="midnightblue" points="50.86,-77.5 40.42,-75.66 47.43,-83.6 50.86,-77.5"/>
</g>
<!-- Node3 -->
<g id="node3" class="node">
<title>Node3</title>
<g id="a_node3"><a xlink:href="../../d2/d2e/mgr__log_8h.html" target="_top" xlink:title="logger main header file">
<polygon fill="white" stroke="black" points="68.5,-56.5 68.5,-75.5 133.5,-75.5 133.5,-56.5 68.5,-56.5"/>
<text text-anchor="middle" x="101" y="-63.5" font-family="Helvetica,sans-Serif" font-size="10.00">mgr_log.h</text>
</a>
</g>
</g>
<!-- Node1&#45;&gt;Node3 -->
<g id="edge2" class="edge">
<title>Node1&#45;&gt;Node3</title>
<path fill="none" stroke="midnightblue" d="M123.89,-112.4C119.71,-104.11 114.39,-93.55 109.93,-84.71"/>
<polygon fill="midnightblue" stroke="midnightblue" points="112.99,-83.01 105.37,-75.66 106.74,-86.16 112.99,-83.01"/>
</g>
<!-- Node4 -->
<g id="node4" class="node">
<title>Node4</title>
<g id="a_node4"><a xlink:href="../../d9/d70/mgr__log__rtc_8h.html" target="_top" xlink:title=": Header for mgr_log_rtc.c file. This file contains log routine concerning RTC. Thus there is a depen...">
<polygon fill="white" stroke="black" points="89.5,-0.5 89.5,-19.5 172.5,-19.5 172.5,-0.5 89.5,-0.5"/>
<text text-anchor="middle" x="131" y="-7.5" font-family="Helvetica,sans-Serif" font-size="10.00">mgr_log_rtc.h</text>
</a>
</g>
</g>
<!-- Node1&#45;&gt;Node4 -->
<g id="edge4" class="edge">
<title>Node1&#45;&gt;Node4</title>
<path fill="none" stroke="midnightblue" d="M135.97,-112.24C140.31,-98.03 145.56,-75.57 143,-56 141.84,-47.18 139.47,-37.63 137.13,-29.61"/>
<polygon fill="midnightblue" stroke="midnightblue" points="140.4,-28.34 134.09,-19.83 133.71,-30.42 140.4,-28.34"/>
</g>
<!-- Node5 -->
<g id="node5" class="node">
<title>Node5</title>
<g id="a_node5"><a xlink:href="../../d5/d04/kns__app__conf_8h.html" target="_top" xlink:title="Kineis Application configurations depending on platform used.">
<polygon fill="white" stroke="black" points="190,-56.5 190,-75.5 282,-75.5 282,-56.5 190,-56.5"/>
<text text-anchor="middle" x="236" y="-63.5" font-family="Helvetica,sans-Serif" font-size="10.00">kns_app_conf.h</text>
</a>
</g>
</g>
<!-- Node1&#45;&gt;Node5 -->
<g id="edge5" class="edge">
<title>Node1&#45;&gt;Node5</title>
<path fill="none" stroke="midnightblue" d="M155.88,-112.4C172.71,-102.86 194.84,-90.32 211.57,-80.84"/>
<polygon fill="midnightblue" stroke="midnightblue" points="213.75,-83.63 220.72,-75.66 210.3,-77.54 213.75,-83.63"/>
</g>
<!-- Node3&#45;&gt;Node4 -->
<g id="edge3" class="edge">
<title>Node3&#45;&gt;Node4</title>
<path fill="none" stroke="midnightblue" d="M105.95,-56.08C110.1,-48.61 116.15,-37.72 121.27,-28.52"/>
<polygon fill="midnightblue" stroke="midnightblue" points="124.34,-30.19 126.14,-19.75 118.22,-26.79 124.34,-30.19"/>
</g>
</g>
</svg>
