<?xml version="1.0" encoding="UTF-8" standalone="no"?>
<!DOCTYPE svg PUBLIC "-//W3C//DTD SVG 1.1//EN"
 "http://www.w3.org/Graphics/SVG/1.1/DTD/svg11.dtd">
<!-- Generated by graphviz version 2.43.0 (0)
 -->
<!-- Title: Kineis/Extdep/Mcu/Inc/mcu_misc.h Pages: 1 -->
<svg width="282pt" height="117pt"
 viewBox="0.00 0.00 281.50 117.00" xmlns="http://www.w3.org/2000/svg" xmlns:xlink="http://www.w3.org/1999/xlink">
<g id="graph0" class="graph" transform="scale(1 1) rotate(0) translate(4 113)">
<title>Kineis/Extdep/Mcu/Inc/mcu_misc.h</title>
<polygon fill="white" stroke="transparent" points="-4,4 -4,-113 277.5,-113 277.5,4 -4,4"/>
<!-- Node1 -->
<g id="node1" class="node">
<title>Node1</title>
<g id="a_node1"><a xlink:title="MCU wrappers for miscellaneous features.">
<polygon fill="#bfbfbf" stroke="black" points="76,-78.5 76,-108.5 200,-108.5 200,-78.5 76,-78.5"/>
<text text-anchor="start" x="84" y="-96.5" font-family="Helvetica,sans-Serif" font-size="10.00">Kineis/Extdep/Mcu/Inc</text>
<text text-anchor="middle" x="138" y="-85.5" font-family="Helvetica,sans-Serif" font-size="10.00">/mcu_misc.h</text>
</a>
</g>
</g>
<!-- Node2 -->
<g id="node2" class="node">
<title>Node2</title>
<g id="a_node2"><a xlink:href="../../d1/dfd/mgr__at__cmd__list__general_8c.html" target="_top" xlink:title="subset of AT commands concerning general purpose (get ID, FW version, ...)">
<polygon fill="white" stroke="black" points="0,-0.5 0,-41.5 130,-41.5 130,-0.5 0,-0.5"/>
<text text-anchor="start" x="8" y="-29.5" font-family="Helvetica,sans-Serif" font-size="10.00">Kineis/App/Managers</text>
<text text-anchor="start" x="8" y="-18.5" font-family="Helvetica,sans-Serif" font-size="10.00">/MGR_AT_CMD/Src/mgr</text>
<text text-anchor="middle" x="65" y="-7.5" font-family="Helvetica,sans-Serif" font-size="10.00">_at_cmd_list_general.c</text>
</a>
</g>
</g>
<!-- Node1&#45;&gt;Node2 -->
<g id="edge1" class="edge">
<title>Node1&#45;&gt;Node2</title>
<path fill="none" stroke="midnightblue" d="M115.84,-71.1C106.12,-61.71 94.78,-50.76 85.28,-41.59"/>
<polygon fill="midnightblue" stroke="midnightblue" points="113.6,-73.8 123.23,-78.23 118.47,-68.77 113.6,-73.8"/>
</g>
<!-- Node3 -->
<g id="node3" class="node">
<title>Node3</title>
<g id="a_node3"><a xlink:href="../../df/ddf/mcu__misc_8c.html" target="_top" xlink:title="File to implement miscellaneous features for a specific design.">
<polygon fill="white" stroke="black" points="148.5,-6 148.5,-36 273.5,-36 273.5,-6 148.5,-6"/>
<text text-anchor="start" x="156.5" y="-24" font-family="Helvetica,sans-Serif" font-size="10.00">Kineis/Extdep/Mcu/Src</text>
<text text-anchor="middle" x="211" y="-13" font-family="Helvetica,sans-Serif" font-size="10.00">/mcu_misc.c</text>
</a>
</g>
</g>
<!-- Node1&#45;&gt;Node3 -->
<g id="edge2" class="edge">
<title>Node1&#45;&gt;Node3</title>
<path fill="none" stroke="midnightblue" d="M160.07,-71.19C171.78,-59.87 185.87,-46.27 196.25,-36.25"/>
<polygon fill="midnightblue" stroke="midnightblue" points="157.53,-68.77 152.77,-78.23 162.4,-73.8 157.53,-68.77"/>
</g>
</g>
</svg>
