<?xml version="1.0" encoding="UTF-8" standalone="no"?>
<!DOCTYPE svg PUBLIC "-//W3C//DTD SVG 1.1//EN"
 "http://www.w3.org/Graphics/SVG/1.1/DTD/svg11.dtd">
<!-- Generated by graphviz version 2.43.0 (0)
 -->
<!-- Title: USERDATA_txFifoIsEltInFifo Pages: 1 -->
<svg width="742pt" height="66pt"
 viewBox="0.00 0.00 742.00 66.00" xmlns="http://www.w3.org/2000/svg" xmlns:xlink="http://www.w3.org/1999/xlink">
<g id="graph0" class="graph" transform="scale(1 1) rotate(0) translate(4 62)">
<title>USERDATA_txFifoIsEltInFifo</title>
<polygon fill="white" stroke="transparent" points="-4,4 -4,-62 738,-62 738,4 -4,4"/>
<!-- Node1 -->
<g id="node1" class="node">
<title>Node1</title>
<g id="a_node1"><a xlink:title="check element is part of the TX fifo or not">
<polygon fill="#bfbfbf" stroke="black" points="586,-19.5 586,-38.5 734,-38.5 734,-19.5 586,-19.5"/>
<text text-anchor="middle" x="660" y="-26.5" font-family="Helvetica,sans-Serif" font-size="10.00">USERDATA_txFifoIsEltInFifo</text>
</a>
</g>
</g>
<!-- Node2 -->
<g id="node2" class="node">
<title>Node2</title>
<g id="a_node2"><a xlink:href="../../db/d4f/group___u_s_e_r___d_a_t_a.html#ga9dc3ef3b0eec939e8a61b25e0a107cbe" target="_top" xlink:title="Add element in TX fifo.">
<polygon fill="white" stroke="black" points="407.5,-38.5 407.5,-57.5 539.5,-57.5 539.5,-38.5 407.5,-38.5"/>
<text text-anchor="middle" x="473.5" y="-45.5" font-family="Helvetica,sans-Serif" font-size="10.00">USERDATA_txFifoAddElt</text>
</a>
</g>
</g>
<!-- Node1&#45;&gt;Node2 -->
<g id="edge1" class="edge">
<title>Node1&#45;&gt;Node2</title>
<path fill="none" stroke="midnightblue" d="M575.69,-37.58C563.56,-38.83 551.22,-40.1 539.53,-41.3"/>
<polygon fill="midnightblue" stroke="midnightblue" points="576.23,-41.04 585.82,-36.54 575.51,-34.08 576.23,-41.04"/>
</g>
<!-- Node5 -->
<g id="node5" class="node">
<title>Node5</title>
<g id="a_node5"><a xlink:href="../../db/d4f/group___u_s_e_r___d_a_t_a.html#gacb676464a4de1543fa3e55314f740110" target="_top" xlink:title="Get an element from memory pool in a way to push it later.">
<polygon fill="white" stroke="black" points="397,-0.5 397,-19.5 550,-19.5 550,-0.5 397,-0.5"/>
<text text-anchor="middle" x="473.5" y="-7.5" font-family="Helvetica,sans-Serif" font-size="10.00">USERDATA_txFifoReserveElt</text>
</a>
</g>
</g>
<!-- Node1&#45;&gt;Node5 -->
<g id="edge4" class="edge">
<title>Node1&#45;&gt;Node5</title>
<path fill="none" stroke="midnightblue" d="M575.8,-20.43C567.21,-19.55 558.51,-18.65 550.02,-17.78"/>
<polygon fill="midnightblue" stroke="midnightblue" points="575.51,-23.92 585.82,-21.46 576.23,-16.96 575.51,-23.92"/>
</g>
<!-- Node3 -->
<g id="node3" class="node">
<title>Node3</title>
<g id="a_node3"><a xlink:href="../../d0/d0f/group___m_g_r___a_t___c_m_d.html#gaaa9bdf10c9ac69ef778eea22f8225343" target="_top" xlink:title="Handle new TX data, this is the core function of AT+TX cmd.">
<polygon fill="white" stroke="black" points="173,-19.5 173,-38.5 361,-38.5 361,-19.5 173,-19.5"/>
<text text-anchor="middle" x="267" y="-26.5" font-family="Helvetica,sans-Serif" font-size="10.00">bMGR_AT_CMD_handleNewTxData</text>
</a>
</g>
</g>
<!-- Node2&#45;&gt;Node3 -->
<g id="edge2" class="edge">
<title>Node2&#45;&gt;Node3</title>
<path fill="none" stroke="midnightblue" d="M397.14,-41C385.49,-39.92 373.33,-38.79 361.34,-37.67"/>
<polygon fill="midnightblue" stroke="midnightblue" points="396.95,-44.5 407.23,-41.94 397.6,-37.53 396.95,-44.5"/>
</g>
<!-- Node4 -->
<g id="node4" class="node">
<title>Node4</title>
<g id="a_node4"><a xlink:href="../../d0/d0f/group___m_g_r___a_t___c_m_d.html#ga0a4332fc4f8bad99c421588fe542a2bd" target="_top" xlink:title="Process AT command &quot;AT+TX&quot; send user data.">
<polygon fill="white" stroke="black" points="0,-19.5 0,-38.5 137,-38.5 137,-19.5 0,-19.5"/>
<text text-anchor="middle" x="68.5" y="-26.5" font-family="Helvetica,sans-Serif" font-size="10.00">bMGR_AT_CMD_TX_cmd</text>
</a>
</g>
</g>
<!-- Node3&#45;&gt;Node4 -->
<g id="edge3" class="edge">
<title>Node3&#45;&gt;Node4</title>
<path fill="none" stroke="midnightblue" d="M162.71,-29C154.01,-29 145.36,-29 137.04,-29"/>
<polygon fill="midnightblue" stroke="midnightblue" points="162.93,-32.5 172.93,-29 162.93,-25.5 162.93,-32.5"/>
</g>
<!-- Node5&#45;&gt;Node3 -->
<g id="edge5" class="edge">
<title>Node5&#45;&gt;Node3</title>
<path fill="none" stroke="midnightblue" d="M386.76,-17.97C378.35,-18.75 369.78,-19.54 361.29,-20.33"/>
<polygon fill="midnightblue" stroke="midnightblue" points="387.3,-21.43 396.93,-17.02 386.65,-14.46 387.3,-21.43"/>
</g>
</g>
</svg>
