<?xml version="1.0" encoding="UTF-8" standalone="no"?>
<!DOCTYPE svg PUBLIC "-//W3C//DTD SVG 1.1//EN"
 "http://www.w3.org/Graphics/SVG/1.1/DTD/svg11.dtd">
<!-- Generated by graphviz version 2.43.0 (0)
 -->
<!-- Title: USERDATA_txFifoIsInBuf Pages: 1 -->
<svg width="931pt" height="104pt"
 viewBox="0.00 0.00 931.00 104.00" xmlns="http://www.w3.org/2000/svg" xmlns:xlink="http://www.w3.org/1999/xlink">
<g id="graph0" class="graph" transform="scale(1 1) rotate(0) translate(4 100)">
<title>USERDATA_txFifoIsInBuf</title>
<polygon fill="white" stroke="transparent" points="-4,4 -4,-100 927,-100 927,4 -4,4"/>
<!-- Node1 -->
<g id="node1" class="node">
<title>Node1</title>
<g id="a_node1"><a xlink:title="check the element is pointing on a valid address, i.e. one from sUserDataTxFifoBuf buffer">
<polygon fill="#bfbfbf" stroke="black" points="789,-38.5 789,-57.5 923,-57.5 923,-38.5 789,-38.5"/>
<text text-anchor="middle" x="856" y="-45.5" font-family="Helvetica,sans-Serif" font-size="10.00">USERDATA_txFifoIsInBuf</text>
</a>
</g>
</g>
<!-- Node2 -->
<g id="node2" class="node">
<title>Node2</title>
<g id="a_node2"><a xlink:href="../../db/d4f/group___u_s_e_r___d_a_t_a.html#ga9dc3ef3b0eec939e8a61b25e0a107cbe" target="_top" xlink:title="Add element in TX fifo.">
<polygon fill="white" stroke="black" points="414,-76.5 414,-95.5 546,-95.5 546,-76.5 414,-76.5"/>
<text text-anchor="middle" x="480" y="-83.5" font-family="Helvetica,sans-Serif" font-size="10.00">USERDATA_txFifoAddElt</text>
</a>
</g>
</g>
<!-- Node1&#45;&gt;Node2 -->
<g id="edge1" class="edge">
<title>Node1&#45;&gt;Node2</title>
<path fill="none" stroke="midnightblue" d="M799.76,-59.48C784.66,-62.3 768.24,-65.05 753,-67 682.57,-75.99 601.29,-80.97 546.06,-83.55"/>
<polygon fill="midnightblue" stroke="midnightblue" points="800.82,-62.84 809.98,-57.53 799.51,-55.97 800.82,-62.84"/>
</g>
<!-- Node5 -->
<g id="node5" class="node">
<title>Node5</title>
<g id="a_node5"><a xlink:href="../../db/d4f/group___u_s_e_r___d_a_t_a.html#ga2c1ea014de9c2ba244dc6605a6edce59" target="_top" xlink:title="check element is part of the TX fifo or not">
<polygon fill="white" stroke="black" points="602,-38.5 602,-57.5 750,-57.5 750,-38.5 602,-38.5"/>
<text text-anchor="middle" x="676" y="-45.5" font-family="Helvetica,sans-Serif" font-size="10.00">USERDATA_txFifoIsEltInFifo</text>
</a>
</g>
</g>
<!-- Node1&#45;&gt;Node5 -->
<g id="edge4" class="edge">
<title>Node1&#45;&gt;Node5</title>
<path fill="none" stroke="midnightblue" d="M778.76,-48C769.26,-48 759.56,-48 750.11,-48"/>
<polygon fill="midnightblue" stroke="midnightblue" points="778.97,-51.5 788.97,-48 778.97,-44.5 778.97,-51.5"/>
</g>
<!-- Node7 -->
<g id="node7" class="node">
<title>Node7</title>
<g id="a_node7"><a xlink:href="../../db/d4f/group___u_s_e_r___d_a_t_a.html#ga4d20835dbc4b21f645ff55eed7d93216" target="_top" xlink:title="Delete an element from the TX fifo.">
<polygon fill="white" stroke="black" points="599,-0.5 599,-19.5 753,-19.5 753,-0.5 599,-0.5"/>
<text text-anchor="middle" x="676" y="-7.5" font-family="Helvetica,sans-Serif" font-size="10.00">USERDATA_txFifoRemoveElt</text>
</a>
</g>
</g>
<!-- Node1&#45;&gt;Node7 -->
<g id="edge8" class="edge">
<title>Node1&#45;&gt;Node7</title>
<path fill="none" stroke="midnightblue" d="M800.28,-36.32C775.04,-30.93 745.45,-24.61 721.59,-19.52"/>
<polygon fill="midnightblue" stroke="midnightblue" points="799.57,-39.75 810.08,-38.41 801.03,-32.9 799.57,-39.75"/>
</g>
<!-- Node3 -->
<g id="node3" class="node">
<title>Node3</title>
<g id="a_node3"><a xlink:href="../../d0/d0f/group___m_g_r___a_t___c_m_d.html#gaaa9bdf10c9ac69ef778eea22f8225343" target="_top" xlink:title="Handle new TX data, this is the core function of AT+TX cmd.">
<polygon fill="white" stroke="black" points="173,-57.5 173,-76.5 361,-76.5 361,-57.5 173,-57.5"/>
<text text-anchor="middle" x="267" y="-64.5" font-family="Helvetica,sans-Serif" font-size="10.00">bMGR_AT_CMD_handleNewTxData</text>
</a>
</g>
</g>
<!-- Node2&#45;&gt;Node3 -->
<g id="edge2" class="edge">
<title>Node2&#45;&gt;Node3</title>
<path fill="none" stroke="midnightblue" d="M403.61,-79.21C389.84,-77.97 375.33,-76.67 361.13,-75.39"/>
<polygon fill="midnightblue" stroke="midnightblue" points="403.7,-82.73 413.97,-80.14 404.33,-75.76 403.7,-82.73"/>
</g>
<!-- Node4 -->
<g id="node4" class="node">
<title>Node4</title>
<g id="a_node4"><a xlink:href="../../d0/d0f/group___m_g_r___a_t___c_m_d.html#ga0a4332fc4f8bad99c421588fe542a2bd" target="_top" xlink:title="Process AT command &quot;AT+TX&quot; send user data.">
<polygon fill="white" stroke="black" points="0,-57.5 0,-76.5 137,-76.5 137,-57.5 0,-57.5"/>
<text text-anchor="middle" x="68.5" y="-64.5" font-family="Helvetica,sans-Serif" font-size="10.00">bMGR_AT_CMD_TX_cmd</text>
</a>
</g>
</g>
<!-- Node3&#45;&gt;Node4 -->
<g id="edge3" class="edge">
<title>Node3&#45;&gt;Node4</title>
<path fill="none" stroke="midnightblue" d="M162.71,-67C154.01,-67 145.36,-67 137.04,-67"/>
<polygon fill="midnightblue" stroke="midnightblue" points="162.93,-70.5 172.93,-67 162.93,-63.5 162.93,-70.5"/>
</g>
<!-- Node5&#45;&gt;Node2 -->
<g id="edge5" class="edge">
<title>Node5&#45;&gt;Node2</title>
<path fill="none" stroke="midnightblue" d="M616.09,-59.54C588.42,-64.96 555.84,-71.34 529.6,-76.48"/>
<polygon fill="midnightblue" stroke="midnightblue" points="616.9,-62.95 626.05,-57.59 615.56,-56.08 616.9,-62.95"/>
</g>
<!-- Node6 -->
<g id="node6" class="node">
<title>Node6</title>
<g id="a_node6"><a xlink:href="../../db/d4f/group___u_s_e_r___d_a_t_a.html#gacb676464a4de1543fa3e55314f740110" target="_top" xlink:title="Get an element from memory pool in a way to push it later.">
<polygon fill="white" stroke="black" points="403.5,-38.5 403.5,-57.5 556.5,-57.5 556.5,-38.5 403.5,-38.5"/>
<text text-anchor="middle" x="480" y="-45.5" font-family="Helvetica,sans-Serif" font-size="10.00">USERDATA_txFifoReserveElt</text>
</a>
</g>
</g>
<!-- Node5&#45;&gt;Node6 -->
<g id="edge6" class="edge">
<title>Node5&#45;&gt;Node6</title>
<path fill="none" stroke="midnightblue" d="M591.75,-48C580.07,-48 568.12,-48 556.59,-48"/>
<polygon fill="midnightblue" stroke="midnightblue" points="591.93,-51.5 601.93,-48 591.93,-44.5 591.93,-51.5"/>
</g>
<!-- Node6&#45;&gt;Node3 -->
<g id="edge7" class="edge">
<title>Node6&#45;&gt;Node3</title>
<path fill="none" stroke="midnightblue" d="M393.34,-55.71C382.72,-56.67 371.82,-57.65 361.1,-58.62"/>
<polygon fill="midnightblue" stroke="midnightblue" points="393.77,-59.19 403.42,-54.81 393.15,-52.22 393.77,-59.19"/>
</g>
<!-- Node8 -->
<g id="node8" class="node">
<title>Node8</title>
<g id="a_node8"><a xlink:href="../../d0/d0f/group___m_g_r___a_t___c_m_d.html#ga1a39b3c9cd76d50537a8bc42087ed46f" target="_top" xlink:title="Fct used to retreive and process event coming from kineis stack as answers to AT commands.">
<polygon fill="white" stroke="black" points="397,-0.5 397,-19.5 563,-19.5 563,-0.5 397,-0.5"/>
<text text-anchor="middle" x="480" y="-7.5" font-family="Helvetica,sans-Serif" font-size="10.00">MGR_AT_CMD_macEvtProcess</text>
</a>
</g>
</g>
<!-- Node7&#45;&gt;Node8 -->
<g id="edge9" class="edge">
<title>Node7&#45;&gt;Node8</title>
<path fill="none" stroke="midnightblue" d="M588.67,-10C580.24,-10 571.69,-10 563.3,-10"/>
<polygon fill="midnightblue" stroke="midnightblue" points="588.88,-13.5 598.88,-10 588.88,-6.5 588.88,-13.5"/>
</g>
<!-- Node9 -->
<g id="node9" class="node">
<title>Node9</title>
<g id="a_node9"><a xlink:href="../../dd/d41/group___k_n_s___a_p_p.html#ga06543de003a98e82570c572ce5e1240c" target="_top" xlink:title="This fct is the application expected to run in front of the GUI.">
<polygon fill="white" stroke="black" points="213.5,-0.5 213.5,-19.5 320.5,-19.5 320.5,-0.5 213.5,-0.5"/>
<text text-anchor="middle" x="267" y="-7.5" font-family="Helvetica,sans-Serif" font-size="10.00">KNS_APP_gui_loop</text>
</a>
</g>
</g>
<!-- Node8&#45;&gt;Node9 -->
<g id="edge10" class="edge">
<title>Node8&#45;&gt;Node9</title>
<path fill="none" stroke="midnightblue" d="M386.54,-10C364.02,-10 340.69,-10 320.75,-10"/>
<polygon fill="midnightblue" stroke="midnightblue" points="386.82,-13.5 396.82,-10 386.82,-6.5 386.82,-13.5"/>
</g>
<!-- Node10 -->
<g id="node10" class="node">
<title>Node10</title>
<g id="a_node10"><a xlink:href="../../d0/d29/main_8c.html#a840291bc02cba5474a4cb46a9b9566fe" target="_top" xlink:title="The application entry point.">
<polygon fill="white" stroke="black" points="48,-0.5 48,-19.5 89,-19.5 89,-0.5 48,-0.5"/>
<text text-anchor="middle" x="68.5" y="-7.5" font-family="Helvetica,sans-Serif" font-size="10.00">main</text>
</a>
</g>
</g>
<!-- Node9&#45;&gt;Node10 -->
<g id="edge11" class="edge">
<title>Node9&#45;&gt;Node10</title>
<path fill="none" stroke="midnightblue" d="M203.27,-10C163.85,-10 115.63,-10 89.18,-10"/>
<polygon fill="midnightblue" stroke="midnightblue" points="203.34,-13.5 213.34,-10 203.34,-6.5 203.34,-13.5"/>
</g>
</g>
</svg>
