<?xml version="1.0" encoding="UTF-8" standalone="no"?>
<!DOCTYPE svg PUBLIC "-//W3C//DTD SVG 1.1//EN"
 "http://www.w3.org/Graphics/SVG/1.1/DTD/svg11.dtd">
<!-- Generated by graphviz version 2.43.0 (0)
 -->
<!-- Title: USERDATA_txFifoLog Pages: 1 -->
<svg width="790pt" height="104pt"
 viewBox="0.00 0.00 790.00 104.00" xmlns="http://www.w3.org/2000/svg" xmlns:xlink="http://www.w3.org/1999/xlink">
<g id="graph0" class="graph" transform="scale(1 1) rotate(0) translate(4 100)">
<title>USERDATA_txFifoLog</title>
<polygon fill="white" stroke="transparent" points="-4,4 -4,-100 786,-100 786,4 -4,4"/>
<!-- Node1 -->
<g id="node1" class="node">
<title>Node1</title>
<g id="a_node1"><a xlink:title="Log content of the TX fifo.">
<polygon fill="#bfbfbf" stroke="black" points="664,-38.5 664,-57.5 782,-57.5 782,-38.5 664,-38.5"/>
<text text-anchor="middle" x="723" y="-45.5" font-family="Helvetica,sans-Serif" font-size="10.00">USERDATA_txFifoLog</text>
</a>
</g>
</g>
<!-- Node2 -->
<g id="node2" class="node">
<title>Node2</title>
<g id="a_node2"><a xlink:href="../../db/d4f/group___u_s_e_r___d_a_t_a.html#ga9dc3ef3b0eec939e8a61b25e0a107cbe" target="_top" xlink:title="Add element in TX fifo.">
<polygon fill="white" stroke="black" points="485,-76.5 485,-95.5 617,-95.5 617,-76.5 485,-76.5"/>
<text text-anchor="middle" x="551" y="-83.5" font-family="Helvetica,sans-Serif" font-size="10.00">USERDATA_txFifoAddElt</text>
</a>
</g>
</g>
<!-- Node1&#45;&gt;Node2 -->
<g id="edge1" class="edge">
<title>Node1&#45;&gt;Node2</title>
<path fill="none" stroke="midnightblue" d="M669.1,-59.82C645.13,-65.18 617.18,-71.43 594.59,-76.48"/>
<polygon fill="midnightblue" stroke="midnightblue" points="670.11,-63.19 679.1,-57.59 668.58,-56.35 670.11,-63.19"/>
</g>
<!-- Node5 -->
<g id="node5" class="node">
<title>Node5</title>
<g id="a_node5"><a xlink:href="../../db/d4f/group___u_s_e_r___d_a_t_a.html#ga029850e8ca80a3be9b099582f5c7488a" target="_top" xlink:title="flush TX fifo">
<polygon fill="white" stroke="black" points="487.5,-38.5 487.5,-57.5 614.5,-57.5 614.5,-38.5 487.5,-38.5"/>
<text text-anchor="middle" x="551" y="-45.5" font-family="Helvetica,sans-Serif" font-size="10.00">USERDATA_txFifoFlush</text>
</a>
</g>
</g>
<!-- Node1&#45;&gt;Node5 -->
<g id="edge4" class="edge">
<title>Node1&#45;&gt;Node5</title>
<path fill="none" stroke="midnightblue" d="M653.76,-48C640.87,-48 627.43,-48 614.71,-48"/>
<polygon fill="midnightblue" stroke="midnightblue" points="653.97,-51.5 663.97,-48 653.97,-44.5 653.97,-51.5"/>
</g>
<!-- Node9 -->
<g id="node9" class="node">
<title>Node9</title>
<g id="a_node9"><a xlink:href="../../db/d4f/group___u_s_e_r___d_a_t_a.html#ga4d20835dbc4b21f645ff55eed7d93216" target="_top" xlink:title="Delete an element from the TX fifo.">
<polygon fill="white" stroke="black" points="474,-0.5 474,-19.5 628,-19.5 628,-0.5 474,-0.5"/>
<text text-anchor="middle" x="551" y="-7.5" font-family="Helvetica,sans-Serif" font-size="10.00">USERDATA_txFifoRemoveElt</text>
</a>
</g>
</g>
<!-- Node1&#45;&gt;Node9 -->
<g id="edge8" class="edge">
<title>Node1&#45;&gt;Node9</title>
<path fill="none" stroke="midnightblue" d="M669.1,-36.18C645.13,-30.82 617.18,-24.57 594.59,-19.52"/>
<polygon fill="midnightblue" stroke="midnightblue" points="668.58,-39.65 679.1,-38.41 670.11,-32.81 668.58,-39.65"/>
</g>
<!-- Node3 -->
<g id="node3" class="node">
<title>Node3</title>
<g id="a_node3"><a xlink:href="../../d0/d0f/group___m_g_r___a_t___c_m_d.html#gaaa9bdf10c9ac69ef778eea22f8225343" target="_top" xlink:title="Handle new TX data, this is the core function of AT+TX cmd.">
<polygon fill="white" stroke="black" points="250,-76.5 250,-95.5 438,-95.5 438,-76.5 250,-76.5"/>
<text text-anchor="middle" x="344" y="-83.5" font-family="Helvetica,sans-Serif" font-size="10.00">bMGR_AT_CMD_handleNewTxData</text>
</a>
</g>
</g>
<!-- Node2&#45;&gt;Node3 -->
<g id="edge2" class="edge">
<title>Node2&#45;&gt;Node3</title>
<path fill="none" stroke="midnightblue" d="M474.56,-86C462.68,-86 450.28,-86 438.05,-86"/>
<polygon fill="midnightblue" stroke="midnightblue" points="474.86,-89.5 484.86,-86 474.86,-82.5 474.86,-89.5"/>
</g>
<!-- Node4 -->
<g id="node4" class="node">
<title>Node4</title>
<g id="a_node4"><a xlink:href="../../d0/d0f/group___m_g_r___a_t___c_m_d.html#ga0a4332fc4f8bad99c421588fe542a2bd" target="_top" xlink:title="Process AT command &quot;AT+TX&quot; send user data.">
<polygon fill="white" stroke="black" points="77,-76.5 77,-95.5 214,-95.5 214,-76.5 77,-76.5"/>
<text text-anchor="middle" x="145.5" y="-83.5" font-family="Helvetica,sans-Serif" font-size="10.00">bMGR_AT_CMD_TX_cmd</text>
</a>
</g>
</g>
<!-- Node3&#45;&gt;Node4 -->
<g id="edge3" class="edge">
<title>Node3&#45;&gt;Node4</title>
<path fill="none" stroke="midnightblue" d="M239.71,-86C231.01,-86 222.36,-86 214.04,-86"/>
<polygon fill="midnightblue" stroke="midnightblue" points="239.93,-89.5 249.93,-86 239.93,-82.5 239.93,-89.5"/>
</g>
<!-- Node6 -->
<g id="node6" class="node">
<title>Node6</title>
<g id="a_node6"><a xlink:href="../../d0/d0f/group___m_g_r___a_t___c_m_d.html#ga1a39b3c9cd76d50537a8bc42087ed46f" target="_top" xlink:title="Fct used to retreive and process event coming from kineis stack as answers to AT commands.">
<polygon fill="white" stroke="black" points="261,-19.5 261,-38.5 427,-38.5 427,-19.5 261,-19.5"/>
<text text-anchor="middle" x="344" y="-26.5" font-family="Helvetica,sans-Serif" font-size="10.00">MGR_AT_CMD_macEvtProcess</text>
</a>
</g>
</g>
<!-- Node5&#45;&gt;Node6 -->
<g id="edge5" class="edge">
<title>Node5&#45;&gt;Node6</title>
<path fill="none" stroke="midnightblue" d="M476.97,-41.23C460.87,-39.74 443.71,-38.15 427.27,-36.62"/>
<polygon fill="midnightblue" stroke="midnightblue" points="477.1,-44.76 487.38,-42.2 477.75,-37.79 477.1,-44.76"/>
</g>
<!-- Node7 -->
<g id="node7" class="node">
<title>Node7</title>
<g id="a_node7"><a xlink:href="../../dd/d41/group___k_n_s___a_p_p.html#ga06543de003a98e82570c572ce5e1240c" target="_top" xlink:title="This fct is the application expected to run in front of the GUI.">
<polygon fill="white" stroke="black" points="92,-19.5 92,-38.5 199,-38.5 199,-19.5 92,-19.5"/>
<text text-anchor="middle" x="145.5" y="-26.5" font-family="Helvetica,sans-Serif" font-size="10.00">KNS_APP_gui_loop</text>
</a>
</g>
</g>
<!-- Node6&#45;&gt;Node7 -->
<g id="edge6" class="edge">
<title>Node6&#45;&gt;Node7</title>
<path fill="none" stroke="midnightblue" d="M250.49,-29C232.9,-29 215.06,-29 199.25,-29"/>
<polygon fill="midnightblue" stroke="midnightblue" points="250.8,-32.5 260.8,-29 250.8,-25.5 250.8,-32.5"/>
</g>
<!-- Node8 -->
<g id="node8" class="node">
<title>Node8</title>
<g id="a_node8"><a xlink:href="../../d0/d29/main_8c.html#a840291bc02cba5474a4cb46a9b9566fe" target="_top" xlink:title="The application entry point.">
<polygon fill="white" stroke="black" points="0,-19.5 0,-38.5 41,-38.5 41,-19.5 0,-19.5"/>
<text text-anchor="middle" x="20.5" y="-26.5" font-family="Helvetica,sans-Serif" font-size="10.00">main</text>
</a>
</g>
</g>
<!-- Node7&#45;&gt;Node8 -->
<g id="edge7" class="edge">
<title>Node7&#45;&gt;Node8</title>
<path fill="none" stroke="midnightblue" d="M81.77,-29C66.99,-29 52.31,-29 41.13,-29"/>
<polygon fill="midnightblue" stroke="midnightblue" points="81.98,-32.5 91.98,-29 81.98,-25.5 81.98,-32.5"/>
</g>
<!-- Node9&#45;&gt;Node6 -->
<g id="edge9" class="edge">
<title>Node9&#45;&gt;Node6</title>
<path fill="none" stroke="midnightblue" d="M463.83,-17.99C451.67,-19.11 439.2,-20.27 427.11,-21.39"/>
<polygon fill="midnightblue" stroke="midnightblue" points="464.32,-21.46 473.96,-17.05 463.68,-14.49 464.32,-21.46"/>
</g>
</g>
</svg>
