<?xml version="1.0" encoding="UTF-8" standalone="no"?>
<!DOCTYPE svg PUBLIC "-//W3C//DTD SVG 1.1//EN"
 "http://www.w3.org/Graphics/SVG/1.1/DTD/svg11.dtd">
<!-- Generated by graphviz version 2.43.0 (0)
 -->
<!-- Title: USERDATA_txFifoFlush Pages: 1 -->
<svg width="439pt" height="102pt"
 viewBox="0.00 0.00 439.00 101.61" xmlns="http://www.w3.org/2000/svg" xmlns:xlink="http://www.w3.org/1999/xlink">
<g id="graph0" class="graph" transform="scale(1 1) rotate(0) translate(4 97.61)">
<title>USERDATA_txFifoFlush</title>
<polygon fill="white" stroke="transparent" points="-4,4 -4,-97.61 435,-97.61 435,4 -4,4"/>
<!-- Node1 -->
<g id="node1" class="node">
<title>Node1</title>
<g id="a_node1"><a xlink:title="flush TX fifo">
<polygon fill="#bfbfbf" stroke="black" points="0,-36.11 0,-55.11 127,-55.11 127,-36.11 0,-36.11"/>
<text text-anchor="middle" x="63.5" y="-43.11" font-family="Helvetica,sans-Serif" font-size="10.00">USERDATA_txFifoFlush</text>
</a>
</g>
</g>
<!-- Node2 -->
<g id="node2" class="node">
<title>Node2</title>
<g id="a_node2"><a xlink:href="../../d9/d2f/group___k_i_n_e_i_s___s_w___c_o_n_f.html#ga858c122b744e5d185b5abac307aae807" target="_top" xlink:title="Enter critical section.">
<polygon fill="white" stroke="black" points="345,-74.11 345,-93.11 431,-93.11 431,-74.11 345,-74.11"/>
<text text-anchor="middle" x="388" y="-81.11" font-family="Helvetica,sans-Serif" font-size="10.00">KNS_CS_enter</text>
</a>
</g>
</g>
<!-- Node1&#45;&gt;Node2 -->
<g id="edge1" class="edge">
<title>Node1&#45;&gt;Node2</title>
<path fill="none" stroke="midnightblue" d="M83.14,-55.2C102.51,-64.57 133.99,-78.21 163,-83.61 221.11,-94.43 289.19,-92.41 334.91,-88.97"/>
<polygon fill="midnightblue" stroke="midnightblue" points="335.19,-92.46 344.88,-88.17 334.63,-85.48 335.19,-92.46"/>
</g>
<!-- Node3 -->
<g id="node3" class="node">
<title>Node3</title>
<g id="a_node3"><a xlink:href="../../d9/d2f/group___k_i_n_e_i_s___s_w___c_o_n_f.html#ga58b477bfcd987dcd7b733b98ab692fdc" target="_top" xlink:title="Exit critical section.">
<polygon fill="white" stroke="black" points="348.5,-17.11 348.5,-36.11 427.5,-36.11 427.5,-17.11 348.5,-17.11"/>
<text text-anchor="middle" x="388" y="-24.11" font-family="Helvetica,sans-Serif" font-size="10.00">KNS_CS_exit</text>
</a>
</g>
</g>
<!-- Node1&#45;&gt;Node3 -->
<g id="edge2" class="edge">
<title>Node1&#45;&gt;Node3</title>
<path fill="none" stroke="midnightblue" d="M83.14,-36.03C102.51,-26.65 133.99,-13.02 163,-7.61 226.79,4.26 244.57,0.12 309,-7.61 320.99,-9.05 333.79,-11.69 345.49,-14.56"/>
<polygon fill="midnightblue" stroke="midnightblue" points="344.88,-18.01 355.44,-17.11 346.62,-11.23 344.88,-18.01"/>
</g>
<!-- Node4 -->
<g id="node4" class="node">
<title>Node4</title>
<g id="a_node4"><a xlink:href="../../db/d4f/group___u_s_e_r___d_a_t_a.html#ga7c272898faf1448391a80b578d9acf45" target="_top" xlink:title="count number of elements in TX fifo">
<polygon fill="white" stroke="black" points="163,-17.11 163,-36.11 309,-36.11 309,-17.11 163,-17.11"/>
<text text-anchor="middle" x="236" y="-24.11" font-family="Helvetica,sans-Serif" font-size="10.00">USERDATA_txFifoGetCount</text>
</a>
</g>
</g>
<!-- Node1&#45;&gt;Node4 -->
<g id="edge3" class="edge">
<title>Node1&#45;&gt;Node4</title>
<path fill="none" stroke="midnightblue" d="M127.02,-38.65C135.42,-37.71 144.14,-36.74 152.82,-35.77"/>
<polygon fill="midnightblue" stroke="midnightblue" points="153.41,-39.23 162.96,-34.64 152.64,-32.27 153.41,-39.23"/>
</g>
<!-- Node5 -->
<g id="node5" class="node">
<title>Node5</title>
<g id="a_node5"><a xlink:href="../../db/d4f/group___u_s_e_r___d_a_t_a.html#gafba02bd8b2e6ebad0b2f38b72e40ec21" target="_top" xlink:title="Log content of the TX fifo.">
<polygon fill="white" stroke="black" points="177,-55.11 177,-74.11 295,-74.11 295,-55.11 177,-55.11"/>
<text text-anchor="middle" x="236" y="-62.11" font-family="Helvetica,sans-Serif" font-size="10.00">USERDATA_txFifoLog</text>
</a>
</g>
</g>
<!-- Node1&#45;&gt;Node5 -->
<g id="edge4" class="edge">
<title>Node1&#45;&gt;Node5</title>
<path fill="none" stroke="midnightblue" d="M127.02,-52.58C139.84,-54.01 153.41,-55.52 166.43,-56.97"/>
<polygon fill="midnightblue" stroke="midnightblue" points="166.41,-60.49 176.74,-58.12 167.18,-53.53 166.41,-60.49"/>
</g>
<!-- Node5&#45;&gt;Node2 -->
<g id="edge5" class="edge">
<title>Node5&#45;&gt;Node2</title>
<path fill="none" stroke="midnightblue" d="M295.42,-72.01C308.41,-73.66 322.08,-75.39 334.8,-77"/>
<polygon fill="midnightblue" stroke="midnightblue" points="334.39,-80.48 344.75,-78.26 335.27,-73.53 334.39,-80.48"/>
</g>
<!-- Node5&#45;&gt;Node3 -->
<g id="edge6" class="edge">
<title>Node5&#45;&gt;Node3</title>
<path fill="none" stroke="midnightblue" d="M274.85,-55.02C294.47,-50.06 318.62,-43.94 339.48,-38.65"/>
<polygon fill="midnightblue" stroke="midnightblue" points="340.59,-41.98 349.42,-36.13 338.87,-35.2 340.59,-41.98"/>
</g>
</g>
</svg>
