<?xml version="1.0" encoding="UTF-8" standalone="no"?>
<!DOCTYPE svg PUBLIC "-//W3C//DTD SVG 1.1//EN"
 "http://www.w3.org/Graphics/SVG/1.1/DTD/svg11.dtd">
<!-- Generated by graphviz version 2.43.0 (0)
 -->
<!-- Title: Kineis/App/Kineis_os/KNS_OS/Src/kns_os.c Pages: 1 -->
<svg width="305pt" height="207pt"
 viewBox="0.00 0.00 304.50 207.00" xmlns="http://www.w3.org/2000/svg" xmlns:xlink="http://www.w3.org/1999/xlink">
<g id="graph0" class="graph" transform="scale(1 1) rotate(0) translate(4 203)">
<title>Kineis/App/Kineis_os/KNS_OS/Src/kns_os.c</title>
<polygon fill="white" stroke="transparent" points="-4,4 -4,-203 300.5,-203 300.5,4 -4,4"/>
<!-- Node1 -->
<g id="node1" class="node">
<title>Node1</title>
<g id="a_node1"><a xlink:title="Minimalist baremetal OS to be used with Kineis software stack.">
<polygon fill="#bfbfbf" stroke="black" points="24,-168.5 24,-198.5 146,-198.5 146,-168.5 24,-168.5"/>
<text text-anchor="start" x="32" y="-186.5" font-family="Helvetica,sans-Serif" font-size="10.00">Kineis/App/Kineis_os</text>
<text text-anchor="middle" x="85" y="-175.5" font-family="Helvetica,sans-Serif" font-size="10.00">/KNS_OS/Src/kns_os.c</text>
</a>
</g>
</g>
<!-- Node2 -->
<g id="node2" class="node">
<title>Node2</title>
<g id="a_node2"><a xlink:title=" ">
<polygon fill="white" stroke="#bfbfbf" points="19,-112.5 19,-131.5 75,-131.5 75,-112.5 19,-112.5"/>
<text text-anchor="middle" x="47" y="-119.5" font-family="Helvetica,sans-Serif" font-size="10.00">stddef.h</text>
</a>
</g>
</g>
<!-- Node1&#45;&gt;Node2 -->
<g id="edge1" class="edge">
<title>Node1&#45;&gt;Node2</title>
<path fill="none" stroke="midnightblue" d="M75.99,-168.4C70.59,-159.93 63.67,-149.1 57.95,-140.14"/>
<polygon fill="midnightblue" stroke="midnightblue" points="60.86,-138.2 52.53,-131.66 54.96,-141.97 60.86,-138.2"/>
</g>
<!-- Node3 -->
<g id="node3" class="node">
<title>Node3</title>
<g id="a_node3"><a xlink:href="../../d2/de2/kns__os_8h.html" target="_top" xlink:title="Minimalist baremetal OS to be used with Kineissoftware stack.">
<polygon fill="white" stroke="black" points="93.5,-112.5 93.5,-131.5 152.5,-131.5 152.5,-112.5 93.5,-112.5"/>
<text text-anchor="middle" x="123" y="-119.5" font-family="Helvetica,sans-Serif" font-size="10.00">kns_os.h</text>
</a>
</g>
</g>
<!-- Node1&#45;&gt;Node3 -->
<g id="edge2" class="edge">
<title>Node1&#45;&gt;Node3</title>
<path fill="none" stroke="midnightblue" d="M94.01,-168.4C99.41,-159.93 106.33,-149.1 112.05,-140.14"/>
<polygon fill="midnightblue" stroke="midnightblue" points="115.04,-141.97 117.47,-131.66 109.14,-138.2 115.04,-141.97"/>
</g>
<!-- Node4 -->
<g id="node4" class="node">
<title>Node4</title>
<g id="a_node4"><a xlink:title=" ">
<polygon fill="white" stroke="#bfbfbf" points="0,-56.5 0,-75.5 62,-75.5 62,-56.5 0,-56.5"/>
<text text-anchor="middle" x="31" y="-63.5" font-family="Helvetica,sans-Serif" font-size="10.00">stdbool.h</text>
</a>
</g>
</g>
<!-- Node3&#45;&gt;Node4 -->
<g id="edge3" class="edge">
<title>Node3&#45;&gt;Node4</title>
<path fill="none" stroke="midnightblue" d="M108.22,-112.32C93.73,-103.82 71.43,-90.73 54.51,-80.8"/>
<polygon fill="midnightblue" stroke="midnightblue" points="56.14,-77.7 45.74,-75.65 52.6,-83.74 56.14,-77.7"/>
</g>
<!-- Node5 -->
<g id="node5" class="node">
<title>Node5</title>
<g id="a_node5"><a xlink:title=" ">
<polygon fill="white" stroke="#bfbfbf" points="96.5,-0.5 96.5,-19.5 149.5,-19.5 149.5,-0.5 96.5,-0.5"/>
<text text-anchor="middle" x="123" y="-7.5" font-family="Helvetica,sans-Serif" font-size="10.00">stdint.h</text>
</a>
</g>
</g>
<!-- Node3&#45;&gt;Node5 -->
<g id="edge4" class="edge">
<title>Node3&#45;&gt;Node5</title>
<path fill="none" stroke="midnightblue" d="M119.66,-112.2C116.45,-103.24 111.82,-88.88 110,-76 107.76,-60.15 111.79,-42.34 115.94,-29.38"/>
<polygon fill="midnightblue" stroke="midnightblue" points="119.3,-30.37 119.32,-19.78 112.69,-28.05 119.3,-30.37"/>
</g>
<!-- Node6 -->
<g id="node6" class="node">
<title>Node6</title>
<g id="a_node6"><a xlink:href="../../d8/d85/kns__types_8h.html" target="_top" xlink:title="Kineis types definition.">
<polygon fill="white" stroke="black" points="118.5,-56.5 118.5,-75.5 193.5,-75.5 193.5,-56.5 118.5,-56.5"/>
<text text-anchor="middle" x="156" y="-63.5" font-family="Helvetica,sans-Serif" font-size="10.00">kns_types.h</text>
</a>
</g>
</g>
<!-- Node3&#45;&gt;Node6 -->
<g id="edge5" class="edge">
<title>Node3&#45;&gt;Node6</title>
<path fill="none" stroke="midnightblue" d="M128.45,-112.08C133.01,-104.61 139.67,-93.72 145.29,-84.52"/>
<polygon fill="midnightblue" stroke="midnightblue" points="148.42,-86.11 150.65,-75.75 142.45,-82.46 148.42,-86.11"/>
</g>
<!-- Node7 -->
<g id="node7" class="node">
<title>Node7</title>
<g id="a_node7"><a xlink:href="../../d6/d73/kns__os__conf_8h.html" target="_top" xlink:title="Configuration of task used with/in kineis_sw.">
<polygon fill="white" stroke="black" points="211.5,-56.5 211.5,-75.5 296.5,-75.5 296.5,-56.5 211.5,-56.5"/>
<text text-anchor="middle" x="254" y="-63.5" font-family="Helvetica,sans-Serif" font-size="10.00">kns_os_conf.h</text>
</a>
</g>
</g>
<!-- Node3&#45;&gt;Node7 -->
<g id="edge7" class="edge">
<title>Node3&#45;&gt;Node7</title>
<path fill="none" stroke="midnightblue" d="M143.76,-112.44C165.32,-103.56 199.26,-89.56 223.79,-79.45"/>
<polygon fill="midnightblue" stroke="midnightblue" points="225.43,-82.56 233.34,-75.52 222.76,-76.09 225.43,-82.56"/>
</g>
<!-- Node6&#45;&gt;Node5 -->
<g id="edge6" class="edge">
<title>Node6&#45;&gt;Node5</title>
<path fill="none" stroke="midnightblue" d="M150.55,-56.08C145.99,-48.61 139.33,-37.72 133.71,-28.52"/>
<polygon fill="midnightblue" stroke="midnightblue" points="136.55,-26.46 128.35,-19.75 130.58,-30.11 136.55,-26.46"/>
</g>
</g>
</svg>
