<?xml version="1.0" encoding="UTF-8" standalone="no"?>
<!DOCTYPE svg PUBLIC "-//W3C//DTD SVG 1.1//EN"
 "http://www.w3.org/Graphics/SVG/1.1/DTD/svg11.dtd">
<!-- Generated by graphviz version 2.43.0 (0)
 -->
<!-- Title: Kineis/Lpm/Src/lpm.c Pages: 1 -->
<svg width="442pt" height="252pt"
 viewBox="0.00 0.00 442.13 252.00" xmlns="http://www.w3.org/2000/svg" xmlns:xlink="http://www.w3.org/1999/xlink">
<g id="graph0" class="graph" transform="scale(1 1) rotate(0) translate(4 248)">
<title>Kineis/Lpm/Src/lpm.c</title>
<polygon fill="white" stroke="transparent" points="-4,4 -4,-248 438.13,-248 438.13,4 -4,4"/>
<!-- Node1 -->
<g id="node1" class="node">
<title>Node1</title>
<g id="a_node1"><a xlink:title="This file contains some utilities and functions needed for a correct handling of LPM on the STM32WL55...">
<polygon fill="#bfbfbf" stroke="black" points="136.13,-224.5 136.13,-243.5 255.13,-243.5 255.13,-224.5 136.13,-224.5"/>
<text text-anchor="middle" x="195.63" y="-231.5" font-family="Helvetica,sans-Serif" font-size="10.00">Kineis/Lpm/Src/lpm.c</text>
</a>
</g>
</g>
<!-- Node2 -->
<g id="node2" class="node">
<title>Node2</title>
<g id="a_node2"><a xlink:title=" ">
<polygon fill="white" stroke="#bfbfbf" points="40.63,-56.5 40.63,-75.5 102.63,-75.5 102.63,-56.5 40.63,-56.5"/>
<text text-anchor="middle" x="71.63" y="-63.5" font-family="Helvetica,sans-Serif" font-size="10.00">stdbool.h</text>
</a>
</g>
</g>
<!-- Node1&#45;&gt;Node2 -->
<g id="edge1" class="edge">
<title>Node1&#45;&gt;Node2</title>
<path fill="none" stroke="midnightblue" d="M135.9,-226.62C87.32,-220.06 24.34,-207.93 8.63,-188 -18.33,-153.78 25.99,-106.25 53.07,-82.22"/>
<polygon fill="midnightblue" stroke="midnightblue" points="55.52,-84.73 60.82,-75.56 50.96,-79.42 55.52,-84.73"/>
</g>
<!-- Node3 -->
<g id="node3" class="node">
<title>Node3</title>
<g id="a_node3"><a xlink:title=" ">
<polygon fill="white" stroke="#bfbfbf" points="223.63,-168.5 223.63,-187.5 273.63,-187.5 273.63,-168.5 223.63,-168.5"/>
<text text-anchor="middle" x="248.63" y="-175.5" font-family="Helvetica,sans-Serif" font-size="10.00">main.h</text>
</a>
</g>
</g>
<!-- Node1&#45;&gt;Node3 -->
<g id="edge2" class="edge">
<title>Node1&#45;&gt;Node3</title>
<path fill="none" stroke="midnightblue" d="M204.39,-224.08C212.1,-216.22 223.54,-204.57 232.85,-195.08"/>
<polygon fill="midnightblue" stroke="midnightblue" points="235.54,-197.34 240.04,-187.75 230.54,-192.44 235.54,-197.34"/>
</g>
<!-- Node4 -->
<g id="node4" class="node">
<title>Node4</title>
<g id="a_node4"><a xlink:title=" ">
<polygon fill="white" stroke="#bfbfbf" points="291.63,-168.5 291.63,-187.5 341.63,-187.5 341.63,-168.5 291.63,-168.5"/>
<text text-anchor="middle" x="316.63" y="-175.5" font-family="Helvetica,sans-Serif" font-size="10.00">usart.h</text>
</a>
</g>
</g>
<!-- Node1&#45;&gt;Node4 -->
<g id="edge3" class="edge">
<title>Node1&#45;&gt;Node4</title>
<path fill="none" stroke="midnightblue" d="M214.81,-224.44C234.54,-215.64 265.52,-201.81 288.13,-191.72"/>
<polygon fill="midnightblue" stroke="midnightblue" points="289.85,-194.79 297.55,-187.52 286.99,-188.4 289.85,-194.79"/>
</g>
<!-- Node5 -->
<g id="node5" class="node">
<title>Node5</title>
<g id="a_node5"><a xlink:href="../../df/db7/lpm_8h.html" target="_top" xlink:title="This file contains some utilities and functions needed for a correct handling of LPM on the STM32WL55...">
<polygon fill="white" stroke="black" points="123.63,-168.5 123.63,-187.5 167.63,-187.5 167.63,-168.5 123.63,-168.5"/>
<text text-anchor="middle" x="145.63" y="-175.5" font-family="Helvetica,sans-Serif" font-size="10.00">lpm.h</text>
</a>
</g>
</g>
<!-- Node1&#45;&gt;Node5 -->
<g id="edge4" class="edge">
<title>Node1&#45;&gt;Node5</title>
<path fill="none" stroke="midnightblue" d="M187.38,-224.08C180.17,-216.3 169.52,-204.8 160.79,-195.37"/>
<polygon fill="midnightblue" stroke="midnightblue" points="163.1,-192.71 153.74,-187.75 157.96,-197.47 163.1,-192.71"/>
</g>
<!-- Node6 -->
<g id="node6" class="node">
<title>Node6</title>
<g id="a_node6"><a xlink:href="../../df/d63/mgr__lpm_8h.html" target="_top" xlink:title="low power mode manager is in charge to collect all low power needs from &#39;clients&#39; and setup the corre...">
<polygon fill="white" stroke="black" points="119.13,-112.5 119.13,-131.5 188.13,-131.5 188.13,-112.5 119.13,-112.5"/>
<text text-anchor="middle" x="153.63" y="-119.5" font-family="Helvetica,sans-Serif" font-size="10.00">mgr_lpm.h</text>
</a>
</g>
</g>
<!-- Node1&#45;&gt;Node6 -->
<g id="edge11" class="edge">
<title>Node1&#45;&gt;Node6</title>
<path fill="none" stroke="midnightblue" d="M193.67,-224.41C190.67,-211.81 184.45,-187.67 176.63,-168 172.95,-158.73 167.99,-148.81 163.63,-140.65"/>
<polygon fill="midnightblue" stroke="midnightblue" points="166.61,-138.81 158.72,-131.74 160.48,-142.18 166.61,-138.81"/>
</g>
<!-- Node9 -->
<g id="node9" class="node">
<title>Node9</title>
<g id="a_node9"><a xlink:href="../../df/da4/lpm__cli__kstk_8h.html" target="_top" xlink:title="Kineis stack&#39;s LPM client. It is implementing APIs needed to interface with the low power manager (MG...">
<polygon fill="white" stroke="black" points="18.13,-168.5 18.13,-187.5 105.13,-187.5 105.13,-168.5 18.13,-168.5"/>
<text text-anchor="middle" x="61.63" y="-175.5" font-family="Helvetica,sans-Serif" font-size="10.00">lpm_cli_kstk.h</text>
</a>
</g>
</g>
<!-- Node1&#45;&gt;Node9 -->
<g id="edge12" class="edge">
<title>Node1&#45;&gt;Node9</title>
<path fill="none" stroke="midnightblue" d="M174.4,-224.44C152.25,-215.52 117.31,-201.44 92.2,-191.32"/>
<polygon fill="midnightblue" stroke="midnightblue" points="93.35,-188.01 82.77,-187.52 90.73,-194.5 93.35,-188.01"/>
</g>
<!-- Node10 -->
<g id="node10" class="node">
<title>Node10</title>
<g id="a_node10"><a xlink:href="../../d2/d2e/mgr__log_8h.html" target="_top" xlink:title="logger main header file">
<polygon fill="white" stroke="black" points="360.13,-168.5 360.13,-187.5 425.13,-187.5 425.13,-168.5 360.13,-168.5"/>
<text text-anchor="middle" x="392.63" y="-175.5" font-family="Helvetica,sans-Serif" font-size="10.00">mgr_log.h</text>
</a>
</g>
</g>
<!-- Node1&#45;&gt;Node10 -->
<g id="edge15" class="edge">
<title>Node1&#45;&gt;Node10</title>
<path fill="none" stroke="midnightblue" d="M226.85,-224.44C260.57,-215.2 314.43,-200.44 351.57,-190.26"/>
<polygon fill="midnightblue" stroke="midnightblue" points="352.85,-193.54 361.56,-187.52 350.99,-186.78 352.85,-193.54"/>
</g>
<!-- Node5&#45;&gt;Node2 -->
<g id="edge5" class="edge">
<title>Node5&#45;&gt;Node2</title>
<path fill="none" stroke="midnightblue" d="M138.07,-168.33C130.49,-159.47 118.7,-145.19 109.63,-132 99.02,-116.55 88.37,-98 81.06,-84.69"/>
<polygon fill="midnightblue" stroke="midnightblue" points="84.01,-82.79 76.17,-75.66 77.85,-86.12 84.01,-82.79"/>
</g>
<!-- Node5&#45;&gt;Node6 -->
<g id="edge6" class="edge">
<title>Node5&#45;&gt;Node6</title>
<path fill="none" stroke="midnightblue" d="M146.95,-168.08C148.01,-160.93 149.54,-150.64 150.86,-141.69"/>
<polygon fill="midnightblue" stroke="midnightblue" points="154.33,-142.16 152.34,-131.75 147.41,-141.13 154.33,-142.16"/>
</g>
<!-- Node6&#45;&gt;Node2 -->
<g id="edge7" class="edge">
<title>Node6&#45;&gt;Node2</title>
<path fill="none" stroke="midnightblue" d="M140.46,-112.32C127.79,-103.98 108.4,-91.21 93.43,-81.35"/>
<polygon fill="midnightblue" stroke="midnightblue" points="95.05,-78.23 84.78,-75.65 91.2,-84.08 95.05,-78.23"/>
</g>
<!-- Node7 -->
<g id="node7" class="node">
<title>Node7</title>
<g id="a_node7"><a xlink:title=" ">
<polygon fill="white" stroke="#bfbfbf" points="148.13,-0.5 148.13,-19.5 201.13,-19.5 201.13,-0.5 148.13,-0.5"/>
<text text-anchor="middle" x="174.63" y="-7.5" font-family="Helvetica,sans-Serif" font-size="10.00">stdint.h</text>
</a>
</g>
</g>
<!-- Node6&#45;&gt;Node7 -->
<g id="edge8" class="edge">
<title>Node6&#45;&gt;Node7</title>
<path fill="none" stroke="midnightblue" d="M154.28,-112.1C155.29,-99.51 157.58,-75.83 161.63,-56 163.47,-47.03 166.21,-37.24 168.7,-29.09"/>
<polygon fill="midnightblue" stroke="midnightblue" points="172.04,-30.12 171.73,-19.53 165.37,-28 172.04,-30.12"/>
</g>
<!-- Node8 -->
<g id="node8" class="node">
<title>Node8</title>
<g id="a_node8"><a xlink:href="../../d8/d85/kns__types_8h.html" target="_top" xlink:title="Kineis types definition.">
<polygon fill="white" stroke="black" points="170.13,-56.5 170.13,-75.5 245.13,-75.5 245.13,-56.5 170.13,-56.5"/>
<text text-anchor="middle" x="207.63" y="-63.5" font-family="Helvetica,sans-Serif" font-size="10.00">kns_types.h</text>
</a>
</g>
</g>
<!-- Node6&#45;&gt;Node8 -->
<g id="edge9" class="edge">
<title>Node6&#45;&gt;Node8</title>
<path fill="none" stroke="midnightblue" d="M162.55,-112.08C170.41,-104.22 182.06,-92.57 191.55,-83.08"/>
<polygon fill="midnightblue" stroke="midnightblue" points="194.29,-85.3 198.88,-75.75 189.34,-80.35 194.29,-85.3"/>
</g>
<!-- Node8&#45;&gt;Node7 -->
<g id="edge10" class="edge">
<title>Node8&#45;&gt;Node7</title>
<path fill="none" stroke="midnightblue" d="M202.18,-56.08C197.62,-48.61 190.97,-37.72 185.34,-28.52"/>
<polygon fill="midnightblue" stroke="midnightblue" points="188.18,-26.46 179.98,-19.75 182.21,-30.11 188.18,-26.46"/>
</g>
<!-- Node9&#45;&gt;Node2 -->
<g id="edge13" class="edge">
<title>Node9&#45;&gt;Node2</title>
<path fill="none" stroke="midnightblue" d="M62.42,-168.37C64.03,-150.62 67.75,-109.67 69.94,-85.6"/>
<polygon fill="midnightblue" stroke="midnightblue" points="73.43,-85.87 70.85,-75.59 66.46,-85.23 73.43,-85.87"/>
</g>
<!-- Node9&#45;&gt;Node6 -->
<g id="edge14" class="edge">
<title>Node9&#45;&gt;Node6</title>
<path fill="none" stroke="midnightblue" d="M76.42,-168.32C90.9,-159.82 113.21,-146.73 130.13,-136.8"/>
<polygon fill="midnightblue" stroke="midnightblue" points="132.04,-139.74 138.89,-131.65 128.49,-133.7 132.04,-139.74"/>
</g>
<!-- Node11 -->
<g id="node11" class="node">
<title>Node11</title>
<g id="a_node11"><a xlink:href="../../d9/d70/mgr__log__rtc_8h.html" target="_top" xlink:title=": Header for mgr_log_rtc.c file. This file contains log routine concerning RTC. Thus there is a depen...">
<polygon fill="white" stroke="black" points="351.13,-112.5 351.13,-131.5 434.13,-131.5 434.13,-112.5 351.13,-112.5"/>
<text text-anchor="middle" x="392.63" y="-119.5" font-family="Helvetica,sans-Serif" font-size="10.00">mgr_log_rtc.h</text>
</a>
</g>
</g>
<!-- Node10&#45;&gt;Node11 -->
<g id="edge16" class="edge">
<title>Node10&#45;&gt;Node11</title>
<path fill="none" stroke="midnightblue" d="M392.63,-168.08C392.63,-161.01 392.63,-150.86 392.63,-141.99"/>
<polygon fill="midnightblue" stroke="midnightblue" points="396.13,-141.75 392.63,-131.75 389.13,-141.75 396.13,-141.75"/>
</g>
</g>
</svg>
