<?xml version="1.0" encoding="UTF-8" standalone="no"?>
<!DOCTYPE svg PUBLIC "-//W3C//DTD SVG 1.1//EN"
 "http://www.w3.org/Graphics/SVG/1.1/DTD/svg11.dtd">
<!-- Generated by graphviz version 2.43.0 (0)
 -->
<!-- Title: Kineis/App Pages: 1 -->
<svg width="192pt" height="231pt"
 viewBox="0.00 0.00 192.00 231.00" xmlns="http://www.w3.org/2000/svg" xmlns:xlink="http://www.w3.org/1999/xlink">
<g id="graph0" class="graph" transform="scale(1 1) rotate(0) translate(4 227)">
<title>Kineis/App</title>
<polygon fill="white" stroke="transparent" points="-4,4 -4,-227 188,-227 188,4 -4,4"/>
<g id="clust1" class="cluster">
<title>clusterdir_e477e9e432f6cdbbe234eeb906f13059</title>
<g id="a_clust1"><a xlink:href="dir_e477e9e432f6cdbbe234eeb906f13059.html" target="_top" xlink:title="Kineis">
<polygon fill="#ddddee" stroke="black" points="8,-128 8,-215 176,-215 176,-128 8,-128"/>
<text text-anchor="middle" x="92" y="-203" font-family="Helvetica,sans-Serif" font-size="10.00">Kineis</text>
</a>
</g>
</g>
<g id="clust2" class="cluster">
<title>clusterdir_283ee20ab5eb9693b75f98890f2aae44</title>
<g id="a_clust2"><a xlink:href="dir_283ee20ab5eb9693b75f98890f2aae44.html" target="_top">
<polygon fill="#eeeeff" stroke="black" points="16,-136 16,-188 168,-188 168,-136 16,-136"/>
</a>
</g>
</g>
<!-- dir_283ee20ab5eb9693b75f98890f2aae44 -->
<g id="node1" class="node">
<title>dir_283ee20ab5eb9693b75f98890f2aae44</title>
<text text-anchor="middle" x="133" y="-159.5" font-family="Helvetica,sans-Serif" font-size="10.00">App</text>
</g>
<!-- dir_2597320cd5a766e2ddfc672ddb4c534b -->
<g id="node2" class="node">
<title>dir_2597320cd5a766e2ddfc672ddb4c534b</title>
<g id="a_node2"><a xlink:href="dir_2597320cd5a766e2ddfc672ddb4c534b.html" target="_top" xlink:title="Kineis_os">
<polygon fill="white" stroke="red" points="87.5,-180 24.5,-180 24.5,-144 87.5,-144 87.5,-180"/>
<text text-anchor="middle" x="56" y="-159.5" font-family="Helvetica,sans-Serif" font-size="10.00">Kineis_os</text>
</a>
</g>
</g>
<!-- dir_8bac7462668d86a984d2ee5977e3cf6a -->
<g id="node3" class="node">
<title>dir_8bac7462668d86a984d2ee5977e3cf6a</title>
<g id="a_node3"><a xlink:href="dir_8bac7462668d86a984d2ee5977e3cf6a.html" target="_top" xlink:title="Lib">
<polygon fill="none" stroke="black" points="82,-36 28,-36 28,0 82,0 82,-36"/>
<text text-anchor="middle" x="55" y="-15.5" font-family="Helvetica,sans-Serif" font-size="10.00">Lib</text>
</a>
</g>
</g>
<!-- dir_2597320cd5a766e2ddfc672ddb4c534b&#45;&gt;dir_8bac7462668d86a984d2ee5977e3cf6a -->
<g id="edge1" class="edge">
<title>dir_2597320cd5a766e2ddfc672ddb4c534b&#45;&gt;dir_8bac7462668d86a984d2ee5977e3cf6a</title>
<path fill="none" stroke="black" d="M52.35,-143.91C50.32,-133.57 48.02,-120.09 47,-108 45.66,-92.06 45.8,-87.96 47,-72 47.64,-63.52 48.84,-54.34 50.12,-46.04"/>
<polygon fill="black" stroke="black" points="53.58,-46.55 51.75,-36.11 46.68,-45.41 53.58,-46.55"/>
<g id="a_edge1&#45;headlabel"><a xlink:href="dir_000002_000011.html" target="_top" xlink:title="1">
<text text-anchor="middle" x="55.8" y="-48.05" font-family="Helvetica,sans-Serif" font-size="10.00">1</text>
</a>
</g>
</g>
<!-- dir_e4bcde167f88f305238965282a0ab06e -->
<g id="node4" class="node">
<title>dir_e4bcde167f88f305238965282a0ab06e</title>
<g id="a_node4"><a xlink:href="dir_e4bcde167f88f305238965282a0ab06e.html" target="_top" xlink:title="Extdep">
<polygon fill="white" stroke="red" points="110,-108 56,-108 56,-72 110,-72 110,-108"/>
<text text-anchor="middle" x="83" y="-87.5" font-family="Helvetica,sans-Serif" font-size="10.00">Extdep</text>
</a>
</g>
</g>
<!-- dir_2597320cd5a766e2ddfc672ddb4c534b&#45;&gt;dir_e4bcde167f88f305238965282a0ab06e -->
<g id="edge2" class="edge">
<title>dir_2597320cd5a766e2ddfc672ddb4c534b&#45;&gt;dir_e4bcde167f88f305238965282a0ab06e</title>
<path fill="none" stroke="black" d="M62.67,-143.7C65.71,-135.81 69.38,-126.3 72.76,-117.55"/>
<polygon fill="black" stroke="black" points="76.07,-118.69 76.4,-108.1 69.54,-116.17 76.07,-118.69"/>
<g id="a_edge2&#45;headlabel"><a xlink:href="dir_000002_000005.html" target="_top" xlink:title="1">
<text text-anchor="middle" x="77.42" y="-120.57" font-family="Helvetica,sans-Serif" font-size="10.00">1</text>
</a>
</g>
</g>
<!-- dir_e4bcde167f88f305238965282a0ab06e&#45;&gt;dir_8bac7462668d86a984d2ee5977e3cf6a -->
<g id="edge3" class="edge">
<title>dir_e4bcde167f88f305238965282a0ab06e&#45;&gt;dir_8bac7462668d86a984d2ee5977e3cf6a</title>
<path fill="none" stroke="black" d="M76.08,-71.7C72.93,-63.81 69.12,-54.3 65.62,-45.55"/>
<polygon fill="black" stroke="black" points="68.81,-44.09 61.84,-36.1 62.31,-46.69 68.81,-44.09"/>
<g id="a_edge3&#45;headlabel"><a xlink:href="dir_000005_000011.html" target="_top" xlink:title="4">
<text text-anchor="middle" x="72.78" y="-43.87" font-family="Helvetica,sans-Serif" font-size="10.00">4</text>
</a>
</g>
</g>
</g>
</svg>
