<?xml version="1.0" encoding="UTF-8" standalone="no"?>
<!DOCTYPE svg PUBLIC "-//W3C//DTD SVG 1.1//EN"
 "http://www.w3.org/Graphics/SVG/1.1/DTD/svg11.dtd">
<!-- Generated by graphviz version 2.43.0 (0)
 -->
<!-- Title: Kineis/Extdep Pages: 1 -->
<svg width="338pt" height="159pt"
 viewBox="0.00 0.00 338.00 159.00" xmlns="http://www.w3.org/2000/svg" xmlns:xlink="http://www.w3.org/1999/xlink">
<g id="graph0" class="graph" transform="scale(1 1) rotate(0) translate(4 155)">
<title>Kineis/Extdep</title>
<polygon fill="white" stroke="transparent" points="-4,4 -4,-155 334,-155 334,4 -4,4"/>
<g id="clust1" class="cluster">
<title>clusterdir_e477e9e432f6cdbbe234eeb906f13059</title>
<g id="a_clust1"><a xlink:href="dir_e477e9e432f6cdbbe234eeb906f13059.html" target="_top" xlink:title="Kineis">
<polygon fill="#ddddee" stroke="black" points="8,-56 8,-143 322,-143 322,-56 8,-56"/>
<text text-anchor="middle" x="165" y="-131" font-family="Helvetica,sans-Serif" font-size="10.00">Kineis</text>
</a>
</g>
</g>
<g id="clust2" class="cluster">
<title>clusterdir_e4bcde167f88f305238965282a0ab06e</title>
<g id="a_clust2"><a xlink:href="dir_e4bcde167f88f305238965282a0ab06e.html" target="_top">
<polygon fill="#eeeeff" stroke="black" points="16,-64 16,-116 314,-116 314,-64 16,-64"/>
</a>
</g>
</g>
<!-- dir_e4bcde167f88f305238965282a0ab06e -->
<g id="node1" class="node">
<title>dir_e4bcde167f88f305238965282a0ab06e</title>
<text text-anchor="middle" x="279" y="-87.5" font-family="Helvetica,sans-Serif" font-size="10.00">Extdep</text>
</g>
<!-- dir_b8b18822a774fad16818b672d6e0daf5 -->
<g id="node2" class="node">
<title>dir_b8b18822a774fad16818b672d6e0daf5</title>
<g id="a_node2"><a xlink:href="dir_b8b18822a774fad16818b672d6e0daf5.html" target="_top" xlink:title="Conf">
<polygon fill="white" stroke="black" points="234,-108 180,-108 180,-72 234,-72 234,-108"/>
<text text-anchor="middle" x="207" y="-87.5" font-family="Helvetica,sans-Serif" font-size="10.00">Conf</text>
</a>
</g>
</g>
<!-- dir_8bac7462668d86a984d2ee5977e3cf6a -->
<g id="node5" class="node">
<title>dir_8bac7462668d86a984d2ee5977e3cf6a</title>
<g id="a_node5"><a xlink:href="dir_8bac7462668d86a984d2ee5977e3cf6a.html" target="_top" xlink:title="Lib">
<polygon fill="none" stroke="black" points="198,-36 144,-36 144,0 198,0 198,-36"/>
<text text-anchor="middle" x="171" y="-15.5" font-family="Helvetica,sans-Serif" font-size="10.00">Lib</text>
</a>
</g>
</g>
<!-- dir_b8b18822a774fad16818b672d6e0daf5&#45;&gt;dir_8bac7462668d86a984d2ee5977e3cf6a -->
<g id="edge1" class="edge">
<title>dir_b8b18822a774fad16818b672d6e0daf5&#45;&gt;dir_8bac7462668d86a984d2ee5977e3cf6a</title>
<path fill="none" stroke="black" d="M198.1,-71.7C194,-63.73 189.05,-54.1 184.51,-45.26"/>
<polygon fill="black" stroke="black" points="187.48,-43.4 179.8,-36.1 181.26,-46.6 187.48,-43.4"/>
<g id="a_edge1&#45;headlabel"><a xlink:href="dir_000006_000011.html" target="_top" xlink:title="2">
<text text-anchor="middle" x="191.65" y="-42.79" font-family="Helvetica,sans-Serif" font-size="10.00">2</text>
</a>
</g>
</g>
<!-- dir_aca22906c4dbdf8e38c05a61c7a67a25 -->
<g id="node3" class="node">
<title>dir_aca22906c4dbdf8e38c05a61c7a67a25</title>
<g id="a_node3"><a xlink:href="dir_aca22906c4dbdf8e38c05a61c7a67a25.html" target="_top" xlink:title="Mcu">
<polygon fill="white" stroke="red" points="162,-108 108,-108 108,-72 162,-72 162,-108"/>
<text text-anchor="middle" x="135" y="-87.5" font-family="Helvetica,sans-Serif" font-size="10.00">Mcu</text>
</a>
</g>
</g>
<!-- dir_aca22906c4dbdf8e38c05a61c7a67a25&#45;&gt;dir_8bac7462668d86a984d2ee5977e3cf6a -->
<g id="edge2" class="edge">
<title>dir_aca22906c4dbdf8e38c05a61c7a67a25&#45;&gt;dir_8bac7462668d86a984d2ee5977e3cf6a</title>
<path fill="none" stroke="black" d="M143.9,-71.7C148,-63.73 152.95,-54.1 157.49,-45.26"/>
<polygon fill="black" stroke="black" points="160.74,-46.6 162.2,-36.1 154.52,-43.4 160.74,-46.6"/>
<g id="a_edge2&#45;headlabel"><a xlink:href="dir_000007_000011.html" target="_top" xlink:title="2">
<text text-anchor="middle" x="161.62" y="-48.59" font-family="Helvetica,sans-Serif" font-size="10.00">2</text>
</a>
</g>
</g>
<!-- dir_603c3abc85dcd5ce81fff229f71c4fb7 -->
<g id="node4" class="node">
<title>dir_603c3abc85dcd5ce81fff229f71c4fb7</title>
<g id="a_node4"><a xlink:href="dir_603c3abc85dcd5ce81fff229f71c4fb7.html" target="_top" xlink:title="MGR_LOG">
<polygon fill="white" stroke="red" points="89.5,-108 24.5,-108 24.5,-72 89.5,-72 89.5,-108"/>
<text text-anchor="middle" x="57" y="-87.5" font-family="Helvetica,sans-Serif" font-size="10.00">MGR_LOG</text>
</a>
</g>
</g>
</g>
</svg>
