<?xml version="1.0" encoding="UTF-8" standalone="no"?>
<!DOCTYPE svg PUBLIC "-//W3C//DTD SVG 1.1//EN"
 "http://www.w3.org/Graphics/SVG/1.1/DTD/svg11.dtd">
<!-- Generated by graphviz version 2.43.0 (0)
 -->
<!-- Title: Kineis/App/Mcu/Inc/mcu_at_console.h Pages: 1 -->
<svg width="740pt" height="117pt"
 viewBox="0.00 0.00 739.50 117.00" xmlns="http://www.w3.org/2000/svg" xmlns:xlink="http://www.w3.org/1999/xlink">
<g id="graph0" class="graph" transform="scale(1 1) rotate(0) translate(4 113)">
<title>Kineis/App/Mcu/Inc/mcu_at_console.h</title>
<polygon fill="white" stroke="transparent" points="-4,4 -4,-113 735.5,-113 735.5,4 -4,4"/>
<!-- Node1 -->
<g id="node1" class="node">
<title>Node1</title>
<g id="a_node1"><a xlink:title="MCU wrapper for AT CMD console.">
<polygon fill="#bfbfbf" stroke="black" points="306.5,-78.5 306.5,-108.5 415.5,-108.5 415.5,-78.5 306.5,-78.5"/>
<text text-anchor="start" x="314.5" y="-96.5" font-family="Helvetica,sans-Serif" font-size="10.00">Kineis/App/Mcu/Inc</text>
<text text-anchor="middle" x="361" y="-85.5" font-family="Helvetica,sans-Serif" font-size="10.00">/mcu_at_console.h</text>
</a>
</g>
</g>
<!-- Node2 -->
<g id="node2" class="node">
<title>Node2</title>
<g id="a_node2"><a xlink:href="../../da/d77/mgr__at__cmd_8c.html" target="_top" xlink:title="APIs Implementation used to parse the UART ASCII data stream and extract AT commands.">
<polygon fill="white" stroke="black" points="0,-0.5 0,-41.5 130,-41.5 130,-0.5 0,-0.5"/>
<text text-anchor="start" x="8" y="-29.5" font-family="Helvetica,sans-Serif" font-size="10.00">Kineis/App/Managers</text>
<text text-anchor="start" x="8" y="-18.5" font-family="Helvetica,sans-Serif" font-size="10.00">/MGR_AT_CMD/Src/mgr</text>
<text text-anchor="middle" x="65" y="-7.5" font-family="Helvetica,sans-Serif" font-size="10.00">_at_cmd.c</text>
</a>
</g>
</g>
<!-- Node1&#45;&gt;Node2 -->
<g id="edge1" class="edge">
<title>Node1&#45;&gt;Node2</title>
<path fill="none" stroke="midnightblue" d="M296.33,-78.51C251.95,-68.73 191.78,-55.13 139,-42 136.16,-41.29 133.26,-40.56 130.33,-39.81"/>
<polygon fill="midnightblue" stroke="midnightblue" points="295.6,-81.93 306.11,-80.66 297.1,-75.1 295.6,-81.93"/>
</g>
<!-- Node3 -->
<g id="node3" class="node">
<title>Node3</title>
<g id="a_node3"><a xlink:href="../../d5/dd7/mgr__at__cmd__common_8c.html" target="_top" xlink:title="common part of the AT cmd manager (logging, AT cmd response api)">
<polygon fill="white" stroke="black" points="148,-0.5 148,-41.5 278,-41.5 278,-0.5 148,-0.5"/>
<text text-anchor="start" x="156" y="-29.5" font-family="Helvetica,sans-Serif" font-size="10.00">Kineis/App/Managers</text>
<text text-anchor="start" x="156" y="-18.5" font-family="Helvetica,sans-Serif" font-size="10.00">/MGR_AT_CMD/Src/mgr</text>
<text text-anchor="middle" x="213" y="-7.5" font-family="Helvetica,sans-Serif" font-size="10.00">_at_cmd_common.c</text>
</a>
</g>
</g>
<!-- Node1&#45;&gt;Node3 -->
<g id="edge2" class="edge">
<title>Node1&#45;&gt;Node3</title>
<path fill="none" stroke="midnightblue" d="M322.15,-74C301.19,-64.01 275.32,-51.69 254.03,-41.55"/>
<polygon fill="midnightblue" stroke="midnightblue" points="320.87,-77.26 331.41,-78.4 323.88,-70.94 320.87,-77.26"/>
</g>
<!-- Node4 -->
<g id="node4" class="node">
<title>Node4</title>
<g id="a_node4"><a xlink:href="../../d1/dfd/mgr__at__cmd__list__general_8c.html" target="_top" xlink:title="subset of AT commands concerning general purpose (get ID, FW version, ...)">
<polygon fill="white" stroke="black" points="296,-0.5 296,-41.5 426,-41.5 426,-0.5 296,-0.5"/>
<text text-anchor="start" x="304" y="-29.5" font-family="Helvetica,sans-Serif" font-size="10.00">Kineis/App/Managers</text>
<text text-anchor="start" x="304" y="-18.5" font-family="Helvetica,sans-Serif" font-size="10.00">/MGR_AT_CMD/Src/mgr</text>
<text text-anchor="middle" x="361" y="-7.5" font-family="Helvetica,sans-Serif" font-size="10.00">_at_cmd_list_general.c</text>
</a>
</g>
</g>
<!-- Node1&#45;&gt;Node4 -->
<g id="edge3" class="edge">
<title>Node1&#45;&gt;Node4</title>
<path fill="none" stroke="midnightblue" d="M361,-67.98C361,-59.35 361,-49.76 361,-41.59"/>
<polygon fill="midnightblue" stroke="midnightblue" points="357.5,-68.23 361,-78.23 364.5,-68.23 357.5,-68.23"/>
</g>
<!-- Node5 -->
<g id="node5" class="node">
<title>Node5</title>
<g id="a_node5"><a xlink:href="../../d1/de0/mgr__at__cmd__list__mac_8c.html" target="_top" xlink:title="subset of AT commands concerning Kinéis Medium Acces Channel (MAC).">
<polygon fill="white" stroke="black" points="444,-0.5 444,-41.5 574,-41.5 574,-0.5 444,-0.5"/>
<text text-anchor="start" x="452" y="-29.5" font-family="Helvetica,sans-Serif" font-size="10.00">Kineis/App/Managers</text>
<text text-anchor="start" x="452" y="-18.5" font-family="Helvetica,sans-Serif" font-size="10.00">/MGR_AT_CMD/Src/mgr</text>
<text text-anchor="middle" x="509" y="-7.5" font-family="Helvetica,sans-Serif" font-size="10.00">_at_cmd_list_mac.c</text>
</a>
</g>
</g>
<!-- Node1&#45;&gt;Node5 -->
<g id="edge4" class="edge">
<title>Node1&#45;&gt;Node5</title>
<path fill="none" stroke="midnightblue" d="M399.85,-74C420.81,-64.01 446.68,-51.69 467.97,-41.55"/>
<polygon fill="midnightblue" stroke="midnightblue" points="398.12,-70.94 390.59,-78.4 401.13,-77.26 398.12,-70.94"/>
</g>
<!-- Node6 -->
<g id="node6" class="node">
<title>Node6</title>
<g id="a_node6"><a xlink:href="../../d0/d4a/mgr__at__cmd__list__previpass_8c.html" target="_top" xlink:title="subset of AT commands concerning satellite PASS predictions, usefull for Medium Acces">
<polygon fill="white" stroke="black" points="592.5,-0.5 592.5,-41.5 731.5,-41.5 731.5,-0.5 592.5,-0.5"/>
<text text-anchor="start" x="600.5" y="-29.5" font-family="Helvetica,sans-Serif" font-size="10.00">Kineis/App/Managers</text>
<text text-anchor="start" x="600.5" y="-18.5" font-family="Helvetica,sans-Serif" font-size="10.00">/MGR_AT_CMD/Src/mgr</text>
<text text-anchor="middle" x="662" y="-7.5" font-family="Helvetica,sans-Serif" font-size="10.00">_at_cmd_list_previpass.c</text>
</a>
</g>
</g>
<!-- Node1&#45;&gt;Node6 -->
<g id="edge5" class="edge">
<title>Node1&#45;&gt;Node6</title>
<path fill="none" stroke="midnightblue" d="M425.61,-78.24C469.95,-68.34 530.12,-54.71 583,-42 586.03,-41.27 589.12,-40.52 592.24,-39.76"/>
<polygon fill="midnightblue" stroke="midnightblue" points="424.83,-74.83 415.83,-80.42 426.35,-81.66 424.83,-74.83"/>
</g>
</g>
</svg>
