<?xml version="1.0" encoding="UTF-8" standalone="no"?>
<!DOCTYPE svg PUBLIC "-//W3C//DTD SVG 1.1//EN"
 "http://www.w3.org/Graphics/SVG/1.1/DTD/svg11.dtd">
<!-- Generated by graphviz version 2.43.0 (0)
 -->
<!-- Title: Kineis/Extdep/Conf/kns_assert.c Pages: 1 -->
<svg width="222pt" height="151pt"
 viewBox="0.00 0.00 222.00 151.00" xmlns="http://www.w3.org/2000/svg" xmlns:xlink="http://www.w3.org/1999/xlink">
<g id="graph0" class="graph" transform="scale(1 1) rotate(0) translate(4 147)">
<title>Kineis/Extdep/Conf/kns_assert.c</title>
<polygon fill="white" stroke="transparent" points="-4,4 -4,-147 218,-147 218,4 -4,4"/>
<!-- Node1 -->
<g id="node1" class="node">
<title>Node1</title>
<g id="a_node1"><a xlink:title="assert handling dependency regarding platform using the Kineis stack (handle reset)">
<polygon fill="#bfbfbf" stroke="black" points="42,-112.5 42,-142.5 151,-142.5 151,-112.5 42,-112.5"/>
<text text-anchor="start" x="50" y="-130.5" font-family="Helvetica,sans-Serif" font-size="10.00">Kineis/Extdep/Conf</text>
<text text-anchor="middle" x="96.5" y="-119.5" font-family="Helvetica,sans-Serif" font-size="10.00">/kns_assert.c</text>
</a>
</g>
</g>
<!-- Node2 -->
<g id="node2" class="node">
<title>Node2</title>
<g id="a_node2"><a xlink:title=" ">
<polygon fill="white" stroke="#bfbfbf" points="0,-56.5 0,-75.5 53,-75.5 53,-56.5 0,-56.5"/>
<text text-anchor="middle" x="26.5" y="-63.5" font-family="Helvetica,sans-Serif" font-size="10.00">stdint.h</text>
</a>
</g>
</g>
<!-- Node1&#45;&gt;Node2 -->
<g id="edge1" class="edge">
<title>Node1&#45;&gt;Node2</title>
<path fill="none" stroke="midnightblue" d="M79.91,-112.4C69.21,-103.31 55.31,-91.49 44.37,-82.19"/>
<polygon fill="midnightblue" stroke="midnightblue" points="46.57,-79.47 36.69,-75.66 42.04,-84.8 46.57,-79.47"/>
</g>
<!-- Node3 -->
<g id="node3" class="node">
<title>Node3</title>
<g id="a_node3"><a xlink:title=" ">
<polygon fill="white" stroke="#bfbfbf" points="71.5,-56.5 71.5,-75.5 121.5,-75.5 121.5,-56.5 71.5,-56.5"/>
<text text-anchor="middle" x="96.5" y="-63.5" font-family="Helvetica,sans-Serif" font-size="10.00">main.h</text>
</a>
</g>
</g>
<!-- Node1&#45;&gt;Node3 -->
<g id="edge2" class="edge">
<title>Node1&#45;&gt;Node3</title>
<path fill="none" stroke="midnightblue" d="M96.5,-112.4C96.5,-104.47 96.5,-94.46 96.5,-85.86"/>
<polygon fill="midnightblue" stroke="midnightblue" points="100,-85.66 96.5,-75.66 93,-85.66 100,-85.66"/>
</g>
<!-- Node4 -->
<g id="node4" class="node">
<title>Node4</title>
<g id="a_node4"><a xlink:href="../../d2/d2e/mgr__log_8h.html" target="_top" xlink:title="logger main header file">
<polygon fill="white" stroke="black" points="140,-56.5 140,-75.5 205,-75.5 205,-56.5 140,-56.5"/>
<text text-anchor="middle" x="172.5" y="-63.5" font-family="Helvetica,sans-Serif" font-size="10.00">mgr_log.h</text>
</a>
</g>
</g>
<!-- Node1&#45;&gt;Node4 -->
<g id="edge3" class="edge">
<title>Node1&#45;&gt;Node4</title>
<path fill="none" stroke="midnightblue" d="M114.51,-112.4C126.24,-103.22 141.52,-91.26 153.44,-81.92"/>
<polygon fill="midnightblue" stroke="midnightblue" points="155.72,-84.58 161.44,-75.66 151.41,-79.07 155.72,-84.58"/>
</g>
<!-- Node5 -->
<g id="node5" class="node">
<title>Node5</title>
<g id="a_node5"><a xlink:href="../../d9/d70/mgr__log__rtc_8h.html" target="_top" xlink:title=": Header for mgr_log_rtc.c file. This file contains log routine concerning RTC. Thus there is a depen...">
<polygon fill="white" stroke="black" points="131,-0.5 131,-19.5 214,-19.5 214,-0.5 131,-0.5"/>
<text text-anchor="middle" x="172.5" y="-7.5" font-family="Helvetica,sans-Serif" font-size="10.00">mgr_log_rtc.h</text>
</a>
</g>
</g>
<!-- Node4&#45;&gt;Node5 -->
<g id="edge4" class="edge">
<title>Node4&#45;&gt;Node5</title>
<path fill="none" stroke="midnightblue" d="M172.5,-56.08C172.5,-49.01 172.5,-38.86 172.5,-29.99"/>
<polygon fill="midnightblue" stroke="midnightblue" points="176,-29.75 172.5,-19.75 169,-29.75 176,-29.75"/>
</g>
</g>
</svg>
