<?xml version="1.0" encoding="UTF-8" standalone="no"?>
<!DOCTYPE svg PUBLIC "-//W3C//DTD SVG 1.1//EN"
 "http://www.w3.org/Graphics/SVG/1.1/DTD/svg11.dtd">
<!-- Generated by graphviz version 2.43.0 (0)
 -->
<!-- Title: Kineis/App/Managers/MGR_AT_CMD/Src/mgr_at_cmd_list_general.c Pages: 1 -->
<svg width="1102pt" height="285pt"
 viewBox="0.00 0.00 1102.00 285.00" xmlns="http://www.w3.org/2000/svg" xmlns:xlink="http://www.w3.org/1999/xlink">
<g id="graph0" class="graph" transform="scale(1 1) rotate(0) translate(4 281)">
<title>Kineis/App/Managers/MGR_AT_CMD/Src/mgr_at_cmd_list_general.c</title>
<polygon fill="white" stroke="transparent" points="-4,4 -4,-281 1098,-281 1098,4 -4,4"/>
<!-- Node1 -->
<g id="node1" class="node">
<title>Node1</title>
<g id="a_node1"><a xlink:title="subset of AT commands concerning general purpose (get ID, FW version, ...)">
<polygon fill="#bfbfbf" stroke="black" points="469,-235.5 469,-276.5 599,-276.5 599,-235.5 469,-235.5"/>
<text text-anchor="start" x="477" y="-264.5" font-family="Helvetica,sans-Serif" font-size="10.00">Kineis/App/Managers</text>
<text text-anchor="start" x="477" y="-253.5" font-family="Helvetica,sans-Serif" font-size="10.00">/MGR_AT_CMD/Src/mgr</text>
<text text-anchor="middle" x="534" y="-242.5" font-family="Helvetica,sans-Serif" font-size="10.00">_at_cmd_list_general.c</text>
</a>
</g>
</g>
<!-- Node2 -->
<g id="node2" class="node">
<title>Node2</title>
<g id="a_node2"><a xlink:title=" ">
<polygon fill="white" stroke="#bfbfbf" points="0,-174 0,-193 50,-193 50,-174 0,-174"/>
<text text-anchor="middle" x="25" y="-181" font-family="Helvetica,sans-Serif" font-size="10.00">stdio.h</text>
</a>
</g>
</g>
<!-- Node1&#45;&gt;Node2 -->
<g id="edge1" class="edge">
<title>Node1&#45;&gt;Node2</title>
<path fill="none" stroke="midnightblue" d="M468.75,-253.18C376.17,-249.28 202.03,-237.08 59,-199 56.65,-198.37 54.24,-197.61 51.85,-196.77"/>
<polygon fill="midnightblue" stroke="midnightblue" points="52.89,-193.42 42.31,-193.01 50.33,-199.93 52.89,-193.42"/>
</g>
<!-- Node3 -->
<g id="node3" class="node">
<title>Node3</title>
<g id="a_node3"><a xlink:title=" ">
<polygon fill="white" stroke="#bfbfbf" points="68.5,-174 68.5,-193 121.5,-193 121.5,-174 68.5,-174"/>
<text text-anchor="middle" x="95" y="-181" font-family="Helvetica,sans-Serif" font-size="10.00">string.h</text>
</a>
</g>
</g>
<!-- Node1&#45;&gt;Node3 -->
<g id="edge2" class="edge">
<title>Node1&#45;&gt;Node3</title>
<path fill="none" stroke="midnightblue" d="M468.96,-251.1C388.27,-245.11 247.02,-230.79 130,-199 127.56,-198.34 125.06,-197.54 122.57,-196.68"/>
<polygon fill="midnightblue" stroke="midnightblue" points="123.81,-193.4 113.22,-193.08 121.29,-199.94 123.81,-193.4"/>
</g>
<!-- Node4 -->
<g id="node4" class="node">
<title>Node4</title>
<g id="a_node4"><a xlink:href="../../d8/d85/kns__types_8h.html" target="_top" xlink:title="Kineis types definition.">
<polygon fill="white" stroke="black" points="488.5,-56.5 488.5,-75.5 563.5,-75.5 563.5,-56.5 488.5,-56.5"/>
<text text-anchor="middle" x="526" y="-63.5" font-family="Helvetica,sans-Serif" font-size="10.00">kns_types.h</text>
</a>
</g>
</g>
<!-- Node1&#45;&gt;Node4 -->
<g id="edge3" class="edge">
<title>Node1&#45;&gt;Node4</title>
<path fill="none" stroke="midnightblue" d="M518.31,-235.12C501.09,-211.92 474.5,-171.67 464,-132 461.73,-123.41 459.96,-119.92 464,-112 471,-98.27 484.37,-87.75 496.9,-80.35"/>
<polygon fill="midnightblue" stroke="midnightblue" points="498.67,-83.37 505.78,-75.51 495.32,-77.22 498.67,-83.37"/>
</g>
<!-- Node6 -->
<g id="node6" class="node">
<title>Node6</title>
<g id="a_node6"><a xlink:href="../../d5/d58/mgr__at__cmd__common_8h.html" target="_top" xlink:title="header file for common part of the AT cmd manager">
<polygon fill="white" stroke="black" points="237,-112.5 237,-131.5 371,-131.5 371,-112.5 237,-112.5"/>
<text text-anchor="middle" x="304" y="-119.5" font-family="Helvetica,sans-Serif" font-size="10.00">mgr_at_cmd_common.h</text>
</a>
</g>
</g>
<!-- Node1&#45;&gt;Node6 -->
<g id="edge5" class="edge">
<title>Node1&#45;&gt;Node6</title>
<path fill="none" stroke="midnightblue" d="M468.75,-251.18C426.09,-245.49 371.68,-231.75 335,-199 318.35,-184.13 310.47,-158.99 306.86,-141.73"/>
<polygon fill="midnightblue" stroke="midnightblue" points="310.27,-140.93 305.05,-131.7 303.38,-142.17 310.27,-140.93"/>
</g>
<!-- Node11 -->
<g id="node11" class="node">
<title>Node11</title>
<g id="a_node11"><a xlink:href="../../df/d01/mgr__at__cmd__list_8h.html" target="_top" xlink:title="AT commands list header file.">
<polygon fill="white" stroke="black" points="772.5,-56.5 772.5,-75.5 879.5,-75.5 879.5,-56.5 772.5,-56.5"/>
<text text-anchor="middle" x="826" y="-63.5" font-family="Helvetica,sans-Serif" font-size="10.00">mgr_at_cmd_list.h</text>
</a>
</g>
</g>
<!-- Node1&#45;&gt;Node11 -->
<g id="edge13" class="edge">
<title>Node1&#45;&gt;Node11</title>
<path fill="none" stroke="midnightblue" d="M599.12,-243.59C634.59,-235.23 678.03,-221.34 712,-199 759.08,-168.05 797.94,-112.36 815.66,-84.24"/>
<polygon fill="midnightblue" stroke="midnightblue" points="818.76,-85.88 821.03,-75.53 812.8,-82.21 818.76,-85.88"/>
</g>
<!-- Node12 -->
<g id="node12" class="node">
<title>Node12</title>
<g id="a_node12"><a xlink:href="../../d4/ddf/mgr__at__cmd__list__general_8h.html" target="_top" xlink:title="subset of AT commands concerning general purpose (get ID, FW version, ...)">
<polygon fill="white" stroke="black" points="139.5,-174 139.5,-193 288.5,-193 288.5,-174 139.5,-174"/>
<text text-anchor="middle" x="214" y="-181" font-family="Helvetica,sans-Serif" font-size="10.00">mgr_at_cmd_list_general.h</text>
</a>
</g>
</g>
<!-- Node1&#45;&gt;Node12 -->
<g id="edge16" class="edge">
<title>Node1&#45;&gt;Node12</title>
<path fill="none" stroke="midnightblue" d="M468.86,-240.65C407.79,-227.19 317.86,-207.38 262.76,-195.24"/>
<polygon fill="midnightblue" stroke="midnightblue" points="263.41,-191.8 252.9,-193.07 261.91,-198.64 263.41,-191.8"/>
</g>
<!-- Node13 -->
<g id="node13" class="node">
<title>Node13</title>
<g id="a_node13"><a xlink:href="../../de/de6/mgr__at__cmd__list__user__data_8h.html" target="_top" xlink:title="subset of AT commands concerning user data manipulation such as TX">
<polygon fill="white" stroke="black" points="344,-168.5 344,-198.5 468,-198.5 468,-168.5 344,-168.5"/>
<text text-anchor="start" x="352" y="-186.5" font-family="Helvetica,sans-Serif" font-size="10.00">mgr_at_cmd_list_user</text>
<text text-anchor="middle" x="406" y="-175.5" font-family="Helvetica,sans-Serif" font-size="10.00">_data.h</text>
</a>
</g>
</g>
<!-- Node1&#45;&gt;Node13 -->
<g id="edge18" class="edge">
<title>Node1&#45;&gt;Node13</title>
<path fill="none" stroke="midnightblue" d="M498.34,-235.36C480.33,-225.44 458.56,-213.45 440.68,-203.6"/>
<polygon fill="midnightblue" stroke="midnightblue" points="442.17,-200.43 431.73,-198.67 438.8,-206.56 442.17,-200.43"/>
</g>
<!-- Node14 -->
<g id="node14" class="node">
<title>Node14</title>
<g id="a_node14"><a xlink:href="../../d4/d30/mcu__at__console_8h.html" target="_top" xlink:title="MCU wrapper for AT CMD console.">
<polygon fill="white" stroke="black" points="990,-56.5 990,-75.5 1094,-75.5 1094,-56.5 990,-56.5"/>
<text text-anchor="middle" x="1042" y="-63.5" font-family="Helvetica,sans-Serif" font-size="10.00">mcu_at_console.h</text>
</a>
</g>
</g>
<!-- Node1&#45;&gt;Node14 -->
<g id="edge21" class="edge">
<title>Node1&#45;&gt;Node14</title>
<path fill="none" stroke="midnightblue" d="M599.11,-248.81C650.04,-241.95 721.45,-227.78 778,-199 830.5,-172.28 826.07,-139.82 878,-112 909.58,-95.08 948.08,-84.09 979.84,-77.21"/>
<polygon fill="midnightblue" stroke="midnightblue" points="980.82,-80.58 989.89,-75.11 979.39,-73.72 980.82,-80.58"/>
</g>
<!-- Node15 -->
<g id="node15" class="node">
<title>Node15</title>
<g id="a_node15"><a xlink:href="../../dc/d0e/mcu__misc_8h.html" target="_top" xlink:title="MCU wrappers for miscellaneous features.">
<polygon fill="white" stroke="black" points="472.5,-112.5 472.5,-131.5 547.5,-131.5 547.5,-112.5 472.5,-112.5"/>
<text text-anchor="middle" x="510" y="-119.5" font-family="Helvetica,sans-Serif" font-size="10.00">mcu_misc.h</text>
</a>
</g>
</g>
<!-- Node1&#45;&gt;Node15 -->
<g id="edge24" class="edge">
<title>Node1&#45;&gt;Node15</title>
<path fill="none" stroke="midnightblue" d="M530.41,-235.24C525.8,-209.92 517.88,-166.35 513.38,-141.6"/>
<polygon fill="midnightblue" stroke="midnightblue" points="516.81,-140.9 511.58,-131.69 509.92,-142.15 516.81,-140.9"/>
</g>
<!-- Node16 -->
<g id="node16" class="node">
<title>Node16</title>
<g id="a_node16"><a xlink:href="../../d9/d57/kns__cfg_8h.html" target="_top" xlink:title="Device communication driver for Kineis radio frequence.">
<polygon fill="white" stroke="black" points="565.5,-112.5 565.5,-131.5 628.5,-131.5 628.5,-112.5 565.5,-112.5"/>
<text text-anchor="middle" x="597" y="-119.5" font-family="Helvetica,sans-Serif" font-size="10.00">kns_cfg.h</text>
</a>
</g>
</g>
<!-- Node1&#45;&gt;Node16 -->
<g id="edge27" class="edge">
<title>Node1&#45;&gt;Node16</title>
<path fill="none" stroke="midnightblue" d="M543.43,-235.24C555.63,-209.69 576.69,-165.56 588.44,-140.93"/>
<polygon fill="midnightblue" stroke="midnightblue" points="591.71,-142.22 592.85,-131.69 585.39,-139.2 591.71,-142.22"/>
</g>
<!-- Node17 -->
<g id="node17" class="node">
<title>Node17</title>
<g id="a_node17"><a xlink:href="../../df/db7/lpm_8h.html" target="_top" xlink:title="This file contains some utilities and functions needed for a correct handling of LPM on the STM32WL55...">
<polygon fill="white" stroke="black" points="659,-174 659,-193 703,-193 703,-174 659,-174"/>
<text text-anchor="middle" x="681" y="-181" font-family="Helvetica,sans-Serif" font-size="10.00">lpm.h</text>
</a>
</g>
</g>
<!-- Node1&#45;&gt;Node17 -->
<g id="edge31" class="edge">
<title>Node1&#45;&gt;Node17</title>
<path fill="none" stroke="midnightblue" d="M574.95,-235.36C600.11,-223.29 631.65,-208.17 653.77,-197.56"/>
<polygon fill="midnightblue" stroke="midnightblue" points="655.41,-200.65 662.92,-193.17 652.38,-194.34 655.41,-200.65"/>
</g>
<!-- Node19 -->
<g id="node19" class="node">
<title>Node19</title>
<g id="a_node19"><a xlink:href="../../d0/dc7/build__info_8h.html" target="_top" xlink:title="contains references to SW version information. Corresponding builf_info.c will be generated during bu...">
<polygon fill="white" stroke="black" points="898,-56.5 898,-75.5 972,-75.5 972,-56.5 898,-56.5"/>
<text text-anchor="middle" x="935" y="-63.5" font-family="Helvetica,sans-Serif" font-size="10.00">build_info.h</text>
</a>
</g>
</g>
<!-- Node1&#45;&gt;Node19 -->
<g id="edge37" class="edge">
<title>Node1&#45;&gt;Node19</title>
<path fill="none" stroke="midnightblue" d="M599.3,-245.49C642.25,-237.37 698.68,-223.07 744,-199 796.03,-171.36 794.97,-144.66 844,-112 863.15,-99.25 886.43,-87.8 904.65,-79.64"/>
<polygon fill="midnightblue" stroke="midnightblue" points="906.18,-82.79 913.93,-75.57 903.37,-76.38 906.18,-82.79"/>
</g>
<!-- Node20 -->
<g id="node20" class="node">
<title>Node20</title>
<g id="a_node20"><a xlink:href="../../d2/d2e/mgr__log_8h.html" target="_top" xlink:title="logger main header file">
<polygon fill="white" stroke="black" points="891.5,-174 891.5,-193 956.5,-193 956.5,-174 891.5,-174"/>
<text text-anchor="middle" x="924" y="-181" font-family="Helvetica,sans-Serif" font-size="10.00">mgr_log.h</text>
</a>
</g>
</g>
<!-- Node1&#45;&gt;Node20 -->
<g id="edge40" class="edge">
<title>Node1&#45;&gt;Node20</title>
<path fill="none" stroke="midnightblue" d="M599.2,-246.33C667.56,-236.73 777.92,-219.85 872,-199 876.44,-198.02 881.07,-196.88 885.66,-195.69"/>
<polygon fill="midnightblue" stroke="midnightblue" points="886.78,-199.01 895.53,-193.03 884.96,-192.25 886.78,-199.01"/>
</g>
<!-- Node5 -->
<g id="node5" class="node">
<title>Node5</title>
<g id="a_node5"><a xlink:title=" ">
<polygon fill="white" stroke="#bfbfbf" points="565.5,-0.5 565.5,-19.5 618.5,-19.5 618.5,-0.5 565.5,-0.5"/>
<text text-anchor="middle" x="592" y="-7.5" font-family="Helvetica,sans-Serif" font-size="10.00">stdint.h</text>
</a>
</g>
</g>
<!-- Node4&#45;&gt;Node5 -->
<g id="edge4" class="edge">
<title>Node4&#45;&gt;Node5</title>
<path fill="none" stroke="midnightblue" d="M536.6,-56.32C546.46,-48.26 561.35,-36.08 573.22,-26.37"/>
<polygon fill="midnightblue" stroke="midnightblue" points="575.68,-28.88 581.2,-19.83 571.25,-23.46 575.68,-28.88"/>
</g>
<!-- Node6&#45;&gt;Node5 -->
<g id="edge6" class="edge">
<title>Node6&#45;&gt;Node5</title>
<path fill="none" stroke="midnightblue" d="M298.01,-112.29C289.43,-98.63 276.13,-72.09 290,-56 323.81,-16.77 481.94,-11.21 554.92,-10.78"/>
<polygon fill="midnightblue" stroke="midnightblue" points="555.05,-14.28 565.04,-10.75 555.03,-7.28 555.05,-14.28"/>
</g>
<!-- Node7 -->
<g id="node7" class="node">
<title>Node7</title>
<g id="a_node7"><a xlink:title=" ">
<polygon fill="white" stroke="#bfbfbf" points="694,-0.5 694,-19.5 756,-19.5 756,-0.5 694,-0.5"/>
<text text-anchor="middle" x="725" y="-7.5" font-family="Helvetica,sans-Serif" font-size="10.00">stdbool.h</text>
</a>
</g>
</g>
<!-- Node6&#45;&gt;Node7 -->
<g id="edge7" class="edge">
<title>Node6&#45;&gt;Node7</title>
<path fill="none" stroke="midnightblue" d="M303.73,-112.23C303.82,-98.01 306.26,-70.07 323,-56 329.87,-50.22 582.32,-24.96 683.59,-15.03"/>
<polygon fill="midnightblue" stroke="midnightblue" points="684.15,-18.49 693.76,-14.03 683.46,-11.52 684.15,-18.49"/>
</g>
<!-- Node8 -->
<g id="node8" class="node">
<title>Node8</title>
<g id="a_node8"><a xlink:href="../../df/d36/strutil__lib_8h.html" target="_top" xlink:title="small utilities to manipulate strings">
<polygon fill="white" stroke="black" points="166.5,-56.5 166.5,-75.5 237.5,-75.5 237.5,-56.5 166.5,-56.5"/>
<text text-anchor="middle" x="202" y="-63.5" font-family="Helvetica,sans-Serif" font-size="10.00">strutil_lib.h</text>
</a>
</g>
</g>
<!-- Node6&#45;&gt;Node8 -->
<g id="edge8" class="edge">
<title>Node6&#45;&gt;Node8</title>
<path fill="none" stroke="midnightblue" d="M287.61,-112.32C271.33,-103.7 246.13,-90.36 227.28,-80.39"/>
<polygon fill="midnightblue" stroke="midnightblue" points="228.82,-77.24 218.35,-75.65 225.55,-83.43 228.82,-77.24"/>
</g>
<!-- Node10 -->
<g id="node10" class="node">
<title>Node10</title>
<g id="a_node10"><a xlink:href="../../d9/dc4/kineis__sw__conf_8h.html" target="_top" xlink:title="Kineis stack SW configurations depending on platform used.">
<polygon fill="white" stroke="black" points="332.5,-56.5 332.5,-75.5 431.5,-75.5 431.5,-56.5 332.5,-56.5"/>
<text text-anchor="middle" x="382" y="-63.5" font-family="Helvetica,sans-Serif" font-size="10.00">kineis_sw_conf.h</text>
</a>
</g>
</g>
<!-- Node6&#45;&gt;Node10 -->
<g id="edge12" class="edge">
<title>Node6&#45;&gt;Node10</title>
<path fill="none" stroke="midnightblue" d="M316.53,-112.32C328.59,-103.98 347.03,-91.21 361.27,-81.35"/>
<polygon fill="midnightblue" stroke="midnightblue" points="363.27,-84.22 369.5,-75.65 359.28,-78.47 363.27,-84.22"/>
</g>
<!-- Node8&#45;&gt;Node5 -->
<g id="edge9" class="edge">
<title>Node8&#45;&gt;Node5</title>
<path fill="none" stroke="midnightblue" d="M237.75,-58.36C242.53,-57.53 247.38,-56.72 252,-56 362.11,-38.81 492.96,-22.7 555.36,-15.28"/>
<polygon fill="midnightblue" stroke="midnightblue" points="555.97,-18.73 565.49,-14.08 555.15,-11.78 555.97,-18.73"/>
</g>
<!-- Node8&#45;&gt;Node7 -->
<g id="edge10" class="edge">
<title>Node8&#45;&gt;Node7</title>
<path fill="none" stroke="midnightblue" d="M237.54,-61.33C331.13,-51.67 584.06,-25.55 683.78,-15.26"/>
<polygon fill="midnightblue" stroke="midnightblue" points="684.19,-18.73 693.78,-14.22 683.47,-11.77 684.19,-18.73"/>
</g>
<!-- Node9 -->
<g id="node9" class="node">
<title>Node9</title>
<g id="a_node9"><a xlink:title=" ">
<polygon fill="white" stroke="#bfbfbf" points="175.5,-0.5 175.5,-19.5 228.5,-19.5 228.5,-0.5 175.5,-0.5"/>
<text text-anchor="middle" x="202" y="-7.5" font-family="Helvetica,sans-Serif" font-size="10.00">stdlib.h</text>
</a>
</g>
</g>
<!-- Node8&#45;&gt;Node9 -->
<g id="edge11" class="edge">
<title>Node8&#45;&gt;Node9</title>
<path fill="none" stroke="midnightblue" d="M202,-56.08C202,-49.01 202,-38.86 202,-29.99"/>
<polygon fill="midnightblue" stroke="midnightblue" points="205.5,-29.75 202,-19.75 198.5,-29.75 205.5,-29.75"/>
</g>
<!-- Node11&#45;&gt;Node5 -->
<g id="edge14" class="edge">
<title>Node11&#45;&gt;Node5</title>
<path fill="none" stroke="midnightblue" d="M788.92,-56.44C745.02,-46.31 672.35,-29.54 628.64,-19.46"/>
<polygon fill="midnightblue" stroke="midnightblue" points="629.25,-16 618.71,-17.16 627.67,-22.82 629.25,-16"/>
</g>
<!-- Node11&#45;&gt;Node7 -->
<g id="edge15" class="edge">
<title>Node11&#45;&gt;Node7</title>
<path fill="none" stroke="midnightblue" d="M809.77,-56.32C793.65,-47.7 768.7,-34.36 750.04,-24.39"/>
<polygon fill="midnightblue" stroke="midnightblue" points="751.66,-21.28 741.19,-19.65 748.36,-27.46 751.66,-21.28"/>
</g>
<!-- Node12&#45;&gt;Node6 -->
<g id="edge17" class="edge">
<title>Node12&#45;&gt;Node6</title>
<path fill="none" stroke="midnightblue" d="M226.89,-173.98C241.46,-164.34 265.4,-148.52 282.75,-137.05"/>
<polygon fill="midnightblue" stroke="midnightblue" points="284.72,-139.94 291.13,-131.51 280.86,-134.1 284.72,-139.94"/>
</g>
<!-- Node13&#45;&gt;Node4 -->
<g id="edge19" class="edge">
<title>Node13&#45;&gt;Node4</title>
<path fill="none" stroke="midnightblue" d="M407.5,-168.41C409.84,-152.89 415.68,-127.99 430,-112 443.84,-96.54 464.11,-85.97 482.46,-78.98"/>
<polygon fill="midnightblue" stroke="midnightblue" points="483.87,-82.2 492.12,-75.55 481.53,-75.6 483.87,-82.2"/>
</g>
<!-- Node13&#45;&gt;Node6 -->
<g id="edge20" class="edge">
<title>Node13&#45;&gt;Node6</title>
<path fill="none" stroke="midnightblue" d="M381.83,-168.4C365.48,-158.86 343.99,-146.32 327.73,-136.84"/>
<polygon fill="midnightblue" stroke="midnightblue" points="329.24,-133.67 318.84,-131.66 325.72,-139.72 329.24,-133.67"/>
</g>
<!-- Node14&#45;&gt;Node5 -->
<g id="edge23" class="edge">
<title>Node14&#45;&gt;Node5</title>
<path fill="none" stroke="midnightblue" d="M989.77,-57.18C986.81,-56.77 983.87,-56.38 981,-56 851.81,-39 698.02,-22.23 628.88,-14.88"/>
<polygon fill="midnightblue" stroke="midnightblue" points="629.23,-11.39 618.92,-13.82 628.49,-18.36 629.23,-11.39"/>
</g>
<!-- Node14&#45;&gt;Node7 -->
<g id="edge22" class="edge">
<title>Node14&#45;&gt;Node7</title>
<path fill="none" stroke="midnightblue" d="M991.77,-56.44C929.35,-45.81 824.02,-27.87 766.15,-18.01"/>
<polygon fill="midnightblue" stroke="midnightblue" points="766.7,-14.55 756.26,-16.32 765.53,-21.45 766.7,-14.55"/>
</g>
<!-- Node15&#45;&gt;Node4 -->
<g id="edge26" class="edge">
<title>Node15&#45;&gt;Node4</title>
<path fill="none" stroke="midnightblue" d="M512.64,-112.08C514.79,-104.85 517.88,-94.41 520.55,-85.4"/>
<polygon fill="midnightblue" stroke="midnightblue" points="523.92,-86.33 523.41,-75.75 517.21,-84.34 523.92,-86.33"/>
</g>
<!-- Node15&#45;&gt;Node5 -->
<g id="edge25" class="edge">
<title>Node15&#45;&gt;Node5</title>
<path fill="none" stroke="midnightblue" d="M500.33,-112.12C487.39,-99.14 467.47,-74.53 480,-56 496.78,-31.17 529.77,-20.04 555.62,-15.05"/>
<polygon fill="midnightblue" stroke="midnightblue" points="556.21,-18.5 565.48,-13.37 555.03,-11.6 556.21,-18.5"/>
</g>
<!-- Node16&#45;&gt;Node4 -->
<g id="edge30" class="edge">
<title>Node16&#45;&gt;Node4</title>
<path fill="none" stroke="midnightblue" d="M585.59,-112.32C574.89,-104.18 558.66,-91.84 545.84,-82.09"/>
<polygon fill="midnightblue" stroke="midnightblue" points="547.69,-79.1 537.61,-75.83 543.46,-84.67 547.69,-79.1"/>
</g>
<!-- Node16&#45;&gt;Node5 -->
<g id="edge29" class="edge">
<title>Node16&#45;&gt;Node5</title>
<path fill="none" stroke="midnightblue" d="M596.61,-112.37C595.8,-94.62 593.94,-53.67 592.85,-29.6"/>
<polygon fill="midnightblue" stroke="midnightblue" points="596.34,-29.42 592.39,-19.59 589.35,-29.74 596.34,-29.42"/>
</g>
<!-- Node16&#45;&gt;Node7 -->
<g id="edge28" class="edge">
<title>Node16&#45;&gt;Node7</title>
<path fill="none" stroke="midnightblue" d="M607.04,-112.37C628.73,-93.73 680.16,-49.53 707.39,-26.13"/>
<polygon fill="midnightblue" stroke="midnightblue" points="709.7,-28.76 715,-19.59 705.14,-23.45 709.7,-28.76"/>
</g>
<!-- Node17&#45;&gt;Node7 -->
<g id="edge32" class="edge">
<title>Node17&#45;&gt;Node7</title>
<path fill="none" stroke="midnightblue" d="M692.17,-173.87C702.92,-164.79 718.47,-149.42 725,-132 737.85,-97.69 733.19,-53.98 728.92,-29.59"/>
<polygon fill="midnightblue" stroke="midnightblue" points="732.32,-28.73 726.99,-19.58 725.44,-30.06 732.32,-28.73"/>
</g>
<!-- Node18 -->
<g id="node18" class="node">
<title>Node18</title>
<g id="a_node18"><a xlink:href="../../df/d63/mgr__lpm_8h.html" target="_top" xlink:title="low power mode manager is in charge to collect all low power needs from &#39;clients&#39; and setup the corre...">
<polygon fill="white" stroke="black" points="646.5,-112.5 646.5,-131.5 715.5,-131.5 715.5,-112.5 646.5,-112.5"/>
<text text-anchor="middle" x="681" y="-119.5" font-family="Helvetica,sans-Serif" font-size="10.00">mgr_lpm.h</text>
</a>
</g>
</g>
<!-- Node17&#45;&gt;Node18 -->
<g id="edge33" class="edge">
<title>Node17&#45;&gt;Node18</title>
<path fill="none" stroke="midnightblue" d="M681,-173.98C681,-165.58 681,-152.48 681,-141.66"/>
<polygon fill="midnightblue" stroke="midnightblue" points="684.5,-141.51 681,-131.51 677.5,-141.51 684.5,-141.51"/>
</g>
<!-- Node18&#45;&gt;Node4 -->
<g id="edge36" class="edge">
<title>Node18&#45;&gt;Node4</title>
<path fill="none" stroke="midnightblue" d="M656.44,-112.44C630.48,-103.4 589.33,-89.06 560.2,-78.92"/>
<polygon fill="midnightblue" stroke="midnightblue" points="561.04,-75.5 550.45,-75.52 558.74,-82.11 561.04,-75.5"/>
</g>
<!-- Node18&#45;&gt;Node5 -->
<g id="edge35" class="edge">
<title>Node18&#45;&gt;Node5</title>
<path fill="none" stroke="midnightblue" d="M674.02,-112.37C659.26,-94.14 624.71,-51.43 605.49,-27.68"/>
<polygon fill="midnightblue" stroke="midnightblue" points="607.96,-25.16 598.95,-19.59 602.52,-29.57 607.96,-25.16"/>
</g>
<!-- Node18&#45;&gt;Node7 -->
<g id="edge34" class="edge">
<title>Node18&#45;&gt;Node7</title>
<path fill="none" stroke="midnightblue" d="M684.45,-112.37C691.62,-94.46 708.23,-52.92 717.82,-28.95"/>
<polygon fill="midnightblue" stroke="midnightblue" points="721.1,-30.18 721.56,-19.59 714.6,-27.58 721.1,-30.18"/>
</g>
<!-- Node19&#45;&gt;Node5 -->
<g id="edge39" class="edge">
<title>Node19&#45;&gt;Node5</title>
<path fill="none" stroke="midnightblue" d="M897.87,-57.59C894.87,-57.04 891.89,-56.5 889,-56 795.59,-39.79 685.08,-23.91 628.86,-16.07"/>
<polygon fill="midnightblue" stroke="midnightblue" points="629.07,-12.56 618.69,-14.65 628.11,-19.5 629.07,-12.56"/>
</g>
<!-- Node19&#45;&gt;Node7 -->
<g id="edge38" class="edge">
<title>Node19&#45;&gt;Node7</title>
<path fill="none" stroke="midnightblue" d="M901.72,-56.44C864.91,-46.98 805.57,-31.72 765.94,-21.53"/>
<polygon fill="midnightblue" stroke="midnightblue" points="766.62,-18.09 756.07,-18.99 764.88,-24.87 766.62,-18.09"/>
</g>
<!-- Node21 -->
<g id="node21" class="node">
<title>Node21</title>
<g id="a_node21"><a xlink:href="../../d9/d70/mgr__log__rtc_8h.html" target="_top" xlink:title=": Header for mgr_log_rtc.c file. This file contains log routine concerning RTC. Thus there is a depen...">
<polygon fill="white" stroke="black" points="886.5,-112.5 886.5,-131.5 969.5,-131.5 969.5,-112.5 886.5,-112.5"/>
<text text-anchor="middle" x="928" y="-119.5" font-family="Helvetica,sans-Serif" font-size="10.00">mgr_log_rtc.h</text>
</a>
</g>
</g>
<!-- Node20&#45;&gt;Node21 -->
<g id="edge41" class="edge">
<title>Node20&#45;&gt;Node21</title>
<path fill="none" stroke="midnightblue" d="M924.57,-173.98C925.14,-165.58 926.02,-152.48 926.75,-141.66"/>
<polygon fill="midnightblue" stroke="midnightblue" points="930.25,-141.72 927.43,-131.51 923.26,-141.25 930.25,-141.72"/>
</g>
</g>
</svg>
