<?xml version="1.0" encoding="UTF-8" standalone="no"?>
<!DOCTYPE svg PUBLIC "-//W3C//DTD SVG 1.1//EN"
 "http://www.w3.org/Graphics/SVG/1.1/DTD/svg11.dtd">
<!-- Generated by graphviz version 2.43.0 (0)
 -->
<!-- Title: Kineis/Lib/kns_mac.h Pages: 1 -->
<svg width="276pt" height="252pt"
 viewBox="0.00 0.00 275.50 252.00" xmlns="http://www.w3.org/2000/svg" xmlns:xlink="http://www.w3.org/1999/xlink">
<g id="graph0" class="graph" transform="scale(1 1) rotate(0) translate(4 248)">
<title>Kineis/Lib/kns_mac.h</title>
<polygon fill="white" stroke="transparent" points="-4,4 -4,-248 271.5,-248 271.5,4 -4,4"/>
<!-- Node1 -->
<g id="node1" class="node">
<title>Node1</title>
<g id="a_node1"><a xlink:title="Main header file for MAC layer of Kineis stack.">
<polygon fill="#bfbfbf" stroke="black" points="104.5,-224.5 104.5,-243.5 223.5,-243.5 223.5,-224.5 104.5,-224.5"/>
<text text-anchor="middle" x="164" y="-231.5" font-family="Helvetica,sans-Serif" font-size="10.00">Kineis/Lib/kns_mac.h</text>
</a>
</g>
</g>
<!-- Node2 -->
<g id="node2" class="node">
<title>Node2</title>
<g id="a_node2"><a xlink:href="../../df/d64/kns__mac__evt_8h.html" target="_top" xlink:title=" ">
<polygon fill="white" stroke="black" points="83,-168.5 83,-187.5 173,-187.5 173,-168.5 83,-168.5"/>
<text text-anchor="middle" x="128" y="-175.5" font-family="Helvetica,sans-Serif" font-size="10.00">kns_mac_evt.h</text>
</a>
</g>
</g>
<!-- Node1&#45;&gt;Node2 -->
<g id="edge1" class="edge">
<title>Node1&#45;&gt;Node2</title>
<path fill="none" stroke="midnightblue" d="M158.06,-224.08C153.02,-216.53 145.66,-205.49 139.49,-196.23"/>
<polygon fill="midnightblue" stroke="midnightblue" points="142.29,-194.13 133.83,-187.75 136.47,-198.01 142.29,-194.13"/>
</g>
<!-- Node6 -->
<g id="node6" class="node">
<title>Node6</title>
<g id="a_node6"><a xlink:href="../../d8/d4a/kns__mac__prfl__cfg_8h.html" target="_top" xlink:title="Header file describing the ser settings required to configure a MAC protocol.">
<polygon fill="white" stroke="black" points="156.5,-112.5 156.5,-131.5 267.5,-131.5 267.5,-112.5 156.5,-112.5"/>
<text text-anchor="middle" x="212" y="-119.5" font-family="Helvetica,sans-Serif" font-size="10.00">kns_mac_prfl_cfg.h</text>
</a>
</g>
</g>
<!-- Node1&#45;&gt;Node6 -->
<g id="edge9" class="edge">
<title>Node1&#45;&gt;Node6</title>
<path fill="none" stroke="midnightblue" d="M167.77,-224.37C175.58,-206.46 193.71,-164.92 204.17,-140.95"/>
<polygon fill="midnightblue" stroke="midnightblue" points="207.46,-142.16 208.25,-131.59 201.04,-139.36 207.46,-142.16"/>
</g>
<!-- Node3 -->
<g id="node3" class="node">
<title>Node3</title>
<g id="a_node3"><a xlink:title=" ">
<polygon fill="white" stroke="#bfbfbf" points="0,-112.5 0,-131.5 62,-131.5 62,-112.5 0,-112.5"/>
<text text-anchor="middle" x="31" y="-119.5" font-family="Helvetica,sans-Serif" font-size="10.00">stdbool.h</text>
</a>
</g>
</g>
<!-- Node2&#45;&gt;Node3 -->
<g id="edge2" class="edge">
<title>Node2&#45;&gt;Node3</title>
<path fill="none" stroke="midnightblue" d="M112.42,-168.32C97,-159.74 73.19,-146.49 55.29,-136.52"/>
<polygon fill="midnightblue" stroke="midnightblue" points="56.99,-133.46 46.55,-131.65 53.58,-139.58 56.99,-133.46"/>
</g>
<!-- Node4 -->
<g id="node4" class="node">
<title>Node4</title>
<g id="a_node4"><a xlink:title=" ">
<polygon fill="white" stroke="#bfbfbf" points="129.5,-0.5 129.5,-19.5 182.5,-19.5 182.5,-0.5 129.5,-0.5"/>
<text text-anchor="middle" x="156" y="-7.5" font-family="Helvetica,sans-Serif" font-size="10.00">stdint.h</text>
</a>
</g>
</g>
<!-- Node2&#45;&gt;Node4 -->
<g id="edge3" class="edge">
<title>Node2&#45;&gt;Node4</title>
<path fill="none" stroke="midnightblue" d="M123.71,-168.4C114.19,-148.02 93.36,-95.54 110,-56 115.03,-44.05 124.94,-33.69 134.29,-25.93"/>
<polygon fill="midnightblue" stroke="midnightblue" points="136.44,-28.69 142.21,-19.81 132.16,-23.15 136.44,-28.69"/>
</g>
<!-- Node5 -->
<g id="node5" class="node">
<title>Node5</title>
<g id="a_node5"><a xlink:href="../../d8/d85/kns__types_8h.html" target="_top" xlink:title="Kineis types definition.">
<polygon fill="white" stroke="black" points="118.5,-56.5 118.5,-75.5 193.5,-75.5 193.5,-56.5 118.5,-56.5"/>
<text text-anchor="middle" x="156" y="-63.5" font-family="Helvetica,sans-Serif" font-size="10.00">kns_types.h</text>
</a>
</g>
</g>
<!-- Node2&#45;&gt;Node5 -->
<g id="edge4" class="edge">
<title>Node2&#45;&gt;Node5</title>
<path fill="none" stroke="midnightblue" d="M130.2,-168.37C134.72,-150.62 145.14,-109.67 151.27,-85.6"/>
<polygon fill="midnightblue" stroke="midnightblue" points="154.74,-86.15 153.81,-75.59 147.95,-84.42 154.74,-86.15"/>
</g>
<!-- Node2&#45;&gt;Node6 -->
<g id="edge6" class="edge">
<title>Node2&#45;&gt;Node6</title>
<path fill="none" stroke="midnightblue" d="M141.5,-168.32C154.6,-159.9 174.71,-146.97 190.11,-137.07"/>
<polygon fill="midnightblue" stroke="midnightblue" points="192.02,-140.01 198.54,-131.65 188.23,-134.12 192.02,-140.01"/>
</g>
<!-- Node5&#45;&gt;Node4 -->
<g id="edge5" class="edge">
<title>Node5&#45;&gt;Node4</title>
<path fill="none" stroke="midnightblue" d="M156,-56.08C156,-49.01 156,-38.86 156,-29.99"/>
<polygon fill="midnightblue" stroke="midnightblue" points="159.5,-29.75 156,-19.75 152.5,-29.75 159.5,-29.75"/>
</g>
<!-- Node6&#45;&gt;Node4 -->
<g id="edge7" class="edge">
<title>Node6&#45;&gt;Node4</title>
<path fill="none" stroke="midnightblue" d="M212.36,-112.48C212.54,-99.54 211.49,-74.48 202,-56 196.06,-44.44 186.01,-34.09 176.82,-26.24"/>
<polygon fill="midnightblue" stroke="midnightblue" points="178.75,-23.3 168.77,-19.77 174.37,-28.76 178.75,-23.3"/>
</g>
<!-- Node6&#45;&gt;Node5 -->
<g id="edge8" class="edge">
<title>Node6&#45;&gt;Node5</title>
<path fill="none" stroke="midnightblue" d="M203,-112.32C194.81,-104.42 182.49,-92.55 172.53,-82.94"/>
<polygon fill="midnightblue" stroke="midnightblue" points="174.79,-80.26 165.16,-75.83 169.93,-85.29 174.79,-80.26"/>
</g>
</g>
</svg>
