<?xml version="1.0" encoding="UTF-8" standalone="no"?>
<!DOCTYPE svg PUBLIC "-//W3C//DTD SVG 1.1//EN"
 "http://www.w3.org/Graphics/SVG/1.1/DTD/svg11.dtd">
<!-- Generated by graphviz version 2.43.0 (0)
 -->
<!-- Title: Kineis/App/Mcu/Src/mcu_at_console.c Pages: 1 -->
<svg width="658pt" height="151pt"
 viewBox="0.00 0.00 657.50 151.00" xmlns="http://www.w3.org/2000/svg" xmlns:xlink="http://www.w3.org/1999/xlink">
<g id="graph0" class="graph" transform="scale(1 1) rotate(0) translate(4 147)">
<title>Kineis/App/Mcu/Src/mcu_at_console.c</title>
<polygon fill="white" stroke="transparent" points="-4,4 -4,-147 653.5,-147 653.5,4 -4,4"/>
<!-- Node1 -->
<g id="node1" class="node">
<title>Node1</title>
<g id="a_node1"><a xlink:title="MCU wrapper for AT CMD console.">
<polygon fill="#bfbfbf" stroke="black" points="235,-112.5 235,-142.5 345,-142.5 345,-112.5 235,-112.5"/>
<text text-anchor="start" x="243" y="-130.5" font-family="Helvetica,sans-Serif" font-size="10.00">Kineis/App/Mcu/Src</text>
<text text-anchor="middle" x="290" y="-119.5" font-family="Helvetica,sans-Serif" font-size="10.00">/mcu_at_console.c</text>
</a>
</g>
</g>
<!-- Node2 -->
<g id="node2" class="node">
<title>Node2</title>
<g id="a_node2"><a xlink:href="../../d8/d3c/mcu__at__console__stm_8c.html" target="_top" xlink:title=" ">
<polygon fill="white" stroke="black" points="226,-56.5 226,-75.5 354,-75.5 354,-56.5 226,-56.5"/>
<text text-anchor="middle" x="290" y="-63.5" font-family="Helvetica,sans-Serif" font-size="10.00">mcu_at_console_stm.c</text>
</a>
</g>
</g>
<!-- Node1&#45;&gt;Node2 -->
<g id="edge1" class="edge">
<title>Node1&#45;&gt;Node2</title>
<path fill="none" stroke="midnightblue" d="M290,-112.4C290,-104.47 290,-94.46 290,-85.86"/>
<polygon fill="midnightblue" stroke="midnightblue" points="293.5,-85.66 290,-75.66 286.5,-85.66 293.5,-85.66"/>
</g>
<!-- Node3 -->
<g id="node3" class="node">
<title>Node3</title>
<g id="a_node3"><a xlink:title=" ">
<polygon fill="white" stroke="#bfbfbf" points="0,-0.5 0,-19.5 56,-19.5 56,-0.5 0,-0.5"/>
<text text-anchor="middle" x="28" y="-7.5" font-family="Helvetica,sans-Serif" font-size="10.00">stddef.h</text>
</a>
</g>
</g>
<!-- Node2&#45;&gt;Node3 -->
<g id="edge2" class="edge">
<title>Node2&#45;&gt;Node3</title>
<path fill="none" stroke="midnightblue" d="M244.63,-56.5C201.24,-48.23 133.73,-35.05 66.21,-20.2"/>
<polygon fill="midnightblue" stroke="midnightblue" points="66.77,-16.74 56.25,-18 65.26,-23.58 66.77,-16.74"/>
</g>
<!-- Node4 -->
<g id="node4" class="node">
<title>Node4</title>
<g id="a_node4"><a xlink:title=" ">
<polygon fill="white" stroke="#bfbfbf" points="74.5,-0.5 74.5,-19.5 127.5,-19.5 127.5,-0.5 74.5,-0.5"/>
<text text-anchor="middle" x="101" y="-7.5" font-family="Helvetica,sans-Serif" font-size="10.00">stdint.h</text>
</a>
</g>
</g>
<!-- Node2&#45;&gt;Node4 -->
<g id="edge3" class="edge">
<title>Node2&#45;&gt;Node4</title>
<path fill="none" stroke="midnightblue" d="M260.05,-56.44C226.89,-46.97 173.43,-31.69 137.76,-21.5"/>
<polygon fill="midnightblue" stroke="midnightblue" points="138.33,-18.03 127.75,-18.64 136.41,-24.76 138.33,-18.03"/>
</g>
<!-- Node5 -->
<g id="node5" class="node">
<title>Node5</title>
<g id="a_node5"><a xlink:title=" ">
<polygon fill="white" stroke="#bfbfbf" points="146,-0.5 146,-19.5 208,-19.5 208,-0.5 146,-0.5"/>
<text text-anchor="middle" x="177" y="-7.5" font-family="Helvetica,sans-Serif" font-size="10.00">stdbool.h</text>
</a>
</g>
</g>
<!-- Node2&#45;&gt;Node5 -->
<g id="edge4" class="edge">
<title>Node2&#45;&gt;Node5</title>
<path fill="none" stroke="midnightblue" d="M272.09,-56.44C253.75,-47.68 224.99,-33.94 203.91,-23.86"/>
<polygon fill="midnightblue" stroke="midnightblue" points="205.35,-20.67 194.82,-19.52 202.33,-26.99 205.35,-20.67"/>
</g>
<!-- Node6 -->
<g id="node6" class="node">
<title>Node6</title>
<g id="a_node6"><a xlink:title=" ">
<polygon fill="white" stroke="#bfbfbf" points="226,-0.5 226,-19.5 282,-19.5 282,-0.5 226,-0.5"/>
<text text-anchor="middle" x="254" y="-7.5" font-family="Helvetica,sans-Serif" font-size="10.00">stdarg.h</text>
</a>
</g>
</g>
<!-- Node2&#45;&gt;Node6 -->
<g id="edge5" class="edge">
<title>Node2&#45;&gt;Node6</title>
<path fill="none" stroke="midnightblue" d="M284.06,-56.08C279.02,-48.53 271.66,-37.49 265.49,-28.23"/>
<polygon fill="midnightblue" stroke="midnightblue" points="268.29,-26.13 259.83,-19.75 262.47,-30.01 268.29,-26.13"/>
</g>
<!-- Node7 -->
<g id="node7" class="node">
<title>Node7</title>
<g id="a_node7"><a xlink:title=" ">
<polygon fill="white" stroke="#bfbfbf" points="300.5,-0.5 300.5,-19.5 353.5,-19.5 353.5,-0.5 300.5,-0.5"/>
<text text-anchor="middle" x="327" y="-7.5" font-family="Helvetica,sans-Serif" font-size="10.00">string.h</text>
</a>
</g>
</g>
<!-- Node2&#45;&gt;Node7 -->
<g id="edge6" class="edge">
<title>Node2&#45;&gt;Node7</title>
<path fill="none" stroke="midnightblue" d="M296.11,-56.08C301.28,-48.53 308.85,-37.49 315.19,-28.23"/>
<polygon fill="midnightblue" stroke="midnightblue" points="318.24,-29.98 321,-19.75 312.46,-26.02 318.24,-29.98"/>
</g>
<!-- Node8 -->
<g id="node8" class="node">
<title>Node8</title>
<g id="a_node8"><a xlink:title=" ">
<polygon fill="white" stroke="#bfbfbf" points="372,-0.5 372,-19.5 422,-19.5 422,-0.5 372,-0.5"/>
<text text-anchor="middle" x="397" y="-7.5" font-family="Helvetica,sans-Serif" font-size="10.00">stdio.h</text>
</a>
</g>
</g>
<!-- Node2&#45;&gt;Node8 -->
<g id="edge7" class="edge">
<title>Node2&#45;&gt;Node8</title>
<path fill="none" stroke="midnightblue" d="M307.19,-56.32C324.35,-47.66 350.95,-34.24 370.75,-24.25"/>
<polygon fill="midnightblue" stroke="midnightblue" points="372.5,-27.28 379.85,-19.65 369.35,-21.04 372.5,-27.28"/>
</g>
<!-- Node9 -->
<g id="node9" class="node">
<title>Node9</title>
<g id="a_node9"><a xlink:href="../../d5/d04/kns__app__conf_8h.html" target="_top" xlink:title="Kineis Application configurations depending on platform used.">
<polygon fill="white" stroke="black" points="440,-0.5 440,-19.5 532,-19.5 532,-0.5 440,-0.5"/>
<text text-anchor="middle" x="486" y="-7.5" font-family="Helvetica,sans-Serif" font-size="10.00">kns_app_conf.h</text>
</a>
</g>
</g>
<!-- Node2&#45;&gt;Node9 -->
<g id="edge8" class="edge">
<title>Node2&#45;&gt;Node9</title>
<path fill="none" stroke="midnightblue" d="M321.06,-56.44C354.6,-47.2 408.2,-32.44 445.14,-22.26"/>
<polygon fill="midnightblue" stroke="midnightblue" points="446.38,-25.55 455.09,-19.52 444.52,-18.8 446.38,-25.55"/>
</g>
<!-- Node10 -->
<g id="node10" class="node">
<title>Node10</title>
<g id="a_node10"><a xlink:href="../../d9/dc4/kineis__sw__conf_8h.html" target="_top" xlink:title="Kineis stack SW configurations depending on platform used.">
<polygon fill="white" stroke="black" points="550.5,-0.5 550.5,-19.5 649.5,-19.5 649.5,-0.5 550.5,-0.5"/>
<text text-anchor="middle" x="600" y="-7.5" font-family="Helvetica,sans-Serif" font-size="10.00">kineis_sw_conf.h</text>
</a>
</g>
</g>
<!-- Node2&#45;&gt;Node10 -->
<g id="edge9" class="edge">
<title>Node2&#45;&gt;Node10</title>
<path fill="none" stroke="midnightblue" d="M339.12,-56.44C393.88,-46.9 482.41,-31.48 540.91,-21.29"/>
<polygon fill="midnightblue" stroke="midnightblue" points="541.86,-24.68 551.11,-19.52 540.66,-17.78 541.86,-24.68"/>
</g>
</g>
</svg>
