<?xml version="1.0" encoding="UTF-8" standalone="no"?>
<!DOCTYPE svg PUBLIC "-//W3C//DTD SVG 1.1//EN"
 "http://www.w3.org/Graphics/SVG/1.1/DTD/svg11.dtd">
<!-- Generated by graphviz version 2.43.0 (0)
 -->
<!-- Title: Kineis/Extdep/MGR_LOG/Inc/mgr_log.h Pages: 1 -->
<!--zoomable 184 -->
<svg id="main" version="1.1" xmlns="http://www.w3.org/2000/svg" xmlns:xlink="http://www.w3.org/1999/xlink" xml:space="preserve" onload="init(evt)">
<style type="text/css"><![CDATA[
.edge:hover path { stroke: red; }
.edge:hover polygon { stroke: red; fill: red; }
]]></style>
<script type="text/javascript"><![CDATA[
var edges = document.getElementsByTagName('g');
if (edges && edges.length) {
  for (var i=0;i<edges.length;i++) {
    if (edges[i].id.substr(0,4)=='edge') {
      edges[i].setAttribute('class','edge');
    }
  }
}
]]></script>
        <defs>
                <circle id="rim" cx="0" cy="0" r="7"/>
                <circle id="rim2" cx="0" cy="0" r="3.5"/>
                <g id="zoomPlus">
                        <use xlink:href="#rim" fill="#404040">
                                <set attributeName="fill" to="#808080" begin="zoomplus.mouseover" end="zoomplus.mouseout"/>
                        </use>
                        <path d="M-4,0h8M0,-4v8" fill="none" stroke="white" stroke-width="1.5" pointer-events="none"/>
                </g>
                <g id="zoomMin">
                        <use xlink:href="#rim" fill="#404040">
                                <set attributeName="fill" to="#808080" begin="zoomminus.mouseover" end="zoomminus.mouseout"/>
                        </use>
                        <path d="M-4,0h8" fill="none" stroke="white" stroke-width="1.5" pointer-events="none"/>
                </g>
                <g id="dirArrow">
                        <path fill="none" stroke="white" stroke-width="1.5" d="M0,-3.0v7 M-2.5,-0.5L0,-3.0L2.5,-0.5"/>
                </g>
               <g id="resetDef">
                       <use xlink:href="#rim2" fill="#404040">
                               <set attributeName="fill" to="#808080" begin="reset.mouseover" end="reset.mouseout"/>
                       </use>
               </g>
        </defs>

<script type="text/javascript">
var viewWidth = 2404;
var viewHeight = 184;
var sectionId = 'dynsection-1';
</script>
<script xlink:href="../../svgpan.js"/>
<svg id="graph" class="graph">
<g id="viewport">
<title>Kineis/Extdep/MGR_LOG/Inc/mgr_log.h</title>
<polygon fill="white" stroke="transparent" points="-4,4 -4,-180 2400,-180 2400,4 -4,4"/>
<!-- Node1 -->
<g id="node1" class="node">
<title>Node1</title>
<g id="a_node1"><a xlink:title="logger main header file">
<polygon fill="#bfbfbf" stroke="black" points="1175,-145.5 1175,-175.5 1310,-175.5 1310,-145.5 1175,-145.5"/>
<text text-anchor="start" x="1183" y="-163.5" font-family="Helvetica,sans-Serif" font-size="10.00">Kineis/Extdep/MGR_LOG</text>
<text text-anchor="middle" x="1242.5" y="-152.5" font-family="Helvetica,sans-Serif" font-size="10.00">/Inc/mgr_log.h</text>
</a>
</g>
</g>
<!-- Node2 -->
<g id="node2" class="node">
<title>Node2</title>
<g id="a_node2"><a xlink:href="../../d0/d29/main_8c.html" target="_top" xlink:title=": Main program body">
<polygon fill="white" stroke="black" points="0,-78.5 0,-97.5 93,-97.5 93,-78.5 0,-78.5"/>
<text text-anchor="middle" x="46.5" y="-85.5" font-family="Helvetica,sans-Serif" font-size="10.00">Core/Src/main.c</text>
</a>
</g>
</g>
<!-- Node1&#45;&gt;Node2 -->
<g id="edge1" class="edge">
<title>Node1&#45;&gt;Node2</title>
<path fill="none" stroke="midnightblue" d="M1164.42,-159.07C941.74,-157.35 306.43,-148.99 102.5,-109 89.94,-106.54 76.41,-101.77 65.79,-97.5"/>
<polygon fill="midnightblue" stroke="midnightblue" points="1164.69,-162.57 1174.71,-159.14 1164.74,-155.57 1164.69,-162.57"/>
</g>
<!-- Node3 -->
<g id="node3" class="node">
<title>Node3</title>
<g id="a_node3"><a xlink:href="../../d0/d08/kns__q__baremetal_8c.html" target="_top" xlink:title="Configuration of queues used in kineis_swr.">
<polygon fill="white" stroke="black" points="111.5,-73 111.5,-103 277.5,-103 277.5,-73 111.5,-73"/>
<text text-anchor="start" x="119.5" y="-91" font-family="Helvetica,sans-Serif" font-size="10.00">Kineis/App/Kineis_os</text>
<text text-anchor="middle" x="194.5" y="-80" font-family="Helvetica,sans-Serif" font-size="10.00">/KNS_Q/Src/kns_q_baremetal.c</text>
</a>
</g>
</g>
<!-- Node1&#45;&gt;Node3 -->
<g id="edge2" class="edge">
<title>Node1&#45;&gt;Node3</title>
<path fill="none" stroke="midnightblue" d="M1164.27,-159.56C1000.73,-158.77 610.99,-152.06 287.5,-109 276.2,-107.5 264.24,-105.35 252.79,-103.02"/>
<polygon fill="midnightblue" stroke="midnightblue" points="1164.7,-163.06 1174.71,-159.6 1164.73,-156.06 1164.7,-163.06"/>
</g>
<!-- Node5 -->
<g id="node5" class="node">
<title>Node5</title>
<g id="a_node5"><a xlink:href="../../d5/d11/kns__q__cmsis__os2_8c.html" target="_top" xlink:title=" ">
<polygon fill="white" stroke="black" points="296,-73 296,-103 463,-103 463,-73 296,-73"/>
<text text-anchor="start" x="304" y="-91" font-family="Helvetica,sans-Serif" font-size="10.00">Kineis/App/Kineis_os</text>
<text text-anchor="middle" x="379.5" y="-80" font-family="Helvetica,sans-Serif" font-size="10.00">/KNS_Q/Src/kns_q_cmsis_os2.c</text>
</a>
</g>
</g>
<!-- Node1&#45;&gt;Node5 -->
<g id="edge4" class="edge">
<title>Node1&#45;&gt;Node5</title>
<path fill="none" stroke="midnightblue" d="M1164.8,-158.16C1025.46,-154.92 724.1,-144.11 472.5,-109 461.38,-107.45 449.6,-105.31 438.31,-103"/>
<polygon fill="midnightblue" stroke="midnightblue" points="1164.88,-161.66 1174.96,-158.39 1165.04,-154.66 1164.88,-161.66"/>
</g>
<!-- Node6 -->
<g id="node6" class="node">
<title>Node6</title>
<g id="a_node6"><a xlink:href="../../d2/d9c/kns__q__freertos_8c.html" target="_top" xlink:title="Configuration of queues used in kineis_swr.">
<polygon fill="white" stroke="black" points="481.5,-73 481.5,-103 635.5,-103 635.5,-73 481.5,-73"/>
<text text-anchor="start" x="489.5" y="-91" font-family="Helvetica,sans-Serif" font-size="10.00">Kineis/App/Kineis_os</text>
<text text-anchor="middle" x="558.5" y="-80" font-family="Helvetica,sans-Serif" font-size="10.00">/KNS_Q/Src/kns_q_freertos.c</text>
</a>
</g>
</g>
<!-- Node1&#45;&gt;Node6 -->
<g id="edge5" class="edge">
<title>Node1&#45;&gt;Node6</title>
<path fill="none" stroke="midnightblue" d="M1164.79,-156.52C1050.3,-151.32 829.82,-138.22 644.5,-109 634.51,-107.42 623.95,-105.33 613.78,-103.09"/>
<polygon fill="midnightblue" stroke="midnightblue" points="1164.71,-160.02 1174.86,-156.97 1165.02,-153.03 1164.71,-160.02"/>
</g>
<!-- Node7 -->
<g id="node7" class="node">
<title>Node7</title>
<g id="a_node7"><a xlink:href="../../d4/d0d/kns__app_8c.html" target="_top" xlink:title=" ">
<polygon fill="white" stroke="black" points="653.5,-78.5 653.5,-97.5 773.5,-97.5 773.5,-78.5 653.5,-78.5"/>
<text text-anchor="middle" x="713.5" y="-85.5" font-family="Helvetica,sans-Serif" font-size="10.00">Kineis/App/kns_app.c</text>
</a>
</g>
</g>
<!-- Node1&#45;&gt;Node7 -->
<g id="edge6" class="edge">
<title>Node1&#45;&gt;Node7</title>
<path fill="none" stroke="midnightblue" d="M1164.85,-155.08C1072.89,-148.9 915.43,-135.36 782.5,-109 767.94,-106.11 752.01,-101.59 739.12,-97.57"/>
<polygon fill="midnightblue" stroke="midnightblue" points="1164.7,-158.58 1174.91,-155.74 1165.16,-151.59 1164.7,-158.58"/>
</g>
<!-- Node8 -->
<g id="node8" class="node">
<title>Node8</title>
<g id="a_node8"><a xlink:href="../../d0/d01/user__data_8c.html" target="_top" xlink:title="Library to handle user data to be be received or transmitted over the air.">
<polygon fill="white" stroke="black" points="791.5,-73 791.5,-103 937.5,-103 937.5,-73 791.5,-73"/>
<text text-anchor="start" x="799.5" y="-91" font-family="Helvetica,sans-Serif" font-size="10.00">Kineis/App/Libs/USERDATA</text>
<text text-anchor="middle" x="864.5" y="-80" font-family="Helvetica,sans-Serif" font-size="10.00">/Src/user_data.c</text>
</a>
</g>
</g>
<!-- Node1&#45;&gt;Node8 -->
<g id="edge7" class="edge">
<title>Node1&#45;&gt;Node8</title>
<path fill="none" stroke="midnightblue" d="M1164.81,-147.77C1104.94,-138.37 1020.21,-124.26 946.5,-109 937.89,-107.22 928.81,-105.17 919.96,-103.09"/>
<polygon fill="midnightblue" stroke="midnightblue" points="1164.52,-151.27 1174.94,-149.36 1165.6,-144.36 1164.52,-151.27"/>
</g>
<!-- Node9 -->
<g id="node9" class="node">
<title>Node9</title>
<g id="a_node9"><a xlink:href="../../da/d77/mgr__at__cmd_8c.html" target="_top" xlink:title="APIs Implementation used to parse the UART ASCII data stream and extract AT commands.">
<polygon fill="white" stroke="black" points="955.5,-67.5 955.5,-108.5 1085.5,-108.5 1085.5,-67.5 955.5,-67.5"/>
<text text-anchor="start" x="963.5" y="-96.5" font-family="Helvetica,sans-Serif" font-size="10.00">Kineis/App/Managers</text>
<text text-anchor="start" x="963.5" y="-85.5" font-family="Helvetica,sans-Serif" font-size="10.00">/MGR_AT_CMD/Src/mgr</text>
<text text-anchor="middle" x="1020.5" y="-74.5" font-family="Helvetica,sans-Serif" font-size="10.00">_at_cmd.c</text>
</a>
</g>
</g>
<!-- Node1&#45;&gt;Node9 -->
<g id="edge8" class="edge">
<title>Node1&#45;&gt;Node9</title>
<path fill="none" stroke="midnightblue" d="M1188.7,-142.42C1156.57,-132.21 1115.63,-119.21 1082.19,-108.59"/>
<polygon fill="midnightblue" stroke="midnightblue" points="1187.78,-145.8 1198.37,-145.49 1189.9,-139.12 1187.78,-145.8"/>
</g>
<!-- Node10 -->
<g id="node10" class="node">
<title>Node10</title>
<g id="a_node10"><a xlink:href="../../d2/d04/mgr__at__cmd__list__certif_8c.html" target="_top" xlink:title="subset of AT commands concerning specifics for certification">
<polygon fill="white" stroke="black" points="1103.5,-67.5 1103.5,-108.5 1233.5,-108.5 1233.5,-67.5 1103.5,-67.5"/>
<text text-anchor="start" x="1111.5" y="-96.5" font-family="Helvetica,sans-Serif" font-size="10.00">Kineis/App/Managers</text>
<text text-anchor="start" x="1111.5" y="-85.5" font-family="Helvetica,sans-Serif" font-size="10.00">/MGR_AT_CMD/Src/mgr</text>
<text text-anchor="middle" x="1168.5" y="-74.5" font-family="Helvetica,sans-Serif" font-size="10.00">_at_cmd_list_certif.c</text>
</a>
</g>
</g>
<!-- Node1&#45;&gt;Node10 -->
<g id="edge9" class="edge">
<title>Node1&#45;&gt;Node10</title>
<path fill="none" stroke="midnightblue" d="M1220.04,-138.1C1210.18,-128.71 1198.69,-117.76 1189.06,-108.59"/>
<polygon fill="midnightblue" stroke="midnightblue" points="1217.87,-140.87 1227.52,-145.23 1222.7,-135.8 1217.87,-140.87"/>
</g>
<!-- Node11 -->
<g id="node11" class="node">
<title>Node11</title>
<g id="a_node11"><a xlink:href="../../d1/dfd/mgr__at__cmd__list__general_8c.html" target="_top" xlink:title="subset of AT commands concerning general purpose (get ID, FW version, ...)">
<polygon fill="white" stroke="black" points="1251.5,-67.5 1251.5,-108.5 1381.5,-108.5 1381.5,-67.5 1251.5,-67.5"/>
<text text-anchor="start" x="1259.5" y="-96.5" font-family="Helvetica,sans-Serif" font-size="10.00">Kineis/App/Managers</text>
<text text-anchor="start" x="1259.5" y="-85.5" font-family="Helvetica,sans-Serif" font-size="10.00">/MGR_AT_CMD/Src/mgr</text>
<text text-anchor="middle" x="1316.5" y="-74.5" font-family="Helvetica,sans-Serif" font-size="10.00">_at_cmd_list_general.c</text>
</a>
</g>
</g>
<!-- Node1&#45;&gt;Node11 -->
<g id="edge10" class="edge">
<title>Node1&#45;&gt;Node11</title>
<path fill="none" stroke="midnightblue" d="M1264.96,-138.1C1274.82,-128.71 1286.31,-117.76 1295.94,-108.59"/>
<polygon fill="midnightblue" stroke="midnightblue" points="1262.3,-135.8 1257.48,-145.23 1267.13,-140.87 1262.3,-135.8"/>
</g>
<!-- Node12 -->
<g id="node12" class="node">
<title>Node12</title>
<g id="a_node12"><a xlink:href="../../d8/d11/mgr__at__cmd__list__user__data_8c.html" target="_top" xlink:title="subset of AT commands concerning user data manipulation such as TX">
<polygon fill="white" stroke="black" points="1399.5,-67.5 1399.5,-108.5 1539.5,-108.5 1539.5,-67.5 1399.5,-67.5"/>
<text text-anchor="start" x="1407.5" y="-96.5" font-family="Helvetica,sans-Serif" font-size="10.00">Kineis/App/Managers</text>
<text text-anchor="start" x="1407.5" y="-85.5" font-family="Helvetica,sans-Serif" font-size="10.00">/MGR_AT_CMD/Src/mgr</text>
<text text-anchor="middle" x="1469.5" y="-74.5" font-family="Helvetica,sans-Serif" font-size="10.00">_at_cmd_list_user_data.c</text>
</a>
</g>
</g>
<!-- Node1&#45;&gt;Node12 -->
<g id="edge11" class="edge">
<title>Node1&#45;&gt;Node12</title>
<path fill="none" stroke="midnightblue" d="M1297.51,-142.42C1330.37,-132.21 1372.22,-119.21 1406.42,-108.59"/>
<polygon fill="midnightblue" stroke="midnightblue" points="1296.13,-139.18 1287.62,-145.49 1298.21,-145.86 1296.13,-139.18"/>
</g>
<!-- Node13 -->
<g id="node13" class="node">
<title>Node13</title>
<g id="a_node13"><a xlink:href="../../d0/d4d/kns__assert_8c.html" target="_top" xlink:title="assert handling dependency regarding platform using the Kineis stack (handle reset)">
<polygon fill="white" stroke="black" points="1558,-73 1558,-103 1667,-103 1667,-73 1558,-73"/>
<text text-anchor="start" x="1566" y="-91" font-family="Helvetica,sans-Serif" font-size="10.00">Kineis/Extdep/Conf</text>
<text text-anchor="middle" x="1612.5" y="-80" font-family="Helvetica,sans-Serif" font-size="10.00">/kns_assert.c</text>
</a>
</g>
</g>
<!-- Node1&#45;&gt;Node13 -->
<g id="edge12" class="edge">
<title>Node1&#45;&gt;Node13</title>
<path fill="none" stroke="midnightblue" d="M1320.32,-149.71C1382.53,-141.15 1471.71,-127.24 1548.5,-109 1555.64,-107.31 1563.13,-105.23 1570.39,-103.07"/>
<polygon fill="midnightblue" stroke="midnightblue" points="1319.63,-146.27 1310.19,-151.09 1320.57,-153.21 1319.63,-146.27"/>
</g>
<!-- Node14 -->
<g id="node14" class="node">
<title>Node14</title>
<g id="a_node14"><a xlink:href="../../df/ddf/mcu__misc_8c.html" target="_top" xlink:title="File to implement miscellaneous features for a specific design.">
<polygon fill="white" stroke="black" points="1685,-73 1685,-103 1810,-103 1810,-73 1685,-73"/>
<text text-anchor="start" x="1693" y="-91" font-family="Helvetica,sans-Serif" font-size="10.00">Kineis/Extdep/Mcu/Src</text>
<text text-anchor="middle" x="1747.5" y="-80" font-family="Helvetica,sans-Serif" font-size="10.00">/mcu_misc.c</text>
</a>
</g>
</g>
<!-- Node1&#45;&gt;Node14 -->
<g id="edge13" class="edge">
<title>Node1&#45;&gt;Node14</title>
<path fill="none" stroke="midnightblue" d="M1320.39,-154.18C1407.7,-147.36 1553.2,-133.38 1676.5,-109 1684.67,-107.39 1693.26,-105.3 1701.54,-103.09"/>
<polygon fill="midnightblue" stroke="midnightblue" points="1320,-150.7 1310.3,-154.96 1320.54,-157.68 1320,-150.7"/>
</g>
<!-- Node15 -->
<g id="node15" class="node">
<title>Node15</title>
<g id="a_node15"><a xlink:href="../../dd/d3f/mcu__tim_8c.html" target="_top" xlink:title="MCU wrappers for timer or non&#45;blocking delays used by Kineis stack.">
<polygon fill="white" stroke="black" points="1828,-73 1828,-103 1953,-103 1953,-73 1828,-73"/>
<text text-anchor="start" x="1836" y="-91" font-family="Helvetica,sans-Serif" font-size="10.00">Kineis/Extdep/Mcu/Src</text>
<text text-anchor="middle" x="1890.5" y="-80" font-family="Helvetica,sans-Serif" font-size="10.00">/mcu_tim.c</text>
</a>
</g>
</g>
<!-- Node1&#45;&gt;Node15 -->
<g id="edge14" class="edge">
<title>Node1&#45;&gt;Node15</title>
<path fill="none" stroke="midnightblue" d="M1320.26,-157.31C1431.66,-153.13 1642.77,-141.33 1819.5,-109 1827.94,-107.46 1836.83,-105.35 1845.35,-103.08"/>
<polygon fill="midnightblue" stroke="midnightblue" points="1319.99,-153.82 1310.12,-157.68 1320.24,-160.81 1319.99,-153.82"/>
</g>
<!-- Node16 -->
<g id="node16" class="node">
<title>Node16</title>
<g id="a_node16"><a xlink:href="../../db/de3/mgr__log_8c.html" target="_top" xlink:title="logger main file">
<polygon fill="white" stroke="black" points="1971,-73 1971,-103 2106,-103 2106,-73 1971,-73"/>
<text text-anchor="start" x="1979" y="-91" font-family="Helvetica,sans-Serif" font-size="10.00">Kineis/Extdep/MGR_LOG</text>
<text text-anchor="middle" x="2038.5" y="-80" font-family="Helvetica,sans-Serif" font-size="10.00">/Src/mgr_log.c</text>
</a>
</g>
</g>
<!-- Node1&#45;&gt;Node16 -->
<g id="edge15" class="edge">
<title>Node1&#45;&gt;Node16</title>
<path fill="none" stroke="midnightblue" d="M1320.57,-158.8C1453.32,-156.54 1731.15,-147.21 1962.5,-109 1971.65,-107.49 1981.31,-105.37 1990.55,-103.07"/>
<polygon fill="midnightblue" stroke="midnightblue" points="1320.43,-155.3 1310.49,-158.96 1320.55,-162.3 1320.43,-155.3"/>
</g>
<!-- Node17 -->
<g id="node17" class="node">
<title>Node17</title>
<g id="a_node17"><a xlink:href="../../dc/d4f/mgr__log__rtc_8c.html" target="_top" xlink:title="This file contains log routine concerning RTC. There is a dependency on HAL RTC.">
<polygon fill="white" stroke="black" points="2124,-73 2124,-103 2259,-103 2259,-73 2124,-73"/>
<text text-anchor="start" x="2132" y="-91" font-family="Helvetica,sans-Serif" font-size="10.00">Kineis/Extdep/MGR_LOG</text>
<text text-anchor="middle" x="2191.5" y="-80" font-family="Helvetica,sans-Serif" font-size="10.00">/Src/mgr_log_rtc.c</text>
</a>
</g>
</g>
<!-- Node1&#45;&gt;Node17 -->
<g id="edge16" class="edge">
<title>Node1&#45;&gt;Node17</title>
<path fill="none" stroke="midnightblue" d="M1320.32,-160.18C1473.55,-160.38 1824.75,-155.19 2115.5,-109 2124.8,-107.52 2134.6,-105.39 2143.97,-103.06"/>
<polygon fill="midnightblue" stroke="midnightblue" points="1320.08,-156.68 1310.08,-160.16 1320.07,-163.68 1320.08,-156.68"/>
</g>
<!-- Node18 -->
<g id="node18" class="node">
<title>Node18</title>
<g id="a_node18"><a xlink:href="../../d5/db5/lpm_8c.html" target="_top" xlink:title="This file contains some utilities and functions needed for a correct handling of LPM on the STM32WL55...">
<polygon fill="white" stroke="black" points="2277,-78.5 2277,-97.5 2396,-97.5 2396,-78.5 2277,-78.5"/>
<text text-anchor="middle" x="2336.5" y="-85.5" font-family="Helvetica,sans-Serif" font-size="10.00">Kineis/Lpm/Src/lpm.c</text>
</a>
</g>
</g>
<!-- Node1&#45;&gt;Node18 -->
<g id="edge17" class="edge">
<title>Node1&#45;&gt;Node18</title>
<path fill="none" stroke="midnightblue" d="M1320.49,-158.05C1527.31,-153.82 2086.39,-139.81 2268.5,-109 2283.42,-106.47 2299.7,-101.76 2312.59,-97.54"/>
<polygon fill="midnightblue" stroke="midnightblue" points="1320.25,-154.55 1310.32,-158.26 1320.39,-161.55 1320.25,-154.55"/>
</g>
<!-- Node4 -->
<g id="node4" class="node">
<title>Node4</title>
<g id="a_node4"><a xlink:href="../../d7/d30/kns__q_8c.html" target="_top" xlink:title="Configuration of queues used in kineis_swr.">
<polygon fill="white" stroke="black" points="135.5,-0.5 135.5,-30.5 253.5,-30.5 253.5,-0.5 135.5,-0.5"/>
<text text-anchor="start" x="143.5" y="-18.5" font-family="Helvetica,sans-Serif" font-size="10.00">Kineis/App/Kineis_os</text>
<text text-anchor="middle" x="194.5" y="-7.5" font-family="Helvetica,sans-Serif" font-size="10.00">/KNS_Q/Src/kns_q.c</text>
</a>
</g>
</g>
<!-- Node3&#45;&gt;Node4 -->
<g id="edge3" class="edge">
<title>Node3&#45;&gt;Node4</title>
<path fill="none" stroke="midnightblue" d="M194.5,-62.73C194.5,-52.07 194.5,-39.91 194.5,-30.75"/>
<polygon fill="midnightblue" stroke="midnightblue" points="191,-62.73 194.5,-72.73 198,-62.73 191,-62.73"/>
</g>
</g>
</svg>
        <g id="navigator" transform="translate(0 0)" fill="#404254">
                <rect fill="#f2f5e9" fill-opacity="0.5" stroke="#606060" stroke-width=".5" x="0" y="0" width="60" height="60"/>
                <use id="zoomplus" xlink:href="#zoomPlus" x="17" y="9" onmousedown="handleZoom(evt,'in')"/>
                <use id="zoomminus" xlink:href="#zoomMin" x="42" y="9" onmousedown="handleZoom(evt,'out')"/>
                <use id="reset" xlink:href="#resetDef" x="30" y="36" onmousedown="handleReset()"/>
                <g id="arrowUp" xlink:href="#dirArrow" transform="translate(30 24)" onmousedown="handlePan(0,-1)">
                  <use xlink:href="#rim" fill="#404040">
                        <set attributeName="fill" to="#808080" begin="arrowUp.mouseover" end="arrowUp.mouseout"/>
                  </use>
                  <path fill="none" stroke="white" stroke-width="1.5" d="M0,-3.0v7 M-2.5,-0.5L0,-3.0L2.5,-0.5"/>
                </g>
                <g id="arrowRight" xlink:href="#dirArrow" transform="rotate(90) translate(36 -43)" onmousedown="handlePan(1,0)">
                  <use xlink:href="#rim" fill="#404040">
                        <set attributeName="fill" to="#808080" begin="arrowRight.mouseover" end="arrowRight.mouseout"/>
                  </use>
                  <path fill="none" stroke="white" stroke-width="1.5" d="M0,-3.0v7 M-2.5,-0.5L0,-3.0L2.5,-0.5"/>
                </g>
                <g id="arrowDown" xlink:href="#dirArrow" transform="rotate(180) translate(-30 -48)" onmousedown="handlePan(0,1)">
                  <use xlink:href="#rim" fill="#404040">
                        <set attributeName="fill" to="#808080" begin="arrowDown.mouseover" end="arrowDown.mouseout"/>
                  </use>
                  <path fill="none" stroke="white" stroke-width="1.5" d="M0,-3.0v7 M-2.5,-0.5L0,-3.0L2.5,-0.5"/>
                </g>
                <g id="arrowLeft" xlink:href="#dirArrow" transform="rotate(270) translate(-36 17)" onmousedown="handlePan(-1,0)">
                  <use xlink:href="#rim" fill="#404040">
                        <set attributeName="fill" to="#808080" begin="arrowLeft.mouseover" end="arrowLeft.mouseout"/>
                  </use>
                  <path fill="none" stroke="white" stroke-width="1.5" d="M0,-3.0v7 M-2.5,-0.5L0,-3.0L2.5,-0.5"/>
                </g>
        </g>
        <svg viewBox="0 0 15 15" width="100%" height="30px" preserveAspectRatio="xMaxYMin meet">
         <g id="arrow_out" transform="scale(0.3 0.3)">
          <a xlink:href="mgr__log_8h__dep__incl_org.svg" target="_base">
           <rect id="button" ry="5" rx="5" y="6" x="6" height="38" width="38"
                fill="#f2f5e9" fill-opacity="0.5" stroke="#606060" stroke-width="1.0"/>
           <path id="arrow"
             d="M 11.500037,31.436501 C 11.940474,20.09759 22.043105,11.32322 32.158766,21.979434 L 37.068811,17.246167 C 37.068811,17.246167 37.088388,32 37.088388,32 L 22.160133,31.978069 C 22.160133,31.978069 26.997745,27.140456 26.997745,27.140456 C 18.528582,18.264221 13.291696,25.230495 11.500037,31.436501 z"
             style="fill:#404040;"/>
          </a>
         </g>
        </svg>
</svg>
