<?xml version="1.0" encoding="UTF-8" standalone="no"?>
<!DOCTYPE svg PUBLIC "-//W3C//DTD SVG 1.1//EN"
 "http://www.w3.org/Graphics/SVG/1.1/DTD/svg11.dtd">
<!-- Generated by graphviz version 2.43.0 (0)
 -->
<!-- Title: KNS_Q_push Pages: 1 -->
<svg width="560pt" height="180pt"
 viewBox="0.00 0.00 560.00 180.00" xmlns="http://www.w3.org/2000/svg" xmlns:xlink="http://www.w3.org/1999/xlink">
<g id="graph0" class="graph" transform="scale(1 1) rotate(0) translate(4 176)">
<title>KNS_Q_push</title>
<polygon fill="white" stroke="transparent" points="-4,4 -4,-176 556,-176 556,4 -4,4"/>
<!-- Node1 -->
<g id="node1" class="node">
<title>Node1</title>
<g id="a_node1"><a xlink:title="This function is used to push an element into a queue.">
<polygon fill="#bfbfbf" stroke="black" points="474,-76.5 474,-95.5 552,-95.5 552,-76.5 474,-76.5"/>
<text text-anchor="middle" x="513" y="-83.5" font-family="Helvetica,sans-Serif" font-size="10.00">KNS_Q_push</text>
</a>
</g>
</g>
<!-- Node2 -->
<g id="node2" class="node">
<title>Node2</title>
<g id="a_node2"><a xlink:href="../../d0/d0f/group___m_g_r___a_t___c_m_d.html#gaaa9bdf10c9ac69ef778eea22f8225343" target="_top" xlink:title="Handle new TX data, this is the core function of AT+TX cmd.">
<polygon fill="white" stroke="black" points="250,-152.5 250,-171.5 438,-171.5 438,-152.5 250,-152.5"/>
<text text-anchor="middle" x="344" y="-159.5" font-family="Helvetica,sans-Serif" font-size="10.00">bMGR_AT_CMD_handleNewTxData</text>
</a>
</g>
</g>
<!-- Node1&#45;&gt;Node2 -->
<g id="edge1" class="edge">
<title>Node1&#45;&gt;Node2</title>
<path fill="none" stroke="midnightblue" d="M495,-102.78C480.9,-115.73 459.7,-133.08 438,-143 429.46,-146.91 420.11,-150.02 410.74,-152.49"/>
<polygon fill="midnightblue" stroke="midnightblue" points="497.58,-105.16 502.44,-95.74 492.77,-100.07 497.58,-105.16"/>
</g>
<!-- Node4 -->
<g id="node4" class="node">
<title>Node4</title>
<g id="a_node4"><a xlink:href="../../d0/d0f/group___m_g_r___a_t___c_m_d.html#gacc6b6479b50b0c5aed24b2e62448bde0" target="_top" xlink:title="Process AT command &quot;AT+KMAC&quot; get/set the Kineis MAC profile.">
<polygon fill="white" stroke="black" points="267.5,-114.5 267.5,-133.5 420.5,-133.5 420.5,-114.5 267.5,-114.5"/>
<text text-anchor="middle" x="344" y="-121.5" font-family="Helvetica,sans-Serif" font-size="10.00">bMGR_AT_CMD_KMAC_cmd</text>
</a>
</g>
</g>
<!-- Node1&#45;&gt;Node4 -->
<g id="edge3" class="edge">
<title>Node1&#45;&gt;Node4</title>
<path fill="none" stroke="midnightblue" d="M463.61,-97.01C439.35,-102.53 410.25,-109.15 386.94,-114.46"/>
<polygon fill="midnightblue" stroke="midnightblue" points="464.71,-100.35 473.69,-94.72 463.16,-93.52 464.71,-100.35"/>
</g>
<!-- Node5 -->
<g id="node5" class="node">
<title>Node5</title>
<g id="a_node5"><a xlink:href="../../dd/d41/group___k_n_s___a_p_p.html#ga7dcd894e8e120e17325f7801d136d938" target="_top" xlink:title="This fct is a very basic standalone application.">
<polygon fill="white" stroke="black" points="87.5,-38.5 87.5,-57.5 203.5,-57.5 203.5,-38.5 87.5,-38.5"/>
<text text-anchor="middle" x="145.5" y="-45.5" font-family="Helvetica,sans-Serif" font-size="10.00">KNS_APP_stdln_loop</text>
</a>
</g>
</g>
<!-- Node1&#45;&gt;Node5 -->
<g id="edge4" class="edge">
<title>Node1&#45;&gt;Node5</title>
<path fill="none" stroke="midnightblue" d="M463.61,-84.07C410.92,-81.61 324.22,-76.47 250,-67 231.06,-64.58 210.34,-60.97 192.44,-57.55"/>
<polygon fill="midnightblue" stroke="midnightblue" points="463.54,-87.57 473.69,-84.53 463.86,-80.58 463.54,-87.57"/>
</g>
<!-- Node7 -->
<g id="node7" class="node">
<title>Node7</title>
<g id="a_node7"><a xlink:href="../../dd/d41/group___k_n_s___a_p_p.html#ga43590921208185253a9503500d5d70d1" target="_top" xlink:title="Start MAC profile for the standalone application.">
<polygon fill="white" stroke="black" points="266.5,-38.5 266.5,-57.5 421.5,-57.5 421.5,-38.5 266.5,-38.5"/>
<text text-anchor="middle" x="344" y="-45.5" font-family="Helvetica,sans-Serif" font-size="10.00">KNS_APP_stdln_startMacPrfl</text>
</a>
</g>
</g>
<!-- Node1&#45;&gt;Node7 -->
<g id="edge6" class="edge">
<title>Node1&#45;&gt;Node7</title>
<path fill="none" stroke="midnightblue" d="M463.61,-74.99C439.35,-69.47 410.25,-62.85 386.94,-57.54"/>
<polygon fill="midnightblue" stroke="midnightblue" points="463.16,-78.48 473.69,-77.28 464.71,-71.65 463.16,-78.48"/>
</g>
<!-- Node8 -->
<g id="node8" class="node">
<title>Node8</title>
<g id="a_node8"><a xlink:href="../../dd/d41/group___k_n_s___a_p_p.html#ga4bb02cc43d1bdbd739a38f4ddea0e82b" target="_top" xlink:title="Stop MAC profile for the standalone application.">
<polygon fill="white" stroke="black" points="267.5,-0.5 267.5,-19.5 420.5,-19.5 420.5,-0.5 267.5,-0.5"/>
<text text-anchor="middle" x="344" y="-7.5" font-family="Helvetica,sans-Serif" font-size="10.00">KNS_APP_stdln_stopMacPrfl</text>
</a>
</g>
</g>
<!-- Node1&#45;&gt;Node8 -->
<g id="edge8" class="edge">
<title>Node1&#45;&gt;Node8</title>
<path fill="none" stroke="midnightblue" d="M495,-69.22C480.9,-56.27 459.7,-38.92 438,-29 429.46,-25.09 420.11,-21.98 410.74,-19.51"/>
<polygon fill="midnightblue" stroke="midnightblue" points="492.77,-71.93 502.44,-76.26 497.58,-66.84 492.77,-71.93"/>
</g>
<!-- Node3 -->
<g id="node3" class="node">
<title>Node3</title>
<g id="a_node3"><a xlink:href="../../d0/d0f/group___m_g_r___a_t___c_m_d.html#ga0a4332fc4f8bad99c421588fe542a2bd" target="_top" xlink:title="Process AT command &quot;AT+TX&quot; send user data.">
<polygon fill="white" stroke="black" points="77,-152.5 77,-171.5 214,-171.5 214,-152.5 77,-152.5"/>
<text text-anchor="middle" x="145.5" y="-159.5" font-family="Helvetica,sans-Serif" font-size="10.00">bMGR_AT_CMD_TX_cmd</text>
</a>
</g>
</g>
<!-- Node2&#45;&gt;Node3 -->
<g id="edge2" class="edge">
<title>Node2&#45;&gt;Node3</title>
<path fill="none" stroke="midnightblue" d="M239.71,-162C231.01,-162 222.36,-162 214.04,-162"/>
<polygon fill="midnightblue" stroke="midnightblue" points="239.93,-165.5 249.93,-162 239.93,-158.5 239.93,-165.5"/>
</g>
<!-- Node6 -->
<g id="node6" class="node">
<title>Node6</title>
<g id="a_node6"><a xlink:href="../../d0/d29/main_8c.html#a840291bc02cba5474a4cb46a9b9566fe" target="_top" xlink:title="The application entry point.">
<polygon fill="white" stroke="black" points="0,-38.5 0,-57.5 41,-57.5 41,-38.5 0,-38.5"/>
<text text-anchor="middle" x="20.5" y="-45.5" font-family="Helvetica,sans-Serif" font-size="10.00">main</text>
</a>
</g>
</g>
<!-- Node5&#45;&gt;Node6 -->
<g id="edge5" class="edge">
<title>Node5&#45;&gt;Node6</title>
<path fill="none" stroke="midnightblue" d="M77.22,-48C64.04,-48 51.22,-48 41.21,-48"/>
<polygon fill="midnightblue" stroke="midnightblue" points="77.32,-51.5 87.32,-48 77.32,-44.5 77.32,-51.5"/>
</g>
<!-- Node7&#45;&gt;Node5 -->
<g id="edge7" class="edge">
<title>Node7&#45;&gt;Node5</title>
<path fill="none" stroke="midnightblue" d="M256.08,-48C238.32,-48 220.05,-48 203.65,-48"/>
<polygon fill="midnightblue" stroke="midnightblue" points="256.47,-51.5 266.47,-48 256.47,-44.5 256.47,-51.5"/>
</g>
<!-- Node8&#45;&gt;Node5 -->
<g id="edge9" class="edge">
<title>Node8&#45;&gt;Node5</title>
<path fill="none" stroke="midnightblue" d="M283.59,-21.49C255.55,-26.91 222.48,-33.31 195.85,-38.46"/>
<polygon fill="midnightblue" stroke="midnightblue" points="284.51,-24.88 293.67,-19.54 283.19,-18 284.51,-24.88"/>
</g>
</g>
</svg>
