<?xml version="1.0" encoding="UTF-8" standalone="no"?>
<!DOCTYPE svg PUBLIC "-//W3C//DTD SVG 1.1//EN"
 "http://www.w3.org/Graphics/SVG/1.1/DTD/svg11.dtd">
<!-- Generated by graphviz version 2.43.0 (0)
 -->
<!-- Title: KNS_Q_isEvtInSomeQ Pages: 1 -->
<svg width="705pt" height="47pt"
 viewBox="0.00 0.00 705.00 47.00" xmlns="http://www.w3.org/2000/svg" xmlns:xlink="http://www.w3.org/1999/xlink">
<g id="graph0" class="graph" transform="scale(1 1) rotate(0) translate(4 43)">
<title>KNS_Q_isEvtInSomeQ</title>
<polygon fill="white" stroke="transparent" points="-4,4 -4,-43 701,-43 701,4 -4,4"/>
<!-- Node1 -->
<g id="node1" class="node">
<title>Node1</title>
<g id="a_node1"><a xlink:title="This function is used to check some queue contains some elements.">
<polygon fill="#bfbfbf" stroke="black" points="574,-19.5 574,-38.5 697,-38.5 697,-19.5 574,-19.5"/>
<text text-anchor="middle" x="635.5" y="-26.5" font-family="Helvetica,sans-Serif" font-size="10.00">KNS_Q_isEvtInSomeQ</text>
</a>
</g>
</g>
<!-- Node2 -->
<g id="node2" class="node">
<title>Node2</title>
<g id="a_node2"><a xlink:href="../../d0/d29/main_8c.html#ab5e4675bc5ccd4c2aeeae31f8df4b4fb" target="_top" xlink:title=" ">
<polygon fill="white" stroke="black" points="77,-19.5 77,-38.5 142,-38.5 142,-19.5 77,-19.5"/>
<text text-anchor="middle" x="109.5" y="-26.5" font-family="Helvetica,sans-Serif" font-size="10.00">IDLE_task</text>
</a>
</g>
</g>
<!-- Node1&#45;&gt;Node2 -->
<g id="edge1" class="edge">
<title>Node1&#45;&gt;Node2</title>
<path fill="none" stroke="midnightblue" d="M563.74,-29C448.44,-29 224.59,-29 142.06,-29"/>
<polygon fill="midnightblue" stroke="midnightblue" points="563.88,-32.5 573.88,-29 563.88,-25.5 563.88,-32.5"/>
</g>
<!-- Node4 -->
<g id="node4" class="node">
<title>Node4</title>
<g id="a_node4"><a xlink:href="../../db/dca/group___m_g_r___l_p_m.html#ga394c596cc344e87c088527daba299c8d" target="_top" xlink:title="This is the function to enter in stop mode.">
<polygon fill="white" stroke="black" points="414,-0.5 414,-19.5 538,-19.5 538,-0.5 414,-0.5"/>
<text text-anchor="middle" x="476" y="-7.5" font-family="Helvetica,sans-Serif" font-size="10.00">vMGR_LPM_enterStop</text>
</a>
</g>
</g>
<!-- Node1&#45;&gt;Node4 -->
<g id="edge3" class="edge">
<title>Node1&#45;&gt;Node4</title>
<path fill="none" stroke="midnightblue" d="M563.44,-20.43C555.03,-19.41 546.51,-18.38 538.25,-17.39"/>
<polygon fill="midnightblue" stroke="midnightblue" points="563.26,-23.93 573.61,-21.65 564.1,-16.98 563.26,-23.93"/>
</g>
<!-- Node3 -->
<g id="node3" class="node">
<title>Node3</title>
<g id="a_node3"><a xlink:href="../../d0/d29/main_8c.html#a840291bc02cba5474a4cb46a9b9566fe" target="_top" xlink:title="The application entry point.">
<polygon fill="white" stroke="black" points="0,-19.5 0,-38.5 41,-38.5 41,-19.5 0,-19.5"/>
<text text-anchor="middle" x="20.5" y="-26.5" font-family="Helvetica,sans-Serif" font-size="10.00">main</text>
</a>
</g>
</g>
<!-- Node2&#45;&gt;Node3 -->
<g id="edge2" class="edge">
<title>Node2&#45;&gt;Node3</title>
<path fill="none" stroke="midnightblue" d="M66.32,-29C57.47,-29 48.54,-29 41,-29"/>
<polygon fill="midnightblue" stroke="midnightblue" points="66.6,-32.5 76.6,-29 66.6,-25.5 66.6,-32.5"/>
</g>
<!-- Node5 -->
<g id="node5" class="node">
<title>Node5</title>
<g id="a_node5"><a xlink:href="../../db/dca/group___m_g_r___l_p_m.html#ga7bf128e76e6a14840b3c8d74946c37f1" target="_top" xlink:title="This is the main Entry point to the low power mode manager.">
<polygon fill="white" stroke="black" points="282,-0.5 282,-19.5 378,-19.5 378,-0.5 282,-0.5"/>
<text text-anchor="middle" x="330" y="-7.5" font-family="Helvetica,sans-Serif" font-size="10.00">MGR_LPM_enter</text>
</a>
</g>
</g>
<!-- Node4&#45;&gt;Node5 -->
<g id="edge4" class="edge">
<title>Node4&#45;&gt;Node5</title>
<path fill="none" stroke="midnightblue" d="M403.77,-10C395.09,-10 386.39,-10 378.18,-10"/>
<polygon fill="midnightblue" stroke="midnightblue" points="403.93,-13.5 413.93,-10 403.93,-6.5 403.93,-13.5"/>
</g>
<!-- Node6 -->
<g id="node6" class="node">
<title>Node6</title>
<g id="a_node6"><a xlink:href="../../db/dca/group___m_g_r___l_p_m.html#ga349cbb2c24fd0bd7f2c24bd063734660" target="_top" xlink:title="Try to enter low power mode depending on clients capabilities.">
<polygon fill="white" stroke="black" points="178,-0.5 178,-19.5 246,-19.5 246,-0.5 178,-0.5"/>
<text text-anchor="middle" x="212" y="-7.5" font-family="Helvetica,sans-Serif" font-size="10.00">LPM_enter</text>
</a>
</g>
</g>
<!-- Node5&#45;&gt;Node6 -->
<g id="edge5" class="edge">
<title>Node5&#45;&gt;Node6</title>
<path fill="none" stroke="midnightblue" d="M271.66,-10C262.96,-10 254.24,-10 246.28,-10"/>
<polygon fill="midnightblue" stroke="midnightblue" points="271.82,-13.5 281.82,-10 271.82,-6.5 271.82,-13.5"/>
</g>
<!-- Node6&#45;&gt;Node2 -->
<g id="edge6" class="edge">
<title>Node6&#45;&gt;Node2</title>
<path fill="none" stroke="midnightblue" d="M167.91,-18.15C159.31,-19.77 150.42,-21.45 142.29,-22.99"/>
<polygon fill="midnightblue" stroke="midnightblue" points="168.64,-21.57 177.81,-16.27 167.34,-14.69 168.64,-21.57"/>
</g>
</g>
</svg>
