<?xml version="1.0" encoding="UTF-8" standalone="no"?>
<!DOCTYPE svg PUBLIC "-//W3C//DTD SVG 1.1//EN"
 "http://www.w3.org/Graphics/SVG/1.1/DTD/svg11.dtd">
<!-- Generated by graphviz version 2.43.0 (0)
 -->
<!-- Title: KNS_Q_pop Pages: 1 -->
<svg width="512pt" height="66pt"
 viewBox="0.00 0.00 512.00 66.00" xmlns="http://www.w3.org/2000/svg" xmlns:xlink="http://www.w3.org/1999/xlink">
<g id="graph0" class="graph" transform="scale(1 1) rotate(0) translate(4 62)">
<title>KNS_Q_pop</title>
<polygon fill="white" stroke="transparent" points="-4,4 -4,-62 508,-62 508,4 -4,4"/>
<!-- Node1 -->
<g id="node1" class="node">
<title>Node1</title>
<g id="a_node1"><a xlink:title="This function is used to pop next element from a queue.">
<polygon fill="#bfbfbf" stroke="black" points="431,-19.5 431,-38.5 504,-38.5 504,-19.5 431,-19.5"/>
<text text-anchor="middle" x="467.5" y="-26.5" font-family="Helvetica,sans-Serif" font-size="10.00">KNS_Q_pop</text>
</a>
</g>
</g>
<!-- Node2 -->
<g id="node2" class="node">
<title>Node2</title>
<g id="a_node2"><a xlink:href="../../dd/d41/group___k_n_s___a_p_p.html#ga7dcd894e8e120e17325f7801d136d938" target="_top" xlink:title="This fct is a very basic standalone application.">
<polygon fill="white" stroke="black" points="77,-38.5 77,-57.5 193,-57.5 193,-38.5 77,-38.5"/>
<text text-anchor="middle" x="135" y="-45.5" font-family="Helvetica,sans-Serif" font-size="10.00">KNS_APP_stdln_loop</text>
</a>
</g>
</g>
<!-- Node1&#45;&gt;Node2 -->
<g id="edge1" class="edge">
<title>Node1&#45;&gt;Node2</title>
<path fill="none" stroke="midnightblue" d="M420.6,-31.64C361.14,-35.06 257.5,-41.02 193.04,-44.72"/>
<polygon fill="midnightblue" stroke="midnightblue" points="421.03,-35.12 430.82,-31.05 420.63,-28.13 421.03,-35.12"/>
</g>
<!-- Node4 -->
<g id="node4" class="node">
<title>Node4</title>
<g id="a_node4"><a xlink:href="../../d0/d0f/group___m_g_r___a_t___c_m_d.html#ga1a39b3c9cd76d50537a8bc42087ed46f" target="_top" xlink:title="Fct used to retreive and process event coming from kineis stack as answers to AT commands.">
<polygon fill="white" stroke="black" points="229,-0.5 229,-19.5 395,-19.5 395,-0.5 229,-0.5"/>
<text text-anchor="middle" x="312" y="-7.5" font-family="Helvetica,sans-Serif" font-size="10.00">MGR_AT_CMD_macEvtProcess</text>
</a>
</g>
</g>
<!-- Node1&#45;&gt;Node4 -->
<g id="edge3" class="edge">
<title>Node1&#45;&gt;Node4</title>
<path fill="none" stroke="midnightblue" d="M420.7,-23.33C410.98,-22.13 400.47,-20.83 389.95,-19.52"/>
<polygon fill="midnightblue" stroke="midnightblue" points="420.54,-26.84 430.9,-24.59 421.4,-19.89 420.54,-26.84"/>
</g>
<!-- Node3 -->
<g id="node3" class="node">
<title>Node3</title>
<g id="a_node3"><a xlink:href="../../d0/d29/main_8c.html#a840291bc02cba5474a4cb46a9b9566fe" target="_top" xlink:title="The application entry point.">
<polygon fill="white" stroke="black" points="0,-19.5 0,-38.5 41,-38.5 41,-19.5 0,-19.5"/>
<text text-anchor="middle" x="20.5" y="-26.5" font-family="Helvetica,sans-Serif" font-size="10.00">main</text>
</a>
</g>
</g>
<!-- Node2&#45;&gt;Node3 -->
<g id="edge2" class="edge">
<title>Node2&#45;&gt;Node3</title>
<path fill="none" stroke="midnightblue" d="M67.4,-36.75C57.88,-35.14 48.77,-33.61 41.22,-32.33"/>
<polygon fill="midnightblue" stroke="midnightblue" points="66.98,-40.23 77.42,-38.44 68.14,-33.33 66.98,-40.23"/>
</g>
<!-- Node5 -->
<g id="node5" class="node">
<title>Node5</title>
<g id="a_node5"><a xlink:href="../../dd/d41/group___k_n_s___a_p_p.html#ga06543de003a98e82570c572ce5e1240c" target="_top" xlink:title="This fct is the application expected to run in front of the GUI.">
<polygon fill="white" stroke="black" points="81.5,-0.5 81.5,-19.5 188.5,-19.5 188.5,-0.5 81.5,-0.5"/>
<text text-anchor="middle" x="135" y="-7.5" font-family="Helvetica,sans-Serif" font-size="10.00">KNS_APP_gui_loop</text>
</a>
</g>
</g>
<!-- Node4&#45;&gt;Node5 -->
<g id="edge4" class="edge">
<title>Node4&#45;&gt;Node5</title>
<path fill="none" stroke="midnightblue" d="M218.61,-10C208.35,-10 198.18,-10 188.67,-10"/>
<polygon fill="midnightblue" stroke="midnightblue" points="218.88,-13.5 228.88,-10 218.88,-6.5 218.88,-13.5"/>
</g>
<!-- Node5&#45;&gt;Node3 -->
<g id="edge5" class="edge">
<title>Node5&#45;&gt;Node3</title>
<path fill="none" stroke="midnightblue" d="M71.32,-20.59C60.42,-22.43 49.84,-24.21 41.26,-25.66"/>
<polygon fill="midnightblue" stroke="midnightblue" points="72.1,-24 81.37,-18.89 70.93,-17.1 72.1,-24"/>
</g>
</g>
</svg>
