<?xml version="1.0" encoding="UTF-8" standalone="no"?>
<!DOCTYPE svg PUBLIC "-//W3C//DTD SVG 1.1//EN"
 "http://www.w3.org/Graphics/SVG/1.1/DTD/svg11.dtd">
<!-- Generated by graphviz version 2.43.0 (0)
 -->
<!-- Title: KNS_Q_push Pages: 1 -->
<svg width="483pt" height="142pt"
 viewBox="0.00 0.00 483.00 142.00" xmlns="http://www.w3.org/2000/svg" xmlns:xlink="http://www.w3.org/1999/xlink">
<g id="graph0" class="graph" transform="scale(1 1) rotate(0) translate(4 138)">
<title>KNS_Q_push</title>
<polygon fill="white" stroke="transparent" points="-4,4 -4,-138 479,-138 479,4 -4,4"/>
<!-- Node1 -->
<g id="node1" class="node">
<title>Node1</title>
<g id="a_node1"><a xlink:title="This function is used to push an element into a queue.">
<polygon fill="#bfbfbf" stroke="black" points="397,-57.5 397,-76.5 475,-76.5 475,-57.5 397,-57.5"/>
<text text-anchor="middle" x="436" y="-64.5" font-family="Helvetica,sans-Serif" font-size="10.00">KNS_Q_push</text>
</a>
</g>
</g>
<!-- Node2 -->
<g id="node2" class="node">
<title>Node2</title>
<g id="a_node2"><a xlink:href="../../d0/d0f/group___m_g_r___a_t___c_m_d.html#gaaa9bdf10c9ac69ef778eea22f8225343" target="_top" xlink:title="Handle new TX data, this is the core function of AT+TX cmd.">
<polygon fill="white" stroke="black" points="173,-114.5 173,-133.5 361,-133.5 361,-114.5 173,-114.5"/>
<text text-anchor="middle" x="267" y="-121.5" font-family="Helvetica,sans-Serif" font-size="10.00">bMGR_AT_CMD_handleNewTxData</text>
</a>
</g>
</g>
<!-- Node1&#45;&gt;Node2 -->
<g id="edge1" class="edge">
<title>Node1&#45;&gt;Node2</title>
<path fill="none" stroke="midnightblue" d="M410.39,-81.79C396.34,-89.68 378.16,-98.97 361,-105 350.27,-108.77 338.57,-111.89 327.2,-114.43"/>
<polygon fill="midnightblue" stroke="midnightblue" points="412.47,-84.63 419.4,-76.61 408.98,-78.56 412.47,-84.63"/>
</g>
<!-- Node4 -->
<g id="node4" class="node">
<title>Node4</title>
<g id="a_node4"><a xlink:href="../../d0/d0f/group___m_g_r___a_t___c_m_d.html#gacc6b6479b50b0c5aed24b2e62448bde0" target="_top" xlink:title="Process AT command &quot;AT+KMAC&quot; get/set the Kineis MAC profile.">
<polygon fill="white" stroke="black" points="190.5,-76.5 190.5,-95.5 343.5,-95.5 343.5,-76.5 190.5,-76.5"/>
<text text-anchor="middle" x="267" y="-83.5" font-family="Helvetica,sans-Serif" font-size="10.00">bMGR_AT_CMD_KMAC_cmd</text>
</a>
</g>
</g>
<!-- Node1&#45;&gt;Node4 -->
<g id="edge3" class="edge">
<title>Node1&#45;&gt;Node4</title>
<path fill="none" stroke="midnightblue" d="M386.71,-72.49C373.25,-74.03 358.28,-75.73 343.65,-77.39"/>
<polygon fill="midnightblue" stroke="midnightblue" points="387.15,-75.97 396.69,-71.36 386.36,-69.01 387.15,-75.97"/>
</g>
<!-- Node5 -->
<g id="node5" class="node">
<title>Node5</title>
<g id="a_node5"><a xlink:href="../../dd/d41/group___k_n_s___a_p_p.html#ga7f6fc13a3df7e1c584e0afc7f85c2a1b" target="_top" xlink:title="At end of standalone APP test, generate TEST status.">
<polygon fill="white" stroke="black" points="211.5,-38.5 211.5,-57.5 322.5,-57.5 322.5,-38.5 211.5,-38.5"/>
<text text-anchor="middle" x="267" y="-45.5" font-family="Helvetica,sans-Serif" font-size="10.00">KNS_APP_stdln_init</text>
</a>
</g>
</g>
<!-- Node1&#45;&gt;Node5 -->
<g id="edge4" class="edge">
<title>Node1&#45;&gt;Node5</title>
<path fill="none" stroke="midnightblue" d="M386.55,-61.49C366.52,-59.21 343.22,-56.56 322.59,-54.21"/>
<polygon fill="midnightblue" stroke="midnightblue" points="386.36,-64.99 396.69,-62.64 387.15,-58.03 386.36,-64.99"/>
</g>
<!-- Node7 -->
<g id="node7" class="node">
<title>Node7</title>
<g id="a_node7"><a xlink:href="../../dd/d41/group___k_n_s___a_p_p.html#ga7dcd894e8e120e17325f7801d136d938" target="_top" xlink:title="This fct is a very basic standalone application.">
<polygon fill="white" stroke="black" points="209,-0.5 209,-19.5 325,-19.5 325,-0.5 209,-0.5"/>
<text text-anchor="middle" x="267" y="-7.5" font-family="Helvetica,sans-Serif" font-size="10.00">KNS_APP_stdln_loop</text>
</a>
</g>
</g>
<!-- Node1&#45;&gt;Node7 -->
<g id="edge6" class="edge">
<title>Node1&#45;&gt;Node7</title>
<path fill="none" stroke="midnightblue" d="M410.39,-52.21C396.34,-44.32 378.16,-35.03 361,-29 349.65,-25.01 337.21,-21.75 325.23,-19.13"/>
<polygon fill="midnightblue" stroke="midnightblue" points="408.98,-55.44 419.4,-57.39 412.47,-49.37 408.98,-55.44"/>
</g>
<!-- Node3 -->
<g id="node3" class="node">
<title>Node3</title>
<g id="a_node3"><a xlink:href="../../d0/d0f/group___m_g_r___a_t___c_m_d.html#ga0a4332fc4f8bad99c421588fe542a2bd" target="_top" xlink:title="Process AT command &quot;AT+TX&quot; send user data.">
<polygon fill="white" stroke="black" points="0,-114.5 0,-133.5 137,-133.5 137,-114.5 0,-114.5"/>
<text text-anchor="middle" x="68.5" y="-121.5" font-family="Helvetica,sans-Serif" font-size="10.00">bMGR_AT_CMD_TX_cmd</text>
</a>
</g>
</g>
<!-- Node2&#45;&gt;Node3 -->
<g id="edge2" class="edge">
<title>Node2&#45;&gt;Node3</title>
<path fill="none" stroke="midnightblue" d="M162.71,-124C154.01,-124 145.36,-124 137.04,-124"/>
<polygon fill="midnightblue" stroke="midnightblue" points="162.93,-127.5 172.93,-124 162.93,-120.5 162.93,-127.5"/>
</g>
<!-- Node6 -->
<g id="node6" class="node">
<title>Node6</title>
<g id="a_node6"><a xlink:href="../../d0/d29/main_8c.html#a840291bc02cba5474a4cb46a9b9566fe" target="_top" xlink:title="The application entry point.">
<polygon fill="white" stroke="black" points="48,-19.5 48,-38.5 89,-38.5 89,-19.5 48,-19.5"/>
<text text-anchor="middle" x="68.5" y="-26.5" font-family="Helvetica,sans-Serif" font-size="10.00">main</text>
</a>
</g>
</g>
<!-- Node5&#45;&gt;Node6 -->
<g id="edge5" class="edge">
<title>Node5&#45;&gt;Node6</title>
<path fill="none" stroke="midnightblue" d="M201.03,-41.72C162.06,-37.95 115.18,-33.42 89.23,-30.91"/>
<polygon fill="midnightblue" stroke="midnightblue" points="200.97,-45.23 211.26,-42.71 201.65,-38.26 200.97,-45.23"/>
</g>
<!-- Node7&#45;&gt;Node6 -->
<g id="edge7" class="edge">
<title>Node7&#45;&gt;Node6</title>
<path fill="none" stroke="midnightblue" d="M198.76,-16.5C160.25,-20.23 114.65,-24.63 89.2,-27.09"/>
<polygon fill="midnightblue" stroke="midnightblue" points="199.28,-19.97 208.9,-15.52 198.61,-13 199.28,-19.97"/>
</g>
</g>
</svg>
