<?xml version="1.0" encoding="UTF-8" standalone="no"?>
<!DOCTYPE svg PUBLIC "-//W3C//DTD SVG 1.1//EN"
 "http://www.w3.org/Graphics/SVG/1.1/DTD/svg11.dtd">
<!-- Generated by graphviz version 2.43.0 (0)
 -->
<!-- Title: KNS_APP_gui_loop Pages: 1 -->
<svg width="904pt" height="395pt"
 viewBox="0.00 0.00 904.00 394.99" xmlns="http://www.w3.org/2000/svg" xmlns:xlink="http://www.w3.org/1999/xlink">
<g id="graph0" class="graph" transform="scale(1 1) rotate(0) translate(4 390.99)">
<title>KNS_APP_gui_loop</title>
<polygon fill="white" stroke="transparent" points="-4,4 -4,-390.99 900,-390.99 900,4 -4,4"/>
<!-- Node1 -->
<g id="node1" class="node">
<title>Node1</title>
<g id="a_node1"><a xlink:title="This fct is the application expected to run in front of the GUI.">
<polygon fill="#bfbfbf" stroke="black" points="0,-185.49 0,-204.49 107,-204.49 107,-185.49 0,-185.49"/>
<text text-anchor="middle" x="53.5" y="-192.49" font-family="Helvetica,sans-Serif" font-size="10.00">KNS_APP_gui_loop</text>
</a>
</g>
</g>
<!-- Node2 -->
<g id="node2" class="node">
<title>Node2</title>
<g id="a_node2"><a xlink:href="../../d0/d0f/group___m_g_r___a_t___c_m_d.html#ga9cef55cf869d8f8c3eaf6a49ca61b5d2" target="_top" xlink:title="Decode and exectue AT cmd if valid.">
<polygon fill="white" stroke="black" points="157.5,-324.49 157.5,-343.49 294.5,-343.49 294.5,-324.49 157.5,-324.49"/>
<text text-anchor="middle" x="226" y="-331.49" font-family="Helvetica,sans-Serif" font-size="10.00">MGR_AT_CMD_decodeAt</text>
</a>
</g>
</g>
<!-- Node1&#45;&gt;Node2 -->
<g id="edge1" class="edge">
<title>Node1&#45;&gt;Node2</title>
<path fill="none" stroke="midnightblue" d="M66.22,-204.54C95.06,-228.05 169.7,-288.9 205.4,-318.01"/>
<polygon fill="midnightblue" stroke="midnightblue" points="203.24,-320.76 213.2,-324.37 207.66,-315.34 203.24,-320.76"/>
</g>
<!-- Node7 -->
<g id="node7" class="node">
<title>Node7</title>
<g id="a_node7"><a xlink:href="../../d0/d0f/group___m_g_r___a_t___c_m_d.html#ga1a39b3c9cd76d50537a8bc42087ed46f" target="_top" xlink:title="Fct used to retreive and process event coming from kineis stack as answers to AT commands.">
<polygon fill="white" stroke="black" points="143,-185.49 143,-204.49 309,-204.49 309,-185.49 143,-185.49"/>
<text text-anchor="middle" x="226" y="-192.49" font-family="Helvetica,sans-Serif" font-size="10.00">MGR_AT_CMD_macEvtProcess</text>
</a>
</g>
</g>
<!-- Node1&#45;&gt;Node7 -->
<g id="edge6" class="edge">
<title>Node1&#45;&gt;Node7</title>
<path fill="none" stroke="midnightblue" d="M107.05,-194.99C115.2,-194.99 123.83,-194.99 132.56,-194.99"/>
<polygon fill="midnightblue" stroke="midnightblue" points="132.84,-198.49 142.84,-194.99 132.84,-191.49 132.84,-198.49"/>
</g>
<!-- Node22 -->
<g id="node22" class="node">
<title>Node22</title>
<g id="a_node22"><a xlink:href="../../d0/d0f/group___m_g_r___a_t___c_m_d.html#gae0ad7a2cd1228d268e28d2fd9fcd4411" target="_top" xlink:title="API used to get next AT command stored in internal fifo.">
<polygon fill="white" stroke="black" points="154.5,-147.49 154.5,-166.49 297.5,-166.49 297.5,-147.49 154.5,-147.49"/>
<text text-anchor="middle" x="226" y="-154.49" font-family="Helvetica,sans-Serif" font-size="10.00">MGR_AT_CMD_popNextAt</text>
</a>
</g>
</g>
<!-- Node1&#45;&gt;Node22 -->
<g id="edge28" class="edge">
<title>Node1&#45;&gt;Node22</title>
<path fill="none" stroke="midnightblue" d="M97.52,-185.4C120.23,-180.34 148.27,-174.09 172.27,-168.74"/>
<polygon fill="midnightblue" stroke="midnightblue" points="173.29,-172.1 182.29,-166.51 171.76,-165.27 173.29,-172.1"/>
</g>
<!-- Node3 -->
<g id="node3" class="node">
<title>Node3</title>
<g id="a_node3"><a xlink:href="../../d0/d0f/group___m_g_r___a_t___c_m_d.html#ga3d564aff9653e8bdc572d189093f1acc" target="_top" xlink:title="Log in debug interface a failed message.">
<polygon fill="white" stroke="black" points="348,-324.49 348,-343.49 510,-343.49 510,-324.49 348,-324.49"/>
<text text-anchor="middle" x="429" y="-331.49" font-family="Helvetica,sans-Serif" font-size="10.00">bMGR_AT_CMD_logFailedMsg</text>
</a>
</g>
</g>
<!-- Node2&#45;&gt;Node3 -->
<g id="edge2" class="edge">
<title>Node2&#45;&gt;Node3</title>
<path fill="none" stroke="midnightblue" d="M294.77,-333.99C308.43,-333.99 323.01,-333.99 337.31,-333.99"/>
<polygon fill="midnightblue" stroke="midnightblue" points="337.66,-337.49 347.66,-333.99 337.66,-330.49 337.66,-337.49"/>
</g>
<!-- Node5 -->
<g id="node5" class="node">
<title>Node5</title>
<g id="a_node5"><a xlink:href="../../d0/d0f/group___m_g_r___a_t___c_m_d.html#ga00f586ef524b455b8324900358922b2b" target="_top" xlink:title="Identifies AT command and its type (AT+XYZ=... or AT+XYZ=? or AT+XYZ? mode)">
<polygon fill="white" stroke="black" points="359,-365.49 359,-384.49 499,-384.49 499,-365.49 359,-365.49"/>
<text text-anchor="middle" x="429" y="-372.49" font-family="Helvetica,sans-Serif" font-size="10.00">MGR_AT_CMD_getAtType</text>
</a>
</g>
</g>
<!-- Node2&#45;&gt;Node5 -->
<g id="edge4" class="edge">
<title>Node2&#45;&gt;Node5</title>
<path fill="none" stroke="midnightblue" d="M273.62,-343.5C302.69,-349.43 340.3,-357.1 371.12,-363.39"/>
<polygon fill="midnightblue" stroke="midnightblue" points="370.79,-366.89 381.29,-365.46 372.19,-360.03 370.79,-366.89"/>
</g>
<!-- Node4 -->
<g id="node4" class="node">
<title>Node4</title>
<g id="a_node4"><a xlink:href="../../d8/d62/group___m_c_u___a_p_p___w_r_a_p_p_e_r_s.html#gae14ee3e1d2a9b459c0d89c451a4bc470" target="_top" xlink:title="Send AT CMD response to console.">
<polygon fill="white" stroke="black" points="758,-263.49 758,-282.49 896,-282.49 896,-263.49 758,-263.49"/>
<text text-anchor="middle" x="827" y="-270.49" font-family="Helvetica,sans-Serif" font-size="10.00">MCU_AT_CONSOLE_send</text>
</a>
</g>
</g>
<!-- Node3&#45;&gt;Node4 -->
<g id="edge3" class="edge">
<title>Node3&#45;&gt;Node4</title>
<path fill="none" stroke="midnightblue" d="M510.15,-338.16C569.46,-339.32 651.81,-336.88 722,-319.99 750.27,-313.18 780.31,-298.74 800.79,-287.64"/>
<polygon fill="midnightblue" stroke="midnightblue" points="802.71,-290.58 809.76,-282.67 799.32,-284.46 802.71,-290.58"/>
</g>
<!-- Node6 -->
<g id="node6" class="node">
<title>Node6</title>
<g id="a_node6"><a xlink:href="../../d8/da3/group___s_t_r_u_t_i_l_s.html#gae730bd1326c8ae1ceefe014b119ad407" target="_top" xlink:title="Compare 2 strings.">
<polygon fill="white" stroke="black" points="594,-367.49 594,-386.49 677,-386.49 677,-367.49 594,-367.49"/>
<text text-anchor="middle" x="635.5" y="-374.49" font-family="Helvetica,sans-Serif" font-size="10.00">bUTIL_strcmp</text>
</a>
</g>
</g>
<!-- Node5&#45;&gt;Node6 -->
<g id="edge5" class="edge">
<title>Node5&#45;&gt;Node6</title>
<path fill="none" stroke="midnightblue" d="M499.23,-375.67C526.94,-375.94 558.26,-376.24 583.78,-376.49"/>
<polygon fill="midnightblue" stroke="midnightblue" points="583.94,-379.99 593.98,-376.59 584.01,-372.99 583.94,-379.99"/>
</g>
<!-- Node7&#45;&gt;Node3 -->
<g id="edge7" class="edge">
<title>Node7&#45;&gt;Node3</title>
<path fill="none" stroke="midnightblue" d="M234.16,-204.5C251.03,-226.27 295.61,-280.03 345,-308.99 353.57,-314.01 363.23,-318.11 372.86,-321.42"/>
<polygon fill="midnightblue" stroke="midnightblue" points="371.85,-324.77 382.44,-324.48 373.98,-318.1 371.85,-324.77"/>
</g>
<!-- Node8 -->
<g id="node8" class="node">
<title>Node8</title>
<g id="a_node8"><a xlink:href="../../d0/d0f/group___m_g_r___a_t___c_m_d.html#gabef580da46cf82ca74ba3e5217cf3ffa" target="_top" xlink:title=": Log in debug interface a succeed message">
<polygon fill="white" stroke="black" points="549,-203.49 549,-222.49 722,-222.49 722,-203.49 549,-203.49"/>
<text text-anchor="middle" x="635.5" y="-210.49" font-family="Helvetica,sans-Serif" font-size="10.00">bMGR_AT_CMD_logSucceedMsg</text>
</a>
</g>
</g>
<!-- Node7&#45;&gt;Node8 -->
<g id="edge8" class="edge">
<title>Node7&#45;&gt;Node8</title>
<path fill="none" stroke="midnightblue" d="M309.46,-198.63C375.74,-201.56 468.94,-205.68 538.55,-208.75"/>
<polygon fill="midnightblue" stroke="midnightblue" points="538.5,-212.25 548.65,-209.2 538.81,-205.26 538.5,-212.25"/>
</g>
<!-- Node9 -->
<g id="node9" class="node">
<title>Node9</title>
<g id="a_node9"><a xlink:href="../../d0/d0f/group___m_g_r___a_t___c_m_d.html#gae5c3c3791220ed4687558e8681648a0d" target="_top" xlink:title=": This function writes in UART the response of specific command">
<polygon fill="white" stroke="black" points="345,-280.49 345,-299.49 513,-299.49 513,-280.49 345,-280.49"/>
<text text-anchor="middle" x="429" y="-287.49" font-family="Helvetica,sans-Serif" font-size="10.00">bMGR_AT_CMD_sendResponse</text>
</a>
</g>
</g>
<!-- Node7&#45;&gt;Node9 -->
<g id="edge10" class="edge">
<title>Node7&#45;&gt;Node9</title>
<path fill="none" stroke="midnightblue" d="M238.94,-204.72C259.4,-220.9 303.01,-253.3 345,-270.99 350.9,-273.47 357.18,-275.66 363.54,-277.58"/>
<polygon fill="midnightblue" stroke="midnightblue" points="362.99,-281.06 373.56,-280.38 364.88,-274.32 362.99,-281.06"/>
</g>
<!-- Node11 -->
<g id="node11" class="node">
<title>Node11</title>
<g id="a_node11"><a xlink:href="../../d1/ddb/group___k_n_s___q.html#ga200d86f8adcbe9365bcec0cc085c91c0" target="_top" xlink:title="This function is used to pop next element from a queue.">
<polygon fill="white" stroke="black" points="392.5,-128.49 392.5,-147.49 465.5,-147.49 465.5,-128.49 392.5,-128.49"/>
<text text-anchor="middle" x="429" y="-135.49" font-family="Helvetica,sans-Serif" font-size="10.00">KNS_Q_pop</text>
</a>
</g>
</g>
<!-- Node7&#45;&gt;Node11 -->
<g id="edge14" class="edge">
<title>Node7&#45;&gt;Node11</title>
<path fill="none" stroke="midnightblue" d="M277.47,-185.45C288.04,-182.86 299,-179.71 309,-175.99 325.95,-169.67 328.04,-163.28 345,-156.99 356.8,-152.61 369.94,-149.04 382.21,-146.23"/>
<polygon fill="midnightblue" stroke="midnightblue" points="383.24,-149.59 392.27,-144.04 381.76,-142.75 383.24,-149.59"/>
</g>
<!-- Node12 -->
<g id="node12" class="node">
<title>Node12</title>
<g id="a_node12"><a xlink:href="../../d0/d0f/group___m_g_r___a_t___c_m_d.html#gacc929e5b70f2d6fefaa89d8aabf18773" target="_top" xlink:title="Set/clear a GPIO around transmission.">
<polygon fill="white" stroke="black" points="392,-90.49 392,-109.49 466,-109.49 466,-90.49 392,-90.49"/>
<text text-anchor="middle" x="429" y="-97.49" font-family="Helvetica,sans-Serif" font-size="10.00">Set_TX_LED</text>
</a>
</g>
</g>
<!-- Node7&#45;&gt;Node12 -->
<g id="edge15" class="edge">
<title>Node7&#45;&gt;Node12</title>
<path fill="none" stroke="midnightblue" d="M290.95,-185.47C297.36,-182.99 303.52,-179.88 309,-175.99 333.43,-158.64 320.55,-136.31 345,-118.99 355.76,-111.37 369.09,-106.75 381.9,-103.97"/>
<polygon fill="midnightblue" stroke="midnightblue" points="382.8,-107.37 392,-102.11 381.53,-100.48 382.8,-107.37"/>
</g>
<!-- Node13 -->
<g id="node13" class="node">
<title>Node13</title>
<g id="a_node13"><a xlink:href="../../db/d4f/group___u_s_e_r___d_a_t_a.html#ga7bf3cf40b0f5041d24a722e26347c83d" target="_top" xlink:title="get first element which contains the expected payload">
<polygon fill="white" stroke="black" points="349.5,-52.49 349.5,-71.49 508.5,-71.49 508.5,-52.49 349.5,-52.49"/>
<text text-anchor="middle" x="429" y="-59.49" font-family="Helvetica,sans-Serif" font-size="10.00">USERDATA_txFifoFindPayload</text>
</a>
</g>
</g>
<!-- Node7&#45;&gt;Node13 -->
<g id="edge16" class="edge">
<title>Node7&#45;&gt;Node13</title>
<path fill="none" stroke="midnightblue" d="M294.22,-185.45C299.57,-182.94 304.6,-179.83 309,-175.99 343,-146.28 310.96,-110.65 345,-80.99 346.77,-79.45 348.63,-78.03 350.58,-76.72"/>
<polygon fill="midnightblue" stroke="midnightblue" points="352.58,-79.61 359.56,-71.64 349.13,-73.51 352.58,-79.61"/>
</g>
<!-- Node14 -->
<g id="node14" class="node">
<title>Node14</title>
<g id="a_node14"><a xlink:href="../../db/d4f/group___u_s_e_r___d_a_t_a.html#ga029850e8ca80a3be9b099582f5c7488a" target="_top" xlink:title="flush TX fifo">
<polygon fill="white" stroke="black" points="365.5,-14.49 365.5,-33.49 492.5,-33.49 492.5,-14.49 365.5,-14.49"/>
<text text-anchor="middle" x="429" y="-21.49" font-family="Helvetica,sans-Serif" font-size="10.00">USERDATA_txFifoFlush</text>
</a>
</g>
</g>
<!-- Node7&#45;&gt;Node14 -->
<g id="edge17" class="edge">
<title>Node7&#45;&gt;Node14</title>
<path fill="none" stroke="midnightblue" d="M295.81,-185.3C300.63,-182.81 305.11,-179.74 309,-175.99 353.09,-133.49 300.86,-85.43 345,-42.99 348.33,-39.79 352.08,-37.09 356.1,-34.81"/>
<polygon fill="midnightblue" stroke="midnightblue" points="357.72,-37.91 365.27,-30.48 354.73,-31.59 357.72,-37.91"/>
</g>
<!-- Node19 -->
<g id="node19" class="node">
<title>Node19</title>
<g id="a_node19"><a xlink:href="../../db/d4f/group___u_s_e_r___d_a_t_a.html#gac0082e264a11102f05874ef9f0609e26" target="_top" xlink:title="get first element of the TX Fifo">
<polygon fill="white" stroke="black" points="360,-242.49 360,-261.49 498,-261.49 498,-242.49 360,-242.49"/>
<text text-anchor="middle" x="429" y="-249.49" font-family="Helvetica,sans-Serif" font-size="10.00">USERDATA_txFifoGetFirst</text>
</a>
</g>
</g>
<!-- Node7&#45;&gt;Node19 -->
<g id="edge24" class="edge">
<title>Node7&#45;&gt;Node19</title>
<path fill="none" stroke="midnightblue" d="M260.64,-204.53C294.56,-214.15 347.06,-229.04 384.21,-239.57"/>
<polygon fill="midnightblue" stroke="midnightblue" points="383.67,-243.06 394.25,-242.42 385.58,-236.32 383.67,-243.06"/>
</g>
<!-- Node20 -->
<g id="node20" class="node">
<title>Node20</title>
<g id="a_node20"><a xlink:href="../../db/d4f/group___u_s_e_r___d_a_t_a.html#ga4d20835dbc4b21f645ff55eed7d93216" target="_top" xlink:title="Delete an element from the TX fifo.">
<polygon fill="white" stroke="black" points="352,-166.49 352,-185.49 506,-185.49 506,-166.49 352,-166.49"/>
<text text-anchor="middle" x="429" y="-173.49" font-family="Helvetica,sans-Serif" font-size="10.00">USERDATA_txFifoRemoveElt</text>
</a>
</g>
</g>
<!-- Node7&#45;&gt;Node20 -->
<g id="edge25" class="edge">
<title>Node7&#45;&gt;Node20</title>
<path fill="none" stroke="midnightblue" d="M309.04,-187.23C319.74,-186.22 330.72,-185.18 341.49,-184.17"/>
<polygon fill="midnightblue" stroke="midnightblue" points="342.1,-187.62 351.72,-183.2 341.44,-180.66 342.1,-187.62"/>
</g>
<!-- Node8&#45;&gt;Node4 -->
<g id="edge9" class="edge">
<title>Node8&#45;&gt;Node4</title>
<path fill="none" stroke="midnightblue" d="M672.42,-222.56C687.75,-226.78 705.82,-231.92 722,-236.99 744.77,-244.12 770.08,-252.86 790.03,-259.95"/>
<polygon fill="midnightblue" stroke="midnightblue" points="789.05,-263.31 799.64,-263.38 791.4,-256.72 789.05,-263.31"/>
</g>
<!-- Node9&#45;&gt;Node4 -->
<g id="edge11" class="edge">
<title>Node9&#45;&gt;Node4</title>
<path fill="none" stroke="midnightblue" d="M478.43,-280.48C499.94,-276.71 525.64,-272.84 549,-270.99 625.65,-264.91 645.11,-270.25 722,-270.99 730.31,-271.07 738.99,-271.18 747.64,-271.32"/>
<polygon fill="midnightblue" stroke="midnightblue" points="747.7,-274.82 757.75,-271.49 747.81,-267.82 747.7,-274.82"/>
</g>
<!-- Node10 -->
<g id="node10" class="node">
<title>Node10</title>
<g id="a_node10"><a xlink:href="../../d8/d62/group___m_c_u___a_p_p___w_r_a_p_p_e_r_s.html#gaf6858a5591eaf9e21e59a15188ff6f13" target="_top" xlink:title="Write content of a binary data buffer as AT cmd response.">
<polygon fill="white" stroke="black" points="566.5,-279.99 566.5,-309.99 704.5,-309.99 704.5,-279.99 566.5,-279.99"/>
<text text-anchor="start" x="574.5" y="-297.99" font-family="Helvetica,sans-Serif" font-size="10.00">MCU_AT_CONSOLE_send</text>
<text text-anchor="middle" x="635.5" y="-286.99" font-family="Helvetica,sans-Serif" font-size="10.00">_dataBuf</text>
</a>
</g>
</g>
<!-- Node9&#45;&gt;Node10 -->
<g id="edge12" class="edge">
<title>Node9&#45;&gt;Node10</title>
<path fill="none" stroke="midnightblue" d="M513.18,-292.02C527.42,-292.37 542.16,-292.73 556.27,-293.08"/>
<polygon fill="midnightblue" stroke="midnightblue" points="556.32,-296.58 566.4,-293.32 556.49,-289.58 556.32,-296.58"/>
</g>
<!-- Node10&#45;&gt;Node4 -->
<g id="edge13" class="edge">
<title>Node10&#45;&gt;Node4</title>
<path fill="none" stroke="midnightblue" d="M704.65,-287.08C718.56,-285.46 733.31,-283.75 747.56,-282.1"/>
<polygon fill="midnightblue" stroke="midnightblue" points="748.29,-285.53 757.82,-280.9 747.49,-278.58 748.29,-285.53"/>
</g>
<!-- Node15 -->
<g id="node15" class="node">
<title>Node15</title>
<g id="a_node15"><a xlink:href="../../d9/d2f/group___k_i_n_e_i_s___s_w___c_o_n_f.html#ga858c122b744e5d185b5abac307aae807" target="_top" xlink:title="Enter critical section.">
<polygon fill="white" stroke="black" points="784,-14.49 784,-33.49 870,-33.49 870,-14.49 784,-14.49"/>
<text text-anchor="middle" x="827" y="-21.49" font-family="Helvetica,sans-Serif" font-size="10.00">KNS_CS_enter</text>
</a>
</g>
</g>
<!-- Node14&#45;&gt;Node15 -->
<g id="edge18" class="edge">
<title>Node14&#45;&gt;Node15</title>
<path fill="none" stroke="midnightblue" d="M478.43,-14.48C499.94,-10.71 525.64,-6.84 549,-4.99 625.65,1.09 645.42,1.95 722,-4.99 739.03,-6.53 757.44,-9.47 773.97,-12.58"/>
<polygon fill="midnightblue" stroke="midnightblue" points="773.5,-16.05 783.99,-14.53 774.84,-9.18 773.5,-16.05"/>
</g>
<!-- Node16 -->
<g id="node16" class="node">
<title>Node16</title>
<g id="a_node16"><a xlink:href="../../d9/d2f/group___k_i_n_e_i_s___s_w___c_o_n_f.html#ga58b477bfcd987dcd7b733b98ab692fdc" target="_top" xlink:title="Exit critical section.">
<polygon fill="white" stroke="black" points="787.5,-71.49 787.5,-90.49 866.5,-90.49 866.5,-71.49 787.5,-71.49"/>
<text text-anchor="middle" x="827" y="-78.49" font-family="Helvetica,sans-Serif" font-size="10.00">KNS_CS_exit</text>
</a>
</g>
</g>
<!-- Node14&#45;&gt;Node16 -->
<g id="edge19" class="edge">
<title>Node14&#45;&gt;Node16</title>
<path fill="none" stroke="midnightblue" d="M488.07,-33.52C507.43,-36.63 529.13,-40.04 549,-42.99 628.84,-54.84 721.83,-67.33 777.2,-74.62"/>
<polygon fill="midnightblue" stroke="midnightblue" points="777.05,-78.14 787.42,-75.97 777.97,-71.19 777.05,-78.14"/>
</g>
<!-- Node17 -->
<g id="node17" class="node">
<title>Node17</title>
<g id="a_node17"><a xlink:href="../../db/d4f/group___u_s_e_r___d_a_t_a.html#ga7c272898faf1448391a80b578d9acf45" target="_top" xlink:title="count number of elements in TX fifo">
<polygon fill="white" stroke="black" points="562.5,-14.49 562.5,-33.49 708.5,-33.49 708.5,-14.49 562.5,-14.49"/>
<text text-anchor="middle" x="635.5" y="-21.49" font-family="Helvetica,sans-Serif" font-size="10.00">USERDATA_txFifoGetCount</text>
</a>
</g>
</g>
<!-- Node14&#45;&gt;Node17 -->
<g id="edge20" class="edge">
<title>Node14&#45;&gt;Node17</title>
<path fill="none" stroke="midnightblue" d="M492.75,-23.99C511.44,-23.99 532.22,-23.99 551.98,-23.99"/>
<polygon fill="midnightblue" stroke="midnightblue" points="552.2,-27.49 562.2,-23.99 552.2,-20.49 552.2,-27.49"/>
</g>
<!-- Node18 -->
<g id="node18" class="node">
<title>Node18</title>
<g id="a_node18"><a xlink:href="../../db/d4f/group___u_s_e_r___d_a_t_a.html#gafba02bd8b2e6ebad0b2f38b72e40ec21" target="_top" xlink:title="Log content of the TX fifo.">
<polygon fill="white" stroke="black" points="576.5,-90.49 576.5,-109.49 694.5,-109.49 694.5,-90.49 576.5,-90.49"/>
<text text-anchor="middle" x="635.5" y="-97.49" font-family="Helvetica,sans-Serif" font-size="10.00">USERDATA_txFifoLog</text>
</a>
</g>
</g>
<!-- Node14&#45;&gt;Node18 -->
<g id="edge21" class="edge">
<title>Node14&#45;&gt;Node18</title>
<path fill="none" stroke="midnightblue" d="M489.4,-33.61C497.58,-36.07 505.67,-39.14 513,-42.99 532.22,-53.08 530.03,-65.43 549,-75.99 557.3,-80.61 566.55,-84.39 575.83,-87.48"/>
<polygon fill="midnightblue" stroke="midnightblue" points="574.87,-90.84 585.45,-90.45 576.93,-84.16 574.87,-90.84"/>
</g>
<!-- Node18&#45;&gt;Node15 -->
<g id="edge22" class="edge">
<title>Node18&#45;&gt;Node15</title>
<path fill="none" stroke="midnightblue" d="M660.5,-90.36C693.96,-76.94 754.77,-52.55 792.63,-37.37"/>
<polygon fill="midnightblue" stroke="midnightblue" points="794.22,-40.51 802.19,-33.54 791.61,-34.01 794.22,-40.51"/>
</g>
<!-- Node18&#45;&gt;Node16 -->
<g id="edge23" class="edge">
<title>Node18&#45;&gt;Node16</title>
<path fill="none" stroke="midnightblue" d="M694.64,-94.16C721.13,-91.5 752.13,-88.4 777.36,-85.87"/>
<polygon fill="midnightblue" stroke="midnightblue" points="777.83,-89.34 787.43,-84.86 777.13,-82.37 777.83,-89.34"/>
</g>
<!-- Node20&#45;&gt;Node18 -->
<g id="edge27" class="edge">
<title>Node20&#45;&gt;Node18</title>
<path fill="none" stroke="midnightblue" d="M479.64,-166.45C490.75,-163.81 502.38,-160.65 513,-156.99 547.03,-145.26 584.24,-126.93 608.39,-114.24"/>
<polygon fill="midnightblue" stroke="midnightblue" points="610.1,-117.29 617.28,-109.51 606.81,-111.11 610.1,-117.29"/>
</g>
<!-- Node21 -->
<g id="node21" class="node">
<title>Node21</title>
<g id="a_node21"><a xlink:href="../../db/d4f/group___u_s_e_r___d_a_t_a.html#ga532418c0e3adad36946ba9d346a163f4" target="_top" xlink:title="check the element is pointing on a valid address, i.e. one from sUserDataTxFifoBuf buffer">
<polygon fill="white" stroke="black" points="568.5,-165.49 568.5,-184.49 702.5,-184.49 702.5,-165.49 568.5,-165.49"/>
<text text-anchor="middle" x="635.5" y="-172.49" font-family="Helvetica,sans-Serif" font-size="10.00">USERDATA_txFifoIsInBuf</text>
</a>
</g>
</g>
<!-- Node20&#45;&gt;Node21 -->
<g id="edge26" class="edge">
<title>Node20&#45;&gt;Node21</title>
<path fill="none" stroke="midnightblue" d="M506.15,-175.62C523.08,-175.53 541.03,-175.45 557.97,-175.36"/>
<polygon fill="midnightblue" stroke="midnightblue" points="558.39,-178.86 568.37,-175.31 558.35,-171.86 558.39,-178.86"/>
</g>
</g>
</svg>
