<?xml version="1.0" encoding="UTF-8" standalone="no"?>
<!DOCTYPE svg PUBLIC "-//W3C//DTD SVG 1.1//EN"
 "http://www.w3.org/Graphics/SVG/1.1/DTD/svg11.dtd">
<!-- Generated by graphviz version 2.43.0 (0)
 -->
<!-- Title: KNS_APP_gui_init Pages: 1 -->
<svg width="782pt" height="85pt"
 viewBox="0.00 0.00 782.00 85.00" xmlns="http://www.w3.org/2000/svg" xmlns:xlink="http://www.w3.org/1999/xlink">
<g id="graph0" class="graph" transform="scale(1 1) rotate(0) translate(4 81)">
<title>KNS_APP_gui_init</title>
<polygon fill="white" stroke="transparent" points="-4,4 -4,-81 778,-81 778,4 -4,4"/>
<!-- Node1 -->
<g id="node1" class="node">
<title>Node1</title>
<g id="a_node1"><a xlink:title="Init function needed for the application SW running in front of the GUI.">
<polygon fill="#bfbfbf" stroke="black" points="0,-38.5 0,-57.5 102,-57.5 102,-38.5 0,-38.5"/>
<text text-anchor="middle" x="51" y="-45.5" font-family="Helvetica,sans-Serif" font-size="10.00">KNS_APP_gui_init</text>
</a>
</g>
</g>
<!-- Node2 -->
<g id="node2" class="node">
<title>Node2</title>
<g id="a_node2"><a xlink:href="../../df/dbc/group___k_n_s___m_a_c.html#gad92570d201be381ae61c37a705bbfe7d" target="_top" xlink:title="Initialize and start MAC profile.">
<polygon fill="white" stroke="black" points="152,-57.5 152,-76.5 238,-76.5 238,-57.5 152,-57.5"/>
<text text-anchor="middle" x="195" y="-64.5" font-family="Helvetica,sans-Serif" font-size="10.00">KNS_MAC_init</text>
</a>
</g>
</g>
<!-- Node1&#45;&gt;Node2 -->
<g id="edge1" class="edge">
<title>Node1&#45;&gt;Node2</title>
<path fill="none" stroke="midnightblue" d="M102.06,-54.7C114.92,-56.42 128.78,-58.27 141.74,-60.01"/>
<polygon fill="midnightblue" stroke="midnightblue" points="141.53,-63.51 151.9,-61.37 142.46,-56.57 141.53,-63.51"/>
</g>
<!-- Node3 -->
<g id="node3" class="node">
<title>Node3</title>
<g id="a_node3"><a xlink:href="../../d0/d0f/group___m_g_r___a_t___c_m_d.html#ga8edd80aa91125cf8b5f711cd822df02a" target="_top" xlink:title="main API used to start AT command Manager">
<polygon fill="white" stroke="black" points="138,-19.5 138,-38.5 252,-38.5 252,-19.5 138,-19.5"/>
<text text-anchor="middle" x="195" y="-26.5" font-family="Helvetica,sans-Serif" font-size="10.00">MGR_AT_CMD_start</text>
</a>
</g>
</g>
<!-- Node1&#45;&gt;Node3 -->
<g id="edge2" class="edge">
<title>Node1&#45;&gt;Node3</title>
<path fill="none" stroke="midnightblue" d="M102.06,-41.3C110.33,-40.2 119.01,-39.03 127.6,-37.88"/>
<polygon fill="midnightblue" stroke="midnightblue" points="128.16,-41.34 137.61,-36.55 127.23,-34.4 128.16,-41.34"/>
</g>
<!-- Node4 -->
<g id="node4" class="node">
<title>Node4</title>
<g id="a_node4"><a xlink:href="../../d8/d62/group___m_c_u___a_p_p___w_r_a_p_p_e_r_s.html#ga74be300679e0b76678c55d7c8b609e6a" target="_top" xlink:title="Start AT CMD console for AT cmd reception.">
<polygon fill="white" stroke="black" points="295.5,-38.5 295.5,-57.5 447.5,-57.5 447.5,-38.5 295.5,-38.5"/>
<text text-anchor="middle" x="371.5" y="-45.5" font-family="Helvetica,sans-Serif" font-size="10.00">MCU_AT_CONSOLE_register</text>
</a>
</g>
</g>
<!-- Node3&#45;&gt;Node4 -->
<g id="edge3" class="edge">
<title>Node3&#45;&gt;Node4</title>
<path fill="none" stroke="midnightblue" d="M252.17,-35.12C262.7,-36.26 273.92,-37.48 285.1,-38.7"/>
<polygon fill="midnightblue" stroke="midnightblue" points="285.02,-42.21 295.34,-39.82 285.77,-35.25 285.02,-42.21"/>
</g>
<!-- Node7 -->
<g id="node7" class="node">
<title>Node7</title>
<g id="a_node7"><a xlink:href="../../d0/d0f/group___m_g_r___a_t___c_m_d.html#ga8a8d9cacd2053d0c96e923fc183ac4ad" target="_top" xlink:title="API used to extract the latest AT cmds from the incoming received data stream.">
<polygon fill="white" stroke="black" points="288,-0.5 288,-19.5 455,-19.5 455,-0.5 288,-0.5"/>
<text text-anchor="middle" x="371.5" y="-7.5" font-family="Helvetica,sans-Serif" font-size="10.00">MGR_AT_CMD_parseStreamCb</text>
</a>
</g>
</g>
<!-- Node3&#45;&gt;Node7 -->
<g id="edge6" class="edge">
<title>Node3&#45;&gt;Node7</title>
<path fill="none" stroke="midnightblue" d="M252.17,-22.88C260.34,-21.99 268.92,-21.06 277.57,-20.12"/>
<polygon fill="midnightblue" stroke="midnightblue" points="278.19,-23.57 287.75,-19.01 277.43,-16.61 278.19,-23.57"/>
</g>
<!-- Node5 -->
<g id="node5" class="node">
<title>Node5</title>
<g id="a_node5"><a xlink:href="../../d8/d62/group___m_c_u___a_p_p___w_r_a_p_p_e_r_s.html#ga2fbcd5790071dab1b10a9196607692b8" target="_top" xlink:title="Enable and start RX interrupt from UART.">
<polygon fill="white" stroke="black" points="491,-38.5 491,-57.5 628,-57.5 628,-38.5 491,-38.5"/>
<text text-anchor="middle" x="559.5" y="-45.5" font-family="Helvetica,sans-Serif" font-size="10.00">KINEIS_UART_StartRx_IT</text>
</a>
</g>
</g>
<!-- Node4&#45;&gt;Node5 -->
<g id="edge4" class="edge">
<title>Node4&#45;&gt;Node5</title>
<path fill="none" stroke="midnightblue" d="M447.62,-48C458.58,-48 469.88,-48 480.89,-48"/>
<polygon fill="midnightblue" stroke="midnightblue" points="480.9,-51.5 490.9,-48 480.9,-44.5 480.9,-51.5"/>
</g>
<!-- Node6 -->
<g id="node6" class="node">
<title>Node6</title>
<g id="a_node6"><a xlink:href="../../d8/d62/group___m_c_u___a_p_p___w_r_a_p_p_e_r_s.html#gaeda0953e4ffe9aae0475009c1d221944" target="_top" xlink:title="RX interrupt handler for 7 or 8 bits data word length .">
<polygon fill="white" stroke="black" points="664,-38.5 664,-57.5 774,-57.5 774,-38.5 664,-38.5"/>
<text text-anchor="middle" x="719" y="-45.5" font-family="Helvetica,sans-Serif" font-size="10.00">KINEIS_RxISR_8BIT</text>
</a>
</g>
</g>
<!-- Node5&#45;&gt;Node6 -->
<g id="edge5" class="edge">
<title>Node5&#45;&gt;Node6</title>
<path fill="none" stroke="midnightblue" d="M628.21,-48C636.63,-48 645.21,-48 653.58,-48"/>
<polygon fill="midnightblue" stroke="midnightblue" points="653.65,-51.5 663.65,-48 653.65,-44.5 653.65,-51.5"/>
</g>
</g>
</svg>
