<?xml version="1.0" encoding="UTF-8" standalone="no"?>
<!DOCTYPE svg PUBLIC "-//W3C//DTD SVG 1.1//EN"
 "http://www.w3.org/Graphics/SVG/1.1/DTD/svg11.dtd">
<!-- Generated by graphviz version 2.43.0 (0)
 -->
<!-- Title: KNS_APP_stdln_loop Pages: 1 -->
<svg width="290pt" height="180pt"
 viewBox="0.00 0.00 290.00 180.00" xmlns="http://www.w3.org/2000/svg" xmlns:xlink="http://www.w3.org/1999/xlink">
<g id="graph0" class="graph" transform="scale(1 1) rotate(0) translate(4 176)">
<title>KNS_APP_stdln_loop</title>
<polygon fill="white" stroke="transparent" points="-4,4 -4,-176 286,-176 286,4 -4,4"/>
<!-- Node1 -->
<g id="node1" class="node">
<title>Node1</title>
<g id="a_node1"><a xlink:title="This fct is a very basic standalone application.">
<polygon fill="#bfbfbf" stroke="black" points="0,-76.5 0,-95.5 116,-95.5 116,-76.5 0,-76.5"/>
<text text-anchor="middle" x="58" y="-83.5" font-family="Helvetica,sans-Serif" font-size="10.00">KNS_APP_stdln_loop</text>
</a>
</g>
</g>
<!-- Node2 -->
<g id="node2" class="node">
<title>Node2</title>
<g id="a_node2"><a xlink:href="../../dd/d41/group___k_n_s___a_p_p.html#ga36f229bbda63818246ec86181b1fdd42" target="_top" xlink:title=" ">
<polygon fill="white" stroke="black" points="177,-152.5 177,-171.5 257,-171.5 257,-152.5 177,-152.5"/>
<text text-anchor="middle" x="217" y="-159.5" font-family="Helvetica,sans-Serif" font-size="10.00">__attribute__</text>
</a>
</g>
</g>
<!-- Node1&#45;&gt;Node2 -->
<g id="edge1" class="edge">
<title>Node1&#45;&gt;Node2</title>
<path fill="none" stroke="midnightblue" d="M72.25,-95.67C89.76,-108.08 121.9,-129.59 152,-143 157.09,-145.27 162.54,-147.36 168.01,-149.25"/>
<polygon fill="midnightblue" stroke="midnightblue" points="167.25,-152.69 177.84,-152.45 169.42,-146.03 167.25,-152.69"/>
</g>
<!-- Node3 -->
<g id="node3" class="node">
<title>Node3</title>
<g id="a_node3"><a xlink:href="../../d0/d54/group___k_n_s___c_f_g.html#ga3538adccf668070211abc09f59a68bce" target="_top" xlink:title="Get the Kineis radio configuration.">
<polygon fill="white" stroke="black" points="152,-114.5 152,-133.5 282,-133.5 282,-114.5 152,-114.5"/>
<text text-anchor="middle" x="217" y="-121.5" font-family="Helvetica,sans-Serif" font-size="10.00">KNS_CFG_getRadioInfo</text>
</a>
</g>
</g>
<!-- Node1&#45;&gt;Node3 -->
<g id="edge2" class="edge">
<title>Node1&#45;&gt;Node3</title>
<path fill="none" stroke="midnightblue" d="M98.62,-95.59C119.34,-100.6 144.89,-106.79 166.86,-112.11"/>
<polygon fill="midnightblue" stroke="midnightblue" points="166.12,-115.53 176.67,-114.48 167.77,-108.73 166.12,-115.53"/>
</g>
<!-- Node4 -->
<g id="node4" class="node">
<title>Node4</title>
<g id="a_node4"><a xlink:href="../../d1/ddb/group___k_n_s___q.html#ga200d86f8adcbe9365bcec0cc085c91c0" target="_top" xlink:title="This function is used to pop next element from a queue.">
<polygon fill="white" stroke="black" points="180.5,-76.5 180.5,-95.5 253.5,-95.5 253.5,-76.5 180.5,-76.5"/>
<text text-anchor="middle" x="217" y="-83.5" font-family="Helvetica,sans-Serif" font-size="10.00">KNS_Q_pop</text>
</a>
</g>
</g>
<!-- Node1&#45;&gt;Node4 -->
<g id="edge3" class="edge">
<title>Node1&#45;&gt;Node4</title>
<path fill="none" stroke="midnightblue" d="M116.12,-86C133.84,-86 153.13,-86 169.99,-86"/>
<polygon fill="midnightblue" stroke="midnightblue" points="170.14,-89.5 180.14,-86 170.14,-82.5 170.14,-89.5"/>
</g>
<!-- Node5 -->
<g id="node5" class="node">
<title>Node5</title>
<g id="a_node5"><a xlink:href="../../d1/ddb/group___k_n_s___q.html#gac9a2be7939be73c32fd7eefb0d3ab3b3" target="_top" xlink:title="This function is used to push an element into a queue.">
<polygon fill="white" stroke="black" points="178,-38.5 178,-57.5 256,-57.5 256,-38.5 178,-38.5"/>
<text text-anchor="middle" x="217" y="-45.5" font-family="Helvetica,sans-Serif" font-size="10.00">KNS_Q_push</text>
</a>
</g>
</g>
<!-- Node1&#45;&gt;Node5 -->
<g id="edge4" class="edge">
<title>Node1&#45;&gt;Node5</title>
<path fill="none" stroke="midnightblue" d="M98.62,-76.41C119.65,-71.32 145.67,-65.02 167.86,-59.65"/>
<polygon fill="midnightblue" stroke="midnightblue" points="168.85,-63.01 177.75,-57.26 167.21,-56.21 168.85,-63.01"/>
</g>
<!-- Node6 -->
<g id="node6" class="node">
<title>Node6</title>
<g id="a_node6"><a xlink:href="../../d0/d0f/group___m_g_r___a_t___c_m_d.html#gaa9d6835fa67d6e39b880e04688f7ece9" target="_top" xlink:title="Log array of uint8_t.">
<polygon fill="white" stroke="black" points="169,-0.5 169,-19.5 265,-19.5 265,-0.5 169,-0.5"/>
<text text-anchor="middle" x="217" y="-7.5" font-family="Helvetica,sans-Serif" font-size="10.00">MGR_LOG_array</text>
</a>
</g>
</g>
<!-- Node1&#45;&gt;Node6 -->
<g id="edge5" class="edge">
<title>Node1&#45;&gt;Node6</title>
<path fill="none" stroke="midnightblue" d="M72.25,-76.33C89.76,-63.92 121.9,-42.41 152,-29 157.09,-26.73 162.54,-24.64 168.01,-22.75"/>
<polygon fill="midnightblue" stroke="midnightblue" points="169.42,-25.97 177.84,-19.55 167.25,-19.31 169.42,-25.97"/>
</g>
</g>
</svg>
