<?xml version="1.0" encoding="UTF-8" standalone="no"?>
<!DOCTYPE svg PUBLIC "-//W3C//DTD SVG 1.1//EN"
 "http://www.w3.org/Graphics/SVG/1.1/DTD/svg11.dtd">
<!-- Generated by graphviz version 2.43.0 (0)
 -->
<!-- Title: KNS_APP_stdln_loop Pages: 1 -->
<svg width="429pt" height="256pt"
 viewBox="0.00 0.00 429.00 256.00" xmlns="http://www.w3.org/2000/svg" xmlns:xlink="http://www.w3.org/1999/xlink">
<g id="graph0" class="graph" transform="scale(1 1) rotate(0) translate(4 252)">
<title>KNS_APP_stdln_loop</title>
<polygon fill="white" stroke="transparent" points="-4,4 -4,-252 425,-252 425,4 -4,4"/>
<!-- Node1 -->
<g id="node1" class="node">
<title>Node1</title>
<g id="a_node1"><a xlink:title="This fct is a very basic standalone application.">
<polygon fill="#bfbfbf" stroke="black" points="0,-114.5 0,-133.5 116,-133.5 116,-114.5 0,-114.5"/>
<text text-anchor="middle" x="58" y="-121.5" font-family="Helvetica,sans-Serif" font-size="10.00">KNS_APP_stdln_loop</text>
</a>
</g>
</g>
<!-- Node2 -->
<g id="node2" class="node">
<title>Node2</title>
<g id="a_node2"><a xlink:href="../../dd/d41/group___k_n_s___a_p_p.html#ga36f229bbda63818246ec86181b1fdd42" target="_top" xlink:title=" ">
<polygon fill="white" stroke="black" points="189.5,-228.5 189.5,-247.5 269.5,-247.5 269.5,-228.5 189.5,-228.5"/>
<text text-anchor="middle" x="229.5" y="-235.5" font-family="Helvetica,sans-Serif" font-size="10.00">__attribute__</text>
</a>
</g>
</g>
<!-- Node1&#45;&gt;Node2 -->
<g id="edge1" class="edge">
<title>Node1&#45;&gt;Node2</title>
<path fill="none" stroke="midnightblue" d="M65.46,-133.51C79.08,-152.78 112.74,-196.53 152,-219 160.37,-223.79 169.94,-227.39 179.4,-230.08"/>
<polygon fill="midnightblue" stroke="midnightblue" points="178.62,-233.49 189.17,-232.57 180.35,-226.71 178.62,-233.49"/>
</g>
<!-- Node3 -->
<g id="node3" class="node">
<title>Node3</title>
<g id="a_node3"><a xlink:href="../../dd/d41/group___k_n_s___a_p_p.html#ga43590921208185253a9503500d5d70d1" target="_top" xlink:title="Start MAC profile for the standalone application.">
<polygon fill="white" stroke="black" points="152,-190.5 152,-209.5 307,-209.5 307,-190.5 152,-190.5"/>
<text text-anchor="middle" x="229.5" y="-197.5" font-family="Helvetica,sans-Serif" font-size="10.00">KNS_APP_stdln_startMacPrfl</text>
</a>
</g>
</g>
<!-- Node1&#45;&gt;Node3 -->
<g id="edge2" class="edge">
<title>Node1&#45;&gt;Node3</title>
<path fill="none" stroke="midnightblue" d="M73.97,-133.65C91.96,-144.93 123.29,-163.63 152,-176 161.88,-180.26 172.77,-184.13 183.16,-187.47"/>
<polygon fill="midnightblue" stroke="midnightblue" points="182.32,-190.87 192.91,-190.49 184.4,-184.19 182.32,-190.87"/>
</g>
<!-- Node4 -->
<g id="node4" class="node">
<title>Node4</title>
<g id="a_node4"><a xlink:href="../../d1/ddb/group___k_n_s___q.html#gac9a2be7939be73c32fd7eefb0d3ab3b3" target="_top" xlink:title="This function is used to push an element into a queue.">
<polygon fill="white" stroke="black" points="343,-152.5 343,-171.5 421,-171.5 421,-152.5 343,-152.5"/>
<text text-anchor="middle" x="382" y="-159.5" font-family="Helvetica,sans-Serif" font-size="10.00">KNS_Q_push</text>
</a>
</g>
</g>
<!-- Node1&#45;&gt;Node4 -->
<g id="edge8" class="edge">
<title>Node1&#45;&gt;Node4</title>
<path fill="none" stroke="midnightblue" d="M100.48,-133.57C116.5,-136.98 135.03,-140.57 152,-143 214.05,-151.88 286.19,-157.02 332.67,-159.66"/>
<polygon fill="midnightblue" stroke="midnightblue" points="332.58,-163.16 342.76,-160.22 332.96,-156.17 332.58,-163.16"/>
</g>
<!-- Node5 -->
<g id="node5" class="node">
<title>Node5</title>
<g id="a_node5"><a xlink:href="../../dd/d41/group___k_n_s___a_p_p.html#ga4bb02cc43d1bdbd739a38f4ddea0e82b" target="_top" xlink:title="Stop MAC profile for the standalone application.">
<polygon fill="white" stroke="black" points="153,-114.5 153,-133.5 306,-133.5 306,-114.5 153,-114.5"/>
<text text-anchor="middle" x="229.5" y="-121.5" font-family="Helvetica,sans-Serif" font-size="10.00">KNS_APP_stdln_stopMacPrfl</text>
</a>
</g>
</g>
<!-- Node1&#45;&gt;Node5 -->
<g id="edge4" class="edge">
<title>Node1&#45;&gt;Node5</title>
<path fill="none" stroke="midnightblue" d="M116.38,-124C124.9,-124 133.82,-124 142.76,-124"/>
<polygon fill="midnightblue" stroke="midnightblue" points="142.84,-127.5 152.84,-124 142.84,-120.5 142.84,-127.5"/>
</g>
<!-- Node6 -->
<g id="node6" class="node">
<title>Node6</title>
<g id="a_node6"><a xlink:href="../../d0/d54/group___k_n_s___c_f_g.html#ga3538adccf668070211abc09f59a68bce" target="_top" xlink:title="Get the Kineis radio configuration.">
<polygon fill="white" stroke="black" points="164.5,-76.5 164.5,-95.5 294.5,-95.5 294.5,-76.5 164.5,-76.5"/>
<text text-anchor="middle" x="229.5" y="-83.5" font-family="Helvetica,sans-Serif" font-size="10.00">KNS_CFG_getRadioInfo</text>
</a>
</g>
</g>
<!-- Node1&#45;&gt;Node6 -->
<g id="edge6" class="edge">
<title>Node1&#45;&gt;Node6</title>
<path fill="none" stroke="midnightblue" d="M101.77,-114.41C124.34,-109.35 152.22,-103.1 176.08,-97.75"/>
<polygon fill="midnightblue" stroke="midnightblue" points="177.04,-101.12 186.04,-95.52 175.51,-94.29 177.04,-101.12"/>
</g>
<!-- Node7 -->
<g id="node7" class="node">
<title>Node7</title>
<g id="a_node7"><a xlink:href="../../d1/ddb/group___k_n_s___q.html#ga200d86f8adcbe9365bcec0cc085c91c0" target="_top" xlink:title="This function is used to pop next element from a queue.">
<polygon fill="white" stroke="black" points="193,-38.5 193,-57.5 266,-57.5 266,-38.5 193,-38.5"/>
<text text-anchor="middle" x="229.5" y="-45.5" font-family="Helvetica,sans-Serif" font-size="10.00">KNS_Q_pop</text>
</a>
</g>
</g>
<!-- Node1&#45;&gt;Node7 -->
<g id="edge7" class="edge">
<title>Node1&#45;&gt;Node7</title>
<path fill="none" stroke="midnightblue" d="M71.86,-114.34C89.2,-101.74 121.43,-79.8 152,-67 161.76,-62.91 172.6,-59.56 182.97,-56.88"/>
<polygon fill="midnightblue" stroke="midnightblue" points="183.84,-60.27 192.73,-54.5 182.19,-53.46 183.84,-60.27"/>
</g>
<!-- Node8 -->
<g id="node8" class="node">
<title>Node8</title>
<g id="a_node8"><a xlink:href="../../d0/d0f/group___m_g_r___a_t___c_m_d.html#gafe57cb4db4c278d9f302a4d5b41e3025" target="_top" xlink:title="Log array of uint8_t.">
<polygon fill="white" stroke="black" points="181.5,-0.5 181.5,-19.5 277.5,-19.5 277.5,-0.5 181.5,-0.5"/>
<text text-anchor="middle" x="229.5" y="-7.5" font-family="Helvetica,sans-Serif" font-size="10.00">MGR_LOG_array</text>
</a>
</g>
</g>
<!-- Node1&#45;&gt;Node8 -->
<g id="edge9" class="edge">
<title>Node1&#45;&gt;Node8</title>
<path fill="none" stroke="midnightblue" d="M65.46,-114.49C79.08,-95.22 112.74,-51.47 152,-29 157.99,-25.58 164.58,-22.76 171.31,-20.45"/>
<polygon fill="midnightblue" stroke="midnightblue" points="172.67,-23.7 181.21,-17.42 170.62,-17 172.67,-23.7"/>
</g>
<!-- Node3&#45;&gt;Node4 -->
<g id="edge3" class="edge">
<title>Node3&#45;&gt;Node4</title>
<path fill="none" stroke="midnightblue" d="M268.48,-190.41C288.16,-185.44 312.39,-179.32 333.32,-174.04"/>
<polygon fill="midnightblue" stroke="midnightblue" points="334.46,-177.36 343.3,-171.52 332.74,-170.57 334.46,-177.36"/>
</g>
<!-- Node5&#45;&gt;Node4 -->
<g id="edge5" class="edge">
<title>Node5&#45;&gt;Node4</title>
<path fill="none" stroke="midnightblue" d="M268.48,-133.59C288.16,-138.56 312.39,-144.68 333.32,-149.96"/>
<polygon fill="midnightblue" stroke="midnightblue" points="332.74,-153.43 343.3,-152.48 334.46,-146.64 332.74,-153.43"/>
</g>
</g>
</svg>
