<?xml version="1.0" encoding="UTF-8" standalone="no"?>
<!DOCTYPE svg PUBLIC "-//W3C//DTD SVG 1.1//EN"
 "http://www.w3.org/Graphics/SVG/1.1/DTD/svg11.dtd">
<!-- Generated by graphviz version 2.43.0 (0)
 -->
<!-- Title: KNS_APP_gui_loop Pages: 1 -->
<!--zoomable 431 -->
<svg id="main" version="1.1" xmlns="http://www.w3.org/2000/svg" xmlns:xlink="http://www.w3.org/1999/xlink" xml:space="preserve" onload="init(evt)">
<style type="text/css"><![CDATA[
.edge:hover path { stroke: red; }
.edge:hover polygon { stroke: red; fill: red; }
]]></style>
<script type="text/javascript"><![CDATA[
var edges = document.getElementsByTagName('g');
if (edges && edges.length) {
  for (var i=0;i<edges.length;i++) {
    if (edges[i].id.substr(0,4)=='edge') {
      edges[i].setAttribute('class','edge');
    }
  }
}
]]></script>
        <defs>
                <circle id="rim" cx="0" cy="0" r="7"/>
                <circle id="rim2" cx="0" cy="0" r="3.5"/>
                <g id="zoomPlus">
                        <use xlink:href="#rim" fill="#404040">
                                <set attributeName="fill" to="#808080" begin="zoomplus.mouseover" end="zoomplus.mouseout"/>
                        </use>
                        <path d="M-4,0h8M0,-4v8" fill="none" stroke="white" stroke-width="1.5" pointer-events="none"/>
                </g>
                <g id="zoomMin">
                        <use xlink:href="#rim" fill="#404040">
                                <set attributeName="fill" to="#808080" begin="zoomminus.mouseover" end="zoomminus.mouseout"/>
                        </use>
                        <path d="M-4,0h8" fill="none" stroke="white" stroke-width="1.5" pointer-events="none"/>
                </g>
                <g id="dirArrow">
                        <path fill="none" stroke="white" stroke-width="1.5" d="M0,-3.0v7 M-2.5,-0.5L0,-3.0L2.5,-0.5"/>
                </g>
               <g id="resetDef">
                       <use xlink:href="#rim2" fill="#404040">
                               <set attributeName="fill" to="#808080" begin="reset.mouseover" end="reset.mouseout"/>
                       </use>
               </g>
        </defs>

<script type="text/javascript">
var viewWidth = 904;
var viewHeight = 431;
var sectionId = 'dynsection-3';
</script>
<script xlink:href="../../svgpan.js"/>
<svg id="graph" class="graph">
<g id="viewport">
<title>KNS_APP_gui_loop</title>
<polygon fill="white" stroke="transparent" points="-4,4 -4,-426.99 900,-426.99 900,4 -4,4"/>
<!-- Node1 -->
<g id="node1" class="node">
<title>Node1</title>
<g id="a_node1"><a xlink:title="This fct is the application expected to run in front of the GUI.">
<polygon fill="#bfbfbf" stroke="black" points="0,-204.49 0,-223.49 107,-223.49 107,-204.49 0,-204.49"/>
<text text-anchor="middle" x="53.5" y="-211.49" font-family="Helvetica,sans-Serif" font-size="10.00">KNS_APP_gui_loop</text>
</a>
</g>
</g>
<!-- Node2 -->
<g id="node2" class="node">
<title>Node2</title>
<g id="a_node2"><a xlink:href="../../d0/d0f/group___m_g_r___a_t___c_m_d.html#ga9cef55cf869d8f8c3eaf6a49ca61b5d2" target="_top" xlink:title="Decode and exectue AT cmd if valid.">
<polygon fill="white" stroke="black" points="157.5,-359.49 157.5,-378.49 294.5,-378.49 294.5,-359.49 157.5,-359.49"/>
<text text-anchor="middle" x="226" y="-366.49" font-family="Helvetica,sans-Serif" font-size="10.00">MGR_AT_CMD_decodeAt</text>
</a>
</g>
</g>
<!-- Node1&#45;&gt;Node2 -->
<g id="edge1" class="edge">
<title>Node1&#45;&gt;Node2</title>
<path fill="none" stroke="midnightblue" d="M65.17,-223.68C93.51,-249.45 170.99,-319.89 206.62,-352.28"/>
<polygon fill="midnightblue" stroke="midnightblue" points="204.58,-355.16 214.34,-359.3 209.29,-349.98 204.58,-355.16"/>
</g>
<!-- Node7 -->
<g id="node7" class="node">
<title>Node7</title>
<g id="a_node7"><a xlink:href="../../d0/d0f/group___m_g_r___a_t___c_m_d.html#ga1a39b3c9cd76d50537a8bc42087ed46f" target="_top" xlink:title="Fct used to retreive and process event coming from kineis stack as answers to AT commands.">
<polygon fill="white" stroke="black" points="143,-204.49 143,-223.49 309,-223.49 309,-204.49 143,-204.49"/>
<text text-anchor="middle" x="226" y="-211.49" font-family="Helvetica,sans-Serif" font-size="10.00">MGR_AT_CMD_macEvtProcess</text>
</a>
</g>
</g>
<!-- Node1&#45;&gt;Node7 -->
<g id="edge6" class="edge">
<title>Node1&#45;&gt;Node7</title>
<path fill="none" stroke="midnightblue" d="M107.05,-213.99C115.2,-213.99 123.83,-213.99 132.56,-213.99"/>
<polygon fill="midnightblue" stroke="midnightblue" points="132.84,-217.49 142.84,-213.99 132.84,-210.49 132.84,-217.49"/>
</g>
<!-- Node23 -->
<g id="node23" class="node">
<title>Node23</title>
<g id="a_node23"><a xlink:href="../../d0/d0f/group___m_g_r___a_t___c_m_d.html#gae0ad7a2cd1228d268e28d2fd9fcd4411" target="_top" xlink:title="API used to get next AT command stored in internal fifo.">
<polygon fill="white" stroke="black" points="154.5,-166.49 154.5,-185.49 297.5,-185.49 297.5,-166.49 154.5,-166.49"/>
<text text-anchor="middle" x="226" y="-173.49" font-family="Helvetica,sans-Serif" font-size="10.00">MGR_AT_CMD_popNextAt</text>
</a>
</g>
</g>
<!-- Node1&#45;&gt;Node23 -->
<g id="edge29" class="edge">
<title>Node1&#45;&gt;Node23</title>
<path fill="none" stroke="midnightblue" d="M97.52,-204.4C120.23,-199.34 148.27,-193.09 172.27,-187.74"/>
<polygon fill="midnightblue" stroke="midnightblue" points="173.29,-191.1 182.29,-185.51 171.76,-184.27 173.29,-191.1"/>
</g>
<!-- Node3 -->
<g id="node3" class="node">
<title>Node3</title>
<g id="a_node3"><a xlink:href="../../d0/d0f/group___m_g_r___a_t___c_m_d.html#ga3d564aff9653e8bdc572d189093f1acc" target="_top" xlink:title="Log in debug interface a failed message.">
<polygon fill="white" stroke="black" points="348,-359.49 348,-378.49 510,-378.49 510,-359.49 348,-359.49"/>
<text text-anchor="middle" x="429" y="-366.49" font-family="Helvetica,sans-Serif" font-size="10.00">bMGR_AT_CMD_logFailedMsg</text>
</a>
</g>
</g>
<!-- Node2&#45;&gt;Node3 -->
<g id="edge2" class="edge">
<title>Node2&#45;&gt;Node3</title>
<path fill="none" stroke="midnightblue" d="M294.77,-368.99C308.43,-368.99 323.01,-368.99 337.31,-368.99"/>
<polygon fill="midnightblue" stroke="midnightblue" points="337.66,-372.49 347.66,-368.99 337.66,-365.49 337.66,-372.49"/>
</g>
<!-- Node5 -->
<g id="node5" class="node">
<title>Node5</title>
<g id="a_node5"><a xlink:href="../../d0/d0f/group___m_g_r___a_t___c_m_d.html#ga00f586ef524b455b8324900358922b2b" target="_top" xlink:title="Identifies AT command and its type (AT+XYZ=... or AT+XYZ=? or AT+XYZ? mode)">
<polygon fill="white" stroke="black" points="359,-402.49 359,-421.49 499,-421.49 499,-402.49 359,-402.49"/>
<text text-anchor="middle" x="429" y="-409.49" font-family="Helvetica,sans-Serif" font-size="10.00">MGR_AT_CMD_getAtType</text>
</a>
</g>
</g>
<!-- Node2&#45;&gt;Node5 -->
<g id="edge4" class="edge">
<title>Node2&#45;&gt;Node5</title>
<path fill="none" stroke="midnightblue" d="M271.61,-378.53C301.66,-384.96 341.5,-393.48 373.44,-400.32"/>
<polygon fill="midnightblue" stroke="midnightblue" points="373.01,-403.8 383.52,-402.47 374.47,-396.96 373.01,-403.8"/>
</g>
<!-- Node4 -->
<g id="node4" class="node">
<title>Node4</title>
<g id="a_node4"><a xlink:href="../../d8/d62/group___m_c_u___a_p_p___w_r_a_p_p_e_r_s.html#gae14ee3e1d2a9b459c0d89c451a4bc470" target="_top" xlink:title="Send AT CMD response to console.">
<polygon fill="white" stroke="black" points="758,-299.49 758,-318.49 896,-318.49 896,-299.49 758,-299.49"/>
<text text-anchor="middle" x="827" y="-306.49" font-family="Helvetica,sans-Serif" font-size="10.00">MCU_AT_CONSOLE_send</text>
</a>
</g>
</g>
<!-- Node3&#45;&gt;Node4 -->
<g id="edge3" class="edge">
<title>Node3&#45;&gt;Node4</title>
<path fill="none" stroke="midnightblue" d="M510.13,-373.5C569.45,-374.91 651.79,-372.76 722,-355.99 750.45,-349.19 780.67,-334.61 801.16,-323.47"/>
<polygon fill="midnightblue" stroke="midnightblue" points="803.08,-326.41 810.12,-318.49 799.68,-320.29 803.08,-326.41"/>
</g>
<!-- Node6 -->
<g id="node6" class="node">
<title>Node6</title>
<g id="a_node6"><a xlink:href="../../d8/da3/group___s_t_r_u_t_i_l_s.html#gae730bd1326c8ae1ceefe014b119ad407" target="_top" xlink:title="Compare 2 strings.">
<polygon fill="white" stroke="black" points="594,-403.49 594,-422.49 677,-422.49 677,-403.49 594,-403.49"/>
<text text-anchor="middle" x="635.5" y="-410.49" font-family="Helvetica,sans-Serif" font-size="10.00">bUTIL_strcmp</text>
</a>
</g>
</g>
<!-- Node5&#45;&gt;Node6 -->
<g id="edge5" class="edge">
<title>Node5&#45;&gt;Node6</title>
<path fill="none" stroke="midnightblue" d="M499.23,-412.33C526.94,-412.46 558.26,-412.62 583.78,-412.74"/>
<polygon fill="midnightblue" stroke="midnightblue" points="583.96,-416.24 593.98,-412.79 583.99,-409.24 583.96,-416.24"/>
</g>
<!-- Node7&#45;&gt;Node3 -->
<g id="edge7" class="edge">
<title>Node7&#45;&gt;Node3</title>
<path fill="none" stroke="midnightblue" d="M232.77,-223.77C247.87,-248.48 291.12,-313.8 345,-346.99 350.8,-350.56 357.17,-353.56 363.73,-356.07"/>
<polygon fill="midnightblue" stroke="midnightblue" points="362.83,-359.46 373.42,-359.42 365.11,-352.85 362.83,-359.46"/>
</g>
<!-- Node8 -->
<g id="node8" class="node">
<title>Node8</title>
<g id="a_node8"><a xlink:href="../../d0/d0f/group___m_g_r___a_t___c_m_d.html#gabef580da46cf82ca74ba3e5217cf3ffa" target="_top" xlink:title=": Log in debug interface a succeed message">
<polygon fill="white" stroke="black" points="549,-239.49 549,-258.49 722,-258.49 722,-239.49 549,-239.49"/>
<text text-anchor="middle" x="635.5" y="-246.49" font-family="Helvetica,sans-Serif" font-size="10.00">bMGR_AT_CMD_logSucceedMsg</text>
</a>
</g>
</g>
<!-- Node7&#45;&gt;Node8 -->
<g id="edge8" class="edge">
<title>Node7&#45;&gt;Node8</title>
<path fill="none" stroke="midnightblue" d="M278.83,-223.53C299.37,-227 323.23,-230.64 345,-232.99 409.44,-239.94 482.3,-243.95 538.81,-246.21"/>
<polygon fill="midnightblue" stroke="midnightblue" points="538.68,-249.71 548.8,-246.6 538.95,-242.71 538.68,-249.71"/>
</g>
<!-- Node9 -->
<g id="node9" class="node">
<title>Node9</title>
<g id="a_node9"><a xlink:href="../../d0/d0f/group___m_g_r___a_t___c_m_d.html#gae5c3c3791220ed4687558e8681648a0d" target="_top" xlink:title=": This function writes in UART the response of specific command">
<polygon fill="white" stroke="black" points="345,-318.49 345,-337.49 513,-337.49 513,-318.49 345,-318.49"/>
<text text-anchor="middle" x="429" y="-325.49" font-family="Helvetica,sans-Serif" font-size="10.00">bMGR_AT_CMD_sendResponse</text>
</a>
</g>
</g>
<!-- Node7&#45;&gt;Node9 -->
<g id="edge10" class="edge">
<title>Node7&#45;&gt;Node9</title>
<path fill="none" stroke="midnightblue" d="M235.76,-223.49C254.09,-242.76 298.62,-286.5 345,-308.99 349.99,-311.41 355.3,-313.52 360.72,-315.38"/>
<polygon fill="midnightblue" stroke="midnightblue" points="359.99,-318.81 370.58,-318.44 362.06,-312.13 359.99,-318.81"/>
</g>
<!-- Node11 -->
<g id="node11" class="node">
<title>Node11</title>
<g id="a_node11"><a xlink:href="../../d8/d11/mgr__at__cmd__list__user__data_8c.html#ga3cafca118878601afaac95a1b3dc75af" target="_top" xlink:title="This function converts kineis stack status into AT cmd error code.">
<polygon fill="white" stroke="black" points="367.5,-166.49 367.5,-185.49 490.5,-185.49 490.5,-166.49 367.5,-166.49"/>
<text text-anchor="middle" x="429" y="-173.49" font-family="Helvetica,sans-Serif" font-size="10.00">convKnsStatusToAtErr</text>
</a>
</g>
</g>
<!-- Node7&#45;&gt;Node11 -->
<g id="edge14" class="edge">
<title>Node7&#45;&gt;Node11</title>
<path fill="none" stroke="midnightblue" d="M277.46,-204.45C304.82,-199.28 338.82,-192.85 367.58,-187.41"/>
<polygon fill="midnightblue" stroke="midnightblue" points="368.34,-190.83 377.52,-185.53 367.04,-183.95 368.34,-190.83"/>
</g>
<!-- Node12 -->
<g id="node12" class="node">
<title>Node12</title>
<g id="a_node12"><a xlink:href="../../d1/ddb/group___k_n_s___q.html#ga200d86f8adcbe9365bcec0cc085c91c0" target="_top" xlink:title="This function is used to pop next element from a queue.">
<polygon fill="white" stroke="black" points="392.5,-128.49 392.5,-147.49 465.5,-147.49 465.5,-128.49 392.5,-128.49"/>
<text text-anchor="middle" x="429" y="-135.49" font-family="Helvetica,sans-Serif" font-size="10.00">KNS_Q_pop</text>
</a>
</g>
</g>
<!-- Node7&#45;&gt;Node12 -->
<g id="edge15" class="edge">
<title>Node7&#45;&gt;Node12</title>
<path fill="none" stroke="midnightblue" d="M287.23,-204.35C294.83,-201.91 302.28,-198.84 309,-194.99 329.19,-183.43 324.8,-168.52 345,-156.99 356.35,-150.51 369.75,-146.24 382.44,-143.43"/>
<polygon fill="midnightblue" stroke="midnightblue" points="383.27,-146.83 392.41,-141.47 381.92,-139.96 383.27,-146.83"/>
</g>
<!-- Node13 -->
<g id="node13" class="node">
<title>Node13</title>
<g id="a_node13"><a xlink:href="../../d0/d0f/group___m_g_r___a_t___c_m_d.html#gacc929e5b70f2d6fefaa89d8aabf18773" target="_top" xlink:title="Set/clear a GPIO around transmission.">
<polygon fill="white" stroke="black" points="392,-90.49 392,-109.49 466,-109.49 466,-90.49 392,-90.49"/>
<text text-anchor="middle" x="429" y="-97.49" font-family="Helvetica,sans-Serif" font-size="10.00">Set_TX_LED</text>
</a>
</g>
</g>
<!-- Node7&#45;&gt;Node13 -->
<g id="edge16" class="edge">
<title>Node7&#45;&gt;Node13</title>
<path fill="none" stroke="midnightblue" d="M293.08,-204.43C298.8,-201.94 304.22,-198.84 309,-194.99 338.11,-171.54 315.86,-142.4 345,-118.99 355.37,-110.66 368.7,-105.84 381.63,-103.09"/>
<polygon fill="midnightblue" stroke="midnightblue" points="382.6,-106.47 391.85,-101.3 381.39,-99.58 382.6,-106.47"/>
</g>
<!-- Node14 -->
<g id="node14" class="node">
<title>Node14</title>
<g id="a_node14"><a xlink:href="../../db/d4f/group___u_s_e_r___d_a_t_a.html#ga7bf3cf40b0f5041d24a722e26347c83d" target="_top" xlink:title="get first element which contains the expected payload">
<polygon fill="white" stroke="black" points="349.5,-52.49 349.5,-71.49 508.5,-71.49 508.5,-52.49 349.5,-52.49"/>
<text text-anchor="middle" x="429" y="-59.49" font-family="Helvetica,sans-Serif" font-size="10.00">USERDATA_txFifoFindPayload</text>
</a>
</g>
</g>
<!-- Node7&#45;&gt;Node14 -->
<g id="edge17" class="edge">
<title>Node7&#45;&gt;Node14</title>
<path fill="none" stroke="midnightblue" d="M295.25,-204.32C300.25,-201.83 304.92,-198.76 309,-194.99 348.01,-158.92 305.94,-117.01 345,-80.99 346.68,-79.44 348.45,-78.01 350.31,-76.69"/>
<polygon fill="midnightblue" stroke="midnightblue" points="352.12,-79.69 358.93,-71.57 348.54,-73.67 352.12,-79.69"/>
</g>
<!-- Node15 -->
<g id="node15" class="node">
<title>Node15</title>
<g id="a_node15"><a xlink:href="../../db/d4f/group___u_s_e_r___d_a_t_a.html#ga029850e8ca80a3be9b099582f5c7488a" target="_top" xlink:title="flush TX fifo">
<polygon fill="white" stroke="black" points="365.5,-14.49 365.5,-33.49 492.5,-33.49 492.5,-14.49 365.5,-14.49"/>
<text text-anchor="middle" x="429" y="-21.49" font-family="Helvetica,sans-Serif" font-size="10.00">USERDATA_txFifoFlush</text>
</a>
</g>
</g>
<!-- Node7&#45;&gt;Node15 -->
<g id="edge18" class="edge">
<title>Node7&#45;&gt;Node15</title>
<path fill="none" stroke="midnightblue" d="M295.94,-204.44C300.73,-201.91 305.17,-198.8 309,-194.99 358.21,-146.02 295.73,-91.89 345,-42.99 348.28,-39.74 351.99,-37 355.98,-34.69"/>
<polygon fill="midnightblue" stroke="midnightblue" points="357.61,-37.79 365.1,-30.31 354.57,-31.48 357.61,-37.79"/>
</g>
<!-- Node20 -->
<g id="node20" class="node">
<title>Node20</title>
<g id="a_node20"><a xlink:href="../../db/d4f/group___u_s_e_r___d_a_t_a.html#gac0082e264a11102f05874ef9f0609e26" target="_top" xlink:title="get first element of the TX Fifo">
<polygon fill="white" stroke="black" points="360,-280.49 360,-299.49 498,-299.49 498,-280.49 360,-280.49"/>
<text text-anchor="middle" x="429" y="-287.49" font-family="Helvetica,sans-Serif" font-size="10.00">USERDATA_txFifoGetFirst</text>
</a>
</g>
</g>
<!-- Node7&#45;&gt;Node20 -->
<g id="edge25" class="edge">
<title>Node7&#45;&gt;Node20</title>
<path fill="none" stroke="midnightblue" d="M246.71,-223.65C269.88,-234.77 309.65,-253.15 345,-265.99 356.57,-270.19 369.24,-274.16 381.13,-277.62"/>
<polygon fill="midnightblue" stroke="midnightblue" points="380.31,-281.03 390.89,-280.4 382.23,-274.29 380.31,-281.03"/>
</g>
<!-- Node21 -->
<g id="node21" class="node">
<title>Node21</title>
<g id="a_node21"><a xlink:href="../../db/d4f/group___u_s_e_r___d_a_t_a.html#ga4d20835dbc4b21f645ff55eed7d93216" target="_top" xlink:title="Delete an element from the TX fifo.">
<polygon fill="white" stroke="black" points="352,-204.49 352,-223.49 506,-223.49 506,-204.49 352,-204.49"/>
<text text-anchor="middle" x="429" y="-211.49" font-family="Helvetica,sans-Serif" font-size="10.00">USERDATA_txFifoRemoveElt</text>
</a>
</g>
</g>
<!-- Node7&#45;&gt;Node21 -->
<g id="edge26" class="edge">
<title>Node7&#45;&gt;Node21</title>
<path fill="none" stroke="midnightblue" d="M309.04,-213.99C319.74,-213.99 330.72,-213.99 341.49,-213.99"/>
<polygon fill="midnightblue" stroke="midnightblue" points="341.72,-217.49 351.72,-213.99 341.72,-210.49 341.72,-217.49"/>
</g>
<!-- Node8&#45;&gt;Node4 -->
<g id="edge9" class="edge">
<title>Node8&#45;&gt;Node4</title>
<path fill="none" stroke="midnightblue" d="M672.42,-258.56C687.75,-262.78 705.82,-267.92 722,-272.99 744.77,-280.12 770.08,-288.86 790.03,-295.95"/>
<polygon fill="midnightblue" stroke="midnightblue" points="789.05,-299.31 799.64,-299.38 791.4,-292.72 789.05,-299.31"/>
</g>
<!-- Node9&#45;&gt;Node4 -->
<g id="edge11" class="edge">
<title>Node9&#45;&gt;Node4</title>
<path fill="none" stroke="midnightblue" d="M473.28,-318.48C495.74,-314.02 523.71,-309.2 549,-306.99 625.6,-300.28 645.11,-306.25 722,-306.99 730.31,-307.07 738.99,-307.18 747.64,-307.32"/>
<polygon fill="midnightblue" stroke="midnightblue" points="747.7,-310.82 757.75,-307.49 747.81,-303.82 747.7,-310.82"/>
</g>
<!-- Node10 -->
<g id="node10" class="node">
<title>Node10</title>
<g id="a_node10"><a xlink:href="../../d8/d62/group___m_c_u___a_p_p___w_r_a_p_p_e_r_s.html#gaf6858a5591eaf9e21e59a15188ff6f13" target="_top" xlink:title="Write content of a binary data buffer as AT cmd response.">
<polygon fill="white" stroke="black" points="566.5,-315.99 566.5,-345.99 704.5,-345.99 704.5,-315.99 566.5,-315.99"/>
<text text-anchor="start" x="574.5" y="-333.99" font-family="Helvetica,sans-Serif" font-size="10.00">MCU_AT_CONSOLE_send</text>
<text text-anchor="middle" x="635.5" y="-322.99" font-family="Helvetica,sans-Serif" font-size="10.00">_dataBuf</text>
</a>
</g>
</g>
<!-- Node9&#45;&gt;Node10 -->
<g id="edge12" class="edge">
<title>Node9&#45;&gt;Node10</title>
<path fill="none" stroke="midnightblue" d="M513.18,-329.21C527.42,-329.42 542.16,-329.63 556.27,-329.84"/>
<polygon fill="midnightblue" stroke="midnightblue" points="556.35,-333.34 566.4,-329.99 556.46,-326.34 556.35,-333.34"/>
</g>
<!-- Node10&#45;&gt;Node4 -->
<g id="edge13" class="edge">
<title>Node10&#45;&gt;Node4</title>
<path fill="none" stroke="midnightblue" d="M704.65,-323.08C718.56,-321.46 733.31,-319.75 747.56,-318.1"/>
<polygon fill="midnightblue" stroke="midnightblue" points="748.29,-321.53 757.82,-316.9 747.49,-314.58 748.29,-321.53"/>
</g>
<!-- Node16 -->
<g id="node16" class="node">
<title>Node16</title>
<g id="a_node16"><a xlink:href="../../d9/d2f/group___k_i_n_e_i_s___s_w___c_o_n_f.html#ga858c122b744e5d185b5abac307aae807" target="_top" xlink:title="Enter critical section.">
<polygon fill="white" stroke="black" points="784,-14.49 784,-33.49 870,-33.49 870,-14.49 784,-14.49"/>
<text text-anchor="middle" x="827" y="-21.49" font-family="Helvetica,sans-Serif" font-size="10.00">KNS_CS_enter</text>
</a>
</g>
</g>
<!-- Node15&#45;&gt;Node16 -->
<g id="edge19" class="edge">
<title>Node15&#45;&gt;Node16</title>
<path fill="none" stroke="midnightblue" d="M478.43,-14.48C499.94,-10.71 525.64,-6.84 549,-4.99 625.65,1.09 645.42,1.95 722,-4.99 739.03,-6.53 757.44,-9.47 773.97,-12.58"/>
<polygon fill="midnightblue" stroke="midnightblue" points="773.5,-16.05 783.99,-14.53 774.84,-9.18 773.5,-16.05"/>
</g>
<!-- Node17 -->
<g id="node17" class="node">
<title>Node17</title>
<g id="a_node17"><a xlink:href="../../d9/d2f/group___k_i_n_e_i_s___s_w___c_o_n_f.html#ga58b477bfcd987dcd7b733b98ab692fdc" target="_top" xlink:title="Exit critical section.">
<polygon fill="white" stroke="black" points="787.5,-71.49 787.5,-90.49 866.5,-90.49 866.5,-71.49 787.5,-71.49"/>
<text text-anchor="middle" x="827" y="-78.49" font-family="Helvetica,sans-Serif" font-size="10.00">KNS_CS_exit</text>
</a>
</g>
</g>
<!-- Node15&#45;&gt;Node17 -->
<g id="edge20" class="edge">
<title>Node15&#45;&gt;Node17</title>
<path fill="none" stroke="midnightblue" d="M488.07,-33.52C507.43,-36.63 529.13,-40.04 549,-42.99 628.84,-54.84 721.83,-67.33 777.2,-74.62"/>
<polygon fill="midnightblue" stroke="midnightblue" points="777.05,-78.14 787.42,-75.97 777.97,-71.19 777.05,-78.14"/>
</g>
<!-- Node18 -->
<g id="node18" class="node">
<title>Node18</title>
<g id="a_node18"><a xlink:href="../../db/d4f/group___u_s_e_r___d_a_t_a.html#ga7c272898faf1448391a80b578d9acf45" target="_top" xlink:title="count number of elements in TX fifo">
<polygon fill="white" stroke="black" points="562.5,-14.49 562.5,-33.49 708.5,-33.49 708.5,-14.49 562.5,-14.49"/>
<text text-anchor="middle" x="635.5" y="-21.49" font-family="Helvetica,sans-Serif" font-size="10.00">USERDATA_txFifoGetCount</text>
</a>
</g>
</g>
<!-- Node15&#45;&gt;Node18 -->
<g id="edge21" class="edge">
<title>Node15&#45;&gt;Node18</title>
<path fill="none" stroke="midnightblue" d="M492.75,-23.99C511.44,-23.99 532.22,-23.99 551.98,-23.99"/>
<polygon fill="midnightblue" stroke="midnightblue" points="552.2,-27.49 562.2,-23.99 552.2,-20.49 552.2,-27.49"/>
</g>
<!-- Node19 -->
<g id="node19" class="node">
<title>Node19</title>
<g id="a_node19"><a xlink:href="../../db/d4f/group___u_s_e_r___d_a_t_a.html#gafba02bd8b2e6ebad0b2f38b72e40ec21" target="_top" xlink:title="Log content of the TX fifo.">
<polygon fill="white" stroke="black" points="576.5,-90.49 576.5,-109.49 694.5,-109.49 694.5,-90.49 576.5,-90.49"/>
<text text-anchor="middle" x="635.5" y="-97.49" font-family="Helvetica,sans-Serif" font-size="10.00">USERDATA_txFifoLog</text>
</a>
</g>
</g>
<!-- Node15&#45;&gt;Node19 -->
<g id="edge22" class="edge">
<title>Node15&#45;&gt;Node19</title>
<path fill="none" stroke="midnightblue" d="M489.4,-33.61C497.58,-36.07 505.67,-39.14 513,-42.99 532.22,-53.08 530.03,-65.43 549,-75.99 557.3,-80.61 566.55,-84.39 575.83,-87.48"/>
<polygon fill="midnightblue" stroke="midnightblue" points="574.87,-90.84 585.45,-90.45 576.93,-84.16 574.87,-90.84"/>
</g>
<!-- Node19&#45;&gt;Node16 -->
<g id="edge23" class="edge">
<title>Node19&#45;&gt;Node16</title>
<path fill="none" stroke="midnightblue" d="M660.5,-90.36C693.96,-76.94 754.77,-52.55 792.63,-37.37"/>
<polygon fill="midnightblue" stroke="midnightblue" points="794.22,-40.51 802.19,-33.54 791.61,-34.01 794.22,-40.51"/>
</g>
<!-- Node19&#45;&gt;Node17 -->
<g id="edge24" class="edge">
<title>Node19&#45;&gt;Node17</title>
<path fill="none" stroke="midnightblue" d="M694.64,-94.16C721.13,-91.5 752.13,-88.4 777.36,-85.87"/>
<polygon fill="midnightblue" stroke="midnightblue" points="777.83,-89.34 787.43,-84.86 777.13,-82.37 777.83,-89.34"/>
</g>
<!-- Node21&#45;&gt;Node19 -->
<g id="edge28" class="edge">
<title>Node21&#45;&gt;Node19</title>
<path fill="none" stroke="midnightblue" d="M486.94,-204.46C495.88,-201.97 504.86,-198.86 513,-194.99 554.99,-175 595.92,-138.41 617.91,-116.94"/>
<polygon fill="midnightblue" stroke="midnightblue" points="620.5,-119.31 625.12,-109.78 615.56,-114.34 620.5,-119.31"/>
</g>
<!-- Node22 -->
<g id="node22" class="node">
<title>Node22</title>
<g id="a_node22"><a xlink:href="../../db/d4f/group___u_s_e_r___d_a_t_a.html#ga532418c0e3adad36946ba9d346a163f4" target="_top" xlink:title="check the element is pointing on a valid address, i.e. one from sUserDataTxFifoBuf buffer">
<polygon fill="white" stroke="black" points="568.5,-201.49 568.5,-220.49 702.5,-220.49 702.5,-201.49 568.5,-201.49"/>
<text text-anchor="middle" x="635.5" y="-208.49" font-family="Helvetica,sans-Serif" font-size="10.00">USERDATA_txFifoIsInBuf</text>
</a>
</g>
</g>
<!-- Node21&#45;&gt;Node22 -->
<g id="edge27" class="edge">
<title>Node21&#45;&gt;Node22</title>
<path fill="none" stroke="midnightblue" d="M506.15,-212.87C523.08,-212.62 541.03,-212.36 557.97,-212.11"/>
<polygon fill="midnightblue" stroke="midnightblue" points="558.42,-215.61 568.37,-211.96 558.32,-208.61 558.42,-215.61"/>
</g>
</g>
</svg>
        <g id="navigator" transform="translate(0 0)" fill="#404254">
                <rect fill="#f2f5e9" fill-opacity="0.5" stroke="#606060" stroke-width=".5" x="0" y="0" width="60" height="60"/>
                <use id="zoomplus" xlink:href="#zoomPlus" x="17" y="9" onmousedown="handleZoom(evt,'in')"/>
                <use id="zoomminus" xlink:href="#zoomMin" x="42" y="9" onmousedown="handleZoom(evt,'out')"/>
                <use id="reset" xlink:href="#resetDef" x="30" y="36" onmousedown="handleReset()"/>
                <g id="arrowUp" xlink:href="#dirArrow" transform="translate(30 24)" onmousedown="handlePan(0,-1)">
                  <use xlink:href="#rim" fill="#404040">
                        <set attributeName="fill" to="#808080" begin="arrowUp.mouseover" end="arrowUp.mouseout"/>
                  </use>
                  <path fill="none" stroke="white" stroke-width="1.5" d="M0,-3.0v7 M-2.5,-0.5L0,-3.0L2.5,-0.5"/>
                </g>
                <g id="arrowRight" xlink:href="#dirArrow" transform="rotate(90) translate(36 -43)" onmousedown="handlePan(1,0)">
                  <use xlink:href="#rim" fill="#404040">
                        <set attributeName="fill" to="#808080" begin="arrowRight.mouseover" end="arrowRight.mouseout"/>
                  </use>
                  <path fill="none" stroke="white" stroke-width="1.5" d="M0,-3.0v7 M-2.5,-0.5L0,-3.0L2.5,-0.5"/>
                </g>
                <g id="arrowDown" xlink:href="#dirArrow" transform="rotate(180) translate(-30 -48)" onmousedown="handlePan(0,1)">
                  <use xlink:href="#rim" fill="#404040">
                        <set attributeName="fill" to="#808080" begin="arrowDown.mouseover" end="arrowDown.mouseout"/>
                  </use>
                  <path fill="none" stroke="white" stroke-width="1.5" d="M0,-3.0v7 M-2.5,-0.5L0,-3.0L2.5,-0.5"/>
                </g>
                <g id="arrowLeft" xlink:href="#dirArrow" transform="rotate(270) translate(-36 17)" onmousedown="handlePan(-1,0)">
                  <use xlink:href="#rim" fill="#404040">
                        <set attributeName="fill" to="#808080" begin="arrowLeft.mouseover" end="arrowLeft.mouseout"/>
                  </use>
                  <path fill="none" stroke="white" stroke-width="1.5" d="M0,-3.0v7 M-2.5,-0.5L0,-3.0L2.5,-0.5"/>
                </g>
        </g>
        <svg viewBox="0 0 15 15" width="100%" height="30px" preserveAspectRatio="xMaxYMin meet">
         <g id="arrow_out" transform="scale(0.3 0.3)">
          <a xlink:href="group___k_n_s___a_p_p_ga06543de003a98e82570c572ce5e1240c_cgraph_org.svg" target="_base">
           <rect id="button" ry="5" rx="5" y="6" x="6" height="38" width="38"
                fill="#f2f5e9" fill-opacity="0.5" stroke="#606060" stroke-width="1.0"/>
           <path id="arrow"
             d="M 11.500037,31.436501 C 11.940474,20.09759 22.043105,11.32322 32.158766,21.979434 L 37.068811,17.246167 C 37.068811,17.246167 37.088388,32 37.088388,32 L 22.160133,31.978069 C 22.160133,31.978069 26.997745,27.140456 26.997745,27.140456 C 18.528582,18.264221 13.291696,25.230495 11.500037,31.436501 z"
             style="fill:#404040;"/>
          </a>
         </g>
        </svg>
</svg>
