<?xml version="1.0" encoding="UTF-8" standalone="no"?>
<!DOCTYPE svg PUBLIC "-//W3C//DTD SVG 1.1//EN"
 "http://www.w3.org/Graphics/SVG/1.1/DTD/svg11.dtd">
<!-- Generated by graphviz version 2.43.0 (0)
 -->
<!-- Title: KNS_MAC_srvcEvt_t Pages: 1 -->
<svg width="374pt" height="142pt"
 viewBox="0.00 0.00 374.00 142.00" xmlns="http://www.w3.org/2000/svg" xmlns:xlink="http://www.w3.org/1999/xlink">
<g id="graph0" class="graph" transform="scale(1 1) rotate(0) translate(4 138)">
<title>KNS_MAC_srvcEvt_t</title>
<polygon fill="white" stroke="transparent" points="-4,4 -4,-138 370,-138 370,4 -4,4"/>
<!-- Node1 -->
<g id="node1" class="node">
<title>Node1</title>
<g id="a_node1"><a xlink:title="Generic structure/union describing events coming from SERVICE layer.">
<polygon fill="#bfbfbf" stroke="black" points="251,-57.5 251,-76.5 366,-76.5 366,-57.5 251,-57.5"/>
<text text-anchor="middle" x="308.5" y="-64.5" font-family="Helvetica,sans-Serif" font-size="10.00">KNS_MAC_srvcEvt_t</text>
</a>
</g>
</g>
<!-- Node2 -->
<g id="node2" class="node">
<title>Node2</title>
<g id="a_node2"><a xlink:href="../../d5/d52/struct_k_n_s___m_a_c___s_a_t_d_e_t__ctxt__t.html" target="_top" xlink:title="SATellite DETected event context structure.">
<polygon fill="white" stroke="black" points="7.5,-114.5 7.5,-133.5 149.5,-133.5 149.5,-114.5 7.5,-114.5"/>
<text text-anchor="middle" x="78.5" y="-121.5" font-family="Helvetica,sans-Serif" font-size="10.00">KNS_MAC_SATDET_ctxt_t</text>
</a>
</g>
</g>
<!-- Node2&#45;&gt;Node1 -->
<g id="edge1" class="edge">
<title>Node2&#45;&gt;Node1</title>
<path fill="none" stroke="#9a32cd" stroke-dasharray="5,2" d="M142.8,-112.55C170.65,-107.07 203.63,-99.96 233,-92 249.33,-87.58 267.32,-81.57 281.53,-76.56"/>
<polygon fill="#9a32cd" stroke="#9a32cd" points="141.94,-109.15 132.79,-114.5 143.28,-116.03 141.94,-109.15"/>
<text text-anchor="middle" x="204" y="-108" font-family="Helvetica,sans-Serif" font-size="10.00"> satdet_ctxt</text>
</g>
<!-- Node3 -->
<g id="node3" class="node">
<title>Node3</title>
<g id="a_node3"><a xlink:href="../../d6/df0/struct_k_n_s___m_a_c___r_x__frm__ctxt__t.html" target="_top" xlink:title="RX&#45;frame&#45;received event context structure.">
<polygon fill="white" stroke="black" points="9,-76.5 9,-95.5 148,-95.5 148,-76.5 9,-76.5"/>
<text text-anchor="middle" x="78.5" y="-83.5" font-family="Helvetica,sans-Serif" font-size="10.00">KNS_MAC_RX_frm_ctxt_t</text>
</a>
</g>
</g>
<!-- Node3&#45;&gt;Node1 -->
<g id="edge2" class="edge">
<title>Node3&#45;&gt;Node1</title>
<path fill="none" stroke="#9a32cd" stroke-dasharray="5,2" d="M158.37,-79.43C188.79,-76.89 222.9,-74.05 250.81,-71.72"/>
<polygon fill="#9a32cd" stroke="#9a32cd" points="157.89,-75.96 148.22,-80.27 158.47,-82.93 157.89,-75.96"/>
<text text-anchor="middle" x="204" y="-80" font-family="Helvetica,sans-Serif" font-size="10.00"> rx_ctxt</text>
</g>
<!-- Node4 -->
<g id="node4" class="node">
<title>Node4</title>
<g id="a_node4"><a xlink:href="../../d6/da7/struct_k_n_s___m_a_c___t_x__cplt__ctxt__t.html" target="_top" xlink:title="TX&#45;done/TX&#45;timeout event context structure.">
<polygon fill="white" stroke="black" points="9,-38.5 9,-57.5 148,-57.5 148,-38.5 9,-38.5"/>
<text text-anchor="middle" x="78.5" y="-45.5" font-family="Helvetica,sans-Serif" font-size="10.00">KNS_MAC_TX_cplt_ctxt_t</text>
</a>
</g>
</g>
<!-- Node4&#45;&gt;Node1 -->
<g id="edge3" class="edge">
<title>Node4&#45;&gt;Node1</title>
<path fill="none" stroke="#9a32cd" stroke-dasharray="5,2" d="M158.44,-52.31C182.41,-53.84 208.8,-55.75 233,-58 238.84,-58.54 244.92,-59.17 250.99,-59.84"/>
<polygon fill="#9a32cd" stroke="#9a32cd" points="158.53,-48.8 148.33,-51.67 158.1,-55.79 158.53,-48.8"/>
<text text-anchor="middle" x="204" y="-61" font-family="Helvetica,sans-Serif" font-size="10.00"> tx_ctxt</text>
</g>
<!-- Node5 -->
<g id="node5" class="node">
<title>Node5</title>
<g id="a_node5"><a xlink:href="../../de/dd2/struct_k_n_s___m_a_c___r_x__dl__msg__ctxt__t.html" target="_top" xlink:title=" ">
<polygon fill="white" stroke="black" points="0,-0.5 0,-19.5 157,-19.5 157,-0.5 0,-0.5"/>
<text text-anchor="middle" x="78.5" y="-7.5" font-family="Helvetica,sans-Serif" font-size="10.00">KNS_MAC_RX_dl_msg_ctxt_t</text>
</a>
</g>
</g>
<!-- Node5&#45;&gt;Node1 -->
<g id="edge4" class="edge">
<title>Node5&#45;&gt;Node1</title>
<path fill="none" stroke="#9a32cd" stroke-dasharray="5,2" d="M157.33,-21.23C181.78,-25.55 208.72,-31.13 233,-38 251.3,-43.18 271.35,-51.12 286.03,-57.38"/>
<polygon fill="#9a32cd" stroke="#9a32cd" points="157.83,-17.77 147.39,-19.52 156.65,-24.67 157.83,-17.77"/>
<text text-anchor="middle" x="204" y="-41" font-family="Helvetica,sans-Serif" font-size="10.00"> msg_ctxt</text>
</g>
</g>
</svg>
