<?xml version="1.0" encoding="UTF-8" standalone="no"?>
<!DOCTYPE svg PUBLIC "-//W3C//DTD SVG 1.1//EN"
 "http://www.w3.org/Graphics/SVG/1.1/DTD/svg11.dtd">
<!-- Generated by graphviz version 2.43.0 (0)
 -->
<!-- Title: Kineis/App/Managers/MGR_AT_CMD/Inc/mgr_at_cmd_list_previpass.h Pages: 1 -->
<svg width="296pt" height="128pt"
 viewBox="0.00 0.00 295.50 128.00" xmlns="http://www.w3.org/2000/svg" xmlns:xlink="http://www.w3.org/1999/xlink">
<g id="graph0" class="graph" transform="scale(1 1) rotate(0) translate(4 124)">
<title>Kineis/App/Managers/MGR_AT_CMD/Inc/mgr_at_cmd_list_previpass.h</title>
<polygon fill="white" stroke="transparent" points="-4,4 -4,-124 291.5,-124 291.5,4 -4,4"/>
<!-- Node1 -->
<g id="node1" class="node">
<title>Node1</title>
<g id="a_node1"><a xlink:title="subset of AT commands concerning satellite PASS predictions, usefull for Medium Acces">
<polygon fill="#bfbfbf" stroke="black" points="71,-78.5 71,-119.5 211,-119.5 211,-78.5 71,-78.5"/>
<text text-anchor="start" x="79" y="-107.5" font-family="Helvetica,sans-Serif" font-size="10.00">Kineis/App/Managers</text>
<text text-anchor="start" x="79" y="-96.5" font-family="Helvetica,sans-Serif" font-size="10.00">/MGR_AT_CMD/Inc/mgr</text>
<text text-anchor="middle" x="141" y="-85.5" font-family="Helvetica,sans-Serif" font-size="10.00">_at_cmd_list_previpass.h</text>
</a>
</g>
</g>
<!-- Node2 -->
<g id="node2" class="node">
<title>Node2</title>
<g id="a_node2"><a xlink:href="../../da/df9/mgr__at__cmd__list_8c.html" target="_top" xlink:title="AT commands list main file.">
<polygon fill="white" stroke="black" points="0,-0.5 0,-41.5 130,-41.5 130,-0.5 0,-0.5"/>
<text text-anchor="start" x="8" y="-29.5" font-family="Helvetica,sans-Serif" font-size="10.00">Kineis/App/Managers</text>
<text text-anchor="start" x="8" y="-18.5" font-family="Helvetica,sans-Serif" font-size="10.00">/MGR_AT_CMD/Src/mgr</text>
<text text-anchor="middle" x="65" y="-7.5" font-family="Helvetica,sans-Serif" font-size="10.00">_at_cmd_list.c</text>
</a>
</g>
</g>
<!-- Node1&#45;&gt;Node2 -->
<g id="edge1" class="edge">
<title>Node1&#45;&gt;Node2</title>
<path fill="none" stroke="midnightblue" d="M114.2,-71.2C104.42,-61.42 93.54,-50.54 84.51,-41.51"/>
<polygon fill="midnightblue" stroke="midnightblue" points="111.88,-73.83 121.43,-78.43 116.83,-68.88 111.88,-73.83"/>
</g>
<!-- Node3 -->
<g id="node3" class="node">
<title>Node3</title>
<g id="a_node3"><a xlink:href="../../d0/d4a/mgr__at__cmd__list__previpass_8c.html" target="_top" xlink:title="subset of AT commands concerning satellite PASS predictions, usefull for Medium Acces">
<polygon fill="white" stroke="black" points="148.5,-0.5 148.5,-41.5 287.5,-41.5 287.5,-0.5 148.5,-0.5"/>
<text text-anchor="start" x="156.5" y="-29.5" font-family="Helvetica,sans-Serif" font-size="10.00">Kineis/App/Managers</text>
<text text-anchor="start" x="156.5" y="-18.5" font-family="Helvetica,sans-Serif" font-size="10.00">/MGR_AT_CMD/Src/mgr</text>
<text text-anchor="middle" x="218" y="-7.5" font-family="Helvetica,sans-Serif" font-size="10.00">_at_cmd_list_previpass.c</text>
</a>
</g>
</g>
<!-- Node1&#45;&gt;Node3 -->
<g id="edge2" class="edge">
<title>Node1&#45;&gt;Node3</title>
<path fill="none" stroke="midnightblue" d="M168.15,-71.2C178.07,-61.42 189.09,-50.54 198.24,-41.51"/>
<polygon fill="midnightblue" stroke="midnightblue" points="165.49,-68.91 160.83,-78.43 170.41,-73.89 165.49,-68.91"/>
</g>
</g>
</svg>
