<?xml version="1.0" encoding="UTF-8" standalone="no"?>
<!DOCTYPE svg PUBLIC "-//W3C//DTD SVG 1.1//EN"
 "http://www.w3.org/Graphics/SVG/1.1/DTD/svg11.dtd">
<!-- Generated by graphviz version 2.43.0 (0)
 -->
<!-- Title: Kineis/Lib/kns_mac_evt.h Pages: 1 -->
<svg width="202pt" height="151pt"
 viewBox="0.00 0.00 201.50 151.00" xmlns="http://www.w3.org/2000/svg" xmlns:xlink="http://www.w3.org/1999/xlink">
<g id="graph0" class="graph" transform="scale(1 1) rotate(0) translate(4 147)">
<title>Kineis/Lib/kns_mac_evt.h</title>
<polygon fill="white" stroke="transparent" points="-4,4 -4,-147 197.5,-147 197.5,4 -4,4"/>
<!-- Node1 -->
<g id="node1" class="node">
<title>Node1</title>
<g id="a_node1"><a xlink:title=" ">
<polygon fill="#bfbfbf" stroke="black" points="35,-112.5 35,-142.5 145,-142.5 145,-112.5 35,-112.5"/>
<text text-anchor="start" x="43" y="-130.5" font-family="Helvetica,sans-Serif" font-size="10.00">Kineis/Lib/kns_mac</text>
<text text-anchor="middle" x="90" y="-119.5" font-family="Helvetica,sans-Serif" font-size="10.00">_evt.h</text>
</a>
</g>
</g>
<!-- Node2 -->
<g id="node2" class="node">
<title>Node2</title>
<g id="a_node2"><a xlink:title=" ">
<polygon fill="white" stroke="#bfbfbf" points="0,-56.5 0,-75.5 62,-75.5 62,-56.5 0,-56.5"/>
<text text-anchor="middle" x="31" y="-63.5" font-family="Helvetica,sans-Serif" font-size="10.00">stdbool.h</text>
</a>
</g>
</g>
<!-- Node1&#45;&gt;Node2 -->
<g id="edge1" class="edge">
<title>Node1&#45;&gt;Node2</title>
<path fill="none" stroke="midnightblue" d="M76.02,-112.4C67.27,-103.58 55.97,-92.18 46.88,-83.02"/>
<polygon fill="midnightblue" stroke="midnightblue" points="49.11,-80.29 39.59,-75.66 44.14,-85.22 49.11,-80.29"/>
</g>
<!-- Node3 -->
<g id="node3" class="node">
<title>Node3</title>
<g id="a_node3"><a xlink:title=" ">
<polygon fill="white" stroke="#bfbfbf" points="96.5,-0.5 96.5,-19.5 149.5,-19.5 149.5,-0.5 96.5,-0.5"/>
<text text-anchor="middle" x="123" y="-7.5" font-family="Helvetica,sans-Serif" font-size="10.00">stdint.h</text>
</a>
</g>
</g>
<!-- Node1&#45;&gt;Node3 -->
<g id="edge2" class="edge">
<title>Node1&#45;&gt;Node3</title>
<path fill="none" stroke="midnightblue" d="M93.96,-112.45C97.99,-98.22 104.4,-75.57 110,-56 112.52,-47.19 115.34,-37.43 117.71,-29.25"/>
<polygon fill="midnightblue" stroke="midnightblue" points="121.07,-30.2 120.5,-19.62 114.35,-28.25 121.07,-30.2"/>
</g>
<!-- Node4 -->
<g id="node4" class="node">
<title>Node4</title>
<g id="a_node4"><a xlink:href="../../d8/d85/kns__types_8h.html" target="_top" xlink:title="Kineis types definition.">
<polygon fill="white" stroke="black" points="118.5,-56.5 118.5,-75.5 193.5,-75.5 193.5,-56.5 118.5,-56.5"/>
<text text-anchor="middle" x="156" y="-63.5" font-family="Helvetica,sans-Serif" font-size="10.00">kns_types.h</text>
</a>
</g>
</g>
<!-- Node1&#45;&gt;Node4 -->
<g id="edge3" class="edge">
<title>Node1&#45;&gt;Node4</title>
<path fill="none" stroke="midnightblue" d="M105.64,-112.4C115.63,-103.4 128.58,-91.72 138.85,-82.47"/>
<polygon fill="midnightblue" stroke="midnightblue" points="141.31,-84.95 146.4,-75.66 136.63,-79.75 141.31,-84.95"/>
</g>
<!-- Node4&#45;&gt;Node3 -->
<g id="edge4" class="edge">
<title>Node4&#45;&gt;Node3</title>
<path fill="none" stroke="midnightblue" d="M150.55,-56.08C145.99,-48.61 139.33,-37.72 133.71,-28.52"/>
<polygon fill="midnightblue" stroke="midnightblue" points="136.55,-26.46 128.35,-19.75 130.58,-30.11 136.55,-26.46"/>
</g>
</g>
</svg>
