<?xml version="1.0" encoding="UTF-8" standalone="no"?>
<!DOCTYPE svg PUBLIC "-//W3C//DTD SVG 1.1//EN"
 "http://www.w3.org/Graphics/SVG/1.1/DTD/svg11.dtd">
<!-- Generated by graphviz version 2.43.0 (0)
 -->
<!-- Title: KNS_RF_abortRf Pages: 1 -->
<svg width="507pt" height="66pt"
 viewBox="0.00 0.00 507.00 66.00" xmlns="http://www.w3.org/2000/svg" xmlns:xlink="http://www.w3.org/1999/xlink">
<g id="graph0" class="graph" transform="scale(1 1) rotate(0) translate(4 62)">
<title>KNS_RF_abortRf</title>
<polygon fill="white" stroke="transparent" points="-4,4 -4,-62 503,-62 503,4 -4,4"/>
<!-- Node1 -->
<g id="node1" class="node">
<title>Node1</title>
<g id="a_node1"><a xlink:title="This function starts aborting the current RF processing (TX, SAT_detect, RX, ...)">
<polygon fill="#bfbfbf" stroke="black" points="403,-19.5 403,-38.5 499,-38.5 499,-19.5 403,-19.5"/>
<text text-anchor="middle" x="451" y="-26.5" font-family="Helvetica,sans-Serif" font-size="10.00">KNS_RF_abortRf</text>
</a>
</g>
</g>
<!-- Node2 -->
<g id="node2" class="node">
<title>Node2</title>
<g id="a_node2"><a xlink:href="../../d0/d0f/group___m_g_r___a_t___c_m_d.html#gafccf5cd6468be2c39af4c4c599d48ef8" target="_top" xlink:title="Process AT command &quot;AT+CW&quot;.">
<polygon fill="white" stroke="black" points="0,-38.5 0,-57.5 140,-57.5 140,-38.5 0,-38.5"/>
<text text-anchor="middle" x="70" y="-45.5" font-family="Helvetica,sans-Serif" font-size="10.00">bMGR_AT_CMD_CW_cmd</text>
</a>
</g>
</g>
<!-- Node1&#45;&gt;Node2 -->
<g id="edge1" class="edge">
<title>Node1&#45;&gt;Node2</title>
<path fill="none" stroke="midnightblue" d="M392.71,-31.87C325.03,-35.27 212.5,-40.91 140.07,-44.54"/>
<polygon fill="midnightblue" stroke="midnightblue" points="392.95,-35.36 402.77,-31.37 392.6,-28.37 392.95,-35.36"/>
</g>
<!-- Node3 -->
<g id="node3" class="node">
<title>Node3</title>
<g id="a_node3"><a xlink:href="../../d0/d0f/group___m_g_r___a_t___c_m_d.html#ga60486b23c6850d01bbb1e29875cd24f4" target="_top" xlink:title="Send random TX data as per RF configuration.">
<polygon fill="white" stroke="black" points="176,-0.5 176,-19.5 367,-19.5 367,-0.5 176,-0.5"/>
<text text-anchor="middle" x="271.5" y="-7.5" font-family="Helvetica,sans-Serif" font-size="10.00">MGR_AT_CMD_sendRandomTxData</text>
</a>
</g>
</g>
<!-- Node1&#45;&gt;Node3 -->
<g id="edge2" class="edge">
<title>Node1&#45;&gt;Node3</title>
<path fill="none" stroke="midnightblue" d="M392.7,-22.87C382.67,-21.79 372.02,-20.65 361.37,-19.51"/>
<polygon fill="midnightblue" stroke="midnightblue" points="392.58,-26.37 402.9,-23.96 393.33,-19.41 392.58,-26.37"/>
</g>
<!-- Node3&#45;&gt;Node2 -->
<g id="edge3" class="edge">
<title>Node3&#45;&gt;Node2</title>
<path fill="none" stroke="midnightblue" d="M210.55,-21.42C182.01,-26.86 148.26,-33.28 121.11,-38.46"/>
<polygon fill="midnightblue" stroke="midnightblue" points="211.25,-24.85 220.42,-19.54 209.94,-17.97 211.25,-24.85"/>
</g>
<!-- Node4 -->
<g id="node4" class="node">
<title>Node4</title>
<g id="a_node4"><a xlink:href="../../d0/d0f/group___m_g_r___a_t___c_m_d.html#gafccb1dfaf28ab371bebd814a3abaa57c" target="_top" xlink:title="Callback function notifying end of TX processing in case of modulated wave.">
<polygon fill="white" stroke="black" points="24,-0.5 24,-19.5 116,-19.5 116,-0.5 24,-0.5"/>
<text text-anchor="middle" x="70" y="-7.5" font-family="Helvetica,sans-Serif" font-size="10.00">eoAtMW_isr_cb</text>
</a>
</g>
</g>
<!-- Node3&#45;&gt;Node4 -->
<g id="edge4" class="edge">
<title>Node3&#45;&gt;Node4</title>
<path fill="none" stroke="midnightblue" d="M165.47,-3.26C148.07,-3.31 130.89,-3.64 116.05,-4.25"/>
<polygon fill="midnightblue" stroke="midnightblue" points="165.72,-6.76 175.72,-3.26 165.72,0.24 165.72,-6.76"/>
</g>
<!-- Node4&#45;&gt;Node3 -->
<g id="edge5" class="edge">
<title>Node4&#45;&gt;Node3</title>
<path fill="none" stroke="midnightblue" d="M126.37,-16.12C141.71,-16.58 158.81,-16.79 175.72,-16.74"/>
<polygon fill="midnightblue" stroke="midnightblue" points="126.17,-12.61 116.05,-15.75 125.92,-19.6 126.17,-12.61"/>
</g>
</g>
</svg>
