<?xml version="1.0" encoding="UTF-8" standalone="no"?>
<!DOCTYPE svg PUBLIC "-//W3C//DTD SVG 1.1//EN"
 "http://www.w3.org/Graphics/SVG/1.1/DTD/svg11.dtd">
<!-- Generated by graphviz version 2.43.0 (0)
 -->
<!-- Title: KNS_RFTX_powerOff Pages: 1 -->
<svg width="657pt" height="58pt"
 viewBox="0.00 0.00 657.00 58.09" xmlns="http://www.w3.org/2000/svg" xmlns:xlink="http://www.w3.org/1999/xlink">
<g id="graph0" class="graph" transform="scale(1 1) rotate(0) translate(4 54.09)">
<title>KNS_RFTX_powerOff</title>
<polygon fill="white" stroke="transparent" points="-4,4 -4,-54.09 653,-54.09 653,4 -4,4"/>
<!-- Node1 -->
<g id="node1" class="node">
<title>Node1</title>
<g id="a_node1"><a xlink:title="This function powers off the LDO for the KNS_RF TX part. cb is called when done.">
<polygon fill="#bfbfbf" stroke="black" points="531,-11.59 531,-30.59 649,-30.59 649,-11.59 531,-11.59"/>
<text text-anchor="middle" x="590" y="-18.59" font-family="Helvetica,sans-Serif" font-size="10.00">KNS_RFTX_powerOff</text>
</a>
</g>
</g>
<!-- Node2 -->
<g id="node2" class="node">
<title>Node2</title>
<g id="a_node2"><a xlink:href="../../d0/d0f/group___m_g_r___a_t___c_m_d.html#gafccf5cd6468be2c39af4c4c599d48ef8" target="_top" xlink:title="Process AT command &quot;AT+CW&quot;.">
<polygon fill="white" stroke="black" points="0,-30.59 0,-49.59 140,-49.59 140,-30.59 0,-30.59"/>
<text text-anchor="middle" x="70" y="-37.59" font-family="Helvetica,sans-Serif" font-size="10.00">bMGR_AT_CMD_CW_cmd</text>
</a>
</g>
</g>
<!-- Node1&#45;&gt;Node2 -->
<g id="edge1" class="edge">
<title>Node1&#45;&gt;Node2</title>
<path fill="none" stroke="midnightblue" d="M540.98,-32.72C526.31,-35.75 510.08,-38.58 495,-40.09 370.48,-52.55 224.36,-48.46 140.24,-44.31"/>
<polygon fill="midnightblue" stroke="midnightblue" points="541.8,-36.12 550.85,-30.6 540.33,-29.27 541.8,-36.12"/>
</g>
<!-- Node3 -->
<g id="node3" class="node">
<title>Node3</title>
<g id="a_node3"><a xlink:href="../../d0/d0f/group___m_g_r___a_t___c_m_d.html#gafccb1dfaf28ab371bebd814a3abaa57c" target="_top" xlink:title="Callback function notifying end of TX processing in case of modulated wave.">
<polygon fill="white" stroke="black" points="403,-11.59 403,-30.59 495,-30.59 495,-11.59 403,-11.59"/>
<text text-anchor="middle" x="449" y="-18.59" font-family="Helvetica,sans-Serif" font-size="10.00">eoAtMW_isr_cb</text>
</a>
</g>
</g>
<!-- Node1&#45;&gt;Node3 -->
<g id="edge2" class="edge">
<title>Node1&#45;&gt;Node3</title>
<path fill="none" stroke="midnightblue" d="M520.74,-21.09C512.08,-21.09 503.4,-21.09 495.23,-21.09"/>
<polygon fill="midnightblue" stroke="midnightblue" points="520.86,-24.59 530.86,-21.09 520.86,-17.59 520.86,-24.59"/>
</g>
<!-- Node4 -->
<g id="node4" class="node">
<title>Node4</title>
<g id="a_node4"><a xlink:href="../../d0/d0f/group___m_g_r___a_t___c_m_d.html#ga60486b23c6850d01bbb1e29875cd24f4" target="_top" xlink:title="Send random TX data as per RF configuration.">
<polygon fill="white" stroke="black" points="176,-11.59 176,-30.59 367,-30.59 367,-11.59 176,-11.59"/>
<text text-anchor="middle" x="271.5" y="-18.59" font-family="Helvetica,sans-Serif" font-size="10.00">MGR_AT_CMD_sendRandomTxData</text>
</a>
</g>
</g>
<!-- Node1&#45;&gt;Node4 -->
<g id="edge6" class="edge">
<title>Node1&#45;&gt;Node4</title>
<path fill="none" stroke="midnightblue" d="M540.98,-9.47C526.31,-6.44 510.08,-3.6 495,-2.09 435.79,3.83 367.59,-4.18 322.47,-11.54"/>
<polygon fill="midnightblue" stroke="midnightblue" points="540.33,-12.91 550.85,-11.58 541.8,-6.06 540.33,-12.91"/>
</g>
<!-- Node3&#45;&gt;Node4 -->
<g id="edge3" class="edge">
<title>Node3&#45;&gt;Node4</title>
<path fill="none" stroke="midnightblue" d="M392.66,-14.77C384.44,-14.54 375.78,-14.41 367.03,-14.36"/>
<polygon fill="midnightblue" stroke="midnightblue" points="392.69,-18.27 402.8,-15.1 392.93,-11.28 392.69,-18.27"/>
</g>
<!-- Node4&#45;&gt;Node2 -->
<g id="edge4" class="edge">
<title>Node4&#45;&gt;Node2</title>
<path fill="none" stroke="midnightblue" d="M165.61,-31.08C157.02,-31.9 148.47,-32.71 140.23,-33.5"/>
<polygon fill="midnightblue" stroke="midnightblue" points="166.09,-34.55 175.72,-30.12 165.43,-27.58 166.09,-34.55"/>
</g>
<!-- Node4&#45;&gt;Node3 -->
<g id="edge5" class="edge">
<title>Node4&#45;&gt;Node3</title>
<path fill="none" stroke="midnightblue" d="M377.17,-27.73C386.09,-27.61 394.76,-27.39 402.8,-27.08"/>
<polygon fill="midnightblue" stroke="midnightblue" points="376.99,-24.23 367.03,-27.82 377.06,-31.23 376.99,-24.23"/>
</g>
</g>
</svg>
