<?xml version="1.0" encoding="UTF-8" standalone="no"?>
<!DOCTYPE svg PUBLIC "-//W3C//DTD SVG 1.1//EN"
 "http://www.w3.org/Graphics/SVG/1.1/DTD/svg11.dtd">
<!-- Generated by graphviz version 2.43.0 (0)
 -->
<!-- Title: KNS_RF_PowerOff Pages: 1 -->
<svg width="644pt" height="58pt"
 viewBox="0.00 0.00 644.00 58.29" xmlns="http://www.w3.org/2000/svg" xmlns:xlink="http://www.w3.org/1999/xlink">
<g id="graph0" class="graph" transform="scale(1 1) rotate(0) translate(4 54.29)">
<title>KNS_RF_PowerOff</title>
<polygon fill="white" stroke="transparent" points="-4,4 -4,-54.29 640,-54.29 640,4 -4,4"/>
<!-- Node1 -->
<g id="node1" class="node">
<title>Node1</title>
<g id="a_node1"><a xlink:title="This function powers off the LDO for the KNS_RF. cb is called when done.">
<polygon fill="#bfbfbf" stroke="black" points="531,-11.79 531,-30.79 636,-30.79 636,-11.79 531,-11.79"/>
<text text-anchor="middle" x="583.5" y="-18.79" font-family="Helvetica,sans-Serif" font-size="10.00">KNS_RF_PowerOff</text>
</a>
</g>
</g>
<!-- Node2 -->
<g id="node2" class="node">
<title>Node2</title>
<g id="a_node2"><a xlink:href="../../d0/d0f/group___m_g_r___a_t___c_m_d.html#gafccf5cd6468be2c39af4c4c599d48ef8" target="_top" xlink:title="Process AT command &quot;AT+CW&quot;.">
<polygon fill="white" stroke="black" points="0,-30.79 0,-49.79 140,-49.79 140,-30.79 0,-30.79"/>
<text text-anchor="middle" x="70" y="-37.79" font-family="Helvetica,sans-Serif" font-size="10.00">bMGR_AT_CMD_CW_cmd</text>
</a>
</g>
</g>
<!-- Node1&#45;&gt;Node2 -->
<g id="edge1" class="edge">
<title>Node1&#45;&gt;Node2</title>
<path fill="none" stroke="midnightblue" d="M537.05,-33.09C523.61,-36.06 508.79,-38.81 495,-40.29 370.58,-53.65 224.43,-49.26 140.28,-44.81"/>
<polygon fill="midnightblue" stroke="midnightblue" points="538.06,-36.45 547.02,-30.8 536.49,-29.63 538.06,-36.45"/>
</g>
<!-- Node3 -->
<g id="node3" class="node">
<title>Node3</title>
<g id="a_node3"><a xlink:href="../../d0/d0f/group___m_g_r___a_t___c_m_d.html#gafccb1dfaf28ab371bebd814a3abaa57c" target="_top" xlink:title="Callback function notifying end of TX processing in case of modulated wave.">
<polygon fill="white" stroke="black" points="403,-11.79 403,-30.79 495,-30.79 495,-11.79 403,-11.79"/>
<text text-anchor="middle" x="449" y="-18.79" font-family="Helvetica,sans-Serif" font-size="10.00">eoAtMW_isr_cb</text>
</a>
</g>
</g>
<!-- Node1&#45;&gt;Node3 -->
<g id="edge2" class="edge">
<title>Node1&#45;&gt;Node3</title>
<path fill="none" stroke="midnightblue" d="M520.84,-21.29C512.21,-21.29 503.47,-21.29 495.22,-21.29"/>
<polygon fill="midnightblue" stroke="midnightblue" points="520.89,-24.79 530.89,-21.29 520.89,-17.79 520.89,-24.79"/>
</g>
<!-- Node4 -->
<g id="node4" class="node">
<title>Node4</title>
<g id="a_node4"><a xlink:href="../../d0/d0f/group___m_g_r___a_t___c_m_d.html#ga60486b23c6850d01bbb1e29875cd24f4" target="_top" xlink:title="Send random TX data as per RF configuration.">
<polygon fill="white" stroke="black" points="176,-11.79 176,-30.79 367,-30.79 367,-11.79 176,-11.79"/>
<text text-anchor="middle" x="271.5" y="-18.79" font-family="Helvetica,sans-Serif" font-size="10.00">MGR_AT_CMD_sendRandomTxData</text>
</a>
</g>
</g>
<!-- Node1&#45;&gt;Node4 -->
<g id="edge6" class="edge">
<title>Node1&#45;&gt;Node4</title>
<path fill="none" stroke="midnightblue" d="M537.05,-9.5C523.61,-6.53 508.79,-3.77 495,-2.29 435.25,4.12 366.29,-4.2 321.17,-11.76"/>
<polygon fill="midnightblue" stroke="midnightblue" points="536.49,-12.96 547.02,-11.78 538.06,-6.14 536.49,-12.96"/>
</g>
<!-- Node3&#45;&gt;Node4 -->
<g id="edge3" class="edge">
<title>Node3&#45;&gt;Node4</title>
<path fill="none" stroke="midnightblue" d="M392.66,-14.97C384.44,-14.74 375.78,-14.61 367.03,-14.56"/>
<polygon fill="midnightblue" stroke="midnightblue" points="392.69,-18.47 402.8,-15.3 392.93,-11.48 392.69,-18.47"/>
</g>
<!-- Node4&#45;&gt;Node2 -->
<g id="edge4" class="edge">
<title>Node4&#45;&gt;Node2</title>
<path fill="none" stroke="midnightblue" d="M165.61,-31.28C157.02,-32.1 148.47,-32.92 140.23,-33.7"/>
<polygon fill="midnightblue" stroke="midnightblue" points="166.09,-34.75 175.72,-30.32 165.43,-27.78 166.09,-34.75"/>
</g>
<!-- Node4&#45;&gt;Node3 -->
<g id="edge5" class="edge">
<title>Node4&#45;&gt;Node3</title>
<path fill="none" stroke="midnightblue" d="M377.17,-27.93C386.09,-27.81 394.76,-27.59 402.8,-27.28"/>
<polygon fill="midnightblue" stroke="midnightblue" points="376.99,-24.43 367.03,-28.03 377.06,-31.43 376.99,-24.43"/>
</g>
</g>
</svg>
