<?xml version="1.0" encoding="UTF-8" standalone="no"?>
<!DOCTYPE svg PUBLIC "-//W3C//DTD SVG 1.1//EN"
 "http://www.w3.org/Graphics/SVG/1.1/DTD/svg11.dtd">
<!-- Generated by graphviz version 2.43.0 (0)
 -->
<!-- Title: KNS_MAC_srvcEvt_t Pages: 1 -->
<svg width="479pt" height="95pt"
 viewBox="0.00 0.00 479.00 95.00" xmlns="http://www.w3.org/2000/svg" xmlns:xlink="http://www.w3.org/1999/xlink">
<g id="graph0" class="graph" transform="scale(1 1) rotate(0) translate(4 91)">
<title>KNS_MAC_srvcEvt_t</title>
<polygon fill="white" stroke="transparent" points="-4,4 -4,-91 475,-91 475,4 -4,4"/>
<!-- Node1 -->
<g id="node1" class="node">
<title>Node1</title>
<g id="a_node1"><a xlink:title="Generic structure/union describing events coming from SERVICE layer.">
<polygon fill="#bfbfbf" stroke="black" points="169,-0.5 169,-19.5 284,-19.5 284,-0.5 169,-0.5"/>
<text text-anchor="middle" x="226.5" y="-7.5" font-family="Helvetica,sans-Serif" font-size="10.00">KNS_MAC_srvcEvt_t</text>
</a>
</g>
</g>
<!-- Node2 -->
<g id="node2" class="node">
<title>Node2</title>
<g id="a_node2"><a xlink:href="../../d6/df0/struct_k_n_s___m_a_c___r_x__frm__ctxt__t.html" target="_top" xlink:title="RX&#45;frameè&#45;received event context structure.">
<polygon fill="white" stroke="black" points="0,-67.5 0,-86.5 139,-86.5 139,-67.5 0,-67.5"/>
<text text-anchor="middle" x="69.5" y="-74.5" font-family="Helvetica,sans-Serif" font-size="10.00">KNS_MAC_RX_frm_ctxt_t</text>
</a>
</g>
</g>
<!-- Node2&#45;&gt;Node1 -->
<g id="edge1" class="edge">
<title>Node2&#45;&gt;Node1</title>
<path fill="none" stroke="#9a32cd" stroke-dasharray="5,2" d="M99.82,-63.45C130.9,-50.58 178.43,-30.9 205.57,-19.67"/>
<polygon fill="#9a32cd" stroke="#9a32cd" points="98.25,-60.31 90.35,-67.37 100.93,-66.78 98.25,-60.31"/>
<text text-anchor="middle" x="176" y="-41" font-family="Helvetica,sans-Serif" font-size="10.00"> rx_ctxt</text>
</g>
<!-- Node3 -->
<g id="node3" class="node">
<title>Node3</title>
<g id="a_node3"><a xlink:href="../../d6/da7/struct_k_n_s___m_a_c___t_x__cplt__ctxt__t.html" target="_top" xlink:title="TX&#45;done/TX&#45;timeout event context structure.">
<polygon fill="white" stroke="black" points="157,-67.5 157,-86.5 296,-86.5 296,-67.5 157,-67.5"/>
<text text-anchor="middle" x="226.5" y="-74.5" font-family="Helvetica,sans-Serif" font-size="10.00">KNS_MAC_TX_cplt_ctxt_t</text>
</a>
</g>
</g>
<!-- Node3&#45;&gt;Node1 -->
<g id="edge2" class="edge">
<title>Node3&#45;&gt;Node1</title>
<path fill="none" stroke="#9a32cd" stroke-dasharray="5,2" d="M226.5,-57.04C226.5,-44.67 226.5,-29.12 226.5,-19.63"/>
<polygon fill="#9a32cd" stroke="#9a32cd" points="223,-57.23 226.5,-67.23 230,-57.23 223,-57.23"/>
<text text-anchor="middle" x="245" y="-41" font-family="Helvetica,sans-Serif" font-size="10.00"> tx_ctxt</text>
</g>
<!-- Node4 -->
<g id="node4" class="node">
<title>Node4</title>
<g id="a_node4"><a xlink:href="../../de/dd2/struct_k_n_s___m_a_c___r_x__dl__msg__ctxt__t.html" target="_top" xlink:title=" ">
<polygon fill="white" stroke="black" points="314,-67.5 314,-86.5 471,-86.5 471,-67.5 314,-67.5"/>
<text text-anchor="middle" x="392.5" y="-74.5" font-family="Helvetica,sans-Serif" font-size="10.00">KNS_MAC_RX_dl_msg_ctxt_t</text>
</a>
</g>
</g>
<!-- Node4&#45;&gt;Node1 -->
<g id="edge3" class="edge">
<title>Node4&#45;&gt;Node1</title>
<path fill="none" stroke="#9a32cd" stroke-dasharray="5,2" d="M360.84,-63.6C327.88,-50.7 277.14,-30.83 248.37,-19.56"/>
<polygon fill="#9a32cd" stroke="#9a32cd" points="359.87,-66.98 370.46,-67.37 362.42,-60.46 359.87,-66.98"/>
<text text-anchor="middle" x="343" y="-41" font-family="Helvetica,sans-Serif" font-size="10.00"> msg_ctxt</text>
</g>
</g>
</svg>
