<?xml version="1.0" encoding="UTF-8" standalone="no"?>
<!DOCTYPE svg PUBLIC "-//W3C//DTD SVG 1.1//EN"
 "http://www.w3.org/Graphics/SVG/1.1/DTD/svg11.dtd">
<!-- Generated by graphviz version 2.43.0 (0)
 -->
<!-- Title: Kineis/Extdep/Conf/kns_q_conf.c Pages: 1 -->
<svg width="349pt" height="319pt"
 viewBox="0.00 0.00 348.97 319.00" xmlns="http://www.w3.org/2000/svg" xmlns:xlink="http://www.w3.org/1999/xlink">
<g id="graph0" class="graph" transform="scale(1 1) rotate(0) translate(4 315)">
<title>Kineis/Extdep/Conf/kns_q_conf.c</title>
<polygon fill="white" stroke="transparent" points="-4,4 -4,-315 344.97,-315 344.97,4 -4,4"/>
<!-- Node1 -->
<g id="node1" class="node">
<title>Node1</title>
<g id="a_node1"><a xlink:title="Configuration of queues used in kineis_swr.">
<polygon fill="#bfbfbf" stroke="black" points="79.41,-280.5 79.41,-310.5 188.41,-310.5 188.41,-280.5 79.41,-280.5"/>
<text text-anchor="start" x="87.41" y="-298.5" font-family="Helvetica,sans-Serif" font-size="10.00">Kineis/Extdep/Conf</text>
<text text-anchor="middle" x="133.91" y="-287.5" font-family="Helvetica,sans-Serif" font-size="10.00">/kns_q_conf.c</text>
</a>
</g>
</g>
<!-- Node2 -->
<g id="node2" class="node">
<title>Node2</title>
<g id="a_node2"><a xlink:href="../../d8/dd1/kns__q__conf_8h.html" target="_top" xlink:title="Configuration of queues used in kineis_sw.">
<polygon fill="white" stroke="black" points="59.91,-168.5 59.91,-187.5 139.91,-187.5 139.91,-168.5 59.91,-168.5"/>
<text text-anchor="middle" x="99.91" y="-175.5" font-family="Helvetica,sans-Serif" font-size="10.00">kns_q_conf.h</text>
</a>
</g>
</g>
<!-- Node1&#45;&gt;Node2 -->
<g id="edge1" class="edge">
<title>Node1&#45;&gt;Node2</title>
<path fill="none" stroke="midnightblue" d="M129.74,-280.34C123.59,-259.43 112.07,-220.31 105.29,-197.27"/>
<polygon fill="midnightblue" stroke="midnightblue" points="108.64,-196.27 102.46,-187.67 101.93,-198.25 108.64,-196.27"/>
</g>
<!-- Node8 -->
<g id="node8" class="node">
<title>Node8</title>
<g id="a_node8"><a xlink:href="../../d0/d84/kns__q_8h.html" target="_top" xlink:title="Configuration of queues used in kineis_swr.">
<polygon fill="white" stroke="black" points="140.91,-224.5 140.91,-243.5 194.91,-243.5 194.91,-224.5 140.91,-224.5"/>
<text text-anchor="middle" x="167.91" y="-231.5" font-family="Helvetica,sans-Serif" font-size="10.00">kns_q.h</text>
</a>
</g>
</g>
<!-- Node1&#45;&gt;Node8 -->
<g id="edge13" class="edge">
<title>Node1&#45;&gt;Node8</title>
<path fill="none" stroke="midnightblue" d="M141.97,-280.4C146.76,-272.02 152.87,-261.33 157.96,-252.42"/>
<polygon fill="midnightblue" stroke="midnightblue" points="161.04,-254.08 162.96,-243.66 154.96,-250.6 161.04,-254.08"/>
</g>
<!-- Node3 -->
<g id="node3" class="node">
<title>Node3</title>
<g id="a_node3"><a xlink:title=" ">
<polygon fill="white" stroke="#bfbfbf" points="98.91,-56.5 98.91,-75.5 160.91,-75.5 160.91,-56.5 98.91,-56.5"/>
<text text-anchor="middle" x="129.91" y="-63.5" font-family="Helvetica,sans-Serif" font-size="10.00">stdbool.h</text>
</a>
</g>
</g>
<!-- Node2&#45;&gt;Node3 -->
<g id="edge2" class="edge">
<title>Node2&#45;&gt;Node3</title>
<path fill="none" stroke="midnightblue" d="M102.27,-168.37C107.13,-150.54 118.38,-109.3 124.93,-85.27"/>
<polygon fill="midnightblue" stroke="midnightblue" points="128.31,-86.16 127.57,-75.59 121.56,-84.32 128.31,-86.16"/>
</g>
<!-- Node4 -->
<g id="node4" class="node">
<title>Node4</title>
<g id="a_node4"><a xlink:title=" ">
<polygon fill="white" stroke="#bfbfbf" points="162.41,-0.5 162.41,-19.5 215.41,-19.5 215.41,-0.5 162.41,-0.5"/>
<text text-anchor="middle" x="188.91" y="-7.5" font-family="Helvetica,sans-Serif" font-size="10.00">stdint.h</text>
</a>
</g>
</g>
<!-- Node2&#45;&gt;Node4 -->
<g id="edge3" class="edge">
<title>Node2&#45;&gt;Node4</title>
<path fill="none" stroke="midnightblue" d="M62.09,-168.43C29.32,-158.9 -10.86,-140.92 2.91,-112 30.38,-54.33 106.32,-28.41 152.23,-17.71"/>
<polygon fill="midnightblue" stroke="midnightblue" points="153.08,-21.11 162.1,-15.54 151.58,-14.27 153.08,-21.11"/>
</g>
<!-- Node5 -->
<g id="node5" class="node">
<title>Node5</title>
<g id="a_node5"><a xlink:href="../../df/d64/kns__mac__evt_8h.html" target="_top" xlink:title=" ">
<polygon fill="white" stroke="black" points="11.91,-112.5 11.91,-131.5 101.91,-131.5 101.91,-112.5 11.91,-112.5"/>
<text text-anchor="middle" x="56.91" y="-119.5" font-family="Helvetica,sans-Serif" font-size="10.00">kns_mac_evt.h</text>
</a>
</g>
</g>
<!-- Node2&#45;&gt;Node5 -->
<g id="edge4" class="edge">
<title>Node2&#45;&gt;Node5</title>
<path fill="none" stroke="midnightblue" d="M92.81,-168.08C86.67,-160.38 77.64,-149.03 70.17,-139.65"/>
<polygon fill="midnightblue" stroke="midnightblue" points="72.85,-137.39 63.88,-131.75 67.37,-141.75 72.85,-137.39"/>
</g>
<!-- Node7 -->
<g id="node7" class="node">
<title>Node7</title>
<g id="a_node7"><a xlink:href="../../d7/d8a/kns__srvc__common_8h.html" target="_top" xlink:title="Common part of Kinéis service layer.">
<polygon fill="white" stroke="black" points="195.91,-112.5 195.91,-131.5 311.91,-131.5 311.91,-112.5 195.91,-112.5"/>
<text text-anchor="middle" x="253.91" y="-119.5" font-family="Helvetica,sans-Serif" font-size="10.00">kns_srvc_common.h</text>
</a>
</g>
</g>
<!-- Node2&#45;&gt;Node7 -->
<g id="edge9" class="edge">
<title>Node2&#45;&gt;Node7</title>
<path fill="none" stroke="midnightblue" d="M124.31,-168.44C150.11,-159.4 190.99,-145.06 219.93,-134.92"/>
<polygon fill="midnightblue" stroke="midnightblue" points="221.35,-138.13 229.62,-131.52 219.03,-131.52 221.35,-138.13"/>
</g>
<!-- Node5&#45;&gt;Node3 -->
<g id="edge5" class="edge">
<title>Node5&#45;&gt;Node3</title>
<path fill="none" stroke="midnightblue" d="M68.64,-112.32C79.75,-104.11 96.65,-91.6 109.89,-81.81"/>
<polygon fill="midnightblue" stroke="midnightblue" points="112.01,-84.59 117.97,-75.83 107.85,-78.97 112.01,-84.59"/>
</g>
<!-- Node5&#45;&gt;Node4 -->
<g id="edge6" class="edge">
<title>Node5&#45;&gt;Node4</title>
<path fill="none" stroke="midnightblue" d="M59.28,-112.29C63.4,-98.64 73.09,-72.11 89.91,-56 107.37,-39.28 132.13,-28.03 152.52,-20.96"/>
<polygon fill="midnightblue" stroke="midnightblue" points="153.71,-24.25 162.13,-17.81 151.54,-17.6 153.71,-24.25"/>
</g>
<!-- Node6 -->
<g id="node6" class="node">
<title>Node6</title>
<g id="a_node6"><a xlink:href="../../d8/d85/kns__types_8h.html" target="_top" xlink:title="Kineis types definition.">
<polygon fill="white" stroke="black" points="217.41,-56.5 217.41,-75.5 292.41,-75.5 292.41,-56.5 217.41,-56.5"/>
<text text-anchor="middle" x="254.91" y="-63.5" font-family="Helvetica,sans-Serif" font-size="10.00">kns_types.h</text>
</a>
</g>
</g>
<!-- Node5&#45;&gt;Node6 -->
<g id="edge7" class="edge">
<title>Node5&#45;&gt;Node6</title>
<path fill="none" stroke="midnightblue" d="M88.29,-112.44C122.17,-103.2 176.31,-88.44 213.63,-78.26"/>
<polygon fill="midnightblue" stroke="midnightblue" points="214.96,-81.52 223.68,-75.52 213.12,-74.77 214.96,-81.52"/>
</g>
<!-- Node6&#45;&gt;Node4 -->
<g id="edge8" class="edge">
<title>Node6&#45;&gt;Node4</title>
<path fill="none" stroke="midnightblue" d="M244.31,-56.32C234.46,-48.26 219.56,-36.08 207.7,-26.37"/>
<polygon fill="midnightblue" stroke="midnightblue" points="209.66,-23.46 199.71,-19.83 205.23,-28.88 209.66,-23.46"/>
</g>
<!-- Node7&#45;&gt;Node3 -->
<g id="edge10" class="edge">
<title>Node7&#45;&gt;Node3</title>
<path fill="none" stroke="midnightblue" d="M234.26,-112.44C213.95,-103.6 182.01,-89.69 158.81,-79.59"/>
<polygon fill="midnightblue" stroke="midnightblue" points="160.03,-76.3 149.47,-75.52 157.24,-82.72 160.03,-76.3"/>
</g>
<!-- Node7&#45;&gt;Node4 -->
<g id="edge11" class="edge">
<title>Node7&#45;&gt;Node4</title>
<path fill="none" stroke="midnightblue" d="M242.04,-112.29C231.61,-104.04 216.76,-90.75 207.91,-76 199.31,-61.67 194.4,-43.2 191.74,-29.62"/>
<polygon fill="midnightblue" stroke="midnightblue" points="195.15,-28.81 190,-19.55 188.25,-30 195.15,-28.81"/>
</g>
<!-- Node7&#45;&gt;Node6 -->
<g id="edge12" class="edge">
<title>Node7&#45;&gt;Node6</title>
<path fill="none" stroke="midnightblue" d="M254.08,-112.08C254.21,-105.01 254.4,-94.86 254.56,-85.99"/>
<polygon fill="midnightblue" stroke="midnightblue" points="258.06,-85.81 254.75,-75.75 251.06,-85.68 258.06,-85.81"/>
</g>
<!-- Node8&#45;&gt;Node2 -->
<g id="edge17" class="edge">
<title>Node8&#45;&gt;Node2</title>
<path fill="none" stroke="midnightblue" d="M156.99,-224.32C146.74,-216.18 131.19,-203.84 118.91,-194.09"/>
<polygon fill="midnightblue" stroke="midnightblue" points="121.04,-191.31 111.04,-187.83 116.69,-196.79 121.04,-191.31"/>
</g>
<!-- Node8&#45;&gt;Node3 -->
<g id="edge14" class="edge">
<title>Node8&#45;&gt;Node3</title>
<path fill="none" stroke="midnightblue" d="M165.87,-224.08C159.89,-197.95 142.32,-121.21 134.16,-85.58"/>
<polygon fill="midnightblue" stroke="midnightblue" points="137.52,-84.53 131.87,-75.57 130.69,-86.1 137.52,-84.53"/>
</g>
<!-- Node8&#45;&gt;Node4 -->
<g id="edge15" class="edge">
<title>Node8&#45;&gt;Node4</title>
<path fill="none" stroke="midnightblue" d="M195.1,-227.99C222.16,-221.99 263.87,-209.88 293.91,-188 319.28,-169.53 326.82,-161.71 336.91,-132 348.93,-96.61 329.72,-79.81 300.91,-56 279.1,-37.97 249.14,-26.44 225.7,-19.57"/>
<polygon fill="midnightblue" stroke="midnightblue" points="226.34,-16.12 215.76,-16.82 224.47,-22.86 226.34,-16.12"/>
</g>
<!-- Node8&#45;&gt;Node6 -->
<g id="edge16" class="edge">
<title>Node8&#45;&gt;Node6</title>
<path fill="none" stroke="midnightblue" d="M194.39,-224.48C230.58,-211.23 294.07,-181.89 320.91,-132 332.43,-110.59 307.33,-91.8 284.84,-80"/>
<polygon fill="midnightblue" stroke="midnightblue" points="286.32,-76.83 275.8,-75.53 283.22,-83.1 286.32,-76.83"/>
</g>
</g>
</svg>
