<?xml version="1.0" encoding="UTF-8" standalone="no"?>
<!DOCTYPE svg PUBLIC "-//W3C//DTD SVG 1.1//EN"
 "http://www.w3.org/Graphics/SVG/1.1/DTD/svg11.dtd">
<!-- Generated by graphviz version 2.43.0 (0)
 -->
<!-- Title: Kineis/Extdep/Conf/kns_q_conf.c Pages: 1 -->
<svg width="406pt" height="375pt"
 viewBox="0.00 0.00 405.97 375.00" xmlns="http://www.w3.org/2000/svg" xmlns:xlink="http://www.w3.org/1999/xlink">
<g id="graph0" class="graph" transform="scale(1 1) rotate(0) translate(4 371)">
<title>Kineis/Extdep/Conf/kns_q_conf.c</title>
<polygon fill="white" stroke="transparent" points="-4,4 -4,-371 401.97,-371 401.97,4 -4,4"/>
<!-- Node1 -->
<g id="node1" class="node">
<title>Node1</title>
<g id="a_node1"><a xlink:title="Configuration of queues used in kineis_swr.">
<polygon fill="#bfbfbf" stroke="black" points="99.47,-336.5 99.47,-366.5 208.47,-366.5 208.47,-336.5 99.47,-336.5"/>
<text text-anchor="start" x="107.47" y="-354.5" font-family="Helvetica,sans-Serif" font-size="10.00">Kineis/Extdep/Conf</text>
<text text-anchor="middle" x="153.97" y="-343.5" font-family="Helvetica,sans-Serif" font-size="10.00">/kns_q_conf.c</text>
</a>
</g>
</g>
<!-- Node2 -->
<g id="node2" class="node">
<title>Node2</title>
<g id="a_node2"><a xlink:href="../../d8/dd1/kns__q__conf_8h.html" target="_top" xlink:title="Configuration of queues used in kineis_sw.">
<polygon fill="white" stroke="black" points="79.97,-224.5 79.97,-243.5 159.97,-243.5 159.97,-224.5 79.97,-224.5"/>
<text text-anchor="middle" x="119.97" y="-231.5" font-family="Helvetica,sans-Serif" font-size="10.00">kns_q_conf.h</text>
</a>
</g>
</g>
<!-- Node1&#45;&gt;Node2 -->
<g id="edge1" class="edge">
<title>Node1&#45;&gt;Node2</title>
<path fill="none" stroke="midnightblue" d="M149.81,-336.34C143.65,-315.43 132.13,-276.31 125.35,-253.27"/>
<polygon fill="midnightblue" stroke="midnightblue" points="128.71,-252.27 122.53,-243.67 121.99,-254.25 128.71,-252.27"/>
</g>
<!-- Node9 -->
<g id="node9" class="node">
<title>Node9</title>
<g id="a_node9"><a xlink:href="../../d0/d84/kns__q_8h.html" target="_top" xlink:title="Configuration of queues used in kineis_swr.">
<polygon fill="white" stroke="black" points="160.97,-280.5 160.97,-299.5 214.97,-299.5 214.97,-280.5 160.97,-280.5"/>
<text text-anchor="middle" x="187.97" y="-287.5" font-family="Helvetica,sans-Serif" font-size="10.00">kns_q.h</text>
</a>
</g>
</g>
<!-- Node1&#45;&gt;Node9 -->
<g id="edge16" class="edge">
<title>Node1&#45;&gt;Node9</title>
<path fill="none" stroke="midnightblue" d="M162.03,-336.4C166.82,-328.02 172.93,-317.33 178.02,-308.42"/>
<polygon fill="midnightblue" stroke="midnightblue" points="181.1,-310.08 183.03,-299.66 175.03,-306.6 181.1,-310.08"/>
</g>
<!-- Node3 -->
<g id="node3" class="node">
<title>Node3</title>
<g id="a_node3"><a xlink:title=" ">
<polygon fill="white" stroke="#bfbfbf" points="186.97,-112.5 186.97,-131.5 248.97,-131.5 248.97,-112.5 186.97,-112.5"/>
<text text-anchor="middle" x="217.97" y="-119.5" font-family="Helvetica,sans-Serif" font-size="10.00">stdbool.h</text>
</a>
</g>
</g>
<!-- Node2&#45;&gt;Node3 -->
<g id="edge2" class="edge">
<title>Node2&#45;&gt;Node3</title>
<path fill="none" stroke="midnightblue" d="M126.75,-224.4C136.78,-211.78 156.29,-187.61 173.97,-168 182.94,-158.06 193.4,-147.33 201.87,-138.84"/>
<polygon fill="midnightblue" stroke="midnightblue" points="204.37,-141.29 208.99,-131.76 199.43,-136.33 204.37,-141.29"/>
</g>
<!-- Node4 -->
<g id="node4" class="node">
<title>Node4</title>
<g id="a_node4"><a xlink:title=" ">
<polygon fill="white" stroke="#bfbfbf" points="99.47,-0.5 99.47,-19.5 152.47,-19.5 152.47,-0.5 99.47,-0.5"/>
<text text-anchor="middle" x="125.97" y="-7.5" font-family="Helvetica,sans-Serif" font-size="10.00">stdint.h</text>
</a>
</g>
</g>
<!-- Node2&#45;&gt;Node4 -->
<g id="edge3" class="edge">
<title>Node2&#45;&gt;Node4</title>
<path fill="none" stroke="midnightblue" d="M85.27,-224.39C64.63,-217.63 39.35,-206.23 22.97,-188 -0.29,-162.1 -3.78,-145.94 3.97,-112 10.13,-85.06 11.37,-75.47 30.97,-56 47.26,-39.83 70.47,-28.69 89.87,-21.53"/>
<polygon fill="midnightblue" stroke="midnightblue" points="91.03,-24.84 99.33,-18.25 88.73,-18.22 91.03,-24.84"/>
</g>
<!-- Node5 -->
<g id="node5" class="node">
<title>Node5</title>
<g id="a_node5"><a xlink:href="../../df/d64/kns__mac__evt_8h.html" target="_top" xlink:title=" ">
<polygon fill="white" stroke="black" points="31.97,-168.5 31.97,-187.5 121.97,-187.5 121.97,-168.5 31.97,-168.5"/>
<text text-anchor="middle" x="76.97" y="-175.5" font-family="Helvetica,sans-Serif" font-size="10.00">kns_mac_evt.h</text>
</a>
</g>
</g>
<!-- Node2&#45;&gt;Node5 -->
<g id="edge4" class="edge">
<title>Node2&#45;&gt;Node5</title>
<path fill="none" stroke="midnightblue" d="M112.87,-224.08C106.74,-216.38 97.7,-205.03 90.24,-195.65"/>
<polygon fill="midnightblue" stroke="midnightblue" points="92.91,-193.39 83.94,-187.75 87.43,-197.75 92.91,-193.39"/>
</g>
<!-- Node8 -->
<g id="node8" class="node">
<title>Node8</title>
<g id="a_node8"><a xlink:href="../../d7/d8a/kns__srvc__common_8h.html" target="_top" xlink:title="Common part of Kinéis service layer.">
<polygon fill="white" stroke="black" points="215.97,-168.5 215.97,-187.5 331.97,-187.5 331.97,-168.5 215.97,-168.5"/>
<text text-anchor="middle" x="273.97" y="-175.5" font-family="Helvetica,sans-Serif" font-size="10.00">kns_srvc_common.h</text>
</a>
</g>
</g>
<!-- Node2&#45;&gt;Node8 -->
<g id="edge12" class="edge">
<title>Node2&#45;&gt;Node8</title>
<path fill="none" stroke="midnightblue" d="M144.38,-224.44C170.17,-215.4 211.05,-201.06 239.99,-190.92"/>
<polygon fill="midnightblue" stroke="midnightblue" points="241.41,-194.13 249.69,-187.52 239.09,-187.52 241.41,-194.13"/>
</g>
<!-- Node5&#45;&gt;Node3 -->
<g id="edge5" class="edge">
<title>Node5&#45;&gt;Node3</title>
<path fill="none" stroke="midnightblue" d="M99.32,-168.44C122.73,-159.48 159.71,-145.31 186.16,-135.18"/>
<polygon fill="midnightblue" stroke="midnightblue" points="187.65,-138.36 195.74,-131.52 185.15,-131.82 187.65,-138.36"/>
</g>
<!-- Node5&#45;&gt;Node4 -->
<g id="edge6" class="edge">
<title>Node5&#45;&gt;Node4</title>
<path fill="none" stroke="midnightblue" d="M55.51,-168.41C31.85,-157.51 -1.44,-137.07 9.97,-112 28.36,-71.61 71.77,-41.09 99.96,-24.65"/>
<polygon fill="midnightblue" stroke="midnightblue" points="101.89,-27.58 108.88,-19.62 98.45,-21.49 101.89,-27.58"/>
</g>
<!-- Node6 -->
<g id="node6" class="node">
<title>Node6</title>
<g id="a_node6"><a xlink:href="../../d8/d85/kns__types_8h.html" target="_top" xlink:title="Kineis types definition.">
<polygon fill="white" stroke="black" points="121.47,-56.5 121.47,-75.5 196.47,-75.5 196.47,-56.5 121.47,-56.5"/>
<text text-anchor="middle" x="158.97" y="-63.5" font-family="Helvetica,sans-Serif" font-size="10.00">kns_types.h</text>
</a>
</g>
</g>
<!-- Node5&#45;&gt;Node6 -->
<g id="edge7" class="edge">
<title>Node5&#45;&gt;Node6</title>
<path fill="none" stroke="midnightblue" d="M94.37,-168.44C108.34,-160.72 127.45,-148.12 138.97,-132 148.74,-118.34 153.83,-99.81 156.42,-86.02"/>
<polygon fill="midnightblue" stroke="midnightblue" points="159.94,-86.2 158.06,-75.77 153.02,-85.09 159.94,-86.2"/>
</g>
<!-- Node7 -->
<g id="node7" class="node">
<title>Node7</title>
<g id="a_node7"><a xlink:href="../../d8/d4a/kns__mac__prfl__cfg_8h.html" target="_top" xlink:title="Header file describing the ser settings required to configure a MAC protocol.">
<polygon fill="white" stroke="black" points="19.47,-112.5 19.47,-131.5 130.47,-131.5 130.47,-112.5 19.47,-112.5"/>
<text text-anchor="middle" x="74.97" y="-119.5" font-family="Helvetica,sans-Serif" font-size="10.00">kns_mac_prfl_cfg.h</text>
</a>
</g>
</g>
<!-- Node5&#45;&gt;Node7 -->
<g id="edge9" class="edge">
<title>Node5&#45;&gt;Node7</title>
<path fill="none" stroke="midnightblue" d="M76.64,-168.08C76.38,-161.01 76.01,-150.86 75.68,-141.99"/>
<polygon fill="midnightblue" stroke="midnightblue" points="79.17,-141.61 75.3,-131.75 72.17,-141.87 79.17,-141.61"/>
</g>
<!-- Node6&#45;&gt;Node4 -->
<g id="edge8" class="edge">
<title>Node6&#45;&gt;Node4</title>
<path fill="none" stroke="midnightblue" d="M153.53,-56.08C148.96,-48.61 142.31,-37.72 136.68,-28.52"/>
<polygon fill="midnightblue" stroke="midnightblue" points="139.52,-26.46 131.32,-19.75 133.55,-30.11 139.52,-26.46"/>
</g>
<!-- Node7&#45;&gt;Node4 -->
<g id="edge10" class="edge">
<title>Node7&#45;&gt;Node4</title>
<path fill="none" stroke="midnightblue" d="M78.98,-112.37C87.28,-94.46 106.54,-52.92 117.65,-28.95"/>
<polygon fill="midnightblue" stroke="midnightblue" points="120.96,-30.14 121.99,-19.59 114.61,-27.19 120.96,-30.14"/>
</g>
<!-- Node7&#45;&gt;Node6 -->
<g id="edge11" class="edge">
<title>Node7&#45;&gt;Node6</title>
<path fill="none" stroke="midnightblue" d="M88.47,-112.32C101.57,-103.9 121.69,-90.97 137.08,-81.07"/>
<polygon fill="midnightblue" stroke="midnightblue" points="138.99,-84.01 145.51,-75.65 135.21,-78.12 138.99,-84.01"/>
</g>
<!-- Node8&#45;&gt;Node3 -->
<g id="edge13" class="edge">
<title>Node8&#45;&gt;Node3</title>
<path fill="none" stroke="midnightblue" d="M264.98,-168.32C256.78,-160.42 244.47,-148.55 234.5,-138.94"/>
<polygon fill="midnightblue" stroke="midnightblue" points="236.76,-136.26 227.14,-131.83 231.9,-141.29 236.76,-136.26"/>
</g>
<!-- Node8&#45;&gt;Node4 -->
<g id="edge14" class="edge">
<title>Node8&#45;&gt;Node4</title>
<path fill="none" stroke="midnightblue" d="M277.07,-168.47C281.21,-155.52 287.08,-130.45 277.97,-112 255.07,-65.57 199.48,-37.26 162.26,-22.86"/>
<polygon fill="midnightblue" stroke="midnightblue" points="163.35,-19.53 152.76,-19.33 160.91,-26.09 163.35,-19.53"/>
</g>
<!-- Node8&#45;&gt;Node6 -->
<g id="edge15" class="edge">
<title>Node8&#45;&gt;Node6</title>
<path fill="none" stroke="midnightblue" d="M274.13,-168.37C273.92,-154.83 271.63,-128.45 257.97,-112 244.83,-96.16 224.93,-85.66 206.41,-78.81"/>
<polygon fill="midnightblue" stroke="midnightblue" points="207.49,-75.48 196.9,-75.55 205.23,-82.1 207.49,-75.48"/>
</g>
<!-- Node9&#45;&gt;Node2 -->
<g id="edge20" class="edge">
<title>Node9&#45;&gt;Node2</title>
<path fill="none" stroke="midnightblue" d="M177.05,-280.32C166.8,-272.18 151.25,-259.84 138.97,-250.09"/>
<polygon fill="midnightblue" stroke="midnightblue" points="141.11,-247.31 131.1,-243.83 136.75,-252.79 141.11,-247.31"/>
</g>
<!-- Node9&#45;&gt;Node3 -->
<g id="edge17" class="edge">
<title>Node9&#45;&gt;Node3</title>
<path fill="none" stroke="midnightblue" d="M189.07,-280.45C191.65,-260.6 198.58,-209.91 206.97,-168 208.73,-159.22 211.04,-149.56 213.09,-141.45"/>
<polygon fill="midnightblue" stroke="midnightblue" points="216.53,-142.14 215.65,-131.58 209.75,-140.38 216.53,-142.14"/>
</g>
<!-- Node9&#45;&gt;Node4 -->
<g id="edge18" class="edge">
<title>Node9&#45;&gt;Node4</title>
<path fill="none" stroke="midnightblue" d="M215,-287.21C271.72,-281.84 397.97,-260.7 397.97,-179 397.97,-179 397.97,-179 397.97,-121 397.97,-70.77 236.54,-32.65 162.41,-17.79"/>
<polygon fill="midnightblue" stroke="midnightblue" points="163.04,-14.35 152.55,-15.85 161.69,-21.21 163.04,-14.35"/>
</g>
<!-- Node9&#45;&gt;Node6 -->
<g id="edge19" class="edge">
<title>Node9&#45;&gt;Node6</title>
<path fill="none" stroke="midnightblue" d="M215.29,-281.69C266.15,-266.52 367.89,-227.93 340.97,-168 317.3,-115.29 252.19,-89.02 206.65,-76.73"/>
<polygon fill="midnightblue" stroke="midnightblue" points="207.23,-73.26 196.68,-74.17 205.5,-80.04 207.23,-73.26"/>
</g>
</g>
</svg>
