<?xml version="1.0" encoding="UTF-8" standalone="no"?>
<!DOCTYPE svg PUBLIC "-//W3C//DTD SVG 1.1//EN"
 "http://www.w3.org/Graphics/SVG/1.1/DTD/svg11.dtd">
<!-- Generated by graphviz version 2.43.0 (0)
 -->
<!-- Title: Kineis/App/Managers/MGR_AT_CMD/Inc/mgr_at_cmd_list_mac.h Pages: 1 -->
<svg width="297pt" height="218pt"
 viewBox="0.00 0.00 297.00 218.00" xmlns="http://www.w3.org/2000/svg" xmlns:xlink="http://www.w3.org/1999/xlink">
<g id="graph0" class="graph" transform="scale(1 1) rotate(0) translate(4 214)">
<title>Kineis/App/Managers/MGR_AT_CMD/Inc/mgr_at_cmd_list_mac.h</title>
<polygon fill="white" stroke="transparent" points="-4,4 -4,-214 293,-214 293,4 -4,4"/>
<!-- Node1 -->
<g id="node1" class="node">
<title>Node1</title>
<g id="a_node1"><a xlink:title="subset of AT commands concerning Kinéis Medium Acces Channel (MAC).">
<polygon fill="#bfbfbf" stroke="black" points="65,-168.5 65,-209.5 194,-209.5 194,-168.5 65,-168.5"/>
<text text-anchor="start" x="73" y="-197.5" font-family="Helvetica,sans-Serif" font-size="10.00">Kineis/App/Managers</text>
<text text-anchor="start" x="73" y="-186.5" font-family="Helvetica,sans-Serif" font-size="10.00">/MGR_AT_CMD/Inc/mgr</text>
<text text-anchor="middle" x="129.5" y="-175.5" font-family="Helvetica,sans-Serif" font-size="10.00">_at_cmd_list_mac.h</text>
</a>
</g>
</g>
<!-- Node2 -->
<g id="node2" class="node">
<title>Node2</title>
<g id="a_node2"><a xlink:href="../../d5/d58/mgr__at__cmd__common_8h.html" target="_top" xlink:title="header file for common part of the AT cmd manager">
<polygon fill="white" stroke="black" points="62.5,-112.5 62.5,-131.5 196.5,-131.5 196.5,-112.5 62.5,-112.5"/>
<text text-anchor="middle" x="129.5" y="-119.5" font-family="Helvetica,sans-Serif" font-size="10.00">mgr_at_cmd_common.h</text>
</a>
</g>
</g>
<!-- Node1&#45;&gt;Node2 -->
<g id="edge1" class="edge">
<title>Node1&#45;&gt;Node2</title>
<path fill="none" stroke="midnightblue" d="M129.5,-168.5C129.5,-160.07 129.5,-150.24 129.5,-141.87"/>
<polygon fill="midnightblue" stroke="midnightblue" points="133,-141.65 129.5,-131.65 126,-141.65 133,-141.65"/>
</g>
<!-- Node3 -->
<g id="node3" class="node">
<title>Node3</title>
<g id="a_node3"><a xlink:title=" ">
<polygon fill="white" stroke="#bfbfbf" points="0,-0.5 0,-19.5 53,-19.5 53,-0.5 0,-0.5"/>
<text text-anchor="middle" x="26.5" y="-7.5" font-family="Helvetica,sans-Serif" font-size="10.00">stdint.h</text>
</a>
</g>
</g>
<!-- Node2&#45;&gt;Node3 -->
<g id="edge2" class="edge">
<title>Node2&#45;&gt;Node3</title>
<path fill="none" stroke="midnightblue" d="M106.54,-112.4C89.6,-105.02 67.05,-92.89 52.5,-76 40.98,-62.63 34.17,-43.52 30.42,-29.48"/>
<polygon fill="midnightblue" stroke="midnightblue" points="33.77,-28.43 28.05,-19.51 26.96,-30.05 33.77,-28.43"/>
</g>
<!-- Node4 -->
<g id="node4" class="node">
<title>Node4</title>
<g id="a_node4"><a xlink:title=" ">
<polygon fill="white" stroke="#bfbfbf" points="142.5,-0.5 142.5,-19.5 204.5,-19.5 204.5,-0.5 142.5,-0.5"/>
<text text-anchor="middle" x="173.5" y="-7.5" font-family="Helvetica,sans-Serif" font-size="10.00">stdbool.h</text>
</a>
</g>
</g>
<!-- Node2&#45;&gt;Node4 -->
<g id="edge3" class="edge">
<title>Node2&#45;&gt;Node4</title>
<path fill="none" stroke="midnightblue" d="M132.95,-112.37C140.12,-94.46 156.73,-52.92 166.32,-28.95"/>
<polygon fill="midnightblue" stroke="midnightblue" points="169.6,-30.18 170.06,-19.59 163.1,-27.58 169.6,-30.18"/>
</g>
<!-- Node5 -->
<g id="node5" class="node">
<title>Node5</title>
<g id="a_node5"><a xlink:href="../../df/d36/strutil__lib_8h.html" target="_top" xlink:title="small utilities to manipulate strings">
<polygon fill="white" stroke="black" points="62,-56.5 62,-75.5 133,-75.5 133,-56.5 62,-56.5"/>
<text text-anchor="middle" x="97.5" y="-63.5" font-family="Helvetica,sans-Serif" font-size="10.00">strutil_lib.h</text>
</a>
</g>
</g>
<!-- Node2&#45;&gt;Node5 -->
<g id="edge4" class="edge">
<title>Node2&#45;&gt;Node5</title>
<path fill="none" stroke="midnightblue" d="M124.22,-112.08C119.79,-104.61 113.34,-93.72 107.88,-84.52"/>
<polygon fill="midnightblue" stroke="midnightblue" points="110.79,-82.57 102.69,-75.75 104.77,-86.14 110.79,-82.57"/>
</g>
<!-- Node7 -->
<g id="node7" class="node">
<title>Node7</title>
<g id="a_node7"><a xlink:href="../../d9/dc4/kineis__sw__conf_8h.html" target="_top" xlink:title="Kineis stack SW configurations depending on platform used.">
<polygon fill="white" stroke="black" points="190,-56.5 190,-75.5 289,-75.5 289,-56.5 190,-56.5"/>
<text text-anchor="middle" x="239.5" y="-63.5" font-family="Helvetica,sans-Serif" font-size="10.00">kineis_sw_conf.h</text>
</a>
</g>
</g>
<!-- Node2&#45;&gt;Node7 -->
<g id="edge8" class="edge">
<title>Node2&#45;&gt;Node7</title>
<path fill="none" stroke="midnightblue" d="M147.17,-112.32C164.89,-103.62 192.4,-90.12 212.79,-80.11"/>
<polygon fill="midnightblue" stroke="midnightblue" points="214.44,-83.2 221.87,-75.65 211.35,-76.92 214.44,-83.2"/>
</g>
<!-- Node5&#45;&gt;Node3 -->
<g id="edge5" class="edge">
<title>Node5&#45;&gt;Node3</title>
<path fill="none" stroke="midnightblue" d="M86.09,-56.32C75.39,-48.18 59.16,-35.84 46.34,-26.09"/>
<polygon fill="midnightblue" stroke="midnightblue" points="48.19,-23.1 38.11,-19.83 43.96,-28.67 48.19,-23.1"/>
</g>
<!-- Node5&#45;&gt;Node4 -->
<g id="edge6" class="edge">
<title>Node5&#45;&gt;Node4</title>
<path fill="none" stroke="midnightblue" d="M109.71,-56.32C121.28,-48.11 138.88,-35.6 152.66,-25.81"/>
<polygon fill="midnightblue" stroke="midnightblue" points="154.94,-28.48 161.07,-19.83 150.89,-22.77 154.94,-28.48"/>
</g>
<!-- Node6 -->
<g id="node6" class="node">
<title>Node6</title>
<g id="a_node6"><a xlink:title=" ">
<polygon fill="white" stroke="#bfbfbf" points="71,-0.5 71,-19.5 124,-19.5 124,-0.5 71,-0.5"/>
<text text-anchor="middle" x="97.5" y="-7.5" font-family="Helvetica,sans-Serif" font-size="10.00">stdlib.h</text>
</a>
</g>
</g>
<!-- Node5&#45;&gt;Node6 -->
<g id="edge7" class="edge">
<title>Node5&#45;&gt;Node6</title>
<path fill="none" stroke="midnightblue" d="M97.5,-56.08C97.5,-49.01 97.5,-38.86 97.5,-29.99"/>
<polygon fill="midnightblue" stroke="midnightblue" points="101,-29.75 97.5,-19.75 94,-29.75 101,-29.75"/>
</g>
</g>
</svg>
