<?xml version="1.0" encoding="UTF-8" standalone="no"?>
<!DOCTYPE svg PUBLIC "-//W3C//DTD SVG 1.1//EN"
 "http://www.w3.org/Graphics/SVG/1.1/DTD/svg11.dtd">
<!-- Generated by graphviz version 2.43.0 (0)
 -->
<!-- Title: aes_cbc_encrypt Pages: 1 -->
<svg width="293pt" height="66pt"
 viewBox="0.00 0.00 293.00 66.00" xmlns="http://www.w3.org/2000/svg" xmlns:xlink="http://www.w3.org/1999/xlink">
<g id="graph0" class="graph" transform="scale(1 1) rotate(0) translate(4 62)">
<title>aes_cbc_encrypt</title>
<polygon fill="white" stroke="transparent" points="-4,4 -4,-62 289,-62 289,4 -4,4"/>
<!-- Node1 -->
<g id="node1" class="node">
<title>Node1</title>
<g id="a_node1"><a xlink:title=" ">
<polygon fill="#bfbfbf" stroke="black" points="187,-19.5 187,-38.5 285,-38.5 285,-19.5 187,-19.5"/>
<text text-anchor="middle" x="236" y="-26.5" font-family="Helvetica,sans-Serif" font-size="10.00">aes_cbc_encrypt</text>
</a>
</g>
</g>
<!-- Node2 -->
<g id="node2" class="node">
<title>Node2</title>
<g id="a_node2"><a xlink:href="../../d8/d5d/group___m_c_u___w_r_a_p_p_e_r_s.html#ga3b7c8cdc1d069a6810c8b3be83369f26" target="_top" xlink:title="Encrypt a 16&#45;bytes&#45;long data.">
<polygon fill="white" stroke="black" points="0,-38.5 0,-57.5 151,-57.5 151,-38.5 0,-38.5"/>
<text text-anchor="middle" x="75.5" y="-45.5" font-family="Helvetica,sans-Serif" font-size="10.00">MCU_AES_128_cbc_encrypt</text>
</a>
</g>
</g>
<!-- Node1&#45;&gt;Node2 -->
<g id="edge1" class="edge">
<title>Node1&#45;&gt;Node2</title>
<path fill="none" stroke="midnightblue" d="M176.38,-36.03C168.17,-37.01 159.64,-38.03 151.18,-39.05"/>
<polygon fill="midnightblue" stroke="midnightblue" points="177.07,-39.47 186.58,-34.8 176.24,-32.52 177.07,-39.47"/>
</g>
<!-- Node3 -->
<g id="node3" class="node">
<title>Node3</title>
<g id="a_node3"><a xlink:href="../../dd/d34/aes_8c.html#afa9f83c53abecf3a81de7cb31ef04712" target="_top" xlink:title=" ">
<polygon fill="white" stroke="black" points="23.5,-0.5 23.5,-19.5 127.5,-19.5 127.5,-0.5 23.5,-0.5"/>
<text text-anchor="middle" x="75.5" y="-7.5" font-family="Helvetica,sans-Serif" font-size="10.00">mix_sub_columns</text>
</a>
</g>
</g>
<!-- Node1&#45;&gt;Node3 -->
<g id="edge2" class="edge">
<title>Node1&#45;&gt;Node3</title>
<path fill="none" stroke="midnightblue" d="M176.29,-21.96C160.32,-20.05 143.16,-17.99 127.64,-16.13"/>
<polygon fill="midnightblue" stroke="midnightblue" points="176.24,-25.48 186.58,-23.2 177.07,-18.53 176.24,-25.48"/>
</g>
</g>
</svg>
