<?xml version="1.0" encoding="UTF-8" standalone="no"?>
<!DOCTYPE svg PUBLIC "-//W3C//DTD SVG 1.1//EN"
 "http://www.w3.org/Graphics/SVG/1.1/DTD/svg11.dtd">
<!-- Generated by graphviz version 2.43.0 (0)
 -->
<!-- Title: Kineis/App/Managers/MGR_AT_CMD/Src/mgr_at_cmd_common.c Pages: 1 -->
<svg width="650pt" height="330pt"
 viewBox="0.00 0.00 649.63 330.00" xmlns="http://www.w3.org/2000/svg" xmlns:xlink="http://www.w3.org/1999/xlink">
<g id="graph0" class="graph" transform="scale(1 1) rotate(0) translate(4 326)">
<title>Kineis/App/Managers/MGR_AT_CMD/Src/mgr_at_cmd_common.c</title>
<polygon fill="white" stroke="transparent" points="-4,4 -4,-326 645.63,-326 645.63,4 -4,4"/>
<!-- Node1 -->
<g id="node1" class="node">
<title>Node1</title>
<g id="a_node1"><a xlink:title="common part of the AT cmd manager (logging, AT cmd response api)">
<polygon fill="#bfbfbf" stroke="black" points="313.13,-280.5 313.13,-321.5 443.13,-321.5 443.13,-280.5 313.13,-280.5"/>
<text text-anchor="start" x="321.13" y="-309.5" font-family="Helvetica,sans-Serif" font-size="10.00">Kineis/App/Managers</text>
<text text-anchor="start" x="321.13" y="-298.5" font-family="Helvetica,sans-Serif" font-size="10.00">/MGR_AT_CMD/Src/mgr</text>
<text text-anchor="middle" x="378.13" y="-287.5" font-family="Helvetica,sans-Serif" font-size="10.00">_at_cmd_common.c</text>
</a>
</g>
</g>
<!-- Node2 -->
<g id="node2" class="node">
<title>Node2</title>
<g id="a_node2"><a xlink:href="../../d5/d58/mgr__at__cmd__common_8h.html" target="_top" xlink:title="header file for common part of the AT cmd manager">
<polygon fill="white" stroke="black" points="101.13,-224.5 101.13,-243.5 235.13,-243.5 235.13,-224.5 101.13,-224.5"/>
<text text-anchor="middle" x="168.13" y="-231.5" font-family="Helvetica,sans-Serif" font-size="10.00">mgr_at_cmd_common.h</text>
</a>
</g>
</g>
<!-- Node1&#45;&gt;Node2 -->
<g id="edge1" class="edge">
<title>Node1&#45;&gt;Node2</title>
<path fill="none" stroke="midnightblue" d="M315.12,-280.5C279.41,-269.44 235.94,-255.99 205.57,-246.59"/>
<polygon fill="midnightblue" stroke="midnightblue" points="206.39,-243.18 195.81,-243.57 204.32,-249.87 206.39,-243.18"/>
</g>
<!-- Node8 -->
<g id="node8" class="node">
<title>Node8</title>
<g id="a_node8"><a xlink:href="../../d4/d30/mcu__at__console_8h.html" target="_top" xlink:title="MCU wrapper for AT CMD console.">
<polygon fill="white" stroke="black" points="260.13,-168.5 260.13,-187.5 364.13,-187.5 364.13,-168.5 260.13,-168.5"/>
<text text-anchor="middle" x="312.13" y="-175.5" font-family="Helvetica,sans-Serif" font-size="10.00">mcu_at_console.h</text>
</a>
</g>
</g>
<!-- Node1&#45;&gt;Node8 -->
<g id="edge9" class="edge">
<title>Node1&#45;&gt;Node8</title>
<path fill="none" stroke="midnightblue" d="M367.38,-280.29C354.71,-257.06 333.84,-218.82 321.71,-196.56"/>
<polygon fill="midnightblue" stroke="midnightblue" points="324.67,-194.68 316.8,-187.57 318.52,-198.03 324.67,-194.68"/>
</g>
<!-- Node9 -->
<g id="node9" class="node">
<title>Node9</title>
<g id="a_node9"><a xlink:href="../../d3/d6a/user__data_8h.html" target="_top" xlink:title="Library to handle user data to be be received or transmitted over the air through several networks (e...">
<polygon fill="white" stroke="black" points="382.13,-168.5 382.13,-187.5 456.13,-187.5 456.13,-168.5 382.13,-168.5"/>
<text text-anchor="middle" x="419.13" y="-175.5" font-family="Helvetica,sans-Serif" font-size="10.00">user_data.h</text>
</a>
</g>
</g>
<!-- Node1&#45;&gt;Node9 -->
<g id="edge12" class="edge">
<title>Node1&#45;&gt;Node9</title>
<path fill="none" stroke="midnightblue" d="M384.81,-280.29C392.61,-257.27 405.4,-219.5 412.97,-197.17"/>
<polygon fill="midnightblue" stroke="midnightblue" points="416.33,-198.17 416.22,-187.57 409.7,-195.92 416.33,-198.17"/>
</g>
<!-- Node10 -->
<g id="node10" class="node">
<title>Node10</title>
<g id="a_node10"><a xlink:href="../../d7/d1a/kns__mac_8h.html" target="_top" xlink:title="Main header file for MAC layer of Kineis stack.">
<polygon fill="white" stroke="black" points="484.63,-224.5 484.63,-243.5 553.63,-243.5 553.63,-224.5 484.63,-224.5"/>
<text text-anchor="middle" x="519.13" y="-231.5" font-family="Helvetica,sans-Serif" font-size="10.00">kns_mac.h</text>
</a>
</g>
</g>
<!-- Node1&#45;&gt;Node10 -->
<g id="edge15" class="edge">
<title>Node1&#45;&gt;Node10</title>
<path fill="none" stroke="midnightblue" d="M420.43,-280.5C443.3,-269.96 470.9,-257.23 491.09,-247.92"/>
<polygon fill="midnightblue" stroke="midnightblue" points="492.74,-251.02 500.36,-243.65 489.81,-244.66 492.74,-251.02"/>
</g>
<!-- Node3 -->
<g id="node3" class="node">
<title>Node3</title>
<g id="a_node3"><a xlink:title=" ">
<polygon fill="white" stroke="#bfbfbf" points="387.63,-0.5 387.63,-19.5 440.63,-19.5 440.63,-0.5 387.63,-0.5"/>
<text text-anchor="middle" x="414.13" y="-7.5" font-family="Helvetica,sans-Serif" font-size="10.00">stdint.h</text>
</a>
</g>
</g>
<!-- Node2&#45;&gt;Node3 -->
<g id="edge2" class="edge">
<title>Node2&#45;&gt;Node3</title>
<path fill="none" stroke="midnightblue" d="M100.96,-229.08C45.74,-223.01 -19.55,-207.51 6.13,-168 89.32,-39.99 293.66,-16.22 377.42,-11.9"/>
<polygon fill="midnightblue" stroke="midnightblue" points="377.65,-15.4 387.48,-11.45 377.33,-8.4 377.65,-15.4"/>
</g>
<!-- Node4 -->
<g id="node4" class="node">
<title>Node4</title>
<g id="a_node4"><a xlink:title=" ">
<polygon fill="white" stroke="#bfbfbf" points="281.13,-112.5 281.13,-131.5 343.13,-131.5 343.13,-112.5 281.13,-112.5"/>
<text text-anchor="middle" x="312.13" y="-119.5" font-family="Helvetica,sans-Serif" font-size="10.00">stdbool.h</text>
</a>
</g>
</g>
<!-- Node2&#45;&gt;Node4 -->
<g id="edge3" class="edge">
<title>Node2&#45;&gt;Node4</title>
<path fill="none" stroke="midnightblue" d="M178.79,-224.49C194.52,-211.97 224.9,-187.94 251.13,-168 264.65,-157.72 280.05,-146.36 291.99,-137.63"/>
<polygon fill="midnightblue" stroke="midnightblue" points="294.34,-140.25 300.36,-131.53 290.22,-134.59 294.34,-140.25"/>
</g>
<!-- Node5 -->
<g id="node5" class="node">
<title>Node5</title>
<g id="a_node5"><a xlink:href="../../df/d36/strutil__lib_8h.html" target="_top" xlink:title="small utilities to manipulate strings">
<polygon fill="white" stroke="black" points="132.63,-168.5 132.63,-187.5 203.63,-187.5 203.63,-168.5 132.63,-168.5"/>
<text text-anchor="middle" x="168.13" y="-175.5" font-family="Helvetica,sans-Serif" font-size="10.00">strutil_lib.h</text>
</a>
</g>
</g>
<!-- Node2&#45;&gt;Node5 -->
<g id="edge4" class="edge">
<title>Node2&#45;&gt;Node5</title>
<path fill="none" stroke="midnightblue" d="M168.13,-224.08C168.13,-217.01 168.13,-206.86 168.13,-197.99"/>
<polygon fill="midnightblue" stroke="midnightblue" points="171.63,-197.75 168.13,-187.75 164.63,-197.75 171.63,-197.75"/>
</g>
<!-- Node7 -->
<g id="node7" class="node">
<title>Node7</title>
<g id="a_node7"><a xlink:href="../../d9/dc4/kineis__sw__conf_8h.html" target="_top" xlink:title="Kineis stack SW configurations depending on platform used.">
<polygon fill="white" stroke="black" points="15.63,-168.5 15.63,-187.5 114.63,-187.5 114.63,-168.5 15.63,-168.5"/>
<text text-anchor="middle" x="65.13" y="-175.5" font-family="Helvetica,sans-Serif" font-size="10.00">kineis_sw_conf.h</text>
</a>
</g>
</g>
<!-- Node2&#45;&gt;Node7 -->
<g id="edge8" class="edge">
<title>Node2&#45;&gt;Node7</title>
<path fill="none" stroke="midnightblue" d="M151.58,-224.32C135.14,-215.7 109.69,-202.36 90.66,-192.39"/>
<polygon fill="midnightblue" stroke="midnightblue" points="92.12,-189.2 81.63,-187.65 88.87,-195.4 92.12,-189.2"/>
</g>
<!-- Node5&#45;&gt;Node3 -->
<g id="edge5" class="edge">
<title>Node5&#45;&gt;Node3</title>
<path fill="none" stroke="midnightblue" d="M181.01,-168.31C221.03,-141.3 343.49,-58.67 393.01,-25.25"/>
<polygon fill="midnightblue" stroke="midnightblue" points="395.04,-28.1 401.37,-19.61 391.13,-22.3 395.04,-28.1"/>
</g>
<!-- Node5&#45;&gt;Node4 -->
<g id="edge6" class="edge">
<title>Node5&#45;&gt;Node4</title>
<path fill="none" stroke="midnightblue" d="M190.94,-168.44C214.96,-159.44 252.96,-145.19 280,-135.05"/>
<polygon fill="midnightblue" stroke="midnightblue" points="281.28,-138.3 289.42,-131.52 278.82,-131.75 281.28,-138.3"/>
</g>
<!-- Node6 -->
<g id="node6" class="node">
<title>Node6</title>
<g id="a_node6"><a xlink:title=" ">
<polygon fill="white" stroke="#bfbfbf" points="141.63,-112.5 141.63,-131.5 194.63,-131.5 194.63,-112.5 141.63,-112.5"/>
<text text-anchor="middle" x="168.13" y="-119.5" font-family="Helvetica,sans-Serif" font-size="10.00">stdlib.h</text>
</a>
</g>
</g>
<!-- Node5&#45;&gt;Node6 -->
<g id="edge7" class="edge">
<title>Node5&#45;&gt;Node6</title>
<path fill="none" stroke="midnightblue" d="M168.13,-168.08C168.13,-161.01 168.13,-150.86 168.13,-141.99"/>
<polygon fill="midnightblue" stroke="midnightblue" points="171.63,-141.75 168.13,-131.75 164.63,-141.75 171.63,-141.75"/>
</g>
<!-- Node8&#45;&gt;Node3 -->
<g id="edge11" class="edge">
<title>Node8&#45;&gt;Node3</title>
<path fill="none" stroke="midnightblue" d="M321.12,-168.26C329.75,-159.58 342.8,-145.63 352.13,-132 375.58,-97.72 396.08,-53.4 406.61,-29.04"/>
<polygon fill="midnightblue" stroke="midnightblue" points="409.92,-30.2 410.61,-19.63 403.48,-27.46 409.92,-30.2"/>
</g>
<!-- Node8&#45;&gt;Node4 -->
<g id="edge10" class="edge">
<title>Node8&#45;&gt;Node4</title>
<path fill="none" stroke="midnightblue" d="M312.13,-168.08C312.13,-161.01 312.13,-150.86 312.13,-141.99"/>
<polygon fill="midnightblue" stroke="midnightblue" points="315.63,-141.75 312.13,-131.75 308.63,-141.75 315.63,-141.75"/>
</g>
<!-- Node9&#45;&gt;Node3 -->
<g id="edge14" class="edge">
<title>Node9&#45;&gt;Node3</title>
<path fill="none" stroke="midnightblue" d="M418.86,-168.08C418.07,-141.95 415.76,-65.21 414.69,-29.58"/>
<polygon fill="midnightblue" stroke="midnightblue" points="418.18,-29.46 414.39,-19.57 411.19,-29.67 418.18,-29.46"/>
</g>
<!-- Node9&#45;&gt;Node4 -->
<g id="edge13" class="edge">
<title>Node9&#45;&gt;Node4</title>
<path fill="none" stroke="midnightblue" d="M401.94,-168.32C384.78,-159.66 358.18,-146.24 338.38,-136.25"/>
<polygon fill="midnightblue" stroke="midnightblue" points="339.78,-133.04 329.28,-131.65 336.63,-139.28 339.78,-133.04"/>
</g>
<!-- Node11 -->
<g id="node11" class="node">
<title>Node11</title>
<g id="a_node11"><a xlink:href="../../df/d64/kns__mac__evt_8h.html" target="_top" xlink:title=" ">
<polygon fill="white" stroke="black" points="474.13,-168.5 474.13,-187.5 564.13,-187.5 564.13,-168.5 474.13,-168.5"/>
<text text-anchor="middle" x="519.13" y="-175.5" font-family="Helvetica,sans-Serif" font-size="10.00">kns_mac_evt.h</text>
</a>
</g>
</g>
<!-- Node10&#45;&gt;Node11 -->
<g id="edge16" class="edge">
<title>Node10&#45;&gt;Node11</title>
<path fill="none" stroke="midnightblue" d="M519.13,-224.08C519.13,-217.01 519.13,-206.86 519.13,-197.99"/>
<polygon fill="midnightblue" stroke="midnightblue" points="522.63,-197.75 519.13,-187.75 515.63,-197.75 522.63,-197.75"/>
</g>
<!-- Node13 -->
<g id="node13" class="node">
<title>Node13</title>
<g id="a_node13"><a xlink:href="../../d8/d4a/kns__mac__prfl__cfg_8h.html" target="_top" xlink:title="Header file describing the ser settings required to configure a MAC protocol.">
<polygon fill="white" stroke="black" points="530.63,-112.5 530.63,-131.5 641.63,-131.5 641.63,-112.5 530.63,-112.5"/>
<text text-anchor="middle" x="586.13" y="-119.5" font-family="Helvetica,sans-Serif" font-size="10.00">kns_mac_prfl_cfg.h</text>
</a>
</g>
</g>
<!-- Node10&#45;&gt;Node13 -->
<g id="edge24" class="edge">
<title>Node10&#45;&gt;Node13</title>
<path fill="none" stroke="midnightblue" d="M534.42,-224.33C546.84,-216.48 563.77,-203.73 573.13,-188 581.49,-173.94 584.58,-155.44 585.66,-141.78"/>
<polygon fill="midnightblue" stroke="midnightblue" points="589.17,-141.81 586.18,-131.64 582.18,-141.45 589.17,-141.81"/>
</g>
<!-- Node11&#45;&gt;Node3 -->
<g id="edge18" class="edge">
<title>Node11&#45;&gt;Node3</title>
<path fill="none" stroke="midnightblue" d="M513.48,-168.08C496.74,-141.61 447.15,-63.21 425.01,-28.21"/>
<polygon fill="midnightblue" stroke="midnightblue" points="427.85,-26.15 419.55,-19.57 421.93,-29.89 427.85,-26.15"/>
</g>
<!-- Node11&#45;&gt;Node4 -->
<g id="edge17" class="edge">
<title>Node11&#45;&gt;Node4</title>
<path fill="none" stroke="midnightblue" d="M486.33,-168.44C450.33,-159.05 392.47,-143.96 353.41,-133.77"/>
<polygon fill="midnightblue" stroke="midnightblue" points="353.98,-130.3 343.42,-131.16 352.21,-137.07 353.98,-130.3"/>
</g>
<!-- Node12 -->
<g id="node12" class="node">
<title>Node12</title>
<g id="a_node12"><a xlink:href="../../d8/d85/kns__types_8h.html" target="_top" xlink:title="Kineis types definition.">
<polygon fill="white" stroke="black" points="480.63,-56.5 480.63,-75.5 555.63,-75.5 555.63,-56.5 480.63,-56.5"/>
<text text-anchor="middle" x="518.13" y="-63.5" font-family="Helvetica,sans-Serif" font-size="10.00">kns_types.h</text>
</a>
</g>
</g>
<!-- Node11&#45;&gt;Node12 -->
<g id="edge19" class="edge">
<title>Node11&#45;&gt;Node12</title>
<path fill="none" stroke="midnightblue" d="M519.05,-168.37C518.89,-150.62 518.51,-109.67 518.3,-85.6"/>
<polygon fill="midnightblue" stroke="midnightblue" points="521.8,-85.56 518.21,-75.59 514.8,-85.62 521.8,-85.56"/>
</g>
<!-- Node11&#45;&gt;Node13 -->
<g id="edge21" class="edge">
<title>Node11&#45;&gt;Node13</title>
<path fill="none" stroke="midnightblue" d="M529.89,-168.32C539.89,-160.26 555.01,-148.08 567.06,-138.37"/>
<polygon fill="midnightblue" stroke="midnightblue" points="569.58,-140.83 575.17,-131.83 565.18,-135.38 569.58,-140.83"/>
</g>
<!-- Node12&#45;&gt;Node3 -->
<g id="edge20" class="edge">
<title>Node12&#45;&gt;Node3</title>
<path fill="none" stroke="midnightblue" d="M501.42,-56.32C484.82,-47.7 459.12,-34.36 439.91,-24.39"/>
<polygon fill="midnightblue" stroke="midnightblue" points="441.28,-21.16 430.79,-19.65 438.06,-27.37 441.28,-21.16"/>
</g>
<!-- Node13&#45;&gt;Node3 -->
<g id="edge22" class="edge">
<title>Node13&#45;&gt;Node3</title>
<path fill="none" stroke="midnightblue" d="M585.63,-112.08C584.36,-98.14 579.9,-71.23 564.13,-56 533.68,-26.6 484.81,-16.32 451.17,-12.77"/>
<polygon fill="midnightblue" stroke="midnightblue" points="451.1,-9.25 440.82,-11.84 450.47,-16.22 451.1,-9.25"/>
</g>
<!-- Node13&#45;&gt;Node12 -->
<g id="edge23" class="edge">
<title>Node13&#45;&gt;Node12</title>
<path fill="none" stroke="midnightblue" d="M575.2,-112.32C564.95,-104.18 549.41,-91.84 537.13,-82.09"/>
<polygon fill="midnightblue" stroke="midnightblue" points="539.26,-79.31 529.25,-75.83 534.91,-84.79 539.26,-79.31"/>
</g>
</g>
</svg>
