<?xml version="1.0" encoding="UTF-8" standalone="no"?>
<!DOCTYPE svg PUBLIC "-//W3C//DTD SVG 1.1//EN"
 "http://www.w3.org/Graphics/SVG/1.1/DTD/svg11.dtd">
<!-- Generated by graphviz version 2.43.0 (0)
 -->
<!-- Title: Kineis/App/Managers/MGR_AT_CMD/Src/mgr_at_cmd_common.c Pages: 1 -->
<!--zoomable 274 -->
<svg id="main" version="1.1" xmlns="http://www.w3.org/2000/svg" xmlns:xlink="http://www.w3.org/1999/xlink" xml:space="preserve" onload="init(evt)">
<style type="text/css"><![CDATA[
.edge:hover path { stroke: red; }
.edge:hover polygon { stroke: red; fill: red; }
]]></style>
<script type="text/javascript"><![CDATA[
var edges = document.getElementsByTagName('g');
if (edges && edges.length) {
  for (var i=0;i<edges.length;i++) {
    if (edges[i].id.substr(0,4)=='edge') {
      edges[i].setAttribute('class','edge');
    }
  }
}
]]></script>
        <defs>
                <circle id="rim" cx="0" cy="0" r="7"/>
                <circle id="rim2" cx="0" cy="0" r="3.5"/>
                <g id="zoomPlus">
                        <use xlink:href="#rim" fill="#404040">
                                <set attributeName="fill" to="#808080" begin="zoomplus.mouseover" end="zoomplus.mouseout"/>
                        </use>
                        <path d="M-4,0h8M0,-4v8" fill="none" stroke="white" stroke-width="1.5" pointer-events="none"/>
                </g>
                <g id="zoomMin">
                        <use xlink:href="#rim" fill="#404040">
                                <set attributeName="fill" to="#808080" begin="zoomminus.mouseover" end="zoomminus.mouseout"/>
                        </use>
                        <path d="M-4,0h8" fill="none" stroke="white" stroke-width="1.5" pointer-events="none"/>
                </g>
                <g id="dirArrow">
                        <path fill="none" stroke="white" stroke-width="1.5" d="M0,-3.0v7 M-2.5,-0.5L0,-3.0L2.5,-0.5"/>
                </g>
               <g id="resetDef">
                       <use xlink:href="#rim2" fill="#404040">
                               <set attributeName="fill" to="#808080" begin="reset.mouseover" end="reset.mouseout"/>
                       </use>
               </g>
        </defs>

<script type="text/javascript">
var viewWidth = 703;
var viewHeight = 274;
var sectionId = 'dynsection-0';
</script>
<script xlink:href="../../svgpan.js"/>
<svg id="graph" class="graph">
<g id="viewport">
<title>Kineis/App/Managers/MGR_AT_CMD/Src/mgr_at_cmd_common.c</title>
<polygon fill="white" stroke="transparent" points="-4,4 -4,-270 698.64,-270 698.64,4 -4,4"/>
<!-- Node1 -->
<g id="node1" class="node">
<title>Node1</title>
<g id="a_node1"><a xlink:title="common part of the AT cmd manager (logging, AT cmd response api)">
<polygon fill="#bfbfbf" stroke="black" points="314.14,-224.5 314.14,-265.5 444.14,-265.5 444.14,-224.5 314.14,-224.5"/>
<text text-anchor="start" x="322.14" y="-253.5" font-family="Helvetica,sans-Serif" font-size="10.00">Kineis/App/Managers</text>
<text text-anchor="start" x="322.14" y="-242.5" font-family="Helvetica,sans-Serif" font-size="10.00">/MGR_AT_CMD/Src/mgr</text>
<text text-anchor="middle" x="379.14" y="-231.5" font-family="Helvetica,sans-Serif" font-size="10.00">_at_cmd_common.c</text>
</a>
</g>
</g>
<!-- Node2 -->
<g id="node2" class="node">
<title>Node2</title>
<g id="a_node2"><a xlink:href="../../d5/d58/mgr__at__cmd__common_8h.html" target="_top" xlink:title="header file for common part of the AT cmd manager">
<polygon fill="white" stroke="black" points="88.14,-168.5 88.14,-187.5 222.14,-187.5 222.14,-168.5 88.14,-168.5"/>
<text text-anchor="middle" x="155.14" y="-175.5" font-family="Helvetica,sans-Serif" font-size="10.00">mgr_at_cmd_common.h</text>
</a>
</g>
</g>
<!-- Node1&#45;&gt;Node2 -->
<g id="edge1" class="edge">
<title>Node1&#45;&gt;Node2</title>
<path fill="none" stroke="midnightblue" d="M314.05,-225.11C275.3,-213.87 227.41,-199.97 194.39,-190.39"/>
<polygon fill="midnightblue" stroke="midnightblue" points="195.23,-186.99 184.65,-187.56 193.28,-193.71 195.23,-186.99"/>
</g>
<!-- Node8 -->
<g id="node8" class="node">
<title>Node8</title>
<g id="a_node8"><a xlink:href="../../d4/d30/mcu__at__console_8h.html" target="_top" xlink:title="MCU wrapper for AT CMD console.">
<polygon fill="white" stroke="black" points="261.14,-112.5 261.14,-131.5 365.14,-131.5 365.14,-112.5 261.14,-112.5"/>
<text text-anchor="middle" x="313.14" y="-119.5" font-family="Helvetica,sans-Serif" font-size="10.00">mcu_at_console.h</text>
</a>
</g>
</g>
<!-- Node1&#45;&gt;Node8 -->
<g id="edge9" class="edge">
<title>Node1&#45;&gt;Node8</title>
<path fill="none" stroke="midnightblue" d="M368.39,-224.29C355.72,-201.06 334.86,-162.82 322.72,-140.56"/>
<polygon fill="midnightblue" stroke="midnightblue" points="325.68,-138.68 317.82,-131.57 319.53,-142.03 325.68,-138.68"/>
</g>
<!-- Node9 -->
<g id="node9" class="node">
<title>Node9</title>
<g id="a_node9"><a xlink:href="../../d3/d6a/user__data_8h.html" target="_top" xlink:title="Library to handle user data to be be received or transmitted over the air through several networks (e...">
<polygon fill="white" stroke="black" points="383.14,-112.5 383.14,-131.5 457.14,-131.5 457.14,-112.5 383.14,-112.5"/>
<text text-anchor="middle" x="420.14" y="-119.5" font-family="Helvetica,sans-Serif" font-size="10.00">user_data.h</text>
</a>
</g>
</g>
<!-- Node1&#45;&gt;Node9 -->
<g id="edge12" class="edge">
<title>Node1&#45;&gt;Node9</title>
<path fill="none" stroke="midnightblue" d="M385.82,-224.29C393.62,-201.27 406.42,-163.5 413.99,-141.17"/>
<polygon fill="midnightblue" stroke="midnightblue" points="417.34,-142.17 417.24,-131.57 410.71,-139.92 417.34,-142.17"/>
</g>
<!-- Node10 -->
<g id="node10" class="node">
<title>Node10</title>
<g id="a_node10"><a xlink:href="../../d7/d1a/kns__mac_8h.html" target="_top" xlink:title="Main header file for MAC layer of Kineis stack.">
<polygon fill="white" stroke="black" points="485.64,-168.5 485.64,-187.5 554.64,-187.5 554.64,-168.5 485.64,-168.5"/>
<text text-anchor="middle" x="520.14" y="-175.5" font-family="Helvetica,sans-Serif" font-size="10.00">kns_mac.h</text>
</a>
</g>
</g>
<!-- Node1&#45;&gt;Node10 -->
<g id="edge15" class="edge">
<title>Node1&#45;&gt;Node10</title>
<path fill="none" stroke="midnightblue" d="M421.45,-224.5C444.31,-213.96 471.91,-201.23 492.11,-191.92"/>
<polygon fill="midnightblue" stroke="midnightblue" points="493.76,-195.02 501.37,-187.65 490.83,-188.66 493.76,-195.02"/>
</g>
<!-- Node3 -->
<g id="node3" class="node">
<title>Node3</title>
<g id="a_node3"><a xlink:title=" ">
<polygon fill="white" stroke="#bfbfbf" points="391.64,-0.5 391.64,-19.5 444.64,-19.5 444.64,-0.5 391.64,-0.5"/>
<text text-anchor="middle" x="418.14" y="-7.5" font-family="Helvetica,sans-Serif" font-size="10.00">stdint.h</text>
</a>
</g>
</g>
<!-- Node2&#45;&gt;Node3 -->
<g id="edge2" class="edge">
<title>Node2&#45;&gt;Node3</title>
<path fill="none" stroke="midnightblue" d="M87.79,-173.87C58.09,-168.71 25.77,-157.14 7.14,-132 -18.06,-98 32,-68.43 55.14,-56 111.03,-25.99 300.76,-15.41 381.4,-12.22"/>
<polygon fill="midnightblue" stroke="midnightblue" points="381.72,-15.71 391.58,-11.83 381.45,-8.71 381.72,-15.71"/>
</g>
<!-- Node4 -->
<g id="node4" class="node">
<title>Node4</title>
<g id="a_node4"><a xlink:title=" ">
<polygon fill="white" stroke="#bfbfbf" points="282.14,-56.5 282.14,-75.5 344.14,-75.5 344.14,-56.5 282.14,-56.5"/>
<text text-anchor="middle" x="313.14" y="-63.5" font-family="Helvetica,sans-Serif" font-size="10.00">stdbool.h</text>
</a>
</g>
</g>
<!-- Node2&#45;&gt;Node4 -->
<g id="edge3" class="edge">
<title>Node2&#45;&gt;Node4</title>
<path fill="none" stroke="midnightblue" d="M167.54,-168.37C194.54,-149.57 258.89,-104.77 292.27,-81.53"/>
<polygon fill="midnightblue" stroke="midnightblue" points="294.59,-84.18 300.8,-75.59 290.59,-78.43 294.59,-84.18"/>
</g>
<!-- Node5 -->
<g id="node5" class="node">
<title>Node5</title>
<g id="a_node5"><a xlink:href="../../df/d36/strutil__lib_8h.html" target="_top" xlink:title="small utilities to manipulate strings">
<polygon fill="white" stroke="black" points="16.64,-112.5 16.64,-131.5 87.64,-131.5 87.64,-112.5 16.64,-112.5"/>
<text text-anchor="middle" x="52.14" y="-119.5" font-family="Helvetica,sans-Serif" font-size="10.00">strutil_lib.h</text>
</a>
</g>
</g>
<!-- Node2&#45;&gt;Node5 -->
<g id="edge4" class="edge">
<title>Node2&#45;&gt;Node5</title>
<path fill="none" stroke="midnightblue" d="M138.59,-168.32C122.15,-159.7 96.71,-146.36 77.67,-136.39"/>
<polygon fill="midnightblue" stroke="midnightblue" points="79.13,-133.2 68.65,-131.65 75.88,-139.4 79.13,-133.2"/>
</g>
<!-- Node7 -->
<g id="node7" class="node">
<title>Node7</title>
<g id="a_node7"><a xlink:href="../../d9/dc4/kineis__sw__conf_8h.html" target="_top" xlink:title="Kineis stack SW configurations depending on platform used.">
<polygon fill="white" stroke="black" points="105.64,-112.5 105.64,-131.5 204.64,-131.5 204.64,-112.5 105.64,-112.5"/>
<text text-anchor="middle" x="155.14" y="-119.5" font-family="Helvetica,sans-Serif" font-size="10.00">kineis_sw_conf.h</text>
</a>
</g>
</g>
<!-- Node2&#45;&gt;Node7 -->
<g id="edge8" class="edge">
<title>Node2&#45;&gt;Node7</title>
<path fill="none" stroke="midnightblue" d="M155.14,-168.08C155.14,-161.01 155.14,-150.86 155.14,-141.99"/>
<polygon fill="midnightblue" stroke="midnightblue" points="158.64,-141.75 155.14,-131.75 151.64,-141.75 158.64,-141.75"/>
</g>
<!-- Node5&#45;&gt;Node3 -->
<g id="edge5" class="edge">
<title>Node5&#45;&gt;Node3</title>
<path fill="none" stroke="midnightblue" d="M51.9,-112.27C52.02,-98.09 54.52,-70.22 71.14,-56 117.14,-16.65 301.83,-11.29 381.39,-10.85"/>
<polygon fill="midnightblue" stroke="midnightblue" points="381.46,-14.35 391.44,-10.82 381.43,-7.35 381.46,-14.35"/>
</g>
<!-- Node5&#45;&gt;Node4 -->
<g id="edge6" class="edge">
<title>Node5&#45;&gt;Node4</title>
<path fill="none" stroke="midnightblue" d="M87.88,-113.6C135.95,-103.66 221.23,-86.02 271.94,-75.53"/>
<polygon fill="midnightblue" stroke="midnightblue" points="272.82,-78.92 281.9,-73.46 271.4,-72.06 272.82,-78.92"/>
</g>
<!-- Node6 -->
<g id="node6" class="node">
<title>Node6</title>
<g id="a_node6"><a xlink:title=" ">
<polygon fill="white" stroke="#bfbfbf" points="80.64,-56.5 80.64,-75.5 133.64,-75.5 133.64,-56.5 80.64,-56.5"/>
<text text-anchor="middle" x="107.14" y="-63.5" font-family="Helvetica,sans-Serif" font-size="10.00">stdlib.h</text>
</a>
</g>
</g>
<!-- Node5&#45;&gt;Node6 -->
<g id="edge7" class="edge">
<title>Node5&#45;&gt;Node6</title>
<path fill="none" stroke="midnightblue" d="M61.22,-112.08C69.31,-104.14 81.34,-92.34 91.05,-82.8"/>
<polygon fill="midnightblue" stroke="midnightblue" points="93.54,-85.25 98.23,-75.75 88.64,-80.26 93.54,-85.25"/>
</g>
<!-- Node8&#45;&gt;Node3 -->
<g id="edge11" class="edge">
<title>Node8&#45;&gt;Node3</title>
<path fill="none" stroke="midnightblue" d="M321.38,-112.37C338.94,-93.97 380.27,-50.67 402.82,-27.05"/>
<polygon fill="midnightblue" stroke="midnightblue" points="405.57,-29.24 409.94,-19.59 400.5,-24.41 405.57,-29.24"/>
</g>
<!-- Node8&#45;&gt;Node4 -->
<g id="edge10" class="edge">
<title>Node8&#45;&gt;Node4</title>
<path fill="none" stroke="midnightblue" d="M313.14,-112.08C313.14,-105.01 313.14,-94.86 313.14,-85.99"/>
<polygon fill="midnightblue" stroke="midnightblue" points="316.64,-85.75 313.14,-75.75 309.64,-85.75 316.64,-85.75"/>
</g>
<!-- Node9&#45;&gt;Node3 -->
<g id="edge14" class="edge">
<title>Node9&#45;&gt;Node3</title>
<path fill="none" stroke="midnightblue" d="M419.98,-112.37C419.66,-94.62 418.92,-53.67 418.48,-29.6"/>
<polygon fill="midnightblue" stroke="midnightblue" points="421.98,-29.53 418.3,-19.59 414.98,-29.65 421.98,-29.53"/>
</g>
<!-- Node9&#45;&gt;Node4 -->
<g id="edge13" class="edge">
<title>Node9&#45;&gt;Node4</title>
<path fill="none" stroke="midnightblue" d="M402.95,-112.32C385.79,-103.66 359.2,-90.24 339.39,-80.25"/>
<polygon fill="midnightblue" stroke="midnightblue" points="340.79,-77.04 330.29,-75.65 337.64,-83.28 340.79,-77.04"/>
</g>
<!-- Node11 -->
<g id="node11" class="node">
<title>Node11</title>
<g id="a_node11"><a xlink:href="../../df/d64/kns__mac__evt_8h.html" target="_top" xlink:title=" ">
<polygon fill="white" stroke="black" points="475.14,-112.5 475.14,-131.5 565.14,-131.5 565.14,-112.5 475.14,-112.5"/>
<text text-anchor="middle" x="520.14" y="-119.5" font-family="Helvetica,sans-Serif" font-size="10.00">kns_mac_evt.h</text>
</a>
</g>
</g>
<!-- Node10&#45;&gt;Node11 -->
<g id="edge16" class="edge">
<title>Node10&#45;&gt;Node11</title>
<path fill="none" stroke="midnightblue" d="M520.14,-168.08C520.14,-161.01 520.14,-150.86 520.14,-141.99"/>
<polygon fill="midnightblue" stroke="midnightblue" points="523.64,-141.75 520.14,-131.75 516.64,-141.75 523.64,-141.75"/>
</g>
<!-- Node13 -->
<g id="node13" class="node">
<title>Node13</title>
<g id="a_node13"><a xlink:href="../../d8/d4a/kns__mac__prfl__cfg_8h.html" target="_top" xlink:title="Header file describing the ser settings required to configure a MAC protocol.">
<polygon fill="white" stroke="black" points="583.64,-112.5 583.64,-131.5 694.64,-131.5 694.64,-112.5 583.64,-112.5"/>
<text text-anchor="middle" x="639.14" y="-119.5" font-family="Helvetica,sans-Serif" font-size="10.00">kns_mac_prfl_cfg.h</text>
</a>
</g>
</g>
<!-- Node10&#45;&gt;Node13 -->
<g id="edge21" class="edge">
<title>Node10&#45;&gt;Node13</title>
<path fill="none" stroke="midnightblue" d="M539,-168.44C558.41,-159.64 588.87,-145.81 611.11,-135.72"/>
<polygon fill="midnightblue" stroke="midnightblue" points="612.71,-138.84 620.37,-131.52 609.82,-132.46 612.71,-138.84"/>
</g>
<!-- Node11&#45;&gt;Node3 -->
<g id="edge18" class="edge">
<title>Node11&#45;&gt;Node3</title>
<path fill="none" stroke="midnightblue" d="M511.59,-112.49C502.63,-103.52 488.22,-88.94 476.14,-76 460.9,-59.68 443.94,-40.56 432.32,-27.3"/>
<polygon fill="midnightblue" stroke="midnightblue" points="434.74,-24.75 425.53,-19.52 429.47,-29.36 434.74,-24.75"/>
</g>
<!-- Node11&#45;&gt;Node4 -->
<g id="edge17" class="edge">
<title>Node11&#45;&gt;Node4</title>
<path fill="none" stroke="midnightblue" d="M487.34,-112.44C451.34,-103.05 393.48,-87.96 354.42,-77.77"/>
<polygon fill="midnightblue" stroke="midnightblue" points="354.99,-74.3 344.43,-75.16 353.23,-81.07 354.99,-74.3"/>
</g>
<!-- Node12 -->
<g id="node12" class="node">
<title>Node12</title>
<g id="a_node12"><a xlink:href="../../d8/d85/kns__types_8h.html" target="_top" xlink:title="Kineis types definition.">
<polygon fill="white" stroke="black" points="484.64,-56.5 484.64,-75.5 559.64,-75.5 559.64,-56.5 484.64,-56.5"/>
<text text-anchor="middle" x="522.14" y="-63.5" font-family="Helvetica,sans-Serif" font-size="10.00">kns_types.h</text>
</a>
</g>
</g>
<!-- Node11&#45;&gt;Node12 -->
<g id="edge19" class="edge">
<title>Node11&#45;&gt;Node12</title>
<path fill="none" stroke="midnightblue" d="M520.47,-112.08C520.73,-105.01 521.11,-94.86 521.44,-85.99"/>
<polygon fill="midnightblue" stroke="midnightblue" points="524.94,-85.87 521.82,-75.75 517.95,-85.61 524.94,-85.87"/>
</g>
<!-- Node12&#45;&gt;Node3 -->
<g id="edge20" class="edge">
<title>Node12&#45;&gt;Node3</title>
<path fill="none" stroke="midnightblue" d="M505.43,-56.32C488.83,-47.7 463.14,-34.36 443.92,-24.39"/>
<polygon fill="midnightblue" stroke="midnightblue" points="445.3,-21.16 434.81,-19.65 442.07,-27.37 445.3,-21.16"/>
</g>
<!-- Node13&#45;&gt;Node3 -->
<g id="edge22" class="edge">
<title>Node13&#45;&gt;Node3</title>
<path fill="none" stroke="midnightblue" d="M631.8,-112.07C619.86,-98.12 594.88,-71.18 568.14,-56 532.35,-35.68 486.43,-23.65 454.88,-17.22"/>
<polygon fill="midnightblue" stroke="midnightblue" points="455.26,-13.73 444.77,-15.25 453.92,-20.6 455.26,-13.73"/>
</g>
<!-- Node13&#45;&gt;Node12 -->
<g id="edge23" class="edge">
<title>Node13&#45;&gt;Node12</title>
<path fill="none" stroke="midnightblue" d="M620.6,-112.44C601.52,-103.64 571.57,-89.81 549.71,-79.72"/>
<polygon fill="midnightblue" stroke="midnightblue" points="551.14,-76.53 540.59,-75.52 548.21,-82.88 551.14,-76.53"/>
</g>
</g>
</svg>
        <g id="navigator" transform="translate(0 0)" fill="#404254">
                <rect fill="#f2f5e9" fill-opacity="0.5" stroke="#606060" stroke-width=".5" x="0" y="0" width="60" height="60"/>
                <use id="zoomplus" xlink:href="#zoomPlus" x="17" y="9" onmousedown="handleZoom(evt,'in')"/>
                <use id="zoomminus" xlink:href="#zoomMin" x="42" y="9" onmousedown="handleZoom(evt,'out')"/>
                <use id="reset" xlink:href="#resetDef" x="30" y="36" onmousedown="handleReset()"/>
                <g id="arrowUp" xlink:href="#dirArrow" transform="translate(30 24)" onmousedown="handlePan(0,-1)">
                  <use xlink:href="#rim" fill="#404040">
                        <set attributeName="fill" to="#808080" begin="arrowUp.mouseover" end="arrowUp.mouseout"/>
                  </use>
                  <path fill="none" stroke="white" stroke-width="1.5" d="M0,-3.0v7 M-2.5,-0.5L0,-3.0L2.5,-0.5"/>
                </g>
                <g id="arrowRight" xlink:href="#dirArrow" transform="rotate(90) translate(36 -43)" onmousedown="handlePan(1,0)">
                  <use xlink:href="#rim" fill="#404040">
                        <set attributeName="fill" to="#808080" begin="arrowRight.mouseover" end="arrowRight.mouseout"/>
                  </use>
                  <path fill="none" stroke="white" stroke-width="1.5" d="M0,-3.0v7 M-2.5,-0.5L0,-3.0L2.5,-0.5"/>
                </g>
                <g id="arrowDown" xlink:href="#dirArrow" transform="rotate(180) translate(-30 -48)" onmousedown="handlePan(0,1)">
                  <use xlink:href="#rim" fill="#404040">
                        <set attributeName="fill" to="#808080" begin="arrowDown.mouseover" end="arrowDown.mouseout"/>
                  </use>
                  <path fill="none" stroke="white" stroke-width="1.5" d="M0,-3.0v7 M-2.5,-0.5L0,-3.0L2.5,-0.5"/>
                </g>
                <g id="arrowLeft" xlink:href="#dirArrow" transform="rotate(270) translate(-36 17)" onmousedown="handlePan(-1,0)">
                  <use xlink:href="#rim" fill="#404040">
                        <set attributeName="fill" to="#808080" begin="arrowLeft.mouseover" end="arrowLeft.mouseout"/>
                  </use>
                  <path fill="none" stroke="white" stroke-width="1.5" d="M0,-3.0v7 M-2.5,-0.5L0,-3.0L2.5,-0.5"/>
                </g>
        </g>
        <svg viewBox="0 0 15 15" width="100%" height="30px" preserveAspectRatio="xMaxYMin meet">
         <g id="arrow_out" transform="scale(0.3 0.3)">
          <a xlink:href="mgr__at__cmd__common_8c__incl_org.svg" target="_base">
           <rect id="button" ry="5" rx="5" y="6" x="6" height="38" width="38"
                fill="#f2f5e9" fill-opacity="0.5" stroke="#606060" stroke-width="1.0"/>
           <path id="arrow"
             d="M 11.500037,31.436501 C 11.940474,20.09759 22.043105,11.32322 32.158766,21.979434 L 37.068811,17.246167 C 37.068811,17.246167 37.088388,32 37.088388,32 L 22.160133,31.978069 C 22.160133,31.978069 26.997745,27.140456 26.997745,27.140456 C 18.528582,18.264221 13.291696,25.230495 11.500037,31.436501 z"
             style="fill:#404040;"/>
          </a>
         </g>
        </svg>
</svg>
